<?xml version="1.0" encoding="UTF-8" standalone="no"?>
<!-- Created with Inkscape (http://www.inkscape.org/) -->

<svg
   width="2962.6011mm"
   height="169.38449mm"
   viewBox="0 0 2962.6011 169.38449"
   version="1.1"
   id="svg5"
   xml:space="preserve"
   sodipodi:docname="H_N_elvish_line_1.svg"
   inkscape:version="1.2.2 (1:1.2.2+202212051552+b0a8486541)"
   xmlns:inkscape="http://www.inkscape.org/namespaces/inkscape"
   xmlns:sodipodi="http://sodipodi.sourceforge.net/DTD/sodipodi-0.dtd"
   xmlns="http://www.w3.org/2000/svg"
   xmlns:svg="http://www.w3.org/2000/svg"><sodipodi:namedview
     id="namedview300"
     pagecolor="#ffffff"
     bordercolor="#666666"
     borderopacity="1.0"
     inkscape:showpageshadow="2"
     inkscape:pageopacity="0.0"
     inkscape:pagecheckerboard="0"
     inkscape:deskcolor="#d1d1d1"
     inkscape:document-units="mm"
     showgrid="false"
     inkscape:zoom="0.16815708"
     inkscape:cx="1983.2647"
     inkscape:cy="-520.34682"
     inkscape:current-layer="layer1" /><defs
     id="defs2"><rect
       x="-3064.2461"
       y="-1725.2098"
       width="8522.3438"
       height="1127.9735"
       id="rect577" /><rect
       x="5102.8638"
       y="458.32104"
       width="1717.4696"
       height="2384.1938"
       id="rect567" /><rect
       x="4432.1147"
       y="396.8504"
       width="9956.3105"
       height="1159.8926"
       id="rect561" /><rect
       x="-5226.1406"
       y="1528.9053"
       width="13824.299"
       height="3037.7007"
       id="rect473" /><rect
       x="-4957.9775"
       y="1382.0387"
       width="15128.81"
       height="2287.4431"
       id="rect467" /><rect
       x="5102.8638"
       y="458.32104"
       width="819.79352"
       height="161.50455"
       id="rect461" /><rect
       x="58.470253"
       y="119.4372"
       width="11736.415"
       height="832.03381"
       id="rect236" /><rect
       x="88.622437"
       y="649.57916"
       width="639.67432"
       height="440.48877"
       id="rect400" /><rect
       x="80.690262"
       y="181.98399"
       width="557.172"
       height="544.86536"
       id="rect236-5" /><rect
       x="80.690262"
       y="181.98399"
       width="2677.3977"
       height="116.70974"
       id="rect236-0" /></defs><g
     id="layer1"
     style="fill:none;stroke:#000000;stroke-opacity:1"
     transform="translate(1173.024,-40.747901)"><text
       xml:space="preserve"
       transform="scale(0.26458333)"
       id="text459"
       style="font-style:italic;font-variant:normal;font-weight:bold;font-stretch:normal;font-size:113.067px;line-height:1.25;font-family:'Tengwar Annatar';-inkscape-font-specification:'Tengwar Annatar, Bold Italic';font-variant-ligatures:normal;font-variant-caps:normal;font-variant-numeric:normal;font-variant-east-asian:normal;white-space:pre;shape-inside:url(#rect461);display:inline;fill:none;stroke:#000000;stroke-opacity:1" /><text
       xml:space="preserve"
       transform="scale(0.26458333)"
       id="text559"
       style="font-style:italic;font-variant:normal;font-weight:bold;font-stretch:normal;font-size:113.067px;line-height:1.25;font-family:'Tengwar Annatar';-inkscape-font-specification:'Tengwar Annatar, Bold Italic';font-variant-ligatures:normal;font-variant-caps:normal;font-variant-numeric:normal;font-variant-east-asian:normal;white-space:pre;shape-inside:url(#rect561);display:inline;fill:none;stroke:#000000;stroke-opacity:1" /><text
       xml:space="preserve"
       transform="scale(0.26458333)"
       id="text565"
       style="font-style:italic;font-variant:normal;font-weight:bold;font-stretch:normal;font-size:113.067px;line-height:1.25;font-family:'Tengwar Annatar';-inkscape-font-specification:'Tengwar Annatar, Bold Italic';font-variant-ligatures:normal;font-variant-caps:normal;font-variant-numeric:normal;font-variant-east-asian:normal;white-space:pre;shape-inside:url(#rect567);display:inline;fill:none;stroke:#000000;stroke-opacity:1" /><path
       id="path1168"
       style="font-style:italic;font-weight:bold;font-size:70.5556px;line-height:1.25;font-family:'Tengwar Annatar';-inkscape-font-specification:'Tengwar Annatar, Bold Italic';fill:none;fill-opacity:1;stroke:#000000;stroke-width:0.264583;stroke-opacity:1"
       d="m -1105.5744,68.51003 c -0.3444,0 -0.6201,0.01114 -0.8268,0.03411 -0.2067,0 -0.459,0.03445 -0.7576,0.103352 -5.5581,0.826824 -12.3794,5.60437 -20.4638,14.331942 l -12.7124,14.296802 c -4.0193,4.547524 -6.0869,6.913494 -6.2017,7.097234 -0.06,0.0862 -0.1132,0.16885 -0.1633,0.25012 -1.7824,1.19069 -3.2098,2.30196 -4.2809,3.33261 -0.5971,0.55122 -0.9183,0.82682 -0.9643,0.82682 v -0.0346 c 0.1608,-1.10243 0.2413,-1.92926 0.2413,-2.48047 0,-0.45934 -0.035,-0.90721 -0.1038,-1.34359 -0.3446,-1.90628 -1.2059,-3.261 -2.5839,-4.06486 -0.2296,-0.11484 -0.4246,-0.21819 -0.5854,-0.31006 -0.4594,-0.18374 -1.2746,-0.27595 -2.4459,-0.27595 -1.1484,0 -1.8263,0.0116 -2.0329,0.0346 -1.1714,0.0459 -2.3194,0.21819 -3.4448,0.51676 -3.1925,0.87276 -5.9024,2.54921 -8.1302,5.02967 -1.2403,1.37804 -1.8609,2.41157 -1.8609,3.10059 0,0.43638 0.2183,0.63194 0.6547,0.58601 v -5.2e-4 c 0.4134,-0.0459 0.758,-0.11483 1.0336,-0.20671 0.2067,-0.0919 0.6429,-0.36747 1.3089,-0.82682 1.0106,-0.71198 2.9287,-1.06763 5.7537,-1.06763 h 0.4134 c 1.0335,0 1.8948,0.28675 2.5838,0.86093 1.0795,0.89572 1.619,2.22817 1.619,3.99665 0,0.59715 -0.092,1.33176 -0.2754,2.20452 -0.6431,3.19245 -1.895,6.6031 -3.7553,10.23193 -0.712,1.40101 -1.7456,2.94016 -3.1006,4.61677 -0.735,0.89573 -1.1023,1.60754 -1.1023,2.13579 0,0.36748 0.195,0.55139 0.5855,0.55139 0.8039,0 1.803,-0.43621 2.9972,-1.30897 2.6413,-1.99815 5.2368,-5.28265 7.7861,-9.85314 2.2279,-3.99631 4.0538,-6.8674 5.4777,-8.61291 2.2968,-2.82498 4.685,-4.23747 7.1655,-4.23747 1.2862,0 2.6642,0.43621 4.1341,1.30896 3.0087,1.74552 4.5134,4.52491 4.5134,8.33748 0,2.20486 -0.5973,4.22581 -1.7916,6.0632 -0.023,0.0459 -0.057,0.092 -0.1033,0.13797 -0.5742,0.66605 -1.7456,0.99891 -3.514,0.99891 -0.689,0 -1.2859,-0.0572 -1.7912,-0.17208 -0.689,-0.16078 -1.4474,-0.57419 -2.2742,-1.24024 -0.8268,-0.64308 -1.7225,-0.9648 -2.6872,-0.9648 -1.4469,0 -2.6983,0.52843 -3.7548,1.58492 -1.1484,1.14836 -1.7229,2.4575 -1.7229,3.92741 v 0.34416 c 0.1837,2.45751 2.0441,3.6866 5.581,3.6866 0.5283,0 1.0684,-0.0344 1.6196,-0.10335 4.3867,-0.62012 8.6931,-3.33061 12.9191,-8.13077 1.2862,-1.44694 2.7332,-3.59404 4.3408,-6.44199 1.6307,-2.91684 2.7903,-4.8233 3.4794,-5.71903 1.8603,-2.3886 4.0536,-3.58273 6.5799,-3.58273 1.1484,0 2.2625,0.26396 3.342,0.7922 0.5052,0.25264 1.0109,0.57436 1.5162,0.9648 2.4574,1.97519 3.686,4.59346 3.686,7.85482 0,1.14837 -0.2184,2.40025 -0.6547,3.75533 -0.5283,1.56177 -0.9989,2.46864 -1.4123,2.72128 l -0.138,0.0687 c -0.9417,0.45934 -2.0441,0.68936 -3.3073,0.68936 -0.6431,0 -1.217,-0.0689 -1.7224,-0.2067 -0.62,-0.16078 -1.3435,-0.57419 -2.1704,-1.24024 -0.8038,-0.64308 -1.6884,-0.9648 -2.653,-0.9648 -1.0795,0 -2.1242,0.35617 -3.1347,1.06815 -1.5848,1.07946 -2.3772,2.49195 -2.3772,4.23747 0,0.57418 0.08,1.09095 0.2409,1.55029 0.5512,1.79146 2.3543,2.68718 5.4089,2.68718 1.7915,0 3.7552,-0.50562 5.8911,-1.51619 3.4452,-1.63068 6.4885,-4.05339 9.1297,-7.2688 3.1695,-3.85851 4.7542,-7.70588 4.7542,-11.54142 0,-3.12355 -0.9301,-5.70737 -2.7905,-7.75146 -1.9062,-2.06706 -4.295,-3.10059 -7.1659,-3.10059 -1.8144,0 -3.8471,0.57453 -6.0979,1.72289 -2.7101,1.37804 -5.8913,3.7663 -9.5431,7.16546 -0.3215,-1.60771 -0.8727,-3.043 -1.6536,-4.3062 -1.8603,-3.05465 -4.5931,-4.58215 -8.199,-4.58215 -1.0834,0 -2.246,0.20855 -3.4871,0.62477 2.3742,-2.661093 6.1598,-6.921425 11.7553,-13.2333 3.583,-4.065211 4.6165,-5.236544 3.1006,-3.513997 6.8214,-7.625143 12.2762,-11.438062 16.3644,-11.438062 0.689,0 1.332,0.09221 1.9291,0.275952 0.4134,0.137804 0.8612,0.355649 1.3436,0.654224 1.9062,1.240234 2.8592,2.986095 2.8592,5.23689 0,0.826823 -0.149,1.630334 -0.4475,2.411222 -0.3445,1.263201 -1.3208,1.894975 -2.9285,1.894975 -1.2861,0 -2.2968,-0.447863 -3.0318,-1.343587 -0.5972,-0.711987 -0.8956,-1.423801 -0.8956,-2.135787 0,-0.459347 0.2067,-0.953316 0.6201,-1.481564 0.4824,-0.620117 0.7235,-1.136882 0.7235,-1.550293 0,-0.344509 -0.2067,-0.516764 -0.6201,-0.516764 -0.9876,0.09187 -2.1706,0.826995 -3.5486,2.205033 -1.5618,1.69958 -2.3425,3.353227 -2.3425,4.960938 0,0.895724 0.2412,1.710892 0.7234,2.445845 0.9417,1.44694 2.4231,2.170411 4.4442,2.170411 0.9187,0 1.8372,-0.14946 2.7559,-0.448035 2.5953,-0.826823 4.8808,-2.526059 6.8559,-5.098397 1.8834,-2.4575 2.8247,-4.834618 2.8247,-7.131348 0,-1.69958 -0.4707,-3.192628 -1.4124,-4.478796 -1.378,-1.906286 -3.3417,-2.859257 -5.8911,-2.859257 z" /><path
       d="m -1145.124,158.80585 q -1.6881,0 -1.9982,-1.6192 -0.069,-0.31006 -0.069,-0.65457 0,-1.10243 0.6546,-2.20486 0.8268,-1.41249 3.2039,-4.37527 l 2.4461,-3.16949 q 0.9646,-1.27469 1.2057,-1.44695 0.379,-0.2756 0.758,-0.2756 0.7579,0 0.9646,0.82682 0.034,0.1378 0.034,0.34451 0,0.58567 -2.5149,6.44233 -1.4814,3.3762 -2.1359,4.44418 -1.1025,1.6881 -2.5494,1.6881 z"
       style="font-style:italic;font-weight:bold;font-size:70.5556px;line-height:1.25;font-family:'Tengwar Annatar';-inkscape-font-specification:'Tengwar Annatar, Bold Italic';fill:none;fill-opacity:1;stroke:#000000;stroke-width:0.264583;stroke-opacity:1"
       id="path1172" /><path
       id="path1174"
       style="font-style:italic;font-weight:bold;font-size:70.5556px;line-height:1.25;font-family:'Tengwar Annatar';-inkscape-font-specification:'Tengwar Annatar, Bold Italic';fill:none;fill-opacity:1;stroke:#000000;stroke-width:0.264583;stroke-opacity:1"
       d="m -1019.7915,100.06676 c -2.0211,0 -4.226,0.13781 -6.6146,0.41341 -2.0441,0.25264 -4.0306,0.68936 -5.9598,1.30948 -3.7958,1.23216 -6.9887,2.93801 -9.5808,5.11597 0.023,-0.29134 0.038,-0.57571 0.038,-0.84439 0,-1.03353 -0.1262,-1.90595 -0.3788,-2.61793 -0.712,-2.11299 -2.779,-3.16983 -6.2012,-3.16983 -3.6288,0 -7.6251,1.52749 -11.9889,4.58215 l -0.4134,0.27543 c -0.023,0 -0.1035,-0.11449 -0.2413,-0.34416 -0.5512,-0.94166 -1.1252,-1.69959 -1.7224,-2.27377 -1.1024,-1.10243 -2.515,-1.65364 -4.2375,-1.65364 -0.8039,0 -1.5506,0.0456 -2.2396,0.13746 -0.7579,0.0919 -1.527,0.25298 -2.3079,0.48265 -3.0317,0.94166 -5.6728,2.69866 -7.9236,5.271 -1.1483,1.33211 -1.7229,2.27342 -1.7229,2.82463 0.023,0.27561 0.2414,0.45952 0.6548,0.55139 0.2297,0 0.4364,-0.0228 0.6201,-0.0687 0.3675,-0.0689 0.8843,-0.34451 1.5503,-0.82682 1.1025,-0.80385 2.6872,-1.20613 4.7542,-1.20613 2.5494,0 4.5704,1.98702 6.0632,5.96036 0.4135,1.07947 1.0797,3.42213 1.9984,7.028 l 0.8955,3.58272 c 1.1713,4.20301 2.7905,7.33806 4.8576,9.40511 l 0.4826,0.51677 -4.2033,6.75256 c -10.4501,16.19194 -24.4256,32.24609 -41.9267,48.16243 -2.5953,2.36563 -3.8933,4.04208 -3.8933,5.02967 0,0.36747 0.2184,0.55139 0.6548,0.55139 0.8498,0 2.1706,-0.73513 3.962,-2.20504 0.7809,-0.64308 2.8708,-2.56068 6.2699,-5.75313 18.4198,-17.31735 33.0959,-34.88734 44.0283,-52.70997 l 3.652,-6.13244 c 1.3091,-2.3197 2.4577,-4.444 3.4453,-6.37325 2.0764,-4.01014 3.5653,-7.43283 4.4684,-10.26966 l 2.2144,-1.68517 c 2.9168,-2.06706 7.5793,-3.19228 13.9872,-3.37602 0.5512,0 0.8269,0.0116 0.8269,0.0346 l -0.034,0.0341 -0.9302,0.86145 c -5.6959,5.14467 -8.5442,10.14007 -8.5442,14.98616 0,2.64125 0.8157,4.85776 2.4464,6.64921 1.8374,1.97519 4.2028,2.96261 7.0967,2.96261 4.3408,0 9.4512,-2.51492 15.3308,-7.54476 l 0.069,0.13798 c 0.2067,1.37803 0.8501,2.70997 1.9296,3.99613 1.9062,2.27377 4.3867,3.41065 7.4414,3.41065 0.7349,0 1.46952,-0.0689 2.20448,-0.20671 2.66421,-0.52824 5.73035,-2.14744 9.1984,-4.85758 1.30914,-1.03353 1.98702,-1.55029 2.03295,-1.55029 l -0.93017,2.61844 c -1.17133,3.23839 -2.59548,6.54568 -4.27209,9.92188 -6.31604,12.74684 -15.59507,25.70041 -27.83657,38.86067 l -6.752,6.95875 -11.4722,10.9554 c -4.0652,3.74367 -6.2933,5.81074 -6.6838,6.20118 -1.3551,1.35507 -2.0325,2.43471 -2.0325,3.23856 0,0.39044 0.2068,0.58549 0.6202,0.58549 1.0106,0 2.4458,-0.83796 4.3062,-2.51457 3.1694,-2.75608 7.0396,-6.32785 11.6101,-10.71459 l 9.1297,-8.95708 c 13.1602,-13.38993 23.43778,-26.28625 30.83324,-38.6886 2.27377,-3.81256 4.24913,-7.44106 5.92574,-10.88615 2.18189,-4.45566 4.24895,-9.61217 6.20117,-15.46883 1.44694,-4.36378 2.66438,-7.52162 3.65198,-9.47384 3.05465,-0.57418 5.62681,-1.96388 7.71684,-4.16873 1.17133,-1.21727 1.757,-2.15858 1.757,-2.82464 0,-0.43638 -0.2295,-0.65474 -0.68885,-0.65474 -0.39045,0 -0.86162,0.1606 -1.41283,0.48214 -1.24024,0.68902 -3.06614,1.03353 -5.47771,1.03353 -10.67979,0.0459 -20.80837,-0.30971 -30.38578,-1.06763 -6.8442,-0.52825 -12.1496,-0.79272 -15.9163,-0.79272 z m 0.3793,6.51123 c 0.2986,0 0.6887,0.0116 1.171,0.0346 l 15.3996,1.13689 -2.4113,2.51509 c -1.8833,2.09002 -3.3996,4.47828 -4.548,7.16545 -0.8039,1.92925 -1.424,3.1928 -1.8603,3.78995 -0.6661,0.89573 -1.573,1.66478 -2.7213,2.30787 -1.6767,0.89572 -3.2959,1.34359 -4.8576,1.34359 -1.9752,0 -3.721,-0.59681 -5.2369,-1.79111 -2.09,-1.65364 -3.1347,-3.92741 -3.1347,-6.82129 0,-0.34451 0.023,-0.68902 0.069,-1.03353 0.2986,-2.61827 1.5621,-4.84644 3.79,-6.68382 1.5847,-1.30914 3.0317,-1.96371 4.3408,-1.96371 z m -35.5534,0.86145 c 3.4681,0 5.2018,1.53864 5.2018,4.61625 0,1.92925 -0.6662,4.52473 -1.9984,7.78609 l -0.4129,0.9648 c -1.2172,2.7331 -1.8835,4.09949 -1.9983,4.09949 0,-0.0459 -0.1033,-0.22985 -0.31,-0.55139 -0.9187,-1.51584 -1.7572,-3.60569 -2.5151,-6.2699 l -1.7917,-7.13135 -0.7575,-2.48046 c 0,-0.0689 0.1261,-0.14946 0.3788,-0.24133 1.332,-0.52825 2.7334,-0.7922 4.2033,-0.7922 z m 59.73798,0.65474 14.53813,0.27543 h 0.27543 c -0.43638,0.66605 -1.4927,2.60696 -3.16931,5.82239 -2.34267,4.52455 -4.07687,7.25732 -5.20227,8.19898 l -0.68885,0.55139 c -1.69958,1.28616 -3.39933,1.92908 -5.09891,1.92908 -1.14837,0 -2.39974,-0.33286 -3.75481,-0.99891 -3.05469,-1.49288 -4.58219,-4.03059 -4.58219,-7.61349 0,-0.45934 0.069,-1.03387 0.2067,-1.72289 0.5054,-2.57234 1.355,-4.27158 2.5492,-5.0984 1.33215,-0.89572 2.97465,-1.34358 4.92688,-1.34358 z" /><path
       d="m -998.46619,87.871283 q -0.72347,0 -0.93017,-0.826823 -0.0345,-0.137804 -0.0345,-0.310059 0,-0.551216 2.10151,-5.99447 1.58475,-4.20302 2.37712,-5.374353 0.93018,-1.481392 2.34267,-1.481392 1.34359,0 1.92925,1.205784 0.24116,0.482314 0.20671,1.102432 -0.0344,1.584745 -1.86035,4.134117 l -3.92742,5.408803 -0.62011,0.930177 q -0.75792,1.136882 -1.58475,1.205784 z"
       style="font-style:italic;font-weight:bold;font-size:70.5556px;line-height:1.25;font-family:'Tengwar Annatar';-inkscape-font-specification:'Tengwar Annatar, Bold Italic';fill:none;fill-opacity:1;stroke:#000000;stroke-width:0.264583;stroke-opacity:1"
       id="path1178" /><path
       d="m -983.75562,92.281008 q 6.30453,0 9.99078,-2.687176 l 1.99816,-1.515843 q 0.65457,-0.413412 1.27469,-0.413412 0.62011,0 0.62011,0.585667 0,1.378039 -2.99723,3.720706 -6.27008,4.926489 -14.29716,5.098744 -0.34451,0 -0.65457,0 -4.34082,0 -12.60906,-1.550294 -8.0615,-1.515843 -11.6789,-1.688098 -0.8613,-0.03445 -1.6536,-0.03445 -6.2701,0 -9.9564,2.652726 l -2.067,1.550294 q -0.7235,0.447862 -1.3781,0.447862 -0.6545,0 -0.6545,-0.585666 0,-1.136883 2.2737,-3.16949 3.9275,-3.514 9.7152,-4.92649 2.9284,-0.723471 5.9256,-0.723471 4.7198,0 12.29899,1.481392 7.44141,1.446942 11.09321,1.688098 1.37804,0.0689 2.75608,0.0689 z"
       style="font-style:italic;font-weight:bold;font-size:70.5556px;line-height:1.25;font-family:'Tengwar Annatar';-inkscape-font-specification:'Tengwar Annatar, Bold Italic';fill:none;fill-opacity:1;stroke:#000000;stroke-width:0.264583;stroke-opacity:1"
       id="path1180" /><path
       id="path1182"
       style="font-style:italic;font-weight:bold;font-size:70.5556px;line-height:1.25;font-family:'Tengwar Annatar';-inkscape-font-specification:'Tengwar Annatar, Bold Italic';fill:none;fill-opacity:1;stroke:#000000;stroke-width:0.264583;stroke-opacity:1"
       d="m -876.57854,71.162581 c -1.97519,0 -4.22616,0.792373 -6.75256,2.377116 -5.1217,3.215422 -9.84148,8.830931 -14.15934,16.846517 l -1.20561,2.308386 c -3.05243,5.891513 -4.99391,9.74618 -5.86527,11.63908 -0.53721,0.46816 -1.05158,0.97477 -1.54203,1.52084 -0.18212,0.20236 -0.34898,0.39644 -0.50436,0.58394 -0.35477,-0.66807 -0.7822,-1.29972 -1.28674,-1.8929 -2.113,-2.50344 -5.01853,-3.73202 -8.71627,-3.68608 -3.60586,0.0459 -7.92389,1.97518 -12.95373,5.78776 l -3.92741,3.16931 c 0.39045,-1.3321 0.58601,-2.51509 0.58601,-3.54862 0,-0.11484 -0.0117,-0.24098 -0.0346,-0.37879 -0.0919,-2.25079 -0.90703,-3.88164 -2.44585,-4.8922 -0.45934,-0.29858 -0.91886,-0.50529 -1.37821,-0.62012 -0.29857,-0.0689 -0.93035,-0.10335 -1.89497,-0.10335 h -1.72238 c -1.1943,0.0459 -2.37729,0.21819 -3.54862,0.51676 -3.26135,0.84979 -6.01743,2.50344 -8.26823,4.96094 -1.28616,1.401 -1.92908,2.46898 -1.92908,3.20394 0,0.43638 0.21836,0.63194 0.65474,0.58601 0.41341,-0.0459 0.78071,-0.12649 1.10226,-0.24133 0.22967,-0.0689 0.66588,-0.33286 1.30897,-0.7922 1.03352,-0.71199 2.92833,-1.06815 5.6844,-1.06815 h 0.41341 c 1.07946,0 1.96405,0.2984 2.65307,0.89555 1.03353,0.89573 1.5503,2.19372 1.5503,3.8933 0,1.40101 -0.55122,3.60587 -1.65365,6.61459 -1.46991,4.06521 -3.20411,7.99262 -5.20227,11.78222 l -3.03185,5.68441 c -15.25029,28.2268 -32.34917,51.0217 -51.29719,68.38497 l -1.5503,1.48157 c -1.355,1.42397 -2.0329,2.52639 -2.0329,3.30729 0,0.3445 0.2067,0.51676 0.6201,0.51676 0.712,0 1.7455,-0.50563 3.1006,-1.51618 1.2861,-0.96463 3.70941,-3.16949 7.26934,-6.61459 l 2.27377,-2.23914 c 17.89152,-17.86856 34.15238,-40.28449 48.78255,-67.24809 2.41156,-4.45566 4.13411,-7.7974 5.16764,-10.02523 l 1.757,-3.58324 c 1.67661,-2.98575 3.46806,-5.3051 5.37435,-6.95875 0.52824,-0.45935 1.0678,-0.88442 1.61902,-1.27486 2.3886,-1.67661 4.65123,-2.51509 6.78718,-2.51509 1.40101,0 2.90519,0.41342 4.51291,1.24024 3.39915,1.69957 5.09891,4.53621 5.09891,8.50955 0,0.87276 -0.13781,1.80294 -0.41341,2.79053 -0.43638,1.67661 -0.94201,2.75625 -1.51619,3.23856 -1.42397,0.71199 -2.92816,1.06764 -4.5129,1.06764 -0.68902,0 -1.28634,-0.0572 -1.79162,-0.17208 -0.68902,-0.18374 -1.44694,-0.59715 -2.27377,-1.24024 -0.82681,-0.64308 -1.72254,-0.9648 -2.68717,-0.9648 -0.9876,0 -1.97502,0.32172 -2.96261,0.9648 -1.67661,1.10243 -2.51509,2.59548 -2.51509,4.4788 0,2.73311 1.84921,4.09949 5.54695,4.09949 0.98759,0 1.94056,-0.0917 2.85925,-0.27544 1.46991,-0.2756 2.98575,-0.81568 4.54753,-1.61954 3.46806,-1.76847 6.5114,-4.31785 9.12967,-7.64811 2.93981,-3.74367 4.40955,-7.30325 4.40955,-10.67945 0,-1 -0.10722,-1.94646 -0.31677,-2.84169 0.19628,-0.12678 0.42152,-0.2766 0.69556,-0.4656 1.01056,-0.71199 2.92868,-1.06815 5.75366,-1.06815 h 0.41341 c 1.03353,0 1.8948,0.28726 2.58382,0.86144 1.07946,0.89573 1.61902,2.22766 1.61902,3.99614 0,0.59715 -0.0917,1.33228 -0.27543,2.20503 -0.64308,3.19246 -1.89498,6.60311 -3.75533,10.23194 -0.71199,1.401 -1.74551,2.93964 -3.10059,4.61625 -0.73495,0.89573 -1.10225,1.60754 -1.10225,2.13579 0,0.36748 0.19504,0.55139 0.58549,0.55139 0.78089,0 1.86052,-0.51676 3.23856,-1.55029 0.64308,-0.48232 1.286,-1.04519 1.92908,-1.68827 3.10059,-3.10059 5.74165,-7.47586 7.92355,-13.12582 1.58474,-4.04224 2.37712,-7.17728 2.37712,-9.40511 0,-1.44694 -0.36731,-2.74442 -1.10226,-3.89278 -0.41341,-0.62012 -0.87293,-1.09077 -1.37821,-1.41232 -0.68902,-0.45934 -1.76814,-0.68936 -3.23805,-0.68936 -1.14836,0 -1.82624,0.0116 -2.03295,0.0346 -1.17133,0.0459 -2.31936,0.21819 -3.44475,0.51676 -0.47315,0.12935 -0.93555,0.27717 -1.38751,0.44184 0.55355,-1.11956 1.33301,-2.726034 2.38642,-4.920633 3.90444,-8.061521 7.49899,-13.849285 10.78332,-17.363281 0.32154,-0.34451 0.61994,-0.642912 0.89555,-0.895553 1.53881,-1.423972 3.14635,-2.135787 4.82296,-2.135787 1.56177,0 2.88257,0.505109 3.96203,1.51567 1.42398,1.286169 2.13579,2.951472 2.13579,4.995561 0,0.620117 -0.08,1.240235 -0.24081,1.860351 -0.11483,0.459347 -0.20705,0.769405 -0.27595,0.930176 -0.34452,0.826823 -1.05633,1.240235 -2.13579,1.240235 -1.24024,0 -2.21652,-0.390617 -2.9285,-1.171505 -0.64308,-0.711987 -0.96429,-1.447113 -0.96429,-2.205034 0,-0.275607 0.1145,-0.57401 0.34417,-0.895552 0.41341,-0.551216 0.62012,-0.999078 0.62012,-1.343587 0,-0.367477 -0.19506,-0.551388 -0.5855,-0.551388 -0.62012,0 -1.48139,0.425068 -2.58382,1.274858 -1.95222,1.515842 -2.9285,3.23839 -2.9285,5.167643 0,1.033528 0.32171,1.94091 0.9648,2.721798 0.96462,1.171332 2.30821,1.756998 4.03076,1.756998 0.71198,0 1.50435,-0.126664 2.37711,-0.379305 2.98575,-0.941659 5.46623,-2.905365 7.44141,-5.891113 1.33211,-1.998155 1.99833,-4.041902 1.99833,-6.131925 0,-1.837384 -0.49397,-3.433785 -1.48157,-4.788855 -1.37803,-1.929253 -3.33008,-2.893881 -5.85649,-2.893881 z" /><path
       id="path1188"
       style="font-style:italic;font-weight:bold;font-size:70.5556px;line-height:1.25;font-family:'Tengwar Annatar';-inkscape-font-specification:'Tengwar Annatar, Bold Italic';fill:none;fill-opacity:1;stroke:#000000;stroke-width:0.264583;stroke-opacity:1"
       d="m -785.55929,40.880192 c -0.3445,0 -0.79236,0.14946 -1.34358,0.448035 -2.20486,1.148365 -5.48884,4.1456 -9.85263,8.991699 -3.35322,3.697735 -6.33932,7.521793 -8.95759,11.472168 -8.0845,12.241568 -14.81357,29.064782 -20.18792,50.470306 l -0.55139,2.20503 c -0.82682,2.89388 -2.52657,5.28265 -5.09891,7.16597 -0.64308,0.45935 -1.18264,0.83831 -1.61902,1.13688 -2.15893,1.40101 -4.16874,2.10117 -6.02909,2.10117 -2.45751,0 -4.6046,-0.79238 -6.44199,-2.37712 -2.18189,-1.90629 -3.27318,-4.36345 -3.27318,-7.37216 0,-0.94166 0.17225,-1.96405 0.51676,-3.06648 0.45935,-1.60771 0.94166,-2.58348 1.44694,-2.92798 0.0919,-0.0689 0.21802,-0.13781 0.37879,-0.20671 1.24023,-0.59715 2.61827,-0.89607 4.13412,-0.89607 0.59714,0 1.12557,0.0578 1.58491,0.1726 0.75792,0.16077 1.5964,0.58532 2.51509,1.27434 0.82683,0.62011 1.65365,0.93018 2.48047,0.93018 0.68902,0 1.45808,-0.1834 2.30787,-0.55087 2.20486,-0.96463 3.30729,-2.61828 3.30729,-4.96094 0,-0.18374 -0.0112,-0.36765 -0.0341,-0.55139 -0.27561,-2.3197 -2.13596,-3.47937 -5.58106,-3.47937 -4.27191,0 -8.63553,1.9865 -13.09119,5.95984 -5.19061,4.66236 -7.78609,9.47384 -7.78609,14.43478 0,2.71014 0.84962,5.06446 2.5492,7.06262 2.09003,2.48047 4.88055,3.7207 8.37158,3.7207 1.40101,0 2.94017,-0.2984 4.61678,-0.89555 3.95037,-1.37804 8.18784,-4.07687 12.7124,-8.09615 0.023,-0.023 0.0458,-0.0346 0.0687,-0.0346 -1.17133,5.2595 -1.757,8.1078 -1.757,8.54418 0,0.32154 0.18391,0.48214 0.55139,0.48214 0.82682,0 1.95204,-0.50511 3.37602,-1.51567 2.27376,-1.65365 3.629,-3.53731 4.06538,-5.6503 1.121,-5.53413 2.28869,-10.76698 3.50005,-15.72101 0.23757,-0.14352 0.55649,-0.352 0.97823,-0.64285 1.01056,-0.71199 2.92868,-1.06815 5.75366,-1.06815 h 0.41341 c 1.05649,0 1.94056,0.31005 2.65255,0.93017 1.03353,0.89572 1.55029,2.22766 1.55029,3.99614 0,0.80385 -0.19504,1.94073 -0.58549,3.41065 -0.96463,3.72069 -2.37712,7.20024 -4.23747,10.43863 -0.36748,0.66606 -1.06815,1.58509 -2.10168,2.75643 -0.87276,0.98759 -1.30896,1.80276 -1.30896,2.44584 0,0.41341 0.2067,0.62012 0.62011,0.62012 0.22968,0 0.58533,-0.0689 1.06764,-0.20671 4.57049,-1.2632 9.18692,-1.89497 13.84928,-1.89497 1.99816,0 4.52474,0.14946 7.57939,0.44803 4.70829,0.45935 7.77443,0.68885 9.1984,0.68885 h 1.06815 c 2.59531,0 5.08692,-0.35565 7.47552,-1.06764 3.95037,-1.14836 7.18876,-3.02037 9.71516,-5.61567 1.37804,-1.42398 2.06706,-2.51475 2.06706,-3.27267 0,-0.43638 -0.2295,-0.65474 -0.68884,-0.65474 -0.50528,0 -0.99925,0.1378 -1.48157,0.41341 l -1.89446,1.37821 c -2.36563,1.60771 -5.89128,2.41122 -10.57661,2.41122 -1.28617,0 -2.228,-0.0344 -2.82515,-0.10335 0.84979,-0.80385 1.67661,-1.65347 2.48047,-2.5492 3.74367,-4.24895 5.61567,-8.14191 5.61567,-11.67887 0,-2.29673 -0.70067,-4.28323 -2.10168,-5.95985 -1.97518,-2.31969 -4.76571,-3.47989 -8.37158,-3.47989 -0.81196,0 -1.56589,0.0662 -2.26394,0.19637 0.5484,-1.112831 1.30947,-2.683278 2.29857,-4.743893 3.90444,-8.061521 7.49899,-13.849285 10.78332,-17.363281 0.32154,-0.34451 0.61994,-0.642912 0.89555,-0.895553 1.53881,-1.423972 3.14635,-2.135787 4.82296,-2.135787 1.56178,0 2.88257,0.505109 3.96203,1.51567 1.42397,1.286169 2.13579,2.951472 2.13579,4.995561 0,0.620117 -0.08,1.240235 -0.24081,1.860351 -0.11484,0.459347 -0.20706,0.769405 -0.27596,0.930176 -0.34451,0.826823 -1.05632,1.240235 -2.13578,1.240235 -1.24024,0 -2.21652,-0.390617 -2.92851,-1.171505 -0.64307,-0.711987 -0.96428,-1.447113 -0.96428,-2.205034 0,-0.275607 0.11449,-0.57401 0.34417,-0.895552 0.4134,-0.551216 0.62011,-0.999078 0.62011,-1.343587 0,-0.367477 -0.19505,-0.551388 -0.58549,-0.551388 -0.62012,0 -1.48139,0.425068 -2.58382,1.274858 -1.95222,1.515842 -2.9285,3.23839 -2.9285,5.167643 0,1.033528 0.32171,1.94091 0.96479,2.721798 0.96463,1.171332 2.30822,1.756998 4.03077,1.756998 0.71198,0 1.50435,-0.126664 2.37711,-0.379305 2.98575,-0.941659 5.46622,-2.905365 7.44141,-5.891113 1.3321,-1.998155 1.99833,-4.041902 1.99833,-6.131925 0,-1.837384 -0.49397,-3.433785 -1.48157,-4.788855 -1.37804,-1.929253 -3.33008,-2.893881 -5.85649,-2.893881 -1.97518,0 -4.22615,0.792373 -6.75256,2.377116 -5.12171,3.215422 -9.84149,8.830931 -14.15934,16.846517 l -1.20561,2.308386 c -2.324,4.485568 -3.99322,7.7702 -5.05292,9.9379 -0.19701,0.0942 -0.39597,0.19199 -0.59738,0.29403 -3.16949,1.58475 -6.25842,3.6974 -9.26714,6.33864 l -0.62011,0.51676 c 0.32154,-1.40101 0.48214,-2.57234 0.48214,-3.514 0,-0.41341 -0.0344,-0.82682 -0.10336,-1.24023 -0.32153,-1.97519 -1.18281,-3.36436 -2.58382,-4.16822 -0.22967,-0.11484 -0.42472,-0.21819 -0.58549,-0.31006 -0.45934,-0.18374 -1.27451,-0.27595 -2.44585,-0.27595 -1.14836,0 -1.82624,0.0116 -2.03295,0.0346 -1.17133,0.0459 -2.31935,0.21819 -3.44475,0.51676 -2.58688,0.70721 -4.85693,1.94237 -6.81044,3.7052 2.78825,-10.727552 5.80443,-19.992248 9.04958,-27.786414 4.68533,-11.299909 10.35809,-20.486665 17.0186,-27.560592 l 3.65197,-3.61735 c 1.92926,-1.929253 2.89388,-3.284497 2.89388,-4.065385 0,-0.413411 -0.21836,-0.620117 -0.65474,-0.620117 z m -3.96151,67.179358 c 2.5264,0 4.65071,0.67737 6.37325,2.03244 1.99816,1.58474 2.99724,3.66346 2.99724,6.23579 -0.0459,2.18189 -0.71216,4.0995 -1.99833,5.75314 -0.16077,0.20671 -0.47083,0.40227 -0.93018,0.58601 -1.51584,0.66605 -3.37619,0.99891 -5.58105,0.99891 l -5.82187,-0.13798 c -2.68717,0 -5.21375,0.17226 -7.57938,0.51676 l -4.44417,0.79272 c 0,-0.0459 0.2295,-0.44821 0.68884,-1.20613 3.05465,-5.21357 5.23672,-8.61256 6.54586,-10.19731 0.45934,-0.55121 1.05666,-1.14853 1.79162,-1.79162 2.77904,-2.3886 5.43177,-3.58273 7.95817,-3.58273 z" /><path
       id="path1194"
       style="font-style:italic;font-weight:bold;font-size:70.5556px;line-height:1.25;font-family:'Tengwar Annatar';-inkscape-font-specification:'Tengwar Annatar, Bold Italic';fill:none;fill-opacity:1;stroke:#000000;stroke-width:0.264583;stroke-opacity:1"
       d="m -693.09258,71.162581 c -1.97518,0 -4.22615,0.792373 -6.75256,2.377116 -5.12171,3.215422 -9.84149,8.830931 -14.15934,16.846517 l -1.20561,2.308386 c -2.324,4.485568 -3.99322,7.7702 -5.05292,9.9379 -0.19701,0.0942 -0.39598,0.19199 -0.59738,0.29403 -3.16949,1.58475 -6.25842,3.6974 -9.26714,6.33864 l -0.62011,0.51676 c 0.32154,-1.40101 0.48214,-2.57234 0.48214,-3.514 0,-0.41341 -0.0344,-0.82682 -0.10336,-1.24023 -0.32154,-1.97519 -1.18281,-3.36436 -2.58382,-4.16822 -0.22967,-0.11484 -0.42472,-0.21819 -0.58549,-0.31006 -0.45934,-0.18374 -1.27451,-0.27595 -2.44585,-0.27595 -1.14836,0 -1.82624,0.0116 -2.03295,0.0346 -1.17133,0.0459 -2.31935,0.21819 -3.44475,0.51676 -3.19246,0.87276 -5.90294,2.54921 -8.13077,5.02967 -1.24023,1.37804 -1.86035,2.41157 -1.86035,3.10059 0,0.43638 0.21837,0.63194 0.65474,0.58601 0.41341,-0.0459 0.75792,-0.11484 1.03353,-0.20671 0.20671,-0.0919 0.64291,-0.36748 1.30896,-0.82682 1.01056,-0.71199 2.92868,-1.06815 5.75366,-1.06815 h 0.41341 c 1.05649,0 1.94056,0.31005 2.65255,0.93017 1.03353,0.89572 1.55029,2.22766 1.55029,3.99614 0,0.80385 -0.19505,1.94073 -0.58549,3.41065 -0.96463,3.72069 -2.37712,7.20024 -4.23747,10.43863 -0.36748,0.66606 -1.06815,1.58509 -2.10168,2.75643 -0.87276,0.98759 -1.30896,1.80276 -1.30896,2.44584 0,0.41341 0.2067,0.62012 0.62011,0.62012 0.22968,0 0.58533,-0.0689 1.06764,-0.20671 4.57049,-1.2632 9.18692,-1.89497 13.84928,-1.89497 1.99816,0 4.52473,0.14946 7.57939,0.44803 4.70829,0.45935 7.77443,0.68885 9.1984,0.68885 h 1.06815 c 2.59531,0 5.08692,-0.35565 7.47551,-1.06764 3.60095,-1.04678 6.60858,-2.69688 9.02633,-4.94595 -0.70296,1.31337 -1.67701,2.74276 -2.92851,4.29121 -0.73495,0.89573 -1.10225,1.60754 -1.10225,2.13579 0,0.36748 0.19504,0.55139 0.58549,0.55139 0.39044,0 0.87275,-0.13781 1.44694,-0.41341 1.30913,-0.66606 2.54937,-1.57344 3.7207,-2.7218 1.56178,-1.53881 3.36488,-4.04207 5.40897,-7.51014 1.99816,-3.44509 3.43344,-5.75331 4.3062,-6.92464 1.10243,-1.4699 2.29708,-2.71014 3.58325,-3.7207 2.36563,-1.81441 4.70829,-2.7218 7.02799,-2.7218 0.50528,0 1.02205,0.0461 1.55029,0.13798 2.36564,0.39044 4.28324,1.45842 5.75314,3.20394 1.56177,1.86035 2.34301,3.98465 2.34301,6.37325 0,1.60771 -0.37896,3.19245 -1.13688,4.75423 -0.59715,1.65365 -2.35415,2.44602 -5.271,2.37712 -0.68902,0 -1.28634,-0.0572 -1.79162,-0.17208 -0.68902,-0.18374 -1.4586,-0.59715 -2.30839,-1.24024 -0.80385,-0.64308 -1.67626,-0.9648 -2.61792,-0.9648 -1.49288,0 -2.77922,0.56288 -3.85868,1.68827 -1.1254,1.1254 -1.68827,2.36563 -1.68827,3.7207 0,0.36748 0.0228,0.70034 0.0687,0.99891 0.4134,2.09002 2.27376,3.13521 5.58105,3.13521 2.48047,0 5.0187,-0.66622 7.61401,-1.99833 3.60586,-1.83738 6.68366,-4.50176 9.23303,-7.99279 2.66421,-3.62883 3.99613,-7.07393 3.99613,-10.33529 0,-2.89388 -0.93017,-5.36269 -2.79052,-7.40678 -2.09003,-2.29673 -4.7772,-3.44527 -8.06153,-3.44527 -3.16949,0 -6.89019,1.4358 -11.16211,4.30671 -1.97518,1.30914 -3.57159,2.49162 -4.78885,3.54811 l -1.10226,0.9648 -0.0346,-0.0341 c 0.29858,-1.42397 0.44803,-2.54972 0.44803,-3.37654 0,-1.44694 -0.36781,-2.74442 -1.10277,-3.89278 -0.41341,-0.62012 -0.87242,-1.09077 -1.3777,-1.41232 -0.68902,-0.45934 -1.76865,-0.68936 -3.23856,-0.68936 -1.14836,0 -1.82573,0.0116 -2.03243,0.0346 -1.17133,0.0459 -2.31987,0.21819 -3.44527,0.51676 -3.19246,0.87276 -5.90243,2.54921 -8.13025,5.02967 -0.0896,0.0996 -0.16905,0.19342 -0.25218,0.28939 -0.31049,-0.624 -0.69619,-1.2146 -1.16066,-1.77044 -1.97518,-2.31969 -4.76571,-3.47989 -8.37158,-3.47989 -0.81196,0 -1.56589,0.0662 -2.26394,0.19637 0.5484,-1.112832 1.30947,-2.68327 2.29856,-4.743893 3.90445,-8.061521 7.499,-13.849285 10.78333,-17.363281 0.32154,-0.34451 0.61994,-0.642912 0.89555,-0.895553 1.53881,-1.423972 3.14635,-2.135787 4.82296,-2.135787 1.56178,0 2.88257,0.505109 3.96203,1.51567 1.42397,1.286169 2.13579,2.951472 2.13579,4.995561 0,0.620117 -0.08,1.240235 -0.24081,1.860351 -0.11484,0.459347 -0.20706,0.769405 -0.27596,0.930176 -0.34451,0.826823 -1.05632,1.240235 -2.13578,1.240235 -1.24024,0 -2.21652,-0.390617 -2.92851,-1.171505 -0.64308,-0.711987 -0.96428,-1.447113 -0.96428,-2.205034 0,-0.275607 0.11449,-0.57401 0.34417,-0.895552 0.4134,-0.551216 0.62011,-0.999078 0.62011,-1.343587 0,-0.367477 -0.19505,-0.551388 -0.58549,-0.551388 -0.62012,0 -1.48139,0.425068 -2.58382,1.274858 -1.95222,1.515842 -2.92851,3.23839 -2.92851,5.167643 0,1.033528 0.32172,1.94091 0.9648,2.721798 0.96463,1.171332 2.30822,1.756998 4.03077,1.756998 0.71198,0 1.50435,-0.126664 2.37711,-0.379305 2.98575,-0.941659 5.46622,-2.905365 7.44141,-5.891113 1.3321,-1.998155 1.99833,-4.041902 1.99833,-6.131925 0,-1.837384 -0.49398,-3.433785 -1.48157,-4.788855 -1.37804,-1.929253 -3.33008,-2.893881 -5.85649,-2.893881 z m -3.75532,36.276859 h 0.41341 c 1.03353,0 1.8948,0.28675 2.58382,0.86093 1.07946,0.89572 1.61902,2.22817 1.61902,3.99665 0,0.59715 -0.0917,1.33176 -0.27543,2.20452 -0.38464,1.90945 -0.98858,3.8979 -1.80868,5.96346 -0.0176,-7e-4 -0.0333,-0.003 -0.0517,-0.003 -0.50528,0 -0.99924,0.1378 -1.48156,0.41341 l -1.89446,1.37821 c -2.36563,1.60771 -5.89128,2.41122 -10.57661,2.41122 -1.28617,0 -2.228,-0.0344 -2.82515,-0.10335 0.84979,-0.80385 1.67661,-1.65347 2.48047,-2.5492 3.74367,-4.24895 5.61567,-8.14191 5.61567,-11.67887 0,-0.50022 -0.0353,-0.98493 -0.1018,-1.45573 0.16339,-0.10772 0.34151,-0.22684 0.54984,-0.37052 1.01056,-0.71198 2.92816,-1.06763 5.75314,-1.06763 z m -23.42648,0.62011 c 2.5264,0 4.65071,0.67737 6.37325,2.03244 1.99816,1.58474 2.99724,3.66346 2.99724,6.23579 -0.0459,2.18189 -0.71216,4.0995 -1.99833,5.75314 -0.16077,0.20671 -0.47083,0.40227 -0.93018,0.58601 -1.51584,0.66605 -3.37619,0.99891 -5.58105,0.99891 l -5.82187,-0.13798 c -2.68717,0 -5.21375,0.17226 -7.57938,0.51676 l -4.44417,0.79272 c 0,-0.0459 0.2295,-0.44821 0.68884,-1.20613 3.05465,-5.21357 5.23672,-8.61256 6.54586,-10.19731 0.45934,-0.55121 1.05666,-1.14853 1.79162,-1.79162 2.77904,-2.3886 5.43176,-3.58273 7.95817,-3.58273 z" /><path
       d="m -589.42971,103.71873 q 8.13043,0 12.74686,-3.20394 l 2.75608,-2.067057 q 0.93017,-0.551215 1.757,-0.551215 0.62011,0 0.62011,0.551215 0,1.41249 -2.82498,4.065217 -1.48139,1.37804 -3.47954,2.79053 -6.64904,4.71978 -14.71057,5.44325 -1.65365,0.13781 -3.4451,0.13781 -3.03169,0 -6.61459,-0.41342 l -0.75792,-0.0689 -0.72347,0.13781 q -5.64996,1.10243 -10.09414,3.68625 -2.54937,1.44694 -4.06521,3.16949 -3.34175,3.75516 -3.89296,9.16396 -0.0689,0.86128 -0.0689,1.79145 0,7.06245 4.85758,12.19565 4.75424,4.99539 12.1612,6.20117 1.99816,0.34451 4.09967,0.34451 4.03076,0 8.09598,-1.44694 3.54845,-1.24023 5.37435,-3.23839 2.13596,-2.37712 2.92833,-5.23655 0.27561,-1.06798 0.27561,-2.06706 0,-1.8948 -1.06798,-3.44509 -0.89573,-1.30914 -1.03353,-2.17042 -0.0344,-0.34451 -0.0344,-0.68901 0,-2.17042 1.757,-3.85851 1.61919,-1.5503 3.82406,-1.5503 2.58382,0 3.75515,2.51492 0.65457,1.34359 0.65457,3.10059 0,4.54753 -4.03076,10.09414 -2.51492,3.4451 -6.40788,6.82129 -9.50847,8.30269 -20.67059,8.30269 h -0.13781 q -8.44049,0 -14.50386,-4.51308 -5.99447,-4.44418 -7.37251,-11.67888 -0.34451,-1.86036 -0.34451,-3.85851 0,-8.26824 7.06245,-16.32977 4.37528,-4.99539 10.64536,-8.8539 l -3.89296,-0.68902 q -7.13136,-1.17133 -9.99079,-1.17133 -4.06521,0 -5.92557,1.20578 l -1.86035,1.24024 q -0.48231,0.24116 -0.99908,0.44786 -0.41341,0.10335 -0.68902,0.10335 -0.65457,0 -0.65457,-0.55121 0,-1.30914 2.48048,-3.72071 3.6518,-3.5829 8.09597,-5.02984 0.82683,-0.27561 1.65365,-0.44786 1.96371,-0.413414 4.65088,-0.413414 2.41157,0 14.02155,1.825904 12.2301,1.92925 16.01971,1.92925 z"
       style="font-style:italic;font-weight:bold;font-size:70.5556px;line-height:1.25;font-family:'Tengwar Annatar';-inkscape-font-specification:'Tengwar Annatar, Bold Italic';fill:none;fill-opacity:1;stroke:#000000;stroke-width:0.264583;stroke-opacity:1"
       id="path1200" /><path
       id="path1202"
       style="font-style:italic;font-weight:bold;font-size:70.5556px;line-height:1.25;font-family:'Tengwar Annatar';-inkscape-font-specification:'Tengwar Annatar, Bold Italic';fill:none;fill-opacity:1;stroke:#000000;stroke-width:0.264583;stroke-opacity:1"
       d="m -522.42238,45.289742 c -0.94165,0 -2.26245,0.72347 -3.96203,2.17041 l -3.10058,2.89388 c -4.06521,4.019277 -7.75147,8.50956 -11.05876,13.470496 -2.04409,3.054651 -3.81275,6.005779 -5.30562,8.853723 -4.29489,8.222292 -9.01467,20.820214 -14.15934,37.793039 -3.12355,10.33529 -5.46622,16.2953 -7.028,17.88005 -1.21726,1.24024 -1.82572,2.26211 -1.82572,3.06596 0,0.41341 0.2067,0.62012 0.62011,0.62012 0.13781,0 0.33286,-0.0228 0.5855,-0.0687 8.08448,-1.37804 16.42162,-2.06706 25.01139,-2.06706 3.26136,0 7.22322,0.13781 11.88558,0.41341 7.57921,0.45935 12.85021,0.68885 15.81299,0.68885 2.27376,0 4.29522,-0.12615 6.06371,-0.37879 1.10243,-0.16077 2.18155,-0.39079 3.23805,-0.68936 3.90443,-1.10243 7.12003,-2.93947 9.64643,-5.51181 1.37804,-1.42397 2.06706,-2.52641 2.06706,-3.30729 0,-0.14469 -0.0281,-0.26296 -0.0786,-0.35967 0.49535,0.17079 1.03825,0.25632 1.62884,0.25632 0.9876,0 1.87166,-0.27561 2.65256,-0.82683 1.28616,-0.89572 1.92959,-2.13596 1.92959,-3.7207 0,-0.89572 -0.23001,-1.71141 -0.68936,-2.44636 -0.87275,-1.42398 -2.26193,-2.13579 -4.16822,-2.13579 h -0.1726 c -0.36748,0 -0.83814,0.12614 -1.41232,0.37879 -1.79145,0.82682 -2.68717,2.22817 -2.68717,4.20336 0,1.0565 0.28726,1.97502 0.86144,2.7559 0.40025,0.53366 0.8672,0.94762 1.40044,1.24282 -0.55449,0.007 -1.04544,0.13059 -1.46968,0.37621 l -1.72238,1.34358 c -2.29673,1.60772 -6.49975,2.41174 -12.60905,2.41174 h -0.72347 c 0,-0.0459 0.20671,-0.27544 0.62012,-0.68884 1.05649,-1.07947 1.99833,-2.17076 2.82515,-3.27319 2.68717,-3.60586 4.03076,-6.9932 4.03076,-10.16269 0,-2.68717 -0.86127,-4.92648 -2.58382,-6.71793 -1.83738,-1.92925 -4.15725,-2.89388 -6.95926,-2.89388 -3.00872,0 -6.48827,1.44693 -10.43864,4.34082 -0.87276,0.64308 -2.5492,2.03226 -5.02967,4.16822 -0.27561,-1.56177 -0.78123,-2.95096 -1.51619,-4.16822 -1.76848,-2.89389 -4.4668,-4.34082 -8.09563,-4.34082 -0.36748,0 -0.7353,0.0228 -1.10277,0.0687 -0.78693,0.0818 -1.62171,0.27522 -2.49959,0.56844 2.37273,-2.659311 6.16167,-6.923034 11.76724,-13.246223 3.5829,-4.065211 4.61642,-5.236544 3.10059,-3.513997 6.82128,-7.625143 12.27568,-11.438062 16.36385,-11.438062 0.68902,0 1.33245,0.09221 1.9296,0.275952 0.41341,0.137804 0.86128,0.355649 1.34359,0.654224 1.90629,1.240234 2.85926,2.986095 2.85926,5.23689 0,0.826823 -0.14946,1.630334 -0.44804,2.411222 -0.3445,1.263201 -1.32027,1.894975 -2.92798,1.894975 -1.28617,0 -2.2969,-0.447863 -3.03186,-1.343587 -0.59715,-0.711987 -0.89555,-1.423801 -0.89555,-2.135787 0,-0.459347 0.2067,-0.953316 0.62011,-1.481564 0.48232,-0.620117 0.72347,-1.136882 0.72347,-1.550293 0,-0.344509 -0.2067,-0.516764 -0.62011,-0.516764 -0.9876,0.09187 -2.17059,0.826995 -3.54862,2.205033 -1.56178,1.69958 -2.3425,3.353227 -2.3425,4.960938 0,0.895724 0.24116,1.710892 0.72347,2.445845 0.94166,1.44694 2.42305,2.170411 4.44418,2.170411 0.91869,0 1.83721,-0.14946 2.7559,-0.448035 2.5953,-0.826823 4.88073,-2.526059 6.85591,-5.098397 1.88332,-2.4575 2.82464,-4.834618 2.82464,-7.131348 0,-1.69958 -0.47066,-3.192628 -1.41232,-4.478796 -1.37804,-1.906286 -3.34174,-2.859257 -5.89111,-2.859257 -0.34451,0 -0.62012,0.01114 -0.82683,0.03411 -0.2067,0 -0.45952,0.03445 -0.75809,0.103352 -5.55809,0.826824 -12.37938,5.60437 -20.46387,14.331942 l -12.7124,14.296802 c -4.01927,4.547524 -6.08633,6.913494 -6.20117,7.097234 -0.0518,0.0745 -0.0987,0.14676 -0.14314,0.21756 -1.55494,1.05763 -3.20558,2.33691 -4.95526,3.84731 l -0.58601,0.48266 c 1.49288,-5.21357 2.90537,-9.887766 4.23747,-14.02188 4.7772,-14.722037 9.8648,-26.090859 15.26212,-34.106445 1.97518,-2.939814 4.11114,-5.626991 6.40787,-8.061524 l 3.92741,-3.961515 c 1.1943,-1.217267 1.79111,-2.205206 1.79111,-2.963127 0,-0.344509 -0.21785,-0.516764 -0.65423,-0.516764 z m -22.42757,62.735188 c 0.22968,0 0.43638,0.0116 0.62012,0.0346 2.87091,0.27561 4.99522,1.58475 6.37325,3.92741 0.89573,1.53881 1.34359,3.10076 1.34359,4.68551 -0.023,1.92925 -0.49362,3.66293 -1.41232,5.20174 -0.36747,0.64309 -0.81533,1.05651 -1.34358,1.24024 -0.62012,0.22967 -2.62993,0.42524 -6.02909,0.58601 -2.96278,0.13781 -5.61551,0.33285 -7.95817,0.58549 l -6.92464,0.93018 0.27543,-0.48214 3.82406,-7.028 0.86144,-1.44694 c 3.37619,-5.48918 6.83295,-8.23412 10.36991,-8.23412 z m 24.80469,0.0346 c 2.34266,0 4.30637,0.73513 5.89111,2.20504 1.74552,1.65364 2.61793,3.74349 2.61793,6.2699 -0.0919,2.34266 -0.83813,4.43252 -2.23914,6.2699 -0.1378,0.16077 -0.35617,0.32189 -0.65474,0.48266 -1.1943,0.64308 -2.75573,0.96428 -4.68498,0.96428 -0.66605,0 -1.69958,-0.0456 -3.10059,-0.13746 -6.1093,-0.39044 -10.18617,-0.58601 -12.23026,-0.58601 h -0.51677 c 1.401,-1.51584 2.91685,-3.57124 4.54753,-6.16655 1.79145,-2.84794 2.96279,-4.62774 3.514,-5.33972 1.81442,-2.27377 3.84702,-3.58291 6.09782,-3.92741 h 0.0346 z" /><path
       d="m -546.29709,158.80585 q -1.6881,0 -1.99816,-1.6192 -0.0689,-0.31006 -0.0689,-0.65457 0,-1.10243 0.65457,-2.20486 0.82683,-1.41249 3.20394,-4.37527 l 2.44602,-3.16949 q 0.96463,-1.27469 1.20579,-1.44695 0.37896,-0.2756 0.75792,-0.2756 0.75792,0 0.96463,0.82682 0.0344,0.1378 0.0344,0.34451 0,0.58567 -2.51493,6.44233 -1.48139,3.3762 -2.13596,4.44418 -1.10243,1.6881 -2.54937,1.6881 z"
       style="font-style:italic;font-weight:bold;font-size:70.5556px;line-height:1.25;font-family:'Tengwar Annatar';-inkscape-font-specification:'Tengwar Annatar, Bold Italic';fill:none;fill-opacity:1;stroke:#000000;stroke-width:0.264583;stroke-opacity:1"
       id="path1206" /></g></svg>
