<?xml version="1.0" encoding="UTF-8" standalone="no"?>
<!-- Created with Inkscape (http://www.inkscape.org/) -->

<svg
   width="2962.6011mm"
   height="169.38449mm"
   viewBox="0 0 2962.6011 169.38449"
   version="1.1"
   id="svg5"
   xml:space="preserve"
   sodipodi:docname="H_N_elvish_line_2.svg"
   inkscape:version="1.2.2 (1:1.2.2+202212051552+b0a8486541)"
   xmlns:inkscape="http://www.inkscape.org/namespaces/inkscape"
   xmlns:sodipodi="http://sodipodi.sourceforge.net/DTD/sodipodi-0.dtd"
   xmlns="http://www.w3.org/2000/svg"
   xmlns:svg="http://www.w3.org/2000/svg"><sodipodi:namedview
     id="namedview300"
     pagecolor="#ffffff"
     bordercolor="#666666"
     borderopacity="1.0"
     inkscape:showpageshadow="2"
     inkscape:pageopacity="0.0"
     inkscape:pagecheckerboard="0"
     inkscape:deskcolor="#d1d1d1"
     inkscape:document-units="mm"
     showgrid="false"
     inkscape:zoom="0.23781002"
     inkscape:cx="2213.9521"
     inkscape:cy="666.49841"
     inkscape:current-layer="layer1" /><defs
     id="defs2"><rect
       x="-3064.2461"
       y="-1725.2098"
       width="8522.3438"
       height="1127.9735"
       id="rect577" /><rect
       x="5102.8638"
       y="458.32104"
       width="1717.4696"
       height="2384.1938"
       id="rect567" /><rect
       x="4432.1147"
       y="396.8504"
       width="9956.3105"
       height="1159.8926"
       id="rect561" /><rect
       x="-5226.1406"
       y="1528.9053"
       width="13824.299"
       height="3037.7007"
       id="rect473" /><rect
       x="-4957.9775"
       y="1382.0387"
       width="15128.81"
       height="2287.4431"
       id="rect467" /><rect
       x="5102.8638"
       y="458.32104"
       width="819.79352"
       height="161.50455"
       id="rect461" /><rect
       x="58.470253"
       y="119.4372"
       width="11736.415"
       height="832.03381"
       id="rect236" /><rect
       x="88.622437"
       y="649.57916"
       width="639.67432"
       height="440.48877"
       id="rect400" /><rect
       x="80.690262"
       y="181.98399"
       width="557.172"
       height="544.86536"
       id="rect236-5" /><rect
       x="80.690262"
       y="181.98399"
       width="2677.3977"
       height="116.70974"
       id="rect236-0" /></defs><g
     id="layer1"
     style="fill:none;stroke:#000000;stroke-opacity:1"
     transform="translate(1173.024,-40.747901)"><text
       xml:space="preserve"
       transform="scale(0.26458333)"
       id="text459"
       style="font-style:italic;font-variant:normal;font-weight:bold;font-stretch:normal;font-size:113.067px;line-height:1.25;font-family:'Tengwar Annatar';-inkscape-font-specification:'Tengwar Annatar, Bold Italic';font-variant-ligatures:normal;font-variant-caps:normal;font-variant-numeric:normal;font-variant-east-asian:normal;white-space:pre;shape-inside:url(#rect461);display:inline;fill:none;stroke:#000000;stroke-opacity:1" /><text
       xml:space="preserve"
       transform="scale(0.26458333)"
       id="text559"
       style="font-style:italic;font-variant:normal;font-weight:bold;font-stretch:normal;font-size:113.067px;line-height:1.25;font-family:'Tengwar Annatar';-inkscape-font-specification:'Tengwar Annatar, Bold Italic';font-variant-ligatures:normal;font-variant-caps:normal;font-variant-numeric:normal;font-variant-east-asian:normal;white-space:pre;shape-inside:url(#rect561);display:inline;fill:none;stroke:#000000;stroke-opacity:1" /><text
       xml:space="preserve"
       transform="scale(0.26458333)"
       id="text565"
       style="font-style:italic;font-variant:normal;font-weight:bold;font-stretch:normal;font-size:113.067px;line-height:1.25;font-family:'Tengwar Annatar';-inkscape-font-specification:'Tengwar Annatar, Bold Italic';font-variant-ligatures:normal;font-variant-caps:normal;font-variant-numeric:normal;font-variant-east-asian:normal;white-space:pre;shape-inside:url(#rect567);display:inline;fill:none;stroke:#000000;stroke-opacity:1" /><path
       id="path1210"
       style="font-style:italic;font-weight:bold;font-size:70.5556px;line-height:1.25;font-family:'Tengwar Annatar';-inkscape-font-specification:'Tengwar Annatar, Bold Italic';fill:none;fill-opacity:1;stroke:#000000;stroke-width:0.264583;stroke-opacity:1"
       d="m -373.14622,68.51003 c -0.34451,0 -0.62063,0.01114 -0.82734,0.03411 -0.2067,0 -0.459,0.03445 -0.75757,0.103352 -5.55809,0.826824 -12.37938,5.60437 -20.46387,14.331942 l -12.7124,14.296802 c -4.01928,4.547524 -6.08633,6.913494 -6.20117,7.097234 -0.06,0.0863 -0.11309,0.16927 -0.1633,0.25063 -1.78224,1.19064 -3.20985,2.30149 -4.28088,3.3321 -0.59715,0.55122 -0.91886,0.82682 -0.9648,0.82682 v -0.0346 c 0.16078,-1.10243 0.24133,-1.92926 0.24133,-2.48047 0,-0.45934 -0.0344,-0.90721 -0.10335,-1.34359 -0.34451,-1.90628 -1.20578,-3.261 -2.58382,-4.06486 -0.22967,-0.11484 -0.42525,-0.21819 -0.58601,-0.31006 -0.45935,-0.18374 -1.27452,-0.27595 -2.44585,-0.27595 -1.14836,0 -1.82573,0.0116 -2.03243,0.0346 -1.17133,0.0459 -2.31987,0.21819 -3.44527,0.51676 -3.19245,0.87276 -5.90242,2.54921 -8.13025,5.02967 -1.24023,1.37804 -1.86035,2.41157 -1.86035,3.10059 0,0.43638 0.21784,0.63194 0.65422,0.58601 v -5.2e-4 c 0.41341,-0.0459 0.75792,-0.11483 1.03353,-0.20671 0.2067,-0.0919 0.64343,-0.36747 1.30948,-0.82682 1.01056,-0.71198 2.92816,-1.06763 5.75314,-1.06763 h 0.41341 c 1.03352,0 1.8948,0.28675 2.58382,0.86093 1.07947,0.89572 1.61902,2.22817 1.61902,3.99665 0,0.59715 -0.0917,1.33176 -0.27543,2.20452 -0.64309,3.19245 -1.89498,6.6031 -3.75533,10.23193 -0.71199,1.40101 -1.74552,2.94016 -3.10059,4.61677 -0.73495,0.89573 -1.10225,1.60754 -1.10225,2.13579 0,0.36748 0.19505,0.55139 0.58549,0.55139 0.80386,0 1.80293,-0.43621 2.99723,-1.30897 2.64124,-1.99815 5.23672,-5.28265 7.78609,-9.85314 2.22783,-3.99631 4.05373,-6.8674 5.4777,-8.61291 2.29673,-2.82498 4.6855,-4.23747 7.16597,-4.23747 1.28617,0 2.66421,0.43621 4.13412,1.30896 3.00872,1.74552 4.5129,4.52491 4.5129,8.33748 0,2.20486 -0.59732,4.22581 -1.79162,6.0632 -0.023,0.0459 -0.0574,0.092 -0.10335,0.13797 -0.57419,0.66605 -1.74552,0.99891 -3.514,0.99891 -0.68902,0 -1.28583,-0.0572 -1.79111,-0.17208 -0.68902,-0.16078 -1.44693,-0.57419 -2.27376,-1.24024 -0.82682,-0.64308 -1.72255,-0.9648 -2.68717,-0.9648 -1.44694,0 -2.69883,0.52843 -3.75533,1.58492 -1.14837,1.14836 -1.72238,2.4575 -1.72238,3.92741 v 0.34416 c 0.18374,2.45751 2.0441,3.6866 5.58106,3.6866 0.52825,0 1.0678,-0.0344 1.61902,-0.10335 4.38675,-0.62012 8.69313,-3.33061 12.91911,-8.13077 1.28617,-1.44694 2.73311,-3.59404 4.34082,-6.44199 1.63068,-2.91684 2.79036,-4.8233 3.47937,-5.71903 1.86036,-2.3886 4.05408,-3.58273 6.58048,-3.58273 1.14837,0 2.26193,0.26396 3.3414,0.7922 0.50528,0.25264 1.01091,0.57436 1.51619,0.9648 2.45749,1.97519 3.68608,4.59346 3.68608,7.85482 0,1.14837 -0.21837,2.40025 -0.65474,3.75533 -0.52826,1.56177 -0.99891,2.46864 -1.41232,2.72128 l -0.13798,0.0687 c -0.94166,0.45934 -2.04409,0.68936 -3.30729,0.68936 -0.64309,0 -1.21709,-0.0689 -1.72237,-0.2067 -0.62012,-0.16078 -1.3436,-0.57419 -2.17041,-1.24024 -0.80386,-0.64308 -1.68793,-0.9648 -2.65256,-0.9648 -1.07945,0 -2.12464,0.35617 -3.13521,1.06815 -1.58473,1.07946 -2.37711,2.49195 -2.37711,4.23747 0,0.57418 0.0806,1.09095 0.24133,1.55029 0.55122,1.79146 2.3538,2.68718 5.40845,2.68718 1.79145,0 3.75516,-0.50562 5.89112,-1.51619 3.44509,-1.63068 6.48843,-4.05339 9.12967,-7.2688 3.16949,-3.85851 4.75423,-7.70588 4.75423,-11.54142 0,-3.12355 -0.93017,-5.70737 -2.79052,-7.75146 -1.90629,-2.06706 -4.29506,-3.10059 -7.16597,-3.10059 -1.81442,0 -3.84703,0.57453 -6.09782,1.72289 -2.71014,1.37804 -5.89077,3.7663 -9.54257,7.16546 -0.32154,-1.60771 -0.87276,-3.043 -1.65365,-4.3062 -1.86035,-3.05465 -4.59364,-4.58215 -8.1995,-4.58215 -1.08356,0 -2.24579,0.20892 -3.48712,0.62528 2.37421,-2.661035 6.15952,-6.921608 11.75535,-13.23381 3.5829,-4.065211 4.61642,-5.236544 3.10059,-3.513997 6.82128,-7.625143 12.2762,-11.438062 16.36437,-11.438062 0.68902,0 1.33193,0.09221 1.92908,0.275952 0.41342,0.137804 0.86128,0.355649 1.34359,0.654224 1.90629,1.240234 2.85977,2.986095 2.85977,5.23689 0,0.826823 -0.14945,1.630334 -0.44803,2.411222 -0.34451,1.263201 -1.32079,1.894975 -2.9285,1.894975 -1.28617,0 -2.29639,-0.447863 -3.03134,-1.343587 -0.59716,-0.711987 -0.89607,-1.423801 -0.89607,-2.135787 0,-0.459347 0.2067,-0.953316 0.62011,-1.481564 0.48232,-0.620117 0.72347,-1.136882 0.72347,-1.550293 0,-0.344509 -0.2067,-0.516764 -0.62011,-0.516764 -0.98759,0.09187 -2.17058,0.826995 -3.54862,2.205033 -1.56178,1.69958 -2.3425,3.353227 -2.3425,4.960938 0,0.895724 0.24116,1.710892 0.72347,2.445845 0.94166,1.44694 2.42305,2.170411 4.44418,2.170411 0.91869,0 1.83773,-0.14946 2.75642,-0.448035 2.5953,-0.826823 4.88021,-2.526059 6.85539,-5.098397 1.88332,-2.4575 2.82515,-4.834618 2.82515,-7.131348 0,-1.69958 -0.47065,-3.192628 -1.41231,-4.478796 -1.37804,-1.906286 -3.34175,-2.859257 -5.89112,-2.859257 z" /><path
       d="m -412.6962,158.80585 q -1.6881,0 -1.99815,-1.6192 -0.0689,-0.31006 -0.0689,-0.65457 0,-1.10243 0.65457,-2.20486 0.82683,-1.41249 3.20394,-4.37527 l 2.44602,-3.16949 q 0.96463,-1.27469 1.20579,-1.44695 0.37896,-0.2756 0.75792,-0.2756 0.75792,0 0.96463,0.82682 0.0344,0.1378 0.0344,0.34451 0,0.58567 -2.51492,6.44233 -1.4814,3.3762 -2.13596,4.44418 -1.10244,1.6881 -2.54938,1.6881 z"
       style="font-style:italic;font-weight:bold;font-size:70.5556px;line-height:1.25;font-family:'Tengwar Annatar';-inkscape-font-specification:'Tengwar Annatar, Bold Italic';fill:none;fill-opacity:1;stroke:#000000;stroke-width:0.264583;stroke-opacity:1"
       id="path1214" /><path
       id="path1216"
       style="font-style:italic;font-weight:bold;font-size:70.5556px;line-height:1.25;font-family:'Tengwar Annatar';-inkscape-font-specification:'Tengwar Annatar, Bold Italic';fill:none;fill-opacity:1;stroke:#000000;stroke-width:0.264583;stroke-opacity:1"
       d="m -287.36334,100.06676 c -2.02112,0 -4.22598,0.13781 -6.61458,0.41341 -2.04409,0.25264 -4.0311,0.68936 -5.96036,1.30948 -3.79596,1.2322 -6.98868,2.93791 -9.58081,5.11597 0.0226,-0.29134 0.0382,-0.57571 0.0382,-0.84439 0,-1.03353 -0.12667,-1.90595 -0.37931,-2.61793 -0.71198,-2.11299 -2.77904,-3.16983 -6.20117,-3.16983 -3.62883,0 -7.62514,1.52749 -11.98893,4.58215 l -0.41341,0.27543 c -0.023,0 -0.10301,-0.11449 -0.24081,-0.34416 -0.55122,-0.94166 -1.12575,-1.69959 -1.7229,-2.27377 -1.10243,-1.10243 -2.51492,-1.65364 -4.23746,-1.65364 -0.80386,0 -1.55012,0.0456 -2.23914,0.13746 -0.75792,0.0919 -1.5275,0.25298 -2.30839,0.48265 -3.03168,0.94166 -5.67275,2.69866 -7.92355,5.271 -1.14836,1.33211 -1.72237,2.27342 -1.72237,2.82463 0.023,0.27561 0.24081,0.45952 0.65422,0.55139 0.22967,0 0.43638,-0.0228 0.62012,-0.0687 0.36747,-0.0689 0.88424,-0.34451 1.55029,-0.82682 1.10243,-0.80385 2.68717,-1.20613 4.75423,-1.20613 2.54937,0 4.57084,1.98702 6.06372,5.96036 0.41341,1.07947 1.07911,3.42213 1.99781,7.028 l 0.89607,3.58272 c 1.17133,4.20301 2.79052,7.33806 4.85758,9.40511 l 0.48214,0.51677 -4.20284,6.75256 c -10.45012,16.19194 -24.42608,32.24609 -41.92716,48.16243 -2.5953,2.36563 -3.89279,4.04208 -3.89279,5.02967 0,0.36747 0.21785,0.55139 0.65423,0.55139 0.84979,0 2.17059,-0.73513 3.96203,-2.20504 0.78089,-0.64308 2.87075,-2.56068 6.2699,-5.75313 18.41978,-17.31735 33.09641,-34.88734 44.02884,-52.70997 l 3.65146,-6.13244 c 1.30913,-2.3197 2.45767,-4.444 3.44526,-6.37325 2.07634,-4.00991 3.56531,-7.4324 4.46846,-10.26914 l 2.21486,-1.68569 c 2.91684,-2.06706 7.57938,-3.19228 13.98726,-3.37602 0.55122,0 0.82682,0.0116 0.82682,0.0346 l -0.0346,0.0341 -0.93018,0.86145 c -5.69589,5.14467 -8.54366,10.14007 -8.54366,14.98616 0,2.64125 0.81516,4.85776 2.44584,6.64921 1.83738,1.97519 4.20336,2.96261 7.09724,2.96261 4.34082,0 9.45071,-2.51492 15.33033,-7.54476 l 0.0693,0.13798 c 0.20671,1.37803 0.84962,2.70997 1.92908,3.99613 1.90629,2.27377 4.38676,3.41065 7.44141,3.41065 0.73495,0 1.47008,-0.0689 2.20503,-0.20671 2.66421,-0.52824 5.73035,-2.14744 9.19841,-4.85758 1.30913,-1.03353 1.9865,-1.55029 2.03243,-1.55029 l -0.93018,2.61844 c -1.17133,3.23839 -2.59547,6.54568 -4.27209,9.92188 -6.316,12.74684 -15.59445,25.70041 -27.83602,38.86067 l -6.75256,6.95875 -11.47217,10.9554 c -4.06522,3.74367 -6.29287,5.81074 -6.68331,6.20118 -1.35508,1.35507 -2.03296,2.43471 -2.03296,3.23856 0,0.39044 0.20671,0.58549 0.62012,0.58549 1.01056,0 2.44636,-0.83796 4.30672,-2.51457 3.16948,-2.75608 7.03913,-6.32785 11.60962,-10.71459 l 9.12968,-8.95708 c 13.16026,-13.38993 23.43831,-26.28625 30.83378,-38.6886 2.27376,-3.81256 4.2486,-7.44106 5.92522,-10.88615 2.18189,-4.45566 4.24894,-9.61217 6.20117,-15.46883 1.44694,-4.36378 2.66438,-7.52162 3.65197,-9.47384 3.05465,-0.57418 5.62682,-1.96388 7.71684,-4.16873 1.17133,-1.21727 1.757,-2.15858 1.757,-2.82464 0,-0.43638 -0.2295,-0.65474 -0.68885,-0.65474 -0.39044,0 -0.8611,0.1606 -1.41231,0.48214 -1.24024,0.68902 -3.06613,1.03353 -5.4777,1.03353 -10.67979,0.0459 -20.80838,-0.30971 -30.38575,-1.06763 -6.84425,-0.52825 -12.1497,-0.79272 -15.91634,-0.79272 z m 0.37879,6.51123 c 0.29857,0 0.68919,0.0116 1.1715,0.0346 l 15.39958,1.13689 -2.41174,2.51509 c -1.88332,2.09002 -3.39916,4.47828 -4.54752,7.16545 -0.80386,1.92925 -1.42398,3.1928 -1.86036,3.78995 -0.66605,0.89573 -1.57343,1.66478 -2.72179,2.30787 -1.67661,0.89572 -3.29582,1.34359 -4.85759,1.34359 -1.97519,0 -3.72053,-0.59681 -5.23637,-1.79111 -2.09002,-1.65364 -3.13521,-3.92741 -3.13521,-6.82129 0,-0.34451 0.0233,-0.68902 0.0693,-1.03353 0.29857,-2.61827 1.5616,-4.84644 3.78943,-6.68382 1.58474,-1.30914 3.03169,-1.96371 4.34082,-1.96371 z m -35.55339,0.86145 c 3.46807,0 5.20227,1.53864 5.20227,4.61625 0,1.92925 -0.66622,4.52473 -1.99833,7.78609 l -0.41341,0.9648 c -1.21726,2.7331 -1.88349,4.09949 -1.99833,4.09949 0,-0.0459 -0.10335,-0.22985 -0.31005,-0.55139 -0.9187,-1.51584 -1.75666,-3.60569 -2.51458,-6.2699 l -1.79162,-7.13135 -0.75809,-2.48046 c 0,-0.0689 0.12666,-0.14946 0.3793,-0.24133 1.33211,-0.52825 2.73294,-0.7922 4.20284,-0.7922 z m 59.73796,0.65474 14.53813,0.27543 h 0.27595 c -0.43638,0.66605 -1.49322,2.60696 -3.16983,5.82239 -2.34266,4.52455 -4.07635,7.25732 -5.20175,8.19898 l -0.68936,0.55139 c -1.69958,1.28616 -3.39882,1.92908 -5.0984,1.92908 -1.14836,0 -2.40025,-0.33286 -3.75533,-0.99891 -3.05465,-1.49288 -4.58214,-4.03059 -4.58214,-7.61349 0,-0.45934 0.0689,-1.03387 0.2067,-1.72289 0.50528,-2.57234 1.35542,-4.27158 2.54972,-5.0984 1.33209,-0.89572 2.97409,-1.34358 4.92631,-1.34358 z" /><path
       d="m -266.03841,87.871283 q -0.72347,0 -0.93017,-0.826823 -0.0345,-0.137804 -0.0345,-0.310059 0,-0.551216 2.10151,-5.99447 1.58475,-4.20302 2.37712,-5.374353 0.93018,-1.481392 2.34267,-1.481392 1.34359,0 1.92925,1.205784 0.24116,0.482314 0.20671,1.102432 -0.0344,1.584745 -1.86035,4.134117 l -3.92742,5.408803 -0.62011,0.930177 q -0.75792,1.136882 -1.58475,1.205784 z"
       style="font-style:italic;font-weight:bold;font-size:70.5556px;line-height:1.25;font-family:'Tengwar Annatar';-inkscape-font-specification:'Tengwar Annatar, Bold Italic';fill:none;fill-opacity:1;stroke:#000000;stroke-width:0.264583;stroke-opacity:1"
       id="path1220" /><path
       d="m -251.32784,92.281008 q 6.30453,0 9.99078,-2.687176 l 1.99816,-1.515843 q 0.65457,-0.413412 1.27469,-0.413412 0.62011,0 0.62011,0.585667 0,1.378039 -2.99723,3.720706 -6.27008,4.926489 -14.29716,5.098744 -0.34451,0 -0.65457,0 -4.34082,0 -12.60905,-1.550294 -8.06153,-1.515843 -11.67889,-1.688098 -0.86127,-0.03445 -1.65364,-0.03445 -6.27008,0 -9.95634,2.652726 l -2.06705,1.550294 q -0.72347,0.447862 -1.37804,0.447862 -0.65457,0 -0.65457,-0.585666 0,-1.136883 2.27376,-3.16949 3.92741,-3.514 9.71518,-4.92649 2.92833,-0.723471 5.92557,-0.723471 4.71978,0 12.299,1.481392 7.44141,1.446942 11.09321,1.688098 1.37804,0.0689 2.75608,0.0689 z"
       style="font-style:italic;font-weight:bold;font-size:70.5556px;line-height:1.25;font-family:'Tengwar Annatar';-inkscape-font-specification:'Tengwar Annatar, Bold Italic';fill:none;fill-opacity:1;stroke:#000000;stroke-width:0.264583;stroke-opacity:1"
       id="path1222" /><path
       id="path1224"
       style="font-style:italic;font-weight:bold;font-size:70.5556px;line-height:1.25;font-family:'Tengwar Annatar';-inkscape-font-specification:'Tengwar Annatar, Bold Italic';fill:none;fill-opacity:1;stroke:#000000;stroke-width:0.264583;stroke-opacity:1"
       d="m -144.15089,71.162581 c -1.97519,0 -4.22616,0.792373 -6.75256,2.377116 -5.12171,3.215422 -9.84149,8.830931 -14.15934,16.846517 l -1.20561,2.308386 c -3.05244,5.891513 -4.99391,9.74618 -5.86528,11.63908 -0.5372,0.46816 -1.05105,0.97477 -1.54151,1.52084 -0.18194,0.20216 -0.34911,0.3961 -0.50436,0.58343 -0.35473,-0.66795 -0.7828,-1.29931 -1.28726,-1.89239 -2.11299,-2.50344 -5.01853,-3.73202 -8.71626,-3.68608 -3.60587,0.0459 -7.92338,1.97518 -12.95322,5.78776 l -3.92741,3.16931 c 0.39045,-1.3321 0.5855,-2.51509 0.5855,-3.54862 0,-0.11484 -0.0116,-0.24098 -0.0346,-0.37879 -0.0919,-2.25079 -0.90703,-3.88164 -2.44584,-4.8922 -0.45935,-0.29858 -0.91887,-0.50529 -1.37821,-0.62012 -0.29857,-0.0689 -0.92983,-0.10335 -1.89446,-0.10335 h -1.72289 c -1.1943,0.0459 -2.37677,0.21819 -3.54811,0.51676 -3.26135,0.84979 -6.01743,2.50344 -8.26822,4.96094 -1.28617,1.401 -1.9296,2.46898 -1.9296,3.20394 0,0.43638 0.21836,0.63194 0.65474,0.58601 0.4134,-0.0459 0.78071,-0.12649 1.10226,-0.24133 0.22967,-0.0689 0.66639,-0.33286 1.30948,-0.7922 1.03352,-0.71199 2.92833,-1.06815 5.6844,-1.06815 h 0.41342 c 1.07945,0 1.96353,0.2984 2.65255,0.89555 1.03353,0.89573 1.55029,2.19372 1.55029,3.8933 0,1.40101 -0.55121,3.60587 -1.65365,6.61459 -1.4699,4.06521 -3.2041,7.99262 -5.20226,11.78222 l -3.03134,5.68441 c -15.25029,28.2268 -32.34962,51.0217 -51.29765,68.38497 l -1.55029,1.48157 c -1.35507,1.42397 -2.03243,2.52639 -2.03243,3.30729 0,0.3445 0.2067,0.51676 0.62011,0.51676 0.71199,0 1.74552,-0.50563 3.10059,-1.51618 1.28617,-0.96463 3.70888,-3.16949 7.26881,-6.61459 l 2.27376,-2.23914 c 17.89152,-17.86856 34.15239,-40.28449 48.78255,-67.24809 2.41157,-4.45566 4.13411,-7.7974 5.16765,-10.02523 l 1.75699,-3.58324 c 1.67662,-2.98575 3.46807,-5.3051 5.37435,-6.95875 0.52825,-0.45935 1.06832,-0.88442 1.61954,-1.27486 2.3886,-1.67661 4.65071,-2.51509 6.78667,-2.51509 1.401,0 2.90519,0.41342 4.5129,1.24024 3.39916,1.69957 5.09891,4.53621 5.09891,8.50955 0,0.87276 -0.1378,1.80294 -0.41341,2.79053 -0.43638,1.67661 -0.94149,2.75625 -1.51567,3.23856 -1.42397,0.71199 -2.92867,1.06764 -4.51342,1.06764 -0.68902,0 -1.28582,-0.0572 -1.7911,-0.17208 -0.68902,-0.18374 -1.44694,-0.59715 -2.27376,-1.24024 -0.82682,-0.64308 -1.72255,-0.9648 -2.68718,-0.9648 -0.9876,0 -1.97553,0.32172 -2.96313,0.9648 -1.67661,1.10243 -2.51457,2.59548 -2.51457,4.4788 0,2.73311 1.84869,4.09949 5.54643,4.09949 0.98759,0 1.94057,-0.0917 2.85926,-0.27544 1.4699,-0.2756 2.98575,-0.81568 4.54752,-1.61954 3.46807,-1.76847 6.51141,-4.31785 9.12968,-7.64811 2.93981,-3.74367 4.40955,-7.30325 4.40955,-10.67945 0,-1 -0.10671,-1.94646 -0.31626,-2.84169 0.19626,-0.12677 0.42158,-0.27664 0.69556,-0.4656 1.01057,-0.71199 2.92816,-1.06815 5.75314,-1.06815 h 0.41341 c 1.03353,0 1.89481,0.28726 2.58382,0.86144 1.07947,0.89573 1.61903,2.22766 1.61903,3.99614 0,0.59715 -0.0917,1.33228 -0.27544,2.20503 -0.64308,3.19246 -1.89497,6.60311 -3.75532,10.23194 -0.71199,1.401 -1.74553,2.93964 -3.10059,4.61625 -0.73496,0.89573 -1.10226,1.60754 -1.10226,2.13579 0,0.36748 0.19505,0.55139 0.5855,0.55139 0.78088,0 1.86052,-0.51676 3.23856,-1.55029 0.64308,-0.48232 1.28599,-1.04519 1.92908,-1.68827 3.10058,-3.10059 5.74217,-7.47586 7.92406,-13.12582 1.58475,-4.04224 2.37712,-7.17728 2.37712,-9.40511 0,-1.44694 -0.36782,-2.74442 -1.10278,-3.89278 -0.41341,-0.62012 -0.87241,-1.09077 -1.37769,-1.41232 -0.68902,-0.45934 -1.76866,-0.68936 -3.23856,-0.68936 -1.14837,0 -1.82573,0.0116 -2.03244,0.0346 -1.17133,0.0459 -2.31987,0.21819 -3.44526,0.51676 -0.47327,0.12939 -0.93545,0.27712 -1.38752,0.44184 0.55355,-1.11956 1.33301,-2.726034 2.38642,-4.920633 3.90444,-8.061521 7.499,-13.849285 10.78332,-17.363281 0.32154,-0.34451 0.61994,-0.642912 0.89556,-0.895553 1.5388,-1.423972 3.14686,-2.135787 4.82347,-2.135787 1.56178,0 2.88205,0.505109 3.96152,1.51567 1.42397,1.286169 2.1363,2.951472 2.1363,4.995561 0,0.620117 -0.0805,1.240235 -0.24133,1.860351 -0.11484,0.459347 -0.20653,0.769405 -0.27543,0.930176 -0.34451,0.826823 -1.05684,1.240235 -2.13631,1.240235 -1.24023,0 -2.216,-0.390617 -2.92798,-1.171505 -0.64309,-0.711987 -0.9648,-1.447113 -0.9648,-2.205034 0,-0.275607 0.11501,-0.57401 0.34468,-0.895552 0.41341,-0.551216 0.62012,-0.999078 0.62012,-1.343587 0,-0.367477 -0.19557,-0.551388 -0.58601,-0.551388 -0.62012,0 -1.4814,0.425068 -2.58382,1.274858 -1.95223,1.515842 -2.92799,3.23839 -2.92799,5.167643 0,1.033528 0.32119,1.94091 0.96428,2.721798 0.96463,1.171332 2.30821,1.756998 4.03076,1.756998 0.71199,0 1.50437,-0.126664 2.37712,-0.379305 2.98575,-0.941659 5.46622,-2.905365 7.4414,-5.891113 1.33211,-1.998155 1.99833,-4.041902 1.99833,-6.131925 0,-1.837384 -0.49397,-3.433785 -1.48156,-4.788855 -1.37804,-1.929253 -3.33009,-2.893881 -5.85649,-2.893881 z" /><path
       id="path1230"
       style="font-style:italic;font-weight:bold;font-size:70.5556px;line-height:1.25;font-family:'Tengwar Annatar';-inkscape-font-specification:'Tengwar Annatar, Bold Italic';fill:none;fill-opacity:1;stroke:#000000;stroke-width:0.264583;stroke-opacity:1"
       d="m -119.48366,100.27347 c -1.1943,0.0459 -2.37729,0.21819 -3.54862,0.51676 -3.26136,0.84979 -6.01744,2.50344 -8.26823,4.96094 -1.28617,1.401 -1.92908,2.46898 -1.92908,3.20394 0,0.43638 0.21784,0.63194 0.65422,0.58601 0.41341,-0.0459 0.78124,-0.12649 1.10277,-0.24133 0.22968,-0.0689 0.66588,-0.33286 1.30897,-0.7922 1.03352,-0.71199 2.92833,-1.06815 5.68441,-1.06815 h 0.41341 c 1.0565,0 1.92942,0.28726 2.61844,0.86144 1.07946,0.89573 1.61903,2.20487 1.61903,3.92741 0,0.78089 -0.17226,1.79111 -0.51677,3.03134 -1.10243,4.29488 -3.62901,10.17486 -7.57938,17.63923 l -1.82573,3.41065 c -15.20435,28.20384 -32.30369,50.99873 -51.29764,68.38497 l -1.5503,1.48157 c -1.35507,1.42397 -2.03243,2.52639 -2.03243,3.30729 0,0.3445 0.2067,0.51676 0.62012,0.51676 0.71198,0 1.74551,-0.50563 3.10058,-1.51618 1.28617,-0.96463 3.70888,-3.16949 7.26881,-6.61459 l 1.20613,-1.17099 c 18.35087,-18.1212 34.9679,-40.88215 49.8507,-68.28213 l 0.55087,-1.03353 c 6.86722,-0.98759 13.73463,-1.48105 20.60185,-1.48105 1.952219,0 5.247853,0.11449 9.887247,0.34417 10.35825,0.52824 16.214917,0.79271 17.569987,0.79271 1.44694,0 2.710487,-0.0461 3.789949,-0.13797 1.791449,-0.1378 3.525137,-0.42507 5.20175,-0.86145 3.894657,-1.04283 7.078153,-2.72772 9.552905,-5.0524 -0.848202,1.91195 -1.757995,3.79189 -2.731616,5.63841 l -3.031856,5.68441 c -15.250284,28.2268 -32.34911,51.0217 -51.297126,68.38497 l -1.55029,1.48157 c -1.35507,1.42397 -2.03296,2.52639 -2.03296,3.30729 0,0.3445 0.20672,0.51676 0.62012,0.51676 0.71199,0 1.74552,-0.50563 3.10059,-1.51618 1.28617,-0.96463 3.70939,-3.16949 7.26932,-6.61459 l 2.51509,-2.48047 c 18.442742,-18.48867 35.128155,-41.76588 50.056897,-69.83191 1.538809,-2.87092 2.813495,-5.38583 3.824056,-7.54476 4.271917,-9.32472 8.670502,-13.98726 13.19506,-13.98726 0.528247,0 1.056151,0.0578 1.584399,0.1726 1.423972,0.27561 2.744765,0.98742 3.962032,2.13579 2.067057,1.95222 3.100586,4.38658 3.100586,7.30343 0,2.41156 -0.596805,4.46748 -1.791105,6.16706 -0.0689,0.11484 -0.161116,0.21819 -0.275952,0.31006 -0.689019,0.50528 -1.734204,0.75758 -3.135209,0.75758 -0.643084,0 -1.228751,-0.0572 -1.756999,-0.17208 -0.757921,-0.16078 -1.595883,-0.58584 -2.514575,-1.27486 -0.826823,-0.62012 -1.699753,-0.93018 -2.618445,-0.93018 -1.010561,0 -2.009639,0.32172 -2.997233,0.9648 -1.676613,1.10243 -2.515092,2.59548 -2.515092,4.4788 0,2.73311 1.872008,4.09949 5.615678,4.09949 0.390444,0 0.700503,-0.0117 0.930176,-0.0346 2.939813,-0.22968 6.00595,-1.59606 9.198405,-4.0995 2.503435,-1.95221 4.58215,-4.09983 6.235795,-6.4425 0.482313,-0.66605 1.06798,-1.63067 1.756998,-2.89388 1.676613,-2.96277 2.790701,-4.84592 3.341915,-5.64978 2.250795,-3.26135 4.696815,-4.89221 7.338054,-4.89221 0.6660515,0 1.2745129,0.0689 1.825728,0.20671 1.2861686,0.29857 2.4919528,0.95314 3.6173503,1.9637 2.1818931,1.92925 3.2726684,4.43304 3.2726684,7.51065 0,2.27377 -0.6084617,4.30638 -1.8257283,6.09782 -0.091869,0.13781 -0.2296731,0.26396 -0.4134115,0.37879 -0.7119861,0.45935 -1.7227204,0.68885 -3.0318563,0.68885 -0.6660516,0 -1.2628573,-0.0572 -1.7911051,-0.17208 -0.7579208,-0.16078 -1.5847443,-0.58584 -2.4804685,-1.27486 -0.826823,-0.62012 -1.688097,-0.93018 -2.583822,-0.93018 -1.033528,0 -2.044262,0.33338 -3.031856,0.99942 -1.630678,1.10244 -2.445846,2.57217 -2.445846,4.40955 0,2.75608 1.860353,4.13412 5.581055,4.13412 1.975188,0 4.1111483,-0.58567 6.4078776,-1.757 3.4450944,-1.72255 6.45346858,-4.23747 9.0258057,-7.54476 2.9398138,-3.74367 4.4100667,-7.34937 4.4100667,-10.81743 0,-2.98575 -0.7923725,-5.47787 -2.3771159,-7.47603 -1.9062855,-2.36563 -4.51342062,-3.54862 -7.8207112,-3.54862 -3.9044403,0 -9.0487749,2.96278 -15.4336829,8.88835 -0.321543,-1.63068 -0.884414,-3.08876 -1.688269,-4.37493 -1.883319,-3.00871 -4.604946,-4.51342 -8.164877,-4.51342 -2.273761,0 -4.846446,0.86127 -7.717358,2.58382 -1.883318,1.1254 -4.24878,2.94016 -7.096725,5.4436 0.229674,-1.1254 0.344682,-2.00999 0.344682,-2.65307 v -0.37879 c -0.114836,-2.25079 -0.941659,-3.88164 -2.480469,-4.8922 -0.459345,-0.29858 -0.918864,-0.50529 -1.37821,-0.62012 -0.298575,-0.0689 -0.930348,-0.10335 -1.894975,-0.10335 h -1.722375 c -1.194299,0.0459 -2.377289,0.21819 -3.548621,0.51676 -3.261356,0.84979 -6.017434,2.50344 -8.268229,4.96094 -0.234001,0.25489 -0.439025,0.49527 -0.630453,0.72812 -0.415044,-0.98418 -0.990832,-1.88478 -1.746146,-2.69183 -1.837384,-1.95221 -4.191706,-2.92798 -7.062618,-2.92798 -3.008716,0 -6.46547,1.43528 -10.36991,4.30619 -0.895724,0.66606 -2.594961,2.06689 -5.098397,4.20285 -0.275607,-1.53881 -0.769577,-2.91685 -1.481563,-4.13412 -1.768482,-2.91685 -4.478453,-4.37492 -8.130253,-4.37492 -2.893883,0 -6.316183,1.42363 -10.266553,4.27157 -1.40101,1.01057 -2.59514,1.94074 -3.58273,2.79053 -0.82679,0.71198 -1.25186,1.06815 -1.27486,1.06815 v -0.0346 c 0.25264,-0.78089 0.37879,-1.67662 0.37879,-2.68718 0,-0.50528 -0.0344,-0.98759 -0.10335,-1.44694 -0.48232,-3.03167 -2.36546,-4.54752 -5.64979,-4.54752 z m 63.561492,7.16597 h 0.413411 c 1.079463,0 1.964049,0.2984 2.653069,0.89555 1.033528,0.89573 1.550292,2.19372 1.550292,3.8933 0,1.40101 -0.551215,3.60587 -1.653645,6.61459 -0.196743,0.54411 -0.399441,1.085 -0.605648,1.62419 -0.514801,0.0132 -0.980387,0.13492 -1.39268,0.37362 l -1.756999,1.30948 c -2.342663,1.63068 -6.568478,2.44584 -12.677779,2.44584 -0.459345,0 -0.688847,-0.0116 -0.688847,-0.0346 0,-0.023 0.206706,-0.24082 0.620118,-0.65422 4.570491,-4.66237 6.855395,-9.14099 6.855395,-13.43588 0,-0.43741 -0.03077,-0.8589 -0.07596,-1.27279 0.24914,-0.12726 0.605484,-0.35564 1.074869,-0.69091 1.033529,-0.71199 2.928332,-1.06815 5.684408,-1.06815 z m -47.851862,0.58549 c 1.17133,0 2.41157,0.32172 3.72071,0.9648 3.077616,1.49288 4.616251,4.05391 4.616251,7.68274 0,1.79145 -0.425067,3.43344 -1.274857,4.92631 -0.34451,0.59715 -0.585666,0.97611 -0.72347,1.13688 -0.114837,0.11484 -0.447691,0.24099 -0.998906,0.37879 -1.125399,0.27561 -2.537888,0.44786 -4.237468,0.51676 -4.9839,0.25264 -10.34711,0.80386 -16.08894,1.65365 h -0.0341 c 0,-0.023 0.12615,-0.30972 0.37879,-0.86093 l 0.93018,-1.89497 c 0.80385,-1.83739 1.64233,-3.52548 2.51509,-5.0643 3.60586,-6.29303 7.33822,-9.43973 11.19673,-9.43973 z m 24.80469,0.0346 c 2.158926,0 4.019279,0.64292 5.581055,1.92909 1.95222,1.63067 2.927986,3.80108 2.927986,6.51123 -0.04593,2.38859 -0.780544,4.47897 -2.204516,6.27041 -0.551216,0.64309 -1.849213,1.10209 -3.893303,1.3777 -0.229673,0 -0.66588,0.0233 -1.308964,0.0692 -6.270071,-0.29857 -11.081552,-0.52859 -14.434778,-0.68936 -0.551214,0 -1.05684,-0.0228 -1.516186,-0.0687 1.492874,-1.60771 3.06648,-3.74367 4.720125,-6.40788 1.69958,-2.7331 2.824806,-4.444 3.376022,-5.13302 1.722547,-2.15893 3.720703,-3.43361 5.994466,-3.82405 h 0.03462 z" /><path
       d="m -17.061174,87.871283 q -0.723471,0 -0.930177,-0.826823 -0.03445,-0.137804 -0.03445,-0.310059 0,-0.551216 2.10151,-5.99447 1.584745,-4.20302 2.377117,-5.374353 0.930177,-1.481392 2.342667,-1.481392 1.3435881,0 1.9292547,1.205784 0.2411569,0.482314 0.2067059,1.102432 -0.034451,1.584745 -1.8603526,4.134117 l -3.927412,5.408803 -0.620117,0.930177 q -0.757922,1.136882 -1.584746,1.205784 z"
       style="font-style:italic;font-weight:bold;font-size:70.5556px;line-height:1.25;font-family:'Tengwar Annatar';-inkscape-font-specification:'Tengwar Annatar, Bold Italic';fill:none;fill-opacity:1;stroke:#000000;stroke-width:0.264583;stroke-opacity:1"
       id="path1234" /><path
       d="m -2.3506067,92.281008 q 6.304529,0 9.9907836,-2.687176 l 1.9981567,-1.515843 q 0.6545684,-0.413412 1.2746864,-0.413412 0.620117,0 0.620117,0.585667 0,1.378039 -2.9972346,3.720706 -6.2700781,4.926489 -14.2971559,5.098744 -0.3445098,0 -0.6545686,0 -4.3408229,0 -12.6090579,-1.550294 -8.061529,-1.515843 -11.678882,-1.688098 -0.861274,-0.03445 -1.653647,-0.03445 -6.270078,0 -9.956332,2.652726 l -2.067059,1.550294 q -0.72347,0.447862 -1.378039,0.447862 -0.654569,0 -0.654569,-0.585666 0,-1.136883 2.273765,-3.16949 3.927411,-3.514 9.715176,-4.92649 2.928333,-0.723471 5.925568,-0.723471 4.719784,0 12.298999,1.481392 7.4414114,1.446942 11.093215,1.688098 1.3780392,0.0689 2.7560783,0.0689 z"
       style="font-style:italic;font-weight:bold;font-size:70.5556px;line-height:1.25;font-family:'Tengwar Annatar';-inkscape-font-specification:'Tengwar Annatar, Bold Italic';fill:none;fill-opacity:1;stroke:#000000;stroke-width:0.264583;stroke-opacity:1"
       id="path1236" /><path
       id="path1238"
       style="font-style:italic;font-weight:bold;font-size:70.5556px;line-height:1.25;font-family:'Tengwar Annatar';-inkscape-font-specification:'Tengwar Annatar, Bold Italic';fill:none;fill-opacity:1;stroke:#000000;stroke-width:0.264583;stroke-opacity:1"
       d="m 77.575627,68.544137 c -0.826824,0 -1.676442,0.126664 -2.549199,0.379305 -2.20486,0.689019 -4.283575,2.009295 -6.235795,3.961515 -2.480467,2.480467 -3.720703,5.018701 -3.720703,7.614005 0.02297,0.551215 0.137977,1.136882 0.344682,1.756999 0.757921,2.227828 2.227657,3.341398 4.40955,3.341398 1.492874,-0.0689 3.134865,-0.861274 4.926314,-2.377116 1.378038,-1.240234 2.067057,-2.284902 2.067057,-3.134692 0,-0.34451 -0.206706,-0.516764 -0.620117,-0.516764 -0.321542,0 -0.677191,0.103352 -1.067635,0.310058 l -1.584916,0.964282 c -0.459346,0 -0.964454,-0.195049 -1.51567,-0.585494 -1.194299,-0.895724 -1.791622,-2.078713 -1.791622,-3.54862 0,-0.459346 0.03445,-0.861102 0.103353,-1.205611 0.321542,-1.492875 1.538982,-2.23914 3.651974,-2.23914 0.75792,0 1.595883,0.19505 2.514575,0.585494 2.480468,1.010561 3.720703,2.813667 3.720703,5.408972 0,1.286168 -0.332854,2.629756 -0.998906,4.030762 -1.607711,3.445094 -4.92666,6.970233 -9.956498,10.576098 l -6.441984,4.444174 c -1.556562,1.059198 -2.749491,1.875088 -3.737239,2.553848 -0.06368,-8.2e-4 -0.126091,-0.004 -0.19017,-0.004 -3.39916,0 -6.672002,0.81516 -9.818522,2.44584 -3.123552,1.60771 -5.834041,3.62867 -8.13077,6.0632 -3.536963,3.7896 -5.305102,7.71701 -5.305102,11.78222 0,1.97519 0.367305,3.55994 1.102258,4.75424 0.895725,1.44693 2.147615,2.17041 3.755326,2.17041 1.079463,0 2.124132,-0.36731 3.134693,-1.10226 1.561776,-1.12539 2.343009,-2.56068 2.343009,-4.3062 0,-0.41341 -0.04611,-0.79237 -0.137976,-1.13688 -0.114836,-0.39045 -0.482141,-1.02222 -1.102258,-1.89498 -0.84979,-1.24023 -1.274858,-2.80218 -1.274858,-4.6855 0,-1.65364 0.332854,-3.13504 0.998906,-4.44417 0.321542,-0.59715 1.010561,-1.10226 2.067057,-1.51567 1.653645,-0.62011 3.5829,-0.93018 5.78776,-0.93018 1.217267,0 2.308559,0.16061 3.273186,0.48215 1.010561,0.3445 2.055229,0.91903 3.134692,1.72289 2.985748,2.27376 4.478796,5.271 4.478796,8.9917 0,0.89572 -0.0917,1.84869 -0.275435,2.85925 -1.745515,9.60033 -11.357337,24.0125 -28.835449,43.23612 -6.316007,6.93613 -12.402691,13.11399 -18.259351,18.53427 -3.445094,3.21543 -5.25934,4.90353 -5.443078,5.06429 -1.2402343,1.26321 -1.8603519,2.2856 -1.8603519,3.06648 0,0.39045 0.2067059,0.5855 0.6201172,0.5855 0.5282478,0 1.1367097,-0.21836 1.8257287,-0.65474 0.987593,-0.57419 2.905709,-2.17007 5.753654,-4.78834 l 9.439217,-9.02632 c 12.65498,-12.54015 23.03638,-24.44853 31.143835,-35.72547 9.140984,-12.70092 13.711308,-22.35885 13.711308,-28.97343 0,-3.42213 -1.079119,-6.32766 -3.238045,-8.71626 -1.445182,-1.58687 -3.127487,-2.68231 -5.044654,-3.29024 l 6.5257,-4.495332 c 2.319697,-1.676612 4.627912,-3.617523 6.924642,-5.822384 6.109301,-5.85666 9.164299,-10.955405 9.164299,-15.296224 0,-1.607711 -0.390616,-3.008544 -1.171505,-4.202844 -1.378037,-2.044089 -3.5829,-3.066479 -6.614583,-3.066479 z" /><path
       d="m 78.126888,116.46559 q 0,-2.96278 2.687177,-4.20301 0.861274,-0.37897 1.41249,-0.37897 0.03445,0 0.172255,0 2.859431,0 4.168568,2.13597 0.689019,1.10243 0.689019,2.44601 0,2.37712 -1.929254,3.72071 -1.171334,0.82682 -2.652726,0.82682 -2.342666,0 -3.686254,-1.79145 -0.861275,-1.17133 -0.861275,-2.75608 z"
       style="font-style:italic;font-weight:bold;font-size:70.5556px;line-height:1.25;font-family:'Tengwar Annatar';-inkscape-font-specification:'Tengwar Annatar, Bold Italic';fill:none;fill-opacity:1;stroke:#000000;stroke-width:0.264583;stroke-opacity:1"
       id="path1242" /></g></svg>
