<?xml version="1.0" encoding="UTF-8" standalone="no"?>
<!-- Created with Inkscape (http://www.inkscape.org/) -->

<svg
   width="2962.6011mm"
   height="169.38449mm"
   viewBox="0 0 2962.6011 169.38449"
   version="1.1"
   id="svg5"
   xml:space="preserve"
   sodipodi:docname="H_N_elvish_line_3.svg"
   inkscape:version="1.2.2 (1:1.2.2+202212051552+b0a8486541)"
   xmlns:inkscape="http://www.inkscape.org/namespaces/inkscape"
   xmlns:sodipodi="http://sodipodi.sourceforge.net/DTD/sodipodi-0.dtd"
   xmlns="http://www.w3.org/2000/svg"
   xmlns:svg="http://www.w3.org/2000/svg"><sodipodi:namedview
     id="namedview300"
     pagecolor="#ffffff"
     bordercolor="#666666"
     borderopacity="1.0"
     inkscape:showpageshadow="2"
     inkscape:pageopacity="0.0"
     inkscape:pagecheckerboard="0"
     inkscape:deskcolor="#d1d1d1"
     inkscape:document-units="mm"
     showgrid="false"
     inkscape:zoom="0.04203927"
     inkscape:cx="6006.289"
     inkscape:cy="-3770.2844"
     inkscape:current-layer="layer1" /><defs
     id="defs2"><rect
       x="-3064.2461"
       y="-1725.2098"
       width="8522.3438"
       height="1127.9735"
       id="rect577" /><rect
       x="5102.8638"
       y="458.32104"
       width="1717.4696"
       height="2384.1938"
       id="rect567" /><rect
       x="4432.1147"
       y="396.8504"
       width="9956.3105"
       height="1159.8926"
       id="rect561" /><rect
       x="-5226.1406"
       y="1528.9053"
       width="13824.299"
       height="3037.7007"
       id="rect473" /><rect
       x="-4957.9775"
       y="1382.0387"
       width="15128.81"
       height="2287.4431"
       id="rect467" /><rect
       x="5102.8638"
       y="458.32104"
       width="819.79352"
       height="161.50455"
       id="rect461" /><rect
       x="58.470253"
       y="119.4372"
       width="11736.415"
       height="832.03381"
       id="rect236" /><rect
       x="88.622437"
       y="649.57916"
       width="639.67432"
       height="440.48877"
       id="rect400" /><rect
       x="80.690262"
       y="181.98399"
       width="557.172"
       height="544.86536"
       id="rect236-5" /><rect
       x="80.690262"
       y="181.98399"
       width="2677.3977"
       height="116.70974"
       id="rect236-0" /></defs><g
     id="layer1"
     style="fill:none;stroke:#000000;stroke-opacity:1"
     transform="translate(1173.024,-40.747901)"><text
       xml:space="preserve"
       transform="scale(0.26458333)"
       id="text459"
       style="font-style:italic;font-variant:normal;font-weight:bold;font-stretch:normal;font-size:113.067px;line-height:1.25;font-family:'Tengwar Annatar';-inkscape-font-specification:'Tengwar Annatar, Bold Italic';font-variant-ligatures:normal;font-variant-caps:normal;font-variant-numeric:normal;font-variant-east-asian:normal;white-space:pre;shape-inside:url(#rect461);display:inline;fill:none;stroke:#000000;stroke-opacity:1" /><text
       xml:space="preserve"
       transform="scale(0.26458333)"
       id="text559"
       style="font-style:italic;font-variant:normal;font-weight:bold;font-stretch:normal;font-size:113.067px;line-height:1.25;font-family:'Tengwar Annatar';-inkscape-font-specification:'Tengwar Annatar, Bold Italic';font-variant-ligatures:normal;font-variant-caps:normal;font-variant-numeric:normal;font-variant-east-asian:normal;white-space:pre;shape-inside:url(#rect561);display:inline;fill:none;stroke:#000000;stroke-opacity:1" /><text
       xml:space="preserve"
       transform="scale(0.26458333)"
       id="text565"
       style="font-style:italic;font-variant:normal;font-weight:bold;font-stretch:normal;font-size:113.067px;line-height:1.25;font-family:'Tengwar Annatar';-inkscape-font-specification:'Tengwar Annatar, Bold Italic';font-variant-ligatures:normal;font-variant-caps:normal;font-variant-numeric:normal;font-variant-east-asian:normal;white-space:pre;shape-inside:url(#rect567);display:inline;fill:none;stroke:#000000;stroke-opacity:1" /><path
       id="path1244"
       style="font-style:italic;font-weight:bold;font-size:70.5556px;line-height:1.25;font-family:'Tengwar Annatar';-inkscape-font-specification:'Tengwar Annatar, Bold Italic';fill:none;fill-opacity:1;stroke:#000000;stroke-width:0.264583;stroke-opacity:1"
       d="m 201.90912,68.51003 c -0.34451,0 -0.62012,0.01114 -0.82682,0.03411 -0.20671,0 -0.45951,0.03445 -0.75809,0.103352 -5.55808,0.826824 -12.37938,5.60437 -20.46387,14.331942 l -12.7124,14.296802 c -4.01928,4.547524 -6.08634,6.913494 -6.20117,7.097234 -0.0599,0.0862 -0.11314,0.16885 -0.1633,0.25012 -1.78234,1.19069 -3.20981,2.30196 -4.28088,3.33261 -0.59715,0.55122 -0.91835,0.82682 -0.96428,0.82682 v -0.0346 c 0.16077,-1.10243 0.24081,-1.92926 0.24081,-2.48047 0,-0.45934 -0.0344,-0.90721 -0.10335,-1.34359 -0.34451,-1.90628 -1.20578,-3.261 -2.58382,-4.06486 -0.22968,-0.11484 -0.42472,-0.21819 -0.5855,-0.31006 -0.45934,-0.18374 -1.27451,-0.27595 -2.44584,-0.27595 -1.14837,0 -1.82625,0.0116 -2.03295,0.0346 -1.17134,0.0459 -2.31936,0.21819 -3.44475,0.51676 -3.19246,0.87276 -5.90295,2.54921 -8.13077,5.02967 -1.24024,1.37804 -1.86036,2.41157 -1.86036,3.10059 0,0.43638 0.21837,0.63194 0.65475,0.58601 v -5.2e-4 c 0.41341,-0.0459 0.75792,-0.11483 1.03352,-0.20671 0.20671,-0.0919 0.64292,-0.36747 1.30897,-0.82682 1.01056,-0.71198 2.92867,-1.06763 5.75365,-1.06763 h 0.41341 c 1.03354,0 1.89481,0.28675 2.58382,0.86093 1.07946,0.89572 1.61903,2.22817 1.61903,3.99665 0,0.59715 -0.0917,1.33176 -0.27544,2.20452 -0.64308,3.19245 -1.89497,6.6031 -3.75532,10.23193 -0.71199,1.40101 -1.74552,2.94016 -3.10059,4.61677 -0.73495,0.89573 -1.10226,1.60754 -1.10226,2.13579 0,0.36748 0.19505,0.55139 0.5855,0.55139 0.80385,0 1.80293,-0.43621 2.99723,-1.30897 2.64124,-1.99815 5.23672,-5.28265 7.78609,-9.85314 2.22783,-3.99631 4.05373,-6.8674 5.4777,-8.61291 2.29673,-2.82498 4.68499,-4.23747 7.16545,-4.23747 1.28617,0 2.66473,0.43621 4.13463,1.30896 3.00872,1.74552 4.51291,4.52491 4.51291,8.33748 0,2.20486 -0.59733,4.22581 -1.79163,6.0632 -0.023,0.0459 -0.0574,0.092 -0.10335,0.13797 -0.57418,0.66605 -1.74551,0.99891 -3.514,0.99891 -0.68901,0 -1.28634,-0.0572 -1.79162,-0.17208 -0.68902,-0.16078 -1.44642,-0.57419 -2.27324,-1.24024 -0.82683,-0.64308 -1.72307,-0.9648 -2.68769,-0.9648 -1.44694,0 -2.69832,0.52843 -3.75481,1.58492 -1.14837,1.14836 -1.7229,2.4575 -1.7229,3.92741 v 0.34416 c 0.18374,2.45751 2.0446,3.6866 5.58157,3.6866 0.52825,0 1.06781,-0.0344 1.61903,-0.10335 4.38675,-0.62012 8.69312,-3.33061 12.91911,-8.13077 1.28616,-1.44694 2.7331,-3.59404 4.34082,-6.44199 1.63067,-2.91684 2.79035,-4.8233 3.47937,-5.71903 1.86035,-2.3886 4.05407,-3.58273 6.58048,-3.58273 1.14836,0 2.26194,0.26396 3.34139,0.7922 0.50528,0.25264 1.01091,0.57436 1.51619,0.9648 2.45751,1.97519 3.68608,4.59346 3.68608,7.85482 0,1.14837 -0.21836,2.40025 -0.65474,3.75533 -0.52825,1.56177 -0.9989,2.46864 -1.41232,2.72128 l -0.13797,0.0687 c -0.94166,0.45934 -2.04409,0.68936 -3.30729,0.68936 -0.64308,0 -1.21709,-0.0689 -1.72238,-0.2067 -0.62011,-0.16078 -1.34358,-0.57419 -2.17041,-1.24024 -0.80385,-0.64308 -1.68792,-0.9648 -2.65255,-0.9648 -1.07947,0 -2.12465,0.35617 -3.13521,1.06815 -1.58474,1.07946 -2.37712,2.49195 -2.37712,4.23747 0,0.57418 0.0806,1.09095 0.24133,1.55029 0.55122,1.79146 2.35381,2.68718 5.40846,2.68718 1.79145,0 3.75515,-0.50562 5.89111,-1.51619 3.44509,-1.63068 6.48843,-4.05339 9.12968,-7.2688 3.16948,-3.85851 4.75423,-7.70588 4.75423,-11.54142 0,-3.12355 -0.93018,-5.70737 -2.79053,-7.75146 -1.90628,-2.06706 -4.29506,-3.10059 -7.16597,-3.10059 -1.81442,0 -3.84703,0.57453 -6.09782,1.72289 -2.71014,1.37804 -5.89077,3.7663 -9.54257,7.16546 -0.32154,-1.60771 -0.87276,-3.043 -1.65364,-4.3062 -1.86036,-3.05465 -4.59364,-4.58215 -8.1995,-4.58215 -1.08338,0 -2.24603,0.20855 -3.48713,0.62477 2.37426,-2.661093 6.15982,-6.921425 11.75536,-13.2333 3.5829,-4.065211 4.61643,-5.236544 3.10058,-3.513997 6.82129,-7.625143 12.27568,-11.438062 16.36386,-11.438062 0.68902,0 1.33245,0.09221 1.9296,0.275952 0.41341,0.137804 0.86127,0.355649 1.34359,0.654224 1.90628,1.240234 2.85925,2.986095 2.85925,5.23689 0,0.826823 -0.14946,1.630334 -0.44803,2.411222 -0.34451,1.263201 -1.32028,1.894975 -2.92799,1.894975 -1.28617,0 -2.2969,-0.447863 -3.03185,-1.343587 -0.59716,-0.711987 -0.89556,-1.423801 -0.89556,-2.135787 0,-0.459347 0.20671,-0.953316 0.62012,-1.481564 0.48231,-0.620117 0.72347,-1.136882 0.72347,-1.550293 0,-0.344509 -0.2067,-0.516764 -0.62012,-0.516764 -0.98759,0.09187 -2.17058,0.826995 -3.54862,2.205033 -1.56177,1.69958 -2.34249,3.353227 -2.34249,4.960938 0,0.895724 0.24116,1.710892 0.72347,2.445845 0.94166,1.44694 2.42305,2.170411 4.44417,2.170411 0.9187,0 1.83721,-0.14946 2.75591,-0.448035 2.5953,-0.826823 4.88072,-2.526059 6.85591,-5.098397 1.88332,-2.4575 2.82463,-4.834618 2.82463,-7.131348 0,-1.69958 -0.47065,-3.192628 -1.41231,-4.478796 -1.37804,-1.906286 -3.34175,-2.859257 -5.89112,-2.859257 z" /><path
       d="m 162.35947,158.80585 q -1.6881,0 -1.99816,-1.6192 -0.0689,-0.31006 -0.0689,-0.65457 0,-1.10243 0.65457,-2.20486 0.82682,-1.41249 3.20394,-4.37527 l 2.44602,-3.16949 q 0.96462,-1.27469 1.20578,-1.44695 0.37896,-0.2756 0.75792,-0.2756 0.75792,0 0.96463,0.82682 0.0344,0.1378 0.0344,0.34451 0,0.58567 -2.51492,6.44233 -1.48139,3.3762 -2.13596,4.44418 -1.10243,1.6881 -2.54937,1.6881 z"
       style="font-style:italic;font-weight:bold;font-size:70.5556px;line-height:1.25;font-family:'Tengwar Annatar';-inkscape-font-specification:'Tengwar Annatar, Bold Italic';fill:none;fill-opacity:1;stroke:#000000;stroke-width:0.264583;stroke-opacity:1"
       id="path1248" /><path
       id="path1250"
       style="font-style:italic;font-weight:bold;font-size:70.5556px;line-height:1.25;font-family:'Tengwar Annatar';-inkscape-font-specification:'Tengwar Annatar, Bold Italic';fill:none;fill-opacity:1;stroke:#000000;stroke-width:0.264583;stroke-opacity:1"
       d="m 287.692,100.06676 c -2.02112,0 -4.22599,0.13781 -6.61458,0.41341 -2.04409,0.25264 -4.03059,0.68936 -5.95985,1.30948 -3.79583,1.23216 -6.98872,2.93801 -9.58081,5.11597 0.0227,-0.29134 0.0377,-0.57571 0.0377,-0.84439 0,-1.03353 -0.12615,-1.90595 -0.37879,-2.61793 -0.71199,-2.11299 -2.77905,-3.16983 -6.20117,-3.16983 -3.62884,0 -7.62515,1.52749 -11.98894,4.58215 l -0.41341,0.27543 c -0.023,0 -0.10353,-0.11449 -0.24133,-0.34416 -0.55121,-0.94166 -1.12522,-1.69959 -1.72237,-2.27377 -1.10243,-1.10243 -2.51492,-1.65364 -4.23747,-1.65364 -0.80385,0 -1.55012,0.0456 -2.23914,0.13746 -0.75792,0.0919 -1.5275,0.25298 -2.30838,0.48265 -3.03169,0.94166 -5.67276,2.69866 -7.92355,5.271 -1.14837,1.33211 -1.72289,2.27342 -1.72289,2.82463 0.023,0.27561 0.24132,0.45952 0.65474,0.55139 0.22967,0 0.43638,-0.0228 0.62011,-0.0687 0.36748,-0.0689 0.88424,-0.34451 1.5503,-0.82682 1.10242,-0.80385 2.68717,-1.20613 4.75423,-1.20613 2.54937,0 4.57032,1.98702 6.06319,5.96036 0.41342,1.07947 1.07964,3.42213 1.99833,7.028 l 0.89555,3.58272 c 1.17134,4.20301 2.79054,7.33806 4.85759,9.40511 l 0.48266,0.51677 -4.20336,6.75256 c -10.45013,16.19194 -24.42557,32.24609 -41.92664,48.16243 -2.59531,2.36563 -3.89331,4.04208 -3.89331,5.02967 0,0.36747 0.21836,0.55139 0.65474,0.55139 0.84979,0 2.17058,-0.73513 3.96204,-2.20504 0.78088,-0.64308 2.87073,-2.56068 6.2699,-5.75313 18.41977,-17.31735 33.09588,-34.88734 44.02832,-52.70997 l 3.65197,-6.13244 c 1.30914,-2.3197 2.45768,-4.444 3.44527,-6.37325 2.07633,-4.00992 3.56531,-7.4324 4.46846,-10.26914 l 2.21485,-1.68569 c 2.91685,-2.06706 7.57886,-3.19228 13.98675,-3.37602 0.55121,0 0.82682,0.0116 0.82682,0.0346 l -0.0341,0.0341 -0.93017,0.86145 c -5.69589,5.14467 -8.54367,10.14007 -8.54367,14.98616 0,2.64125 0.81517,4.85776 2.44585,6.64921 1.83738,1.97519 4.20284,2.96261 7.09672,2.96261 4.34082,0 9.45122,-2.51492 15.33085,-7.54476 l 0.0687,0.13798 c 0.2067,1.37803 0.85014,2.70997 1.9296,3.99613 1.90628,2.27377 4.38675,3.41065 7.4414,3.41065 0.73496,0 1.46957,-0.0689 2.20452,-0.20671 2.6642,-0.52824 5.73034,-2.14744 9.1984,-4.85758 1.30914,-1.03353 1.98702,-1.55029 2.03295,-1.55029 l -0.93017,2.61844 c -1.17133,3.23839 -2.59548,6.54568 -4.27209,9.92188 -6.31601,12.74684 -15.59498,25.70041 -27.83655,38.86067 l -6.75204,6.95875 -11.47217,10.9554 c -4.06521,3.74367 -6.29338,5.81074 -6.68383,6.20118 -1.35507,1.35507 -2.03243,2.43471 -2.03243,3.23856 0,0.39044 0.2067,0.58549 0.62012,0.58549 1.01056,0 2.44584,-0.83796 4.30619,-2.51457 3.16949,-2.75608 7.03966,-6.32785 11.61015,-10.71459 l 9.12967,-8.95708 c 13.16026,-13.38993 23.43779,-26.28625 30.83326,-38.6886 2.27376,-3.81256 4.24912,-7.44106 5.92574,-10.88615 2.18189,-4.45566 4.24895,-9.61217 6.20117,-15.46883 1.44694,-4.36378 2.66438,-7.52162 3.65198,-9.47384 3.05465,-0.57418 5.62682,-1.96388 7.71684,-4.16873 1.17133,-1.21727 1.757,-2.15858 1.757,-2.82464 0,-0.43638 -0.2295,-0.65474 -0.68885,-0.65474 -0.39044,0 -0.86162,0.1606 -1.41283,0.48214 -1.24024,0.68902 -3.06614,1.03353 -5.47771,1.03353 -10.67979,0.0459 -20.80838,-0.30971 -30.38574,-1.06763 -6.84426,-0.52825 -12.1497,-0.79272 -15.91634,-0.79272 z m 0.37931,6.51123 c 0.29857,0 0.68867,0.0116 1.17098,0.0346 l 15.39958,1.13689 -2.41122,2.51509 c -1.88332,2.09002 -3.39916,4.47828 -4.54753,7.16545 -0.80386,1.92925 -1.42398,3.1928 -1.86035,3.78995 -0.66605,0.89573 -1.57343,1.66478 -2.7218,2.30787 -1.67661,0.89572 -3.2958,1.34359 -4.85758,1.34359 -1.97519,0 -3.72053,-0.59681 -5.23638,-1.79111 -2.09002,-1.65364 -3.1352,-3.92741 -3.1352,-6.82129 0,-0.34451 0.0228,-0.68902 0.0687,-1.03353 0.29858,-2.61827 1.56212,-4.84644 3.78995,-6.68382 1.58474,-1.30914 3.03168,-1.96371 4.34082,-1.96371 z m -35.55339,0.86145 c 3.46806,0 5.20175,1.53864 5.20175,4.61625 0,1.92925 -0.66571,4.52473 -1.99781,7.78609 l -0.41341,0.9648 c -1.21727,2.7331 -1.8835,4.09949 -1.99833,4.09949 0,-0.0459 -0.10335,-0.22985 -0.31006,-0.55139 -0.91869,-1.51584 -1.75717,-3.60569 -2.51509,-6.2699 l -1.79111,-7.13135 -0.75809,-2.48046 c 0,-0.0689 0.12615,-0.14946 0.37879,-0.24133 1.3321,-0.52825 2.73345,-0.7922 4.20336,-0.7922 z m 59.73796,0.65474 14.53813,0.27543 h 0.27543 c -0.43638,0.66605 -1.4927,2.60696 -3.16931,5.82239 -2.34267,4.52455 -4.07687,7.25732 -5.20227,8.19898 l -0.68885,0.55139 c -1.69958,1.28616 -3.39933,1.92908 -5.09891,1.92908 -1.14837,0 -2.39974,-0.33286 -3.75481,-0.99891 -3.05465,-1.49288 -4.58215,-4.03059 -4.58215,-7.61349 0,-0.45934 0.0689,-1.03387 0.20671,-1.72289 0.50528,-2.57234 1.3549,-4.27158 2.54919,-5.0984 1.33211,-0.89572 2.97462,-1.34358 4.92684,-1.34358 z" /><path
       d="m 309.01732,87.871283 q -0.72347,0 -0.93018,-0.826823 -0.0344,-0.137804 -0.0344,-0.310059 0,-0.551216 2.10151,-5.99447 1.58474,-4.20302 2.37712,-5.374353 0.93017,-1.481392 2.34266,-1.481392 1.34359,0 1.92926,1.205784 0.24115,0.482314 0.2067,1.102432 -0.0344,1.584745 -1.86035,4.134117 l -3.92741,5.408803 -0.62012,0.930177 q -0.75792,1.136882 -1.58474,1.205784 z"
       style="font-style:italic;font-weight:bold;font-size:70.5556px;line-height:1.25;font-family:'Tengwar Annatar';-inkscape-font-specification:'Tengwar Annatar, Bold Italic';fill:none;fill-opacity:1;stroke:#000000;stroke-width:0.264583;stroke-opacity:1"
       id="path1254" /><path
       d="m 323.72788,92.281008 q 6.30453,0 9.99079,-2.687176 l 1.99815,-1.515843 q 0.65457,-0.413412 1.27469,-0.413412 0.62012,0 0.62012,0.585667 0,1.378039 -2.99724,3.720706 -6.27007,4.926489 -14.29715,5.098744 -0.34451,0 -0.65457,0 -4.34082,0 -12.60906,-1.550294 -8.06153,-1.515843 -11.67888,-1.688098 -0.86127,-0.03445 -1.65365,-0.03445 -6.27008,0 -9.95633,2.652726 l -2.06706,1.550294 q -0.72347,0.447862 -1.37804,0.447862 -0.65457,0 -0.65457,-0.585666 0,-1.136883 2.27377,-3.16949 3.92741,-3.514 9.71517,-4.92649 2.92834,-0.723471 5.92557,-0.723471 4.71979,0 12.299,1.481392 7.44141,1.446942 11.09322,1.688098 1.37804,0.0689 2.75607,0.0689 z"
       style="font-style:italic;font-weight:bold;font-size:70.5556px;line-height:1.25;font-family:'Tengwar Annatar';-inkscape-font-specification:'Tengwar Annatar, Bold Italic';fill:none;fill-opacity:1;stroke:#000000;stroke-width:0.264583;stroke-opacity:1"
       id="path1256" /><path
       id="path1258"
       style="font-style:italic;font-weight:bold;font-size:70.5556px;line-height:1.25;font-family:'Tengwar Annatar';-inkscape-font-specification:'Tengwar Annatar, Bold Italic';fill:none;fill-opacity:1;stroke:#000000;stroke-width:0.264583;stroke-opacity:1"
       d="m 430.90496,71.162581 c -1.97519,0 -4.22616,0.792373 -6.75256,2.377116 -5.1217,3.215422 -9.84148,8.830931 -14.15934,16.846517 l -1.20561,2.308386 c -3.05243,5.891513 -4.99391,9.74618 -5.86527,11.63908 -0.53721,0.46816 -1.05158,0.97477 -1.54203,1.52084 -0.18212,0.20236 -0.34898,0.39644 -0.50436,0.58394 -0.35477,-0.66807 -0.7822,-1.29972 -1.28674,-1.8929 -2.11299,-2.50344 -5.01853,-3.73202 -8.71627,-3.68608 -3.60587,0.0459 -7.92338,1.97518 -12.95321,5.78776 l -3.92793,3.16931 c 0.39045,-1.3321 0.58601,-2.51509 0.58601,-3.54862 0,-0.11484 -0.0116,-0.24098 -0.0346,-0.37879 -0.0919,-2.25079 -0.90704,-3.88164 -2.44585,-4.8922 -0.45934,-0.29858 -0.91886,-0.50529 -1.37821,-0.62012 -0.29858,-0.0689 -0.93035,-0.10335 -1.89497,-0.10335 h -1.72238 c -1.1943,0.0459 -2.37728,0.21819 -3.54862,0.51676 -3.26135,0.84979 -6.01744,2.50344 -8.26823,4.96094 -1.28617,1.401 -1.92908,2.46898 -1.92908,3.20394 0,0.43638 0.21836,0.63194 0.65474,0.58601 0.41342,-0.0459 0.78072,-0.12649 1.10226,-0.24133 0.22967,-0.0689 0.66588,-0.33286 1.30897,-0.7922 1.03352,-0.71199 2.92833,-1.06815 5.6844,-1.06815 h 0.41341 c 1.07947,0 1.96405,0.2984 2.65307,0.89555 1.03353,0.89573 1.5503,2.19372 1.5503,3.8933 0,1.40101 -0.55122,3.60587 -1.65365,6.61459 -1.46991,4.06521 -3.20412,7.99262 -5.20227,11.78222 l -3.03185,5.68441 c -15.25029,28.2268 -32.34912,51.0217 -51.29713,68.38497 l -1.55029,1.48157 c -1.35508,1.42397 -2.03295,2.52639 -2.03295,3.30729 0,0.3445 0.2067,0.51676 0.62011,0.51676 0.71199,0 1.74549,-0.50563 3.10059,-1.51618 1.28616,-0.96463 3.70939,-3.16949 7.26932,-6.61459 l 2.27377,-2.23914 c 17.89152,-17.86856 34.15238,-40.28449 48.78255,-67.24809 2.41156,-4.45566 4.13412,-7.7974 5.16764,-10.02523 l 1.757,-3.58324 c 1.67661,-2.98575 3.46806,-5.3051 5.37435,-6.95875 0.52825,-0.45935 1.06833,-0.88442 1.61954,-1.27486 2.3886,-1.67661 4.65071,-2.51509 6.78666,-2.51509 1.40101,0 2.90519,0.41342 4.51291,1.24024 3.39916,1.69957 5.09891,4.53621 5.09891,8.50955 0,0.87276 -0.1378,1.80294 -0.41341,2.79053 -0.43637,1.67661 -0.94148,2.75625 -1.51567,3.23856 -1.42397,0.71199 -2.92868,1.06764 -4.51342,1.06764 -0.68902,0 -1.28583,-0.0572 -1.79111,-0.17208 -0.68902,-0.18374 -1.44694,-0.59715 -2.27376,-1.24024 -0.82682,-0.64308 -1.72255,-0.9648 -2.68717,-0.9648 -0.9876,0 -1.97554,0.32172 -2.96313,0.9648 -1.67661,1.10243 -2.51458,2.59548 -2.51458,4.4788 0,2.73311 1.84871,4.09949 5.54644,4.09949 0.9876,0 1.94057,-0.0917 2.85925,-0.27544 1.46992,-0.2756 2.98576,-0.81568 4.54753,-1.61954 3.46806,-1.76847 6.5114,-4.31785 9.12967,-7.64811 2.93982,-3.74367 4.40955,-7.30325 4.40955,-10.67945 0,-1 -0.10722,-1.94646 -0.31677,-2.84169 0.19628,-0.12678 0.42152,-0.2766 0.69556,-0.4656 1.01056,-0.71199 2.92868,-1.06815 5.75366,-1.06815 h 0.41341 c 1.03353,0 1.8948,0.28726 2.58382,0.86144 1.07946,0.89573 1.61902,2.22766 1.61902,3.99614 0,0.59715 -0.0917,1.33228 -0.27543,2.20503 -0.64308,3.19246 -1.89498,6.60311 -3.75533,10.23194 -0.71199,1.401 -1.74551,2.93964 -3.10059,4.61625 -0.73495,0.89573 -1.10225,1.60754 -1.10225,2.13579 0,0.36748 0.19504,0.55139 0.58549,0.55139 0.78089,0 1.86052,-0.51676 3.23856,-1.55029 0.64308,-0.48232 1.286,-1.04519 1.92908,-1.68827 3.10059,-3.10059 5.74165,-7.47586 7.92355,-13.12582 1.58474,-4.04224 2.37712,-7.17728 2.37712,-9.40511 0,-1.44694 -0.36731,-2.74442 -1.10226,-3.89278 -0.41341,-0.62012 -0.87293,-1.09077 -1.37821,-1.41232 -0.68902,-0.45934 -1.76814,-0.68936 -3.23805,-0.68936 -1.14836,0 -1.82624,0.0116 -2.03295,0.0346 -1.17133,0.0459 -2.31936,0.21819 -3.44475,0.51676 -0.47315,0.12935 -0.93555,0.27717 -1.38751,0.44184 0.55355,-1.11956 1.33301,-2.726034 2.38642,-4.920633 3.90444,-8.061521 7.49899,-13.849285 10.78332,-17.363281 0.32154,-0.34451 0.61994,-0.642912 0.89555,-0.895553 1.53881,-1.423972 3.14635,-2.135787 4.82296,-2.135787 1.56177,0 2.88257,0.505109 3.96203,1.51567 1.42398,1.286169 2.13579,2.951472 2.13579,4.995561 0,0.620117 -0.08,1.240235 -0.24081,1.860351 -0.11483,0.459347 -0.20705,0.769405 -0.27595,0.930176 -0.34452,0.826823 -1.05633,1.240235 -2.13579,1.240235 -1.24024,0 -2.21652,-0.390617 -2.9285,-1.171505 -0.64308,-0.711987 -0.96429,-1.447113 -0.96429,-2.205034 0,-0.275607 0.1145,-0.57401 0.34417,-0.895552 0.41341,-0.551216 0.62012,-0.999078 0.62012,-1.343587 0,-0.367477 -0.19506,-0.551388 -0.5855,-0.551388 -0.62012,0 -1.48139,0.425068 -2.58382,1.274858 -1.95222,1.515842 -2.9285,3.23839 -2.9285,5.167643 0,1.033528 0.32171,1.94091 0.9648,2.721798 0.96462,1.171332 2.30821,1.756998 4.03076,1.756998 0.71198,0 1.50435,-0.126664 2.37711,-0.379305 2.98575,-0.941659 5.46623,-2.905365 7.44141,-5.891113 1.33211,-1.998155 1.99833,-4.041902 1.99833,-6.131925 0,-1.837384 -0.49397,-3.433785 -1.48157,-4.788855 -1.37803,-1.929253 -3.33008,-2.893881 -5.85649,-2.893881 z" /><path
       id="path1264"
       style="font-style:italic;font-weight:bold;font-size:70.5556px;line-height:1.25;font-family:'Tengwar Annatar';-inkscape-font-specification:'Tengwar Annatar, Bold Italic';fill:none;fill-opacity:1;stroke:#000000;stroke-width:0.264583;stroke-opacity:1"
       d="m 510.07326,44.497542 c -1.05649,0 -2.82515,1.136882 -5.30562,3.410645 l -10.7487,10.231933 c -11.66739,11.644419 -21.3709,22.783741 -29.11088,33.417599 -9.00318,12.379371 -13.50512,21.681131 -13.50512,27.905271 0,3.35323 1.05684,6.23545 3.16983,8.64702 2.3197,2.61827 5.30528,3.92741 8.95708,3.92741 2.5953,0 5.21357,-0.51676 7.85481,-1.55029 4.40972,-1.74552 8.19933,-4.5705 11.36882,-8.47494 0.96462,-1.17133 1.74586,-2.33101 2.34301,-3.47937 1.1254,-2.11299 1.68775,-4.45566 1.68775,-7.028 0,-1.13908 -0.14922,-2.16802 -0.44752,-3.08663 1.04184,-0.65193 2.91196,-0.97875 5.61516,-0.97875 h 0.41342 c 1.03353,0 1.8948,0.28726 2.58382,0.86144 1.07946,0.89573 1.61954,2.22766 1.61954,3.99614 0,0.59715 -0.0922,1.33228 -0.27596,2.20503 -0.64308,3.19246 -1.89445,6.60311 -3.75481,10.23194 -0.71198,1.401 -1.74551,2.93964 -3.10058,4.61625 -0.73495,0.89573 -1.10278,1.60754 -1.10278,2.13579 0,0.36748 0.19557,0.55139 0.58601,0.55139 0.7809,0 1.86001,-0.51676 3.23805,-1.55029 0.64308,-0.48232 1.28651,-1.04519 1.9296,-1.68827 3.10058,-3.10059 5.74165,-7.47586 7.92355,-13.12582 0.8735,-2.22806 1.50501,-4.17864 1.89704,-5.85545 0.17454,-0.0778 0.34643,-0.15824 0.51469,-0.24237 l 1.86036,-1.24023 c 1.24023,-0.80385 3.21507,-1.20561 5.92522,-1.20561 1.90628,0 5.23689,0.39062 9.99112,1.1715 l 3.89278,0.68885 c -4.18005,2.57234 -7.7285,5.52347 -10.64534,8.85372 -4.7083,5.37435 -7.06262,10.8176 -7.06262,16.32976 0,1.33209 0.11501,2.61844 0.34468,3.85867 0.91869,4.82313 3.37637,8.71609 7.37268,11.67888 4.04224,3.00872 8.87652,4.5129 14.50351,4.5129 h 0.13797 c 7.44141,0 14.3316,-2.76721 20.67057,-8.30233 2.59531,-2.2508 4.73127,-4.52456 6.40788,-6.82129 2.68718,-3.69774 4.03076,-7.06279 4.03076,-10.09448 0,-1.17133 -0.21836,-2.20486 -0.65474,-3.10058 -0.78089,-1.67662 -2.03226,-2.51458 -3.75481,-2.51458 -1.4699,0 -2.74459,0.51676 -3.82405,1.55029 -1.17133,1.1254 -1.757,2.41122 -1.757,3.85817 0,0.22966 0.0112,0.45969 0.0341,0.68936 0.0919,0.57419 0.43638,1.29765 1.03352,2.17041 0.71199,1.03353 1.06816,2.18155 1.06816,3.44475 0,0.66605 -0.0917,1.35507 -0.27544,2.06706 -0.52825,1.90628 -1.50453,3.65214 -2.9285,5.23689 -1.21727,1.3321 -3.00872,2.41122 -5.37435,3.23804 -2.71015,0.96463 -5.40898,1.44694 -8.09615,1.44694 -1.401,0 -2.76738,-0.11449 -4.09949,-0.34416 -4.93797,-0.80385 -8.99153,-2.87092 -12.16101,-6.20117 -3.23839,-3.42213 -4.85759,-7.48735 -4.85759,-12.19564 0,-0.62011 0.0228,-1.21744 0.0687,-1.79162 0.36748,-3.60587 1.66496,-6.66035 3.89279,-9.16378 1.01056,-1.14837 2.3658,-2.20521 4.06538,-3.16984 2.96278,-1.72254 6.32732,-2.95112 10.09396,-3.68608 l 0.72347,-0.13797 0.75809,0.0692 c 2.3886,0.27562 4.59346,0.41341 6.61459,0.41341 1.19429,0 2.34284,-0.0461 3.44526,-0.13797 5.37435,-0.48231 10.27753,-2.29656 14.71022,-5.44308 1.3321,-0.94166 2.49229,-1.87184 3.47989,-2.79053 1.88332,-1.76848 2.82463,-3.123723 2.82463,-4.065382 0,-0.367477 -0.2067,-0.551388 -0.62012,-0.551388 -0.55121,0 -1.13688,0.183911 -1.757,0.551388 l -2.7559,2.067052 c -3.07762,2.13596 -7.32674,3.20394 -12.74702,3.20394 -2.52641,0 -7.86631,-0.64291 -16.0197,-1.92908 -7.73998,-1.21727 -12.41365,-1.826243 -14.02137,-1.826243 -1.79145,0 -3.34174,0.137803 -4.65087,0.413413 -0.55122,0.11483 -1.10244,0.26429 -1.65365,0.44803 -2.96278,0.96463 -5.66162,2.64107 -8.09615,5.02967 -0.0625,0.0608 -0.11556,0.11754 -0.1757,0.17725 -0.0381,-1.35215 -0.40398,-2.57121 -1.09864,-3.65662 -0.41341,-0.62012 -0.87293,-1.09077 -1.37821,-1.41232 -0.68902,-0.45934 -1.76865,-0.68936 -3.23856,-0.68936 -1.14837,0 -1.82573,0.0116 -2.03243,0.0346 -1.17134,0.0459 -2.31988,0.21819 -3.44527,0.51676 -3.19246,0.87276 -5.90242,2.54921 -8.13025,5.02967 -0.0445,0.0494 -0.0863,0.0977 -0.1292,0.14624 -0.78077,-0.78459 -1.75873,-1.17977 -2.93677,-1.17977 -1.03353,0 -2.04426,0.33337 -3.03185,0.99942 -1.65365,1.10244 -2.48047,2.59497 -2.48047,4.47828 0,0.45935 0.0572,0.86163 0.17208,1.20613 0.0919,0.34451 0.43638,0.94132 1.03353,1.79111 0.84979,1.1943 1.27486,2.74459 1.27486,4.65088 0,0.71198 -0.0689,1.43545 -0.20671,2.17041 -0.34451,1.72254 -0.81516,2.74493 -1.41232,3.06648 -0.2756,0.16076 -0.56287,0.30971 -0.86144,0.44751 -1.90629,0.82682 -4.03059,1.24024 -6.37326,1.24024 -1.2632,0 -2.46898,-0.20671 -3.61735,-0.62012 -0.94166,-0.32155 -1.92959,-0.89556 -2.96312,-1.72237 -2.87091,-2.34267 -4.3062,-5.3627 -4.3062,-9.06043 0,-1.63068 0.37896,-3.5488 1.13688,-5.75366 2.4575,-7.05096 8.33697,-16.226057 17.63872,-27.525966 8.5668,-10.427152 18.21308,-20.486838 28.9388,-30.179037 2.5264,-2.296729 3.78995,-3.939237 3.78995,-4.926831 -0.023,-0.390443 -0.24133,-0.585494 -0.65474,-0.585494 z" /><path
       d="m 493.1922,93.796851 q -0.96463,0 -1.03353,-1.033529 0,-0.930176 4.78868,-7.303607 l 8.47494,-10.955411 2.75608,-3.307294 q 1.10243,-0.964628 2.06706,-0.964628 1.44694,0 1.99816,1.274687 0.17225,0.413411 0.17225,0.895725 0,1.343588 -2.17041,3.755157 -6.13227,7.131352 -12.09229,13.298077 -4.23747,4.340823 -4.96094,4.340823 z"
       style="font-style:italic;font-weight:bold;font-size:70.5556px;line-height:1.25;font-family:'Tengwar Annatar';-inkscape-font-specification:'Tengwar Annatar, Bold Italic';fill:none;fill-opacity:1;stroke:#000000;stroke-width:0.264583;stroke-opacity:1"
       id="path1268" /><path
       style="font-style:italic;font-weight:bold;font-size:70.5556px;line-height:1.25;font-family:'Tengwar Annatar';-inkscape-font-specification:'Tengwar Annatar, Bold Italic';fill:none;fill-opacity:1;stroke:#000000;stroke-width:0.264583;stroke-opacity:1"
       d="m 544.1108,89.731636 q 0,-0.930176 2.20486,-4.513078 3.27284,-5.305451 5.85666,-6.855745 0.82683,-0.482314 1.4814,-0.482314 1.48139,0 2.06706,1.274687 0.2067,0.447862 0.2067,0.930176 0,1.41249 -1.72255,3.031686 l -0.58566,0.551216 -3.27285,2.790529 q -1.58474,1.378039 -3.92741,3.755157 -0.65457,0.654568 -1.24023,0.654568 -0.86128,0 -1.03353,-0.861274 -0.0344,-0.137804 -0.0344,-0.275608 z"
       id="path1497" /><path
       style="font-style:italic;font-weight:bold;font-size:70.5556px;line-height:1.25;font-family:'Tengwar Annatar';-inkscape-font-specification:'Tengwar Annatar, Bold Italic';fill:none;fill-opacity:1;stroke:#000000;stroke-width:0.264583;stroke-opacity:1"
       d="m 535.36025,77.088127 q 0,-1.619196 1.24023,-2.170412 0.48232,-0.206705 1.06798,-0.206705 2.68718,0.0689 3.72071,5.167646 0.34451,1.860353 0.34451,3.341745 0,7.372509 -1.86035,7.372509 -0.82683,0 -1.13689,-1.171333 l -0.82682,-4.685333 q -0.62012,-2.721627 -1.86035,-5.305451 -0.68902,-1.41249 -0.68902,-2.342666 z"
       id="path1495" /><path
       style="font-style:italic;font-weight:bold;font-size:70.5556px;line-height:1.25;font-family:'Tengwar Annatar';-inkscape-font-specification:'Tengwar Annatar, Bold Italic';fill:none;fill-opacity:1;stroke:#000000;stroke-width:0.264583;stroke-opacity:1"
       d="m 543.66293,86.734401 q -0.96462,-0.137804 -1.10243,-1.309137 l 0.89573,-7.958176 q 0.86127,-6.063372 2.89388,-7.131353 0.55122,-0.275608 1.17133,-0.275608 1.10243,0 1.86036,0.930177 0.62011,0.757921 0.62011,1.998157 0,2.067058 -3.34174,9.026156 l -1.44694,3.100588 q -0.55122,1.343588 -1.20579,1.550294 -0.17225,0.0689 -0.34451,0.0689 z"
       id="path1272" /><path
       id="path1274"
       style="font-style:italic;font-weight:bold;font-size:70.5556px;line-height:1.25;font-family:'Tengwar Annatar';-inkscape-font-specification:'Tengwar Annatar, Bold Italic';fill:none;fill-opacity:1;stroke:#000000;stroke-width:0.264583;stroke-opacity:1"
       d="m 646.18898,71.162581 c -1.97519,0 -4.22616,0.792373 -6.75256,2.377116 -5.12171,3.215422 -9.84149,8.830931 -14.15934,16.846517 l -1.20561,2.308386 c -2.32403,4.485619 -3.99322,7.77021 -5.05292,9.9379 -0.19701,0.0942 -0.39547,0.19199 -0.59687,0.29403 -3.16948,1.58475 -6.25893,3.6974 -9.26765,6.33864 l -0.62011,0.51676 c 0.32154,-1.40101 0.48265,-2.57234 0.48265,-3.514 0,-0.41341 -0.0344,-0.82682 -0.10335,-1.24023 -0.32154,-1.97519 -1.18282,-3.36436 -2.58382,-4.16822 -0.22967,-0.11484 -0.42524,-0.21819 -0.58601,-0.31006 -0.45935,-0.18374 -1.27452,-0.27595 -2.44585,-0.27595 -1.14836,0 -1.82573,0.0116 -2.03243,0.0346 -1.17133,0.0459 -2.31987,0.21819 -3.44527,0.51676 -3.19246,0.87276 -5.90243,2.54921 -8.13025,5.02967 -1.24024,1.37804 -1.86035,2.41157 -1.86035,3.10059 0,0.43638 0.21784,0.63194 0.65422,0.58601 0.41341,-0.0459 0.75792,-0.11484 1.03353,-0.20671 0.2067,-0.0919 0.64343,-0.36748 1.30948,-0.82682 1.01056,-0.71199 2.92816,-1.06815 5.75314,-1.06815 h 0.41341 c 1.05649,0 1.94056,0.31005 2.65255,0.93017 1.03352,0.89572 1.55029,2.22766 1.55029,3.99614 0,0.80385 -0.19505,1.94073 -0.58549,3.41065 -0.96463,3.72069 -2.37712,7.20024 -4.23747,10.43863 -0.36748,0.66606 -1.06815,1.58509 -2.10168,2.75643 -0.87276,0.98759 -1.30896,1.80276 -1.30896,2.44584 0,0.41341 0.2067,0.62012 0.62011,0.62012 0.22968,0 0.58584,-0.0689 1.06815,-0.20671 4.57049,-1.2632 9.18693,-1.89497 13.84929,-1.89497 1.99816,0 4.52421,0.14946 7.57886,0.44803 4.7083,0.45935 7.77444,0.68885 9.19841,0.68885 h 1.06815 c 2.59531,0 5.08743,-0.35565 7.47603,-1.06764 3.60089,-1.04677 6.60808,-2.69693 9.02581,-4.94595 -0.70296,1.31335 -1.67652,2.74279 -2.92799,4.29121 -0.73495,0.89573 -1.10278,1.60754 -1.10278,2.13579 0,0.36748 0.19557,0.55139 0.58602,0.55139 0.39043,0 0.87275,-0.13781 1.44694,-0.41341 1.30913,-0.66606 2.54937,-1.57344 3.7207,-2.7218 1.56178,-1.53881 3.36436,-4.04207 5.40845,-7.51014 1.99816,-3.44509 3.43396,-5.75331 4.30672,-6.92464 1.10242,-1.4699 2.29655,-2.71014 3.58272,-3.7207 2.36564,-1.81441 4.7083,-2.7218 7.028,-2.7218 0.50528,0 1.02205,0.0461 1.55029,0.13798 2.36563,0.39044 4.28323,1.45842 5.75314,3.20394 1.56177,1.86035 2.34301,3.98465 2.34301,6.37325 0,1.60771 -0.37896,3.19245 -1.13688,4.75423 -0.59715,1.65365 -2.35415,2.44602 -5.271,2.37712 -0.68902,0 -1.28634,-0.0572 -1.79162,-0.17208 -0.68902,-0.18374 -1.45859,-0.59715 -2.30839,-1.24024 -0.80385,-0.64308 -1.67627,-0.9648 -2.61792,-0.9648 -1.49288,0 -2.77922,0.56288 -3.85868,1.68827 -1.1254,1.1254 -1.68827,2.36563 -1.68827,3.7207 0,0.36748 0.0233,0.70034 0.0692,0.99891 0.41342,2.09002 2.27377,3.13521 5.58106,3.13521 2.48047,0 5.01818,-0.66622 7.61349,-1.99833 3.60586,-1.83738 6.68365,-4.50176 9.23303,-7.99279 2.6642,-3.62883 3.99613,-7.07393 3.99613,-10.33529 0,-2.89388 -0.93018,-5.36269 -2.79052,-7.40678 -2.09003,-2.29673 -4.7772,-3.44527 -8.06153,-3.44527 -3.16949,0 -6.89019,1.4358 -11.16211,4.30671 -1.97518,1.30914 -3.57158,2.49162 -4.78885,3.54811 l -1.10226,0.9648 -0.0346,-0.0341 c 0.29857,-1.42397 0.44803,-2.54972 0.44803,-3.37654 0,-1.44694 -0.3673,-2.74442 -1.10226,-3.89278 -0.4134,-0.62012 -0.87292,-1.09077 -1.37821,-1.41232 -0.68902,-0.45934 -1.76865,-0.68936 -3.23856,-0.68936 -1.14836,0 -1.82573,0.0116 -2.03243,0.0346 -1.17134,0.0459 -2.31988,0.21819 -3.44527,0.51676 -3.19246,0.87276 -5.90243,2.54921 -8.13025,5.02967 -0.0895,0.0995 -0.1686,0.1935 -0.25167,0.28939 -0.3105,-0.62405 -0.69615,-1.21455 -1.16065,-1.77044 -1.97519,-2.31969 -4.76571,-3.47989 -8.37158,-3.47989 -0.81196,0 -1.56642,0.0662 -2.26446,0.19637 0.5484,-1.112832 1.30946,-2.68327 2.29856,-4.743893 3.90445,-8.061521 7.499,-13.849285 10.78332,-17.363281 0.32154,-0.34451 0.61995,-0.642912 0.89556,-0.895553 1.53881,-1.423972 3.14686,-2.135787 4.82348,-2.135787 1.56177,0 2.88205,0.505109 3.96151,1.51567 1.42397,1.286169 2.1363,2.951472 2.1363,4.995561 0,0.620117 -0.0806,1.240235 -0.24132,1.860351 -0.11484,0.459347 -0.20654,0.769405 -0.27544,0.930176 -0.34451,0.826823 -1.05684,1.240235 -2.1363,1.240235 -1.24024,0 -2.216,-0.390617 -2.92799,-1.171505 -0.64309,-0.711987 -0.9648,-1.447113 -0.9648,-2.205034 0,-0.275607 0.11501,-0.57401 0.34468,-0.895552 0.41342,-0.551216 0.62012,-0.999078 0.62012,-1.343587 0,-0.367477 -0.19557,-0.551388 -0.58601,-0.551388 -0.62012,0 -1.48139,0.425068 -2.58382,1.274858 -1.95222,1.515842 -2.92799,3.23839 -2.92799,5.167643 0,1.033528 0.3212,1.94091 0.96428,2.721798 0.96463,1.171332 2.30822,1.756998 4.03076,1.756998 0.71199,0 1.50436,-0.126664 2.37712,-0.379305 2.98575,-0.941659 5.46622,-2.905365 7.44141,-5.891113 1.3321,-1.998155 1.99832,-4.041902 1.99832,-6.131925 0,-1.837384 -0.49396,-3.433785 -1.48156,-4.788855 -1.37803,-1.929253 -3.33008,-2.893881 -5.85649,-2.893881 z m -3.75533,36.276859 h 0.41342 c 1.03353,0 1.8948,0.28675 2.58382,0.86093 1.07946,0.89572 1.61954,2.22817 1.61954,3.99665 0,0.59715 -0.0922,1.33176 -0.27595,2.20452 -0.38464,1.90945 -0.98858,3.8979 -1.80868,5.96346 -0.0176,-7e-4 -0.0333,-0.003 -0.0517,-0.003 -0.50528,0 -0.99873,0.1378 -1.48104,0.41341 l -1.89498,1.37821 c -2.36563,1.60771 -5.89128,2.41122 -10.57661,2.41122 -1.28618,0 -2.22749,-0.0344 -2.82464,-0.10335 0.8498,-0.80385 1.67662,-1.65347 2.48047,-2.5492 3.74367,-4.24895 5.61516,-8.14191 5.61516,-11.67887 0,-0.50004 -0.0354,-0.98457 -0.1018,-1.45521 0.16352,-0.1078 0.34128,-0.2272 0.54984,-0.37104 1.01056,-0.71198 2.92816,-1.06763 5.75313,-1.06763 z m -23.42647,0.62011 c 2.5264,0 4.65071,0.67737 6.37325,2.03244 1.99816,1.58474 2.99724,3.66346 2.99724,6.23579 -0.0459,2.18189 -0.71165,4.0995 -1.99782,5.75314 -0.16077,0.20671 -0.47083,0.40227 -0.93017,0.58601 -1.51584,0.66605 -3.37619,0.99891 -5.58106,0.99891 l -5.82238,-0.13798 c -2.68718,0 -5.21375,0.17226 -7.57938,0.51676 l -4.44418,0.79272 c 0,-0.0459 0.23002,-0.44821 0.68937,-1.20613 3.05465,-5.21357 5.2362,-8.61256 6.54534,-10.19731 0.45934,-0.55121 1.05666,-1.14853 1.79162,-1.79162 2.77904,-2.3886 5.43176,-3.58273 7.95817,-3.58273 z" /><path
       d="m 749.85203,103.71873 q 8.13043,0 12.74686,-3.20394 l 2.75608,-2.067057 q 0.93017,-0.551215 1.757,-0.551215 0.62011,0 0.62011,0.551215 0,1.41249 -2.82498,4.065217 -1.48139,1.37804 -3.47955,2.79053 -6.64904,4.71978 -14.71056,5.44325 -1.65365,0.13781 -3.4451,0.13781 -3.03169,0 -6.61459,-0.41342 l -0.75792,-0.0689 -0.72347,0.13781 q -5.64996,1.10243 -10.09414,3.68625 -2.54937,1.44694 -4.06521,3.16949 -3.34175,3.75516 -3.89296,9.16396 -0.0689,0.86128 -0.0689,1.79145 0,7.06245 4.85759,12.19565 4.75424,4.99539 12.1612,6.20117 1.99815,0.34451 4.09966,0.34451 4.03077,0 8.09598,-1.44694 3.54845,-1.24023 5.37436,-3.23839 2.13596,-2.37712 2.92833,-5.23655 0.27561,-1.06798 0.27561,-2.06706 0,-1.8948 -1.06798,-3.44509 -0.89573,-1.30914 -1.03353,-2.17042 -0.0344,-0.34451 -0.0344,-0.68901 0,-2.17042 1.757,-3.85851 1.61919,-1.5503 3.82405,-1.5503 2.58383,0 3.75516,2.51492 0.65457,1.34359 0.65457,3.10059 0,4.54753 -4.03076,10.09414 -2.51493,3.4451 -6.40789,6.82129 -9.50847,8.30269 -20.67058,8.30269 h -0.13781 q -8.44049,0 -14.50386,-4.51308 -5.99447,-4.44418 -7.37251,-11.67888 -0.34451,-1.86036 -0.34451,-3.85851 0,-8.26824 7.06245,-16.32977 4.37528,-4.99539 10.64535,-8.8539 l -3.89296,-0.68902 q -7.13135,-1.17133 -9.99078,-1.17133 -4.06521,0 -5.92557,1.20578 l -1.86035,1.24024 q -0.48231,0.24116 -0.99908,0.44786 -0.41341,0.10335 -0.68902,0.10335 -0.65457,0 -0.65457,-0.55121 0,-1.30914 2.48047,-3.72071 3.65181,-3.5829 8.09598,-5.02984 0.82683,-0.27561 1.65365,-0.44786 1.96371,-0.413414 4.65088,-0.413414 2.41157,0 14.02155,1.825904 12.2301,1.92925 16.01971,1.92925 z"
       style="font-style:italic;font-weight:bold;font-size:70.5556px;line-height:1.25;font-family:'Tengwar Annatar';-inkscape-font-specification:'Tengwar Annatar, Bold Italic';fill:none;fill-opacity:1;stroke:#000000;stroke-width:0.264583;stroke-opacity:1"
       id="path1280" /><path
       id="path1282"
       style="font-style:italic;font-weight:bold;font-size:70.5556px;line-height:1.25;font-family:'Tengwar Annatar';-inkscape-font-specification:'Tengwar Annatar, Bold Italic';fill:none;fill-opacity:1;stroke:#000000;stroke-width:0.264583;stroke-opacity:1"
       d="m 816.85918,45.289742 c -0.94166,0 -2.26245,0.72347 -3.96203,2.17041 l -3.10058,2.89388 c -4.06521,4.019277 -7.75147,8.50956 -11.05876,13.470496 -2.04409,3.054651 -3.81223,6.005779 -5.3051,8.853723 -4.29489,8.222292 -9.01467,20.820214 -14.15935,37.793039 -3.12355,10.33529 -5.46621,16.2953 -7.02799,17.88005 -1.21727,1.24024 -1.82625,2.26211 -1.82625,3.06596 0,0.41341 0.20671,0.62012 0.62012,0.62012 0.13781,0 0.33337,-0.0228 0.58601,-0.0687 8.08449,-1.37804 16.42162,-2.06706 25.0114,-2.06706 3.26135,0 7.22322,0.13781 11.88557,0.41341 7.57922,0.45935 12.85022,0.68885 15.81299,0.68885 2.27377,0 4.29472,-0.12615 6.0632,-0.37879 1.10243,-0.16077 2.18206,-0.39079 3.23856,-0.68936 3.90444,-1.10243 7.11952,-2.93947 9.64592,-5.51181 1.37804,-1.42397 2.06706,-2.52641 2.06706,-3.30729 0,-0.14465 -0.0276,-0.26297 -0.078,-0.35967 0.49522,0.17068 1.03792,0.25632 1.62832,0.25632 0.9876,0 1.87218,-0.27561 2.65307,-0.82683 1.28617,-0.89572 1.92908,-2.13596 1.92908,-3.7207 0,-0.89572 -0.2295,-1.71141 -0.68884,-2.44636 -0.87276,-1.42398 -2.26246,-2.13579 -4.16874,-2.13579 h -0.17208 c -0.36748,0 -0.83866,0.12614 -1.41284,0.37879 -1.79145,0.82682 -2.68717,2.22817 -2.68717,4.20336 0,1.0565 0.28726,1.97502 0.86144,2.7559 0.40025,0.53366 0.8672,0.94762 1.40044,1.24282 -0.55447,0.007 -1.04494,0.1306 -1.46917,0.37621 l -1.72289,1.34358 c -2.29673,1.60772 -6.49975,2.41174 -12.60905,2.41174 h -0.72347 c 0,-0.0459 0.20671,-0.27544 0.62012,-0.68884 1.05649,-1.07947 1.99832,-2.17076 2.82515,-3.27319 2.68717,-3.60586 4.03076,-6.9932 4.03076,-10.16269 0,-2.68717 -0.86127,-4.92648 -2.58382,-6.71793 -1.83738,-1.92925 -4.15725,-2.89388 -6.95926,-2.89388 -3.00872,0 -6.48827,1.44693 -10.43864,4.34082 -0.87276,0.64308 -2.5492,2.03226 -5.02967,4.16822 -0.27561,-1.56177 -0.78072,-2.95096 -1.51567,-4.16822 -1.76849,-2.89389 -4.46732,-4.34082 -8.09615,-4.34082 -0.36748,0 -0.73478,0.0228 -1.10226,0.0687 -0.78678,0.0817 -1.62188,0.27531 -2.49958,0.56844 2.37275,-2.659333 6.16127,-6.923177 11.76672,-13.246223 3.5829,-4.065211 4.61642,-5.236544 3.10058,-3.513997 6.82129,-7.625143 12.2762,-11.438062 16.36438,-11.438062 0.68902,0 1.33193,0.09221 1.92908,0.275952 0.41341,0.137804 0.86128,0.355649 1.34359,0.654224 1.90629,1.240234 2.85926,2.986095 2.85926,5.23689 0,0.826823 -0.14894,1.630334 -0.44752,2.411222 -0.34451,1.263201 -1.32079,1.894975 -2.92851,1.894975 -1.28617,0 -2.2969,-0.447863 -3.03185,-1.343587 -0.59715,-0.711987 -0.89555,-1.423801 -0.89555,-2.135787 0,-0.459347 0.2067,-0.953316 0.62011,-1.481564 0.48232,-0.620117 0.72347,-1.136882 0.72347,-1.550293 0,-0.344509 -0.2067,-0.516764 -0.62011,-0.516764 -0.9876,0.09187 -2.17059,0.826995 -3.54862,2.205033 -1.56178,1.69958 -2.3425,3.353227 -2.3425,4.960938 0,0.895724 0.24116,1.710892 0.72347,2.445845 0.94166,1.44694 2.42305,2.170411 4.44418,2.170411 0.91869,0 1.83721,-0.14946 2.7559,-0.448035 2.5953,-0.826823 4.88073,-2.526059 6.85591,-5.098397 1.88332,-2.4575 2.82515,-4.834618 2.82515,-7.131348 0,-1.69958 -0.47117,-3.192628 -1.41283,-4.478796 -1.37804,-1.906286 -3.34174,-2.859257 -5.89111,-2.859257 -0.34451,0 -0.62012,0.01114 -0.82683,0.03411 -0.2067,0 -0.459,0.03445 -0.75757,0.103352 -5.55809,0.826824 -12.37939,5.60437 -20.46387,14.331942 l -12.7124,14.296802 c -4.01928,4.547524 -6.08633,6.913494 -6.20117,7.097234 -0.0517,0.0743 -0.0987,0.14637 -0.14315,0.21705 -1.55511,1.0577 -3.20587,2.33722 -4.95577,3.84782 l -0.58549,0.48266 c 1.49287,-5.21357 2.90536,-9.887766 4.23747,-14.02188 4.77719,-14.722037 9.86428,-26.090859 15.2616,-34.106445 1.97519,-2.939814 4.11114,-5.626991 6.40787,-8.061524 l 3.92741,-3.961515 c 1.1943,-1.217267 1.79162,-2.205206 1.79162,-2.963127 0,-0.344509 -0.21836,-0.516764 -0.65474,-0.516764 z m -22.42757,62.735188 c 0.22968,0 0.43638,0.0116 0.62012,0.0346 2.87091,0.27561 4.99522,1.58475 6.37325,3.92741 0.89573,1.53881 1.34359,3.10076 1.34359,4.68551 -0.023,1.92925 -0.49362,3.66293 -1.41232,5.20174 -0.36748,0.64309 -0.81534,1.05651 -1.34358,1.24024 -0.62012,0.22967 -2.62993,0.42524 -6.02909,0.58601 -2.96279,0.13781 -5.61551,0.33285 -7.95817,0.58549 l -6.92465,0.93018 0.27596,-0.48214 3.82405,-7.028 0.86093,-1.44694 c 3.37619,-5.48918 6.83295,-8.23412 10.36991,-8.23412 z m 24.80469,0.0346 c 2.34266,0 4.30637,0.73513 5.89111,2.20504 1.74551,1.65364 2.61845,3.74349 2.61845,6.2699 -0.0919,2.34266 -0.83814,4.43252 -2.23914,6.2699 -0.13781,0.16077 -0.35617,0.32189 -0.65474,0.48266 -1.1943,0.64308 -2.75625,0.96428 -4.6855,0.96428 -0.66605,0 -1.69959,-0.0456 -3.10059,-0.13746 -6.1093,-0.39044 -10.18565,-0.58601 -12.22974,-0.58601 h -0.51729 c 1.40101,-1.51584 2.91737,-3.57124 4.54805,-6.16655 1.79145,-2.84794 2.96278,-4.62774 3.51399,-5.33972 1.81442,-2.27377 3.84703,-3.58291 6.09782,-3.92741 h 0.0341 z" /><path
       d="m 792.98471,158.80585 q -1.6881,0 -1.99816,-1.6192 -0.0689,-0.31006 -0.0689,-0.65457 0,-1.10243 0.65457,-2.20486 0.82682,-1.41249 3.20394,-4.37527 l 2.44602,-3.16949 q 0.96463,-1.27469 1.20579,-1.44695 0.37896,-0.2756 0.75792,-0.2756 0.75792,0 0.96462,0.82682 0.0345,0.1378 0.0345,0.34451 0,0.58567 -2.51493,6.44233 -1.48139,3.3762 -2.13596,4.44418 -1.10243,1.6881 -2.54937,1.6881 z"
       style="font-style:italic;font-weight:bold;font-size:70.5556px;line-height:1.25;font-family:'Tengwar Annatar';-inkscape-font-specification:'Tengwar Annatar, Bold Italic';fill:none;fill-opacity:1;stroke:#000000;stroke-width:0.264583;stroke-opacity:1"
       id="path1286" /></g></svg>
