<?xml version="1.0" encoding="UTF-8" standalone="no"?>
<!-- Created with Inkscape (http://www.inkscape.org/) -->

<svg
   width="2962.6011mm"
   height="169.38449mm"
   viewBox="0 0 2962.6011 169.38449"
   version="1.1"
   id="svg5"
   xml:space="preserve"
   sodipodi:docname="H_N_elvish_line_4.svg"
   inkscape:version="1.2.2 (1:1.2.2+202212051552+b0a8486541)"
   xmlns:inkscape="http://www.inkscape.org/namespaces/inkscape"
   xmlns:sodipodi="http://sodipodi.sourceforge.net/DTD/sodipodi-0.dtd"
   xmlns="http://www.w3.org/2000/svg"
   xmlns:svg="http://www.w3.org/2000/svg"><sodipodi:namedview
     id="namedview300"
     pagecolor="#ffffff"
     bordercolor="#666666"
     borderopacity="1.0"
     inkscape:showpageshadow="2"
     inkscape:pageopacity="0.0"
     inkscape:pagecheckerboard="0"
     inkscape:deskcolor="#d1d1d1"
     inkscape:document-units="mm"
     showgrid="false"
     inkscape:zoom="0.23781002"
     inkscape:cx="9291.0299"
     inkscape:cy="212.35438"
     inkscape:current-layer="layer1" /><defs
     id="defs2"><rect
       x="-3064.2461"
       y="-1725.2098"
       width="8522.3438"
       height="1127.9735"
       id="rect577" /><rect
       x="5102.8638"
       y="458.32104"
       width="1717.4696"
       height="2384.1938"
       id="rect567" /><rect
       x="4432.1147"
       y="396.8504"
       width="9956.3105"
       height="1159.8926"
       id="rect561" /><rect
       x="-5226.1406"
       y="1528.9053"
       width="13824.299"
       height="3037.7007"
       id="rect473" /><rect
       x="-4957.9775"
       y="1382.0387"
       width="15128.81"
       height="2287.4431"
       id="rect467" /><rect
       x="5102.8638"
       y="458.32104"
       width="819.79352"
       height="161.50455"
       id="rect461" /><rect
       x="58.470253"
       y="119.4372"
       width="11736.415"
       height="832.03381"
       id="rect236" /><rect
       x="88.622437"
       y="649.57916"
       width="639.67432"
       height="440.48877"
       id="rect400" /><rect
       x="80.690262"
       y="181.98399"
       width="557.172"
       height="544.86536"
       id="rect236-5" /><rect
       x="80.690262"
       y="181.98399"
       width="2677.3977"
       height="116.70974"
       id="rect236-0" /></defs><g
     id="layer1"
     style="fill:none;stroke:#000000;stroke-opacity:1"
     transform="translate(1173.024,-40.747901)"><text
       xml:space="preserve"
       transform="scale(0.26458333)"
       id="text459"
       style="font-style:italic;font-variant:normal;font-weight:bold;font-stretch:normal;font-size:113.067px;line-height:1.25;font-family:'Tengwar Annatar';-inkscape-font-specification:'Tengwar Annatar, Bold Italic';font-variant-ligatures:normal;font-variant-caps:normal;font-variant-numeric:normal;font-variant-east-asian:normal;white-space:pre;shape-inside:url(#rect461);display:inline;fill:none;stroke:#000000;stroke-opacity:1" /><text
       xml:space="preserve"
       transform="scale(0.26458333)"
       id="text559"
       style="font-style:italic;font-variant:normal;font-weight:bold;font-stretch:normal;font-size:113.067px;line-height:1.25;font-family:'Tengwar Annatar';-inkscape-font-specification:'Tengwar Annatar, Bold Italic';font-variant-ligatures:normal;font-variant-caps:normal;font-variant-numeric:normal;font-variant-east-asian:normal;white-space:pre;shape-inside:url(#rect561);display:inline;fill:none;stroke:#000000;stroke-opacity:1" /><text
       xml:space="preserve"
       transform="scale(0.26458333)"
       id="text565"
       style="font-style:italic;font-variant:normal;font-weight:bold;font-stretch:normal;font-size:113.067px;line-height:1.25;font-family:'Tengwar Annatar';-inkscape-font-specification:'Tengwar Annatar, Bold Italic';font-variant-ligatures:normal;font-variant-caps:normal;font-variant-numeric:normal;font-variant-east-asian:normal;white-space:pre;shape-inside:url(#rect567);display:inline;fill:none;stroke:#000000;stroke-opacity:1" /><path
       d="m 875.46034,108.95528 q 0,-1.10243 1.92925,-3.20394 3.3762,-3.68625 8.26824,-4.96094 1.757,-0.44786 3.54845,-0.51676 h 1.72255 q 1.44694,0 1.8948,0.10335 0.68902,0.17225 1.37804,0.62012 2.30822,1.51584 2.48047,4.89203 0,0.20671 0,0.37897 0,0.96462 -0.34451,2.65272 4.27192,-3.75516 7.0969,-5.44325 4.30637,-2.58383 7.71702,-2.58383 5.3399,0 8.16488,4.51308 1.20579,1.92926 1.6881,4.37528 9.57737,-8.88836 15.43404,-8.88836 4.96094,0 7.82037,3.54845 2.37712,2.99724 2.37712,7.47587 0,5.20209 -4.40973,10.8176 -3.85851,4.96094 -9.02615,7.54477 -3.4451,1.757 -6.40789,1.757 -5.58105,0 -5.58105,-4.13412 0,-2.75608 2.44602,-4.40973 1.48139,-0.99907 3.03168,-0.99907 1.34359,0 2.58383,0.93017 1.34358,1.03353 2.48047,1.27469 0.79237,0.17225 1.79145,0.17225 1.9637,0 3.03168,-0.68902 0.27561,-0.17225 0.41341,-0.37896 1.82591,-2.68717 1.82591,-6.09782 0,-4.61643 -3.27285,-7.51031 -1.68809,-1.51585 -3.61735,-1.96371 -0.82682,-0.2067 -1.8259,-0.2067 -3.96186,0 -7.33806,4.89203 -0.82682,1.20579 -3.34174,5.64996 -1.03353,1.89481 -1.757,2.89389 -2.48047,3.514 -6.23563,6.44233 -4.78869,3.75516 -9.19841,4.09967 -0.34451,0.0344 -0.93018,0.0344 -5.61551,0 -5.61551,-4.09967 0,-2.82498 2.51492,-4.47863 1.4814,-0.96462 2.99724,-0.96462 1.37804,0 2.61827,0.93017 1.37804,1.03353 2.51492,1.27469 0.79238,0.17225 1.757,0.17225 2.10151,0 3.13504,-0.75792 0.17226,-0.1378 0.27561,-0.31006 1.79145,-2.54937 1.79145,-6.16672 0,-4.37528 -3.10059,-7.30361 -1.8259,-1.72255 -3.96186,-2.13596 -0.79237,-0.17225 -1.58474,-0.17225 -6.78685,0 -13.19473,13.98709 -1.51584,3.23839 -3.82406,7.54477 -22.39313,42.09909 -50.05727,69.83213 l -2.51492,2.48047 q -5.3399,5.16765 -7.26916,6.61459 Q 825.74758,210 824.6796,210 q -0.62012,0 -0.62012,-0.51676 0,-1.17134 2.03261,-3.3073 l 1.55029,-1.48139 q 28.42206,-26.04494 51.29751,-68.38519 l 3.03168,-5.68441 q 2.99724,-5.68441 5.2021,-11.78224 1.65365,-4.51308 1.65365,-6.61459 0,-2.54937 -1.5503,-3.89296 -1.03353,-0.89572 -2.65272,-0.89572 h -0.41341 q -4.13412,0 -5.68442,1.06798 -0.96462,0.68902 -1.30913,0.79237 -0.48232,0.17226 -1.10243,0.24116 -0.65457,0.0689 -0.65457,-0.58567 z"
       style="font-style:italic;font-weight:bold;font-size:70.5556px;line-height:1.25;font-family:'Tengwar Annatar';-inkscape-font-specification:'Tengwar Annatar, Bold Italic';fill:none;fill-opacity:1;stroke:#000000;stroke-width:0.264583;stroke-opacity:1"
       id="path1290" /><path
       d="m 937.78208,92.281008 q 6.30453,0 9.99079,-2.687176 l 1.99815,-1.515843 q 0.65457,-0.413412 1.27469,-0.413412 0.62012,0 0.62012,0.585667 0,1.378039 -2.99724,3.720706 -6.27008,4.926489 -14.29715,5.098744 -0.34451,0 -0.65457,0 -4.34082,0 -12.60906,-1.550294 -8.06153,-1.515843 -11.67888,-1.688098 -0.86128,-0.03445 -1.65365,-0.03445 -6.27008,0 -9.95633,2.652726 l -2.06706,1.550294 q -0.72347,0.447862 -1.37804,0.447862 -0.65457,0 -0.65457,-0.585666 0,-1.136883 2.27377,-3.16949 3.92741,-3.514 9.71517,-4.92649 2.92834,-0.723471 5.92557,-0.723471 4.71979,0 12.299,1.481392 7.44141,1.446942 11.09322,1.688098 1.37803,0.0689 2.75607,0.0689 z"
       style="font-style:italic;font-weight:bold;font-size:70.5556px;line-height:1.25;font-family:'Tengwar Annatar';-inkscape-font-specification:'Tengwar Annatar, Bold Italic';fill:none;fill-opacity:1;stroke:#000000;stroke-width:0.264583;stroke-opacity:1"
       id="path1292" /><path
       id="path1294"
       style="font-style:italic;font-weight:bold;font-size:70.5556px;line-height:1.25;font-family:'Tengwar Annatar';-inkscape-font-specification:'Tengwar Annatar, Bold Italic';fill:none;fill-opacity:1;stroke:#000000;stroke-width:0.264583;stroke-opacity:1"
       d="m 1018.9487,45.289742 c -0.9417,0 -2.2625,0.72347 -3.9621,2.17041 l -3.1,2.89388 c -4.0653,4.019277 -7.7521,8.50956 -11.0593,13.470496 -2.04411,3.054651 -3.81224,6.005779 -5.30512,8.853723 -4.29488,8.222292 -9.01467,20.820214 -14.15934,37.793039 -3.12355,10.33529 -5.46622,16.2953 -7.028,17.88005 -1.21726,1.24024 -1.82624,2.26211 -1.82624,3.06596 0,0.41341 0.19556,0.62012 0.58601,0.62012 0.2067,0 0.60846,-0.0806 1.20561,-0.24133 4.34082,-1.24023 8.8539,-1.86035 13.53922,-1.86035 2.02113,0 4.52439,0.14946 7.51014,0.44803 4.68532,0.48232 7.87812,0.72347 9.57772,0.72347 1.8603,0 3.6057,-0.1378 5.2364,-0.41341 1.0565,-0.16077 2.1128,-0.40193 3.1693,-0.72347 3.6748,-1.1254 6.7759,-2.9513 9.3023,-5.4777 1.4698,-1.46991 2.2045,-2.584 2.2045,-3.34192 0,-0.45934 -0.2412,-0.68884 -0.7235,-0.68884 -0.5053,0 -0.9988,0.1378 -1.481,0.41341 l -1.895,1.37821 c -2.2738,1.60771 -5.6844,2.41122 -10.232,2.41122 -1.4239,0 -2.3774,-0.0344 -2.8597,-0.10335 h -0.1721 c 0.712,-0.64308 1.3894,-1.32045 2.0324,-2.03243 3.9964,-4.29489 5.9945,-8.34845 5.9945,-12.16102 0,-0.31389 -0.013,-0.62127 -0.037,-0.92242 0.1023,-0.0687 0.2026,-0.13442 0.3131,-0.21446 1.1024,-0.80385 2.6872,-1.20613 4.7543,-1.20613 2.5494,0 4.5703,1.98702 6.0632,5.96036 0.4134,1.07947 1.0796,3.42213 1.9983,7.028 l 0.8955,3.58272 c 1.1714,4.20301 2.7906,7.33806 4.8576,9.40511 l 0.4822,0.51677 -4.2029,6.75256 c -10.4501,16.19194 -24.4255,32.24609 -41.92661,48.16243 -2.5953,2.36563 -3.8933,4.04208 -3.8933,5.02967 0,0.36747 0.21836,0.55139 0.65474,0.55139 0.84978,0 2.17058,-0.73513 3.96203,-2.20504 0.78089,-0.64308 2.87074,-2.56068 6.2699,-5.75313 18.41984,-17.31735 33.09594,-34.88734 44.02834,-52.70997 l 3.652,-6.13244 c 1.3091,-2.3197 2.4571,-4.444 3.4447,-6.37325 3.6748,-7.09689 5.5123,-12.35675 5.5123,-15.77888 0,-1.03353 -0.1261,-1.90595 -0.3788,-2.61793 -0.712,-2.11299 -2.779,-3.16983 -6.2011,-3.16983 -1.6801,0 -3.4401,0.33172 -5.2777,0.9865 0.5534,-1.11945 1.3328,-2.724334 2.3838,-4.913913 3.9044,-8.061521 7.4985,-13.849285 10.7828,-17.363281 0.3215,-0.34451 0.6205,-0.642912 0.8961,-0.895553 1.5388,-1.423972 3.1463,-2.135787 4.8229,-2.135787 1.5618,0 2.8826,0.505109 3.9621,1.51567 1.424,1.286169 2.1357,2.951472 2.1357,4.995561 0,0.620117 -0.081,1.240235 -0.2413,1.860351 -0.1148,0.459347 -0.2065,0.769405 -0.2754,0.930176 -0.3445,0.826823 -1.0563,1.240235 -2.1358,1.240235 -1.2403,0 -2.2165,-0.390617 -2.9285,-1.171505 -0.6431,-0.711987 -0.9648,-1.447113 -0.9648,-2.205034 0,-0.275607 0.115,-0.57401 0.3447,-0.895552 0.4134,-0.551216 0.6201,-0.999078 0.6201,-1.343587 0,-0.367477 -0.1951,-0.551388 -0.5855,-0.551388 -0.6201,0 -1.4814,0.425068 -2.5838,1.274858 -1.9523,1.515842 -2.9285,3.23839 -2.9285,5.167643 0,1.033528 0.3217,1.94091 0.9648,2.721798 0.9646,1.171332 2.3082,1.756998 4.0307,1.756998 0.712,0 1.5044,-0.126664 2.3771,-0.379305 2.9858,-0.941659 5.4663,-2.905365 7.4415,-5.891113 1.3321,-1.998155 1.9978,-4.041902 1.9978,-6.131925 0,-1.837384 -0.4935,-3.433785 -1.4811,-4.788855 -1.378,-1.929253 -3.3306,-2.893881 -5.857,-2.893881 -1.9751,0 -4.2256,0.792373 -6.752,2.377116 -5.1217,3.215422 -9.8415,8.830931 -14.1594,16.846517 l -1.2061,2.308386 c -2.7165,5.243055 -4.5609,8.88796 -5.55,10.96419 -0.6004,0.36981 -1.2072,0.76635 -1.8222,1.19683 l -0.4134,0.27543 c -0.023,0 -0.1035,-0.11449 -0.2413,-0.34416 -0.5512,-0.94166 -1.1252,-1.69959 -1.7224,-2.27377 -1.1024,-1.10243 -2.5149,-1.65364 -4.2374,-1.65364 -0.8039,0 -1.5507,0.0456 -2.2397,0.13746 -0.7579,0.0919 -1.527,0.25298 -2.3079,0.48265 -2.9791,0.92533 -5.5806,2.63979 -7.8057,5.13974 -0.3739,-0.89373 -0.8952,-1.71142 -1.5653,-2.45256 -1.9522,-2.1819 -4.6622,-3.27319 -8.1302,-3.27319 -3.7437,0 -8.02727,1.80311 -12.85041,5.40898 l -4.58163,3.61735 0.24081,-0.7922 1.10278,-3.65198 c 3.62883,-12.034859 6.91281,-21.531675 9.85263,-28.490765 2.50342,-5.994464 5.37452,-11.392128 8.61292,-16.192293 1.9752,-2.939814 4.1111,-5.626991 6.4079,-8.061524 l 3.9274,-3.961515 c 1.1943,-1.217267 1.7916,-2.205206 1.7916,-2.963127 0,-0.344509 -0.2183,-0.516764 -0.6547,-0.516764 z m 20.3258,62.149698 c 3.4681,0 5.2023,1.53864 5.2023,4.61625 0,1.92925 -0.6662,4.52473 -1.9983,7.78609 l -0.4134,0.9648 c -1.2173,2.7331 -1.883,4.09949 -1.9978,4.09949 0,-0.0459 -0.1034,-0.22985 -0.3101,-0.55139 -0.9187,-1.51584 -1.7572,-3.60569 -2.5151,-6.2699 l -1.7916,-7.13135 -0.7576,-2.48046 c 0,-0.0689 0.1262,-0.14946 0.3788,-0.24133 1.3321,-0.52825 2.7329,-0.7922 4.2028,-0.7922 z m -40.99642,0.62011 c 2.57232,0 4.70832,0.67737 6.40792,2.03244 1.9981,1.58474 2.9972,3.67511 2.9972,6.27042 0,1.83738 -0.5168,3.52547 -1.5503,5.06429 -0.1378,0.22967 -0.2756,0.41307 -0.4134,0.55087 -0.9646,1.1254 -3.4568,1.68827 -7.47604,1.68827 l -4.78834,-0.13798 c -2.57233,0 -5.07612,0.17226 -7.51065,0.51676 l -4.54753,0.82683 c 0.36748,-0.55122 1.01091,-1.71089 1.9296,-3.47938 1.95222,-3.65179 3.74367,-6.38508 5.37435,-8.1995 0.45935,-0.50528 1.04501,-1.04484 1.757,-1.61902 2.84794,-2.34266 5.45456,-3.514 7.82019,-3.514 z" /><path
       id="path1300"
       style="font-style:italic;font-weight:bold;font-size:70.5556px;line-height:1.25;font-family:'Tengwar Annatar';-inkscape-font-specification:'Tengwar Annatar, Bold Italic';fill:none;fill-opacity:1;stroke:#000000;stroke-width:0.264583;stroke-opacity:1"
       d="m 1102.3198,45.289742 c -0.9416,0 -2.2619,0.72347 -3.9615,2.17041 l -3.1006,2.89388 c -4.0652,4.019277 -7.7514,8.50956 -11.0588,13.470496 -2.044,3.054651 -3.8127,6.005779 -5.3056,8.853723 -4.2949,8.222292 -9.0147,20.820214 -14.1593,37.793039 -3.1236,10.33529 -5.4662,16.2953 -7.028,17.88005 -1.2173,1.24024 -1.8257,2.26211 -1.8257,3.06596 0,0.41341 0.2067,0.62012 0.6201,0.62012 0.1378,0 0.3329,-0.0228 0.5855,-0.0687 8.0845,-1.37804 16.4216,-2.06706 25.0114,-2.06706 3.2614,0 7.2232,0.13781 11.8855,0.41341 7.5792,0.45935 12.8502,0.68885 15.813,0.68885 2.2738,0 4.2953,-0.12615 6.0637,-0.37879 1.1024,-0.16077 2.1816,-0.39079 3.2381,-0.68936 3.5438,-1.00063 6.518,-2.60879 8.9266,-4.82038 -0.7007,1.29784 -1.6645,2.70866 -2.898,4.23488 -0.735,0.89573 -1.1023,1.60754 -1.1023,2.13579 0,0.36748 0.1951,0.55139 0.5855,0.55139 0.3905,0 0.8727,-0.13781 1.4469,-0.41341 1.3092,-0.66606 2.5494,-1.57344 3.7207,-2.7218 1.5618,-1.53881 3.3649,-4.04207 5.409,-7.51014 1.9981,-3.44509 3.4334,-5.75331 4.3062,-6.92464 1.1024,-1.4699 2.2965,-2.71014 3.5827,-3.7207 2.3656,-1.81441 4.7083,-2.7218 7.028,-2.7218 0.5053,0 1.0221,0.0461 1.5503,0.13798 2.3656,0.39044 4.2837,1.45842 5.7537,3.20394 1.5617,1.86035 2.3425,3.98465 2.3425,6.37325 0,1.60771 -0.3791,3.19245 -1.1369,4.75423 -0.5972,1.65365 -2.3542,2.44602 -5.271,2.37712 -0.6891,0 -1.2864,-0.0572 -1.7916,-0.17208 -0.689,-0.18374 -1.4581,-0.59715 -2.3079,-1.24024 -0.8039,-0.64308 -1.6768,-0.9648 -2.6184,-0.9648 -1.4929,0 -2.7793,0.56288 -3.8587,1.68827 -1.1254,1.1254 -1.6878,2.36563 -1.6878,3.7207 0,0.36748 0.023,0.70034 0.069,0.99891 0.4134,2.09002 2.2738,3.13521 5.5811,3.13521 2.4805,0 5.0182,-0.66622 7.6135,-1.99833 3.6059,-1.83738 6.6836,-4.50176 9.233,-7.99279 2.6642,-3.62883 3.9962,-7.07393 3.9962,-10.33529 0,-2.89388 -0.9297,-5.36269 -2.7901,-7.40678 -2.09,-2.29673 -4.7777,-3.44527 -8.062,-3.44527 -3.1695,0 -6.8902,1.4358 -11.1621,4.30671 -1.9752,1.30914 -3.5711,2.49162 -4.7883,3.54811 l -1.1028,0.9648 -0.034,-0.0341 c 0.2985,-1.42397 0.4475,-2.54972 0.4475,-3.37654 0,-1.44694 -0.3673,-2.74442 -1.1022,-3.89278 -0.4134,-0.62012 -0.873,-1.09077 -1.3783,-1.41232 -0.689,-0.45934 -1.7681,-0.68936 -3.238,-0.68936 -1.1484,0 -1.8263,0.0116 -2.033,0.0346 -1.1713,0.0459 -2.3193,0.21819 -3.4447,0.51676 -3.1925,0.87276 -5.9029,2.54921 -8.1308,5.02967 -0.1844,0.20498 -0.3509,0.3999 -0.508,0.58963 -0.4263,-0.98741 -1.0253,-1.88473 -1.8004,-2.69079 -1.8374,-1.92925 -4.1567,-2.89388 -6.9587,-2.89388 -3.0087,0 -6.4883,1.44693 -10.4386,4.34082 -0.8728,0.64308 -2.5498,2.03226 -5.0302,4.16822 -0.2756,-1.56177 -0.7808,-2.95096 -1.5157,-4.16822 -1.7685,-2.89389 -4.4673,-4.34082 -8.0961,-4.34082 -0.3675,0 -0.7348,0.0228 -1.1023,0.0687 -3.537,0.36748 -7.9928,2.87074 -13.3671,7.51013 l -0.5855,0.48266 c 1.4928,-5.21357 2.9053,-9.887769 4.2374,-14.021883 4.7772,-14.722037 9.8648,-26.090859 15.2621,-34.106445 1.9752,-2.939814 4.1112,-5.626991 6.4079,-8.061524 l 3.9274,-3.961515 c 1.1943,-1.217267 1.7911,-2.205206 1.7911,-2.963127 0,-0.344509 -0.2183,-0.516764 -0.6547,-0.516764 z m 25.3214,62.149698 h 0.4129 c 1.0336,0 1.8953,0.28675 2.5844,0.86093 1.0794,0.89572 1.619,2.22817 1.619,3.99665 0,0.59715 -0.092,1.33176 -0.2759,2.20452 -0.3847,1.90947 -0.9886,3.89787 -1.8087,5.96346 -0.017,-6.7e-4 -0.033,-0.003 -0.051,-0.003 -0.5742,0 -1.0798,0.12615 -1.5162,0.37879 l -1.7223,1.34358 c -2.2968,1.60772 -6.4998,2.41174 -12.6091,2.41174 h -0.7234 c 0,-0.0459 0.2067,-0.27544 0.6201,-0.68884 1.0564,-1.07947 1.9983,-2.17076 2.8251,-3.27319 2.6871,-3.60586 4.0303,-6.9932 4.0303,-10.16269 0,-0.46186 -0.027,-0.90973 -0.078,-1.34513 0.2341,-0.14329 0.5403,-0.34414 0.939,-0.61909 1.0106,-0.71198 2.9287,-1.06763 5.7536,-1.06763 z m -47.7485,0.58549 c 0.2297,0 0.4364,0.0116 0.6202,0.0346 2.8708,0.27561 4.9951,1.58475 6.3732,3.92741 0.8957,1.53881 1.3436,3.10076 1.3436,4.68551 -0.023,1.92925 -0.4942,3.66293 -1.4128,5.20174 -0.3675,0.64309 -0.8154,1.05651 -1.3436,1.24024 -0.6202,0.22967 -2.6295,0.42524 -6.0286,0.58601 -2.9628,0.13781 -5.6155,0.33285 -7.9582,0.58549 l -6.9246,0.93018 0.2754,-0.48214 3.8241,-7.028 0.8614,-1.44694 c 3.3762,-5.48918 6.8329,-8.23412 10.3699,-8.23412 z m 24.8047,0.0346 c 2.3427,0 4.3064,0.73513 5.8911,2.20504 1.7456,1.65364 2.618,3.74349 2.618,6.2699 h 5e-4 c -0.092,2.34266 -0.8381,4.43252 -2.2392,6.2699 -0.1378,0.16077 -0.3562,0.32189 -0.6547,0.48266 -1.1943,0.64308 -2.7562,0.96428 -4.6855,0.96428 -0.666,0 -1.6991,-0.0456 -3.1001,-0.13746 -6.1093,-0.39044 -10.1862,-0.58601 -12.2302,-0.58601 h -0.5168 c 1.401,-1.51584 2.9169,-3.57124 4.5475,-6.16655 1.7915,-2.84794 2.9628,-4.62774 3.514,-5.33972 1.8144,-2.27377 3.8471,-3.58291 6.0979,-3.92741 h 0.034 z" /><path
       d="m 1117.0306,70.818049 q 1.3781,0 1.9982,1.102431 0.2067,0.413412 0.2067,0.930177 0,1.515843 -2.136,3.066137 l -3.0317,2.067058 q -8.785,6.063373 -18.2245,11.920039 -6.1323,3.824058 -6.9247,3.824058 -0.8957,0 -1.0335,-0.757921 -0.034,-0.103353 -0.034,-0.206706 0,-0.723471 1.1714,-1.688098 8.6816,-7.200254 18.5691,-14.331607 l 7.3036,-5.167646 q 1.2057,-0.757922 2.1359,-0.757922 z"
       style="font-style:italic;font-weight:bold;font-size:70.5556px;line-height:1.25;font-family:'Tengwar Annatar';-inkscape-font-specification:'Tengwar Annatar, Bold Italic';fill:none;fill-opacity:1;stroke:#000000;stroke-width:0.264583;stroke-opacity:1"
       id="path1302" /><path
       d="m 1155.8569,93.796851 q -0.9647,0 -1.0336,-1.033529 0,-0.930176 4.7887,-7.303607 l 8.475,-10.955411 2.756,-3.307294 q 1.1025,-0.964628 2.0671,-0.964628 1.4469,0 1.9982,1.274687 0.1722,0.413411 0.1722,0.895725 0,1.343588 -2.1704,3.755157 -6.1323,7.131352 -12.0923,13.298077 -4.2375,4.340823 -4.9609,4.340823 z"
       style="font-style:italic;font-weight:bold;font-size:70.5556px;line-height:1.25;font-family:'Tengwar Annatar';-inkscape-font-specification:'Tengwar Annatar, Bold Italic';fill:none;fill-opacity:1;stroke:#000000;stroke-width:0.264583;stroke-opacity:1"
       id="path1306" /><path
       id="path1308"
       style="font-style:italic;font-weight:bold;font-size:70.5556px;line-height:1.25;font-family:'Tengwar Annatar';-inkscape-font-specification:'Tengwar Annatar, Bold Italic';fill:none;fill-opacity:1;stroke:#000000;stroke-width:0.264583;stroke-opacity:1"
       d="m 1265.7207,71.162581 c -1.9752,0 -4.2257,0.792373 -6.7521,2.377116 -5.1217,3.215422 -9.8415,8.830931 -14.1593,16.846517 l -1.2061,2.308386 c -3.0525,5.891513 -4.9939,9.74618 -5.8653,11.63908 -0.5372,0.46816 -1.0511,0.97477 -1.5415,1.52084 -0.1819,0.2021 -0.3486,0.39615 -0.5039,0.58343 -0.3547,-0.66793 -0.7828,-1.29933 -1.2872,-1.89239 -2.113,-2.50344 -5.018,-3.73202 -8.7158,-3.68608 -3.6058,0.0459 -7.9238,1.97518 -12.9537,5.78776 l -3.9274,3.16931 c 0.3905,-1.3321 0.5855,-2.51509 0.5855,-3.54862 0,-0.11484 -0.011,-0.24098 -0.035,-0.37879 -0.092,-2.25079 -0.9076,-3.88164 -2.4464,-4.8922 -0.4593,-0.29858 -0.9184,-0.50529 -1.3777,-0.62012 -0.2986,-0.0689 -0.9304,-0.10335 -1.895,-0.10335 h -1.7223 c -1.1943,0.0459 -2.3773,0.21819 -3.5487,0.51676 -3.2614,0.84979 -6.0174,2.50344 -8.2682,4.96094 -1.2861,1.401 -1.9291,2.46898 -1.9291,3.20394 0,0.43638 0.2179,0.63194 0.6542,0.58601 0.4134,-0.0459 0.7812,-0.12649 1.1028,-0.24133 0.2297,-0.0689 0.6659,-0.33286 1.309,-0.7922 1.0335,-0.71199 2.9283,-1.06815 5.6844,-1.06815 h 0.4134 c 1.0795,0 1.9636,0.2984 2.6526,0.89555 1.0335,0.89573 1.5502,2.19372 1.5502,3.8933 0,1.40101 -0.5512,3.60587 -1.6536,6.61459 -1.4699,4.06521 -3.2036,7.99262 -5.2017,11.78222 l -3.0319,5.68441 c -15.2503,28.2268 -32.3496,51.0217 -51.2977,68.38497 l -1.5502,1.48157 c -1.3551,1.42397 -2.0325,2.52639 -2.0325,3.30729 0,0.3445 0.2067,0.51676 0.6201,0.51676 0.712,0 1.7457,-0.50563 3.1011,-1.51618 1.2862,-0.96463 3.7094,-3.16949 7.2694,-6.61459 l 2.2737,-2.23914 c 17.8915,-17.86856 34.1524,-40.28449 48.7826,-67.24809 2.4116,-4.45566 4.1341,-7.7974 5.1676,-10.02523 l 1.757,-3.58324 c 1.6766,-2.98575 3.4681,-5.3051 5.3744,-6.95875 0.5282,-0.45935 1.0678,-0.88442 1.619,-1.27486 2.3886,-1.67661 4.6507,-2.51509 6.7867,-2.51509 1.401,0 2.9057,0.41342 4.5134,1.24024 3.3992,1.69957 5.0984,4.53621 5.0984,8.50955 0,0.87276 -0.1378,1.80294 -0.4134,2.79053 -0.4364,1.67661 -0.9415,2.75625 -1.5157,3.23856 -1.4239,0.71199 -2.9281,1.06764 -4.5129,1.06764 -0.689,0 -1.2864,-0.0572 -1.7916,-0.17208 -0.689,-0.18374 -1.4469,-0.59715 -2.2738,-1.24024 -0.8268,-0.64308 -1.7226,-0.9648 -2.6872,-0.9648 -0.9876,0 -1.975,0.32172 -2.9626,0.9648 -1.6766,1.10243 -2.5151,2.59548 -2.5151,4.4788 0,2.73311 1.8487,4.09949 5.5465,4.09949 0.9875,0 1.941,-0.0917 2.8597,-0.27544 1.4699,-0.2756 2.9858,-0.81568 4.5476,-1.61954 3.468,-1.76847 6.5109,-4.31785 9.1291,-7.64811 2.9398,-3.74367 4.4101,-7.30325 4.4101,-10.67945 0,-1.00019 -0.1072,-1.94683 -0.3168,-2.8422 0.1962,-0.12673 0.4213,-0.27628 0.6951,-0.46509 1.0105,-0.71199 2.9281,-1.06815 5.7531,-1.06815 h 0.4134 c 1.0335,0 1.8948,0.28726 2.5838,0.86144 1.0795,0.89573 1.6196,2.22766 1.6196,3.99614 0,0.59715 -0.092,1.33228 -0.276,2.20503 -0.643,3.19246 -1.8945,6.60311 -3.7548,10.23194 -0.712,1.401 -1.7455,2.93964 -3.1006,4.61625 -0.735,0.89573 -1.1028,1.60754 -1.1028,2.13579 0,0.36748 0.1956,0.55139 0.5861,0.55139 0.7808,0 1.8599,-0.51676 3.238,-1.55029 0.6431,-0.48232 1.2865,-1.04519 1.9296,-1.68827 3.1005,-3.10059 5.7416,-7.47586 7.9235,-13.12582 1.5848,-4.04224 2.3772,-7.17728 2.3772,-9.40511 0,-1.44694 -0.3674,-2.74442 -1.1023,-3.89278 -0.4135,-0.62012 -0.8729,-1.09077 -1.3782,-1.41232 -0.689,-0.45934 -1.7686,-0.68936 -3.2386,-0.68936 -1.1483,0 -1.8257,0.0116 -2.0324,0.0346 -1.1713,0.0459 -2.3199,0.21819 -3.4453,0.51676 -0.4732,0.12939 -0.9354,0.27712 -1.3875,0.44184 0.5536,-1.11956 1.3335,-2.726034 2.387,-4.920633 3.9044,-8.061521 7.4984,-13.849285 10.7828,-17.363281 0.3215,-0.34451 0.6204,-0.642912 0.896,-0.895553 1.5388,-1.423972 3.1464,-2.135787 4.823,-2.135787 1.5618,0 2.8826,0.505109 3.962,1.51567 1.424,1.286169 2.1358,2.951472 2.1358,4.995561 0,0.620117 -0.081,1.240235 -0.2413,1.860351 -0.1149,0.459347 -0.2066,0.769405 -0.2755,0.930176 -0.3445,0.826823 -1.0563,1.240235 -2.1357,1.240235 -1.2402,0 -2.2165,-0.390617 -2.9285,-1.171505 -0.6431,-0.711987 -0.9648,-1.447113 -0.9648,-2.205034 0,-0.275607 0.115,-0.57401 0.3446,-0.895552 0.4134,-0.551216 0.6202,-0.999078 0.6202,-1.343587 0,-0.367477 -0.1951,-0.551388 -0.5855,-0.551388 -0.6201,0 -1.4814,0.425068 -2.5839,1.274858 -1.9522,1.515842 -2.9285,3.23839 -2.9285,5.167643 0,1.033528 0.3218,1.94091 0.9648,2.721798 0.9646,1.171332 2.3082,1.756998 4.0308,1.756998 0.712,0 1.5044,-0.126664 2.3771,-0.379305 2.9857,-0.941659 5.4662,-2.905365 7.4414,-5.891113 1.3321,-1.998155 1.9983,-4.041902 1.9983,-6.131925 0,-1.837384 -0.4939,-3.433785 -1.4815,-4.788855 -1.3781,-1.929253 -3.3306,-2.893881 -5.857,-2.893881 z" /><path
       id="path1314"
       style="font-style:italic;font-weight:bold;font-size:70.5556px;line-height:1.25;font-family:'Tengwar Annatar';-inkscape-font-specification:'Tengwar Annatar, Bold Italic';fill:none;fill-opacity:1;stroke:#000000;stroke-width:0.264583;stroke-opacity:1"
       d="m 1290.3879,100.27347 c -1.1943,0.0459 -2.3773,0.21819 -3.5486,0.51676 -3.2614,0.84979 -6.0174,2.50344 -8.2682,4.96094 -1.2862,1.401 -1.9291,2.46898 -1.9291,3.20394 h -5e-4 c 0,0.43638 0.2184,0.63194 0.6547,0.58601 0.4135,-0.0459 0.7807,-0.12649 1.1023,-0.24133 0.2296,-0.0689 0.6659,-0.33286 1.3089,-0.7922 1.0336,-0.71199 2.9284,-1.06815 5.6844,-1.06815 h 0.4134 c 1.0795,0 1.964,0.2984 2.6531,0.89555 1.0335,0.89573 1.5503,2.19372 1.5503,3.8933 0,1.40101 -0.5512,3.60587 -1.6536,6.61459 -1.47,4.06521 -3.2042,7.99262 -5.2023,11.78222 l -3.0319,5.68441 c -15.2502,28.2268 -32.3491,51.0217 -51.2971,68.38497 l -1.5503,1.48157 c -1.3551,1.42397 -2.0329,2.52639 -2.0329,3.30729 0,0.3445 0.2067,0.51676 0.6201,0.51676 0.712,0 1.7455,-0.50563 3.1006,-1.51618 1.2862,-0.96463 3.7094,-3.16949 7.2693,-6.61459 l 2.2737,-2.23914 c 17.8916,-17.86856 34.1525,-40.28449 48.7826,-67.24809 2.4116,-4.45566 4.1341,-7.7974 5.1676,-10.02523 l 1.757,-3.58324 c 1.6766,-2.98575 3.4681,-5.3051 5.3744,-6.95875 0.5283,-0.45935 1.0678,-0.88442 1.619,-1.27486 2.3886,-1.67661 4.6512,-2.51509 6.7872,-2.51509 1.401,0 2.9052,0.41342 4.5129,1.24024 3.3992,1.69957 5.0989,4.53621 5.0989,8.50955 0,0.87276 -0.1378,1.80294 -0.4134,2.79053 -0.4364,1.67661 -0.942,2.75625 -1.5162,3.23856 -1.4239,0.71199 -2.9282,1.06764 -4.5129,1.06764 -0.6891,0 -1.2863,-0.0572 -1.7916,-0.17208 -0.689,-0.18374 -1.4469,-0.59715 -2.2738,-1.24024 -0.8268,-0.64308 -1.7225,-0.9648 -2.6871,-0.9648 -0.9876,0 -1.9751,0.32172 -2.9627,0.9648 -1.6766,1.10243 -2.515,2.59548 -2.515,4.4788 0,2.73311 1.8492,4.09949 5.5469,4.09949 0.9876,0 1.9406,-0.0917 2.8593,-0.27544 1.4699,-0.2756 2.9858,-0.81568 4.5475,-1.61954 3.468,-1.76847 6.5114,-4.31785 9.1297,-7.64811 2.9398,-3.74367 4.4095,-7.30325 4.4095,-10.67945 0,-0.99982 -0.1073,-1.94608 -0.3168,-2.84117 0.1964,-0.12685 0.4218,-0.27694 0.6961,-0.46612 1.0105,-0.71199 2.9287,-1.06815 5.7537,-1.06815 h 0.4134 c 1.0565,0 1.9406,0.31005 2.6525,0.93017 1.0336,0.89572 1.5503,2.22766 1.5503,3.99614 0,0.80385 -0.1951,1.94073 -0.5855,3.41065 -0.9646,3.72069 -2.3771,7.20024 -4.2374,10.43863 -0.3675,0.66606 -1.0682,1.58509 -2.1017,2.75643 -0.8728,0.98759 -1.309,1.80276 -1.309,2.44584 0,0.41341 0.2067,0.62012 0.6201,0.62012 0.2297,0 0.5853,-0.0689 1.0677,-0.20671 4.5704,-1.2632 9.1869,-1.89497 13.8493,-1.89497 1.9982,0 4.5247,0.14946 7.5793,0.44803 4.7083,0.45935 7.7744,0.68885 9.1984,0.68885 h 1.0682 c 2.5953,0 5.0869,-0.35565 7.4755,-1.06764 3.6006,-1.04669 6.6082,-2.69667 9.0258,-4.94543 -0.7029,1.3132 -1.6767,2.74248 -2.928,4.29069 -0.7349,0.89573 -1.1022,1.60754 -1.1022,2.13579 0,0.36748 0.195,0.55139 0.5855,0.55139 0.8038,0 1.8029,-0.43621 2.9972,-1.30897 2.6413,-1.99815 5.2367,-5.28265 7.7861,-9.85314 2.2278,-3.99631 4.0537,-6.8674 5.4777,-8.61291 2.2967,-2.82498 4.6855,-4.23747 7.166,-4.23747 1.2862,0 2.6641,0.43621 4.1341,1.30896 3.0086,1.74552 4.5129,4.52491 4.5129,8.33748 0,2.20486 -0.5974,4.22581 -1.7917,6.0632 -0.023,0.0459 -0.057,0.092 -0.1033,0.13797 -0.5741,0.66605 -1.7455,0.99891 -3.514,0.99891 -0.689,0 -1.2858,-0.0572 -1.7911,-0.17208 -0.6891,-0.16078 -1.447,-0.57419 -2.2738,-1.24024 -0.8268,-0.64308 -1.7225,-0.9648 -2.6871,-0.9648 -1.447,0 -2.6989,0.52843 -3.7554,1.58492 -1.1484,1.14836 -1.7223,2.4575 -1.7223,3.92741 v 0.34416 c 0.1837,2.45751 2.044,3.6866 5.581,3.6866 0.5283,0 1.0678,-0.0344 1.619,-0.10335 4.3868,-0.62012 8.6931,-3.33061 12.9191,-8.13077 1.2862,-1.44694 2.7332,-3.59404 4.3409,-6.44199 1.6306,-2.91684 2.7908,-4.8233 3.4798,-5.71903 1.8604,-2.3886 4.0536,-3.58273 6.58,-3.58273 1.1484,0 2.2625,0.26396 3.3419,0.7922 0.5053,0.25264 1.0104,0.57436 1.5157,0.9648 2.4575,1.97519 3.6861,4.59346 3.6861,7.85482 0,1.14837 -0.2178,2.40025 -0.6542,3.75533 -0.5283,1.56177 -0.9995,2.46864 -1.4129,2.72128 l -0.1374,0.0687 c -0.9417,0.45934 -2.0447,0.68936 -3.3079,0.68936 -0.643,0 -1.217,-0.0689 -1.7223,-0.2067 -0.6201,-0.16078 -1.3436,-0.57419 -2.1704,-1.24024 -0.8039,-0.64308 -1.688,-0.9648 -2.6526,-0.9648 -1.0795,0 -2.1247,0.35617 -3.1352,1.06815 -1.5847,1.07946 -2.3771,2.49195 -2.3771,4.23747 0,0.57418 0.081,1.09095 0.2413,1.55029 0.5512,1.79146 2.3538,2.68718 5.4085,2.68718 1.7914,0 3.7552,-0.50562 5.8911,-1.51619 3.4451,-1.63068 6.4885,-4.05339 9.1297,-7.2688 3.1695,-3.85851 4.7542,-7.70588 4.7542,-11.54142 0,-3.12355 -0.9301,-5.70737 -2.7905,-7.75146 -1.9063,-2.06706 -4.2951,-3.10059 -7.166,-3.10059 -1.8144,0 -3.847,0.57453 -6.0978,1.72289 -2.7102,1.37804 -5.8908,3.7663 -9.5426,7.16546 -0.3215,-1.60771 -0.8727,-3.043 -1.6536,-4.3062 -1.8604,-3.05465 -4.5937,-4.58215 -8.1995,-4.58215 -2.4805,0 -5.3744,1.09129 -8.6817,3.27319 -2.136,1.37803 -3.8124,2.65272 -5.0296,3.82405 -0.5971,0.55122 -0.9188,0.82682 -0.9648,0.82682 v -0.0346 c 0.1608,-1.10243 0.2413,-1.92926 0.2413,-2.48047 0,-0.45934 -0.034,-0.90721 -0.1034,-1.34359 -0.3445,-1.90628 -1.2058,-3.261 -2.5838,-4.06486 -0.2297,-0.11484 -0.4252,-0.21819 -0.586,-0.31006 -0.4593,-0.18374 -1.2745,-0.27595 -2.4458,-0.27595 -1.1484,0 -1.8258,0.0116 -2.0325,0.0346 -1.1713,0.0459 -2.3199,0.21819 -3.4453,0.51676 -3.1924,0.87276 -5.9024,2.54921 -8.1302,5.02967 -0.09,0.0995 -0.1686,0.1935 -0.2517,0.28939 -0.3105,-0.62405 -0.6966,-1.21455 -1.1611,-1.77044 -1.9752,-2.31969 -4.7658,-3.47989 -8.3716,-3.47989 -0.9647,0 -1.8488,0.0922 -2.6526,0.27596 -1.401,0.29857 -2.9629,0.88423 -4.6855,1.75699 -3.1694,1.58475 -6.2584,3.6974 -9.2671,6.33864 l -0.6201,0.51676 c 0.3215,-1.40101 0.4821,-2.57234 0.4821,-3.514 0,-0.41341 -0.034,-0.82682 -0.1033,-1.24023 -0.3216,-1.97519 -1.1829,-3.36436 -2.5839,-4.16822 -0.2296,-0.11484 -0.4247,-0.21819 -0.5855,-0.31006 -0.4594,-0.18374 -1.2745,-0.27595 -2.4458,-0.27595 -1.1483,0 -1.8262,0.0116 -2.0329,0.0346 -1.1714,0.0459 -2.3194,0.21819 -3.4448,0.51676 -3.1924,0.87276 -5.9029,2.54921 -8.1308,5.02967 -0.183,0.20339 -0.3478,0.39712 -0.5038,0.58549 -0.355,-0.66868 -0.7828,-1.30078 -1.2878,-1.89445 -2.113,-2.50344 -5.0185,-3.73202 -8.7163,-3.68608 -3.6058,0.0459 -7.9238,1.97518 -12.9537,5.78776 l -3.9274,3.16931 c 0.3905,-1.3321 0.586,-2.51509 0.586,-3.54862 0,-0.11484 -0.011,-0.24098 -0.034,-0.37879 -0.092,-2.25079 -0.907,-3.88164 -2.4458,-4.8922 -0.4594,-0.29858 -0.9189,-0.50529 -1.3782,-0.62012 -0.2986,-0.0689 -0.9304,-0.10335 -1.895,-0.10335 z m 87.0231,7.16597 h 0.4134 c 1.0336,0 1.8948,0.28675 2.5838,0.86093 1.0795,0.89572 1.6191,2.22817 1.6191,3.99665 0,0.59715 -0.092,1.33176 -0.2755,2.20452 -0.3846,1.90945 -0.9885,3.8979 -1.8086,5.96346 -0.018,-7e-4 -0.033,-0.003 -0.052,-0.003 -0.5053,0 -0.9992,0.1378 -1.4816,0.41341 l -1.8944,1.37821 c -2.3656,1.60771 -5.8913,2.41122 -10.5767,2.41122 -1.2862,0 -2.228,-0.0344 -2.8251,-0.10335 0.8498,-0.80385 1.6766,-1.65347 2.4805,-2.5492 3.7436,-4.24895 5.6156,-8.14191 5.6156,-11.67887 0,-0.5015 -0.036,-0.98741 -0.1023,-1.45935 0.1708,-0.11216 0.3287,-0.21404 0.5504,-0.3669 1.0106,-0.71198 2.9281,-1.06763 5.7531,-1.06763 z m -23.4265,0.62011 c 2.5264,0 4.6508,0.67737 6.3733,2.03244 1.9982,1.58474 2.9972,3.66346 2.9972,6.23579 -0.046,2.18189 -0.7121,4.0995 -1.9983,5.75314 -0.1608,0.20671 -0.4708,0.40227 -0.9302,0.58601 -1.5158,0.66605 -3.3762,0.99891 -5.581,0.99891 l -5.8219,-0.13798 c -2.6872,0 -5.2137,0.17226 -7.5794,0.51676 L 1337,124.83734 c 0,-0.0459 0.2296,-0.44821 0.6889,-1.20613 3.0547,-5.21357 5.2367,-8.61256 6.5458,-10.19731 0.4594,-0.55121 1.0567,-1.14853 1.7917,-1.79162 2.779,-2.3886 5.4317,-3.58273 7.9581,-3.58273 z" /><path
       id="path1316"
       style="font-style:italic;font-weight:bold;font-size:70.5556px;line-height:1.25;font-family:'Tengwar Annatar';-inkscape-font-specification:'Tengwar Annatar, Bold Italic';fill:none;fill-opacity:1;stroke:#000000;stroke-width:0.264583;stroke-opacity:1"
       d="m 1330.5575,70.439111 c -0.666,0 -1.3434,0.275608 -2.0324,0.826823 -0.069,0.04594 -0.1722,0.126493 -0.31,0.241329 -1.7915,1.653645 -4.9037,4.788684 -9.3364,9.405111 l -8.3509,9.15293 c -0.9524,-0.106991 -1.7762,-0.161231 -2.4666,-0.161231 -0.7808,0 -1.5616,0.05725 -2.3425,0.172083 -3.2154,0.482312 -5.9142,1.825901 -8.0961,4.030761 -1.0795,1.102431 -1.619,1.94091 -1.619,2.515092 0,0.413411 0.2067,0.620117 0.6201,0.620117 0.3215,-0.04593 0.9761,-0.367649 1.9637,-0.964799 1.5847,-1.079462 3.3762,-1.619022 5.3744,-1.619022 1.6995,0 3.9616,0.275608 6.7866,0.826823 3.4221,0.666052 6.0176,0.998905 7.7861,0.998905 0.7579,0 1.5158,-0.05725 2.2738,-0.172082 3.1465,-0.482314 5.8104,-1.803107 7.9922,-3.962032 1.1484,-1.125398 1.7229,-1.998328 1.7229,-2.618445 0,-0.390444 -0.2067,-0.585494 -0.6201,-0.585494 -0.2986,0.04593 -0.9648,0.367649 -1.9983,0.964799 -1.5388,1.079463 -3.3302,1.619022 -5.3744,1.619022 -1.7684,0 -4.0539,-0.275607 -6.8559,-0.826822 -0.5389,-0.107053 -1.0488,-0.202126 -1.5456,-0.291972 0.4155,-0.355899 0.853,-0.732754 1.3389,-1.154969 6.2931,-5.397314 11.5069,-10.094303 15.6409,-14.090612 1.0336,-1.010561 1.5503,-1.894631 1.5503,-2.652552 v -0.172082 c 0,-0.321543 -0.057,-0.620462 -0.1721,-0.89607 -0.3445,-0.803855 -0.9879,-1.205611 -1.9296,-1.205611 z" /><path
       d="m 1415.9617,87.871283 q -0.7235,0 -0.9302,-0.826823 -0.034,-0.137804 -0.034,-0.310059 0,-0.551216 2.1015,-5.99447 1.5848,-4.20302 2.3772,-5.374353 0.9301,-1.481392 2.3426,-1.481392 1.3436,0 1.9293,1.205784 0.2411,0.482314 0.2067,1.102432 -0.035,1.584745 -1.8604,4.134117 l -3.9274,5.408803 -0.6201,0.930177 q -0.7579,1.136882 -1.5847,1.205784 z"
       style="font-style:italic;font-weight:bold;font-size:70.5556px;line-height:1.25;font-family:'Tengwar Annatar';-inkscape-font-specification:'Tengwar Annatar, Bold Italic';fill:none;fill-opacity:1;stroke:#000000;stroke-width:0.264583;stroke-opacity:1"
       id="path1324" /><path
       d="m 1396.4279,158.80585 q -1.688,0 -1.9981,-1.6192 -0.069,-0.31006 -0.069,-0.65457 0,-1.10243 0.6546,-2.20486 0.8268,-1.41249 3.2039,-4.37527 l 2.446,-3.16949 q 0.9646,-1.27469 1.2058,-1.44695 0.379,-0.2756 0.7579,-0.2756 0.7579,0 0.9647,0.82682 0.034,0.1378 0.034,0.34451 0,0.58567 -2.5149,6.44233 -1.4814,3.3762 -2.136,4.44418 -1.1024,1.6881 -2.5494,1.6881 z"
       style="font-style:italic;font-weight:bold;font-size:70.5556px;line-height:1.25;font-family:'Tengwar Annatar';-inkscape-font-specification:'Tengwar Annatar, Bold Italic';fill:none;fill-opacity:1;stroke:#000000;stroke-width:0.264583;stroke-opacity:1"
       id="path1326" /><path
       id="path1328"
       style="font-style:italic;font-weight:bold;font-size:70.5556px;line-height:1.25;font-family:'Tengwar Annatar';-inkscape-font-specification:'Tengwar Annatar, Bold Italic';fill:none;fill-opacity:1;stroke:#000000;stroke-width:0.264583;stroke-opacity:1"
       d="m 1510.5988,68.544137 c -0.8268,0 -1.677,0.126664 -2.5498,0.379305 -2.2048,0.689019 -4.283,2.009295 -6.2352,3.961515 -2.4805,2.480467 -3.7207,5.018701 -3.7207,7.614005 0.023,0.551215 0.1374,1.136882 0.3441,1.756999 0.758,2.227828 2.2277,3.341398 4.4096,3.341398 1.4928,-0.0689 3.1353,-0.861274 4.9268,-2.377116 1.3781,-1.240234 2.0671,-2.284902 2.0671,-3.134692 0,-0.34451 -0.2068,-0.516764 -0.6202,-0.516764 -0.3216,0 -0.6777,0.103352 -1.0681,0.310058 l -1.5849,0.964282 c -0.4594,0 -0.9645,-0.195049 -1.5157,-0.585494 -1.1943,-0.895724 -1.7916,-2.078713 -1.7916,-3.54862 0,-0.459346 0.035,-0.861102 0.1039,-1.205611 0.3215,-1.492875 1.5384,-2.23914 3.6514,-2.23914 0.7579,0 1.5964,0.19505 2.5151,0.585494 2.4805,1.010561 3.7207,2.813667 3.7207,5.408972 0,1.286168 -0.3334,2.629756 -0.9994,4.030762 -1.6077,3.445094 -4.9261,6.970233 -9.956,10.576098 l -6.4425,4.444174 c -1.5566,1.059246 -2.7495,1.875078 -3.7372,2.553848 -0.064,-8.2e-4 -0.1261,-0.004 -0.1902,-0.004 -3.3992,0 -6.6721,0.81516 -9.8185,2.44584 -3.1236,1.60771 -5.8336,3.62867 -8.1303,6.0632 -3.5369,3.7896 -5.3056,7.71701 -5.3056,11.78222 0,1.97519 0.3678,3.55994 1.1028,4.75424 0.8957,1.44693 2.147,2.17041 3.7548,2.17041 1.0794,0 2.1247,-0.36731 3.1352,-1.10226 1.5618,-1.12539 2.3425,-2.56068 2.3425,-4.3062 0,-0.41341 -0.046,-0.79237 -0.1375,-1.13688 -0.1148,-0.39045 -0.4826,-1.02222 -1.1028,-1.89498 -0.8498,-1.24023 -1.2743,-2.80218 -1.2743,-4.6855 0,-1.65364 0.3328,-3.13504 0.9989,-4.44417 0.3215,-0.59715 1.0105,-1.10226 2.0671,-1.51567 1.6536,-0.62011 3.5829,-0.93018 5.7877,-0.93018 1.2173,0 2.308,0.16061 3.2727,0.48215 1.0105,0.3445 2.0557,0.91903 3.1352,1.72289 2.9858,2.27376 4.4788,5.271 4.4788,8.9917 0,0.89572 -0.092,1.84869 -0.2759,2.85925 -1.7455,9.60033 -11.3574,24.0125 -28.8355,43.23612 -6.316,6.93613 -12.4022,13.11399 -18.2588,18.53427 -3.4452,3.21543 -5.2594,4.90353 -5.4431,5.06429 -1.2403,1.26321 -1.8604,2.2856 -1.8604,3.06648 0,0.39045 0.2067,0.5855 0.6202,0.5855 0.5282,0 1.1366,-0.21836 1.8257,-0.65474 0.9876,-0.57419 2.9052,-2.17007 5.7531,-4.78834 l 9.4398,-9.02632 c 12.6549,-12.54015 23.0363,-24.44853 31.1438,-35.72547 9.141,-12.70092 13.7113,-22.35885 13.7113,-28.97343 0,-3.42213 -1.0796,-6.32766 -3.2386,-8.71626 -1.4451,-1.58685 -3.127,-2.6823 -5.0441,-3.29024 l 6.5257,-4.495332 c 2.3197,-1.676612 4.6279,-3.617523 6.9246,-5.822384 6.1093,-5.85666 9.1638,-10.955405 9.1638,-15.296224 0,-1.607711 -0.3901,-3.008544 -1.171,-4.202844 -1.378,-2.044089 -3.5829,-3.066479 -6.6145,-3.066479 z" /><path
       style="font-style:italic;font-weight:bold;font-size:70.5556px;line-height:1.25;font-family:'Tengwar Annatar';-inkscape-font-specification:'Tengwar Annatar, Bold Italic';fill:none;fill-opacity:1;stroke:#000000;stroke-width:0.264583;stroke-opacity:1"
       d="m 1508.1869,124.87163 q 0,-2.99723 2.6528,-4.20302 0.8612,-0.37896 1.4469,-0.37896 0.069,0 0.2756,0 2.7561,0 4.0652,2.13596 0.689,1.10244 0.689,2.41157 0,3.16949 -2.9627,4.27192 -0.8958,0.31006 -1.6192,0.31006 -2.2738,0 -3.6518,-1.79145 -0.8958,-1.17133 -0.8958,-2.75608 z"
       id="path1509" /><path
       style="font-style:italic;font-weight:bold;font-size:70.5556px;line-height:1.25;font-family:'Tengwar Annatar';-inkscape-font-specification:'Tengwar Annatar, Bold Italic';fill:none;fill-opacity:1;stroke:#000000;stroke-width:0.264583;stroke-opacity:1"
       d="m 1514.1814,108.05956 q 0,-2.92834 2.6527,-4.13412 0.8613,-0.41341 1.447,-0.41341 0.069,0 0.31,0 2.7217,0 4.0308,2.10151 0.689,1.06798 0.689,2.44602 0,2.30821 -1.8259,3.68625 -1.1713,0.86128 -2.7561,0.86128 -2.5149,0 -3.7896,-1.92926 -0.7579,-1.13688 -0.7579,-2.61827 z"
       id="path1332" /></g></svg>
