<?xml version="1.0" encoding="UTF-8" standalone="no"?>
<!-- Created with Inkscape (http://www.inkscape.org/) -->

<svg
   width="2962.6011mm"
   height="169.38449mm"
   viewBox="0 0 2962.6011 169.38449"
   version="1.1"
   id="svg5"
   xml:space="preserve"
   sodipodi:docname="H_N_elvish_line_5.svg"
   inkscape:version="1.2.2 (1:1.2.2+202212051552+b0a8486541)"
   xmlns:inkscape="http://www.inkscape.org/namespaces/inkscape"
   xmlns:sodipodi="http://sodipodi.sourceforge.net/DTD/sodipodi-0.dtd"
   xmlns="http://www.w3.org/2000/svg"
   xmlns:svg="http://www.w3.org/2000/svg"><sodipodi:namedview
     id="namedview300"
     pagecolor="#ffffff"
     bordercolor="#666666"
     borderopacity="1.0"
     inkscape:showpageshadow="2"
     inkscape:pageopacity="0.0"
     inkscape:pagecheckerboard="0"
     inkscape:deskcolor="#d1d1d1"
     inkscape:document-units="mm"
     showgrid="false"
     inkscape:zoom="0.33631416"
     inkscape:cx="10027.826"
     inkscape:cy="165.02428"
     inkscape:current-layer="layer1" /><defs
     id="defs2"><rect
       x="-3064.2461"
       y="-1725.2098"
       width="8522.3438"
       height="1127.9735"
       id="rect577" /><rect
       x="5102.8638"
       y="458.32104"
       width="1717.4696"
       height="2384.1938"
       id="rect567" /><rect
       x="4432.1147"
       y="396.8504"
       width="9956.3105"
       height="1159.8926"
       id="rect561" /><rect
       x="-5226.1406"
       y="1528.9053"
       width="13824.299"
       height="3037.7007"
       id="rect473" /><rect
       x="-4957.9775"
       y="1382.0387"
       width="15128.81"
       height="2287.4431"
       id="rect467" /><rect
       x="5102.8638"
       y="458.32104"
       width="819.79352"
       height="161.50455"
       id="rect461" /><rect
       x="58.470253"
       y="119.4372"
       width="11736.415"
       height="832.03381"
       id="rect236" /><rect
       x="88.622437"
       y="649.57916"
       width="639.67432"
       height="440.48877"
       id="rect400" /><rect
       x="80.690262"
       y="181.98399"
       width="557.172"
       height="544.86536"
       id="rect236-5" /><rect
       x="80.690262"
       y="181.98399"
       width="2677.3977"
       height="116.70974"
       id="rect236-0" /></defs><g
     id="layer1"
     style="fill:none;stroke:#000000;stroke-opacity:1"
     transform="translate(1173.024,-40.747901)"><text
       xml:space="preserve"
       transform="scale(0.26458333)"
       id="text459"
       style="font-style:italic;font-variant:normal;font-weight:bold;font-stretch:normal;font-size:113.067px;line-height:1.25;font-family:'Tengwar Annatar';-inkscape-font-specification:'Tengwar Annatar, Bold Italic';font-variant-ligatures:normal;font-variant-caps:normal;font-variant-numeric:normal;font-variant-east-asian:normal;white-space:pre;shape-inside:url(#rect461);display:inline;fill:none;stroke:#000000;stroke-opacity:1" /><text
       xml:space="preserve"
       transform="scale(0.26458333)"
       id="text559"
       style="font-style:italic;font-variant:normal;font-weight:bold;font-stretch:normal;font-size:113.067px;line-height:1.25;font-family:'Tengwar Annatar';-inkscape-font-specification:'Tengwar Annatar, Bold Italic';font-variant-ligatures:normal;font-variant-caps:normal;font-variant-numeric:normal;font-variant-east-asian:normal;white-space:pre;shape-inside:url(#rect561);display:inline;fill:none;stroke:#000000;stroke-opacity:1" /><text
       xml:space="preserve"
       transform="scale(0.26458333)"
       id="text565"
       style="font-style:italic;font-variant:normal;font-weight:bold;font-stretch:normal;font-size:113.067px;line-height:1.25;font-family:'Tengwar Annatar';-inkscape-font-specification:'Tengwar Annatar, Bold Italic';font-variant-ligatures:normal;font-variant-caps:normal;font-variant-numeric:normal;font-variant-east-asian:normal;white-space:pre;shape-inside:url(#rect567);display:inline;fill:none;stroke:#000000;stroke-opacity:1" /><path
       d="m 1582.98,110.09216 q 0,-0.89572 -0.3445,-3.75515 -0.2756,-2.06706 -0.2756,-4.89204 0,-10.955413 5.3399,-21.876373 l 0.4134,-0.826823 q 5.7533,-11.368823 17.9834,-24.012332 4.6853,-4.788686 8.6816,-8.130431 2.515,-2.101509 3.9275,-2.101509 0.5512,0 0.5512,0.551215 0,1.171334 -2.515,3.686255 l -6.3389,6.063372 q -2.4461,2.44602 -4.582,4.857588 -15.6408,17.60445 -15.6408,35.760115 0,10.748703 5.3399,20.153823 1.1369,2.06706 2.515,3.92741 3.4106,4.68533 6.5801,4.75424 0.1723,0 0.379,0 2.9972,0 6.0978,-2.20487 2.1015,-1.48139 2.446,-1.65364 0.6546,-0.31006 1.1713,-0.31006 0.6202,0 0.6202,0.55121 0,1.41249 -2.8939,4.16857 -3.9619,3.75516 -8.6817,5.58106 -1.4125,0.51676 -2.7216,0.79237 -1.2747,0.24116 -2.6527,0.24116 -2.4116,0 -4.3408,-1.37804 -2.3772,-1.72255 -4.961,-5.71886 -1.7225,-2.61828 -3.0661,-5.61551 -0.3101,-0.72347 -0.3445,-0.72347 -0.034,0 -0.3445,0.44786 -3.1351,4.16857 -7.407,7.68257 -5.1677,4.20302 -9.6118,4.92649 -0.9991,0.17225 -2.1015,0.17225 -3.3418,-0.1378 -5.5466,-2.17041 -0.7924,-0.75792 -0.7924,-1.17133 0,-1.06798 2.1704,-3.3762 2.6183,-2.79053 4.582,-3.16949 0.2067,-0.0344 0.4478,-0.0344 0.2756,0 1.1025,0.79237 2.3082,1.86036 4.9265,1.96371 3.9963,0 6.9246,-4.37527 2.5494,-3.78961 2.9283,-8.44049 0.034,-0.58567 0.034,-1.13689 z"
       style="font-style:italic;font-weight:bold;font-size:70.5556px;line-height:1.25;font-family:'Tengwar Annatar';-inkscape-font-specification:'Tengwar Annatar, Bold Italic';fill:none;fill-opacity:1;stroke:#000000;stroke-width:0.264583;stroke-opacity:1"
       id="path1334" /><path
       d="m 1626.4572,108.95528 q 0,-1.10243 1.9292,-3.20394 3.3762,-3.68625 8.2683,-4.96094 1.757,-0.44786 3.5484,-0.51676 h 1.7226 q 1.4469,0 1.8948,0.10335 0.689,0.17225 1.378,0.62012 2.3082,1.51584 2.4805,4.89203 0,0.20671 0,0.37897 0,0.96462 -0.3445,2.65272 4.2719,-3.75516 7.0969,-5.44325 4.3063,-2.58383 7.717,-2.58383 5.3399,0 8.1649,4.51308 1.2057,1.92926 1.6881,4.37528 9.5773,-8.88836 15.434,-8.88836 4.9609,0 7.8204,3.54845 2.3771,2.99724 2.3771,7.47587 0,5.20209 -4.4097,10.8176 -3.8586,4.96094 -9.0262,7.54477 -3.4451,1.757 -6.4079,1.757 -5.581,0 -5.581,-4.13412 0,-2.75608 2.446,-4.40973 1.4814,-0.99907 3.0317,-0.99907 1.3436,0 2.5838,0.93017 1.3436,1.03353 2.4805,1.27469 0.7923,0.17225 1.7914,0.17225 1.9637,0 3.0317,-0.68902 0.2756,-0.17225 0.4134,-0.37896 1.8259,-2.68717 1.8259,-6.09782 0,-4.61643 -3.2728,-7.51031 -1.6881,-1.51585 -3.6174,-1.96371 -0.8268,-0.2067 -1.8259,-0.2067 -3.9618,0 -7.338,4.89203 -0.8269,1.20579 -3.3418,5.64996 -1.0335,1.89481 -1.757,2.89389 -2.4805,3.514 -6.2356,6.44233 -4.7887,3.75516 -9.1984,4.09967 -0.3445,0.0344 -0.9302,0.0344 -5.6155,0 -5.6155,-4.09967 0,-2.82498 2.5149,-4.47863 1.4814,-0.96462 2.9972,-0.96462 1.3781,0 2.6183,0.93017 1.3781,1.03353 2.5149,1.27469 0.7924,0.17225 1.757,0.17225 2.1015,0 3.1351,-0.75792 0.1722,-0.1378 0.2756,-0.31006 1.7914,-2.54937 1.7914,-6.16672 0,-4.37528 -3.1006,-7.30361 -1.8259,-1.72255 -3.9618,-2.13596 -0.7924,-0.17225 -1.5848,-0.17225 -6.7868,0 -13.1947,13.98709 -1.5158,3.23839 -3.824,7.54477 -22.3932,42.09909 -50.0573,69.83213 l -2.5149,2.48047 q -5.3399,5.16765 -7.2692,6.61459 -2.0326,1.51584 -3.1006,1.51584 -0.6201,0 -0.6201,-0.51676 0,-1.17134 2.0326,-3.3073 l 1.5503,-1.48139 q 28.4221,-26.04494 51.2975,-68.38519 l 3.0317,-5.68441 q 2.9972,-5.68441 5.2021,-11.78224 1.6536,-4.51308 1.6536,-6.61459 0,-2.54937 -1.5503,-3.89296 -1.0335,-0.89572 -2.6527,-0.89572 h -0.4134 q -4.1341,0 -5.6844,1.06798 -0.9646,0.68902 -1.3091,0.79237 -0.4823,0.17226 -1.1025,0.24116 -0.6545,0.0689 -0.6545,-0.58567 z"
       style="font-style:italic;font-weight:bold;font-size:70.5556px;line-height:1.25;font-family:'Tengwar Annatar';-inkscape-font-specification:'Tengwar Annatar, Bold Italic';fill:none;fill-opacity:1;stroke:#000000;stroke-width:0.264583;stroke-opacity:1"
       id="path1336" /><path
       d="m 1688.7789,92.281008 q 6.3045,0 9.9908,-2.687176 l 1.9982,-1.515843 q 0.6545,-0.413412 1.2746,-0.413412 0.6202,0 0.6202,0.585667 0,1.378039 -2.9973,3.720706 -6.2701,4.926489 -14.2971,5.098744 -0.3445,0 -0.6546,0 -4.3408,0 -12.6091,-1.550294 -8.0615,-1.515843 -11.6788,-1.688098 -0.8613,-0.03445 -1.6537,-0.03445 -6.2701,0 -9.9563,2.652726 l -2.0671,1.550294 q -0.7235,0.447862 -1.378,0.447862 -0.6546,0 -0.6546,-0.585666 0,-1.136883 2.2738,-3.16949 3.9274,-3.514 9.7151,-4.92649 2.9284,-0.723471 5.9256,-0.723471 4.7198,0 12.299,1.481392 7.4414,1.446942 11.0932,1.688098 1.3781,0.0689 2.7561,0.0689 z"
       style="font-style:italic;font-weight:bold;font-size:70.5556px;line-height:1.25;font-family:'Tengwar Annatar';-inkscape-font-specification:'Tengwar Annatar, Bold Italic';fill:none;fill-opacity:1;stroke:#000000;stroke-width:0.264583;stroke-opacity:1"
       id="path1338" /><path
       d="m 1719.027,109.54095 q -0.6546,0.0689 -0.6546,-0.58567 0,-1.03353 1.8604,-3.10059 3.3417,-3.7207 8.1304,-5.02984 1.6881,-0.44786 3.4451,-0.51676 0.3101,-0.0345 2.0326,-0.0345 1.757,0 2.446,0.2756 0.2412,0.13781 0.5857,0.31006 2.0671,1.20579 2.5838,4.06522 0.1034,0.65457 0.1034,1.34359 0,0.82682 -0.2412,2.48047 v 0.0344 q 0.069,0 0.9646,-0.82683 1.8259,-1.757 5.0299,-3.82406 4.9609,-3.27284 8.6816,-3.27284 5.4088,0 8.1994,4.58198 1.1713,1.89481 1.6536,4.30637 5.4777,-5.09874 9.5429,-7.1658 3.3762,-1.72255 6.0979,-1.72255 4.3063,0 7.1658,3.10059 2.7905,3.06614 2.7905,7.75147 0,5.75331 -4.7542,11.54108 -3.9619,4.82313 -9.1296,7.26915 -3.2039,1.51585 -5.8911,1.51585 -4.582,0 -5.4088,-2.68718 -0.2411,-0.68902 -0.2411,-1.55029 0,-2.61828 2.3771,-4.23747 1.5158,-1.06798 3.135,-1.06798 1.447,0 2.6527,0.96462 1.2403,0.99908 2.1705,1.24024 0.7579,0.2067 1.7225,0.2067 1.8948,0 3.3073,-0.68902 l 0.1378,-0.0689 q 0.6201,-0.37896 1.4125,-2.72162 0.6546,-2.03261 0.6546,-3.75516 0,-4.89204 -3.6863,-7.85482 -0.7579,-0.58567 -1.5158,-0.96463 -1.6192,-0.79237 -3.3418,-0.79237 -3.7896,0 -6.5801,3.5829 -1.0335,1.34359 -3.4796,5.71886 -2.4115,4.27192 -4.3408,6.44233 -6.339,7.20026 -12.9191,8.13043 -0.8268,0.10336 -1.6192,0.10336 -5.3055,0 -5.5811,-3.68626 v -0.34451 q 0,-2.20486 1.7226,-3.92741 1.5847,-1.58474 3.7551,-1.58474 1.447,0 2.6872,0.96462 1.2403,0.99908 2.2738,1.24024 0.7579,0.17225 1.7914,0.17225 2.6528,0 3.514,-0.99907 0.069,-0.0689 0.1034,-0.13781 1.7914,-2.75608 1.7914,-6.06337 0,-5.71886 -4.513,-8.33714 -2.2049,-1.30913 -4.1342,-1.30913 -3.7207,0 -7.1658,4.23747 -2.1359,2.61827 -5.4777,8.61274 -3.824,6.85574 -7.7859,9.85298 -1.7914,1.30914 -2.9972,1.30914 -0.5857,0 -0.5857,-0.55122 0,-0.79237 1.1024,-2.13596 2.0327,-2.51492 3.1006,-4.61643 2.7906,-5.44325 3.7552,-10.23194 0.2756,-1.30914 0.2756,-2.20486 0,-2.65273 -1.6192,-3.99632 -1.0335,-0.86127 -2.5838,-0.86127 h -0.4134 q -4.2375,0 -5.7533,1.06798 -0.9991,0.68902 -1.3092,0.82682 -0.4134,0.13781 -1.0335,0.20671 z"
       style="font-style:italic;font-weight:bold;font-size:70.5556px;line-height:1.25;font-family:'Tengwar Annatar';-inkscape-font-specification:'Tengwar Annatar, Bold Italic';fill:none;fill-opacity:1;stroke:#000000;stroke-width:0.264583;stroke-opacity:1"
       id="path1340" /></g></svg>
