<?xml version="1.0" encoding="UTF-8" standalone="no"?>
<!-- Created with Inkscape (http://www.inkscape.org/) -->

<svg
   width="40.616482mm"
   height="59.229095mm"
   viewBox="0 0 40.616482 59.229096"
   version="1.1"
   id="svg5"
   xml:space="preserve"
   inkscape:version="1.4 (1:1.4+202410161351+e7c3feb100)"
   sodipodi:docname="LoTR_tree_04.svg"
   xmlns:inkscape="http://www.inkscape.org/namespaces/inkscape"
   xmlns:sodipodi="http://sodipodi.sourceforge.net/DTD/sodipodi-0.dtd"
   xmlns:xlink="http://www.w3.org/1999/xlink"
   xmlns="http://www.w3.org/2000/svg"
   xmlns:svg="http://www.w3.org/2000/svg"><sodipodi:namedview
     id="namedview7"
     pagecolor="#ffffff"
     bordercolor="#666666"
     borderopacity="1.0"
     inkscape:showpageshadow="2"
     inkscape:pageopacity="0.0"
     inkscape:pagecheckerboard="0"
     inkscape:deskcolor="#d1d1d1"
     inkscape:document-units="mm"
     showgrid="false"
     inkscape:zoom="4"
     inkscape:cx="61.125001"
     inkscape:cy="121.875"
     inkscape:window-width="1920"
     inkscape:window-height="1043"
     inkscape:window-x="0"
     inkscape:window-y="0"
     inkscape:window-maximized="1"
     inkscape:current-layer="layer1" /><defs
     id="defs2" /><g
     inkscape:label="Layer 1"
     inkscape:groupmode="layer"
     id="layer1"
     transform="translate(-65.102469,-42.37756)"><path
       id="path361"
       style="clip-rule:evenodd;display:inline;fill:none;fill-rule:evenodd;stroke:#000000;stroke-width:0.01;stroke-dasharray:none;stroke-opacity:1;fill-opacity:1"
       d="m 101.3681,56.286979 c 0.0258,0.862551 -0.23708,1.079699 -0.88448,0.437614 -0.8727,-0.773151 -0.29265,0.210192 -0.0884,0.739115 0.59318,0.754863 -0.523902,0.515298 -0.980237,0.715416 -0.292599,0.210672 -1.844071,0.432185 -0.974086,0.632844 0.689124,0.281455 1.400916,0.470447 2.144033,0.531651 -0.14978,0.457308 -0.646913,1.333903 -0.590524,1.542331 0.415084,-0.111957 1.277524,-1.249756 1.278124,-0.411245 0.0648,0.699093 0.40855,1.324548 0.62295,1.984149 0.27223,-0.778111 0.59733,-1.543286 0.64257,-2.376953 0.32691,0.116465 1.43495,1.17308 1.17178,0.579345 -0.0342,-0.453214 -0.98827,-1.413406 -0.17153,-1.397663 0.76431,-0.0568 1.45122,-0.406966 2.16577,-0.652386 -0.82649,-0.305869 -1.65274,-0.612693 -2.54102,-0.666015 0.14976,-0.457352 0.64698,-1.333816 0.59049,-1.542393 -0.40677,0.104647 -1.26582,1.243338 -1.25603,0.39559 -0.0636,-0.693151 -0.40824,-1.312259 -0.61961,-1.966478 -0.16992,0.485026 -0.33985,0.970052 -0.50977,1.455078 z" /><path
       id="path359"
       style="clip-rule:evenodd;display:inline;fill:none;fill-rule:evenodd;stroke:#000000;stroke-width:0.01;stroke-dasharray:none;stroke-opacity:1;fill-opacity:1"
       d="m 68.298828,56.054688 c 0.02345,0.862258 -0.238112,1.082761 -0.88453,0.436723 -0.872335,-0.77647 -0.305061,0.193818 -0.09388,0.732041 0.596579,0.758741 -0.51414,0.526693 -0.978594,0.725486 -0.291781,0.211016 -1.842875,0.43492 -0.971977,0.634035 0.688773,0.279492 1.399607,0.468427 2.14187,0.528355 -0.151825,0.457775 -0.651186,1.333012 -0.596291,1.542475 0.41775,-0.113136 1.28306,-1.249247 1.28558,-0.4133 0.06411,0.700541 0.408211,1.327257 0.623211,1.988013 0.272625,-0.778677 0.597623,-1.544544 0.642578,-2.378907 0.326907,0.116466 1.434951,1.173081 1.171777,0.579346 -0.03418,-0.453214 -0.988272,-1.413406 -0.171528,-1.397663 0.76431,-0.0568 1.45122,-0.406967 2.165766,-0.652386 -0.826487,-0.305869 -1.652741,-0.612693 -2.541015,-0.666015 0.152203,-0.460978 0.647966,-1.337722 0.594588,-1.549911 -0.407807,0.107643 -1.265427,1.249157 -1.258315,0.40313 -0.06421,-0.692983 -0.408466,-1.312191 -0.619476,-1.966501 -0.169922,0.485026 -0.339844,0.970052 -0.509766,1.455079 z" /><path
       id="path357"
       style="clip-rule:evenodd;display:inline;fill:none;fill-rule:evenodd;stroke:#000000;stroke-width:0.01;stroke-dasharray:none;stroke-opacity:1;fill-opacity:1"
       d="m 97.791667,50.579818 c 0.02352,0.862164 -0.238147,1.082812 -0.88488,0.437244 -0.874958,-0.775978 -0.317483,0.179158 -0.09777,0.726106 0.601154,0.760294 -0.503706,0.534345 -0.974411,0.730748 -0.292578,0.210612 -1.844121,0.432331 -0.97403,0.632686 0.689866,0.281153 1.402214,0.470522 2.145933,0.531809 -0.152202,0.460979 -0.647968,1.33772 -0.594587,1.549913 0.416669,-0.11492 1.278806,-1.255237 1.282186,-0.418827 0.06482,0.699093 0.408548,1.324548 0.622948,1.984149 0.272238,-0.778111 0.597336,-1.543286 0.642578,-2.376953 0.324225,0.115577 1.428466,1.178444 1.165346,0.580717 -0.0321,-0.45431 -0.980996,-1.416809 -0.165097,-1.400988 0.764317,-0.0568 1.451227,-0.406966 2.165767,-0.652386 -0.82592,-0.305455 -1.65146,-0.612494 -2.539063,-0.666015 0.149799,-0.457288 0.646893,-1.333941 0.590543,-1.542304 -0.406845,0.105352 -1.265397,1.244951 -1.256089,0.397454 -0.06385,-0.693707 -0.408304,-1.313543 -0.61961,-1.968431 -0.169922,0.485026 -0.339844,0.970052 -0.509765,1.455078 z" /><path
       id="path355"
       style="clip-rule:evenodd;display:inline;fill:none;fill-rule:evenodd;stroke:#000000;stroke-width:0.01;stroke-dasharray:none;stroke-opacity:1;fill-opacity:1"
       d="m 71.085547,49.522135 c 0.02345,0.862259 -0.238113,1.082762 -0.884531,0.436723 -0.872334,-0.776469 -0.30506,0.193818 -0.09388,0.732041 0.596199,0.758386 -0.512095,0.525801 -0.976698,0.723381 -0.292599,0.210672 -1.844071,0.432185 -0.974086,0.632844 0.689124,0.281455 1.400916,0.470448 2.144036,0.531652 -0.149786,0.457307 -0.646916,1.333902 -0.590527,1.542331 0.415085,-0.111958 1.277526,-1.249757 1.278125,-0.411246 0.06482,0.699094 0.408549,1.324548 0.622948,1.984149 0.272239,-0.778111 0.597336,-1.543285 0.642579,-2.376953 0.323343,0.113208 1.430797,1.173938 1.164863,0.575059 -0.03147,-0.45151 -0.982701,-1.41187 -0.164615,-1.393377 0.76431,-0.0568 1.451221,-0.406966 2.165767,-0.652385 -0.826487,-0.30587 -1.652742,-0.612693 -2.541015,-0.666016 0.152202,-0.460977 0.647966,-1.337721 0.594588,-1.549911 -0.407807,0.107643 -1.265427,1.249158 -1.258315,0.40313 -0.06421,-0.692983 -0.408466,-1.31219 -0.619476,-1.9665 -0.169922,0.485026 -0.339844,0.970052 -0.509766,1.455078 z" /><path
       style="clip-rule:evenodd;display:inline;fill:none;fill-opacity:1;fill-rule:evenodd;stroke:#000000;stroke-width:0.01;stroke-dasharray:none;stroke-opacity:1"
       sodipodi:type="inkscape:offset"
       inkscape:radius="0"
       inkscape:original="M 82.027344 47.216797 C 81.293789 46.941798 81.307848 48.177911 81.667969 48.296875 C 82.240567 48.263535 82.053425 49.118671 82.171875 49.494141 C 82.270105 51.161979 83.451079 52.424982 84.193359 53.832031 C 84.223739 54.552338 84.227089 55.27331 84.230469 55.994141 C 83.535978 55.029625 82.323443 54.60413 81.248047 54.345703 C 82.021006 53.897572 81.659469 52.758558 80.953125 52.419922 C 80.570347 52.01596 80.05034 52.440483 79.640625 52.320312 C 79.143627 51.622738 78.673018 50.76004 77.736328 50.609375 C 76.651457 50.38586 75.533662 50.54637 74.435547 50.53125 C 75.342111 51.016455 76.176416 51.719414 77.246094 51.775391 C 78.309398 51.929033 78.752764 53.119838 78.798828 54.066406 C 78.859178 54.498045 79.116047 54.925124 78.583984 54.46875 C 78.022787 54.21328 77.403891 54.103662 76.820312 53.904297 C 77.211303 54.551219 77.478135 55.307994 78.121094 55.75 C 78.118794 56.592267 77.81601 57.543971 78.439453 58.271484 C 78.914444 58.708299 78.782432 59.326431 78.558594 59.853516 C 78.398493 60.332487 78.299429 60.857254 78.425781 61.355469 C 77.754386 61.046809 76.985107 60.771326 76.539062 60.167969 C 76.090772 58.994198 75.527337 57.570239 74.148438 57.275391 C 73.488553 57.101165 72.795319 57.213672 72.121094 57.167969 C 72.732564 57.742895 73.3101 58.383866 74.138672 58.634766 C 74.955024 59.168142 74.788312 60.38511 75.171875 61.058594 C 74.383222 60.480862 72.907324 60.433627 72.533203 61.523438 C 72.160114 62.186076 72.441741 63.038685 73.146484 63.335938 C 73.732141 63.817741 74.245523 64.192775 73.8125 63.1875 C 73.84654 62.849175 73.234709 62.103266 73.835938 62.048828 C 74.740142 61.955538 74.676863 63.074094 74.658203 63.683594 C 74.953426 64.355884 74.032062 64.486667 74.695312 64.650391 C 74.743723 65.067388 74.799425 65.489548 74.955078 65.882812 C 73.8953 64.984453 73.338946 63.419378 71.855469 63.074219 C 70.351704 62.675711 68.775428 63.175003 67.400391 63.78125 C 67.136093 64.357255 67.167209 64.749094 67.898438 64.71875 C 68.616359 64.831155 69.210118 64.268594 69.943359 64.306641 C 70.862945 64.272641 71.894427 64.495059 72.347656 65.392578 C 73.029787 66.556887 74.141504 67.504347 75.5 67.740234 C 75.46447 67.026607 76.445057 68.0344 76.246094 67.949219 C 75.717014 68.431299 75.460139 68.280132 75.123047 68.527344 C 74.510949 68.864048 73.987763 69.820604 73.236328 69.587891 C 73.807095 68.912239 73.006533 67.769292 72.183594 68.205078 C 71.814509 68.472268 71.732671 68.92162 71.236328 68.5 C 70.442251 68.092201 69.199591 68.660592 69.414062 69.654297 C 69.566913 70.454828 70.525778 70.508586 71.177734 70.564453 C 70.975119 69.881 71.215986 69.751227 71.611328 70.320312 C 71.361936 71.210905 71.397638 70.78582 72.03125 70.730469 C 72.43296 70.947248 72.860873 71.002088 72.384766 71.449219 C 71.998897 72.091326 71.196818 72.252701 70.517578 72.386719 C 70.627638 71.71699 70.034802 71.059209 69.349609 71.320312 C 68.43198 71.617465 68.55903 72.857729 69.201172 73.378906 C 69.627808 73.68088 70.030237 73.672882 69.816406 74.279297 C 69.862016 75.319398 70.937631 76.23088 71.96875 75.806641 C 72.948041 75.607268 72.876933 74.119829 71.939453 73.925781 C 71.401323 73.960121 71.102191 73.891626 71.751953 73.630859 C 72.429704 73.371273 73.05866 72.958276 73.552734 72.445312 C 74.227717 73.626874 76.495698 73.513101 76.75 72.068359 C 76.895673 71.394757 76.325158 70.620783 75.595703 70.894531 C 74.587821 70.760391 75.086506 71.258454 75.53125 71.734375 C 75.355721 72.091367 74.694239 71.645084 74.714844 71.242188 C 74.832648 70.672744 75.376386 70.2594 75.767578 69.863281 C 76.507973 69.626821 77.064171 69.016446 77.861328 68.923828 C 78.710466 68.489828 79.751543 68.618365 80.632812 68.208984 C 81.58878 68.130554 82.59682 68.087656 83.53125 68.236328 C 83.891664 68.291608 84.487655 69.155562 83.808594 68.839844 C 82.67223 68.680549 81.491708 68.609566 80.443359 69.193359 C 79.15453 69.88882 78.018311 71.074614 77.902344 72.601562 C 77.779223 73.522252 77.784301 74.938122 76.632812 75.152344 C 75.942007 75.304028 76.434103 74.409622 76.359375 74.0625 C 76.424845 73.443936 76.609041 72.521734 76.044922 73.525391 C 75.505348 74.237812 74.596674 75.124078 75.169922 76.083984 C 75.748923 76.870432 76.967238 76.742741 77.751953 76.365234 C 78.089767 76.214315 78.325226 75.806897 78.568359 75.626953 C 79.512374 76.186439 80.779271 75.491067 81.013672 74.488281 C 82.250831 74.841187 83.397203 73.153896 82.556641 72.136719 C 82.296237 71.690144 81.785297 71.147585 81.927734 70.621094 C 82.561693 70.471256 83.164493 70.988982 83.638672 71.351562 C 84.26097 72.084462 83.996661 73.161037 84.080078 74.052734 C 84.043248 77.879691 83.432424 81.743933 83.419922 85.613281 C 83.363242 87.629068 83.284129 89.615995 83.109375 91.609375 C 82.424771 92.863707 82.11722 94.647149 80.589844 95.154297 C 79.713893 95.380068 78.843955 95.720303 78.234375 96.417969 C 76.871331 97.269423 75.014733 97.129008 73.857422 98.322266 C 73.222257 98.998112 73.667458 99.92756 73.955078 100.64648 C 74.375364 100.25329 74.709816 99.786898 74.972656 99.296875 C 75.736413 99.013202 76.637253 99.219125 77.353516 98.744141 C 78.099214 98.286842 77.796724 99.168711 77.685547 99.556641 C 77.380459 99.938034 77.298551 100.45623 76.816406 100.68555 C 76.558158 101.00886 75.240566 101.79145 76.265625 101.55859 C 77.237832 101.52709 78.326439 101.39857 78.917969 100.51953 C 79.454929 100.03605 79.697533 99.343614 80.113281 98.78125 C 80.63109 98.479534 81.255357 98.430023 81.84375 98.433594 C 82.303004 99.09576 81.382207 99.585034 81.101562 100.10352 C 80.253831 100.8904 81.336169 100.40161 81.859375 100.28125 C 82.585939 100.18275 83.263904 99.773919 83.494141 99.044922 C 83.640896 98.438054 84.525536 98.041575 84.884766 98.697266 C 85.123958 99.069968 85.772427 99.371624 85.537109 99.884766 C 86.163604 100.3863 86.875143 100.94365 87.740234 100.7793 C 88.288353 100.8072 88.750017 100.42471 89.166016 100.21289 C 89.601443 100.54216 90.485325 100.07742 89.546875 99.976562 C 89.722477 99.738191 90.384425 99.497918 90.523438 99.023438 C 90.76388 98.431625 91.238063 98.975564 91.398438 99.332031 C 91.681077 100.02416 91.773746 101.12896 92.726562 101.33008 C 93.045079 101.29488 94.493588 101.34461 93.958984 100.98438 C 93.580668 100.67137 93.033463 100.4214 93.160156 99.832031 C 93.091196 99.397082 93.1688 98.772272 93.767578 98.857422 C 94.388098 98.897552 95.319732 98.522081 95.613281 99.291016 C 96.310586 100.14057 97.564989 100.20303 98.542969 99.884766 C 98.959337 99.749593 97.816711 99.272151 97.595703 98.998047 C 97.049883 98.352053 96.721147 97.394735 95.771484 97.240234 C 95.010455 97.048446 94.246617 96.719775 93.708984 96.087891 C 92.914003 95.626552 91.913591 96.095791 91.115234 95.59375 C 89.884762 95.382093 89.463535 93.958972 88.484375 93.404297 C 88.045137 92.306581 87.680209 91.158053 87.439453 89.994141 C 87.198949 88.614292 87.26632 87.173721 87.068359 85.775391 C 86.838272 84.106547 87.097305 82.304511 86.779297 80.587891 C 86.437347 78.225649 86.660151 75.829813 86.435547 73.458984 C 86.461817 72.782639 86.461463 72.098183 86.501953 71.425781 C 86.945913 70.93433 87.612395 70.460887 88.291016 70.482422 C 88.65437 70.666311 88.178171 71.230931 88.091797 71.490234 C 87.573829 72.119339 87.148312 73.073216 87.773438 73.785156 C 88.141432 74.267542 88.84588 74.606133 89.408203 74.337891 C 89.532303 75.459569 90.9346 76.21352 91.90625 75.613281 C 92.516348 76.622252 93.952677 76.936124 94.964844 76.402344 C 95.762291 75.821803 95.451961 74.659974 94.808594 74.085938 C 94.719484 73.828913 93.613009 72.833509 94.314453 73.160156 C 95.104683 73.396323 96.067754 73.145956 96.503906 72.451172 C 97.074992 73.112816 97.899821 73.46146 98.664062 73.810547 C 98.77801 74.100053 97.88395 73.716107 97.691406 74.144531 C 97.024846 74.677486 97.417547 75.809163 98.261719 75.853516 C 99.449588 76.209839 100.53121 74.819321 100.14844 73.722656 C 101.17208 73.594885 101.876 71.989332 100.85352 71.376953 C 100.21271 71.022473 99.426569 71.55389 99.529297 72.28125 C 99.276107 72.494986 98.607955 72.130497 98.251953 72 C 97.864408 71.824889 97.497963 71.310025 97.431641 71.003906 C 97.873081 70.927996 98.188002 70.357237 98.548828 70.917969 C 98.749575 71.043725 98.098537 70.008143 98.900391 69.890625 C 98.696295 70.536793 99.076582 70.644109 99.714844 70.460938 C 100.59508 70.391818 100.99031 69.192892 100.26953 68.65625 C 99.691969 68.180473 98.890101 68.403747 98.291016 68.714844 C 98.065962 67.842001 96.647613 67.995858 96.628906 68.904297 C 96.619606 69.361609 97.032483 69.848149 96.279297 69.580078 C 95.651616 69.248334 95.203608 68.642923 94.617188 68.230469 C 94.649078 68.758939 93.837107 67.880534 93.501953 67.755859 C 93.096063 67.518157 94.162279 67.724601 94.347656 67.494141 C 94.61037 67.488441 95.132776 67.516375 95.582031 67.296875 C 96.890234 66.92862 97.67489 65.766021 98.417969 64.722656 C 99.150652 63.902857 100.44383 63.95388 101.42578 64.212891 C 102.00276 64.587128 102.67787 64.47914 103.30859 64.283203 C 103.17791 63.822403 103.03191 63.309961 102.46875 63.273438 C 100.83116 62.61891 98.663616 62.214699 97.263672 63.582031 C 96.438126 64.32882 96.027831 65.575451 94.882812 65.923828 C 95.054014 65.499255 95.122253 65.042699 95.164062 64.589844 C 95.82594 64.566454 94.847528 64.213895 95.195312 63.583984 C 95.161433 62.994032 95.163982 61.955154 96.015625 62.048828 C 96.613142 62.079768 96.030361 62.797961 96.056641 63.115234 C 95.651345 64.065817 96.009633 63.91896 96.650391 63.369141 C 97.353104 63.081287 97.710018 62.25761 97.34375 61.572266 C 97.093979 60.716053 96.113985 60.507206 95.351562 60.746094 C 95.63906 59.938963 95.583756 58.775256 96.599609 58.482422 C 97.307493 58.250332 97.755091 57.614937 98.320312 57.167969 C 97.164473 57.159369 95.787826 57.05289 94.970703 58.052734 C 94.251085 58.734165 94.234141 59.868259 93.541016 60.539062 C 93.030113 60.82665 92.540732 61.167532 91.980469 61.355469 C 92.265455 60.443372 91.568076 59.619089 91.658203 58.767578 C 92.158996 58.076389 92.558799 57.240962 92.306641 56.369141 C 92.08961 55.857365 92.444149 55.550146 92.804688 55.267578 C 92.958528 54.900975 93.7127 53.963934 93.373047 53.966797 C 92.686627 54.192147 91.648857 54.362403 91.298828 54.896484 C 91.702813 54.118153 91.463187 53.135159 92.080078 52.439453 C 92.609224 51.481314 93.938074 51.918613 94.683594 51.240234 C 94.925618 51.009974 96.425082 50.456864 95.511719 50.523438 C 94.149163 50.565578 92.433128 50.1611 91.410156 51.330078 C 91.044568 51.65926 90.889185 52.648001 90.232422 52.289062 C 89.220349 51.991259 88.151648 53.430749 88.929688 54.271484 C 89.267452 54.449013 88.208956 54.503286 87.976562 54.685547 C 87.208776 54.943846 86.532341 55.427737 86.046875 56.076172 C 86.14807 55.136542 85.767793 54.063934 86.417969 53.265625 C 87.275498 52.013276 88.141514 50.659116 88.164062 49.085938 C 88.043278 48.430631 88.642913 48.358018 88.822266 48.103516 C 88.971697 47.469195 88.707465 47.105405 88.042969 47.242188 C 86.937335 47.488403 86.950732 48.830666 86.697266 49.707031 C 86.362884 50.553272 85.816464 51.296958 85.15625 51.917969 C 84.378156 51.154628 83.745838 50.360917 83.486328 49.267578 C 83.350379 48.451059 83.109689 47.162589 82.027344 47.216797 z M 90.044922 53.541016 C 90.492207 53.675103 90.221116 54.197876 89.849609 54.191406 C 89.961909 54.008462 89.67469 53.492776 90.044922 53.541016 z M 80.414062 53.548828 C 80.602333 53.78099 80.517943 54.494857 80.134766 53.998047 C 79.923136 53.833888 80.184651 53.45949 80.414062 53.548828 z M 91.25 54.974609 L 91.212891 55.021484 C 90.786215 55.677983 91.152841 56.618811 90.779297 57.214844 C 89.700271 56.728966 88.222853 57.617577 88.345703 58.835938 C 88.612565 59.505974 89.029927 60.117593 89.353516 60.765625 C 89.452856 60.054017 89.300233 59.261418 89.541016 58.59375 C 89.862313 58.240432 90.25346 58.457912 90.095703 58.925781 C 90.181163 59.680906 90.912046 60.542515 90.251953 61.224609 C 89.771907 61.400374 89.20775 61.492142 88.679688 61.533203 C 89.493337 60.500695 88.593438 58.657507 87.222656 58.919922 C 86.860507 58.882922 86.340459 59.387202 86.189453 59.279297 C 86.396196 58.703779 86.661774 58.080982 86.9375 57.511719 C 87.358991 56.6173 88.181921 55.970109 89.169922 55.833984 C 89.890102 55.655105 90.787296 55.657371 91.25 54.974609 z M 79.283203 55.201172 C 80.347976 56.021297 82.032992 55.576728 82.898438 56.748047 C 83.578805 57.47914 83.708701 58.441353 84.228516 59.255859 C 84.269826 59.714132 83.720999 58.974032 83.425781 59.007812 C 82.898132 58.806571 82.253631 58.895196 81.845703 59.300781 C 82.57503 58.278329 81.306638 56.938238 80.207031 57.097656 C 79.589623 57.362877 79.368029 57.010951 79.443359 56.380859 C 79.446959 56.002702 79.401523 55.459675 79.283203 55.201172 z M 80.548828 58.421875 C 81.271152 58.605064 80.869414 59.547291 81.017578 60.074219 C 80.880638 61.17015 81.33207 60.194989 81.330078 60.363281 C 81.239508 60.756321 81.466184 61.259303 81.578125 61.513672 C 81.035777 61.463132 80.470144 61.397616 80.042969 61.125 C 79.506637 60.211922 80.497802 59.385489 80.322266 58.441406 C 80.352646 58.381296 80.492679 58.430516 80.548828 58.421875 z M 82.841797 60.46875 C 83.655383 60.568851 83.803311 61.429953 84.017578 62.064453 C 84.264928 62.287789 84.304115 63.464481 83.988281 62.900391 C 83.929811 62.701179 83.629171 62.215583 83.318359 61.78125 C 83.146419 61.310932 82.510159 61.158308 82.65625 60.578125 C 82.63835 60.441872 82.74026 60.452086 82.841797 60.46875 z M 87.607422 60.46875 C 87.763915 60.836906 87.553992 61.187412 87.246094 61.390625 C 86.962495 61.740745 86.558477 62.472934 86.34375 62.605469 C 86.29756 61.782953 86.539319 60.462135 87.607422 60.46875 z M 75.859375 62.0625 C 75.821795 61.932715 75.831375 61.894979 76.046875 62.152344 C 76.764172 62.943381 77.93182 62.923903 78.919922 63.015625 C 80.064081 63.067915 81.600861 62.745429 82.300781 63.917969 C 82.707764 64.725894 83.507298 65.184235 84.080078 65.835938 C 84.399368 66.558238 83.866693 66.260542 83.441406 66.039062 C 82.911833 65.81398 82.267277 65.789178 81.771484 65.568359 C 82.424594 65.05358 81.925526 64.030943 81.15625 64.007812 C 80.745791 63.88311 80.370993 64.346702 80.115234 63.859375 C 79.408432 63.341866 78.124917 63.34953 77.816406 64.322266 C 77.474349 64.886688 77.739769 65.545471 78.267578 65.882812 C 78.813887 66.289463 77.668516 66.190793 77.365234 66.296875 C 76.685135 66.498478 76.322855 65.609028 76.226562 65.070312 C 76.482354 65.087942 77.104364 65.10678 77.255859 64.664062 C 77.742717 63.739185 76.943645 62.471682 75.955078 62.521484 C 75.981698 62.414121 75.896955 62.192285 75.859375 62.0625 z M 93.023438 62.830078 C 92.296233 63.350786 92.178152 64.924655 93.244141 65.089844 C 93.893337 64.803253 93.532191 65.558661 93.333984 65.84375 C 93.046398 66.278988 92.385958 65.828613 91.949219 65.845703 C 91.366077 65.785823 92.526558 65.2326 92.175781 64.744141 C 92.070331 63.96524 91.350736 63.313575 90.541016 63.548828 C 90.088232 63.545328 89.699135 63.93308 89.394531 64.109375 C 88.64398 63.677052 87.419972 64.42446 87.865234 65.318359 C 88.273467 65.678529 87.276444 65.542123 87.056641 65.755859 C 86.766214 65.781969 86.083043 66.438894 86.351562 65.798828 C 86.940145 65.168978 87.709363 64.699473 88.117188 63.902344 C 88.852236 62.712946 90.428451 63.087737 91.599609 63.013672 C 92.068456 63.007372 92.637655 62.914536 93.023438 62.830078 z M 79.015625 64.857422 C 79.448376 65.000427 79.66761 65.443411 79.783203 65.857422 C 79.436599 65.807172 78.450753 66.40234 78.685547 65.794922 C 78.836049 65.561134 78.708757 64.912573 79.015625 64.857422 z M 90.902344 64.857422 C 91.068863 65.166985 91.360694 65.9737 90.679688 65.595703 C 89.978556 65.713145 90.255654 65.183785 90.626953 64.966797 C 90.700213 64.894387 90.795556 64.840884 90.902344 64.857422 z M 88.091797 68.144531 C 88.881735 68.071151 89.628358 68.268864 90.371094 68.492188 C 91.195323 68.543747 91.915888 68.832596 92.6875 69.064453 C 93.281843 69.258563 93.74416 69.731327 94.355469 69.904297 C 94.660189 70.366832 95.406104 70.739916 95.292969 71.361328 C 95.366679 71.832276 94.190341 72.078362 94.636719 71.580078 C 95.424458 70.945939 94.936167 70.849323 94.162109 70.871094 C 93.139978 70.802174 93.01371 72.38638 93.742188 72.875 C 94.220555 73.204288 93.952082 73.989459 94.117188 74.511719 C 94.338199 74.994671 94.078299 75.36321 93.5625 75.091797 C 92.479424 74.574734 92.700822 73.1527 92.460938 72.166016 C 92.148882 70.574084 90.741048 69.427732 89.285156 68.898438 C 88.380165 68.636747 87.483548 68.710894 86.5625 68.859375 C 86.00255 69.061668 86.4358 67.849082 86.972656 68.166016 C 87.345982 68.158916 87.718467 68.151321 88.091797 68.144531 z M 89.949219 71.025391 L 90.154297 71.210938 C 90.583349 71.645281 90.898337 72.19747 91.037109 72.792969 C 90.564814 72.965116 90.105346 73.167022 89.683594 73.423828 C 89.230348 73.393898 88.675632 73.105515 88.998047 72.574219 C 89.250552 72.019949 89.825923 71.646798 89.949219 71.025391 z M 80.363281 71.193359 C 80.508958 71.959554 81.597032 72.431912 81.3125 73.273438 C 80.77302 73.775608 80.320765 73.011043 79.748047 72.933594 C 79.082436 72.846944 79.674793 72.145209 79.820312 71.792969 C 79.962175 71.603279 80.202681 71.202387 80.363281 71.193359 z M 79.279297 73.515625 C 79.332564 73.460511 79.443507 73.585979 79.652344 73.964844 C 80.03612 74.268218 79.242364 74.694994 79.25 74.152344 C 79.23044 73.806435 79.22603 73.570739 79.279297 73.515625 z M 91.177734 73.5625 C 91.284882 73.856742 91.202954 74.717822 90.744141 74.304688 C 90.51591 74.109421 91.220845 73.302242 91.177734 73.5625 z M 88.382812 98.21875 C 88.845313 98.23393 88.719015 98.667189 88.457031 98.865234 C 88.011098 99.115742 89.187046 99.552526 88.792969 99.765625 C 88.320977 99.541562 87.533084 99.802014 87.40625 99.097656 C 87.100164 98.405384 87.802295 98.101487 88.382812 98.21875 z "
       xlink:href="#path1006"
       id="path1"
       inkscape:href="#path1006"
       d="m 82.027344,47.216797 c -0.733555,-0.274999 -0.719496,0.961114 -0.359375,1.080078 0.572598,-0.03334 0.385456,0.821796 0.503906,1.197266 0.09823,1.667838 1.279204,2.930841 2.021484,4.33789 0.03038,0.720307 0.03373,1.441279 0.03711,2.16211 -0.694491,-0.964516 -1.907026,-1.390011 -2.982422,-1.648438 0.772959,-0.448131 0.411422,-1.587145 -0.294922,-1.925781 -0.382778,-0.403962 -0.902785,0.02056 -1.3125,-0.09961 -0.496998,-0.697574 -0.967607,-1.560272 -1.904297,-1.710937 -1.084871,-0.223515 -2.202666,-0.063 -3.300781,-0.07813 0.906564,0.485205 1.740869,1.188164 2.810547,1.244141 1.063304,0.153642 1.50667,1.344447 1.552734,2.291015 0.06035,0.431639 0.317219,0.858718 -0.214844,0.402344 -0.561197,-0.25547 -1.180093,-0.365088 -1.763672,-0.564453 0.390991,0.646922 0.657823,1.403697 1.300782,1.845703 -0.0023,0.842267 -0.305084,1.793971 0.318359,2.521484 0.474991,0.436815 0.342979,1.054947 0.119141,1.582032 -0.160101,0.478971 -0.259165,1.003738 -0.132813,1.501953 -0.671395,-0.30866 -1.440674,-0.584143 -1.886719,-1.1875 -0.44829,-1.173771 -1.011725,-2.59773 -2.390624,-2.892578 -0.659885,-0.174226 -1.353119,-0.06172 -2.027344,-0.107422 0.61147,0.574926 1.189006,1.215897 2.017578,1.466797 0.816352,0.533376 0.64964,1.750344 1.033203,2.423828 -0.788653,-0.577732 -2.264551,-0.624967 -2.638672,0.464844 -0.373089,0.662638 -0.09146,1.515247 0.613281,1.8125 0.585657,0.481803 1.099039,0.856837 0.666016,-0.148438 0.03404,-0.338325 -0.577791,-1.084234 0.02344,-1.138672 0.904204,-0.09329 0.840925,1.025266 0.822265,1.634766 0.295223,0.67229 -0.626141,0.803073 0.03711,0.966797 0.04841,0.416997 0.104113,0.839157 0.259766,1.232421 -1.059778,-0.898359 -1.616132,-2.463434 -3.099609,-2.808593 -1.503765,-0.398508 -3.080041,0.100784 -4.455078,0.707031 -0.264298,0.576005 -0.233182,0.967844 0.498047,0.9375 0.717921,0.112405 1.31168,-0.450156 2.044921,-0.412109 0.919586,-0.034 1.951068,0.188418 2.404297,1.085937 0.682131,1.164309 1.793848,2.111769 3.152344,2.347656 -0.03553,-0.713627 0.945057,0.294166 0.746094,0.208985 -0.52908,0.48208 -0.785955,0.330913 -1.123047,0.578125 -0.612098,0.336704 -1.135284,1.29326 -1.886719,1.060547 0.570767,-0.675652 -0.229795,-1.818599 -1.052734,-1.382813 -0.369085,0.26719 -0.450923,0.716542 -0.947266,0.294922 -0.794077,-0.407799 -2.036737,0.160592 -1.822266,1.154297 0.152851,0.800531 1.111716,0.854289 1.763672,0.910156 -0.202615,-0.683453 0.03825,-0.813226 0.433594,-0.244141 -0.249392,0.890593 -0.21369,0.465508 0.419922,0.410157 0.40171,0.216779 0.829623,0.271619 0.353516,0.71875 -0.385869,0.642107 -1.187948,0.803482 -1.867188,0.9375 0.11006,-0.669729 -0.482776,-1.32751 -1.167969,-1.066407 -0.917629,0.297153 -0.790579,1.537417 -0.148437,2.058594 0.426636,0.301974 0.829065,0.293976 0.615234,0.900391 0.04561,1.040101 1.121225,1.951583 2.152344,1.527344 0.979291,-0.199373 0.908183,-1.686812 -0.0293,-1.88086 -0.53813,0.03434 -0.837262,-0.03415 -0.1875,-0.294922 0.677751,-0.259586 1.306707,-0.672583 1.800781,-1.185547 0.674983,1.181562 2.942964,1.067789 3.197266,-0.376953 0.145673,-0.673602 -0.424842,-1.447576 -1.154297,-1.173828 -1.007882,-0.13414 -0.509197,0.363923 -0.06445,0.839844 -0.175529,0.356992 -0.837011,-0.08929 -0.816406,-0.492187 0.117804,-0.569444 0.661542,-0.982788 1.052734,-1.378907 0.740395,-0.23646 1.296593,-0.846835 2.09375,-0.939453 0.849138,-0.434 1.890215,-0.305463 2.771484,-0.714844 0.955968,-0.07843 1.964008,-0.121328 2.898438,0.02734 0.360414,0.05528 0.956405,0.919234 0.277344,0.603516 -1.136364,-0.159295 -2.316886,-0.230278 -3.365235,0.353515 -1.288829,0.695461 -2.425048,1.881255 -2.541015,3.408203 -0.123121,0.92069 -0.118043,2.33656 -1.269532,2.550782 -0.690805,0.151684 -0.198709,-0.742722 -0.273437,-1.089844 0.06547,-0.618564 0.249666,-1.540766 -0.314453,-0.537109 -0.539574,0.712421 -1.448248,1.598687 -0.875,2.558593 0.579001,0.786448 1.797316,0.658757 2.582031,0.28125 0.337814,-0.150919 0.573273,-0.558337 0.816406,-0.738281 0.944015,0.559486 2.210912,-0.135886 2.445313,-1.138672 1.237159,0.352906 2.383531,-1.334385 1.542969,-2.351562 -0.260404,-0.446575 -0.771344,-0.989134 -0.628907,-1.515625 0.633959,-0.149838 1.236759,0.367888 1.710938,0.730468 0.622298,0.7329 0.357989,1.809475 0.441406,2.701172 -0.03683,3.826957 -0.647654,7.691199 -0.660156,11.560547 -0.05668,2.015787 -0.135793,4.002714 -0.310547,5.996094 -0.684604,1.254332 -0.992155,3.037774 -2.519531,3.544922 -0.875951,0.225771 -1.745889,0.566006 -2.355469,1.263672 -1.363044,0.851454 -3.219642,0.711039 -4.376953,1.904297 -0.635165,0.675846 -0.189964,1.605294 0.09766,2.324214 0.420286,-0.39319 0.754738,-0.859582 1.017578,-1.349605 0.763757,-0.283673 1.664597,-0.07775 2.38086,-0.552734 0.745698,-0.457299 0.443208,0.42457 0.332031,0.8125 -0.305088,0.381393 -0.386996,0.899589 -0.869141,1.128909 -0.258248,0.32331 -1.57584,1.1059 -0.550781,0.87304 0.972207,-0.0315 2.060814,-0.16002 2.652344,-1.03906 0.53696,-0.48348 0.779564,-1.175916 1.195312,-1.73828 0.517809,-0.301716 1.142076,-0.351227 1.730469,-0.347656 0.459254,0.662166 -0.461543,1.15144 -0.742188,1.669926 -0.847731,0.78688 0.234607,0.29809 0.757813,0.17773 0.726564,-0.0985 1.404529,-0.507331 1.634766,-1.236328 0.146755,-0.606868 1.031395,-1.003347 1.390625,-0.347656 0.239192,0.372702 0.887661,0.674358 0.652343,1.1875 0.626495,0.501534 1.338034,1.058884 2.203125,0.894534 0.548119,0.0279 1.009783,-0.35459 1.425782,-0.56641 0.435427,0.32927 1.319309,-0.13547 0.380859,-0.236328 0.175602,-0.238371 0.83755,-0.478644 0.976563,-0.953124 0.240442,-0.591813 0.714625,-0.04787 0.875,0.308593 0.282639,0.692129 0.375308,1.796929 1.328124,1.998049 0.318517,-0.0352 1.767026,0.0145 1.232422,-0.3457 -0.378316,-0.31301 -0.925521,-0.56298 -0.798828,-1.152349 -0.06896,-0.434949 0.0086,-1.059759 0.607422,-0.974609 0.62052,0.04013 1.552154,-0.335341 1.845703,0.433594 0.697305,0.849554 1.951708,0.912014 2.929688,0.59375 0.416368,-0.135173 -0.726258,-0.612615 -0.947266,-0.886719 -0.54582,-0.645994 -0.874556,-1.603312 -1.824219,-1.757813 -0.761029,-0.191788 -1.524867,-0.520459 -2.0625,-1.152343 -0.794981,-0.461339 -1.795393,0.0079 -2.59375,-0.494141 -1.230472,-0.211657 -1.651699,-1.634778 -2.630859,-2.189453 -0.439238,-1.097716 -0.804166,-2.246244 -1.044922,-3.410156 -0.240504,-1.379849 -0.173133,-2.82042 -0.371094,-4.21875 -0.230087,-1.668844 0.02895,-3.47088 -0.289062,-5.1875 -0.34195,-2.362242 -0.119146,-4.758078 -0.34375,-7.128907 0.02627,-0.676345 0.02592,-1.360801 0.06641,-2.033203 0.44396,-0.491451 1.110442,-0.964894 1.789063,-0.943359 0.363354,0.183889 -0.112845,0.748509 -0.199219,1.007812 -0.517968,0.629105 -0.943485,1.582982 -0.318359,2.294922 0.367994,0.482386 1.072442,0.820977 1.634765,0.552735 0.1241,1.121678 1.526397,1.875629 2.498047,1.27539 0.610098,1.008971 2.046427,1.322843 3.058594,0.789063 0.797447,-0.580541 0.487117,-1.74237 -0.15625,-2.316406 -0.08911,-0.257025 -1.195585,-1.252429 -0.494141,-0.925782 0.79023,0.236167 1.753301,-0.0142 2.189453,-0.708984 0.571086,0.661644 1.395915,1.010288 2.160156,1.359375 0.113948,0.289506 -0.780112,-0.09444 -0.972656,0.333984 -0.66656,0.532955 -0.273859,1.664632 0.570313,1.708985 1.187869,0.356323 2.269491,-1.034195 1.886721,-2.13086 1.02364,-0.127771 1.72756,-1.733324 0.70508,-2.345703 -0.64081,-0.35448 -1.426951,0.176937 -1.324223,0.904297 -0.25319,0.213736 -0.921342,-0.150753 -1.277344,-0.28125 -0.387545,-0.175111 -0.75399,-0.689975 -0.820312,-0.996094 0.44144,-0.07591 0.756361,-0.646669 1.117187,-0.08594 0.200747,0.125756 -0.450291,-0.909826 0.351563,-1.027344 -0.204096,0.646168 0.176191,0.753484 0.814453,0.570313 0.880236,-0.06912 1.275466,-1.268046 0.554686,-1.804688 -0.577561,-0.475777 -1.379429,-0.252503 -1.978514,0.05859 -0.225054,-0.872843 -1.643403,-0.718986 -1.66211,0.189453 -0.0093,0.457312 0.403577,0.943852 -0.349609,0.675781 -0.627681,-0.331744 -1.075689,-0.937155 -1.662109,-1.349609 0.03189,0.52847 -0.780081,-0.349935 -1.115235,-0.47461 -0.40589,-0.237702 0.660326,-0.03126 0.845703,-0.261718 0.262714,-0.0057 0.78512,0.02223 1.234375,-0.197266 1.308203,-0.368255 2.092859,-1.530854 2.835938,-2.574219 0.732683,-0.819799 2.025861,-0.768776 3.007811,-0.509765 0.57698,0.374237 1.25209,0.266249 1.88281,0.07031 -0.13068,-0.4608 -0.27668,-0.973242 -0.83984,-1.009765 -1.63759,-0.654528 -3.805134,-1.058739 -5.205078,0.308593 -0.825546,0.746789 -1.235841,1.99342 -2.38086,2.341797 0.171202,-0.424573 0.239441,-0.881129 0.28125,-1.333984 0.661878,-0.02339 -0.316534,-0.375949 0.03125,-1.00586 -0.03388,-0.589952 -0.03133,-1.62883 0.820313,-1.535156 0.597517,0.03094 0.01474,0.749133 0.04102,1.066406 -0.405296,0.950583 -0.04701,0.803726 0.59375,0.253907 0.702713,-0.287854 1.059627,-1.111531 0.693359,-1.796875 -0.249771,-0.856213 -1.229765,-1.06506 -1.992188,-0.826172 0.287498,-0.807131 0.232194,-1.970838 1.248047,-2.263672 0.707884,-0.23209 1.155482,-0.867485 1.720703,-1.314453 -1.155839,-0.0086 -2.532486,-0.115079 -3.349609,0.884765 -0.719618,0.681431 -0.736562,1.815525 -1.429687,2.486328 -0.510903,0.287588 -1.000284,0.62847 -1.560547,0.816407 0.284986,-0.912097 -0.412393,-1.73638 -0.322266,-2.587891 0.500793,-0.691189 0.900596,-1.526616 0.648438,-2.398437 -0.217031,-0.511776 0.137508,-0.818995 0.498047,-1.101563 0.15384,-0.366603 0.908012,-1.303644 0.568359,-1.300781 -0.68642,0.22535 -1.72419,0.395606 -2.074219,0.929687 0.403985,-0.778331 0.164359,-1.761325 0.78125,-2.457031 0.529146,-0.958139 1.857996,-0.52084 2.603516,-1.199219 0.242024,-0.23026 1.741488,-0.78337 0.828125,-0.716796 -1.362556,0.04214 -3.078591,-0.362338 -4.101563,0.80664 -0.365588,0.329182 -0.520971,1.317923 -1.177734,0.958984 -1.012073,-0.297803 -2.080774,1.141687 -1.302734,1.982422 0.337764,0.177529 -0.720732,0.231802 -0.953126,0.414063 -0.767786,0.258299 -1.444221,0.74219 -1.929687,1.390625 0.101195,-0.93963 -0.279082,-2.012238 0.371094,-2.810547 0.857529,-1.252349 1.723545,-2.606509 1.746093,-4.179687 -0.120784,-0.655307 0.478851,-0.72792 0.658204,-0.982422 0.149431,-0.634321 -0.114801,-0.998111 -0.779297,-0.861328 -1.105634,0.246215 -1.092237,1.588478 -1.345703,2.464843 -0.334382,0.846241 -0.880802,1.589927 -1.541016,2.210938 -0.778094,-0.763341 -1.410412,-1.557052 -1.669922,-2.650391 -0.135949,-0.816519 -0.376639,-2.104989 -1.458984,-2.050781 z m 8.017578,6.324219 c 0.447285,0.134087 0.176194,0.65686 -0.195313,0.65039 0.1123,-0.182944 -0.174919,-0.69863 0.195313,-0.65039 z m -9.63086,0.0078 c 0.188271,0.232162 0.103881,0.946029 -0.279296,0.449219 -0.21163,-0.164159 0.04989,-0.538557 0.279296,-0.449219 z M 91.25,54.974609 l -0.03711,0.04687 c -0.426676,0.656499 -0.06005,1.597327 -0.433594,2.19336 -1.079026,-0.485878 -2.556444,0.402733 -2.433594,1.621094 0.266862,0.670036 0.684224,1.281655 1.007813,1.929687 0.09934,-0.711608 -0.05328,-1.504207 0.1875,-2.171875 0.321297,-0.353318 0.712444,-0.135838 0.554687,0.332031 0.08546,0.755125 0.816343,1.616734 0.15625,2.298828 -0.480046,0.175765 -1.044203,0.267533 -1.572265,0.308594 0.813649,-1.032508 -0.08625,-2.875696 -1.457032,-2.613281 -0.362149,-0.037 -0.882197,0.46728 -1.033203,0.359375 0.206743,-0.575518 0.472321,-1.198315 0.748047,-1.767578 0.421491,-0.894419 1.244421,-1.54161 2.232422,-1.677735 0.72018,-0.178879 1.617374,-0.176613 2.080078,-0.859375 z m -11.966797,0.226563 c 1.064773,0.820125 2.749789,0.375556 3.615235,1.546875 0.680367,0.731093 0.810263,1.693306 1.330078,2.507812 0.04131,0.458273 -0.507517,-0.281827 -0.802735,-0.248047 -0.527649,-0.201241 -1.17215,-0.112616 -1.580078,0.292969 0.729327,-1.022452 -0.539065,-2.362543 -1.638672,-2.203125 -0.617408,0.265221 -0.839002,-0.08671 -0.763672,-0.716797 0.0036,-0.378157 -0.04184,-0.921184 -0.160156,-1.179687 z m 1.265625,3.220703 c 0.722324,0.183189 0.320586,1.125416 0.46875,1.652344 -0.13694,1.095931 0.314492,0.12077 0.3125,0.289062 -0.09057,0.39304 0.136106,0.896022 0.248047,1.150391 -0.542348,-0.05054 -1.107981,-0.116056 -1.535156,-0.388672 -0.536332,-0.913078 0.454833,-1.739511 0.279297,-2.683594 0.03038,-0.06011 0.170413,-0.01089 0.226562,-0.01953 z m 2.292969,2.046875 c 0.813586,0.100101 0.961514,0.961203 1.175781,1.595703 0.24735,0.223336 0.286537,1.400028 -0.0293,0.835938 -0.05847,-0.199212 -0.35911,-0.684808 -0.669922,-1.119141 -0.17194,-0.470318 -0.8082,-0.622942 -0.662109,-1.203125 -0.0179,-0.136253 0.08401,-0.126039 0.185547,-0.109375 z m 4.765625,0 c 0.156493,0.368156 -0.05343,0.718662 -0.361328,0.921875 -0.283599,0.35012 -0.687617,1.082309 -0.902344,1.214844 -0.04619,-0.822516 0.195569,-2.143334 1.263672,-2.136719 z M 75.859375,62.0625 c -0.03758,-0.129785 -0.028,-0.167521 0.1875,0.08984 0.717297,0.791037 1.884945,0.771559 2.873047,0.863281 1.144159,0.05229 2.680939,-0.270196 3.380859,0.902344 0.406983,0.807925 1.206517,1.266266 1.779297,1.917969 0.31929,0.7223 -0.213385,0.424604 -0.638672,0.203124 -0.529573,-0.225082 -1.174129,-0.249884 -1.669922,-0.470703 0.65311,-0.514779 0.154042,-1.537416 -0.615234,-1.560547 -0.410459,-0.124702 -0.785257,0.33889 -1.041016,-0.148437 -0.706802,-0.517509 -1.990317,-0.509845 -2.298828,0.462891 -0.342057,0.564422 -0.07664,1.223205 0.451172,1.560546 0.546309,0.406651 -0.599062,0.307981 -0.902344,0.414063 -0.680099,0.201603 -1.042379,-0.687847 -1.138672,-1.226563 0.255792,0.01763 0.877802,0.03647 1.029297,-0.40625 0.486858,-0.924877 -0.312214,-2.19238 -1.300781,-2.142578 0.02662,-0.107363 -0.05812,-0.329199 -0.0957,-0.458984 z m 10.699219,0.662109 c -0.216384,-0.187701 -0.422195,0.674174 0,0 z m 6.464844,0.105469 c -0.385783,0.08446 -0.954982,0.177294 -1.423829,0.183594 -1.171158,0.07406 -2.747373,-0.300726 -3.482421,0.888672 -0.407825,0.797129 -1.177043,1.266634 -1.765626,1.896484 -0.268519,0.640066 0.414652,-0.01686 0.705079,-0.04297 0.219803,-0.213736 1.216826,-0.07733 0.808593,-0.4375 -0.445262,-0.893899 0.778746,-1.641307 1.529297,-1.208984 0.304604,-0.176295 0.693701,-0.564047 1.146485,-0.560547 0.80972,-0.235253 1.529315,0.416412 1.634765,1.195313 0.350777,0.488459 -0.809704,1.041682 -0.226562,1.101562 0.436739,-0.01709 1.097179,0.433285 1.384765,-0.002 0.198207,-0.285089 0.559353,-1.040497 -0.08984,-0.753906 -1.065989,-0.165189 -0.947908,-1.739058 -0.220703,-2.259766 z m -14.007813,2.027344 c 0.432751,0.143005 0.651985,0.585989 0.767578,1 -0.346604,-0.05025 -1.33245,0.544918 -1.097656,-0.0625 0.150502,-0.233788 0.02321,-0.882349 0.330078,-0.9375 z m 11.886719,0 c -0.106788,-0.01654 -0.202131,0.03696 -0.275391,0.109375 -0.371299,0.216988 -0.648397,0.746348 0.05273,0.628906 0.681006,0.377997 0.389175,-0.428718 0.222656,-0.738281 z m -2.810547,3.287109 c 0.789938,-0.07338 1.536561,0.124333 2.279297,0.347657 0.824229,0.05156 1.544794,0.340408 2.316406,0.572265 0.594343,0.19411 1.05666,0.666874 1.667969,0.839844 0.30472,0.462535 1.050635,0.835619 0.9375,1.457031 0.07371,0.470948 -1.102628,0.717034 -0.65625,0.21875 0.787739,-0.634139 0.299448,-0.730755 -0.47461,-0.708984 -1.022131,-0.06892 -1.148399,1.515286 -0.419921,2.003906 0.478367,0.329288 0.209894,1.114459 0.375,1.636719 0.221011,0.482952 -0.03889,0.851491 -0.554688,0.580078 -1.083076,-0.517063 -0.861678,-1.939097 -1.101562,-2.925781 -0.312056,-1.591932 -1.71989,-2.738284 -3.175782,-3.267578 -0.904991,-0.261691 -1.801608,-0.187544 -2.722656,-0.03906 -0.55995,0.202293 -0.1267,-1.010293 0.410156,-0.693359 0.373326,-0.0071 0.745811,-0.0147 1.119141,-0.02148 z m 1.857422,2.88086 0.205078,0.185547 c 0.429052,0.434343 0.74404,0.986532 0.882812,1.582031 -0.472295,0.172147 -0.931763,0.374053 -1.353515,0.630859 -0.453246,-0.02993 -1.007962,-0.318313 -0.685547,-0.849609 0.252505,-0.55427 0.827876,-0.927421 0.951172,-1.548828 z m -9.585938,0.167968 c 0.145677,0.766195 1.233751,1.238553 0.949219,2.080079 -0.53948,0.50217 -0.991735,-0.262395 -1.564453,-0.339844 -0.665611,-0.08665 -0.07325,-0.788385 0.07227,-1.140625 0.141863,-0.18969 0.382369,-0.590582 0.542969,-0.59961 z m -1.966797,1.095703 c -0.04652,0.05213 -0.0058,0.171515 0.263672,0.203126 -0.08336,-0.240111 -0.217147,-0.255251 -0.263672,-0.203126 z m 13.681641,0.08203 c -0.136,-0.290812 -0.427652,0.336006 0,0 z m -12.798828,1.144531 c 0.05327,-0.05511 0.16421,0.07035 0.373047,0.449219 0.383776,0.303374 -0.40998,0.73015 -0.402344,0.1875 -0.01956,-0.345909 -0.02397,-0.581605 0.0293,-0.636719 z m 11.898437,0.04687 c 0.107148,0.294242 0.02522,1.155322 -0.433593,0.742188 -0.228231,-0.195267 0.476704,-1.002446 0.433593,-0.742188 z m -2.794922,24.65625 c 0.462501,0.01518 0.336203,0.448439 0.07422,0.646484 -0.445933,0.250508 0.730015,0.687292 0.335938,0.900391 -0.471992,-0.224063 -1.259885,0.03639 -1.386719,-0.667969 -0.306086,-0.692272 0.396045,-0.996169 0.976562,-0.878906 z" /><path
       id="path1006"
       style="clip-rule:evenodd;display:inline;fill:none;fill-opacity:1;fill-rule:evenodd;stroke:#000000;stroke-width:0.01;stroke-dasharray:none;stroke-opacity:1"
       d="m 82.027344,47.216797 c -0.733555,-0.274999 -0.719275,0.960447 -0.359154,1.079411 0.572598,-0.03334 0.385235,0.822463 0.503685,1.197933 0.09823,1.667838 1.279204,2.930841 2.021484,4.33789 0.03038,0.720307 0.03373,1.441279 0.03711,2.16211 -0.694491,-0.964516 -1.907026,-1.390011 -2.982422,-1.648438 0.772959,-0.448131 0.410973,-1.587993 -0.295371,-1.926629 -0.382778,-0.403962 -0.902336,0.02141 -1.312051,-0.09876 -0.496998,-0.697574 -0.967607,-1.560272 -1.904297,-1.710937 -1.084871,-0.223515 -2.202666,-0.06301 -3.300781,-0.07813 0.906564,0.485205 1.740869,1.188164 2.810547,1.244141 1.063304,0.153642 1.50667,1.344447 1.552734,2.291015 0.06035,0.431639 0.317776,0.858608 -0.214287,0.402234 -0.561197,-0.25547 -1.180651,-0.364978 -1.764229,-0.564343 0.39099,0.646922 0.657823,1.403697 1.300782,1.845703 -0.0023,0.842267 -0.305009,1.793397 0.318434,2.52091 0.474991,0.436815 0.342333,1.056328 0.118495,1.583413 -0.160101,0.478971 -0.258594,1.002931 -0.132242,1.501146 -0.671395,-0.30866 -1.440675,-0.584143 -1.886719,-1.1875 -0.44829,-1.173771 -1.011286,-2.597719 -2.390186,-2.892567 -0.659884,-0.174226 -1.353557,-0.06173 -2.027782,-0.107433 0.61147,0.574926 1.189006,1.215897 2.017578,1.466797 0.816352,0.533376 0.64964,1.750344 1.033203,2.423828 -0.788653,-0.577732 -2.26488,-0.624849 -2.639001,0.464961 -0.373089,0.662638 -0.09094,1.514758 0.613803,1.81201 0.585657,0.481804 1.097994,0.856576 0.664971,-0.148699 0.03404,-0.338325 -0.576939,-1.0836 0.02429,-1.138038 0.904204,-0.09329 0.841291,1.025656 0.822631,1.635156 0.295223,0.67229 -0.626511,0.802683 0.03674,0.966407 0.04841,0.416997 0.104113,0.839157 0.259766,1.232421 -1.059778,-0.89836 -1.616132,-2.463434 -3.099609,-2.808593 -1.503765,-0.398508 -3.080041,0.100784 -4.455078,0.707031 -0.264298,0.576005 -0.233181,0.967844 0.498047,0.9375 0.717921,0.112405 1.31168,-0.450156 2.044921,-0.412109 0.919586,-0.034 1.951607,0.188427 2.404836,1.085946 0.682131,1.164309 1.793309,2.11176 3.151805,2.347647 -0.03553,-0.713627 0.945057,0.294166 0.746094,0.208985 -0.52908,0.48208 -0.786686,0.33111 -1.123778,0.578322 -0.612098,0.336704 -1.134553,1.293063 -1.885988,1.06035 0.570767,-0.675652 -0.229795,-1.818599 -1.052734,-1.382813 -0.369085,0.26719 -0.450923,0.716542 -0.947266,0.294922 -0.794077,-0.407799 -2.036738,0.160592 -1.822266,1.154297 0.15285,0.800531 1.111716,0.854289 1.763672,0.910156 -0.202615,-0.683453 0.03808,-0.812524 0.433422,-0.243439 -0.249392,0.890593 -0.213179,0.465651 0.420433,0.4103 0.40171,0.216779 0.829524,0.270405 0.353417,0.717536 -0.385869,0.642107 -1.188188,0.803851 -1.867428,0.937869 0.11006,-0.669729 -0.482776,-1.32751 -1.167969,-1.066407 -0.917629,0.297153 -0.790579,1.537417 -0.148437,2.058594 0.426636,0.301974 0.828753,0.294213 0.614922,0.900628 0.04561,1.040101 1.121537,1.951346 2.152656,1.527107 0.979291,-0.199373 0.90818,-1.686812 -0.0293,-1.88086 -0.53813,0.03434 -0.837712,-0.03383 -0.18795,-0.294597 0.677751,-0.259586 1.307157,-0.672909 1.801231,-1.185872 0.674983,1.181562 2.942964,1.067789 3.197266,-0.376953 0.145673,-0.673602 -0.424985,-1.448148 -1.15444,-1.1744 -1.007882,-0.13414 -0.509054,0.364495 -0.06431,0.840416 -0.175529,0.356992 -0.837011,-0.08929 -0.816406,-0.492187 0.117804,-0.569443 0.660596,-0.983662 1.051788,-1.379781 0.740395,-0.23646 1.297321,-0.846078 2.094478,-0.938696 0.849138,-0.434 1.890433,-0.305346 2.771702,-0.714727 0.955967,-0.07843 1.964008,-0.121332 2.898438,0.02734 0.360414,0.05528 0.956405,0.919234 0.277344,0.603516 -1.136364,-0.159295 -2.316886,-0.230278 -3.365235,0.353515 -1.288829,0.695461 -2.42523,1.880395 -2.541197,3.407343 -0.123121,0.92069 -0.117862,2.33742 -1.26935,2.551642 -0.690806,0.151684 -0.198452,-0.742188 -0.27318,-1.08931 0.06547,-0.618564 0.248641,-1.540412 -0.315478,-0.536755 -0.539574,0.712421 -1.44748,1.597799 -0.874232,2.557705 0.579001,0.786448 1.797316,0.658757 2.582031,0.28125 0.337814,-0.150919 0.573273,-0.558337 0.816406,-0.738281 0.944015,0.559486 2.210912,-0.135886 2.445313,-1.138672 1.237159,0.352906 2.383531,-1.334385 1.542969,-2.351562 -0.260404,-0.446575 -0.771344,-0.989134 -0.628907,-1.515625 0.633959,-0.149838 1.236759,0.367888 1.710938,0.730468 0.622298,0.732899 0.357989,1.809475 0.441406,2.701172 -0.03683,3.826957 -0.648194,7.691878 -0.660696,11.561226 -0.05668,2.015787 -0.134347,4.002915 -0.309101,5.996295 -0.684604,1.254332 -0.992226,3.037267 -2.519602,3.544415 -0.875951,0.225771 -1.746724,0.565633 -2.356304,1.263299 -1.363044,0.851454 -3.21876,0.711179 -4.376071,1.904437 -0.635165,0.675846 -0.19085,1.605147 0.09677,2.324071 0.420286,-0.39319 0.754738,-0.859579 1.017578,-1.349602 0.763757,-0.283673 1.664597,-0.07775 2.38086,-0.552734 0.745698,-0.457299 0.443723,0.425382 0.332546,0.813312 -0.305088,0.381393 -0.388246,0.899544 -0.870391,1.128864 -0.258248,0.32331 -1.575498,1.10558 -0.550439,0.87272 0.972207,-0.0315 2.061123,-0.16083 2.652653,-1.03987 0.53696,-0.48348 0.779648,-1.175553 1.195396,-1.737917 0.517809,-0.301716 1.142076,-0.351227 1.730469,-0.347656 0.459254,0.662166 -0.460656,1.151521 -0.741301,1.670003 -0.847732,0.78688 0.23322,0.29741 0.756426,0.17705 0.726564,-0.0985 1.405058,-0.506212 1.635295,-1.235209 0.146755,-0.606868 1.031366,-1.003863 1.390596,-0.348172 0.239192,0.372702 0.887661,0.674358 0.652343,1.1875 0.626495,0.501531 1.337694,1.058531 2.202785,0.894181 0.548119,0.0279 1.010123,-0.35424 1.426122,-0.56606 0.435427,0.32927 1.318753,-0.13518 0.380303,-0.236042 0.175602,-0.238372 0.837366,-0.47846 0.976379,-0.952941 0.240442,-0.591812 0.715366,-0.04834 0.87574,0.308127 0.282639,0.692126 0.375307,1.796926 1.328124,1.998046 0.318516,-0.0352 1.767801,0.0138 1.233197,-0.34644 -0.378316,-0.313 -0.925588,-0.56258 -0.798895,-1.151945 -0.06896,-0.434949 0.0079,-1.058886 0.606678,-0.973736 0.62052,0.04013 1.55219,-0.335875 1.845739,0.43306 0.697305,0.849551 1.952221,0.911131 2.930201,0.592866 0.416368,-0.135173 -0.727421,-0.611296 -0.948429,-0.8854 -0.54582,-0.645994 -0.873298,-1.602879 -1.822961,-1.75738 -0.761029,-0.191788 -1.525475,-0.521327 -2.063108,-1.153211 -0.794981,-0.461339 -1.795393,0.0079 -2.59375,-0.494141 -1.230472,-0.211657 -1.652347,-1.634886 -2.631507,-2.189561 -0.439238,-1.097716 -0.803518,-2.246136 -1.044274,-3.410048 -0.240504,-1.379849 -0.172269,-2.820049 -0.37023,-4.218379 -0.230087,-1.668844 0.02771,-3.470312 -0.290298,-5.186932 -0.34195,-2.362242 -0.118906,-4.759716 -0.34351,-7.130545 0.02627,-0.676345 0.02605,-1.360102 0.06654,-2.032504 0.44396,-0.491451 1.110442,-0.964894 1.789063,-0.943359 0.363354,0.183889 -0.112845,0.748509 -0.199219,1.007812 -0.517968,0.629105 -0.943484,1.582982 -0.318359,2.294922 0.367995,0.482386 1.072442,0.820977 1.634765,0.552735 0.1241,1.121678 1.526397,1.875629 2.498047,1.27539 0.610098,1.008971 2.046427,1.322843 3.058594,0.789063 0.797447,-0.580541 0.486227,-1.743142 -0.15714,-2.317178 -0.08911,-0.257025 -1.194695,-1.251657 -0.493251,-0.92501 0.79023,0.236167 1.753301,-0.0142 2.189453,-0.708984 0.571086,0.661644 1.395914,1.010288 2.160156,1.359375 0.113948,0.289506 -0.780112,-0.09444 -0.972656,0.333984 -0.66656,0.532955 -0.273535,1.665096 0.570637,1.709449 1.187869,0.356323 2.269165,-1.034659 1.886395,-2.131324 1.02364,-0.127771 1.72756,-1.733324 0.70508,-2.345703 -0.64081,-0.35448 -1.426728,0.177275 -1.324,0.904635 -0.25319,0.213736 -0.920887,-0.151188 -1.276889,-0.281685 -0.387545,-0.175111 -0.754666,-0.689878 -0.820988,-0.995997 0.44144,-0.07591 0.755629,-0.646402 1.116455,-0.08567 0.200747,0.125756 -0.449559,-0.910091 0.352295,-1.027609 -0.204096,0.646168 0.176191,0.753485 0.814453,0.570313 0.880234,-0.06912 1.275464,-1.268046 0.554684,-1.804688 -0.577562,-0.475777 -1.379427,-0.252507 -1.978512,0.05859 -0.225054,-0.872843 -1.643403,-0.718986 -1.66211,0.189453 -0.0093,0.457312 0.403577,0.943852 -0.349609,0.675781 -0.627681,-0.331744 -1.075688,-0.937155 -1.662109,-1.349609 0.03189,0.52847 -0.780081,-0.349935 -1.115235,-0.47461 -0.40589,-0.237702 0.659758,-0.03031 0.845135,-0.26077 0.262714,-0.0057 0.785013,0.02175 1.234268,-0.19775 1.308203,-0.368255 2.094326,-1.531155 2.837405,-2.57452 0.732683,-0.819799 2.025067,-0.768939 3.007017,-0.509928 0.57698,0.374237 1.25209,0.266247 1.88281,0.07031 -0.13068,-0.4608 -0.27668,-0.973242 -0.83984,-1.009765 -1.63759,-0.654528 -3.805132,-1.058739 -5.205076,0.308593 -0.825546,0.746789 -1.235842,1.99342 -2.38086,2.341797 0.171202,-0.424573 0.239441,-0.881129 0.28125,-1.333984 0.661877,-0.02339 -0.316535,-0.375949 0.03125,-1.00586 -0.03388,-0.589952 -0.03133,-1.62883 0.820313,-1.535156 0.597517,0.03094 0.01408,0.748703 0.04036,1.065976 -0.405296,0.950583 -0.04561,0.803907 0.595148,0.254088 0.702713,-0.287854 1.058551,-1.1114 0.692283,-1.796744 -0.249771,-0.856213 -1.229436,-1.064942 -1.991859,-0.826054 0.287497,-0.807131 0.231234,-1.971659 1.247087,-2.264493 0.707884,-0.23209 1.156441,-0.866664 1.721663,-1.313632 -1.15584,-0.0086 -2.53335,-0.115529 -3.350473,0.884315 -0.719618,0.681431 -0.736614,1.816032 -1.429739,2.486836 -0.510903,0.287588 -0.999368,0.628412 -1.559631,0.816349 0.284986,-0.912097 -0.412393,-1.73638 -0.322266,-2.587891 0.500793,-0.691189 0.90029,-1.527148 0.648132,-2.398969 -0.217031,-0.511776 0.137814,-0.818463 0.498353,-1.101031 0.15384,-0.366603 0.907945,-1.304463 0.568292,-1.3016 -0.68642,0.22535 -1.724123,0.396425 -2.074152,0.930506 0.403985,-0.778331 0.164613,-1.761593 0.781504,-2.457299 0.529146,-0.958139 1.857232,-0.520448 2.602752,-1.198827 0.242024,-0.23026 1.742471,-0.783826 0.829108,-0.717253 -1.362556,0.04214 -3.079064,-0.362005 -4.102036,0.806973 -0.365588,0.329182 -0.520971,1.317922 -1.177734,0.958984 -1.012073,-0.297804 -2.080774,1.141687 -1.302734,1.982422 0.337764,0.177529 -0.721123,0.231699 -0.953516,0.41396 -0.767787,0.258299 -1.443831,0.742293 -1.929297,1.390728 0.101195,-0.93963 -0.278099,-2.013066 0.372077,-2.811375 0.857529,-1.252349 1.722562,-2.605681 1.74511,-4.178859 -0.120784,-0.655306 0.478851,-0.728702 0.658204,-0.983204 0.149431,-0.634321 -0.114801,-0.997328 -0.779297,-0.860546 -1.105634,0.246216 -1.092237,1.588478 -1.345703,2.464843 -0.334382,0.846241 -0.880802,1.589927 -1.541016,2.210938 -0.778094,-0.763341 -1.410412,-1.557052 -1.669922,-2.650391 -0.135949,-0.816519 -0.376639,-2.104989 -1.458984,-2.050781 z m -1.613282,6.332031 c 0.18827,0.232162 0.104725,0.946349 -0.278452,0.449539 -0.21163,-0.164159 0.04904,-0.538877 0.278452,-0.449539 z m 9.63086,-0.0078 c 0.447285,0.134087 0.176194,0.65686 -0.195313,0.65039 0.1123,-0.182944 -0.174919,-0.69863 0.195313,-0.65039 z m 1.167969,1.480468 c -0.426676,0.656499 -0.06005,1.597327 -0.433594,2.19336 -1.079026,-0.485878 -2.556444,0.402733 -2.433594,1.621094 0.266862,0.670036 0.684224,1.281655 1.007813,1.929687 0.09934,-0.711608 -0.05383,-1.504129 0.186953,-2.171797 0.321297,-0.353318 0.712991,-0.135916 0.555234,0.331953 0.08546,0.755125 0.816343,1.616734 0.15625,2.298828 -0.480046,0.175765 -1.044203,0.267533 -1.572265,0.308594 0.81365,-1.032508 -0.08625,-2.875696 -1.457032,-2.613281 -0.362149,-0.037 -0.882866,0.467103 -1.033872,0.359198 0.206743,-0.575518 0.472348,-1.198107 0.748074,-1.76737 0.421491,-0.894419 1.244891,-1.542493 2.232892,-1.678618 0.72018,-0.178879 1.617546,-0.175761 2.08025,-0.858523 z m -11.929688,0.179688 c 1.064773,0.820125 2.749343,0.376165 3.614788,1.547484 0.680367,0.731093 0.81071,1.692697 1.330525,2.507203 0.04131,0.458273 -0.508271,-0.282308 -0.803489,-0.248527 -0.527649,-0.201241 -1.171396,-0.112136 -1.579324,0.293449 0.729327,-1.022452 -0.539065,-2.362543 -1.638672,-2.203125 -0.617408,0.265221 -0.839148,-0.08576 -0.763818,-0.715852 0.0036,-0.378157 -0.04169,-0.922129 -0.16001,-1.180632 z m 1.265625,3.220703 c 0.722324,0.183189 0.320906,1.124844 0.46907,1.651772 -0.13694,1.095931 0.314172,0.121342 0.31218,0.289634 -0.09057,0.39304 0.136106,0.896022 0.248047,1.150391 -0.542348,-0.05054 -1.107981,-0.116056 -1.535156,-0.388672 -0.536332,-0.913078 0.454833,-1.739511 0.279297,-2.683594 0.03038,-0.06011 0.170413,-0.01089 0.226562,-0.01953 z m 2.292969,2.046875 c 0.813586,0.100101 0.961514,0.961203 1.175781,1.595703 0.24735,0.223336 0.286534,1.400028 -0.0293,0.835938 -0.05847,-0.199212 -0.359753,-0.684542 -0.670565,-1.118875 -0.17194,-0.470318 -0.807557,-0.623208 -0.661466,-1.203391 -0.0179,-0.136253 0.08401,-0.126039 0.185547,-0.109375 z m 4.765625,0 c 0.156493,0.368156 -0.05343,0.718662 -0.361328,0.921875 -0.283599,0.35012 -0.687617,1.082309 -0.902344,1.214844 -0.04619,-0.822516 0.195569,-2.143334 1.263672,-2.136719 z m -11.560547,1.683594 c 0.717297,0.791037 1.884945,0.771559 2.873047,0.863281 1.144159,0.05229 2.681474,-0.269802 3.381394,0.902738 0.406983,0.807925 1.205982,1.265872 1.778762,1.917575 0.31929,0.7223 -0.213958,0.423662 -0.639245,0.202183 -0.529573,-0.225082 -1.173556,-0.248943 -1.669349,-0.469762 0.65311,-0.514779 0.154042,-1.537417 -0.615234,-1.560547 -0.410459,-0.124703 -0.785257,0.33889 -1.041016,-0.148437 -0.706802,-0.517509 -1.989394,-0.508958 -2.297905,0.463778 -0.342057,0.564422 -0.07693,1.221764 0.450879,1.559105 0.546309,0.406651 -0.598764,0.308812 -0.902046,0.414894 -0.680099,0.201603 -1.043656,-0.688347 -1.139948,-1.227062 0.255792,0.01763 0.87815,0.03669 1.029645,-0.406028 0.486858,-0.924877 -0.312214,-2.19238 -1.300781,-2.142578 0.05324,-0.214726 -0.3392,-0.88387 0.0918,-0.36914 z m 17.851563,0.404297 c -0.03245,0.0084 0.0122,-0.02572 0,0 z m -0.875,0.273437 c -0.727204,0.520708 -0.845286,2.094577 0.220703,2.259766 0.649196,-0.286591 0.287387,0.46874 0.08918,0.753829 -0.287586,0.435238 -0.946783,-0.01479 -1.383522,0.0023 -0.583142,-0.05988 0.576831,-0.612837 0.226054,-1.101296 -0.10545,-0.778901 -0.825119,-1.431104 -1.634839,-1.195851 -0.452784,-0.0035 -0.841881,0.384252 -1.146485,0.560547 -0.750551,-0.432323 -1.974559,0.315085 -1.529297,1.208984 0.408233,0.36017 -0.589699,0.224398 -0.809502,0.438134 -0.290427,0.02611 -0.972689,0.682396 -0.70417,0.04233 0.588582,-0.62985 1.3586,-1.099741 1.766424,-1.89687 0.735048,-1.189398 2.310746,-0.814997 3.481904,-0.889062 0.468847,-0.0063 1.037766,-0.09836 1.423548,-0.182818 z m -14.007813,2.027344 c 0.432751,0.143005 0.651985,0.585989 0.767578,1 -0.346604,-0.05025 -1.33237,0.545348 -1.097576,-0.06207 0.150502,-0.233788 0.02313,-0.882779 0.329998,-0.93793 z m 11.886719,0 c 0.166519,0.309563 0.458351,1.116278 -0.222656,0.738281 -0.701131,0.117442 -0.423369,-0.411 -0.05207,-0.627988 0.07326,-0.07241 0.167938,-0.126831 0.274726,-0.110293 z m -2.810547,3.287109 c 0.789938,-0.07338 1.535617,0.124992 2.278353,0.348316 0.824229,0.05156 1.54544,0.339581 2.317052,0.571438 0.594343,0.19411 1.056958,0.667042 1.668267,0.840012 0.30472,0.462535 1.050635,0.835619 0.9375,1.457031 0.07371,0.470948 -1.101847,0.717435 -0.655469,0.219151 0.787739,-0.634139 0.298189,-0.731852 -0.475869,-0.710081 -1.022131,-0.06892 -1.147921,1.515982 -0.419443,2.004602 0.478367,0.329288 0.210485,1.114253 0.375591,1.636513 0.221011,0.482952 -0.03853,0.850982 -0.554329,0.579569 -1.083076,-0.517063 -0.862953,-1.938751 -1.102838,-2.925435 -0.312055,-1.591932 -1.719564,-2.737915 -3.175456,-3.267209 -0.904991,-0.261691 -1.801608,-0.187541 -2.722656,-0.03906 -0.55995,0.202293 -0.127537,-1.01025 0.409319,-0.693316 0.373326,-0.0071 0.746648,-0.01474 1.119978,-0.02153 z m 2.0625,3.066407 c 0.429052,0.434344 0.74404,0.986532 0.882812,1.582031 -0.472295,0.172147 -0.931763,0.374053 -1.353515,0.630859 -0.453246,-0.02993 -1.008454,-0.319062 -0.686039,-0.850358 0.252505,-0.55427 0.828368,-0.926672 0.951664,-1.548079 z m -9.791016,-0.01758 c 0.145677,0.766195 1.233751,1.238554 0.949219,2.080079 -0.53948,0.50217 -0.991014,-0.261562 -1.563732,-0.339011 -0.665611,-0.08665 -0.07398,-0.789218 0.07154,-1.141458 0.141862,-0.18969 0.382369,-0.590582 0.542969,-0.59961 z m -0.710937,2.771485 c 0.383776,0.303374 -0.40998,0.73015 -0.402344,0.1875 -0.03912,-0.691818 -0.01533,-0.945229 0.402344,-0.1875 z M 91.177734,73.5625 c 0.107148,0.294242 0.02522,1.155323 -0.433593,0.742188 -0.228231,-0.195266 0.476704,-1.002446 0.433593,-0.742188 z m -2.794922,24.65625 c 0.4625,0.01518 0.336514,0.449027 0.07453,0.647072 -0.445933,0.250508 0.729141,0.686973 0.335064,0.900072 -0.471992,-0.224063 -1.259323,0.03612 -1.386157,-0.668238 -0.306086,-0.692272 0.396045,-0.996169 0.976563,-0.878906 z m 1.808594,1.378906 c 0.01203,-0.0084 0.03481,-0.09039 0,0 z"
       sodipodi:nodetypes="cccccccccccccccccccccccccccccccccccccccccccccccccccccccccccccccccccccccccccccccccccccccccccccccccccccccccccccccccccccccccccccccccccccccccccccccccccccccccccccccccccccccccccccccccccccccccccccccccccccccccccccccccccccccccccsccccssccccscccccccccccccssccsccccccccccccsccccccccscccccccccccccssccccccscccssccccccccccccc" /><path
       id="path345"
       style="clip-rule:evenodd;display:inline;fill:none;fill-rule:evenodd;stroke:#000000;stroke-width:0.01;stroke-dasharray:none;stroke-opacity:1;fill-opacity:1"
       d="m 92.352865,44.012891 c 0.02512,0.862564 -0.235899,1.082636 -0.882577,0.436723 -0.872335,-0.776469 -0.305061,0.193818 -0.09388,0.732041 0.596199,0.758386 -0.512095,0.525801 -0.976698,0.723381 -0.292599,0.210672 -1.844071,0.432185 -0.974086,0.632844 0.688566,0.281018 1.399614,0.470382 2.142083,0.531652 -0.151825,0.457775 -0.651186,1.333011 -0.596291,1.542474 0.417799,-0.113143 1.28294,-1.249227 1.285711,-0.413321 0.06446,0.699817 0.40838,1.325902 0.62308,1.986081 0.272238,-0.778111 0.597336,-1.543285 0.642578,-2.376953 0.326907,0.116465 1.434951,1.17308 1.171777,0.579345 -0.03418,-0.453213 -0.988272,-1.413406 -0.171528,-1.397663 0.76431,-0.0568 1.45122,-0.406966 2.165767,-0.652385 -0.826488,-0.30587 -1.652742,-0.612694 -2.541016,-0.666016 0.152217,-0.460957 0.647939,-1.337762 0.594607,-1.549882 -0.408468,0.108495 -1.266663,1.250207 -1.260021,0.405011 -0.06325,-0.693876 -0.408077,-1.313612 -0.619742,-1.96841 -0.169922,0.485026 -0.339844,0.970052 -0.509766,1.455078 z" /><path
       id="path248"
       style="clip-rule:evenodd;display:inline;fill:none;fill-rule:evenodd;stroke:#000000;stroke-width:0.01;stroke-dasharray:none;stroke-opacity:1;fill-opacity:1"
       d="m 77.21888,43.848308 c 0.02585,0.862551 -0.23708,1.079698 -0.884474,0.437614 -0.872705,-0.773151 -0.292651,0.210192 -0.08844,0.739115 0.593176,0.754863 -0.523906,0.515298 -0.980241,0.715416 -0.292599,0.210671 -1.84407,0.432185 -0.974086,0.632844 0.688566,0.281017 1.399614,0.470382 2.142083,0.531651 -0.153531,0.461349 -0.650876,1.337013 -0.598378,1.550085 0.418685,-0.115279 1.28309,-1.253634 1.287929,-0.419 0.06482,0.699094 0.408549,1.324549 0.622949,1.98415 0.272238,-0.778112 0.597336,-1.543286 0.642578,-2.376953 0.325947,0.115235 1.434137,1.172597 1.170108,0.577271 -0.03355,-0.452885 -0.986764,-1.414258 -0.16975,-1.396867 0.76451,-0.05492 1.451176,-0.405909 2.165658,-0.651108 -0.826029,-0.305374 -1.651694,-0.612227 -2.539063,-0.667968 0.149771,-0.45733 0.646945,-1.333858 0.590506,-1.542363 -0.407543,0.105529 -1.266798,1.244329 -1.258006,0.397513 -0.06361,-0.693151 -0.408241,-1.312259 -0.619609,-1.966478 -0.169922,0.485026 -0.339844,0.970052 -0.509766,1.455078 z" /></g></svg>
