<?xml version="1.0" encoding="UTF-8" standalone="no"?>
<!-- Created with Inkscape (http://www.inkscape.org/) -->

<svg
   width="40mm"
   height="57.333279mm"
   viewBox="0 0 40 57.333279"
   version="1.1"
   id="svg5"
   xml:space="preserve"
   inkscape:version="1.2.2 (b0a8486, 2022-12-01)"
   sodipodi:docname="the-lord-of-the-rings2.svg"
   xmlns:inkscape="http://www.inkscape.org/namespaces/inkscape"
   xmlns:sodipodi="http://sodipodi.sourceforge.net/DTD/sodipodi-0.dtd"
   xmlns="http://www.w3.org/2000/svg"
   xmlns:svg="http://www.w3.org/2000/svg"><sodipodi:namedview
     id="namedview7"
     pagecolor="#ffffff"
     bordercolor="#666666"
     borderopacity="1.0"
     inkscape:showpageshadow="2"
     inkscape:pageopacity="0.0"
     inkscape:pagecheckerboard="0"
     inkscape:deskcolor="#d1d1d1"
     inkscape:document-units="mm"
     showgrid="false"
     inkscape:zoom="5.6568542"
     inkscape:cx="68.500969"
     inkscape:cy="77.163028"
     inkscape:window-width="1920"
     inkscape:window-height="975"
     inkscape:window-x="0"
     inkscape:window-y="34"
     inkscape:window-maximized="1"
     inkscape:current-layer="g392" /><defs
     id="defs2" /><g
     inkscape:label="Layer 1"
     inkscape:groupmode="layer"
     id="layer1"
     transform="translate(-65.000001,-43.5932)"><g
       id="g392"
       transform="matrix(0.09506525,0,0,0.09506525,93.567467,53.390043)"
       style="fill:none;stroke:#000000;stroke-opacity:1;stroke-width:0.10519092;stroke-dasharray:none"><path
         style="clip-rule:evenodd;display:inline;fill:none;fill-rule:evenodd;stroke:#000000;stroke-width:0.105191;stroke-dasharray:none;stroke-opacity:1"
         d="m 96.267339,55.973105 -2.669022,18.563568 -5.707685,-3.788816 2.723381,6.446966 -18.536388,3.006048 18.362439,2.647279 -2.712509,6.430659 5.452198,-3.625739 2.978869,18.3407 2.652714,-18.411367 5.441324,3.614867 -2.70707,-6.398043 18.71577,-3.033227 -18.56357,-2.674459 2.72339,-6.430658 -5.207588,3.462662 z"
         id="path361" /><path
         style="clip-rule:evenodd;display:inline;fill:none;fill-rule:evenodd;stroke:#000000;stroke-width:0.105191;stroke-dasharray:none;stroke-opacity:1"
         d="m -276.30862,55.973105 -2.67989,18.563568 -5.70225,-3.788816 2.72338,6.446966 -18.53639,3.006048 18.36244,2.647279 -2.71795,6.430659 5.45764,-3.625739 2.97343,18.3407 2.65815,-18.411367 5.44133,3.614867 -2.70708,-6.398043 18.71034,-3.033227 -18.55269,-2.674459 2.71794,-6.430658 -5.20758,3.462662 z"
         id="path359" /><path
         style="clip-rule:evenodd;display:inline;fill:none;fill-rule:evenodd;stroke:#000000;stroke-width:0.105191;stroke-dasharray:none;stroke-opacity:1"
         d="M 24.187427,-24.228028 21.512968,-5.6644609 15.810719,-9.4587127 18.539536,-3.0117462 -0.00228753,-2.6262116e-4 18.360152,2.6470162 15.642206,9.0776751 21.099841,5.4519359 24.073273,23.792632 26.725988,5.3758334 32.17275,8.9961367 29.471113,2.5980932 l 18.7049,-3.03866298 -18.552695,-2.67445832 2.712509,-6.4197871 -5.196712,3.4572266 z"
         id="path357" /><path
         style="clip-rule:evenodd;display:inline;fill:none;fill-rule:evenodd;stroke:#000000;stroke-width:0.105191;stroke-dasharray:none;stroke-opacity:1"
         d="m -205.24522,-24.228028 -2.67989,18.5635671 -5.70225,-3.7942518 2.72338,6.4469665 -18.53639,3.01148357884 18.36244,2.64727882116 -2.71794,6.4306589 5.45763,-3.6257392 2.97343,18.3406961 2.65815,-18.4167986 5.44133,3.6203033 -2.70164,-6.3980435 18.7049,-3.03866298 -18.55269,-2.67445832 2.71251,-6.4197871 -5.20215,3.4572266 z"
         id="path355" /><path
         style="clip-rule:evenodd;display:inline;fill:none;fill-rule:evenodd;stroke:#000000;stroke-width:0.105191;stroke-dasharray:none;stroke-opacity:1;fill-opacity:1"
         d="m -81.662211,89.12559 c 1.616274,-3.60659 2.103362,-7.877006 3.904941,-11.490459 2.172191,-4.340949 8.004415,-7.990521 12.709113,-8.697426 5.957223,-0.895642 8.78962,2.657388 8.33322,8.333221 -0.161285,2.010906 -0.41295,4.67943 -1.250255,6.474146 -0.984864,2.106991 -3.529142,2.555059 -4.359584,4.174764 3.352653,-0.665726 7.447538,-6.148402 8.229939,-9.453014 1.358906,-5.686128 -1.650382,-12.943623 -7.463479,-14.573624 -0.703045,-0.196886 -1.418026,-0.309204 -2.147176,-0.342461 -5.104054,-0.232798 -10.647824,3.286859 -13.812599,6.947069 -1.300569,1.506463 -3.010736,6.058627 -4.716232,9.222544 -0.340507,-6.683434 -0.56798,-13.941599 -1.121915,-20.610735 3.417854,-3.977202 5.412608,-12.531021 7.615683,-16.497929 2.553096,-4.588024 5.148837,-8.733035 8.594144,-12.665625 5.428759,-6.204297 15.4687,-9.008584 23.711356,-10.583679 6.231748,-1.19419 13.60243,-1.589044 15.671673,-8.376708 1.897664,-6.2111607 1.14896,-13.6840422 4.158456,-18.3406964 1.420675,-2.1927798 2.69633,-4.9691736 4.185636,-7.2134266 6.214592,-9.33733 20.5149772,-7.964411 24.0048943,-10.339066 -6.1734127,0.140695 -12.1055424,-0.134852 -17.7916703,2.696202 -6.053307,3.016359 -7.06616,7.460131 -10.871782,12.5079852 -2.868801,3.8021908 -5.32917,5.3975608 -10.181424,4.1965077 -3.805623,-0.9436845 -3.99734,-2.1024323 -7.555888,0.5707686 -2.360927,1.7672638 -4.616314,4.36132961 -4.218251,7.4634781 2.728106,5.8302547 0.927201,0.016003 1.435075,-0.021743 -0.106379,-6.0704654 8.019205,-8.806366 12.535164,-4.4139434 6.84257,6.6504024 1.555515,14.0882568 -5.153224,15.6118788 -6.399897,1.45499 -24.608074,4.235086 -33.300268,13.263574 -3.572274,3.712968 -7.070348,8.361935 -10.659782,12.23619 -1.146147,1.235369 -2.294801,2.958406 -3.506149,4.468302 l 0.02714,-38.8992355 c 0.857895,-2.0246322 1.832175,-4.07106695 3.033227,-6.2295309 3.953181,-7.1239604 9.413796,-13.6649526 13.013523,-20.9227436 3.25657,-6.57834 5.112625,-11.813591 5.778352,-19.047362 0.367179,-3.946317 1.211655,-17.670166 7.343889,-17.248081 v -0.407692 c -1.21158,-0.259484 -2.475986,-0.0783 -3.565945,0.510973 -4.498801,2.580548 -5.837664,11.959437 -6.637223,16.622955 -1.279979,7.504865 -5.077231,12.823113 -8.958348,19.188694 -3.69238,6.046444 -10.490859,10.419416 -13.877829,16.4109549 l -0.01087,-0.021744 c -3.345791,-6.0979169 -10.25843,-10.4970059 -13.991971,-16.6120819 -3.88113,-6.365582 -7.68582,-11.680397 -8.96923,-19.188695 -0.79613,-4.663517 -2.13299,-14.042408 -6.63178,-16.622954 -1.09053,-0.587543 -2.35431,-0.768632 -3.56595,-0.510974 h 3e-5 v 0.407692 c 6.13567,-0.422085 6.97671,13.298333 7.34389,17.248082 0.66916,7.230339 2.52379,12.469023 5.78379,19.047361 3.5963,7.254361 9.054904,13.7953521 13.008085,20.9227441 0.943684,1.70206381 1.76357,3.3352453 2.484202,4.9412248 0.549053,8.4519831 0.434872,37.7250821 0.434872,37.7250821 h 0.125025 l -0.01087,1.886255 c -0.988295,-1.297138 -1.943351,-2.662923 -2.89733,-3.685534 -3.592864,-3.874255 -7.082074,-8.517786 -10.654344,-12.230755 -8.69219,-9.028488 -26.89694,-11.808583 -33.30027,-13.263574 -6.71216,-1.523621 -12.00122,-8.9614757 -5.15866,-15.6118781 4.5194,-4.3924226 12.65585,-1.6565219 12.54604,4.4139434 0.50788,0.037747 -1.2916,5.8554303 1.42964,0.021744 0.39464,-3.10214842 -1.86077,-5.6962144 -4.21826,-7.4634781 -3.56198,-2.6697694 -3.74683,-1.5055856 -7.55588,-0.5653326 -4.84883,1.2044845 -7.30919,-0.3908853 -10.18143,-4.1965078 -3.80562,-5.0444228 -4.81304,-9.4916268 -10.86634,-12.5079858 -5.68271,-2.831054 -11.6237,-2.560943 -17.79711,-2.701637 3.49336,2.378084 17.79717,1.007171 24.00489,10.3445 1.48931,2.244254 2.76297,5.0152121 4.1802,7.2079918 3.0095,4.6566543 2.26967,12.1349709 4.1639,18.3461312 2.07267,6.791097 9.43307,7.182517 15.67167,8.376708 8.23923,1.578528 18.28259,4.379382 23.71136,10.583679 3.4453,3.932591 6.03904,8.074171 8.5887,12.665626 2.330045,4.186528 4.424593,13.464687 8.202763,17.085005 -1.8e-5,0.0018 1.8e-5,0.0036 0,0.0054 -0.07291,7.534518 -0.165545,15.068103 -0.255487,22.602435 -2.611511,-2.809313 -4.804121,-9.697125 -6.620915,-11.80132 -3.616891,-4.183097 -10.340851,-8.179703 -15.965211,-6.604608 -5.80623,1.62657 -8.82239,8.884064 -7.46348,14.573624 0.78926,3.304612 4.88615,8.787288 8.23538,9.453014 -0.83388,-1.619705 -3.3836,-2.067773 -4.36502,-4.174764 -0.84074,-1.794716 -1.0801,-4.459808 -1.24482,-6.474146 -0.45297,-5.672402 2.36712,-9.228863 8.32778,-8.333221 4.7047,0.710337 10.53492,4.359908 12.703678,8.697426 2.360928,4.732149 2.457736,10.29669 5.800096,14.48665 0.161402,0.205114 0.317977,0.394351 0.472922,0.576203 -7e-5,0.0054 7.1e-5,0.01087 0,0.01631 l -0.288102,22.879672 c -0.288938,-0.21685 -0.626613,-0.45066 -1.049127,-0.74472 -2.343768,-1.64373 -4.340945,-3.35274 -6.077327,-5.65876 -1.61971,-2.1516 -3.2977,-3.62763 -4.78358,-5.82728 -0.74122,-1.0981 -1.69179,-1.98483 -2.45703,-2.93538 -2.54966,-3.170784 -5.43339,-5.687835 -9.23557,-7.273225 -6.06018,-2.525644 -13.67369,-2.048365 -20.05301,-3.647483 -0.98837,-0.234679 -1.99336,-0.392788 -3.00604,-0.472922 -0.21807,-0.250608 -0.44284,-0.495311 -0.67405,-0.733845 l -0.26093,-0.271795 c -8.54463,-0.03088 -10.07035,-15.049699 -7.50696,-20.536796 1.56137,-3.342358 3.22931,-6.190738 3.46266,-10.089012 0.2505,-4.172803 -0.94181,-8.544377 3.97907,-9.79004 6.671,-1.688338 14.05488,2.6884 13.9485,9.822654 2.62173,-3.740422 -3.4871,-10.393551 -6.76768,-11.882857 -2.37123,-1.074083 -5.81192,-1.14855 -8.44738,-0.853435 -2.7384,0.308844 -3.53057,1.63952 -5.58266,3.218047 -5.88858,-4.780191 -6.3763,-10.986423 -6.3763,-18.106952 0,-8.053919 -1.41352,-13.058264 -10.33906,-15.117213 1.47214,3.88455 6.94369,4.534741 7.69178,9.534553 0.67259,4.481644 -0.79346,8.946372 -1.01651,13.290753 -0.22992,4.519392 1.40854,8.186104 4.00625,11.703474 2.26484,3.067831 4.46347,6.533868 3.92472,10.638038 -0.96427,7.377898 -6.13259,15.172762 -3.78882,23.178639 0.65886,2.264843 2.28387,5.058544 3.97907,6.925325 -3.54483,0.435811 -6.93354,0.494629 -11.02399,-0.799076 -3.42128,-1.080949 -7.11127,-2.872466 -10.13793,-4.756404 -5.19541,-3.232548 -10.43106,-4.75288 -13.20378,-10.63804 -4.18997,-8.891224 -6.04775,-18.290585 -14.34532,-24.282123 -3.31833,-2.398676 -8.61268,-4.175828 -12.75803,-4.000817 1.13586,1.41038 5.98993,3.058739 7.53414,3.772509 3.3355,1.547642 5.58654,3.273574 7.7244,6.365427 4.59832,6.650403 3.90077,14.339612 7.12646,21.672897 1.79814,4.090445 5.00632,7.859705 8.36583,10.855474 1.36577,1.21478 2.88458,2.711271 4.37046,3.723586 2.04522,1.396654 4.26915,1.085207 6.6644,1.761228 4.93118,1.38979 10.18735,1.927799 15.46511,2.054767 12.90618,0.315706 30.11169,-2.277371 38.622,9.849834 3.43845,4.90373 5.99572,9.49027 10.71415,13.25814 2.75212,2.19964 5.510542,4.21948 7.909217,6.82748 0.874051,0.95258 1.930562,3.16734 3.228919,4.27805 -1.05e-4,0.009 1.04e-4,0.0181 0,0.0272 -0.07893,6.62637 -0.152236,13.2687 -0.217436,19.92254 -0.733059,-1.06981 -1.516148,-2.10293 -2.353741,-3.09303 -5.789069,-6.85972 -14.456289,-10.09527 -23.515659,-11.24142 -3.23311,-1.15101 -6.50743,-2.18036 -9.81722,-3.08758 -3.84337,-1.05693 -6.2714,-4.03794 -5.88707,-8.15928 0.23335,-2.53249 1.77263,-5.74989 4.72379,-5.4685 2.82419,0.26766 3.86883,3.33767 1.83733,5.24563 1.71922,-0.0721 2.66735,-2.1365 2.15261,-3.7562 -0.55934,-1.75011 -2.82919,-2.71524 -4.55528,-3.05497 -4.6086,-0.90251 -6.28693,2.10441 -7.89291,5.44676 -1.63343,-1.88393 -2.03382,-4.21088 -3.72902,-6.1806 -2.18592,-2.53594 -4.91045,-3.83989 -8.2082,-4.16933 -5.21943,-0.5216 -7.02649,-0.20542 -9.21927,4.04974 -0.9128,1.77069 -2.76868,5.90579 -0.53815,7.37106 1.0329,-4.04239 1.06133,-8.11691 6.32194,-8.68655 4.71842,-0.51131 7.107,2.32417 10.15424,5.15866 3.41443,3.17421 3.14627,7.43611 5.6479,11.27947 0.96769,1.48588 2.04502,2.77653 3.22891,3.85405 -12.96451,1.21478 -27.66004,6.21848 -41.50302,6.44153 l 0.0272,-0.10328 c -4.71157,-3.48992 -9.45128,-9.61597 -10.64891,-15.43249 -0.9453,-4.76653 -1.2962,-9.62842 -1.04369,-14.48122 0.11668,-1.99375 0.29223,-3.92341 1.7884,-5.41958 6.90091,-6.883754 13.02167,10.19339 5.99036,10.69783 6.21117,2.41583 5.59866,-7.05252 3.71815,-10.45322 -1.3692,-2.47073 -3.82882,-4.57766 -6.77312,-4.71835 -3.1399,-0.15099 -4.28535,1.24276 -6.41979,2.95169 -0.81329,-5.957228 0.34388,-11.180622 -3.34851,-16.334856 -1.27918,-1.822657 -2.93718,-3.344771 -4.85969,-4.468302 -3.15018,-1.811874 -8.83492,-2.306273 -12.22532,-1.750357 -5.26061,0.861326 -9.65019,12.507027 -4.31066,15.334648 -1.18047,-3.695811 -2.26899,-8.401378 2.73426,-10.975064 4.94835,-2.546232 13.06756,-0.854111 16.03587,3.788816 4.02868,6.300382 2.54816,15.204135 2.88103,22.379565 0.32257,7.02445 0.99948,13.99864 4.34871,20.22695 1.36577,2.54281 3.27145,5.1676 1.25025,7.75158 -2.20166,-0.48188 -4.35107,-1.17666 -6.41978,-2.07107 -13.43464,-5.87144 -16.38016,-20.05959 -28.14705,-28.00028 -12.99882,-8.77112 -31.8074,-3.9417 -45.19399,1.31549 -4.5743,1.25939 -4.15533,1.66539 1.26656,1.66882 h 0.65774 c 3.48992,-2.30602 7.94589,-2.95124 11.70348,-3.816 6.48911,-1.49617 14.94788,-0.23413 21.10756,1.37528 9.53293,2.49477 13.86613,12.18718 19.41157,19.29742 18.09815,23.20434 47.65836,15.14386 73.61827,14.03547 -2.29573,0.35688 -4.49644,0.94057 -6.51764,1.88081 -4.33751,2.01091 -8.36373,3.03938 -13.01352,3.92472 -4.41645,0.84074 -9.74608,1.26071 -13.61691,3.41917 -4.31006,2.40554 -8.3043,5.53807 -12.50798,8.03969 -3.88112,2.30945 -8.75688,4.65437 -12.27424,7.32758 0.10214,-0.19265 0.18788,-0.39439 0.25005,-0.60339 l -0.5599,0.83713 c -0.55822,0.43544 -1.07711,0.92443 -1.54379,1.45682 l 0.0163,-0.0761 c -0.0172,0.0412 -0.0555,0.10213 -0.0761,0.14676 -0.40508,0.45248 -0.77684,0.93019 -1.11435,1.43508 -2.03836,1.52706 -4.52222,2.79654 -6.00123,3.22892 -4.238,1.2388 -9.12822,1.34159 -12.61126,-1.55467 -2.50506,-2.08296 -5.55957,-6.29598 -3.30503,-9.51824 2.36437,-3.37325 4.54361,1.21197 2.84841,3.76164 3.64777,-1.7055 2.74918,-8.70296 -2.02759,-7.67005 -4.34781,0.93682 -1.61259,8.06884 -6.78399,6.77856 -5.47336,-1.3692 -10.44496,-5.92942 -16.60121,-3.51702 -2.73497,1.07409 -4.29528,4.01105 -3.24523,6.94163 0.49415,1.37949 1.98821,2.17779 3.41918,2.78861 1.02604,0.43924 2.13741,0.55079 3.2561,0.64687 0.3363,-2.18248 -8.79613,-4.63458 -2.70164,-7.18081 4.50223,-1.88394 10.79099,0.67261 14.19855,3.68554 3.86395,3.41441 5.5235,7.7459 11.12727,9.06706 3.33549,0.78583 7.19273,0.70299 10.63803,0.18482 -1.56822,1.44813 -3.08279,2.94025 -4.45199,4.77271 -3.0644,4.1076 -4.75272,8.54953 -8.46912,12.21445 -3.85023,3.79533 -8.477,5.45631 -13.69301,6.88728 -5.68955,1.56137 -16.81649,4.17587 -18.32982,-3.78882 -0.61425,-3.23599 2.08213,-7.83894 4.93035,-3.77251 0.22305,-3.16392 -4.47506,-3.25106 -6.05014,-1.64164 -2.63889,2.70065 -2.00016,5.49336 -0.25006,8.45825 1.5751,2.66977 3.23179,4.56157 6.28933,5.15866 1.88737,0.36718 6.52897,-0.26799 8.12122,1.12523 -0.25249,0.18774 -0.47414,0.41166 -0.66318,0.66318 -1.01918,1.38979 -2.57941,4.66227 -3.04953,6.47414 -1.21478,4.69098 1.9443,10.31666 5.53373,13.18204 2.99234,2.38838 11.93896,1.80682 13.19835,-2.22872 1.1839,-3.78846 -3.14962,-7.67464 -6.68071,-5.91425 0.0995,0.20246 0.17113,0.39779 0.25005,0.64144 2.8139,-0.326 5.48164,0.81588 3.61487,3.70184 -1.66088,2.57026 -4.44797,2.13166 -6.83292,0.75559 -2.93401,-1.6952 -5.00275,-3.05864 -5.03363,-6.58286 -0.0446,-4.57431 0.82511,-7.22547 3.26153,-10.31733 4.7047,-1.56479 12.98696,-5.50116 15.51947,-7.40911 4.6292,-3.47619 8.82781,-7.88273 12.31773,-12.3884 0.35688,-0.46327 0.67648,-0.94236 0.97846,-1.42964 -0.66573,4.96207 1.85672,9.97848 5.98491,12.82327 3.83308,2.64231 12.69714,2.32212 16.42727,-0.44031 1.99374,-1.47558 3.4128,-4.32701 3.23435,-6.84922 -0.11324,-1.63 -1.01151,-5.39638 -3.15282,-4.72379 4.93462,5.10276 -0.61105,10.62626 -6.59917,10.51301 -4.59488,-0.0858 -8.53464,-2.90184 -10.34993,-7.02317 -1.23537,-2.81046 -2.18757,-5.4121 -1.06544,-8.34953 1.44469,-3.78503 3.79193,-6.77012 6.75681,-9.52911 1.93542,-1.80158 3.22911,-4.4933 5.46307,-5.94143 2.72467,-1.76727 6.02909,-2.09173 8.69199,-4.04431 1.50989,-1.1084 3.1224,-2.19228 4.74554,-3.19086 2.94772,-1.81531 5.48015,-2.35469 8.95291,-3.14739 3.61689,-0.83043 6.53648,-2.84959 10.10532,-3.54963 5.57632,-1.08781 11.42736,-1.18276 16.84583,-3.04954 1.60941,-0.55591 3.08695,-1.44005 4.78902,-1.69056 9.66332,-1.40695 20.17175,-0.49266 29.95175,-0.48923 l 0.65231,-0.43487 c 5.02384,2.18591 9.440549,5.22069 12.741729,9.36604 -0.05553,6.40124 -0.09912,12.8036 -0.130461,19.205 -2.40545,-3.49803 -4.15732,-7.588 -8.202758,-9.45301 -4.58459,-2.11043 -10.25464,-1.08111 -15.05198,-1.55467 -3.74386,-0.36718 -6.77177,-0.21247 -9.9803,1.20134 -0.16471,0.0137 -0.31564,0.007 -0.48379,0.0272 -5.4322,0.60053 -9.65195,4.12777 -14.10614,7.00687 -4.14535,2.68007 -6.92489,5.17744 -10.24665,9.23014 -5.11306,6.23175 -7.12762,14.22971 -7.76246,22.09146 -0.91624,11.31392 -3.91952,26.17404 -17.82428,27.85894 -7.75537,0.93683 -11.2187,-3.30131 -9.74655,-9.40953 -3.36296,4.33066 -2.65529,7.5187 -2.05477,9.3443 1.3898,4.21742 5.32679,4.60308 9.39322,4.64769 7.0313,0.0755 11.15456,-1.08168 15.64993,-6.41435 2.01777,-2.39525 5.12018,-6.75079 5.43589,-9.74656 1.57853,0.80985 1.36399,3.97203 2.9082,5.43046 2.52565,2.38838 7.75099,2.62659 10.74676,1.22307 4.98265,-2.32317 10.40594,-8.95175 6.62091,-14.39423 -1.12556,-0.0892 -2.35854,-2.02425 -3.44635,-2.22328 7.86518,7.87204 -5.41855,19.86045 -12.35035,10.73588 -3.56884,-4.69783 -1.35824,-13.88717 -0.40769,-19.16151 1.38293,-7.71763 5.62706,-15.46601 11.20337,-21.04234 3.3579,-3.39676 7.37355,-6.0663 11.80676,-7.84399 -1.17703,2.36093 -1.90493,5.02347 -2.07651,7.13733 -0.37747,4.5537 3.31891,8.61423 6.08819,11.78501 6.44451,7.38476 8.44615,19.27252 -3.31045,21.70551 3.80905,2.62516 9.89639,-2.20365 11.56757,-5.47394 2.89283,-5.64838 -0.0272,-9.19452 -3.09846,-13.73106 -4.53311,-6.69845 -11.51521,-20.50224 1.86452,-21.85772 5.08903,-0.51474 8.70461,2.46945 13.03526,4.56615 3.96691,1.92169 6.71285,4.25997 9.35517,7.78419 0.748084,0.99859 1.475741,2.12256 2.16892,3.29959 1.969727,8.51718 1.973229,16.87724 1.973229,26.4891 -0.0034,23.56122 -2.476286,47.45862 -4.500918,70.88945 -2.789871,32.34265 -2.051351,65.3363 -4.511791,97.67209 -0.44575,5.50084 -0.7102,11.01222 -0.7882,16.53054 -1.12114,2.63671 -2.32133,5.23848 -3.604,7.8005 -5.39101,10.9639 -9.08324,23.80741 -19.74859,30.95197 -7.49114,5.01353 -16.95455,4.83848 -24.26038,10.24665 -2.30259,1.70549 -4.14958,4.28306 -6.54481,5.82727 -4.06643,2.62173 -9.87336,4.48973 -14.26922,6.22954 -9.5741,3.79532 -38.49783,6.95579 -31.78909,23.08079 1.81187,-1.67804 1.7825,-4.21742 3.19631,-6.07733 2.48789,-3.26686 6.49848,-4.22213 10.19773,-4.58245 3.84679,-0.37404 7.92068,-0.32886 11.6165,-1.21764 3.1742,-0.76181 5.85449,-2.7667 8.99096,-3.604 15.4627,-4.11789 9.88699,10.3108 7.9962,18.3407 -1.89424,0.28825 -4.13747,6.02816 -4.53897,7.96358 -1.27655,0.7721 -2.82345,1.82543 -3.89754,2.67989 8.16717,-1.00888 12.04068,-7.8076 17.2807,-13.78542 3.35265,-3.81934 4.23974,-10.07536 8.56696,-13.29075 5.54544,-4.1179 18.04814,-5.36568 24.98336,-4.50092 4.02182,7.14111 5.87756,11.25411 -0.33703,18.17218 5.17482,-1.24566 6.372,-2.92887 8.7844,-7.9527 2.18249,-4.54685 4.35913,-8.59729 9.45845,-10.39886 6.674431,-2.36093 10.678299,-0.47627 14.758447,4.57158 2.251117,2.77958 10.350447,10.10017 9.001836,13.75824 2.614864,1.40351 4.169553,4.04167 7.082965,5.12605 6.224886,2.31288 10.02712,1.2871 15.905417,0.038 -5.88516,1.06379 -11.636007,-1.20562 -14.182239,-7.26235 -2.299159,-5.46308 -2.728003,-12.66868 2.652714,-16.11742 5.23316,-3.35266 15.884543,-4.26976 20.167156,1.79384 1.784421,2.52564 1.111737,6.55418 -0.809948,8.82246 2.378084,0.79269 2.87502,9.79826 5.321737,9.03988 0.689747,-4.47821 7.727609,-16.7092 12.116601,-16.98716 5.308654,-0.33286 9.530858,5.13897 12.018754,9.50738 3.805623,6.68128 2.364201,17.42971 11.8284988,18.569 -3.9325908,-0.89565 -3.6644288,-9.07218 -3.8051236,-12.0405 -0.6451372,-13.51013 6.0247238,-14.61428 18.2754651,-14.69321 7.8960657,-0.0549 11.4604887,-1.44568 16.1445957,4.6042 0.857895,1.10497 1.065745,2.2771 2.331997,3.56051 3.651202,3.68551 10.111327,4.62509 14.970444,5.2565 -4.402718,-0.7172 -9.706904,-11.36895 -12.393831,-14.8726 -4.430171,-5.7925 -20.0305366,-5.1839 -28.2285817,-14.45946 -4.6257699,-5.2263 -5.357575,-3.70061 -12.8178303,-4.09867 -4.069854,-0.21276 -6.661434,-0.26061 -8.257118,-0.22287 -0.816717,-0.53876 -2.955263,-1.44376 -7.512402,-2.89189 -5.984676,-1.9011 -6.71286,-1.45265 -11.197935,-5.35435 -2.223664,-1.93198 -3.815458,-3.71118 -5.713121,-5.91425 -2.124149,-2.4776 -4.005594,-5.26362 -6.25671,-7.62112 -2.103559,-2.19621 -5.806906,-3.85402 -7.512402,-6.24584 -2.95459,-4.13506 -4.364755,-12.36447 -6.234966,-17.4329 -1.983453,-5.40132 -3.701391,-10.5743 -4.566149,-16.16091 -0.394631,-2.54966 -1.161128,-4.88451 -2.060202,-7.16994 -0.490717,-10.06139 -1.023743,-20.12462 -1.79928,-30.06591 -0.929958,-11.81836 -3.038052,-24.3276 -2.348305,-35.87144 1.125559,-18.90457 -3.755443,-36.20252 -3.9682,-55.16886 -0.168148,-14.51215 0.07382,-28.93828 -1.130666,-43.31318 -0.147558,-1.8153 -0.317074,-3.7139 -0.478358,-5.64245 l 0.0054,0.0109 c 0.168147,-7.77939 0.372344,-15.56491 0.646871,-23.35802 0.01507,-0.34282 0.11579,-0.0361 0.04894,-1.86998 0.401495,-0.61425 0.802417,-1.2033 1.217637,-1.75579 2.642318,-3.52423 5.390265,-5.86251 9.360604,-7.7842 4.337517,-2.0967 7.946233,-5.08632 13.035267,-4.57158 13.376299,1.35548 6.399632,15.16471 1.869946,21.86315 -3.074696,4.53312 -6.000147,8.07725 -3.103894,13.72563 1.667749,3.27029 7.765962,8.09767 11.578448,5.47937 -11.763457,-2.43641 -9.758397,-14.32961 -3.310458,-21.71094 2.769286,-3.17078 6.460236,-7.23131 6.082762,-11.78502 -0.154421,-1.89423 -0.768348,-4.23472 -1.739485,-6.40348 4.766465,1.6952 9.137234,4.46981 12.942856,8.27887 5.576318,5.57631 9.815008,13.32471 11.197936,21.04233 0.950547,5.27433 3.168592,14.46368 -0.396821,19.16151 -6.931792,9.12458 -20.21753,-2.86927 -12.355779,-10.74132 -1.091242,0.20246 -2.327659,2.13406 -3.446355,2.22328 -3.788464,5.44249 1.636256,12.07993 6.615479,14.39968 2.995769,1.40008 8.223118,1.1653 10.752192,-1.22308 1.540779,-1.45842 1.326243,-4.6206 2.908202,-5.43045 0.315705,2.99577 3.418122,7.34588 5.43589,9.74111 4.4988024,5.33268 8.6240584,6.49872 15.6553661,6.41979 4.0698542,-0.048 7.9999979,-0.43371 9.3932199,-4.64768 0.603958,-1.82217 1.306177,-5.01365 -2.060203,-9.3443 1.468716,6.10821 -1.9911811,10.34977 -9.7465524,9.40953 -13.9081946,-1.68491 -16.9080546,-16.54503 -17.8242856,-27.85894 -0.631412,-7.86175 -2.643963,-15.85628 -7.757017,-22.09147 -3.325201,-4.05269 -6.10331,-6.55007 -10.25209,-9.23014 -4.450759,-2.8791 -8.671941,-6.40634 -14.100701,-7.00686 -0.168148,-0.0172 -0.32251,-0.0189 -0.483794,-0.0326 -1.60598,-0.7069 -3.163309,-1.09713 -4.78902,-1.26656 v 1e-5 c -1.625711,-0.16943 -3.321064,-0.11836 -5.191276,0.0652 -4.797348,0.47356 -10.460527,-0.55918 -15.051981,1.55467 -3.249706,1.49617 -5.21831,4.62455 -7.033615,7.53797 -0.442193,-8.04564 -1.08187,-13.81648 -1.48987,-19.6328 2.39181,-3.12617 5.408605,-5.6354 8.833322,-7.64286 -0.06863,0.1853 -0.143641,0.36629 -0.18482,0.56533 l 0.750153,0.49467 c 9.780003,-0.003 20.290433,-0.91229 29.957194,0.49466 1.695201,0.24708 3.179609,1.12921 4.78902,1.68513 5.415034,1.86678 11.264073,1.96172 16.84039,3.04953 3.565413,0.70004 6.488436,2.72463 10.105321,3.55507 3.4727594,0.79269 5.9997493,1.33551 8.9474766,3.14739 1.62313742,0.99858 3.2356375,2.07903 4.7455327,3.19086 2.6594747,1.95257 5.9638832,2.2716 8.6919897,4.03887 2.230527,1.44813 3.53109,4.14529 5.46307,5.94687 2.968317,2.75898 5.308686,5.73864 6.756812,9.52368 1.125558,2.93742 0.175371,5.54449 -1.059998,8.35496 -1.815306,4.12476 -5.757055,6.93195 -10.355372,7.01774 -5.9846757,0.10981 -11.53721566,-5.41369 -6.5991718,-10.51302 -2.1447376,-0.67259 -3.0450104,3.09379 -3.1582526,4.72379 -0.1750105,2.52221 1.2494745,5.37365 3.2397909,6.84922 3.7335593,2.76243 12.5996225,3.08462 16.4326985,0.44575 4.12819,-2.84479 6.652069,-7.86321 5.97948,-12.82871 0.301978,0.48728 0.625007,0.96294 0.97846,1.42964 3.493348,4.50567 7.685095,8.91564 12.317729,12.3884 2.532506,1.90796 10.807908,5.84976 15.519468,7.41455 2.43299,3.08843 3.304141,5.73759 3.256099,10.31189 -0.03432,3.52424 -2.090767,4.88766 -5.028199,6.58286 -2.384949,1.37607 -5.17203,1.81467 -6.832915,-0.75559 -1.863348,-2.88595 0.797539,-4.02241 3.614867,-3.6964 0.07893,-0.24022 0.150535,-0.43898 0.250051,-0.64144 -3.531096,-1.76382 -7.868036,2.12035 -6.68071,5.90882 1.252528,4.03896 10.209437,4.62052 13.198343,2.22871 3.592865,-2.86538 6.75538,-8.49106 5.533737,-13.18203 -0.470126,-1.80844 -2.030356,-5.08092 -3.049535,-6.47415 -0.18879,-0.25058 -0.412601,-0.47439 -0.663178,-0.66318 1.588821,-1.39322 6.235856,-0.75805 8.126657,-1.12523 3.057537,-0.5971 4.708795,-2.48889 6.283889,-5.15866 1.750107,-2.96488 2.387408,-5.7576 -0.244615,-8.45824 -1.581958,-1.61285 -6.282067,-1.51685 -6.055582,1.64707 2.848211,-4.06985 5.543178,0.5331 4.935789,3.77251 -1.513327,7.96127 -12.651136,5.34475 -18.340696,3.78338 -5.216002,-1.43097 -9.833909,-3.08307 -13.687573,-6.88184 -3.71297,-3.66492 -5.410153,-8.11229 -8.474554,-12.21988 -1.365769,-1.83247 -2.883762,-3.31916 -4.451995,-4.76728 3.445307,0.51473 7.304547,0.60101 10.643475,-0.18482 5.596907,-1.32116 7.261305,-5.65265 11.121832,-9.06706 3.410991,-3.0095 9.698318,-5.57491 14.203983,-3.69097 6.091055,2.54966 -3.043368,5.00175 -2.707073,7.18081 1.125558,-0.0961 2.230056,-0.20763 3.256098,-0.64687 1.434401,-0.61082 2.930463,-1.40912 3.424611,-2.78861 1.046632,-2.93057 -0.50883,-5.86755 -3.250662,-6.94164 -6.152824,-2.4124 -11.124409,2.1444 -16.601211,3.51702 -5.167959,1.29028 -2.434175,-5.83829 -6.778556,-6.77855 -4.780191,-1.02947 -5.67736,5.96999 -2.033023,7.67548 -1.6952,-2.54966 0.485475,-7.14032 2.842971,-3.76708 2.25798,3.22225 -0.791101,7.44072 -3.299586,9.52368 -3.486485,2.89626 -8.373265,2.78803 -12.611267,1.54923 -1.482442,-0.43238 -3.962864,-1.69986 -6.001223,-3.22348 -0.336243,-0.50707 -0.704862,-0.98564 -1.108922,-1.44051 -0.02745,-0.0446 -0.07124,-0.10014 -0.08154,-0.14133 l 0.01631,0.0707 c -0.432649,-0.49494 -0.911573,-0.95288 -1.424203,-1.36441 l -0.114154,-0.087 -0.559897,-0.83713 c 0.05491,0.19903 0.1451,0.40292 0.244616,0.60882 -3.517371,-2.67321 -8.3931249,-5.02356 -12.274242,-7.33301 -4.1968226,-2.50162 -8.1924842,-5.62871 -12.5025489,-8.03425 -3.8742541,-2.15847 -9.2058991,-2.58388 -13.6223421,-3.42461 -4.656655,-0.88535 -8.676005,-1.91038 -13.013523,-3.92472 -7.813707,-3.62717 -18.268915,-2.04247 -26.847865,-2.04933 -0.638273,0 -1.407718,0.007 -2.245023,0.038 5.662107,-1.60597 11.754063,-2.40478 17.731876,-2.66902 12.734593,-0.56964 26.891718,1.88069 40.443028,2.23415 1.7089269,0.57307 3.83152256,0.52747 5.8218391,0.005 13.9081939,-0.37748 26.8406819,-3.84357 36.5074429,-16.23157 5.548864,-7.11023 9.882068,-16.80266 19.411566,-19.29741 6.159686,-1.61284 14.616442,-2.87145 21.102129,-1.37528 3.761011,0.86476 8.218991,1.50996 11.708908,3.81599 h 0.657743 c 5.435624,-0.0137 5.849726,-0.4203 1.271999,-1.67969 -13.383163,-5.25717 -32.19174,-10.086611 -45.193997,-1.31548 -11.763457,7.94067 -14.708975,22.12541 -28.147043,28.00027 -4.310064,1.88394 -8.8466753,2.76784 -13.5136243,3.01148 -0.3294317,-1.99032 1.0333099,-3.97941 2.0765103,-5.92512 3.352654,-6.22831 4.026144,-13.2025 4.348713,-20.22695 0.329431,-7.17543 -1.147653,-16.079183 2.881022,-22.379564 2.968317,-4.642928 11.08754,-6.335049 16.035878,-3.788816 4.999813,2.573685 3.920152,7.273816 2.739689,10.969628 5.342969,-2.827622 0.94995,-14.467885 -4.310662,-15.329212 -3.390401,-0.555915 -9.080564,-0.07038 -12.230754,1.744921 -1.92187,1.124401 -3.579696,2.651793 -4.859686,4.473738 -3.6923805,5.154233 -2.5229257,10.377627 -3.3430734,16.334855 -2.1378744,-1.70893 -3.2833228,-3.10811 -6.4197871,-2.95712 -2.9408642,0.14413 -5.4039194,2.24761 -6.77312,4.71835 -1.8839375,3.4007 -2.4950151,12.87448 3.7127135,10.45865 -7.0313078,-0.50445 -0.9016885,-17.590451 5.9957876,-10.70327 1.5030322,1.4996 1.6737386,3.42927 1.793844,5.41959 0.2494053,4.85291 -0.1046335,9.72 -1.049127,14.48665 -0.9265266,4.48507 -3.9592577,9.14567 -7.4526063,12.64931 -13.0949103,-0.83387 -26.7754623,-5.31536 -38.8992353,-6.36542 -1.039658,-0.0865 -2.083623,-0.15582 -3.125637,-0.20657 0.1956,-0.27453 0.387468,-0.54887 0.576205,-0.83713 2.501622,-3.84336 2.2369,-8.10526 5.64789,-11.27947 3.050675,-2.83792 5.435821,-5.6734 10.154244,-5.15866 5.260612,0.57307 5.295898,4.64416 6.321941,8.68655 2.230527,-1.46527 0.376651,-5.60037 -0.532717,-7.37106 -2.19278,-4.25173 -4.001842,-4.57134 -9.224707,-4.04974 -3.297748,0.32944 -6.022279,1.63339 -8.208195,4.16933 -1.695201,1.96972 -2.093585,4.29667 -3.723585,6.1806 -1.609412,-3.34235 -3.293169,-6.34927 -7.89835,-5.44676 -1.729516,0.33973 -3.992497,1.30143 -4.555276,3.05497 -0.514738,1.6197 0.436822,3.68414 2.152613,3.7562 -2.031496,-1.90796 -0.983428,-4.97797 1.837331,-5.24563 2.954591,-0.28139 4.490441,2.93601 4.723789,5.4685 0.380905,4.10075 -2.025662,7.06688 -5.838147,8.13753 -10.322193,0.69661 -20.55447,3.82709 -27.108788,11.58932 -1.159874,1.3692 -2.14557,2.7034 -2.98974,4.028 -0.02059,-2.03836 -0.0017,-4.08562 0.09785,-6.148 0.1956,-4.18995 0.337937,-8.38383 0.451179,-12.58408 1.026042,-1.18046 1.893181,-2.86967 2.630972,-3.66923 2.39181,-2.60457 5.149653,-4.62784 7.898349,-6.82748 4.725285,-3.7713 7.281133,-8.35784 10.719577,-13.25814 8.506887,-12.127204 25.706964,-9.534127 38.616568,-9.849833 5.281202,-0.126968 10.537361,-0.664977 15.4651099,-2.054767 2.3986745,-0.676021 4.6280479,-0.364575 6.66983806,-1.761228 C 1.6120438,90.861418 3.1288526,89.368359 4.4877583,88.153579 7.8507069,85.15781 11.064314,81.388549 12.85903,77.298105 c 3.222254,-7.333286 2.5227,-15.022494 7.121017,-21.672897 2.137874,-3.091853 4.392336,-4.817785 7.724401,-6.365428 1.547643,-0.713769 6.400296,-2.362128 7.539581,-3.772508 -4.148781,-0.175011 -9.445133,1.602141 -12.763472,4.000816 -8.297561,5.994971 -10.156783,15.3909 -14.33988,24.282124 -2.7761485,5.88516 -8.01380242,7.402059 -13.2092148,10.638039 -3.0232221,1.883938 -6.7146472,3.675456 -10.1325002,4.756404 -4.093875,1.293706 -7.479165,1.238318 -11.023987,0.799076 1.6952,-1.86678 3.316777,-4.660482 3.979072,-6.925325 2.340338,-8.005877 -2.829978,-15.800741 -3.794252,-23.178639 -0.535326,-4.104169 1.661875,-7.573637 3.930149,-10.638038 2.601139,-3.51737 4.234163,-7.184081 4.000816,-11.703473 -0.219622,-4.344381 -1.68567,-8.80911 -1.016512,-13.290753 0.751517,-4.999812 6.223069,-5.646572 7.691786,-9.534553 -8.928972,2.058949 -10.333629,7.063294 -10.333629,15.117213 0,7.120529 -0.500007,13.326761 -6.381735,18.106952 -2.058948,-1.578527 -2.84769,-2.905772 -5.58266,-3.218047 -2.635454,-0.295116 -6.078157,-0.224081 -8.452811,0.853435 -3.277158,1.489306 -9.380543,8.142435 -6.762248,11.882857 -0.106379,-7.134255 7.2755,-11.50756 13.94306,-9.822655 4.920885,1.245664 3.737435,5.613807 3.984508,9.79004 0.233347,3.901706 1.901293,6.750086 3.462663,10.089013 2.559958,5.487097 1.032234,20.505912 -7.512401,20.536796 l -0.260923,0.271794 c -0.231149,0.236944 -0.45415,0.481702 -0.668615,0.733846 -1.012683,0.08013 -2.017678,0.238243 -3.006047,0.472922 -6.379308,1.599117 -13.998267,1.121839 -20.058438,3.647483 -3.805622,1.58539 -6.683909,4.102441 -9.230142,7.273221 -0.765243,0.95055 -1.717806,1.83728 -2.462459,2.93538 -1.482442,2.20308 -3.165882,3.67568 -4.78902,5.82728 -1.736379,2.30602 -3.724689,4.01503 -6.07189,5.65876 l -0.02174,0.0109 c 0.06177,-5.98124 0.08697,-11.95346 0.08697,-17.900387 -0.01166,-2.611595 -0.04853,-5.223175 -0.110688,-7.834163"
         id="path1006"
         sodipodi:nodetypes="ccccccccscccccccccccccccccccccccccccccccccccccccccccccccccccccccccccccccccccscccccccccccccccccccccccccsccccccccccccccccccccccccccccccccccccccccccccccccccccccccccccccccccccccccccccccccccccccccccccccccccccccccccccccccccccccccccccccccccccccccccccccccccccccccscccccccccccccccccccsccccccccccccccccccccccccccccccccccccccccccsccccccccccccccccccccccccccccccccccccsscscccccccccccccccccccccccccccccccccccccccccccccccccccccccccccccccccccccccccccccccccccsccccccccccccccccccccccccccccccccccccccccccscccccccccccccsccccccccccccccccccc" /><path
         style="clip-rule:evenodd;display:inline;fill:none;fill-rule:evenodd;stroke:#000000;stroke-width:0.105191;stroke-dasharray:none;stroke-opacity:1"
         d="m -32.66112,-103.05388 -2.674458,18.563566 -5.70225,-3.788816 2.728818,6.446966 -18.541824,3.006048 18.367875,2.647279 -2.723381,6.430659 5.457634,-3.625739 2.973433,18.340695 2.652714,-18.411362 5.441327,3.614867 -2.701638,-6.398043 18.7103366,-3.033227 -18.5526956,-2.679894 2.71251,-6.419787 -5.202148,3.457226 z"
         id="path345" /><path
         style="clip-rule:evenodd;display:inline;fill:none;fill-rule:evenodd;stroke:#000000;stroke-width:0.105191;stroke-dasharray:none;stroke-opacity:1"
         d="m -149.41318,-103.05388 -2.66903,18.563566 -5.70768,-3.788816 2.72882,6.446966 -18.54183,3.006048 18.36244,2.647279 -2.71794,6.430659 5.45763,-3.625739 2.97343,18.340695 2.65815,-18.411362 5.44133,3.614867 -2.70707,-6.398043 18.71033,-3.033227 -18.55269,-2.679894 2.71794,-6.419787 -5.20758,3.457226 z"
         id="path248" /></g></g></svg>
