<?xml version="1.0" encoding="UTF-8" standalone="no"?>
<!-- Created with Inkscape (http://www.inkscape.org/) -->

<svg
   width="40mm"
   height="57.333279mm"
   viewBox="0 0 40 57.333279"
   version="1.1"
   id="svg5"
   xml:space="preserve"
   inkscape:version="1.2.2 (b0a8486, 2022-12-01)"
   sodipodi:docname="the-lord-of-the-rings2.svg"
   xmlns:inkscape="http://www.inkscape.org/namespaces/inkscape"
   xmlns:sodipodi="http://sodipodi.sourceforge.net/DTD/sodipodi-0.dtd"
   xmlns="http://www.w3.org/2000/svg"
   xmlns:svg="http://www.w3.org/2000/svg"><sodipodi:namedview
     id="namedview7"
     pagecolor="#ffffff"
     bordercolor="#666666"
     borderopacity="1.0"
     inkscape:showpageshadow="2"
     inkscape:pageopacity="0.0"
     inkscape:pagecheckerboard="0"
     inkscape:deskcolor="#d1d1d1"
     inkscape:document-units="mm"
     showgrid="false"
     inkscape:zoom="1.9956125"
     inkscape:cx="-10.021986"
     inkscape:cy="127.52977"
     inkscape:window-width="1920"
     inkscape:window-height="975"
     inkscape:window-x="0"
     inkscape:window-y="34"
     inkscape:window-maximized="1"
     inkscape:current-layer="layer1" /><defs
     id="defs2" /><g
     inkscape:label="Layer 1"
     inkscape:groupmode="layer"
     id="layer1"
     transform="translate(-65.000001,-43.5932)"><g
       id="g392"
       transform="matrix(0.09506525,0,0,0.09506525,93.567467,53.390043)"
       style="fill:none;stroke:#000000;stroke-opacity:1;stroke-width:0.10519092;stroke-dasharray:none"><path
         d="m -271.03333,82.800685 18.70899,-3.036952 -18.55457,-2.673203 2.71781,-6.427356 -5.20571,3.462467 -2.9443,-18.153077 -2.67663,18.564867 -5.70329,-3.791899 2.72467,6.447945 -18.53741,3.009499 18.3624,2.645751 -2.71781,6.430788 5.45622,-3.627184 2.97518,18.341819 2.65604,-18.413883 5.4425,3.61689 z m 71.06466,-80.2029722 18.709,-3.03695147 -18.55458,-2.67320363 2.71439,-6.4239245 -5.20228,3.4590363 -2.9443,-18.1496455 -2.67664,18.5648671 -5.70329,-3.7953315 2.72468,6.4479456 -18.53742,3.009498826 18.36241,2.645750974 -2.71782,6.4342192 5.45622,-3.6271838 2.97518,18.3418146 2.65605,-18.4173095 5.44249,3.6203207 z m 55.8353,-78.8234748 18.70899,-3.036952 -18.55457,-2.676635 2.71782,-6.423925 -5.20572,3.459037 -2.9443,-18.149643 -2.6732,18.564864 -5.70672,-3.7919 2.72811,6.447946 -18.54085,3.006067 18.36584,2.645751 -2.71782,6.434219 5.45279,-3.627184 2.97518,18.341815 2.65605,-18.413878 5.44249,3.616889 z m 116.752769,0 18.7055619,-3.036952 -18.5511409,-2.676635 2.714383,-6.423925 -5.202281,3.459037 -2.94773,-18.149643 -2.673204,18.564864 -5.703292,-3.7919 2.728109,6.447946 -18.540846,3.006067 18.365835,2.645751 -2.721246,6.434219 5.456218,-3.627184 2.975183,18.341815 2.652614,-18.413878 5.442492,3.616889 z M 29.470444,2.5977128 48.176006,-0.43923867 29.621434,-3.1124423 32.335817,-9.5363668 27.136967,-6.0773305 24.185806,-24.226976 21.512602,-5.6621089 15.80931,-9.4574404 18.537419,-3.0094948 4.2875999e-6,4.026e-6 18.362408,2.645755 15.641162,9.0799742 21.09738,5.4527904 24.072563,23.794605 26.728609,5.3772955 32.171101,8.9976162 Z m 72.073546,80.2029722 18.71586,-3.036952 -18.56143,-2.673203 2.72124,-6.427356 -5.205711,3.462467 -2.944298,-18.153077 -2.673204,18.564867 -5.703292,-3.791899 2.721246,6.447945 -18.537415,3.009499 18.362404,2.645751 -2.714383,6.430788 5.456218,-3.627184 2.975183,18.341819 2.656046,-18.413883 5.439056,3.61689 z M -91.630141,12.34341 c 0.435811,-0.219621 0.919664,-0.367179 1.413812,-0.483853 0.250506,2.738404 0.662296,5.11306 1.180465,6.561188 0.157853,-0.610822 0.315706,-1.194191 0.473559,-1.780992 0.137263,0.514737 0.274526,1.01918 0.41179,1.554507 0.470127,-1.304001 0.847601,-3.373246 1.101538,-5.778787 0.501011,9.560392 1.293707,19.059016 2.12415,28.561071 h 0.267664 V 4.7733368 c 0.857896,-2.0246343 1.835897,-4.07328972 3.036951,-6.2317558 3.953185,-7.1239676 9.409403,-13.664566 13.009134,-20.922365 3.256573,-6.578346 5.113059,-11.814943 5.778787,-19.048721 0.367179,-3.946321 1.21478,-17.669224 7.34702,-17.247139 v -0.408358 a 5.2057123,5.2057123 0 0 0 -3.565415,0.511306 c -4.498806,2.58055 -5.837124,11.9625 -6.636683,16.626022 -1.279981,7.504873 -5.078744,12.823828 -8.959865,19.189416 -3.692384,6.04645 -10.490351,10.414856 -13.877324,16.4064008 l -0.01029,-0.020589 C -91.880642,-12.47037 -98.795283,-16.866228 -102.52884,-22.98131 c -3.88112,-6.365588 -7.68332,-11.681111 -8.96673,-19.189416 -0.79613,-4.663522 -2.13444,-14.045473 -6.63325,-16.626022 a 5.2263018,5.2263018 0 0 0 -3.56885,-0.511306 v 0.408358 c 6.13567,-0.422085 6.97984,13.300818 7.34702,17.250571 0.66916,7.230347 2.52222,12.470375 5.78222,19.04872 3.5963,7.254368 9.055946,13.794966 13.009131,20.9223651 0.943685,1.70206551 1.760402,3.3320677 2.481035,4.9380488 0.549053,8.4519911 0.435811,37.7268311 0.435811,37.7268311 h 0.144126 c 0.05834,-9.018203 0.09609,-18.043267 0.09609,-27.082058 z m -3.7919,26.845279 c -3.592868,-3.874258 -7.082789,-8.517191 -10.655069,-12.230164 -8.6922,-9.028497 -26.89675,-11.808079 -33.30009,-13.263071 -6.71217,-1.523623 -12.00024,-8.9632962 -5.15767,-15.6137052 4.5194,-4.392427 12.65225,-1.6574549 12.54244,4.4130165 0.50788,0.037747 -1.29027,5.8542816 1.43097,0.020589 0.39464,-3.10215157 -1.86335,-5.6964288 -4.22084,-7.4636943 -3.56199,-2.6697721 -3.74386,-1.5064652 -7.55292,-0.5662113 -4.84883,1.2044858 -7.30927,-0.3912005 -10.18151,-4.1968268 -3.80563,-5.0444269 -4.81451,-9.4883279 -10.86782,-12.5046899 -5.68271,-2.831057 -11.62278,-2.559962 -17.7962,-2.700656 3.49336,2.378087 17.7962,1.005454 24.00393,10.342792 1.48931,2.244256 2.76586,5.0169752 4.1831,7.2097571 3.0095,4.656659 2.26828,12.130648 4.16251,18.3418149 2.07268,6.791104 9.43343,7.185735 15.67204,8.379927 8.23924,1.578529 18.28005,4.378701 23.70882,10.583004 3.44531,3.932595 6.03958,8.074516 8.58925,12.665975 2.330044,4.186532 4.426742,13.465534 8.204916,17.085855 0.0549,-5.603776 0.09265,-11.210984 0.1304,-16.818191 -0.988296,-1.297139 -1.942277,-2.662909 -2.896257,-3.685521 z m 19.683564,3.421289 c 2.553098,-4.588028 5.147375,-8.729949 8.592685,-12.662544 5.428765,-6.204303 15.469579,-9.007907 23.712243,-10.583004 6.231755,-1.194191 13.599365,-1.592255 15.66861,-8.379927 1.897666,-6.2111662 1.153012,-13.6851553 4.162511,-18.3418142 1.420676,-2.1927819 2.693793,-4.9655018 4.183101,-7.2097568 6.214598,-9.337339 20.517438,-7.964706 24.0073586,-10.339362 -6.1734189,0.140695 -12.1100586,-0.133832 -17.7961926,2.697225 -6.053313,3.016362 -7.065631,7.460263 -10.871257,12.5081222 -2.868804,3.8021946 -5.329249,5.397881 -10.181508,4.1968267 -3.805627,-0.9436855 -3.994364,-2.1069923 -7.552916,0.5662113 -2.360929,1.7672656 -4.618911,4.36154278 -4.220848,7.4636944 2.728109,5.8302605 0.926528,0.017158 1.434402,-0.020589 -0.106379,-6.0704714 8.023043,-8.8054436 12.539007,-4.4130166 6.842577,6.6504091 1.554507,14.090083 -5.154239,15.613706 -6.399903,1.454991 -24.611317,4.234574 -33.303519,13.263071 -3.572278,3.712973 -7.06563,8.359337 -10.655067,12.233595 -1.146149,1.23537 -2.299161,2.958025 -3.51051,4.467922 0.449538,5.140512 0.905938,10.281024 1.328023,15.438695 3.417857,-3.977206 5.415039,-12.532144 7.618116,-16.499055 z m -135.725993,2.875667 h 0.24707 a 1.0637909,1.0637909 0 0 1 -0.24707,-0.470127 z m 117.095925,69.366035 c -2.343771,-1.64373 -4.340953,-3.35609 -6.077335,-5.66212 -1.61971,-2.1516 -3.29775,-3.62718 -4.78363,-5.82683 -0.74122,-1.0981 -1.69177,-1.98345 -2.45701,-2.934 -2.54967,-3.170784 -5.4322,-5.686134 -9.23439,-7.271526 -6.06018,-2.525646 -13.67486,-2.048655 -20.05418,-3.647773 a 19.759058,19.759058 0 0 0 -3.0095,-0.47699 18.547709,18.547709 0 0 0 -0.66915,-0.734359 l -0.26424,-0.267664 c -8.54464,-0.03088 -10.07169,-15.050926 -7.5083,-20.538028 1.56137,-3.342362 3.22912,-6.194008 3.46247,-10.092287 0.2505,-4.172806 -0.94026,-8.541212 3.98063,-9.786877 6.671,-1.688339 14.05577,2.690362 13.94939,9.824624 2.62173,-3.740426 -3.48649,-10.394266 -6.76708,-11.883574 -2.37123,-1.074085 -5.8131,-1.153012 -8.44856,-0.857896 -2.7384,0.308843 -3.52767,1.640297 -5.57976,3.218826 -5.88859,-4.780196 -6.37931,-10.984499 -6.37931,-18.105035 0,-8.053927 -1.41381,-13.060607 -10.33936,-15.119558 1.47215,3.884553 6.94552,4.536554 7.69361,9.536371 0.67259,4.481648 -0.7927,8.94957 -1.01575,13.293955 -0.22992,4.519396 1.40695,8.180895 4.00466,11.698269 2.26484,3.067835 4.46449,6.537166 3.92573,10.64134 -0.96427,7.377905 -6.13567,15.171031 -3.7919,23.176916 0.65886,2.264845 2.28544,5.058154 3.98064,6.924936 -3.54483,0.435811 -6.93523,0.494148 -11.02568,-0.799559 -3.42129,-1.080949 -7.10681,-2.868804 -10.13347,-4.752744 -5.19541,-3.232551 -10.43544,-4.752743 -13.20816,-10.637909 -4.18997,-8.891233 -6.04302,-18.293772 -14.34059,-24.285317 -3.31834,-2.398677 -8.61327,-4.172806 -12.75863,-3.997795 1.13586,1.410381 5.98812,3.057541 7.53233,3.771311 3.3355,1.547644 5.58662,3.270299 7.72449,6.362156 4.59832,6.650409 3.90171,14.344019 7.1274,21.677313 1.79815,4.090448 5.00668,7.858327 8.3662,10.854099 1.36577,1.214781 2.88253,2.710951 4.36841,3.723268 2.04522,1.396655 4.27232,1.084381 6.66757,1.760403 4.93118,1.389791 10.18494,1.92855 15.46271,2.055518 12.90619,0.315706 30.11215,-2.278571 38.62247,9.848646 3.43845,4.90373 5.99498,9.49176 10.71341,13.25964 2.75213,2.19964 5.511122,4.22085 7.909799,6.82885 0.878485,0.95741 1.938845,3.1948 3.246278,4.29977 0.0549,-4.78019 0.116674,-9.55009 0.175011,-14.32343 -0.291685,-0.21962 -0.638275,-0.4564 -1.067223,-0.75494 z m 15.119558,10.7786 c 2.391813,-2.60457 5.154238,-4.62921 7.902937,-6.82885 4.72529,-3.77131 7.278388,-8.35934 10.716835,-13.25964 8.506896,-12.127217 25.709425,-9.53294 38.619042,-9.848646 5.281207,-0.126968 10.534962,-0.665727 15.4627158,-2.055518 2.3986769,-0.676022 4.6257747,-0.363748 6.66756691,-1.760403 C 1.609417,90.861475 3.1296085,89.368736 4.4885156,88.153955 7.8514676,85.158183 11.06343,81.390304 12.858148,77.299856 c 3.222257,-7.333294 2.525646,-15.026904 7.123968,-21.677313 2.137876,-3.091857 4.388995,-4.814512 7.721063,-6.362156 1.547644,-0.71377 6.399903,-2.36093 7.539189,-3.771311 -4.148785,-0.175011 -9.443718,1.599118 -12.76206,3.997795 -8.297569,5.994977 -10.154055,15.394084 -14.3371558,24.285317 -2.7761512,5.885166 -8.01617932,7.401926 -13.2115969,10.637909 -3.0232251,1.88394 -6.7156093,3.671795 -10.1334663,4.752744 -4.093879,1.293707 -7.480852,1.238801 -11.025678,0.799559 1.695202,-1.866782 3.318341,-4.660091 3.980637,-6.924936 2.34034,-8.005885 -2.827625,-15.799011 -3.7919,-23.176916 -0.535327,-4.104174 1.660886,-7.576936 3.929163,-10.64134 2.601141,-3.517374 4.234574,-7.178873 4.001227,-11.698269 -0.219622,-4.344385 -1.68834,-8.812307 -1.019181,-13.293955 0.751517,-4.999817 6.224893,-5.648386 7.693611,-9.536371 -8.928981,2.058951 -10.33593,7.065631 -10.33593,15.119558 0,7.120536 -0.49758,13.324839 -6.379314,18.105035 -2.05895,-1.578529 -2.848214,-2.906551 -5.583187,-3.218826 -2.635456,-0.295116 -6.077334,-0.219621 -8.45199,0.857896 -3.277162,1.489308 -9.381949,8.143148 -6.763651,11.883574 -0.106379,-7.134262 7.278389,-11.509531 13.945956,-9.824624 4.92089,1.245665 3.733563,5.61064 3.980637,9.786877 0.233347,3.90171 1.904528,6.753356 3.465899,10.092287 2.559961,5.487102 1.032907,20.507144 -7.511737,20.538028 l -0.2608,0.267664 a 14.560209,14.560209 0 0 0 -0.669159,0.734359 19.759058,19.759058 0 0 0 -3.009498,0.47699 c -6.379314,1.599118 -13.993998,1.122127 -20.054175,3.647773 -3.805626,1.585392 -6.688156,4.100742 -9.234392,7.271526 -0.765243,0.95055 -1.715791,1.8359 -2.460445,2.934 -1.482444,2.20308 -3.16392,3.67523 -4.787059,5.82683 -1.736381,2.30603 -3.7267,4.01839 -6.073903,5.66212 l -0.02059,0.0103 a 880.59926,880.59926 0 0 1 -0.24021,14.43667 c 1.026043,-1.18046 1.890802,-2.8688 2.628593,-3.66836 z M 35.48601,45.015518 a 1.0432014,1.0432014 0 0 1 -0.240211,0.470127 h 0.240211 z"
         id="path248"
         style="clip-rule:evenodd;fill-rule:evenodd;stroke-width:0.10519092;fill:none;stroke:#000000;stroke-opacity:1;stroke-dasharray:none" /><path
         d="m -99.533078,70.498458 c -3.616892,-4.183101 -10.342792,-8.180896 -15.967162,-6.605799 -5.80624,1.626571 -8.8226,8.88437 -7.46369,14.573936 0.78926,3.304615 4.88657,8.788285 8.2358,9.454012 -0.83388,-1.619707 -3.38011,-2.069244 -4.36154,-4.176237 -0.84074,-1.794718 -1.08438,-4.461058 -1.2491,-6.475398 -0.45297,-5.672408 2.37122,-9.227528 8.33189,-8.331885 4.7047,0.710338 10.53496,4.358111 12.703718,8.695633 2.36093,4.732154 2.453582,10.301614 5.795945,14.491577 0.164716,0.209327 0.329432,0.401496 0.487285,0.586801 l 0.1304,-10.38054 c -2.62173,-2.793309 -4.821375,-9.721677 -6.643546,-11.8321 z m 21.776829,7.134262 c 2.172193,-4.340953 8.002453,-7.988727 12.707155,-8.695633 5.957229,-0.895643 8.788285,2.656046 8.331885,8.331885 -0.161285,2.010908 -0.408359,4.68068 -1.245665,6.475398 -0.984865,2.106993 -3.5311,2.55653 -4.361543,4.176237 3.352657,-0.665727 7.446536,-6.149397 8.228937,-9.454012 1.358908,-5.686134 -1.64716,-12.943934 -7.460262,-14.573936 -5.624366,-1.575097 -12.346838,2.422698 -15.963727,6.605799 -1.30057,1.506465 -2.793309,5.466512 -4.498806,8.630432 0.161284,3.263436 0.28139,6.537167 0.360316,9.824624 1.616276,-3.606594 2.100129,-7.707337 3.90171,-11.320794 z m -2.196213,110.4764 c 0.401495,-0.61425 0.802991,-1.20448 1.218212,-1.75697 2.64232,-3.52423 5.387586,-5.86114 9.357929,-7.78283 4.337521,-2.0967 7.947547,-5.08561 13.036586,-4.57087 13.376313,1.35548 6.399903,15.16417 1.870213,21.86262 -3.074699,4.53312 -5.998408,8.07795 -3.102152,13.72633 1.66775,3.2703 7.762242,8.09511 11.574732,5.47681 -11.763469,-2.43642 -9.759424,-14.32686 -3.311478,-21.7082 2.769288,-3.17078 6.461671,-7.23034 6.084197,-11.78405 -0.154421,-1.89424 -0.765243,-4.23801 -1.736381,-6.40677 4.76647,1.6952 9.134876,4.46792 12.940502,8.27698 5.576323,5.57632 9.81776,13.32827 11.200689,21.0459 0.950548,5.27434 3.16392,14.46069 -0.401496,19.15853 -6.931799,9.12458 -20.215459,-2.86537 -12.353701,-10.73742 -1.091243,0.20246 -2.326613,2.13444 -3.44531,2.22366 -3.788468,5.44249 1.636866,12.07575 6.616094,14.3955 2.995772,1.40008 8.222074,1.16673 10.751151,-1.22165 1.540781,-1.45842 1.328023,-4.61891 2.909983,-5.42876 0.315706,2.99577 3.417857,7.34702 5.435628,9.74226 4.4988064,5.33268 8.6201383,6.49599 15.6514531,6.41706 4.0698582,-0.048 8.0024529,-0.43238 9.3956759,-4.64636 0.603959,-1.82217 1.307433,-5.01697 -2.05895,-9.34763 1.468718,6.10822 -1.9903186,10.35308 -9.7456976,9.41283 -13.9082084,-1.68491 -16.9108444,-16.5471 -17.8270764,-27.86103 -0.631412,-7.86175 -2.64232,-15.85391 -7.755379,-22.0891 -3.325205,-4.0527 -6.104788,-6.55089 -10.253572,-9.23096 -4.450764,-2.8791 -8.671612,-6.40677 -14.100377,-7.00729 -0.168148,-0.0172 -0.322569,-0.0172 -0.483853,-0.0309 -3.211963,-1.41381 -6.238619,-1.56823 -9.979046,-1.20105 -4.797353,0.47356 -10.462898,-0.55935 -15.054357,1.5545 -3.249709,1.49618 -5.020407,4.43361 -6.835714,7.34703 0.295116,4.02867 0.466695,8.07794 0.401495,12.17182 z"
         id="path250"
         style="clip-rule:evenodd;fill-rule:evenodd;stroke-width:0.10519092;fill:none;stroke:#000000;stroke-opacity:1;stroke-dasharray:none" /><path
         d="m -80.649029,213.33465 c 0.168147,-7.7794 0.374042,-15.56223 0.648569,-23.35535 0.02745,-0.62455 0.02745,-1.24567 0.04118,-1.86679 0.04905,-4.05896 -0.08492,-8.11807 -0.401495,-12.16496 -0.476991,-6.49942 -1.225076,-12.94736 -1.681476,-19.45365 2.391813,-3.12617 5.408175,-5.63466 8.832896,-7.64213 -0.06863,0.1853 -0.140695,0.36374 -0.181874,0.56278 l 0.751517,0.49758 c 9.780013,-0.003 20.287522,-0.91624 29.954293,0.49071 1.695202,0.24708 3.177646,1.13242 4.787059,1.68834 5.415039,1.86678 11.265889,1.96287 16.842212,3.05068 3.565416,0.70004 6.489125,2.72124 10.106014,3.55169 3.4727626,0.79269 5.9984082,1.33488 8.9461385,3.14676 1.62313901,0.99859 3.2359833,2.07954 4.7458801,3.19137 2.6594773,1.95257 5.9640923,2.27514 8.6922014,4.04241 2.230529,1.44813 3.531099,4.14192 5.463081,5.9435 2.96832,2.75899 5.30866,5.74104 6.756788,9.52608 1.125559,2.93743 0.175011,5.542 -1.060359,8.35247 -1.815308,4.12476 -5.758198,6.93523 -10.35652,7.02102 -5.9846814,0.10981 -11.53355207,-5.41504 -6.5955033,-10.51437 -2.1447397,-0.67259 -3.0438146,3.09529 -3.1570569,4.72529 -0.1750107,2.52221 1.2456649,5.37386 3.2359833,6.84944 3.733563,2.76243 12.6007749,3.08156 16.4338539,0.44268 4.128195,-2.84479 6.650409,-7.86176 5.977819,-12.82726 0.301979,0.48728 0.624548,0.96427 0.978001,1.43097 3.493352,4.50567 7.686747,8.91525 12.319385,12.38801 2.532509,1.90796 10.809488,5.84742 15.521053,7.41222 2.432992,3.08843 3.304615,5.74104 3.256573,10.31534 -0.03432,3.52424 -2.089835,4.88658 -5.02727,6.58178 -2.384951,1.37607 -5.174828,1.81531 -6.835715,-0.75495 -1.86335,-2.88596 0.796127,-4.02525 3.613458,-3.69924 0.07893,-0.24022 0.154421,-0.43925 0.253937,-0.64171 -3.5311,-1.76383 -7.868621,2.12072 -6.681294,5.90919 1.252529,4.03897 10.208962,4.62234 13.197871,2.23053 3.592868,-2.86538 6.756788,-8.48974 5.535144,-13.18072 -0.470127,-1.80844 -2.031497,-5.08217 -3.050677,-6.4754 -0.188791,-0.25058 -0.411718,-0.4735 -0.662296,-0.66229 1.588823,-1.39322 6.231756,-0.75838 8.122558,-1.12556 3.057541,-0.5971 4.711565,-2.4879 6.286661,-5.15767 1.750108,-2.96489 2.384951,-5.7582 -0.247074,-8.45885 -1.58196,-1.61285 -6.279798,-1.5202 -6.053313,1.64372 2.848214,-4.06985 5.542007,0.5319 4.934617,3.77131 -1.513328,7.96128 -12.648817,5.34984 -18.338383,3.78847 -5.216007,-1.43097 -9.83835,-3.08842 -13.692018,-6.88719 -3.712974,-3.66493 -5.408176,-8.10883 -8.47258,-12.21643 -1.36577,-1.83247 -2.88253,-3.32178 -4.450764,-4.7699 3.44531,0.51473 7.305841,0.60052 10.644772,-0.18531 5.596913,-1.32116 7.2578,-5.65182 11.118331,-9.06624 3.410994,-3.0095 9.697655,-5.5729 14.203325,-3.68896 6.091061,2.54967 -3.043815,5.00325 -2.70752,7.18231 1.12556,-0.0961 2.23053,-0.20933 3.256573,-0.64857 1.434402,-0.61082 2.930572,-1.40695 3.424721,-2.78645 1.046633,-2.93057 -0.507875,-5.868 -3.24971,-6.94209 -6.15283,-2.4124 -11.125194,2.14474 -16.602002,3.51737 -5.167964,1.29028 -2.432992,-5.84055 -6.777377,-6.78081 -4.780196,-1.02947 -5.675839,5.96753 -2.031498,7.67302 -1.695202,-2.54966 0.483854,-7.13769 2.841352,-3.76444 2.257982,3.22225 -0.789265,7.43967 -3.297752,9.52264 -3.486489,2.89626 -8.376496,2.78988 -12.614502,1.55108 -1.482444,-0.43238 -3.960047,-1.69864 -5.998408,-3.22226 -0.336243,-0.50707 -0.707773,-0.98983 -1.111833,-1.4447 -0.02745,-0.0446 -0.06863,-0.0995 -0.07893,-0.14069 l 0.01373,0.0721 c -0.43265,-0.49494 -0.908045,-0.95081 -1.420676,-1.36234 l -0.113242,-0.0892 -0.56278,-0.8373 c 0.05491,0.19903 0.147559,0.40149 0.247075,0.60739 -3.517374,-2.67321 -8.3970856,-5.02041 -12.2782066,-7.32987 -4.1968268,-2.50162 -8.1911901,-5.63122 -12.5012591,-8.03676 -3.8742583,-2.15847 -9.2035073,-2.58056 -13.6199553,-3.42129 -4.656659,-0.88535 -8.678475,-1.9114 -13.015997,-3.92574 -7.813715,-3.62718 -18.269751,-2.04179 -26.84871,-2.04865 -0.638274,0 -1.406949,0.007 -2.244255,0.0377 5.662113,-1.60598 11.756605,-2.40897 17.734424,-2.67321 12.734606,-0.56964 26.889889,1.88394 40.4412124,2.2374 1.7089287,0.57307 3.83307892,0.52503 5.8233974,0.003 13.9082082,-0.37748 26.8418472,-3.84338 36.5086182,-16.23139 5.54887,-7.11024 9.879529,-16.80104 19.409037,-19.2958 6.159692,-1.61284 14.618546,-2.87223 21.104239,-1.37606 3.761015,0.86476 8.218642,1.50989 11.708563,3.81592 h 0.655432 c 5.435629,-0.0137 5.85085,-0.41866 1.273118,-1.67805 l -4.5e-5,4.6e-4 C 78.590132,104.0216 59.781622,99.189928 46.779352,107.96106 c -11.763469,7.94068 -14.711199,22.12685 -28.14928,28.00172 -4.310069,1.88394 -8.8466229,2.76929 -13.5135766,3.01293 -0.329432,-1.99032 1.0329067,-3.98407 2.0761081,-5.92978 3.3526575,-6.22832 4.0286795,-13.2013 4.3512485,-20.22575 0.329432,-7.17544 -1.146149,-16.080403 2.88253,-22.38079 2.96832,-4.642933 11.084015,-6.334704 16.032358,-3.788468 4.999818,2.573687 3.9223,7.278388 2.741836,10.974204 5.342975,-2.827625 0.950548,-14.470988 -4.310069,-15.332316 -3.390405,-0.555916 -9.079971,-0.06863 -12.230164,1.746676 -1.921872,1.124402 -3.579131,2.649407 -4.859123,4.471354 -3.6923837,5.154238 -2.5256452,10.377109 -3.3457937,16.33434 -2.1378766,-1.70893 -3.2840255,-3.10559 -6.4204929,-2.9546 -2.94086718,0.14413 -5.4013126,2.24769 -6.7705145,4.71843 -1.8839394,3.4007 -2.4947613,12.87187 3.7129735,10.45604 -7.0313148,-0.50445 -0.9059381,-17.586869 5.9915449,-10.69968 1.5030337,1.4996 1.6746128,3.42815 1.7947183,5.41847 0.2494056,4.85292 -0.1021386,9.71806 -1.046633,14.48471 -0.9265276,4.48508 -3.9600475,9.14517 -7.4533996,12.64882 -13.094923,-0.83387 -26.776647,-5.31552 -38.900432,-6.36559 -1.039659,-0.0865 -2.080726,-0.15514 -3.122741,-0.20589 0.1956,-0.27453 0.387769,-0.54905 0.576506,-0.83731 2.501625,-3.84337 2.237393,-8.1054 5.648387,-11.27961 3.050678,-2.83792 5.435628,-5.66898 10.154056,-5.15424 5.260617,0.57307 5.294933,4.6395 6.320977,8.6819 2.230529,-1.46528 0.374042,-5.60034 -0.535327,-7.37104 -2.192782,-4.25173 -4.001227,-4.57087 -9.224097,-4.04927 -3.297752,0.32944 -6.018998,1.63344 -8.204916,4.16938 -1.695203,1.96973 -2.096698,4.29634 -3.7267,6.18028 -1.609413,-3.34236 -3.290889,-6.345 -7.896074,-5.44249 -1.729518,0.33973 -3.994363,1.29714 -4.557143,3.05068 -0.514738,1.6197 0.435811,3.68552 2.151603,3.75758 -2.031498,-1.90796 -0.984865,-4.9758 1.835897,-5.24346 2.954594,-0.28139 4.491943,2.93401 4.725291,5.46651 0.380905,4.10075 -2.024635,7.06907 -5.837124,8.13972 -10.322203,0.69661 -20.555186,3.82622 -27.10951,11.58846 -1.159876,1.3692 -2.14474,2.70065 -2.98891,4.02525 -0.02059,-2.03836 0,-4.08359 0.09952,-6.14597 0.1956,-4.18996 0.336295,-8.38336 0.449538,-12.58362 0.126968,-4.81108 0.1956,-9.62559 0.24021,-14.43667 0.06177,-5.98125 0.08579,-11.95564 0.08579,-17.902571 -0.02656,-5.947408 -0.184448,-11.893504 -0.473559,-17.83394 -0.340508,-6.68344 -0.787814,-13.361011 -1.341749,-20.030154 -0.422084,-5.15767 -0.878485,-10.298182 -1.328023,-15.438694 l -0.24021,-2.680067 c -0.830444,-9.505487 -1.623139,-19.00411 -2.124151,-28.561071 -0.253937,2.402109 -0.631411,4.471354 -1.101538,5.778787 -0.137263,-0.531895 -0.274527,-1.03977 -0.41179,-1.554507 -0.157853,0.586801 -0.315706,1.17017 -0.473559,1.780992 -0.518169,-1.448128 -0.929959,-3.822784 -1.180464,-6.561188 -0.489362,0.102578 -0.964214,0.265088 -1.413813,0.483853 l -0.778969,1.554508 c 0,9.038791 -0.04118,18.063856 -0.09609,27.082057 l -0.01373,1.897666 c -0.03775,5.607208 -0.07549,11.214415 -0.1304,16.818191 -0.106511,11.006431 -0.231192,22.012679 -0.374043,33.018698 l -0.284821,22.89553 c -0.05834,4.77333 -0.120106,9.54323 -0.175011,14.32343 -0.07893,6.62638 -0.15099,13.26993 -0.21619,19.92377 -0.73306,-1.06981 -1.519904,-2.10176 -2.357498,-3.09186 -5.789076,-6.85973 -14.453826,-10.09915 -23.513206,-11.2453 -3.23311,-1.15101 -6.50796,-2.1812 -9.81776,-3.08842 -3.84337,-1.05693 -6.27293,-4.03554 -5.8886,-8.15688 0.23335,-2.5325 1.77413,-5.7479 4.72529,-5.46651 2.8242,0.26766 3.8674,3.3355 1.8359,5.24346 1.71922,-0.0721 2.66634,-2.13788 2.1516,-3.75758 -0.55934,-1.75011 -2.82419,-2.71095 -4.55028,-3.05068 -4.60861,-0.90251 -6.29009,2.10013 -7.89607,5.44249 -1.63343,-1.88394 -2.03493,-4.21055 -3.73013,-6.18028 -2.18592,-2.53594 -4.90717,-3.83994 -8.20492,-4.16938 -5.21944,-0.5216 -7.02788,-0.20589 -9.22066,4.04927 -0.9128,1.7707 -2.76929,5.90576 -0.53876,7.37104 1.0329,-4.0424 1.06379,-8.11226 6.32441,-8.6819 4.71842,-0.51131 7.10337,2.31975 10.15062,5.15424 3.41443,3.17421 3.14676,7.43624 5.64839,11.27961 0.9677,1.48588 2.04522,2.77615 3.22912,3.85367 -12.96453,1.21478 -27.65857,6.21803 -41.50157,6.44108 l 0.024,-0.10294 c -4.71157,-3.48992 -9.45058,-9.61187 -10.64821,-15.4284 -0.9453,-4.76653 -1.29571,-9.63192 -1.0432,-14.48472 0.11668,-1.99375 0.29168,-3.9223 1.78786,-5.41847 6.90091,-6.883756 13.02628,10.19524 5.99496,10.69968 6.21118,2.41583 5.59693,-7.05534 3.71641,-10.45604 -1.3692,-2.47074 -3.82964,-4.57773 -6.77395,-4.71842 -3.1399,-0.15099 -4.28605,1.24566 -6.42049,2.95459 -0.81329,-5.95723 0.34659,-11.1801 -3.3458,-16.334339 -1.27918,-1.822659 -2.93661,-3.347821 -4.85912,-4.471353 -3.15019,-1.811876 -8.83633,-2.302593 -12.22673,-1.746676 -5.26062,0.861327 -9.65304,12.504691 -4.3135,15.332315 -1.18047,-3.695815 -2.26485,-8.400516 2.7384,-10.974204 4.94836,-2.546235 13.06405,-0.854464 16.03237,3.788468 4.02868,6.300388 2.54966,15.205349 2.88253,22.380789 0.32257,7.02445 0.99859,13.99743 4.34782,20.22575 1.36577,2.54281 3.27373,5.16454 1.25253,7.74852 -2.20167,-0.48188 -4.35178,-1.17484 -6.4205,-2.06925 -13.43465,-5.87144 -16.38238,-20.06103 -28.14928,-28.00172 -12.99884,-8.77113 -31.80391,-3.93946 -45.19052,1.31773 -4.5743,1.25939 -4.15908,1.66432 1.26282,1.66775 h 0.65886 c 3.48992,-2.30602 7.94754,-2.95116 11.70513,-3.81592 6.48912,-1.49617 14.94798,-0.23335 21.10767,1.37606 9.53294,2.49477 13.8636,12.18556 19.40904,19.2958 18.09817,23.20437 47.65783,15.14358 73.61776,14.03518 -2.29573,0.35688 -4.49538,0.94025 -6.51658,1.8805 -4.33752,2.01091 -8.36277,3.04039 -13.01256,3.92573 -4.41645,0.84074 -9.74913,1.26283 -13.61996,3.42129 -4.31007,2.40554 -8.301,5.53515 -12.50469,8.03677 -3.88112,2.30946 -8.7574,4.65666 -12.27477,7.32987 0.10214,-0.19265 0.1849,-0.39496 0.24707,-0.60396 l -0.55935,0.8373 c -0.55822,0.43544 -1.0741,0.9226 -1.54078,1.45499 l 0.0172,-0.0721 c -0.0172,0.0412 -0.0583,0.0995 -0.0789,0.14413 -0.40508,0.45248 -0.77775,0.93294 -1.11526,1.43783 -2.03836,1.52706 -4.5194,2.79331 -5.99841,3.22569 -4.23801,1.2388 -9.13145,1.34518 -12.6145,-1.55108 -2.50506,-2.08297 -5.55574,-6.30038 -3.30119,-9.52264 2.36437,-3.37325 4.53999,1.21478 2.84479,3.76445 3.64777,-1.7055 2.7487,-8.70593 -2.02807,-7.67302 -4.34782,0.93682 -1.60941,8.07108 -6.78081,6.7808 -5.47337,-1.3692 -10.44574,-5.92977 -16.602,-3.51737 -2.73497,1.07409 -4.29634,4.01152 -3.24628,6.9421 0.49415,1.37949 1.99032,2.17562 3.42129,2.78644 1.02604,0.43924 2.13788,0.55249 3.25657,0.64857 0.3363,-2.18249 -8.79858,-4.63607 -2.70408,-7.1823 4.50223,-1.88394 10.79233,0.67602 14.19989,3.68895 3.86396,3.41442 5.52142,7.74508 11.12519,9.06624 3.3355,0.78583 7.1926,0.70348 10.63791,0.18531 -1.56823,1.44813 -3.07813,2.93743 -4.44733,4.7699 -3.0644,4.1076 -4.75618,8.55151 -8.47258,12.21644 -3.85024,3.79533 -8.47601,5.45621 -13.69202,6.88718 -5.68956,1.56138 -16.81819,4.17624 -18.33152,-3.78846 -0.61425,-3.23599 2.08297,-7.83774 4.93119,-3.77131 0.22305,-3.16392 -4.47479,-3.25315 -6.04988,-1.64373 -2.63889,2.70065 -2.00062,5.49396 -0.25051,8.45885 1.5751,2.66977 3.23255,4.56058 6.29009,5.15767 1.88737,0.36718 6.53031,-0.26766 8.12256,1.12556 -0.25249,0.18774 -0.47669,0.41078 -0.66573,0.6623 -1.01918,1.38979 -2.58055,4.66352 -3.05067,6.47539 -1.21478,4.69098 1.9457,10.31534 5.53514,13.18072 2.99234,2.38838 11.94191,1.80501 13.2013,-2.23053 1.1839,-3.78847 -3.15362,-7.66959 -6.68472,-5.90919 0.0995,0.20246 0.17501,0.39806 0.25393,0.64171 2.8139,-0.326 5.48024,0.81328 3.61346,3.69924 -1.66088,2.57026 -4.45076,2.13102 -6.83571,0.75495 -2.93401,-1.6952 -4.99982,-3.05754 -5.0307,-6.58177 -0.0446,-4.57431 0.82701,-7.22349 3.26343,-10.31535 4.7047,-1.5648 12.98511,-5.50426 15.51762,-7.41222 4.62921,-3.47619 8.82604,-7.88234 12.31596,-12.38801 0.35688,-0.46327 0.67602,-0.94369 0.978,-1.43097 -0.66573,4.96207 1.85648,9.98247 5.98468,12.82726 3.83308,2.64232 12.70029,2.31975 16.43042,-0.44268 1.99375,-1.47558 3.411,-4.32722 3.23255,-6.84944 -0.11324,-1.63 -1.00888,-5.39788 -3.15019,-4.72529 4.93462,5.10277 -0.61082,10.62762 -6.59894,10.51437 -4.59489,-0.0858 -8.53778,-2.89969 -10.35308,-7.02102 -1.23537,-2.81046 -2.18592,-5.41504 -1.06379,-8.35247 1.44469,-3.78504 3.78846,-6.76708 6.75335,-9.52608 1.93542,-1.80158 3.23255,-4.49537 5.46652,-5.9435 2.72467,-1.76727 6.02929,-2.08983 8.6922,-4.04241 1.50989,-1.1084 3.12274,-2.19278 4.74588,-3.19137 2.94773,-1.81531 5.48024,-2.35406 8.953,-3.14676 3.61689,-0.83044 6.53717,-2.85165 10.10601,-3.55169 5.57633,-1.08781 11.42374,-1.1839 16.84221,-3.05068 1.60942,-0.55591 3.08843,-1.43783 4.7905,-1.68834 9.66333,-1.40695 20.17428,-0.49414 29.95429,-0.49071 l 0.652,-0.43581 c 5.02384,2.18591 9.436859,5.22287 12.738043,9.36822 -0.05558,6.40668 -0.09905,12.81346 -0.130401,19.2203"
         id="path252"
         style="clip-rule:evenodd;fill:none;fill-rule:evenodd;stroke:#000000;stroke-width:0.105191;stroke-dasharray:none;stroke-opacity:1"
         sodipodi:nodetypes="cccccccccccccccccccccccccccccccccccccccccccccccccccccccccccccccccccccccccccccccccccccccsccccccccccccccccccccccccccccccccccccccccccccccccccccccccccccccccccccccccccccccccccccccccccccccccccccccccccccccsccccccccccccccccccccccccccccccccccccccccccccccccccccc" /><path
         d="m -91.893267,184.48285 c 0.0069,-2.39524 0.0069,-4.79735 0.02059,-7.18573 -2.408972,-3.50022 -6.188252,-6.8332 -10.237523,-8.69998 -4.58459,-2.11043 -10.25357,-1.08095 -15.05092,-1.55451 -3.74386,-0.36718 -6.77052,-0.21276 -9.97905,1.20105 -0.16471,0.0137 -0.3157,0.0103 -0.48385,0.0309 -5.4322,0.60053 -9.65305,4.12819 -14.10724,7.00729 -4.14535,2.68007 -6.92837,5.17826 -10.25014,9.23096 -5.11306,6.23176 -7.12397,14.22735 -7.75881,22.08911 -0.91624,11.31393 -3.9223,26.17612 -17.82708,27.86102 -7.75538,0.93683 -11.21441,-3.30461 -9.74226,-9.41283 -3.36296,4.33066 -2.65948,7.52203 -2.05896,9.34763 1.3898,4.21742 5.32582,4.60176 9.39225,4.64637 7.03131,0.0755 11.15608,-1.08438 15.65145,-6.41706 2.01777,-2.39525 5.11992,-6.7465 5.43563,-9.74227 1.57853,0.80985 1.36577,3.97034 2.90998,5.42877 2.52565,2.38838 7.75195,2.62516 10.74772,1.22164 4.98266,-2.32318 10.40456,-8.953 6.61953,-14.39549 -1.12556,-0.0892 -2.36093,-2.02464 -3.44874,-2.22367 7.86519,7.87205 -5.41847,19.86201 -12.35027,10.73743 -3.56885,-4.69784 -1.35548,-13.88419 -0.40493,-19.15854 1.38293,-7.71763 5.62437,-15.46957 11.20069,-21.0459 3.3579,-3.39677 7.3783,-6.06691 11.81151,-7.8446 -1.17703,2.36093 -1.90796,5.02727 -2.07954,7.14113 -0.37747,4.55371 3.31834,8.60984 6.08763,11.78062 6.44451,7.38477 8.44513,19.27521 -3.31148,21.7082 3.80906,2.62516 9.90012,-2.20651 11.5713,-5.47681 2.89283,-5.64838 -0.0309,-9.18978 -3.10215,-13.72633 -4.53312,-6.69845 -11.51296,-20.50714 1.86678,-21.86262 5.08904,-0.51474 8.70593,2.47417 13.03659,4.57087 3.96691,1.92169 6.71217,4.2586 9.354494,7.78283 0.748085,0.99859 1.472149,2.12072 2.165329,3.29775 1.969729,8.51719 1.976592,16.87996 1.976592,26.49183 -0.0034,23.56125 -2.477603,47.4588 -4.502237,70.88965 -2.789878,32.34268 -2.052088,65.33392 -4.512528,97.66974 -0.44575,5.50085 -0.70784,11.01503 -0.78584,16.53336 -1.12114,2.63671 -2.32392,5.23796 -3.60659,7.79999 -5.39102,10.96391 -9.07997,23.80833 -19.74533,30.95289 -7.49115,5.01354 -16.95546,4.8351 -24.2613,10.24328 -2.30259,1.70549 -4.15222,4.28604 -6.54746,5.83026 -4.06643,2.62173 -9.87267,4.48851 -14.26853,6.22832 -9.57411,3.79533 -38.4955,6.95239 -31.78675,23.0774 1.81187,-1.67804 1.78099,-4.21742 3.1948,-6.07733 2.4879,-3.26687 6.49942,-4.21742 10.19867,-4.57774 3.8468,-0.37404 7.92009,-0.32943 11.61591,-1.21821 3.17421,-0.76181 5.85428,-2.76929 8.99075,-3.60659 15.46271,-4.1179 9.88982,10.31191 7.99902,18.34181 -1.89424,0.28825 -4.14192,6.02929 -4.54342,7.96471 -1.27655,0.7721 -2.82419,1.82217 -3.89828,2.67663 8.16717,-1.00888 12.04143,-7.80685 17.28146,-13.78467 3.35265,-3.81935 4.24143,-10.07513 8.56866,-13.29052 5.54544,-4.1179 18.0467,-5.367 24.98193,-4.50224 4.02182,7.14112 5.88173,11.25559 -0.33286,18.17367 5.17482,-1.24567 6.36901,-2.92714 8.78142,-7.95098 2.18249,-4.54685 4.36154,-8.59612 9.46087,-10.3977 6.674434,-2.36093 10.675661,-0.48042 14.755813,4.56744 2.251119,2.77958 10.349657,10.10258 9.001044,13.76065 2.614867,1.40351 4.169374,4.0424 7.082789,5.12678 6.224892,2.31289 10.027087,1.28685 15.90539,0.0378 -5.885166,1.06379 -11.6365,-1.20792 -14.182735,-7.26466 -2.299161,-5.46308 -2.728109,-12.66598 2.652614,-16.11472 5.233165,-3.35266 15.8848,-4.27232 20.167417,1.79129 1.784423,2.52564 1.111833,6.55775 -0.809854,8.82603 2.378087,0.7927 2.875667,9.79717 5.322386,9.03879 0.689748,-4.47822 7.727926,-16.70838 12.116922,-16.98634 5.30866,-0.33286 9.529507,5.13708 12.017406,9.50549 3.805626,6.68129 2.364361,17.42901 11.8286682,18.5683 -3.9325952,-0.89565 -3.6649313,-9.06968 -3.8056262,-12.038 -0.645138,-13.51014 6.0258608,-14.61511 18.2766143,-14.69404 7.8960737,-0.0549 11.4614887,-1.44469 16.1456007,4.60519 0.857896,1.10497 1.067223,2.27514 2.333477,3.55855 3.651205,3.68552 10.112877,4.62234 14.971999,5.25375 -4.402722,-0.7172 -9.711381,-11.36883 -12.398311,-14.87248 -4.430175,-5.79251 -20.0267222,-5.18169 -28.2247755,-14.45726 -4.6257746,-5.2263 -5.3601335,-3.69925 -12.8203965,-4.09731 -4.069858,-0.21276 -6.660704,-0.26423 -8.25639,-0.22649 -0.816717,-0.53876 -2.954593,-1.44126 -7.511736,-2.88939 -5.984682,-1.9011 -6.71561,-1.45156 -11.200689,-5.35327 -2.223666,-1.93198 -3.81249,-3.71297 -5.710155,-5.91605 -2.124151,-2.4776 -4.00809,-5.26405 -6.259209,-7.62155 -2.103561,-2.19621 -5.802808,-3.85023 -7.508305,-6.24205 -2.954593,-4.13506 -4.368406,-12.36743 -6.238619,-17.43587 -1.983455,-5.40132 -3.699247,-10.57615 -4.564006,-16.16276 -0.394632,-2.54967 -1.159875,-4.88315 -2.05895,-7.16858 -0.490717,-10.0614 -1.026044,-20.12624 -1.801582,-30.06754 -0.929959,-11.81837 -3.036951,-24.32306 -2.347203,-35.86691 1.12556,-18.90459 -3.754152,-36.20664 -3.96691,-55.173 -0.168148,-14.51217 0.07206,-28.93511 -1.132423,-43.31002 -0.147558,-1.8153 -0.315706,-3.71297 -0.47699,-5.64152"
         id="path254"
         style="clip-rule:evenodd;fill:none;fill-rule:evenodd;stroke:#000000;stroke-width:0.105191;stroke-dasharray:none;stroke-opacity:1"
         sodipodi:nodetypes="cccccccccccccccccccscccccccccccccccccccsccccccccccccccccccccccccccccccccccccccccccscccccc" /><path
         d="m -6.087625,499.141 a 3.2256886,3.2256886 0 0 0 0.9780013,0.0823 12.37429,12.37429 0 0 1 -0.9780013,-0.0823 z"
         id="path256"
         style="clip-rule:evenodd;fill-rule:evenodd;stroke-width:0.10519092;fill:none;stroke:#000000;stroke-opacity:1;stroke-dasharray:none" /></g></g></svg>
