<svg width="11197.233" height="640.193" viewBox="0 0 2962.601 169.384" xml:space="preserve" xmlns="http://www.w3.org/2000/svg"><defs><path id="c" d="M5102.864 458.321h1717.47v2384.194h-1717.47z"/><path id="b" d="M4432.115 396.85h9956.31v1159.893h-9956.31z"/><path id="a" d="M5102.864 458.321h819.794v161.505h-819.794z"/></defs><g style="fill:none;stroke:#000;stroke-opacity:1"><path style="font-style:italic;font-weight:700;font-size:70.5556px;line-height:1.25;font-family:'Tengwar Annatar';-inkscape-font-specification:'Tengwar Annatar, Bold Italic';fill:none;fill-opacity:1;stroke:#000;stroke-width:.264583;stroke-opacity:1" d="M-1105.574 68.51c-.345 0-.62.011-.827.034-.207 0-.46.035-.758.103-5.558.827-12.38 5.605-20.464 14.332l-12.712 14.297c-4.02 4.548-6.087 6.914-6.202 7.097-.06.087-.113.17-.163.25-1.782 1.191-3.21 2.303-4.28 3.333-.598.551-.92.827-.965.827v-.035c.16-1.102.241-1.929.241-2.48 0-.46-.035-.907-.104-1.344-.344-1.906-1.206-3.26-2.584-4.065a12.21 12.21 0 0 1-.585-.31c-.46-.183-1.275-.276-2.446-.276-1.148 0-1.826.012-2.033.035-1.171.046-2.32.218-3.445.517-3.192.873-5.902 2.55-8.13 5.03-1.24 1.378-1.86 2.411-1.86 3.1 0 .436.218.632.654.586a5.108 5.108 0 0 0 1.034-.207c.206-.092.643-.368 1.309-.827 1.01-.712 2.928-1.068 5.753-1.068h.414c1.033 0 1.894.287 2.583.861 1.08.896 1.62 2.229 1.62 3.997 0 .597-.093 1.332-.276 2.205-.643 3.192-1.895 6.603-3.755 10.231-.712 1.401-1.746 2.94-3.1 4.617-.736.896-1.103 1.608-1.103 2.136 0 .368.195.551.585.551.804 0 1.803-.436 2.997-1.309 2.642-1.998 5.237-5.282 7.787-9.853 2.227-3.996 4.053-6.867 5.477-8.613 2.297-2.825 4.685-4.237 7.166-4.237 1.286 0 2.664.436 4.134 1.309 3.009 1.745 4.513 4.525 4.513 8.337 0 2.205-.597 4.226-1.791 6.064a.534.534 0 0 1-.104.138c-.574.666-1.745.998-3.514.998-.689 0-1.285-.057-1.79-.172-.69-.16-1.448-.574-2.275-1.24-.827-.643-1.722-.965-2.687-.965-1.447 0-2.698.529-3.755 1.585-1.148 1.149-1.723 2.458-1.723 3.928v.344c.184 2.457 2.044 3.686 5.581 3.686.528 0 1.068-.034 1.62-.103 4.386-.62 8.693-3.33 12.919-8.13 1.286-1.448 2.733-3.595 4.34-6.443 1.631-2.917 2.79-4.823 3.48-5.719 1.86-2.388 4.054-3.582 6.58-3.582a7.52 7.52 0 0 1 3.342.792c.505.252 1.01.574 1.516.965 2.457 1.975 3.686 4.593 3.686 7.854 0 1.149-.218 2.4-.655 3.756-.528 1.561-.999 2.468-1.412 2.721l-.138.069c-.942.459-2.044.689-3.307.689a6.558 6.558 0 0 1-1.723-.207c-.62-.16-1.343-.574-2.17-1.24-.804-.643-1.688-.965-2.653-.965-1.08 0-2.124.356-3.135 1.068-1.585 1.08-2.377 2.492-2.377 4.238 0 .574.08 1.09.241 1.55.551 1.792 2.354 2.687 5.409 2.687 1.791 0 3.755-.505 5.891-1.516 3.445-1.63 6.489-4.053 9.13-7.269 3.17-3.858 4.754-7.705 4.754-11.541 0-3.124-.93-5.707-2.79-7.751-1.907-2.068-4.296-3.101-7.167-3.101-1.814 0-3.847.574-6.097 1.723-2.71 1.378-5.892 3.766-9.543 7.165-.322-1.607-.873-3.043-1.654-4.306-1.86-3.055-4.593-4.582-8.2-4.582-1.083 0-2.245.208-3.486.625a6153.83 6153.83 0 0 0 11.755-13.234c3.583-4.065 4.617-5.236 3.1-3.514 6.822-7.625 12.277-11.438 16.365-11.438.69 0 1.332.093 1.93.276.413.138.86.356 1.343.655 1.906 1.24 2.859 2.986 2.859 5.236 0 .827-.149 1.63-.448 2.412-.344 1.263-1.32 1.895-2.928 1.895-1.286 0-2.297-.448-3.032-1.344-.597-.712-.895-1.424-.895-2.136 0-.46.206-.953.62-1.481.482-.62.723-1.137.723-1.55 0-.345-.207-.517-.62-.517-.988.091-2.17.827-3.549 2.205-1.561 1.7-2.342 3.353-2.342 4.96 0 .896.241 1.711.723 2.446.942 1.447 2.423 2.17 4.445 2.17.918 0 1.837-.149 2.755-.447 2.596-.827 4.881-2.526 6.856-5.099 1.884-2.457 2.825-4.834 2.825-7.13 0-1.7-.47-3.194-1.412-4.48-1.378-1.906-3.342-2.859-5.891-2.859zM-1145.124 158.806q-1.688 0-1.998-1.62-.07-.31-.07-.654 0-1.102.655-2.205.827-1.412 3.204-4.375l2.446-3.17q.965-1.274 1.206-1.446.38-.276.758-.276.758 0 .965.827.034.138.034.344 0 .586-2.515 6.443-1.482 3.376-2.136 4.444-1.103 1.688-2.55 1.688zM-1019.792 100.067c-2.02 0-4.226.138-6.614.413-2.044.253-4.03.69-5.96 1.31-3.796 1.232-6.989 2.938-9.58 5.116.022-.292.037-.576.037-.845 0-1.033-.126-1.906-.379-2.618-.712-2.113-2.779-3.17-6.2-3.17-3.63 0-7.626 1.528-11.99 4.583l-.413.275c-.023 0-.103-.114-.241-.344-.551-.942-1.125-1.7-1.723-2.274-1.102-1.102-2.515-1.654-4.237-1.654-.804 0-1.55.046-2.24.138a14.26 14.26 0 0 0-2.308.483c-3.031.941-5.673 2.698-7.923 5.27-1.149 1.333-1.723 2.274-1.723 2.825.023.276.241.46.655.552.23 0 .436-.023.62-.07.367-.068.884-.344 1.55-.826 1.103-.804 2.687-1.206 4.754-1.206 2.55 0 4.57 1.987 6.063 5.96.414 1.08 1.08 3.422 1.999 7.028l.895 3.583c1.172 4.203 2.79 7.338 4.858 9.405l.483.517-4.204 6.752c-10.45 16.192-24.425 32.247-41.926 48.163-2.596 2.366-3.894 4.042-3.894 5.03 0 .367.219.551.655.551.85 0 2.17-.735 3.962-2.205.78-.643 2.87-2.56 6.27-5.753 18.42-17.318 33.096-34.888 44.028-52.71l3.652-6.133c1.31-2.32 2.458-4.444 3.446-6.373 2.076-4.01 3.565-7.433 4.468-10.27l2.214-1.685c2.917-2.067 7.58-3.192 13.988-3.376.55 0 .826.012.826.035l-.034.034-.93.861c-5.696 5.145-8.544 10.14-8.544 14.987 0 2.64.816 4.857 2.446 6.649 1.838 1.975 4.203 2.962 7.097 2.962 4.34 0 9.451-2.514 15.33-7.544l.07.138c.207 1.378.85 2.71 1.93 3.996 1.906 2.274 4.386 3.41 7.44 3.41.736 0 1.47-.068 2.205-.206 2.665-.529 5.73-2.148 9.199-4.858 1.309-1.033 1.987-1.55 2.033-1.55l-.93 2.618c-1.172 3.239-2.596 6.546-4.273 9.922-6.316 12.747-15.595 25.7-27.836 38.86l-6.752 6.96-11.472 10.955c-4.065 3.744-6.294 5.81-6.684 6.201-1.355 1.355-2.033 2.435-2.033 3.239 0 .39.207.585.62.585 1.011 0 2.446-.838 4.307-2.514 3.17-2.756 7.04-6.328 11.61-10.715l9.13-8.957c13.16-13.39 23.437-26.286 30.833-38.689 2.274-3.812 4.249-7.44 5.926-10.886 2.181-4.455 4.249-9.612 6.2-15.469 1.448-4.363 2.665-7.521 3.653-9.473 3.054-.575 5.627-1.964 7.717-4.17 1.17-1.216 1.757-2.158 1.757-2.824 0-.436-.23-.655-.69-.655-.39 0-.86.161-1.412.483-1.24.689-3.066 1.033-5.478 1.033-10.68.046-20.808-.31-30.386-1.068-6.844-.528-12.15-.792-15.916-.792zm.38 6.511c.298 0 .688.012 1.17.035l15.4 1.136-2.41 2.516c-1.884 2.09-3.4 4.478-4.549 7.165-.804 1.93-1.424 3.193-1.86 3.79-.666.896-1.573 1.665-2.722 2.308-1.676.896-3.295 1.343-4.857 1.343-1.975 0-3.721-.596-5.237-1.79-2.09-1.654-3.135-3.928-3.135-6.822a7.8 7.8 0 0 1 .07-1.034c.298-2.618 1.561-4.846 3.79-6.683 1.584-1.31 3.031-1.964 4.34-1.964zm-35.554.861c3.468 0 5.202 1.54 5.202 4.617 0 1.929-.666 4.524-1.998 7.786l-.413.965c-1.217 2.733-1.884 4.1-1.998 4.1 0-.047-.104-.23-.31-.552-.92-1.516-1.758-3.606-2.515-6.27l-1.792-7.132-.758-2.48c0-.069.126-.15.38-.241a11.299 11.299 0 0 1 4.202-.793zm59.738.655 14.539.276h.275c-.436.666-1.493 2.607-3.17 5.822-2.342 4.525-4.076 7.257-5.202 8.199l-.688.551c-1.7 1.287-3.4 1.93-5.1 1.93-1.148 0-2.4-.333-3.754-1-3.055-1.492-4.582-4.03-4.582-7.613 0-.46.069-1.034.206-1.723.506-2.572 1.355-4.271 2.55-5.098 1.332-.896 2.974-1.344 4.926-1.344zM-998.466 87.871q-.724 0-.93-.827-.035-.137-.035-.31 0-.55 2.102-5.994 1.584-4.203 2.377-5.374.93-1.482 2.342-1.482 1.344 0 1.93 1.206.24.482.206 1.102-.034 1.585-1.86 4.135l-3.927 5.408-.62.93q-.758 1.137-1.585 1.206zM-983.756 92.281q6.305 0 9.991-2.687l1.998-1.516q.655-.413 1.275-.413.62 0 .62.585 0 1.378-2.997 3.721-6.27 4.926-14.297 5.099h-.655q-4.34 0-12.609-1.55-8.061-1.516-11.679-1.689-.861-.034-1.653-.034-6.27 0-9.957 2.653l-2.067 1.55q-.723.448-1.378.448-.654 0-.654-.586 0-1.137 2.273-3.17 3.928-3.513 9.715-4.926 2.929-.723 5.926-.723 4.72 0 12.3 1.481 7.44 1.447 11.092 1.688 1.378.069 2.756.069zM-876.579 71.163c-1.975 0-4.226.792-6.752 2.377-5.122 3.215-9.842 8.83-14.16 16.846l-1.205 2.309c-3.052 5.891-4.994 9.746-5.865 11.639a17.722 17.722 0 0 0-2.047 2.104c-.354-.668-.782-1.3-1.286-1.892-2.113-2.504-5.019-3.732-8.717-3.687-3.606.046-7.924 1.976-12.953 5.788l-3.928 3.17c.39-1.333.586-2.516.586-3.55 0-.114-.012-.24-.034-.378-.092-2.25-.907-3.881-2.446-4.892a4.568 4.568 0 0 0-1.379-.62c-.298-.07-.93-.104-1.894-.104h-1.723a16.967 16.967 0 0 0-3.548.517c-3.262.85-6.018 2.504-8.269 4.961-1.286 1.401-1.929 2.47-1.929 3.204 0 .436.219.632.655.586.413-.046.78-.126 1.102-.241.23-.07.666-.333 1.31-.792 1.033-.712 2.928-1.069 5.684-1.069h.413c1.08 0 1.964.299 2.653.896 1.034.896 1.55 2.194 1.55 3.893 0 1.401-.55 3.606-1.653 6.615a93.112 93.112 0 0 1-5.203 11.782l-3.031 5.685c-15.25 28.226-32.35 51.021-51.298 68.384l-1.55 1.482c-1.355 1.424-2.033 2.526-2.033 3.307 0 .345.207.517.62.517.712 0 1.746-.506 3.1-1.516 1.287-.965 3.71-3.17 7.27-6.615l2.274-2.239c17.892-17.868 34.152-40.284 48.783-67.248 2.411-4.456 4.134-7.797 5.167-10.025l1.757-3.583c1.677-2.986 3.468-5.305 5.375-6.96.528-.458 1.067-.884 1.619-1.274 2.388-1.677 4.65-2.515 6.787-2.515 1.4 0 2.905.413 4.513 1.24 3.399 1.7 5.099 4.536 5.099 8.51 0 .872-.138 1.803-.414 2.79-.436 1.677-.942 2.757-1.516 3.239a9.959 9.959 0 0 1-4.513 1.067c-.689 0-1.286-.057-1.792-.172-.689-.183-1.446-.597-2.273-1.24-.827-.643-1.723-.965-2.687-.965-.988 0-1.976.322-2.963.965-1.677 1.103-2.515 2.596-2.515 4.479 0 2.733 1.849 4.1 5.547 4.1.987 0 1.94-.092 2.859-.276 1.47-.276 2.986-.816 4.548-1.62 3.468-1.768 6.51-4.317 9.13-7.648 2.939-3.743 4.409-7.303 4.409-10.68 0-1-.107-1.946-.317-2.84.196-.128.422-.277.696-.466 1.01-.712 2.928-1.069 5.753-1.069h.414c1.033 0 1.894.288 2.583.862 1.08.896 1.62 2.228 1.62 3.996 0 .597-.092 1.332-.276 2.205-.643 3.193-1.895 6.603-3.755 10.232-.712 1.401-1.746 2.94-3.1 4.616-.736.896-1.103 1.608-1.103 2.136 0 .368.195.551.585.551.781 0 1.86-.516 3.239-1.55a18.113 18.113 0 0 0 1.929-1.688c3.1-3.1 5.742-7.476 7.924-13.126 1.584-4.042 2.377-7.177 2.377-9.405 0-1.447-.368-2.744-1.103-3.893-.413-.62-.873-1.09-1.378-1.412-.689-.46-1.768-.69-3.238-.69-1.148 0-1.826.012-2.033.035-1.171.046-2.32.218-3.445.517-.473.13-.935.277-1.387.442.553-1.12 1.333-2.726 2.386-4.921 3.905-8.061 7.5-13.85 10.784-17.363.321-.345.62-.643.895-.896 1.539-1.424 3.147-2.136 4.823-2.136 1.562 0 2.883.506 3.962 1.516 1.424 1.286 2.136 2.952 2.136 4.996 0 .62-.08 1.24-.24 1.86-.116.46-.208.77-.277.93-.344.827-1.056 1.24-2.136 1.24-1.24 0-2.216-.39-2.928-1.171-.643-.712-.964-1.447-.964-2.205 0-.276.114-.574.344-.896.413-.55.62-.999.62-1.343 0-.368-.195-.552-.586-.552-.62 0-1.48.425-2.583 1.275-1.953 1.516-2.929 3.239-2.929 5.168 0 1.033.322 1.94.965 2.722.965 1.171 2.308 1.757 4.03 1.757.713 0 1.505-.127 2.378-.38 2.986-.941 5.466-2.905 7.441-5.89 1.332-1.999 1.999-4.043 1.999-6.133 0-1.837-.494-3.433-1.482-4.789-1.378-1.929-3.33-2.893-5.857-2.893zM-785.56 40.88c-.344 0-.792.15-1.343.448-2.205 1.149-5.489 4.146-9.852 8.992-3.354 3.698-6.34 7.522-8.958 11.472-8.085 12.242-14.814 29.065-20.188 50.47l-.551 2.205c-.827 2.894-2.527 5.283-5.1 7.166-.642.46-1.182.839-1.618 1.137-2.16 1.401-4.17 2.101-6.03 2.101-2.457 0-4.604-.792-6.441-2.377-2.182-1.906-3.274-4.363-3.274-7.372 0-.941.173-1.964.517-3.066.46-1.608.942-2.584 1.447-2.928.092-.07.218-.138.379-.207 1.24-.597 2.618-.896 4.134-.896.597 0 1.126.058 1.585.173.758.16 1.596.585 2.515 1.274.827.62 1.654.93 2.48.93.69 0 1.459-.183 2.308-.55 2.205-.965 3.308-2.62 3.308-4.962 0-.184-.012-.367-.034-.551-.276-2.32-2.136-3.48-5.582-3.48-4.271 0-8.635 1.987-13.09 5.96-5.191 4.663-7.787 9.474-7.787 14.435 0 2.71.85 5.065 2.55 7.063 2.09 2.48 4.88 3.72 8.371 3.72 1.401 0 2.94-.298 4.617-.895 3.95-1.378 8.188-4.077 12.712-8.096.023-.023.046-.035.069-.035-1.171 5.26-1.757 8.108-1.757 8.544 0 .322.184.482.551.482.827 0 1.952-.505 3.376-1.515 2.274-1.654 3.63-3.538 4.066-5.65a403.33 403.33 0 0 1 3.5-15.722c.237-.143.556-.352.978-.642 1.01-.712 2.929-1.069 5.754-1.069h.413c1.057 0 1.94.31 2.653.93 1.033.896 1.55 2.228 1.55 3.997 0 .804-.195 1.94-.586 3.41a42.02 42.02 0 0 1-4.237 10.439c-.368.666-1.068 1.585-2.102 2.756-.873.988-1.309 1.803-1.309 2.446 0 .414.207.62.62.62.23 0 .586-.068 1.068-.206a51.764 51.764 0 0 1 13.85-1.895c1.997 0 4.524.15 7.579.448 4.708.46 7.774.689 9.198.689h1.068c2.596 0 5.087-.356 7.476-1.068 3.95-1.148 7.189-3.02 9.715-5.616 1.378-1.424 2.067-2.514 2.067-3.272 0-.437-.23-.655-.689-.655-.505 0-1 .138-1.481.413l-1.895 1.379c-2.366 1.607-5.891 2.41-10.577 2.41-1.286 0-2.228-.034-2.825-.103a43.494 43.494 0 0 0 2.48-2.549c3.744-4.249 5.616-8.142 5.616-11.679 0-2.296-.7-4.283-2.101-5.96-1.975-2.32-4.766-3.48-8.372-3.48-.812 0-1.566.067-2.264.197.549-1.113 1.31-2.683 2.299-4.744 3.904-8.061 7.499-13.85 10.783-17.363.322-.345.62-.643.896-.896 1.539-1.424 3.146-2.136 4.823-2.136 1.561 0 2.882.506 3.962 1.516 1.424 1.286 2.135 2.952 2.135 4.996 0 .62-.08 1.24-.24 1.86-.115.46-.207.77-.276.93-.345.827-1.057 1.24-2.136 1.24-1.24 0-2.217-.39-2.929-1.171-.643-.712-.964-1.447-.964-2.205 0-.276.115-.574.344-.896.414-.55.62-.999.62-1.343 0-.368-.195-.552-.585-.552-.62 0-1.481.425-2.584 1.275-1.952 1.516-2.928 3.239-2.928 5.168 0 1.033.321 1.94.964 2.722.965 1.171 2.309 1.757 4.031 1.757.712 0 1.505-.127 2.377-.38 2.986-.941 5.467-2.905 7.442-5.89 1.332-1.999 1.998-4.043 1.998-6.133 0-1.837-.494-3.433-1.482-4.789-1.378-1.929-3.33-2.893-5.856-2.893-1.975 0-4.226.792-6.753 2.377-5.121 3.215-9.841 8.83-14.159 16.846l-1.206 2.309c-2.324 4.485-3.993 7.77-5.052 9.938-.197.094-.396.192-.598.294-3.17 1.584-6.258 3.697-9.267 6.338l-.62.517c.321-1.401.482-2.572.482-3.514 0-.413-.034-.827-.103-1.24-.322-1.975-1.183-3.365-2.584-4.169a12.17 12.17 0 0 1-.586-.31c-.459-.183-1.274-.276-2.445-.276-1.149 0-1.827.012-2.033.035-1.172.046-2.32.218-3.445.517-2.587.707-4.857 1.942-6.81 3.705 2.788-10.728 5.804-19.992 9.049-27.786 4.685-11.3 10.358-20.487 17.019-27.561l3.652-3.617c1.929-1.93 2.893-3.285 2.893-4.066 0-.413-.218-.62-.654-.62zm-3.96 67.18c2.526 0 4.65.677 6.372 2.032 1.999 1.585 2.998 3.663 2.998 6.236-.046 2.182-.712 4.1-1.999 5.753-.16.207-.47.402-.93.586-1.516.666-3.376.999-5.58.999l-5.823-.138c-2.687 0-5.213.172-7.58.517l-4.443.792c0-.046.23-.448.689-1.206 3.054-5.213 5.236-8.612 6.545-10.197.46-.551 1.057-1.149 1.792-1.792 2.78-2.388 5.432-3.582 7.958-3.582zM-693.093 71.163c-1.975 0-4.226.792-6.752 2.377-5.122 3.215-9.842 8.83-14.16 16.846l-1.205 2.309c-2.324 4.485-3.993 7.77-5.053 9.938a29 29 0 0 0-.597.294c-3.17 1.584-6.259 3.697-9.268 6.338l-.62.517c.322-1.401.483-2.572.483-3.514 0-.413-.035-.827-.104-1.24-.321-1.975-1.183-3.365-2.584-4.169a12.17 12.17 0 0 1-.585-.31c-.46-.183-1.275-.276-2.446-.276-1.148 0-1.826.012-2.033.035-1.171.046-2.32.218-3.445.517-3.192.873-5.903 2.549-8.13 5.03-1.24 1.378-1.86 2.411-1.86 3.1 0 .436.218.632.654.586a5.108 5.108 0 0 0 1.033-.207c.207-.092.643-.367 1.31-.826 1.01-.712 2.928-1.069 5.753-1.069h.413c1.057 0 1.941.31 2.653.93 1.034.896 1.55 2.228 1.55 3.997 0 .804-.195 1.94-.585 3.41a42.02 42.02 0 0 1-4.238 10.439c-.367.666-1.068 1.585-2.101 2.756-.873.988-1.31 1.803-1.31 2.446 0 .414.207.62.62.62.23 0 .586-.069 1.068-.206a51.764 51.764 0 0 1 13.85-1.895c1.998 0 4.524.15 7.58.448 4.707.46 7.774.689 9.198.689h1.068c2.595 0 5.087-.356 7.475-1.068 3.601-1.047 6.609-2.697 9.027-4.946-.703 1.313-1.678 2.743-2.929 4.291-.735.896-1.102 1.608-1.102 2.136 0 .367.195.551.585.551.39 0 .873-.137 1.447-.413 1.31-.666 2.55-1.573 3.72-2.722 1.563-1.539 3.366-4.042 5.41-7.51 1.998-3.445 3.433-5.753 4.306-6.925 1.102-1.47 2.297-2.71 3.583-3.72 2.366-1.815 4.709-2.722 7.028-2.722.506 0 1.022.046 1.55.138 2.366.39 4.284 1.458 5.754 3.204 1.561 1.86 2.343 3.984 2.343 6.373 0 1.608-.38 3.193-1.137 4.754-.597 1.654-2.354 2.446-5.271 2.377-.69 0-1.286-.057-1.792-.172-.689-.183-1.458-.597-2.308-1.24-.804-.643-1.676-.965-2.618-.965-1.493 0-2.78.563-3.859 1.689-1.125 1.125-1.688 2.365-1.688 3.72 0 .368.023.7.069 1 .413 2.09 2.273 3.134 5.58 3.134 2.481 0 5.02-.666 7.615-1.998 3.606-1.837 6.683-4.502 9.233-7.993 2.664-3.629 3.996-7.074 3.996-10.335 0-2.894-.93-5.363-2.79-7.407-2.09-2.297-4.778-3.445-8.062-3.445-3.17 0-6.89 1.436-11.162 4.307-1.975 1.309-3.572 2.491-4.79 3.548l-1.101.965-.035-.035c.299-1.424.448-2.55.448-3.376 0-1.447-.368-2.745-1.103-3.893-.413-.62-.872-1.09-1.377-1.412-.69-.46-1.77-.69-3.239-.69-1.148 0-1.826.012-2.032.035-1.172.046-2.32.218-3.446.517-3.192.873-5.902 2.549-8.13 5.03-.09.1-.169.193-.252.289a9.022 9.022 0 0 0-1.16-1.77c-1.976-2.32-4.766-3.48-8.372-3.48-.812 0-1.566.066-2.264.196.548-1.113 1.31-2.683 2.298-4.744 3.905-8.061 7.5-13.85 10.784-17.363.321-.345.62-.643.895-.896 1.539-1.424 3.146-2.136 4.823-2.136 1.562 0 2.883.506 3.962 1.516 1.424 1.286 2.136 2.952 2.136 4.996 0 .62-.08 1.24-.24 1.86-.116.46-.208.77-.277.93-.344.827-1.056 1.24-2.136 1.24-1.24 0-2.216-.39-2.928-1.171-.643-.712-.964-1.447-.964-2.205 0-.276.114-.574.344-.896.413-.55.62-.999.62-1.343 0-.368-.195-.552-.586-.552-.62 0-1.481.425-2.583 1.275-1.953 1.516-2.929 3.239-2.929 5.168 0 1.033.322 1.94.965 2.722.964 1.171 2.308 1.757 4.03 1.757.713 0 1.505-.127 2.378-.38 2.985-.941 5.466-2.905 7.441-5.89 1.332-1.999 1.998-4.043 1.998-6.133 0-1.837-.494-3.433-1.481-4.789-1.378-1.929-3.33-2.893-5.857-2.893zm-3.755 36.276h.414c1.033 0 1.894.287 2.583.861 1.08.896 1.62 2.229 1.62 3.997 0 .597-.092 1.332-.276 2.205-.385 1.909-.989 3.897-1.809 5.963-.017 0-.033-.003-.051-.003-.506 0-1 .138-1.482.413l-1.894 1.379c-2.366 1.607-5.892 2.41-10.577 2.41-1.286 0-2.228-.034-2.825-.103a43.494 43.494 0 0 0 2.48-2.549c3.744-4.249 5.616-8.142 5.616-11.679 0-.5-.035-.985-.102-1.455a31 31 0 0 0 .55-.37c1.01-.713 2.928-1.068 5.753-1.068zm-23.426.62c2.526 0 4.65.678 6.373 2.033 1.998 1.585 2.997 3.663 2.997 6.236-.046 2.182-.712 4.1-1.998 5.753-.161.207-.471.402-.93.586-1.516.666-3.377.999-5.581.999l-5.822-.138c-2.687 0-5.214.172-7.58.517l-4.444.792c0-.046.23-.448.689-1.206 3.055-5.213 5.237-8.612 6.546-10.197.46-.551 1.056-1.149 1.791-1.792 2.78-2.388 5.432-3.582 7.959-3.582zM-589.43 103.719q8.13 0 12.747-3.204l2.756-2.067q.93-.551 1.757-.551.62 0 .62.55 0 1.413-2.825 4.066-1.481 1.378-3.48 2.79-6.648 4.72-14.71 5.444-1.653.138-3.445.138-3.032 0-6.614-.414l-.758-.069-.724.138q-5.65 1.102-10.094 3.686-2.55 1.447-4.065 3.17-3.342 3.755-3.893 9.164-.069.861-.069 1.791 0 7.063 4.858 12.196 4.754 4.995 12.16 6.201 1.999.345 4.1.345 4.031 0 8.096-1.447 3.549-1.24 5.375-3.239 2.136-2.377 2.928-5.236.276-1.068.276-2.067 0-1.895-1.068-3.446-.896-1.309-1.034-2.17-.034-.344-.034-.689 0-2.17 1.757-3.858 1.619-1.55 3.824-1.55 2.584 0 3.755 2.514.655 1.344.655 3.1 0 4.548-4.031 10.095-2.515 3.445-6.408 6.821-9.509 8.303-20.67 8.303h-.138q-8.441 0-14.504-4.513-5.995-4.444-7.373-11.68-.344-1.86-.344-3.858 0-8.268 7.062-16.33 4.375-4.995 10.645-8.853l-3.893-.69q-7.13-1.17-9.99-1.17-4.066 0-5.926 1.205l-1.86 1.24q-.483.242-1 .448-.413.104-.688.104-.655 0-.655-.552 0-1.309 2.48-3.72 3.652-3.583 8.097-5.03.826-.276 1.653-.448 1.964-.413 4.651-.413 2.412 0 14.022 1.825 12.23 1.93 16.02 1.93zM-522.422 45.29c-.942 0-2.263.723-3.962 2.17l-3.101 2.894c-4.065 4.02-7.751 8.51-11.059 13.47-2.044 3.055-3.813 6.006-5.305 8.854-4.295 8.223-9.015 20.82-14.16 37.793-3.123 10.336-5.466 16.296-7.028 17.88-1.217 1.24-1.825 2.262-1.825 3.066 0 .414.206.62.62.62.137 0 .333-.022.585-.068 8.085-1.378 16.422-2.067 25.012-2.067 3.26 0 7.223.137 11.885.413 7.58.46 12.85.689 15.813.689 2.274 0 4.295-.126 6.064-.379 1.102-.16 2.181-.39 3.238-.69 3.904-1.102 7.12-2.939 9.646-5.511 1.378-1.424 2.067-2.526 2.067-3.307a.766.766 0 0 0-.078-.36c.495.17 1.038.256 1.629.256.987 0 1.871-.275 2.652-.827 1.286-.895 1.93-2.135 1.93-3.72 0-.896-.23-1.712-.69-2.447-.872-1.424-2.262-2.135-4.168-2.135h-.172c-.368 0-.839.126-1.413.378-1.791.827-2.687 2.229-2.687 4.204 0 1.056.287 1.975.862 2.756.4.533.867.947 1.4 1.243-.555.007-1.045.13-1.47.376l-1.722 1.343c-2.297 1.608-6.5 2.412-12.61 2.412h-.723c0-.046.207-.275.62-.689a33.014 33.014 0 0 0 2.826-3.273c2.687-3.606 4.03-6.993 4.03-10.163 0-2.687-.86-4.926-2.583-6.718-1.838-1.929-4.158-2.893-6.96-2.893-3.008 0-6.488 1.446-10.438 4.34-.873.643-2.55 2.033-5.03 4.169-.276-1.562-.781-2.951-1.516-4.169-1.769-2.894-4.467-4.34-8.096-4.34-.367 0-.735.022-1.103.068-.786.082-1.621.275-2.5.569a6102.79 6102.79 0 0 0 11.768-13.247c3.583-4.065 4.617-5.236 3.1-3.514 6.822-7.625 12.276-11.438 16.365-11.438a6.53 6.53 0 0 1 1.93.276c.413.138.86.356 1.343.655 1.906 1.24 2.859 2.986 2.859 5.236 0 .827-.15 1.63-.448 2.412-.345 1.263-1.32 1.895-2.928 1.895-1.286 0-2.297-.448-3.032-1.344-.597-.712-.895-1.424-.895-2.136 0-.46.206-.953.62-1.481.482-.62.723-1.137.723-1.55 0-.345-.207-.517-.62-.517-.988.092-2.17.827-3.549 2.205-1.561 1.7-2.342 3.353-2.342 4.96 0 .896.241 1.711.723 2.446.942 1.447 2.423 2.17 4.445 2.17.918 0 1.837-.149 2.755-.447 2.596-.827 4.881-2.526 6.856-5.099 1.884-2.457 2.825-4.834 2.825-7.13 0-1.7-.47-3.194-1.412-4.48-1.378-1.906-3.342-2.859-5.891-2.859-.345 0-.62.011-.827.034-.207 0-.46.035-.758.103-5.558.827-12.38 5.605-20.464 14.332l-12.713 14.297c-4.019 4.548-6.086 6.914-6.2 7.097a5.492 5.492 0 0 0-.144.218c-1.555 1.058-3.205 2.337-4.955 3.847l-.586.483c1.493-5.214 2.905-9.888 4.237-14.022 4.777-14.722 9.865-26.09 15.262-34.106a62.535 62.535 0 0 1 6.408-8.062l3.928-3.961c1.194-1.218 1.79-2.206 1.79-2.963 0-.345-.217-.517-.653-.517zm-22.428 62.735c.23 0 .436.012.62.035 2.871.275 4.995 1.584 6.373 3.927.896 1.539 1.344 3.1 1.344 4.685-.023 1.93-.494 3.663-1.412 5.202-.368.643-.816 1.057-1.344 1.24-.62.23-2.63.426-6.029.586-2.963.138-5.615.333-7.958.586l-6.925.93.276-.482 3.824-7.028.861-1.447c3.376-5.49 6.833-8.234 10.37-8.234zm24.805.035c2.342 0 4.306.735 5.89 2.205 1.746 1.653 2.619 3.743 2.619 6.27-.092 2.342-.838 4.432-2.24 6.27-.137.16-.356.321-.654.482-1.194.643-2.756.964-4.685.964-.666 0-1.7-.045-3.1-.137-6.11-.39-10.187-.586-12.23-.586h-.518c1.401-1.516 2.917-3.571 4.548-6.167 1.791-2.848 2.963-4.627 3.514-5.34 1.814-2.273 3.847-3.582 6.098-3.927h.034zM-546.297 158.806q-1.688 0-1.998-1.62-.07-.31-.07-.654 0-1.102.655-2.205.827-1.412 3.204-4.375l2.446-3.17q.965-1.274 1.206-1.446.38-.276.758-.276.758 0 .965.827.034.138.034.344 0 .586-2.515 6.443-1.481 3.376-2.136 4.444-1.102 1.688-2.55 1.688zM-373.146 68.51c-.345 0-.62.011-.828.034-.206 0-.459.035-.757.103-5.558.827-12.38 5.605-20.464 14.332l-12.712 14.297c-4.02 4.548-6.087 6.914-6.202 7.097-.06.087-.113.17-.163.251-1.782 1.19-3.21 2.302-4.28 3.332-.598.551-.92.827-.966.827v-.035c.161-1.102.242-1.929.242-2.48 0-.46-.035-.907-.104-1.344-.344-1.906-1.205-3.26-2.583-4.065-.23-.114-.426-.218-.586-.31-.46-.183-1.275-.276-2.446-.276-1.149 0-1.826.012-2.033.035-1.171.046-2.32.218-3.445.517-3.192.873-5.902 2.55-8.13 5.03-1.24 1.378-1.86 2.411-1.86 3.1 0 .436.217.632.654.586a5.107 5.107 0 0 0 1.033-.207c.207-.092.644-.368 1.31-.827 1.01-.712 2.928-1.068 5.753-1.068h.413c1.034 0 1.895.287 2.584.861 1.08.896 1.62 2.229 1.62 3.997 0 .597-.093 1.332-.276 2.205-.643 3.192-1.895 6.603-3.756 10.231-.712 1.401-1.745 2.94-3.1 4.617-.735.896-1.103 1.608-1.103 2.136 0 .368.196.551.586.551.804 0 1.803-.436 2.997-1.309 2.641-1.998 5.237-5.282 7.786-9.853 2.228-3.996 4.054-6.867 5.478-8.613 2.297-2.825 4.685-4.237 7.166-4.237 1.286 0 2.664.436 4.134 1.309 3.009 1.745 4.513 4.525 4.513 8.337 0 2.205-.597 4.226-1.792 6.064a.542.542 0 0 1-.103.138c-.574.666-1.746.998-3.514.998-.689 0-1.286-.057-1.791-.172-.69-.16-1.447-.574-2.274-1.24-.827-.643-1.722-.965-2.687-.965-1.447 0-2.699.529-3.755 1.585-1.149 1.149-1.723 2.458-1.723 3.928v.344c.184 2.457 2.044 3.686 5.581 3.686.529 0 1.068-.034 1.62-.103 4.386-.62 8.692-3.33 12.918-8.13 1.287-1.448 2.734-3.595 4.341-6.443 1.63-2.917 2.79-4.823 3.48-5.719 1.86-2.388 4.054-3.582 6.58-3.582 1.148 0 2.262.264 3.342.792.505.252 1.01.574 1.516.965 2.457 1.975 3.686 4.593 3.686 7.854 0 1.149-.219 2.4-.655 3.756-.528 1.561-.999 2.468-1.412 2.721l-.138.069c-.942.459-2.044.689-3.308.689a6.557 6.557 0 0 1-1.722-.207c-.62-.16-1.344-.574-2.17-1.24-.804-.643-1.688-.965-2.653-.965-1.08 0-2.125.356-3.135 1.068-1.585 1.08-2.377 2.492-2.377 4.238 0 .574.08 1.09.241 1.55.551 1.792 2.354 2.687 5.409 2.687 1.791 0 3.755-.505 5.89-1.516 3.446-1.63 6.49-4.053 9.13-7.269 3.17-3.858 4.755-7.705 4.755-11.541 0-3.124-.93-5.707-2.79-7.751-1.907-2.068-4.296-3.101-7.167-3.101-1.814 0-3.847.574-6.098 1.723-2.71 1.378-5.89 3.766-9.542 7.165-.322-1.607-.873-3.043-1.654-4.306-1.86-3.055-4.594-4.582-8.2-4.582-1.083 0-2.245.209-3.487.625 2.375-2.66 6.16-6.921 11.756-13.234 3.583-4.065 4.616-5.236 3.1-3.514 6.822-7.625 12.277-11.438 16.365-11.438.689 0 1.332.093 1.929.276a6.5 6.5 0 0 1 1.343.655c1.907 1.24 2.86 2.986 2.86 5.236 0 .827-.15 1.63-.448 2.412-.344 1.263-1.32 1.895-2.928 1.895-1.287 0-2.297-.448-3.032-1.344-.597-.712-.896-1.424-.896-2.136 0-.46.207-.953.62-1.481.483-.62.724-1.137.724-1.55 0-.345-.207-.517-.62-.517-.988.091-2.17.827-3.549 2.205-1.562 1.7-2.342 3.353-2.342 4.96 0 .896.24 1.711.723 2.446.942 1.447 2.423 2.17 4.444 2.17.919 0 1.838-.149 2.757-.447 2.595-.827 4.88-2.526 6.855-5.099 1.883-2.457 2.825-4.834 2.825-7.13 0-1.7-.47-3.194-1.412-4.48-1.378-1.906-3.342-2.859-5.891-2.859zM-412.696 158.806q-1.688 0-1.998-1.62-.07-.31-.07-.654 0-1.102.655-2.205.827-1.412 3.204-4.375l2.446-3.17q.965-1.274 1.206-1.446.379-.276.758-.276.758 0 .965.827.034.138.034.344 0 .586-2.515 6.443-1.481 3.376-2.136 4.444-1.102 1.688-2.55 1.688zM-287.363 100.067c-2.021 0-4.226.138-6.615.413-2.044.253-4.031.69-5.96 1.31-3.796 1.232-6.989 2.938-9.581 5.116.023-.292.038-.576.038-.845 0-1.033-.127-1.906-.38-2.618-.711-2.113-2.778-3.17-6.2-3.17-3.63 0-7.626 1.528-11.99 4.583l-.413.275c-.023 0-.103-.114-.24-.344-.552-.942-1.126-1.7-1.723-2.274-1.103-1.102-2.515-1.654-4.238-1.654-.804 0-1.55.046-2.239.138-.758.092-1.528.253-2.308.483-3.032.941-5.673 2.698-7.924 5.27-1.148 1.333-1.722 2.274-1.722 2.825.023.276.24.46.654.552.23 0 .436-.023.62-.07.367-.068.884-.344 1.55-.826 1.103-.804 2.687-1.206 4.755-1.206 2.549 0 4.57 1.987 6.063 5.96.414 1.08 1.08 3.422 1.998 7.028l.896 3.583c1.171 4.203 2.79 7.338 4.858 9.405l.482.517-4.203 6.752c-10.45 16.192-24.426 32.247-41.927 48.163-2.595 2.366-3.893 4.042-3.893 5.03 0 .367.218.551.654.551.85 0 2.17-.735 3.962-2.205.781-.643 2.871-2.56 6.27-5.753 18.42-17.318 33.097-34.888 44.03-52.71l3.65-6.133c1.31-2.32 2.458-4.444 3.446-6.373 2.076-4.01 3.565-7.432 4.468-10.269l2.215-1.686c2.917-2.067 7.58-3.192 13.987-3.376.552 0 .827.012.827.035l-.034.034-.93.861c-5.696 5.145-8.544 10.14-8.544 14.987 0 2.64.815 4.857 2.446 6.649 1.837 1.975 4.203 2.962 7.097 2.962 4.34 0 9.45-2.514 15.33-7.544l.07.138c.206 1.378.85 2.71 1.929 3.996 1.906 2.274 4.386 3.41 7.44 3.41.736 0 1.471-.068 2.206-.206 2.664-.529 5.73-2.148 9.198-4.858 1.31-1.033 1.987-1.55 2.033-1.55l-.93 2.618c-1.172 3.239-2.596 6.546-4.272 9.922-6.316 12.747-15.595 25.7-27.836 38.86l-6.753 6.96-11.472 10.955c-4.065 3.744-6.293 5.81-6.684 6.201-1.355 1.355-2.032 2.435-2.032 3.239 0 .39.206.585.62.585 1.01 0 2.446-.838 4.306-2.514 3.17-2.756 7.04-6.328 11.61-10.715l9.13-8.957c13.16-13.39 23.438-26.286 30.833-38.689 2.274-3.812 4.249-7.44 5.926-10.886 2.182-4.455 4.249-9.612 6.2-15.469 1.448-4.363 2.665-7.521 3.653-9.473 3.054-.575 5.627-1.964 7.717-4.17 1.171-1.216 1.757-2.158 1.757-2.824 0-.436-.23-.655-.69-.655-.39 0-.86.161-1.412.483-1.24.689-3.066 1.033-5.477 1.033-10.68.046-20.809-.31-30.386-1.068-6.844-.528-12.15-.792-15.916-.792zm.378 6.511c.299 0 .69.012 1.172.035l15.4 1.136-2.412 2.516c-1.884 2.09-3.4 4.478-4.548 7.165-.804 1.93-1.424 3.193-1.86 3.79-.666.896-1.574 1.665-2.722 2.308-1.676.896-3.296 1.343-4.857 1.343-1.976 0-3.721-.596-5.237-1.79-2.09-1.654-3.135-3.928-3.135-6.822 0-.344.023-.689.07-1.034.298-2.618 1.56-4.846 3.789-6.683 1.584-1.31 3.031-1.964 4.34-1.964zm-35.553.861c3.468 0 5.202 1.54 5.202 4.617 0 1.929-.666 4.524-1.998 7.786l-.413.965c-1.218 2.733-1.884 4.1-1.999 4.1 0-.047-.103-.23-.31-.552-.918-1.516-1.756-3.606-2.514-6.27l-1.792-7.132-.758-2.48c0-.069.127-.15.38-.241a11.297 11.297 0 0 1 4.202-.793zm59.738.655 14.538.276h.276c-.436.666-1.493 2.607-3.17 5.822-2.342 4.525-4.076 7.257-5.201 8.199l-.69.551c-1.7 1.287-3.399 1.93-5.098 1.93-1.149 0-2.4-.333-3.756-1-3.054-1.492-4.582-4.03-4.582-7.613 0-.46.07-1.034.207-1.723.505-2.572 1.355-4.271 2.55-5.098 1.332-.896 2.974-1.344 4.926-1.344zM-266.038 87.871q-.724 0-.93-.827-.035-.137-.035-.31 0-.55 2.101-5.994 1.585-4.203 2.378-5.374.93-1.482 2.342-1.482 1.344 0 1.93 1.206.24.482.206 1.102-.034 1.585-1.86 4.135l-3.928 5.408-.62.93q-.758 1.137-1.584 1.206zM-251.328 92.281q6.305 0 9.99-2.687l2-1.516q.654-.413 1.274-.413t.62.585q0 1.378-2.997 3.721-6.27 4.926-14.297 5.099h-.655q-4.34 0-12.61-1.55-8.06-1.516-11.678-1.689-.861-.034-1.654-.034-6.27 0-9.956 2.653l-2.067 1.55q-.724.448-1.378.448-.655 0-.655-.586 0-1.137 2.274-3.17 3.928-3.513 9.715-4.926 2.929-.723 5.926-.723 4.72 0 12.299 1.481 7.441 1.447 11.093 1.688 1.378.069 2.756.069zM-144.15 71.163c-1.976 0-4.227.792-6.753 2.377-5.122 3.215-9.842 8.83-14.16 16.846l-1.205 2.309c-3.053 5.891-4.994 9.746-5.866 11.639a17.72 17.72 0 0 0-1.541 1.52c-.182.203-.35.397-.505.584-.354-.668-.782-1.3-1.287-1.892-2.113-2.504-5.018-3.732-8.716-3.687-3.606.046-7.923 1.976-12.953 5.788l-3.928 3.17c.39-1.333.586-2.516.586-3.55 0-.114-.012-.24-.035-.378-.092-2.25-.907-3.881-2.446-4.892a4.569 4.569 0 0 0-1.378-.62c-.298-.07-.93-.104-1.894-.104h-1.723a16.963 16.963 0 0 0-3.548.517c-3.262.85-6.018 2.504-8.269 4.961-1.286 1.401-1.93 2.47-1.93 3.204 0 .436.22.632.656.586.413-.046.78-.126 1.102-.241.23-.07.666-.333 1.31-.792 1.033-.712 2.928-1.069 5.684-1.069h.413c1.08 0 1.964.299 2.653.896 1.033.896 1.55 2.194 1.55 3.893 0 1.401-.551 3.606-1.654 6.615a93.11 93.11 0 0 1-5.202 11.782l-3.031 5.685c-15.25 28.226-32.35 51.021-51.298 68.384l-1.55 1.482c-1.355 1.424-2.033 2.526-2.033 3.307 0 .345.207.517.62.517.712 0 1.746-.506 3.101-1.516 1.286-.965 3.709-3.17 7.269-6.615l2.274-2.239c17.891-17.868 34.152-40.284 48.782-67.248 2.412-4.456 4.134-7.797 5.168-10.025l1.757-3.583c1.676-2.986 3.468-5.305 5.374-6.96.528-.458 1.069-.884 1.62-1.274 2.388-1.677 4.65-2.515 6.786-2.515 1.401 0 2.906.413 4.513 1.24 3.4 1.7 5.1 4.536 5.1 8.51 0 .872-.139 1.803-.414 2.79-.437 1.677-.942 2.757-1.516 3.239a9.96 9.96 0 0 1-4.513 1.067c-.69 0-1.286-.057-1.791-.172-.69-.183-1.447-.597-2.274-1.24s-1.723-.965-2.687-.965c-.988 0-1.976.322-2.963.965-1.677 1.103-2.515 2.596-2.515 4.479 0 2.733 1.849 4.1 5.546 4.1.988 0 1.941-.092 2.86-.276 1.47-.276 2.985-.816 4.547-1.62 3.468-1.768 6.512-4.317 9.13-7.648 2.94-3.743 4.41-7.303 4.41-10.68 0-1-.107-1.946-.317-2.84.196-.128.422-.277.696-.466 1.01-.712 2.928-1.069 5.753-1.069h.413c1.034 0 1.895.288 2.584.862 1.08.896 1.62 2.228 1.62 3.996 0 .597-.093 1.332-.276 2.205-.643 3.193-1.895 6.603-3.756 10.232-.712 1.401-1.745 2.94-3.1 4.616-.735.896-1.102 1.608-1.102 2.136 0 .368.195.551.585.551.78 0 1.86-.516 3.239-1.55a18.114 18.114 0 0 0 1.929-1.688c3.1-3.1 5.742-7.476 7.924-13.126 1.584-4.042 2.377-7.177 2.377-9.405 0-1.447-.368-2.744-1.103-3.893-.413-.62-.872-1.09-1.378-1.412-.689-.46-1.768-.69-3.238-.69-1.149 0-1.826.012-2.033.035-1.171.046-2.32.218-3.445.517-.473.13-.935.277-1.387.442.553-1.12 1.333-2.726 2.386-4.921 3.904-8.061 7.499-13.85 10.783-17.363.322-.345.62-.643.896-.896 1.539-1.424 3.147-2.136 4.823-2.136 1.562 0 2.882.506 3.962 1.516 1.424 1.286 2.136 2.952 2.136 4.996 0 .62-.08 1.24-.241 1.86-.115.46-.207.77-.276.93-.344.827-1.056 1.24-2.136 1.24-1.24 0-2.216-.39-2.928-1.171-.643-.712-.965-1.447-.965-2.205 0-.276.115-.574.345-.896.413-.55.62-.999.62-1.343 0-.368-.195-.552-.586-.552-.62 0-1.481.425-2.584 1.275-1.952 1.516-2.928 3.239-2.928 5.168 0 1.033.321 1.94.965 2.722.964 1.171 2.308 1.757 4.03 1.757.712 0 1.505-.127 2.377-.38 2.986-.941 5.467-2.905 7.442-5.89 1.332-1.999 1.998-4.043 1.998-6.133 0-1.837-.494-3.433-1.481-4.789-1.378-1.929-3.33-2.893-5.857-2.893zM-119.484 100.273a16.967 16.967 0 0 0-3.548.517c-3.262.85-6.018 2.504-8.269 4.961-1.286 1.401-1.929 2.47-1.929 3.204 0 .436.218.632.655.586a4.887 4.887 0 0 0 1.102-.241c.23-.07.666-.333 1.31-.792 1.033-.712 2.928-1.069 5.684-1.069h.413c1.057 0 1.93.288 2.619.862 1.08.896 1.619 2.205 1.619 3.927 0 .781-.173 1.791-.517 3.032-1.103 4.295-3.63 10.174-7.58 17.639l-1.825 3.41c-15.205 28.204-32.304 51-51.298 68.385l-1.55 1.482c-1.355 1.424-2.033 2.526-2.033 3.307 0 .345.207.517.62.517.713 0 1.746-.506 3.101-1.516 1.286-.965 3.709-3.17 7.269-6.615l1.206-1.17c18.35-18.122 34.968-40.883 49.85-68.283l.552-1.033a144.552 144.552 0 0 1 20.601-1.481c1.953 0 5.248.114 9.888.344 10.358.528 16.215.793 17.57.793 1.447 0 2.71-.047 3.79-.138a29.631 29.631 0 0 0 5.201-.862c3.895-1.043 7.079-2.728 9.553-5.052a92.563 92.563 0 0 1-2.731 5.638l-3.032 5.685c-15.25 28.226-32.35 51.021-51.297 68.384l-1.55 1.482c-1.356 1.424-2.034 2.526-2.034 3.307 0 .345.207.517.62.517.713 0 1.746-.506 3.101-1.516 1.286-.965 3.71-3.17 7.27-6.615l2.515-2.48c18.442-18.489 35.128-41.766 50.056-69.832 1.54-2.871 2.814-5.386 3.825-7.545 4.271-9.325 8.67-13.987 13.195-13.987a7.44 7.44 0 0 1 1.584.173c1.424.275 2.745.987 3.962 2.135 2.067 1.953 3.1 4.387 3.1 7.304 0 2.411-.596 4.467-1.79 6.167a1.167 1.167 0 0 1-.276.31c-.69.505-1.735.757-3.136.757a8.284 8.284 0 0 1-1.757-.172c-.758-.16-1.596-.585-2.514-1.274-.827-.62-1.7-.93-2.619-.93-1.01 0-2.01.321-2.997.964-1.677 1.103-2.515 2.596-2.515 4.479 0 2.733 1.872 4.1 5.616 4.1.39 0 .7-.012.93-.035 2.94-.23 6.006-1.596 9.198-4.1 2.504-1.952 4.582-4.1 6.236-6.442.482-.666 1.068-1.63 1.757-2.894 1.677-2.963 2.79-4.846 3.342-5.65 2.25-3.261 4.697-4.892 7.338-4.892.666 0 1.275.069 1.826.207 1.286.298 2.492.953 3.617 1.963 2.182 1.93 3.273 4.433 3.273 7.511 0 2.274-.609 4.306-1.826 6.098-.092.138-.23.264-.413.379-.712.459-1.723.688-3.032.688a8.463 8.463 0 0 1-1.791-.172c-.758-.16-1.585-.585-2.48-1.274-.828-.62-1.689-.93-2.585-.93-1.033 0-2.044.333-3.031.999-1.631 1.102-2.446 2.572-2.446 4.41 0 2.755 1.86 4.133 5.58 4.133 1.976 0 4.112-.585 6.409-1.757 3.445-1.722 6.453-4.237 9.025-7.544 2.94-3.744 4.41-7.35 4.41-10.818 0-2.985-.792-5.478-2.377-7.476-1.906-2.365-4.513-3.548-7.82-3.548-3.905 0-9.05 2.962-15.434 8.888-.322-1.63-.884-3.089-1.688-4.375-1.884-3.009-4.605-4.513-8.165-4.513-2.274 0-4.847.86-7.718 2.583-1.883 1.126-4.248 2.94-7.096 5.444.23-1.125.344-2.01.344-2.653v-.379c-.114-2.25-.941-3.881-2.48-4.892a4.569 4.569 0 0 0-1.378-.62c-.299-.07-.93-.104-1.895-.104h-1.723a16.967 16.967 0 0 0-3.548.517c-3.262.85-6.018 2.504-8.268 4.961-.234.255-.44.495-.63.728a9.058 9.058 0 0 0-1.747-2.692c-1.837-1.952-4.192-2.927-7.063-2.927-3.008 0-6.465 1.435-10.37 4.306-.895.666-2.595 2.067-5.098 4.203-.276-1.54-.77-2.917-1.482-4.135-1.768-2.916-4.478-4.374-8.13-4.374-2.894 0-6.316 1.423-10.266 4.271-1.401 1.01-2.595 1.94-3.583 2.79-.827.713-1.252 1.069-1.275 1.069v-.035c.253-.78.379-1.676.379-2.687 0-.505-.035-.988-.104-1.447-.482-3.032-2.365-4.547-5.65-4.547zm63.562 7.166h.413c1.08 0 1.964.299 2.653.896 1.034.896 1.55 2.194 1.55 3.893 0 1.401-.55 3.606-1.653 6.615-.197.544-.4 1.085-.606 1.624a2.88 2.88 0 0 0-1.392.374l-1.757 1.31c-2.343 1.63-6.569 2.445-12.678 2.445-.46 0-.689-.012-.689-.035 0-.023.207-.24.62-.654 4.57-4.662 6.856-9.14 6.856-13.436 0-.437-.031-.859-.076-1.272.249-.128.605-.356 1.074-.691 1.034-.712 2.929-1.069 5.685-1.069zm-47.852.586c1.171 0 2.412.322 3.72.965 3.078 1.493 4.617 4.054 4.617 7.682 0 1.792-.425 3.434-1.275 4.927-.344.597-.586.976-.723 1.137-.115.114-.448.24-1 .378-1.125.276-2.537.448-4.237.517-4.984.253-10.347.804-16.089 1.654h-.034c0-.023.126-.31.379-.861l.93-1.895a54.771 54.771 0 0 1 2.515-5.064c3.606-6.293 7.338-9.44 11.197-9.44zm24.805.035c2.159 0 4.019.642 5.58 1.929 1.953 1.63 2.929 3.8 2.929 6.51-.046 2.39-.78 4.48-2.205 6.271-.551.643-1.849 1.102-3.893 1.378-.23 0-.666.023-1.31.07l-14.434-.69c-.551 0-1.057-.023-1.516-.069 1.493-1.608 3.066-3.744 4.72-6.408 1.7-2.733 2.825-4.444 3.376-5.133 1.723-2.159 3.72-3.433 5.995-3.824h.034zM-17.061 87.871q-.724 0-.93-.827-.035-.137-.035-.31 0-.55 2.102-5.994 1.584-4.203 2.377-5.374.93-1.482 2.342-1.482 1.344 0 1.93 1.206.24.482.206 1.102-.034 1.585-1.86 4.135l-3.927 5.408-.62.93q-.758 1.137-1.585 1.206zM-2.35 92.281q6.304 0 9.99-2.687l1.998-1.516q.655-.413 1.275-.413.62 0 .62.585 0 1.378-2.997 3.721-6.27 4.926-14.297 5.099h-.655q-4.34 0-12.609-1.55-8.061-1.516-11.679-1.689-.861-.034-1.653-.034-6.27 0-9.957 2.653L-44.38 98q-.723.448-1.378.448-.654 0-.654-.586 0-1.137 2.273-3.17 3.928-3.513 9.716-4.926 2.928-.723 5.925-.723 4.72 0 12.3 1.481 7.44 1.447 11.092 1.688 1.378.069 2.756.069zM77.576 68.544c-.827 0-1.677.127-2.55.38-2.204.688-4.283 2.009-6.235 3.961-2.48 2.48-3.721 5.019-3.721 7.614.023.551.138 1.137.345 1.757.758 2.228 2.227 3.341 4.41 3.341 1.492-.069 3.134-.86 4.925-2.377 1.379-1.24 2.068-2.285 2.068-3.134 0-.345-.207-.517-.62-.517-.322 0-.678.103-1.068.31l-1.585.964c-.46 0-.965-.195-1.516-.585-1.194-.896-1.791-2.08-1.791-3.549 0-.46.034-.861.103-1.206.321-1.492 1.539-2.239 3.652-2.239.758 0 1.596.195 2.514.586 2.48 1.01 3.721 2.813 3.721 5.409 0 1.286-.333 2.63-.999 4.03-1.607 3.446-4.926 6.97-9.956 10.577L62.83 98.31a988.354 988.354 0 0 0-3.737 2.554c-.064-.001-.127-.004-.19-.004-3.4 0-6.673.815-9.82 2.445-3.123 1.608-5.833 3.63-8.13 6.064-3.537 3.79-5.305 7.717-5.305 11.782 0 1.975.367 3.56 1.102 4.754.896 1.447 2.148 2.17 3.756 2.17 1.079 0 2.124-.367 3.134-1.102 1.562-1.125 2.343-2.56 2.343-4.306 0-.413-.046-.792-.138-1.137-.115-.39-.482-1.022-1.102-1.895-.85-1.24-1.275-2.802-1.275-4.685 0-1.654.333-3.135 1-4.444.32-.598 1.01-1.103 2.066-1.516 1.654-.62 3.583-.93 5.788-.93 1.217 0 2.308.16 3.273.482 1.01.344 2.055.919 3.135 1.723 2.986 2.273 4.479 5.27 4.479 8.991 0 .896-.092 1.85-.276 2.86-1.745 9.6-11.357 24.012-28.835 43.236-6.316 6.936-12.403 13.114-18.26 18.534-3.445 3.215-5.259 4.904-5.443 5.064-1.24 1.264-1.86 2.286-1.86 3.067 0 .39.207.585.62.585.528 0 1.137-.218 1.826-.654.987-.575 2.905-2.17 5.753-4.789l9.44-9.026c12.655-12.54 23.036-24.449 31.143-35.726 9.141-12.7 13.712-22.358 13.712-28.973 0-3.422-1.08-6.328-3.238-8.716-1.445-1.587-3.128-2.683-5.045-3.29l6.526-4.496c2.32-1.676 4.628-3.617 6.924-5.822 6.11-5.857 9.165-10.956 9.165-15.296 0-1.608-.39-3.009-1.172-4.203-1.378-2.044-3.583-3.067-6.614-3.067zM78.127 116.466q0-2.963 2.687-4.203.861-.38 1.413-.38h.172q2.86 0 4.168 2.137.69 1.102.69 2.446 0 2.377-1.93 3.72-1.171.827-2.653.827-2.342 0-3.686-1.791-.861-1.172-.861-2.756zM201.91 68.51c-.345 0-.621.011-.828.034-.206 0-.46.035-.758.103-5.558.827-12.38 5.605-20.464 14.332l-12.712 14.297c-4.02 4.548-6.086 6.914-6.201 7.097-.06.087-.113.17-.164.25-1.782 1.191-3.21 2.303-4.28 3.333-.598.551-.919.827-.965.827v-.035c.161-1.102.241-1.929.241-2.48 0-.46-.034-.907-.103-1.344-.345-1.906-1.206-3.26-2.584-4.065a12.17 12.17 0 0 1-.586-.31c-.459-.183-1.274-.276-2.445-.276-1.149 0-1.827.012-2.033.035-1.172.046-2.32.218-3.445.517-3.193.873-5.903 2.55-8.13 5.03-1.241 1.378-1.861 2.411-1.861 3.1 0 .436.218.632.655.586a5.107 5.107 0 0 0 1.033-.207c.207-.092.643-.368 1.309-.827 1.01-.712 2.929-1.068 5.754-1.068h.413c1.034 0 1.895.287 2.584.861 1.08.896 1.619 2.229 1.619 3.997 0 .597-.092 1.332-.276 2.205-.643 3.192-1.894 6.603-3.755 10.231-.712 1.401-1.745 2.94-3.1 4.617-.735.896-1.103 1.608-1.103 2.136 0 .368.195.551.586.551.804 0 1.803-.436 2.997-1.309 2.641-1.998 5.237-5.282 7.786-9.853 2.228-3.996 4.054-6.867 5.478-8.613 2.297-2.825 4.685-4.237 7.165-4.237 1.286 0 2.665.436 4.135 1.309 3.009 1.745 4.513 4.525 4.513 8.337 0 2.205-.597 4.226-1.792 6.064a.542.542 0 0 1-.103.138c-.574.666-1.746.998-3.514.998-.69 0-1.286-.057-1.792-.172-.689-.16-1.446-.574-2.273-1.24-.827-.643-1.723-.965-2.688-.965-1.447 0-2.698.529-3.755 1.585-1.148 1.149-1.722 2.458-1.722 3.928v.344c.183 2.457 2.044 3.686 5.581 3.686.528 0 1.068-.034 1.62-.103 4.386-.62 8.692-3.33 12.918-8.13 1.286-1.448 2.733-3.595 4.341-6.443 1.63-2.917 2.79-4.823 3.48-5.719 1.86-2.388 4.054-3.582 6.58-3.582 1.148 0 2.262.264 3.341.792.506.252 1.011.574 1.517.965 2.457 1.975 3.686 4.593 3.686 7.854 0 1.149-.219 2.4-.655 3.756-.528 1.561-.999 2.468-1.412 2.721l-.138.069c-.942.459-2.044.689-3.308.689a6.557 6.557 0 0 1-1.722-.207c-.62-.16-1.344-.574-2.17-1.24-.804-.643-1.688-.965-2.653-.965-1.08 0-2.125.356-3.135 1.068-1.585 1.08-2.377 2.492-2.377 4.238 0 .574.08 1.09.241 1.55.551 1.792 2.354 2.687 5.408 2.687 1.792 0 3.756-.505 5.892-1.516 3.445-1.63 6.488-4.053 9.13-7.269 3.169-3.858 4.753-7.705 4.753-11.541 0-3.124-.93-5.707-2.79-7.751-1.906-2.068-4.295-3.101-7.166-3.101-1.814 0-3.847.574-6.098 1.723-2.71 1.378-5.89 3.766-9.542 7.165-.322-1.607-.873-3.043-1.654-4.306-1.86-3.055-4.594-4.582-8.2-4.582-1.083 0-2.246.208-3.487.625 2.375-2.661 6.16-6.922 11.756-13.234 3.583-4.065 4.616-5.236 3.1-3.514 6.822-7.625 12.276-11.438 16.364-11.438a6.53 6.53 0 0 1 1.93.276c.413.138.861.356 1.343.655 1.907 1.24 2.86 2.986 2.86 5.236 0 .827-.15 1.63-.449 2.412-.344 1.263-1.32 1.895-2.927 1.895-1.287 0-2.297-.448-3.032-1.344-.597-.712-.896-1.424-.896-2.136 0-.46.207-.953.62-1.481.483-.62.724-1.137.724-1.55 0-.345-.207-.517-.62-.517-.988.091-2.171.827-3.549 2.205-1.562 1.7-2.343 3.353-2.343 4.96 0 .896.242 1.711.724 2.446.942 1.447 2.423 2.17 4.444 2.17.919 0 1.837-.149 2.756-.447 2.595-.827 4.88-2.526 6.856-5.099 1.883-2.457 2.825-4.834 2.825-7.13 0-1.7-.471-3.194-1.413-4.48-1.378-1.906-3.342-2.859-5.89-2.859zM162.36 158.806q-1.689 0-1.999-1.62-.069-.31-.069-.654 0-1.102.655-2.205.827-1.412 3.204-4.375l2.446-3.17q.965-1.274 1.206-1.446.379-.276.758-.276.758 0 .964.827.035.138.035.344 0 .586-2.515 6.443-1.482 3.376-2.136 4.444-1.103 1.688-2.55 1.688zM287.692 100.067c-2.021 0-4.226.138-6.615.413a32.43 32.43 0 0 0-5.96 1.31c-3.795 1.232-6.988 2.938-9.58 5.116.022-.292.037-.576.037-.845 0-1.033-.126-1.906-.378-2.618-.712-2.113-2.78-3.17-6.202-3.17-3.628 0-7.625 1.528-11.988 4.583l-.414.275c-.023 0-.103-.114-.241-.344-.551-.942-1.125-1.7-1.723-2.274-1.102-1.102-2.514-1.654-4.237-1.654-.804 0-1.55.046-2.24.138-.757.092-1.527.253-2.308.483-3.031.941-5.672 2.698-7.923 5.27-1.148 1.333-1.723 2.274-1.723 2.825.023.276.241.46.655.552.23 0 .436-.023.62-.07.367-.068.884-.344 1.55-.826 1.103-.804 2.687-1.206 4.754-1.206 2.55 0 4.57 1.987 6.064 5.96.413 1.08 1.08 3.422 1.998 7.028l.895 3.583c1.172 4.203 2.791 7.338 4.858 9.405l.483.517-4.204 6.752c-10.45 16.192-24.425 32.247-41.926 48.163-2.596 2.366-3.894 4.042-3.894 5.03 0 .367.219.551.655.551.85 0 2.17-.735 3.962-2.205.781-.643 2.87-2.56 6.27-5.753 18.42-17.318 33.096-34.888 44.028-52.71l3.652-6.133c1.31-2.32 2.458-4.444 3.446-6.373 2.076-4.01 3.565-7.432 4.468-10.269l2.215-1.686c2.917-2.067 7.579-3.192 13.987-3.376.55 0 .827.012.827.035l-.035.034-.93.861c-5.696 5.145-8.543 10.14-8.543 14.987 0 2.64.815 4.857 2.445 6.649 1.838 1.975 4.203 2.962 7.097 2.962 4.341 0 9.451-2.514 15.331-7.544l.069.138c.206 1.378.85 2.71 1.93 3.996 1.906 2.274 4.386 3.41 7.44 3.41.736 0 1.47-.068 2.205-.206 2.664-.529 5.73-2.148 9.199-4.858 1.309-1.033 1.987-1.55 2.033-1.55l-.93 2.618c-1.172 3.239-2.596 6.546-4.273 9.922-6.316 12.747-15.595 25.7-27.836 38.86l-6.752 6.96-11.472 10.955c-4.066 3.744-6.294 5.81-6.684 6.201-1.355 1.355-2.033 2.435-2.033 3.239 0 .39.207.585.62.585 1.011 0 2.446-.838 4.307-2.514 3.17-2.756 7.04-6.328 11.61-10.715l9.13-8.957c13.16-13.39 23.437-26.286 30.833-38.689 2.273-3.812 4.249-7.44 5.925-10.886 2.182-4.455 4.25-9.612 6.202-15.469 1.447-4.363 2.664-7.521 3.652-9.473 3.054-.575 5.626-1.964 7.716-4.17 1.172-1.216 1.757-2.158 1.757-2.824 0-.436-.23-.655-.688-.655-.39 0-.862.161-1.413.483-1.24.689-3.066 1.033-5.478 1.033-10.68.046-20.808-.31-30.386-1.068-6.844-.528-12.15-.792-15.916-.792zm.38 6.511c.298 0 .688.012 1.17.035l15.4 1.136-2.411 2.516c-1.884 2.09-3.4 4.478-4.548 7.165-.804 1.93-1.424 3.193-1.86 3.79-.666.896-1.574 1.665-2.722 2.308-1.677.896-3.296 1.343-4.858 1.343-1.975 0-3.72-.596-5.236-1.79-2.09-1.654-3.135-3.928-3.135-6.822 0-.344.023-.689.069-1.034.298-2.618 1.562-4.846 3.79-6.683 1.584-1.31 3.031-1.964 4.34-1.964zm-35.554.861c3.468 0 5.202 1.54 5.202 4.617 0 1.929-.666 4.524-1.998 7.786l-.414.965c-1.217 2.733-1.883 4.1-1.998 4.1 0-.047-.103-.23-.31-.552-.919-1.516-1.757-3.606-2.515-6.27l-1.791-7.132-.758-2.48c0-.069.126-.15.379-.241a11.3 11.3 0 0 1 4.203-.793zm59.738.655 14.538.276h.275c-.436.666-1.492 2.607-3.169 5.822-2.343 4.525-4.077 7.257-5.202 8.199l-.689.551c-1.7 1.287-3.4 1.93-5.099 1.93-1.148 0-2.4-.333-3.755-1-3.054-1.492-4.582-4.03-4.582-7.613 0-.46.069-1.034.207-1.723.505-2.572 1.355-4.271 2.549-5.098 1.332-.896 2.975-1.344 4.927-1.344zM309.017 87.871q-.723 0-.93-.827-.034-.137-.034-.31 0-.55 2.101-5.994 1.585-4.203 2.377-5.374.93-1.482 2.343-1.482 1.344 0 1.93 1.206.24.482.206 1.102-.034 1.585-1.86 4.135l-3.928 5.408-.62.93q-.758 1.137-1.585 1.206zM323.728 92.281q6.304 0 9.99-2.687l1.999-1.516q.654-.413 1.275-.413.62 0 .62.585 0 1.378-2.998 3.721-6.27 4.926-14.297 5.099h-.654q-4.341 0-12.61-1.55-8.06-1.516-11.678-1.689-.862-.034-1.654-.034-6.27 0-9.956 2.653L281.698 98q-.724.448-1.378.448-.655 0-.655-.586 0-1.137 2.274-3.17 3.927-3.513 9.715-4.926 2.928-.723 5.926-.723 4.72 0 12.299 1.481 7.441 1.447 11.093 1.688 1.378.069 2.756.069zM430.905 71.163c-1.975 0-4.226.792-6.753 2.377-5.121 3.215-9.841 8.83-14.159 16.846l-1.206 2.309c-3.052 5.891-4.993 9.746-5.865 11.639a17.722 17.722 0 0 0-2.046 2.104c-.355-.668-.782-1.3-1.287-1.892-2.113-2.504-5.018-3.732-8.716-3.687-3.606.046-7.924 1.976-12.953 5.788l-3.928 3.17c.39-1.333.586-2.516.586-3.55 0-.114-.012-.24-.035-.378-.092-2.25-.907-3.881-2.446-4.892a4.568 4.568 0 0 0-1.378-.62c-.299-.07-.93-.104-1.895-.104h-1.722a16.968 16.968 0 0 0-3.549.517c-3.261.85-6.017 2.504-8.268 4.961-1.286 1.401-1.93 2.47-1.93 3.204 0 .436.22.632.655.586.414-.046.781-.126 1.103-.241.23-.07.666-.333 1.309-.792 1.033-.712 2.928-1.069 5.684-1.069h.413c1.08 0 1.965.299 2.654.896 1.033.896 1.55 2.194 1.55 3.893 0 1.401-.551 3.606-1.654 6.615a93.113 93.113 0 0 1-5.202 11.782l-3.032 5.685c-15.25 28.226-32.349 51.021-51.297 68.384l-1.55 1.482c-1.355 1.424-2.033 2.526-2.033 3.307 0 .345.206.517.62.517.712 0 1.745-.506 3.1-1.516 1.287-.965 3.71-3.17 7.27-6.615l2.274-2.239c17.891-17.868 34.152-40.284 48.782-67.248 2.412-4.456 4.134-7.797 5.168-10.025l1.757-3.583c1.676-2.986 3.468-5.305 5.374-6.96a20.73 20.73 0 0 1 1.62-1.274c2.388-1.677 4.65-2.515 6.786-2.515 1.401 0 2.905.413 4.513 1.24 3.4 1.7 5.1 4.536 5.1 8.51 0 .872-.139 1.803-.414 2.79-.437 1.677-.942 2.757-1.516 3.239a9.96 9.96 0 0 1-4.513 1.067c-.69 0-1.286-.057-1.792-.172-.689-.183-1.446-.597-2.273-1.24-.827-.643-1.723-.965-2.687-.965-.988 0-1.976.322-2.964.965-1.676 1.103-2.514 2.596-2.514 4.479 0 2.733 1.849 4.1 5.546 4.1.988 0 1.94-.092 2.86-.276 1.47-.276 2.985-.816 4.547-1.62 3.468-1.768 6.511-4.317 9.13-7.648 2.94-3.743 4.41-7.303 4.41-10.68 0-1-.108-1.946-.318-2.84.197-.128.422-.277.696-.466 1.01-.712 2.929-1.069 5.754-1.069h.413c1.034 0 1.895.288 2.584.862 1.08.896 1.619 2.228 1.619 3.996 0 .597-.092 1.332-.275 2.205-.644 3.193-1.895 6.603-3.756 10.232-.712 1.401-1.745 2.94-3.1 4.616-.735.896-1.103 1.608-1.103 2.136 0 .368.195.551.586.551.78 0 1.86-.516 3.238-1.55a18.113 18.113 0 0 0 1.93-1.688c3.1-3.1 5.741-7.476 7.923-13.126 1.585-4.042 2.377-7.177 2.377-9.405 0-1.447-.367-2.744-1.102-3.893-.414-.62-.873-1.09-1.378-1.412-.69-.46-1.768-.69-3.238-.69-1.149 0-1.827.012-2.033.035-1.172.046-2.32.218-3.445.517-.473.13-.936.277-1.388.442.554-1.12 1.333-2.726 2.387-4.921 3.904-8.061 7.499-13.85 10.783-17.363.322-.345.62-.643.896-.896 1.539-1.424 3.146-2.136 4.823-2.136 1.561 0 2.882.506 3.962 1.516 1.424 1.286 2.135 2.952 2.135 4.996 0 .62-.08 1.24-.24 1.86-.115.46-.207.77-.276.93-.345.827-1.057 1.24-2.136 1.24-1.24 0-2.217-.39-2.929-1.171-.643-.712-.964-1.447-.964-2.205 0-.276.115-.574.344-.896.414-.55.62-.999.62-1.343 0-.368-.195-.552-.585-.552-.62 0-1.481.425-2.584 1.275-1.952 1.516-2.928 3.239-2.928 5.168 0 1.033.321 1.94.964 2.722.965 1.171 2.309 1.757 4.031 1.757.712 0 1.505-.127 2.377-.38 2.986-.941 5.467-2.905 7.442-5.89 1.332-1.999 1.998-4.043 1.998-6.133 0-1.837-.494-3.433-1.482-4.789-1.378-1.929-3.33-2.893-5.856-2.893zM510.073 44.498c-1.056 0-2.825 1.136-5.305 3.41l-10.75 10.232c-11.666 11.645-21.37 22.784-29.11 33.418-9.003 12.38-13.505 21.68-13.505 27.905 0 3.353 1.057 6.235 3.17 8.647 2.32 2.618 5.305 3.927 8.957 3.927 2.595 0 5.213-.516 7.855-1.55 4.41-1.745 8.199-4.57 11.368-8.475.965-1.171 1.746-2.33 2.343-3.48 1.126-2.112 1.688-4.455 1.688-7.027 0-1.14-.149-2.168-.447-3.087 1.042-.652 2.912-.979 5.615-.979h.413c1.034 0 1.895.288 2.584.862 1.08.896 1.62 2.228 1.62 3.996 0 .597-.093 1.332-.276 2.205-.643 3.193-1.895 6.603-3.755 10.232-.712 1.401-1.746 2.94-3.1 4.616-.736.896-1.103 1.608-1.103 2.136 0 .368.195.551.586.551.78 0 1.86-.516 3.238-1.55a18.117 18.117 0 0 0 1.93-1.688c3.1-3.1 5.74-7.476 7.923-13.126.873-2.228 1.505-4.179 1.897-5.855.174-.078.346-.159.514-.243l1.86-1.24c1.241-.804 3.216-1.206 5.926-1.206 1.906 0 5.237.391 9.991 1.172l3.893.689c-4.18 2.572-7.729 5.523-10.645 8.853-4.709 5.375-7.063 10.818-7.063 16.33 0 1.332.115 2.619.345 3.859.918 4.823 3.376 8.716 7.372 11.679 4.043 3.008 8.877 4.513 14.504 4.513h.138c7.441 0 14.331-2.768 20.67-8.303 2.596-2.25 4.732-4.524 6.408-6.821 2.687-3.698 4.031-7.063 4.031-10.094 0-1.172-.218-2.205-.655-3.101-.78-1.677-2.032-2.515-3.755-2.515-1.47 0-2.744.517-3.824 1.55-1.17 1.126-1.757 2.412-1.757 3.859 0 .23.012.46.035.69.091.573.436 1.297 1.033 2.17a5.936 5.936 0 0 1 1.068 3.444 8.26 8.26 0 0 1-.275 2.067c-.528 1.907-1.505 3.653-2.929 5.237-1.217 1.332-3.008 2.412-5.374 3.238-2.71.965-5.41 1.447-8.096 1.447-1.401 0-2.768-.114-4.1-.344-4.938-.804-8.991-2.87-12.16-6.201-3.24-3.422-4.858-7.487-4.858-12.196 0-.62.022-1.217.068-1.791.368-3.606 1.665-6.66 3.893-9.164 1.01-1.148 2.366-2.205 4.066-3.17 2.962-1.722 6.327-2.951 10.094-3.686l.723-.138.758.07c2.389.275 4.594.413 6.615.413 1.194 0 2.343-.046 3.445-.138 5.374-.483 10.277-2.297 14.71-5.443 1.332-.942 2.492-1.872 3.48-2.79 1.883-1.77 2.825-3.125 2.825-4.066 0-.368-.207-.552-.62-.552-.552 0-1.137.184-1.757.552l-2.756 2.067c-3.078 2.136-7.327 3.204-12.747 3.204-2.527 0-7.867-.643-16.02-1.93-7.74-1.217-12.414-1.826-14.021-1.826-1.792 0-3.342.138-4.651.414-.552.115-1.103.264-1.654.448-2.963.964-5.662 2.64-8.096 5.03-.063.06-.116.117-.176.177-.038-1.352-.404-2.571-1.098-3.657-.414-.62-.873-1.09-1.379-1.412-.689-.46-1.768-.69-3.238-.69-1.149 0-1.826.012-2.033.035-1.171.046-2.32.218-3.445.517-3.192.873-5.902 2.549-8.13 5.03-.045.049-.086.097-.13.146-.78-.785-1.758-1.18-2.936-1.18-1.034 0-2.044.333-3.032 1-1.654 1.102-2.48 2.594-2.48 4.478 0 .459.057.861.172 1.206.092.344.436.941 1.033 1.79.85 1.195 1.275 2.745 1.275 4.652 0 .712-.069 1.435-.207 2.17-.344 1.723-.815 2.745-1.412 3.067-.276.16-.563.31-.861.447-1.907.827-4.031 1.24-6.374 1.24-1.263 0-2.469-.206-3.617-.62-.942-.321-1.93-.895-2.963-1.722-2.871-2.343-4.306-5.363-4.306-9.06 0-1.631.379-3.55 1.136-5.754 2.458-7.051 8.337-16.226 17.64-27.526 8.566-10.427 18.212-20.487 28.938-30.18 2.526-2.296 3.79-3.938 3.79-4.926-.023-.39-.241-.586-.655-.586z" transform="translate(1173.024 -40.748)"/><path d="M493.192 93.797q-.964 0-1.033-1.034 0-.93 4.788-7.303l8.475-10.956 2.756-3.307q1.103-.965 2.067-.965 1.447 0 1.999 1.275.172.413.172.896 0 1.343-2.17 3.755-6.133 7.131-12.093 13.298-4.237 4.34-4.96 4.34zM544.11 89.732q0-.93 2.206-4.513 3.273-5.306 5.856-6.856.827-.483 1.482-.483 1.481 0 2.067 1.275.206.448.206.93 0 1.413-1.722 3.032l-.586.551-3.273 2.79q-1.584 1.379-3.927 3.756-.655.655-1.24.655-.861 0-1.034-.862-.034-.138-.034-.275zM535.36 77.088q0-1.62 1.24-2.17.483-.207 1.068-.207 2.688.069 3.721 5.168.345 1.86.345 3.341 0 7.373-1.86 7.373-.828 0-1.138-1.171l-.826-4.686q-.62-2.721-1.86-5.305-.69-1.413-.69-2.343zM543.663 86.734q-.965-.137-1.103-1.309l.896-7.958q.861-6.063 2.894-7.131.551-.276 1.171-.276 1.103 0 1.86.93.62.758.62 1.998 0 2.068-3.34 9.027l-1.448 3.1q-.551 1.344-1.206 1.55-.172.07-.344.07zM646.189 71.163c-1.975 0-4.226.792-6.753 2.377-5.121 3.215-9.841 8.83-14.159 16.846l-1.206 2.309c-2.324 4.485-3.993 7.77-5.052 9.938-.197.094-.396.191-.597.294-3.17 1.584-6.26 3.697-9.268 6.338l-.62.517c.321-1.401.483-2.572.483-3.514 0-.413-.035-.827-.104-1.24-.321-1.975-1.183-3.365-2.584-4.169-.23-.114-.425-.218-.586-.31-.459-.183-1.274-.276-2.445-.276-1.149 0-1.826.012-2.033.035-1.171.046-2.32.218-3.445.517-3.193.873-5.903 2.549-8.13 5.03-1.24 1.378-1.86 2.411-1.86 3.1 0 .436.217.632.653.586a5.108 5.108 0 0 0 1.034-.207c.207-.092.643-.367 1.31-.826 1.01-.712 2.928-1.069 5.753-1.069h.413c1.057 0 1.94.31 2.653.93 1.033.896 1.55 2.228 1.55 3.997 0 .804-.195 1.94-.586 3.41a42.02 42.02 0 0 1-4.237 10.439c-.368.666-1.068 1.585-2.102 2.756-.873.988-1.309 1.803-1.309 2.446 0 .414.207.62.62.62.23 0 .586-.069 1.069-.206a51.764 51.764 0 0 1 13.849-1.895c1.998 0 4.524.15 7.579.448 4.708.46 7.774.689 9.198.689h1.068c2.596 0 5.088-.356 7.476-1.068 3.601-1.047 6.608-2.697 9.026-4.946-.703 1.313-1.676 2.743-2.928 4.291-.735.896-1.103 1.608-1.103 2.136 0 .367.196.551.586.551.39 0 .873-.137 1.447-.413 1.31-.666 2.55-1.573 3.721-2.722 1.562-1.539 3.364-4.042 5.408-7.51 1.999-3.445 3.434-5.753 4.307-6.925 1.103-1.47 2.297-2.71 3.583-3.72 2.365-1.815 4.708-2.722 7.028-2.722.505 0 1.022.046 1.55.138 2.366.39 4.283 1.458 5.753 3.204 1.562 1.86 2.343 3.984 2.343 6.373 0 1.608-.379 3.193-1.137 4.754-.597 1.654-2.354 2.446-5.27 2.377-.69 0-1.287-.057-1.792-.172-.69-.183-1.459-.597-2.309-1.24-.803-.643-1.676-.965-2.618-.965-1.492 0-2.779.563-3.858 1.689-1.126 1.125-1.688 2.365-1.688 3.72 0 .368.023.7.069 1 .413 2.09 2.274 3.134 5.58 3.134 2.481 0 5.019-.666 7.614-1.998 3.606-1.837 6.684-4.502 9.233-7.993 2.665-3.629 3.996-7.074 3.996-10.335 0-2.894-.93-5.363-2.79-7.407-2.09-2.297-4.777-3.445-8.062-3.445-3.17 0-6.89 1.436-11.162 4.307-1.975 1.309-3.571 2.491-4.789 3.548l-1.102.965-.034-.035c.298-1.424.448-2.55.448-3.376 0-1.447-.368-2.745-1.103-3.893-.413-.62-.873-1.09-1.378-1.412-.689-.46-1.769-.69-3.238-.69-1.149 0-1.826.012-2.033.035-1.171.046-2.32.218-3.445.517-3.193.873-5.903 2.549-8.13 5.03-.09.099-.169.193-.252.289a9.02 9.02 0 0 0-1.16-1.77c-1.976-2.32-4.766-3.48-8.372-3.48-.812 0-1.567.066-2.265.196a543.08 543.08 0 0 0 2.299-4.744c3.904-8.061 7.499-13.85 10.783-17.363.322-.345.62-.643.896-.896 1.539-1.424 3.147-2.136 4.823-2.136 1.562 0 2.882.506 3.962 1.516 1.424 1.286 2.136 2.952 2.136 4.996 0 .62-.08 1.24-.241 1.86-.115.46-.207.77-.276.93-.344.827-1.057 1.24-2.136 1.24-1.24 0-2.216-.39-2.928-1.171-.643-.712-.965-1.447-.965-2.205 0-.276.115-.574.345-.896.413-.55.62-.999.62-1.343 0-.368-.196-.552-.586-.552-.62 0-1.481.425-2.584 1.275-1.952 1.516-2.928 3.239-2.928 5.168 0 1.033.321 1.94.964 2.722.965 1.171 2.309 1.757 4.031 1.757.712 0 1.505-.127 2.377-.38 2.986-.941 5.467-2.905 7.442-5.89 1.332-1.999 1.998-4.043 1.998-6.133 0-1.837-.494-3.433-1.482-4.789-1.378-1.929-3.33-2.893-5.856-2.893zm-3.755 36.276h.413c1.034 0 1.895.287 2.584.861 1.08.896 1.62 2.229 1.62 3.997 0 .597-.093 1.332-.277 2.205-.384 1.909-.988 3.897-1.808 5.963-.018 0-.033-.003-.052-.003a2.95 2.95 0 0 0-1.48.413l-1.896 1.379c-2.366 1.607-5.891 2.41-10.577 2.41-1.286 0-2.227-.034-2.824-.103a43.487 43.487 0 0 0 2.48-2.549c3.744-4.249 5.615-8.142 5.615-11.679 0-.5-.035-.984-.101-1.455.163-.108.34-.227.55-.37 1.01-.713 2.928-1.068 5.753-1.068zm-23.427.62c2.527 0 4.65.678 6.373 2.033 1.999 1.585 2.998 3.663 2.998 6.236-.046 2.182-.712 4.1-1.998 5.753-.16.207-.471.402-.93.586-1.516.666-3.377.999-5.581.999l-5.823-.138c-2.687 0-5.214.172-7.58.517l-4.443.792c0-.046.23-.448.69-1.206 3.054-5.213 5.235-8.612 6.544-10.197.46-.551 1.057-1.149 1.792-1.792 2.78-2.388 5.432-3.582 7.958-3.582zM749.852 103.719q8.13 0 12.747-3.204l2.756-2.067q.93-.551 1.757-.551.62 0 .62.55 0 1.413-2.825 4.066-1.481 1.378-3.48 2.79-6.648 4.72-14.71 5.444-1.654.138-3.445.138-3.032 0-6.615-.414l-.758-.069-.723.138q-5.65 1.102-10.094 3.686-2.55 1.447-4.065 3.17-3.342 3.755-3.893 9.164-.07.861-.07 1.791 0 7.063 4.858 12.196 4.755 4.995 12.161 6.201 1.999.345 4.1.345 4.03 0 8.096-1.447 3.549-1.24 5.374-3.239 2.136-2.377 2.929-5.236.275-1.068.275-2.067 0-1.895-1.068-3.446-.895-1.309-1.033-2.17-.034-.344-.034-.689 0-2.17 1.757-3.858 1.619-1.55 3.824-1.55 2.583 0 3.755 2.514.654 1.344.654 3.1 0 4.548-4.03 10.095-2.515 3.445-6.408 6.821-9.509 8.303-20.67 8.303h-.139q-8.44 0-14.504-4.513-5.994-4.444-7.372-11.68-.345-1.86-.345-3.858 0-8.268 7.063-16.33 4.375-4.995 10.645-8.853l-3.893-.69q-7.131-1.17-9.99-1.17-4.066 0-5.926 1.205l-1.86 1.24q-.483.242-1 .448-.413.104-.689.104-.654 0-.654-.552 0-1.309 2.48-3.72 3.652-3.583 8.096-5.03.827-.276 1.654-.448 1.964-.413 4.65-.413 2.412 0 14.022 1.825 12.23 1.93 16.02 1.93zM816.86 45.29c-.942 0-2.263.723-3.963 2.17l-3.1 2.894c-4.066 4.02-7.752 8.51-11.06 13.47-2.043 3.055-3.811 6.006-5.304 8.854-4.295 8.223-9.015 20.82-14.16 37.793-3.123 10.336-5.466 16.296-7.028 17.88-1.217 1.24-1.826 2.262-1.826 3.066 0 .414.207.62.62.62.138 0 .334-.022.586-.068 8.085-1.378 16.422-2.067 25.012-2.067 3.261 0 7.223.137 11.885.413 7.58.46 12.85.689 15.813.689 2.274 0 4.295-.126 6.063-.379 1.103-.16 2.182-.39 3.239-.69 3.904-1.102 7.12-2.939 9.646-5.511 1.378-1.424 2.067-2.526 2.067-3.307a.767.767 0 0 0-.078-.36c.495.17 1.038.256 1.628.256a4.49 4.49 0 0 0 2.653-.827c1.287-.895 1.93-2.135 1.93-3.72 0-.896-.23-1.712-.69-2.447-.872-1.424-2.262-2.135-4.168-2.135h-.172c-.368 0-.839.126-1.413.378-1.792.827-2.687 2.229-2.687 4.204 0 1.056.287 1.975.861 2.756.4.533.867.947 1.4 1.243-.554.007-1.044.13-1.469.376l-1.722 1.343c-2.297 1.608-6.5 2.412-12.61 2.412h-.723c0-.046.207-.275.62-.689a33.015 33.015 0 0 0 2.825-3.273c2.687-3.606 4.031-6.993 4.031-10.163 0-2.687-.861-4.926-2.584-6.718-1.837-1.929-4.157-2.893-6.959-2.893-3.009 0-6.488 1.446-10.439 4.34-.872.643-2.549 2.033-5.03 4.169-.275-1.562-.78-2.951-1.515-4.169-1.768-2.894-4.467-4.34-8.096-4.34-.368 0-.735.022-1.102.068-.787.082-1.622.276-2.5.569 2.373-2.66 6.161-6.924 11.767-13.247 3.583-4.065 4.616-5.236 3.1-3.514 6.822-7.625 12.277-11.438 16.365-11.438.689 0 1.332.093 1.929.276.413.138.861.356 1.343.655 1.907 1.24 2.86 2.986 2.86 5.236 0 .827-.15 1.63-.448 2.412-.344 1.263-1.32 1.895-2.928 1.895-1.287 0-2.297-.448-3.032-1.344-.597-.712-.896-1.424-.896-2.136 0-.46.207-.953.62-1.481.483-.62.724-1.137.724-1.55 0-.345-.207-.517-.62-.517-.988.092-2.17.827-3.549 2.205-1.562 1.7-2.342 3.353-2.342 4.96 0 .896.24 1.711.723 2.446.942 1.447 2.423 2.17 4.444 2.17.919 0 1.837-.149 2.756-.447 2.595-.827 4.88-2.526 6.856-5.099 1.883-2.457 2.825-4.834 2.825-7.13 0-1.7-.471-3.194-1.413-4.48-1.378-1.906-3.341-2.859-5.89-2.859-.345 0-.62.011-.828.034-.206 0-.459.035-.757.103-5.558.827-12.38 5.605-20.464 14.332l-12.712 14.297c-4.02 4.548-6.087 6.914-6.202 7.097a5.55 5.55 0 0 0-.143.218c-1.555 1.057-3.206 2.337-4.956 3.847l-.585.483c1.493-5.214 2.905-9.888 4.237-14.022 4.778-14.722 9.865-26.09 15.262-34.106a62.536 62.536 0 0 1 6.408-8.062l3.927-3.961c1.195-1.218 1.792-2.206 1.792-2.963 0-.345-.218-.517-.655-.517zm-22.428 62.735c.23 0 .436.012.62.035 2.87.275 4.995 1.584 6.373 3.927.896 1.539 1.344 3.1 1.344 4.685-.023 1.93-.494 3.663-1.413 5.202-.367.643-.815 1.057-1.343 1.24-.62.23-2.63.426-6.03.586-2.962.138-5.615.333-7.958.586l-6.924.93.276-.482 3.824-7.028.86-1.447c3.377-5.49 6.834-8.234 10.37-8.234zm24.804.035c2.343 0 4.307.735 5.891 2.205 1.746 1.653 2.619 3.743 2.619 6.27-.092 2.342-.838 4.432-2.24 6.27-.137.16-.355.321-.654.482-1.194.643-2.756.964-4.686.964-.666 0-1.7-.045-3.1-.137-6.11-.39-10.186-.586-12.23-.586h-.517c1.4-1.516 2.917-3.571 4.548-6.167 1.791-2.848 2.963-4.627 3.514-5.34 1.814-2.273 3.847-3.582 6.098-3.927h.034zM792.985 158.806q-1.688 0-1.998-1.62-.07-.31-.07-.654 0-1.102.655-2.205.827-1.412 3.204-4.375l2.446-3.17q.965-1.274 1.206-1.446.379-.276.758-.276.758 0 .965.827.034.138.034.344 0 .586-2.515 6.443-1.481 3.376-2.136 4.444-1.102 1.688-2.55 1.688zM875.46 108.955q0-1.102 1.93-3.204 3.376-3.686 8.268-4.96 1.757-.448 3.548-.517h1.723q1.447 0 1.895.103.689.172 1.378.62 2.308 1.516 2.48 4.892v.38q0 .964-.344 2.652 4.272-3.755 7.097-5.443 4.306-2.584 7.717-2.584 5.34 0 8.164 4.513 1.206 1.93 1.689 4.375 9.577-8.888 15.434-8.888 4.96 0 7.82 3.548 2.377 2.997 2.377 7.476 0 5.202-4.41 10.818-3.858 4.96-9.026 7.544-3.445 1.757-6.408 1.757-5.58 0-5.58-4.134 0-2.756 2.445-4.41 1.482-.998 3.032-.998 1.344 0 2.584.93 1.343 1.033 2.48 1.274.793.173 1.792.173 1.963 0 3.031-.69.276-.172.414-.378 1.826-2.688 1.826-6.098 0-4.617-3.273-7.51-1.688-1.516-3.618-1.964-.826-.207-1.825-.207-3.962 0-7.338 4.892-.827 1.206-3.342 5.65-1.034 1.895-1.757 2.894-2.48 3.514-6.236 6.442-4.789 3.755-9.198 4.1-.345.034-.93.034-5.616 0-5.616-4.1 0-2.824 2.515-4.478 1.481-.965 2.997-.965 1.378 0 2.618.93 1.379 1.034 2.515 1.275.793.173 1.757.173 2.102 0 3.135-.758.173-.138.276-.31 1.792-2.55 1.792-6.167 0-4.375-3.101-7.304-1.826-1.722-3.962-2.136-.792-.172-1.585-.172-6.787 0-13.194 13.987-1.516 3.239-3.824 7.545-22.394 42.099-50.058 69.832l-2.515 2.48q-5.34 5.168-7.269 6.615-2.032 1.516-3.1 1.516-.62 0-.62-.517 0-1.171 2.032-3.307l1.55-1.481q28.422-26.045 51.298-68.386l3.032-5.684q2.997-5.684 5.202-11.782 1.653-4.513 1.653-6.615 0-2.55-1.55-3.893-1.034-.896-2.653-.896h-.413q-4.134 0-5.685 1.068-.964.69-1.309.793-.482.172-1.102.241-.655.069-.655-.586zM937.782 92.281q6.305 0 9.99-2.687l1.999-1.516q.655-.413 1.275-.413.62 0 .62.585 0 1.378-2.997 3.721-6.27 4.926-14.298 5.099h-.654q-4.341 0-12.61-1.55-8.06-1.516-11.678-1.689-.861-.034-1.654-.034-6.27 0-9.956 2.653L895.752 98q-.724.448-1.378.448-.655 0-.655-.586 0-1.137 2.274-3.17 3.927-3.513 9.715-4.926 2.929-.723 5.926-.723 4.72 0 12.299 1.481 7.441 1.447 11.093 1.688 1.378.069 2.756.069zM1018.949 45.29c-.942 0-2.263.723-3.962 2.17l-3.1 2.894c-4.066 4.02-7.752 8.51-11.06 13.47-2.044 3.055-3.812 6.006-5.305 8.854-4.295 8.223-9.014 20.82-14.16 37.793-3.123 10.336-5.465 16.296-7.027 17.88-1.217 1.24-1.826 2.262-1.826 3.066 0 .414.195.62.586.62.206 0 .608-.08 1.205-.24 4.341-1.241 8.854-1.861 13.54-1.861 2.02 0 4.524.15 7.51.448 4.685.482 7.878.723 9.577.723 1.86 0 3.606-.138 5.237-.413a22.502 22.502 0 0 0 3.169-.724c3.675-1.125 6.776-2.95 9.302-5.477 1.47-1.47 2.205-2.584 2.205-3.342 0-.46-.241-.69-.724-.69a2.95 2.95 0 0 0-1.48.414l-1.896 1.379c-2.274 1.607-5.684 2.41-10.232 2.41-1.424 0-2.377-.034-2.86-.103h-.172a28.26 28.26 0 0 0 2.033-2.032c3.996-4.295 5.994-8.348 5.994-12.161 0-.314-.013-.621-.037-.922.103-.07.203-.135.314-.215 1.102-.804 2.687-1.206 4.754-1.206 2.55 0 4.57 1.987 6.063 5.96.413 1.08 1.08 3.422 1.998 7.028l.896 3.583c1.171 4.203 2.79 7.338 4.857 9.405l.483.517-4.203 6.752c-10.45 16.192-24.426 32.247-41.927 48.163-2.595 2.366-3.893 4.042-3.893 5.03 0 .367.218.55.655.55.85 0 2.17-.734 3.962-2.204.78-.643 2.87-2.56 6.27-5.753 18.42-17.318 33.095-34.888 44.028-52.71l3.652-6.133a179.57 179.57 0 0 0 3.445-6.373c3.674-7.097 5.512-12.357 5.512-15.779 0-1.033-.126-1.906-.379-2.618-.712-2.113-2.779-3.17-6.201-3.17-1.68 0-3.44.332-5.278.987.554-1.12 1.333-2.724 2.384-4.914 3.904-8.061 7.499-13.85 10.783-17.363.321-.345.62-.643.896-.896 1.539-1.424 3.146-2.136 4.823-2.136 1.562 0 2.882.506 3.962 1.516 1.424 1.286 2.136 2.952 2.136 4.996 0 .62-.081 1.24-.242 1.86-.114.46-.206.77-.275.93-.345.827-1.056 1.24-2.136 1.24-1.24 0-2.216-.39-2.928-1.171-.643-.712-.965-1.447-.965-2.205 0-.276.115-.574.345-.896.413-.55.62-.999.62-1.343 0-.368-.195-.552-.586-.552-.62 0-1.481.425-2.584 1.275-1.952 1.516-2.928 3.239-2.928 5.168 0 1.033.322 1.94.965 2.722.964 1.171 2.308 1.757 4.03 1.757.712 0 1.505-.127 2.377-.38 2.986-.941 5.467-2.905 7.442-5.89 1.332-1.999 1.998-4.043 1.998-6.133 0-1.837-.494-3.433-1.481-4.789-1.378-1.929-3.331-2.893-5.857-2.893-1.975 0-4.226.792-6.752 2.377-5.122 3.215-9.842 8.83-14.16 16.846l-1.206 2.309c-2.716 5.243-4.56 8.888-5.55 10.964-.6.37-1.207.766-1.822 1.197l-.413.275c-.023 0-.104-.114-.242-.344-.551-.942-1.125-1.7-1.722-2.274-1.103-1.102-2.515-1.654-4.238-1.654-.803 0-1.55.046-2.24.138a14.26 14.26 0 0 0-2.307.483c-2.98.925-5.58 2.64-7.806 5.14a8.567 8.567 0 0 0-1.565-2.453c-1.952-2.182-4.662-3.273-8.13-3.273-3.744 0-8.028 1.803-12.85 5.409l-4.582 3.617.24-.792 1.103-3.652c3.629-12.035 6.913-21.532 9.853-28.491 2.503-5.994 5.374-11.392 8.613-16.192a62.53 62.53 0 0 1 6.408-8.062l3.927-3.961c1.194-1.218 1.792-2.206 1.792-2.963 0-.345-.219-.517-.655-.517zm20.326 62.15c3.468 0 5.202 1.538 5.202 4.616 0 1.929-.666 4.524-1.999 7.786l-.413.965c-1.217 2.733-1.883 4.1-1.998 4.1 0-.047-.103-.23-.31-.552-.919-1.516-1.757-3.606-2.515-6.27l-1.792-7.132-.757-2.48c0-.069.126-.15.379-.241a11.296 11.296 0 0 1 4.203-.793zm-40.997.62c2.572 0 4.708.677 6.408 2.032 1.998 1.585 2.997 3.675 2.997 6.27a8.894 8.894 0 0 1-1.55 5.065 2.86 2.86 0 0 1-.413.55c-.965 1.126-3.457 1.689-7.477 1.689l-4.788-.138c-2.572 0-5.076.172-7.51.517l-4.548.826c.367-.55 1.01-1.71 1.93-3.479 1.952-3.652 3.743-6.385 5.374-8.2.46-.505 1.045-1.044 1.757-1.618 2.848-2.343 5.454-3.514 7.82-3.514zM1102.32 45.29c-.942 0-2.262.723-3.962 2.17l-3.1 2.894c-4.065 4.02-7.752 8.51-11.06 13.47-2.043 3.055-3.812 6.006-5.305 8.854-4.295 8.223-9.014 20.82-14.159 37.793-3.124 10.336-5.466 16.296-7.028 17.88-1.217 1.24-1.826 2.262-1.826 3.066 0 .414.207.62.62.62.138 0 .333-.022.586-.068 8.084-1.378 16.422-2.067 25.011-2.067 3.262 0 7.224.137 11.886.413 7.579.46 12.85.689 15.813.689 2.274 0 4.295-.126 6.064-.379 1.102-.16 2.181-.39 3.238-.69 3.543-1 6.518-2.608 8.926-4.82-.7 1.298-1.664 2.709-2.898 4.235-.735.896-1.102 1.608-1.102 2.136 0 .368.195.551.585.551.39 0 .873-.137 1.447-.413 1.31-.666 2.55-1.573 3.721-2.722 1.562-1.539 3.365-4.042 5.409-7.51 1.998-3.445 3.433-5.753 4.306-6.925 1.103-1.47 2.297-2.71 3.583-3.72 2.366-1.815 4.708-2.722 7.028-2.722.505 0 1.022.046 1.55.138 2.366.39 4.284 1.458 5.754 3.204 1.562 1.86 2.342 3.985 2.342 6.373 0 1.608-.379 3.193-1.136 4.754-.598 1.654-2.355 2.446-5.271 2.377-.69 0-1.287-.057-1.792-.172-.69-.183-1.458-.597-2.308-1.24-.804-.643-1.677-.965-2.618-.965-1.493 0-2.78.563-3.86 1.689-1.124 1.125-1.687 2.365-1.687 3.72 0 .368.023.7.07 1 .413 2.09 2.273 3.134 5.58 3.134 2.48 0 5.018-.666 7.614-1.998 3.606-1.837 6.683-4.502 9.233-7.993 2.664-3.629 3.996-7.074 3.996-10.335 0-2.894-.93-5.363-2.79-7.407-2.09-2.296-4.778-3.445-8.062-3.445-3.17 0-6.89 1.436-11.162 4.307-1.975 1.309-3.571 2.491-4.789 3.548l-1.102.965-.034-.034c.298-1.424.447-2.55.447-3.377 0-1.447-.367-2.744-1.102-3.893-.413-.62-.873-1.09-1.378-1.412-.69-.46-1.768-.69-3.238-.69-1.149 0-1.827.012-2.033.035-1.172.046-2.32.218-3.445.517-3.193.873-5.903 2.55-8.13 5.03-.185.205-.352.4-.509.59a9.014 9.014 0 0 0-1.8-2.692c-1.838-1.929-4.157-2.894-6.959-2.894-3.009 0-6.488 1.447-10.439 4.341-.872.643-2.55 2.033-5.03 4.169-.275-1.562-.78-2.951-1.515-4.169-1.769-2.894-4.468-4.34-8.097-4.34-.367 0-.734.022-1.102.068-3.537.368-7.993 2.87-13.367 7.51l-.585.483c1.492-5.214 2.905-9.888 4.237-14.022 4.777-14.722 9.865-26.09 15.262-34.106a62.54 62.54 0 0 1 6.408-8.062l3.927-3.961c1.195-1.218 1.791-2.206 1.791-2.964 0-.344-.218-.516-.654-.516zm25.321 62.15h.413c1.034 0 1.895.286 2.584.86 1.08.896 1.62 2.229 1.62 3.997 0 .597-.093 1.332-.276 2.205-.385 1.909-.989 3.897-1.81 5.963-.016 0-.032-.003-.05-.003-.574 0-1.08.126-1.516.379l-1.723 1.343c-2.296 1.608-6.5 2.412-12.609 2.412h-.723c0-.046.207-.275.62-.689a33.022 33.022 0 0 0 2.825-3.273c2.687-3.606 4.03-6.993 4.03-10.163 0-.461-.027-.91-.078-1.345.234-.143.54-.344.94-.619 1.01-.712 2.928-1.067 5.753-1.067zm-47.748.585c.23 0 .436.012.62.035 2.87.275 4.995 1.584 6.373 3.927.896 1.539 1.344 3.1 1.344 4.685-.023 1.93-.494 3.663-1.413 5.202-.368.643-.815 1.057-1.344 1.24-.62.23-2.63.426-6.028.586-2.963.138-5.616.333-7.958.586l-6.925.93.275-.482 3.824-7.028.862-1.447c3.376-5.49 6.833-8.234 10.37-8.234zm24.804.035c2.343 0 4.307.735 5.892 2.205 1.745 1.653 2.618 3.743 2.618 6.27-.092 2.342-.838 4.432-2.24 6.27-.137.16-.355.321-.654.482-1.194.643-2.756.964-4.685.964-.666 0-1.7-.045-3.1-.137-6.11-.39-10.187-.586-12.23-.586h-.518c1.401-1.516 2.917-3.571 4.548-6.167 1.791-2.848 2.963-4.627 3.514-5.34 1.814-2.273 3.847-3.582 6.098-3.927h.034z" style="font-style:italic;font-weight:700;font-size:70.5556px;line-height:1.25;font-family:'Tengwar Annatar';-inkscape-font-specification:'Tengwar Annatar, Bold Italic';fill:none;fill-opacity:1;stroke:#000;stroke-width:.264583;stroke-opacity:1" transform="translate(1173.024 -40.748)"/><path d="M1117.03 70.818q1.379 0 1.999 1.102.207.414.207.93 0 1.517-2.137 3.067l-3.031 2.067q-8.785 6.063-18.225 11.92-6.132 3.824-6.924 3.824-.896 0-1.034-.758-.034-.103-.034-.207 0-.723 1.171-1.688 8.682-7.2 18.57-14.331l7.303-5.168q1.206-.758 2.136-.758zM1155.857 93.797q-.965 0-1.034-1.034 0-.93 4.789-7.303l8.475-10.956 2.756-3.307q1.103-.965 2.067-.965 1.447 0 1.998 1.275.173.413.173.896 0 1.343-2.17 3.755-6.133 7.131-12.093 13.298-4.238 4.34-4.961 4.34zM1265.72 71.163c-1.974 0-4.225.792-6.751 2.377-5.122 3.215-9.842 8.83-14.16 16.846l-1.206 2.309c-3.052 5.891-4.994 9.746-5.865 11.639a17.711 17.711 0 0 0-2.045 2.104c-.355-.668-.783-1.3-1.288-1.892-2.113-2.504-5.018-3.732-8.715-3.687-3.606.046-7.924 1.976-12.954 5.788l-3.928 3.17c.39-1.333.586-2.516.586-3.55 0-.114-.011-.24-.035-.378-.092-2.25-.908-3.881-2.446-4.892a4.566 4.566 0 0 0-1.378-.62c-.299-.07-.93-.104-1.895-.104h-1.723a16.969 16.969 0 0 0-3.548.517c-3.262.85-6.018 2.504-8.268 4.961-1.287 1.401-1.93 2.47-1.93 3.204 0 .436.218.632.655.586a4.889 4.889 0 0 0 1.102-.241c.23-.07.666-.333 1.31-.792 1.033-.712 2.928-1.069 5.684-1.069h.413c1.08 0 1.964.299 2.653.896 1.033.896 1.55 2.194 1.55 3.893 0 1.401-.551 3.606-1.654 6.615a93.116 93.116 0 0 1-5.201 11.782l-3.032 5.685c-15.25 28.226-32.35 51.021-51.298 68.384l-1.55 1.482c-1.355 1.424-2.033 2.526-2.033 3.307 0 .345.207.517.62.517.713 0 1.746-.506 3.102-1.516 1.286-.965 3.71-3.17 7.27-6.615l2.273-2.239c17.891-17.868 34.152-40.284 48.782-67.248 2.412-4.456 4.134-7.797 5.168-10.025l1.757-3.583c1.677-2.986 3.468-5.305 5.374-6.96.529-.458 1.068-.884 1.62-1.274 2.388-1.677 4.65-2.515 6.786-2.515 1.401 0 2.906.413 4.513 1.24 3.4 1.7 5.099 4.536 5.099 8.51 0 .872-.138 1.803-.414 2.79-.436 1.677-.941 2.757-1.515 3.239a9.958 9.958 0 0 1-4.513 1.067c-.69 0-1.287-.057-1.792-.172-.689-.183-1.447-.597-2.274-1.24-.826-.643-1.722-.965-2.687-.965-.987 0-1.975.322-2.962.965-1.677 1.103-2.515 2.596-2.515 4.479 0 2.733 1.848 4.1 5.546 4.1.988 0 1.941-.092 2.86-.276 1.47-.276 2.986-.816 4.547-1.62 3.468-1.768 6.511-4.317 9.13-7.648 2.94-3.743 4.41-7.303 4.41-10.68 0-1-.108-1.946-.317-2.841.196-.127.421-.277.695-.465 1.01-.712 2.928-1.069 5.753-1.069h.413c1.034 0 1.895.288 2.584.862 1.08.896 1.62 2.228 1.62 3.996 0 .597-.092 1.332-.276 2.205-.643 3.193-1.895 6.603-3.755 10.232-.712 1.401-1.746 2.94-3.1 4.616-.736.896-1.103 1.608-1.103 2.136 0 .368.195.551.586.551.78 0 1.86-.516 3.238-1.55a18.116 18.116 0 0 0 1.93-1.688c3.1-3.1 5.74-7.476 7.923-13.126 1.585-4.042 2.377-7.177 2.377-9.405 0-1.447-.367-2.744-1.102-3.893-.414-.62-.873-1.09-1.379-1.412-.689-.46-1.768-.69-3.238-.69-1.148 0-1.826.012-2.033.035a15.81 15.81 0 0 0-3.445.517c-.473.13-.935.277-1.387.442.553-1.12 1.333-2.726 2.387-4.921 3.904-8.061 7.498-13.85 10.782-17.363.322-.345.62-.643.896-.896 1.54-1.424 3.147-2.136 4.823-2.136 1.562 0 2.883.506 3.962 1.516 1.424 1.286 2.136 2.952 2.136 4.996 0 .62-.08 1.24-.241 1.86-.115.46-.207.77-.276.93-.344.827-1.056 1.24-2.135 1.24-1.24 0-2.217-.39-2.929-1.171-.643-.712-.965-1.447-.965-2.205 0-.276.115-.574.345-.896.413-.55.62-.999.62-1.343 0-.368-.195-.552-.585-.552-.62 0-1.482.425-2.584 1.275-1.952 1.516-2.929 3.239-2.929 5.168 0 1.033.322 1.94.965 2.722.965 1.171 2.308 1.757 4.031 1.757.712 0 1.504-.127 2.377-.38 2.986-.941 5.466-2.905 7.441-5.89 1.333-1.999 1.999-4.043 1.999-6.133 0-1.837-.494-3.433-1.482-4.789-1.378-1.929-3.33-2.893-5.857-2.893zM1290.388 100.273a16.967 16.967 0 0 0-3.549.517c-3.261.85-6.017 2.504-8.268 4.961-1.286 1.401-1.929 2.47-1.929 3.204 0 .436.218.632.654.586.414-.046.78-.126 1.102-.241.23-.07.666-.333 1.31-.792 1.033-.712 2.928-1.069 5.684-1.069h.413c1.08 0 1.964.299 2.653.896 1.034.896 1.55 2.194 1.55 3.893 0 1.401-.55 3.606-1.653 6.615a93.133 93.133 0 0 1-5.202 11.782l-3.032 5.685c-15.25 28.226-32.35 51.021-51.297 68.384l-1.55 1.482c-1.356 1.424-2.034 2.526-2.034 3.307 0 .345.207.517.62.517.713 0 1.746-.506 3.101-1.516 1.286-.965 3.71-3.17 7.27-6.615l2.273-2.239c17.892-17.868 34.153-40.284 48.783-67.248 2.411-4.456 4.134-7.797 5.167-10.025l1.757-3.583c1.677-2.986 3.468-5.305 5.375-6.96.528-.458 1.068-.884 1.619-1.274 2.388-1.677 4.651-2.515 6.787-2.515 1.401 0 2.905.413 4.513 1.24 3.4 1.7 5.099 4.536 5.099 8.51 0 .872-.138 1.803-.414 2.79-.436 1.677-.942 2.757-1.516 3.239a9.959 9.959 0 0 1-4.513 1.067c-.689 0-1.286-.057-1.791-.172-.69-.183-1.447-.597-2.274-1.24s-1.723-.965-2.687-.965c-.988 0-1.975.322-2.963.965-1.677 1.103-2.515 2.596-2.515 4.479 0 2.733 1.85 4.1 5.547 4.1.988 0 1.94-.092 2.86-.276 1.47-.276 2.985-.816 4.547-1.62 3.468-1.768 6.511-4.317 9.13-7.648 2.94-3.743 4.409-7.303 4.409-10.68 0-.999-.107-1.945-.317-2.84.197-.127.422-.277.696-.466 1.01-.712 2.929-1.069 5.754-1.069h.413c1.057 0 1.941.31 2.653.93 1.033.896 1.55 2.228 1.55 3.997 0 .804-.195 1.94-.585 3.41a42.02 42.02 0 0 1-4.238 10.439c-.367.666-1.068 1.585-2.101 2.756-.873.988-1.31 1.803-1.31 2.446 0 .414.207.62.62.62.23 0 .586-.068 1.068-.206a51.764 51.764 0 0 1 13.85-1.895c1.998 0 4.524.15 7.579.448 4.708.46 7.774.689 9.198.689h1.069c2.595 0 5.086-.356 7.475-1.068 3.6-1.047 6.608-2.697 9.026-4.945-.703 1.313-1.677 2.742-2.928 4.29-.735.896-1.102 1.608-1.102 2.136 0 .368.195.551.585.551.804 0 1.803-.436 2.997-1.309 2.642-1.998 5.237-5.282 7.786-9.853 2.228-3.996 4.054-6.867 5.478-8.613 2.297-2.825 4.686-4.237 7.166-4.237 1.286 0 2.664.436 4.134 1.309 3.009 1.745 4.513 4.525 4.513 8.337 0 2.205-.597 4.226-1.792 6.064a.534.534 0 0 1-.103.138c-.574.666-1.745.998-3.514.998-.689 0-1.286-.057-1.79-.172-.69-.16-1.448-.574-2.275-1.24-.827-.643-1.722-.965-2.687-.965-1.447 0-2.699.529-3.755 1.585-1.149 1.149-1.723 2.458-1.723 3.928v.344c.184 2.457 2.044 3.686 5.581 3.686.529 0 1.068-.034 1.62-.103 4.386-.62 8.693-3.33 12.919-8.13 1.286-1.448 2.733-3.595 4.34-6.443 1.631-2.917 2.791-4.823 3.48-5.719 1.86-2.388 4.054-3.582 6.58-3.582 1.149 0 2.263.264 3.342.792a9.27 9.27 0 0 1 1.516.965c2.457 1.975 3.686 4.593 3.686 7.854 0 1.149-.218 2.4-.654 3.756-.529 1.561-1 2.468-1.413 2.721l-.138.069c-.941.459-2.044.689-3.307.689a6.557 6.557 0 0 1-1.723-.207c-.62-.16-1.343-.574-2.17-1.24-.804-.643-1.688-.965-2.653-.965-1.08 0-2.124.356-3.135 1.068-1.585 1.08-2.377 2.492-2.377 4.238 0 .574.081 1.09.241 1.55.551 1.792 2.354 2.687 5.409 2.687 1.791 0 3.755-.505 5.89-1.516 3.446-1.63 6.49-4.053 9.13-7.269 3.17-3.858 4.755-7.705 4.755-11.541 0-3.124-.93-5.707-2.79-7.751-1.907-2.068-4.296-3.101-7.167-3.101-1.814 0-3.847.574-6.098 1.723-2.71 1.378-5.89 3.766-9.542 7.165-.322-1.607-.873-3.043-1.654-4.306-1.86-3.055-4.593-4.582-8.2-4.582-2.48 0-5.374 1.091-8.68 3.273-2.137 1.378-3.813 2.653-5.03 3.824-.598.551-.92.827-.965.827v-.035c.16-1.102.241-1.929.241-2.48 0-.46-.034-.907-.103-1.344-.345-1.906-1.206-3.26-2.584-4.065-.23-.114-.425-.218-.586-.31-.46-.183-1.275-.276-2.446-.276-1.148 0-1.826.012-2.033.035a15.81 15.81 0 0 0-3.445.517c-3.192.873-5.902 2.549-8.13 5.03-.09.099-.169.193-.252.289a9.023 9.023 0 0 0-1.16-1.77c-1.976-2.32-4.767-3.48-8.372-3.48-.965 0-1.85.092-2.653.276-1.401.298-2.963.884-4.686 1.757-3.169 1.584-6.258 3.697-9.267 6.338l-.62.517c.322-1.401.482-2.572.482-3.514 0-.414-.034-.827-.103-1.24-.322-1.976-1.183-3.365-2.584-4.169-.23-.114-.425-.218-.585-.31-.46-.183-1.275-.276-2.446-.276-1.148 0-1.826.012-2.033.035-1.171.046-2.32.218-3.445.517-3.192.873-5.903 2.549-8.13 5.03-.184.203-.348.397-.504.585-.355-.669-.783-1.3-1.288-1.894-2.113-2.504-5.019-3.733-8.717-3.687-3.605.046-7.923 1.976-12.953 5.788l-3.928 3.17c.39-1.333.586-2.516.586-3.55a2.31 2.31 0 0 0-.034-.378c-.092-2.25-.907-3.882-2.445-4.892a4.57 4.57 0 0 0-1.379-.62c-.298-.07-.93-.104-1.895-.104zm87.023 7.166h.413c1.034 0 1.895.287 2.584.861 1.08.896 1.62 2.229 1.62 3.997 0 .597-.093 1.332-.276 2.205-.385 1.909-.989 3.897-1.809 5.963-.018 0-.033-.003-.052-.003-.505 0-.999.138-1.481.413l-1.895 1.379c-2.365 1.607-5.891 2.41-10.577 2.41-1.286 0-2.228-.034-2.825-.103a43.504 43.504 0 0 0 2.48-2.549c3.744-4.249 5.616-8.142 5.616-11.679 0-.501-.036-.987-.102-1.459.171-.112.329-.214.55-.367 1.011-.712 2.929-1.067 5.754-1.067zm-23.427.62c2.527 0 4.651.678 6.374 2.033 1.998 1.585 2.997 3.663 2.997 6.236-.046 2.182-.712 4.1-1.998 5.753-.161.207-.471.402-.93.586-1.516.666-3.377.999-5.581.999l-5.822-.138c-2.688 0-5.214.172-7.58.517l-4.444.792c0-.046.23-.448.689-1.206 3.055-5.213 5.237-8.612 6.546-10.197.46-.551 1.056-1.149 1.791-1.792 2.78-2.388 5.432-3.582 7.959-3.582zM1330.557 70.44c-.666 0-1.343.275-2.032.826a4.109 4.109 0 0 0-.31.241c-1.791 1.654-4.904 4.789-9.336 9.405l-8.351 9.153a22.579 22.579 0 0 0-2.467-.16c-.78 0-1.561.056-2.342.171-3.216.482-5.914 1.826-8.096 4.03-1.08 1.103-1.62 1.942-1.62 2.516 0 .413.207.62.62.62.322-.046.977-.368 1.964-.965 1.585-1.08 3.377-1.619 5.375-1.619 1.7 0 3.961.276 6.786.827 3.423.666 6.018.999 7.787.999.757 0 1.515-.057 2.273-.172 3.147-.482 5.81-1.803 7.993-3.962 1.148-1.125 1.722-1.998 1.722-2.619 0-.39-.206-.585-.62-.585-.298.046-.965.368-1.998.965-1.539 1.08-3.33 1.619-5.374 1.619-1.769 0-4.054-.276-6.856-.827a90.655 90.655 0 0 0-1.546-.292c.416-.356.853-.733 1.339-1.155 6.293-5.397 11.507-10.094 15.64-14.09 1.035-1.011 1.551-1.895 1.551-2.653v-.172c0-.322-.057-.62-.172-.896-.344-.804-.988-1.206-1.93-1.206zM1415.962 87.871q-.724 0-.93-.827-.034-.137-.034-.31 0-.55 2.101-5.994 1.585-4.203 2.377-5.374.93-1.482 2.343-1.482 1.343 0 1.93 1.206.24.482.206 1.102-.035 1.585-1.86 4.135l-3.928 5.408-.62.93q-.758 1.137-1.585 1.206zM1396.428 158.806q-1.688 0-1.998-1.62-.07-.31-.07-.654 0-1.102.655-2.205.827-1.412 3.204-4.375l2.446-3.17q.965-1.274 1.206-1.446.38-.276.758-.276.758 0 .965.827.034.138.034.344 0 .586-2.515 6.443-1.482 3.376-2.136 4.444-1.103 1.688-2.55 1.688zM1510.599 68.544c-.827 0-1.677.127-2.55.38-2.205.688-4.283 2.009-6.235 3.961-2.48 2.48-3.72 5.019-3.72 7.614.022.551.136 1.137.343 1.757.758 2.228 2.228 3.341 4.41 3.341 1.493-.069 3.135-.86 4.927-2.377 1.378-1.24 2.067-2.285 2.067-3.134 0-.345-.207-.517-.62-.517-.322 0-.678.103-1.069.31l-1.585.964c-.459 0-.964-.195-1.515-.585-1.195-.896-1.792-2.08-1.792-3.549 0-.46.035-.861.104-1.206.322-1.492 1.538-2.239 3.651-2.239.758 0 1.597.195 2.516.586 2.48 1.01 3.72 2.813 3.72 5.409 0 1.286-.333 2.63-1 4.03-1.607 3.446-4.925 6.97-9.955 10.577l-6.443 4.444a985.38 985.38 0 0 0-3.737 2.554c-.064-.001-.126-.004-.19-.004-3.4 0-6.672.815-9.819 2.445-3.123 1.608-5.833 3.63-8.13 6.064-3.537 3.79-5.305 7.717-5.305 11.782 0 1.975.367 3.56 1.102 4.754.896 1.447 2.147 2.17 3.755 2.17 1.08 0 2.125-.367 3.135-1.102 1.562-1.125 2.343-2.56 2.343-4.306 0-.413-.046-.792-.138-1.137-.114-.39-.482-1.022-1.102-1.895-.85-1.24-1.275-2.802-1.275-4.685 0-1.654.333-3.135 1-4.444.32-.598 1.01-1.103 2.066-1.516 1.654-.62 3.583-.93 5.788-.93 1.217 0 2.308.16 3.273.482 1.01.344 2.055.919 3.135 1.723 2.986 2.273 4.479 5.27 4.479 8.991 0 .896-.092 1.85-.276 2.86-1.746 9.6-11.358 24.012-28.836 43.236-6.316 6.936-12.402 13.114-18.259 18.534-3.445 3.215-5.259 4.904-5.443 5.064-1.24 1.264-1.86 2.286-1.86 3.067 0 .39.207.585.62.585.528 0 1.137-.218 1.826-.654.987-.575 2.905-2.17 5.753-4.789l9.44-9.026c12.655-12.54 23.036-24.449 31.144-35.726 9.14-12.7 13.71-22.358 13.71-28.973 0-3.422-1.079-6.328-3.238-8.716-1.445-1.587-3.127-2.683-5.044-3.29l6.526-4.496c2.32-1.676 4.628-3.617 6.924-5.822 6.11-5.857 9.164-10.956 9.164-15.296 0-1.608-.39-3.009-1.17-4.203-1.379-2.044-3.584-3.067-6.615-3.067zM1508.187 124.872q0-2.998 2.653-4.203.86-.38 1.447-.38h.275q2.756 0 4.065 2.137.69 1.102.69 2.411 0 3.17-2.963 4.272-.896.31-1.62.31-2.273 0-3.651-1.791-.896-1.172-.896-2.756zM1514.181 108.06q0-2.929 2.653-4.135.861-.413 1.447-.413h.31q2.722 0 4.03 2.102.69 1.068.69 2.446 0 2.308-1.826 3.686-1.171.861-2.756.861-2.515 0-3.79-1.93-.758-1.136-.758-2.617zM1582.98 110.092q0-.896-.344-3.755-.276-2.067-.276-4.892 0-10.955 5.34-21.876l.413-.827q5.753-11.369 17.984-24.013 4.685-4.788 8.681-8.13 2.515-2.101 3.928-2.101.55 0 .55.55 0 1.172-2.514 3.687l-6.339 6.063q-2.446 2.446-4.582 4.858-15.64 17.604-15.64 35.76 0 10.749 5.34 20.154 1.136 2.067 2.514 3.927 3.41 4.686 6.58 4.755h.38q2.996 0 6.097-2.205 2.101-1.482 2.446-1.654.655-.31 1.171-.31.62 0 .62.551 0 1.413-2.893 4.169-3.962 3.755-8.682 5.58-1.413.518-2.722.793-1.274.241-2.652.241-2.412 0-4.341-1.378-2.377-1.722-4.961-5.719-1.723-2.618-3.066-5.615-.31-.724-.345-.724-.034 0-.344.448-3.135 4.169-7.407 7.683-5.168 4.203-9.612 4.926-1 .173-2.102.173-3.341-.138-5.546-2.17-.793-.759-.793-1.172 0-1.068 2.17-3.376 2.62-2.79 4.583-3.17.207-.034.448-.034.275 0 1.102.792 2.308 1.86 4.927 1.964 3.996 0 6.924-4.375 2.55-3.79 2.928-8.44.035-.587.035-1.138zM1626.457 108.955q0-1.102 1.93-3.204 3.376-3.686 8.268-4.96 1.757-.448 3.548-.517h1.723q1.447 0 1.895.103.689.172 1.378.62 2.308 1.516 2.48 4.892v.38q0 .964-.345 2.652 4.272-3.755 7.097-5.443 4.307-2.584 7.717-2.584 5.34 0 8.165 4.513 1.206 1.93 1.688 4.375 9.578-8.888 15.434-8.888 4.961 0 7.82 3.548 2.378 2.997 2.378 7.476 0 5.202-4.41 10.818-3.858 4.96-9.026 7.544-3.445 1.757-6.408 1.757-5.58 0-5.58-4.134 0-2.756 2.445-4.41 1.482-.998 3.032-.998 1.343 0 2.584.93 1.343 1.033 2.48 1.274.792.173 1.792.173 1.963 0 3.031-.69.276-.172.414-.378 1.826-2.688 1.826-6.098 0-4.617-3.273-7.51-1.688-1.516-3.618-1.964-.826-.207-1.826-.207-3.961 0-7.338 4.892-.826 1.206-3.341 5.65-1.034 1.895-1.757 2.894-2.48 3.514-6.236 6.442-4.789 3.755-9.198 4.1-.345.034-.93.034-5.616 0-5.616-4.1 0-2.824 2.515-4.478 1.481-.965 2.997-.965 1.378 0 2.618.93 1.378 1.034 2.515 1.275.793.173 1.757.173 2.102 0 3.135-.758.172-.138.276-.31 1.791-2.55 1.791-6.167 0-4.375-3.1-7.304-1.826-1.722-3.962-2.136-.792-.172-1.585-.172-6.787 0-13.195 13.987-1.515 3.239-3.824 7.545-22.393 42.099-50.057 69.832l-2.515 2.48q-5.34 5.168-7.269 6.615-2.033 1.516-3.1 1.516-.62 0-.62-.517 0-1.171 2.032-3.307l1.55-1.481q28.422-26.045 51.298-68.386l3.031-5.684q2.998-5.685 5.202-11.782 1.654-4.513 1.654-6.615 0-2.55-1.55-3.893-1.034-.896-2.653-.896h-.413q-4.134 0-5.685 1.068-.964.69-1.309.793-.482.172-1.102.24-.655.07-.655-.585zM1688.779 92.281q6.304 0 9.99-2.687l1.999-1.516q.654-.413 1.275-.413.62 0 .62.585 0 1.378-2.998 3.721-6.27 4.926-14.297 5.099h-.654q-4.341 0-12.61-1.55-8.06-1.516-11.678-1.689-.861-.034-1.654-.034-6.27 0-9.956 2.653l-2.067 1.55q-.724.448-1.378.448-.655 0-.655-.586 0-1.137 2.274-3.17 3.927-3.513 9.715-4.926 2.928-.723 5.926-.723 4.72 0 12.299 1.481 7.441 1.447 11.093 1.688 1.378.069 2.756.069zM1719.027 109.54q-.655.07-.655-.585 0-1.033 1.86-3.1 3.343-3.721 8.131-5.03 1.688-.448 3.445-.517.31-.034 2.033-.034 1.757 0 2.446.275.241.138.586.31 2.067 1.206 2.583 4.065.104.655.104 1.344 0 .827-.241 2.48v.035q.069 0 .964-.827 1.826-1.757 5.03-3.824 4.961-3.273 8.682-3.273 5.409 0 8.2 4.582 1.17 1.895 1.653 4.307 5.477-5.1 9.543-7.166 3.376-1.723 6.097-1.723 4.307 0 7.166 3.1 2.79 3.067 2.79 7.752 0 5.754-4.753 11.541-3.962 4.823-9.13 7.27-3.204 1.515-5.891 1.515-4.582 0-5.409-2.687-.241-.689-.241-1.55 0-2.618 2.377-4.238 1.516-1.068 3.135-1.068 1.447 0 2.653.965 1.24 1 2.17 1.24.758.207 1.723.207 1.895 0 3.307-.689l.138-.069q.62-.379 1.412-2.722.655-2.032.655-3.755 0-4.892-3.686-7.855-.758-.585-1.516-.964-1.62-.793-3.342-.793-3.79 0-6.58 3.583-1.033 1.344-3.48 5.72-2.411 4.271-4.34 6.442-6.34 7.2-12.92 8.13-.826.103-1.619.103-5.305 0-5.58-3.686v-.344q0-2.205 1.722-3.928 1.585-1.585 3.755-1.585 1.447 0 2.687.965 1.24 1 2.274 1.24.758.173 1.791.173 2.653 0 3.514-1 .07-.068.104-.137 1.791-2.756 1.791-6.064 0-5.719-4.513-8.337-2.205-1.309-4.134-1.309-3.72 0-7.166 4.237-2.136 2.619-5.478 8.613-3.824 6.856-7.785 9.853-1.792 1.31-2.998 1.31-.585 0-.585-.552 0-.792 1.102-2.136 2.033-2.515 3.1-4.616 2.791-5.444 3.756-10.232.275-1.31.275-2.205 0-2.653-1.619-3.996-1.033-.862-2.584-.862h-.413q-4.237 0-5.753 1.068-1 .69-1.31.827-.413.138-1.033.207z" style="font-style:italic;font-weight:700;font-size:70.5556px;line-height:1.25;font-family:'Tengwar Annatar';-inkscape-font-specification:'Tengwar Annatar, Bold Italic';fill:none;fill-opacity:1;stroke:#000;stroke-width:.264583;stroke-opacity:1" transform="translate(1173.024 -40.748)"/></g></svg>