<svg width="11197.233" height="640.193" viewBox="0 0 2962.601 169.384" xml:space="preserve" xmlns="http://www.w3.org/2000/svg"><defs><path id="c" d="M5102.864 458.321h1717.47v2384.194h-1717.47z"/><path id="b" d="M4432.115 396.85h9956.31v1159.893h-9956.31z"/><path id="a" d="M5102.864 458.321h819.794v161.505h-819.794z"/></defs><g style="fill:none;stroke:#000;stroke-opacity:1"><path style="font-style:italic;font-weight:700;font-size:70.5556px;line-height:1.25;font-family:'Tengwar Annatar';-inkscape-font-specification:'Tengwar Annatar, Bold Italic';fill:none;fill-opacity:1;stroke:#000;stroke-width:.264583;stroke-opacity:1" d="M201.91 68.51c-.345 0-.621.011-.828.034-.206 0-.46.035-.758.103-5.558.827-12.38 5.605-20.464 14.332l-12.712 14.297c-4.02 4.548-6.086 6.914-6.201 7.097-.06.087-.113.17-.164.25-1.782 1.191-3.21 2.303-4.28 3.333-.598.551-.919.827-.965.827v-.035c.161-1.102.241-1.929.241-2.48 0-.46-.034-.907-.103-1.344-.345-1.906-1.206-3.26-2.584-4.065a12.17 12.17 0 0 1-.586-.31c-.459-.183-1.274-.276-2.445-.276-1.149 0-1.827.012-2.033.035-1.172.046-2.32.218-3.445.517-3.193.873-5.903 2.55-8.13 5.03-1.241 1.378-1.861 2.411-1.861 3.1 0 .436.218.632.655.586a5.107 5.107 0 0 0 1.033-.207c.207-.092.643-.368 1.309-.827 1.01-.712 2.929-1.068 5.754-1.068h.413c1.034 0 1.895.287 2.584.861 1.08.896 1.619 2.229 1.619 3.997 0 .597-.092 1.332-.276 2.205-.643 3.192-1.894 6.603-3.755 10.231-.712 1.401-1.745 2.94-3.1 4.617-.735.896-1.103 1.608-1.103 2.136 0 .368.195.551.586.551.804 0 1.803-.436 2.997-1.309 2.641-1.998 5.237-5.282 7.786-9.853 2.228-3.996 4.054-6.867 5.478-8.613 2.297-2.825 4.685-4.237 7.165-4.237 1.286 0 2.665.436 4.135 1.309 3.009 1.745 4.513 4.525 4.513 8.337 0 2.205-.597 4.226-1.792 6.064a.542.542 0 0 1-.103.138c-.574.666-1.746.998-3.514.998-.69 0-1.286-.057-1.792-.172-.689-.16-1.446-.574-2.273-1.24-.827-.643-1.723-.965-2.688-.965-1.447 0-2.698.529-3.755 1.585-1.148 1.149-1.722 2.458-1.722 3.928v.344c.183 2.457 2.044 3.686 5.581 3.686.528 0 1.068-.034 1.62-.103 4.386-.62 8.692-3.33 12.918-8.13 1.286-1.448 2.733-3.595 4.341-6.443 1.63-2.917 2.79-4.823 3.48-5.719 1.86-2.388 4.054-3.582 6.58-3.582 1.148 0 2.262.264 3.341.792.506.252 1.011.574 1.517.965 2.457 1.975 3.686 4.593 3.686 7.854 0 1.149-.219 2.4-.655 3.756-.528 1.561-.999 2.468-1.412 2.721l-.138.069c-.942.459-2.044.689-3.308.689a6.557 6.557 0 0 1-1.722-.207c-.62-.16-1.344-.574-2.17-1.24-.804-.643-1.688-.965-2.653-.965-1.08 0-2.125.356-3.135 1.068-1.585 1.08-2.377 2.492-2.377 4.238 0 .574.08 1.09.241 1.55.551 1.792 2.354 2.687 5.408 2.687 1.792 0 3.756-.505 5.892-1.516 3.445-1.63 6.488-4.053 9.13-7.269 3.169-3.858 4.753-7.705 4.753-11.541 0-3.124-.93-5.707-2.79-7.751-1.906-2.068-4.295-3.101-7.166-3.101-1.814 0-3.847.574-6.098 1.723-2.71 1.378-5.89 3.766-9.542 7.165-.322-1.607-.873-3.043-1.654-4.306-1.86-3.055-4.594-4.582-8.2-4.582-1.083 0-2.246.208-3.487.625 2.375-2.661 6.16-6.922 11.756-13.234 3.583-4.065 4.616-5.236 3.1-3.514 6.822-7.625 12.276-11.438 16.364-11.438a6.53 6.53 0 0 1 1.93.276c.413.138.861.356 1.343.655 1.907 1.24 2.86 2.986 2.86 5.236 0 .827-.15 1.63-.449 2.412-.344 1.263-1.32 1.895-2.927 1.895-1.287 0-2.297-.448-3.032-1.344-.597-.712-.896-1.424-.896-2.136 0-.46.207-.953.62-1.481.483-.62.724-1.137.724-1.55 0-.345-.207-.517-.62-.517-.988.091-2.171.827-3.549 2.205-1.562 1.7-2.343 3.353-2.343 4.96 0 .896.242 1.711.724 2.446.942 1.447 2.423 2.17 4.444 2.17.919 0 1.837-.149 2.756-.447 2.595-.827 4.88-2.526 6.856-5.099 1.883-2.457 2.825-4.834 2.825-7.13 0-1.7-.471-3.194-1.413-4.48-1.378-1.906-3.342-2.859-5.89-2.859zM162.36 158.806q-1.689 0-1.999-1.62-.069-.31-.069-.654 0-1.102.655-2.205.827-1.412 3.204-4.375l2.446-3.17q.965-1.274 1.206-1.446.379-.276.758-.276.758 0 .964.827.035.138.035.344 0 .586-2.515 6.443-1.482 3.376-2.136 4.444-1.103 1.688-2.55 1.688zM287.692 100.067c-2.021 0-4.226.138-6.615.413a32.43 32.43 0 0 0-5.96 1.31c-3.795 1.232-6.988 2.938-9.58 5.116.022-.292.037-.576.037-.845 0-1.033-.126-1.906-.378-2.618-.712-2.113-2.78-3.17-6.202-3.17-3.628 0-7.625 1.528-11.988 4.583l-.414.275c-.023 0-.103-.114-.241-.344-.551-.942-1.125-1.7-1.723-2.274-1.102-1.102-2.514-1.654-4.237-1.654-.804 0-1.55.046-2.24.138-.757.092-1.527.253-2.308.483-3.031.941-5.672 2.698-7.923 5.27-1.148 1.333-1.723 2.274-1.723 2.825.023.276.241.46.655.552.23 0 .436-.023.62-.07.367-.068.884-.344 1.55-.826 1.103-.804 2.687-1.206 4.754-1.206 2.55 0 4.57 1.987 6.064 5.96.413 1.08 1.08 3.422 1.998 7.028l.895 3.583c1.172 4.203 2.791 7.338 4.858 9.405l.483.517-4.204 6.752c-10.45 16.192-24.425 32.247-41.926 48.163-2.596 2.366-3.894 4.042-3.894 5.03 0 .367.219.551.655.551.85 0 2.17-.735 3.962-2.205.781-.643 2.87-2.56 6.27-5.753 18.42-17.318 33.096-34.888 44.028-52.71l3.652-6.133c1.31-2.32 2.458-4.444 3.446-6.373 2.076-4.01 3.565-7.432 4.468-10.269l2.215-1.686c2.917-2.067 7.579-3.192 13.987-3.376.55 0 .827.012.827.035l-.035.034-.93.861c-5.696 5.145-8.543 10.14-8.543 14.987 0 2.64.815 4.857 2.445 6.649 1.838 1.975 4.203 2.962 7.097 2.962 4.341 0 9.451-2.514 15.331-7.544l.069.138c.206 1.378.85 2.71 1.93 3.996 1.906 2.274 4.386 3.41 7.44 3.41.736 0 1.47-.068 2.205-.206 2.664-.529 5.73-2.148 9.199-4.858 1.309-1.033 1.987-1.55 2.033-1.55l-.93 2.618c-1.172 3.239-2.596 6.546-4.273 9.922-6.316 12.747-15.595 25.7-27.836 38.86l-6.752 6.96-11.472 10.955c-4.066 3.744-6.294 5.81-6.684 6.201-1.355 1.355-2.033 2.435-2.033 3.239 0 .39.207.585.62.585 1.011 0 2.446-.838 4.307-2.514 3.17-2.756 7.04-6.328 11.61-10.715l9.13-8.957c13.16-13.39 23.437-26.286 30.833-38.689 2.273-3.812 4.249-7.44 5.925-10.886 2.182-4.455 4.25-9.612 6.202-15.469 1.447-4.363 2.664-7.521 3.652-9.473 3.054-.575 5.626-1.964 7.716-4.17 1.172-1.216 1.757-2.158 1.757-2.824 0-.436-.23-.655-.688-.655-.39 0-.862.161-1.413.483-1.24.689-3.066 1.033-5.478 1.033-10.68.046-20.808-.31-30.386-1.068-6.844-.528-12.15-.792-15.916-.792zm.38 6.511c.298 0 .688.012 1.17.035l15.4 1.136-2.411 2.516c-1.884 2.09-3.4 4.478-4.548 7.165-.804 1.93-1.424 3.193-1.86 3.79-.666.896-1.574 1.665-2.722 2.308-1.677.896-3.296 1.343-4.858 1.343-1.975 0-3.72-.596-5.236-1.79-2.09-1.654-3.135-3.928-3.135-6.822 0-.344.023-.689.069-1.034.298-2.618 1.562-4.846 3.79-6.683 1.584-1.31 3.031-1.964 4.34-1.964zm-35.554.861c3.468 0 5.202 1.54 5.202 4.617 0 1.929-.666 4.524-1.998 7.786l-.414.965c-1.217 2.733-1.883 4.1-1.998 4.1 0-.047-.103-.23-.31-.552-.919-1.516-1.757-3.606-2.515-6.27l-1.791-7.132-.758-2.48c0-.069.126-.15.379-.241a11.3 11.3 0 0 1 4.203-.793zm59.738.655 14.538.276h.275c-.436.666-1.492 2.607-3.169 5.822-2.343 4.525-4.077 7.257-5.202 8.199l-.689.551c-1.7 1.287-3.4 1.93-5.099 1.93-1.148 0-2.4-.333-3.755-1-3.054-1.492-4.582-4.03-4.582-7.613 0-.46.069-1.034.207-1.723.505-2.572 1.355-4.271 2.549-5.098 1.332-.896 2.975-1.344 4.927-1.344zM309.017 87.871q-.723 0-.93-.827-.034-.137-.034-.31 0-.55 2.101-5.994 1.585-4.203 2.377-5.374.93-1.482 2.343-1.482 1.344 0 1.93 1.206.24.482.206 1.102-.034 1.585-1.86 4.135l-3.928 5.408-.62.93q-.758 1.137-1.585 1.206zM323.728 92.281q6.304 0 9.99-2.687l1.999-1.516q.654-.413 1.275-.413.62 0 .62.585 0 1.378-2.998 3.721-6.27 4.926-14.297 5.099h-.654q-4.341 0-12.61-1.55-8.06-1.516-11.678-1.689-.862-.034-1.654-.034-6.27 0-9.956 2.653L281.698 98q-.724.448-1.378.448-.655 0-.655-.586 0-1.137 2.274-3.17 3.927-3.513 9.715-4.926 2.928-.723 5.926-.723 4.72 0 12.299 1.481 7.441 1.447 11.093 1.688 1.378.069 2.756.069zM430.905 71.163c-1.975 0-4.226.792-6.753 2.377-5.121 3.215-9.841 8.83-14.159 16.846l-1.206 2.309c-3.052 5.891-4.993 9.746-5.865 11.639a17.722 17.722 0 0 0-2.046 2.104c-.355-.668-.782-1.3-1.287-1.892-2.113-2.504-5.018-3.732-8.716-3.687-3.606.046-7.924 1.976-12.953 5.788l-3.928 3.17c.39-1.333.586-2.516.586-3.55 0-.114-.012-.24-.035-.378-.092-2.25-.907-3.881-2.446-4.892a4.568 4.568 0 0 0-1.378-.62c-.299-.07-.93-.104-1.895-.104h-1.722a16.968 16.968 0 0 0-3.549.517c-3.261.85-6.017 2.504-8.268 4.961-1.286 1.401-1.93 2.47-1.93 3.204 0 .436.22.632.655.586.414-.046.781-.126 1.103-.241.23-.07.666-.333 1.309-.792 1.033-.712 2.928-1.069 5.684-1.069h.413c1.08 0 1.965.299 2.654.896 1.033.896 1.55 2.194 1.55 3.893 0 1.401-.551 3.606-1.654 6.615a93.113 93.113 0 0 1-5.202 11.782l-3.032 5.685c-15.25 28.226-32.349 51.021-51.297 68.384l-1.55 1.482c-1.355 1.424-2.033 2.526-2.033 3.307 0 .345.206.517.62.517.712 0 1.745-.506 3.1-1.516 1.287-.965 3.71-3.17 7.27-6.615l2.274-2.239c17.891-17.868 34.152-40.284 48.782-67.248 2.412-4.456 4.134-7.797 5.168-10.025l1.757-3.583c1.676-2.986 3.468-5.305 5.374-6.96a20.73 20.73 0 0 1 1.62-1.274c2.388-1.677 4.65-2.515 6.786-2.515 1.401 0 2.905.413 4.513 1.24 3.4 1.7 5.1 4.536 5.1 8.51 0 .872-.139 1.803-.414 2.79-.437 1.677-.942 2.757-1.516 3.239a9.96 9.96 0 0 1-4.513 1.067c-.69 0-1.286-.057-1.792-.172-.689-.183-1.446-.597-2.273-1.24-.827-.643-1.723-.965-2.687-.965-.988 0-1.976.322-2.964.965-1.676 1.103-2.514 2.596-2.514 4.479 0 2.733 1.849 4.1 5.546 4.1.988 0 1.94-.092 2.86-.276 1.47-.276 2.985-.816 4.547-1.62 3.468-1.768 6.511-4.317 9.13-7.648 2.94-3.743 4.41-7.303 4.41-10.68 0-1-.108-1.946-.318-2.84.197-.128.422-.277.696-.466 1.01-.712 2.929-1.069 5.754-1.069h.413c1.034 0 1.895.288 2.584.862 1.08.896 1.619 2.228 1.619 3.996 0 .597-.092 1.332-.275 2.205-.644 3.193-1.895 6.603-3.756 10.232-.712 1.401-1.745 2.94-3.1 4.616-.735.896-1.103 1.608-1.103 2.136 0 .368.195.551.586.551.78 0 1.86-.516 3.238-1.55a18.113 18.113 0 0 0 1.93-1.688c3.1-3.1 5.741-7.476 7.923-13.126 1.585-4.042 2.377-7.177 2.377-9.405 0-1.447-.367-2.744-1.102-3.893-.414-.62-.873-1.09-1.378-1.412-.69-.46-1.768-.69-3.238-.69-1.149 0-1.827.012-2.033.035-1.172.046-2.32.218-3.445.517-.473.13-.936.277-1.388.442.554-1.12 1.333-2.726 2.387-4.921 3.904-8.061 7.499-13.85 10.783-17.363.322-.345.62-.643.896-.896 1.539-1.424 3.146-2.136 4.823-2.136 1.561 0 2.882.506 3.962 1.516 1.424 1.286 2.135 2.952 2.135 4.996 0 .62-.08 1.24-.24 1.86-.115.46-.207.77-.276.93-.345.827-1.057 1.24-2.136 1.24-1.24 0-2.217-.39-2.929-1.171-.643-.712-.964-1.447-.964-2.205 0-.276.115-.574.344-.896.414-.55.62-.999.62-1.343 0-.368-.195-.552-.585-.552-.62 0-1.481.425-2.584 1.275-1.952 1.516-2.928 3.239-2.928 5.168 0 1.033.321 1.94.964 2.722.965 1.171 2.309 1.757 4.031 1.757.712 0 1.505-.127 2.377-.38 2.986-.941 5.467-2.905 7.442-5.89 1.332-1.999 1.998-4.043 1.998-6.133 0-1.837-.494-3.433-1.482-4.789-1.378-1.929-3.33-2.893-5.856-2.893zM510.073 44.498c-1.056 0-2.825 1.136-5.305 3.41l-10.75 10.232c-11.666 11.645-21.37 22.784-29.11 33.418-9.003 12.38-13.505 21.68-13.505 27.905 0 3.353 1.057 6.235 3.17 8.647 2.32 2.618 5.305 3.927 8.957 3.927 2.595 0 5.213-.516 7.855-1.55 4.41-1.745 8.199-4.57 11.368-8.475.965-1.171 1.746-2.33 2.343-3.48 1.126-2.112 1.688-4.455 1.688-7.027 0-1.14-.149-2.168-.447-3.087 1.042-.652 2.912-.979 5.615-.979h.413c1.034 0 1.895.288 2.584.862 1.08.896 1.62 2.228 1.62 3.996 0 .597-.093 1.332-.276 2.205-.643 3.193-1.895 6.603-3.755 10.232-.712 1.401-1.746 2.94-3.1 4.616-.736.896-1.103 1.608-1.103 2.136 0 .368.195.551.586.551.78 0 1.86-.516 3.238-1.55a18.117 18.117 0 0 0 1.93-1.688c3.1-3.1 5.74-7.476 7.923-13.126.873-2.228 1.505-4.179 1.897-5.855.174-.078.346-.159.514-.243l1.86-1.24c1.241-.804 3.216-1.206 5.926-1.206 1.906 0 5.237.391 9.991 1.172l3.893.689c-4.18 2.572-7.729 5.523-10.645 8.853-4.709 5.375-7.063 10.818-7.063 16.33 0 1.332.115 2.619.345 3.859.918 4.823 3.376 8.716 7.372 11.679 4.043 3.008 8.877 4.513 14.504 4.513h.138c7.441 0 14.331-2.768 20.67-8.303 2.596-2.25 4.732-4.524 6.408-6.821 2.687-3.698 4.031-7.063 4.031-10.094 0-1.172-.218-2.205-.655-3.101-.78-1.677-2.032-2.515-3.755-2.515-1.47 0-2.744.517-3.824 1.55-1.17 1.126-1.757 2.412-1.757 3.859 0 .23.012.46.035.69.091.573.436 1.297 1.033 2.17a5.936 5.936 0 0 1 1.068 3.444 8.26 8.26 0 0 1-.275 2.067c-.528 1.907-1.505 3.653-2.929 5.237-1.217 1.332-3.008 2.412-5.374 3.238-2.71.965-5.41 1.447-8.096 1.447-1.401 0-2.768-.114-4.1-.344-4.938-.804-8.991-2.87-12.16-6.201-3.24-3.422-4.858-7.487-4.858-12.196 0-.62.022-1.217.068-1.791.368-3.606 1.665-6.66 3.893-9.164 1.01-1.148 2.366-2.205 4.066-3.17 2.962-1.722 6.327-2.951 10.094-3.686l.723-.138.758.07c2.389.275 4.594.413 6.615.413 1.194 0 2.343-.046 3.445-.138 5.374-.483 10.277-2.297 14.71-5.443 1.332-.942 2.492-1.872 3.48-2.79 1.883-1.77 2.825-3.125 2.825-4.066 0-.368-.207-.552-.62-.552-.552 0-1.137.184-1.757.552l-2.756 2.067c-3.078 2.136-7.327 3.204-12.747 3.204-2.527 0-7.867-.643-16.02-1.93-7.74-1.217-12.414-1.826-14.021-1.826-1.792 0-3.342.138-4.651.414-.552.115-1.103.264-1.654.448-2.963.964-5.662 2.64-8.096 5.03-.063.06-.116.117-.176.177-.038-1.352-.404-2.571-1.098-3.657-.414-.62-.873-1.09-1.379-1.412-.689-.46-1.768-.69-3.238-.69-1.149 0-1.826.012-2.033.035-1.171.046-2.32.218-3.445.517-3.192.873-5.902 2.549-8.13 5.03-.045.049-.086.097-.13.146-.78-.785-1.758-1.18-2.936-1.18-1.034 0-2.044.333-3.032 1-1.654 1.102-2.48 2.594-2.48 4.478 0 .459.057.861.172 1.206.092.344.436.941 1.033 1.79.85 1.195 1.275 2.745 1.275 4.652 0 .712-.069 1.435-.207 2.17-.344 1.723-.815 2.745-1.412 3.067-.276.16-.563.31-.861.447-1.907.827-4.031 1.24-6.374 1.24-1.263 0-2.469-.206-3.617-.62-.942-.321-1.93-.895-2.963-1.722-2.871-2.343-4.306-5.363-4.306-9.06 0-1.631.379-3.55 1.136-5.754 2.458-7.051 8.337-16.226 17.64-27.526 8.566-10.427 18.212-20.487 28.938-30.18 2.526-2.296 3.79-3.938 3.79-4.926-.023-.39-.241-.586-.655-.586z" transform="translate(1173.024 -40.748)"/><path d="M493.192 93.797q-.964 0-1.033-1.034 0-.93 4.788-7.303l8.475-10.956 2.756-3.307q1.103-.965 2.067-.965 1.447 0 1.999 1.275.172.413.172.896 0 1.343-2.17 3.755-6.133 7.131-12.093 13.298-4.237 4.34-4.96 4.34zM544.11 89.732q0-.93 2.206-4.513 3.273-5.306 5.856-6.856.827-.483 1.482-.483 1.481 0 2.067 1.275.206.448.206.93 0 1.413-1.722 3.032l-.586.551-3.273 2.79q-1.584 1.379-3.927 3.756-.655.655-1.24.655-.861 0-1.034-.862-.034-.138-.034-.275zM535.36 77.088q0-1.62 1.24-2.17.483-.207 1.068-.207 2.688.069 3.721 5.168.345 1.86.345 3.341 0 7.373-1.86 7.373-.828 0-1.138-1.171l-.826-4.686q-.62-2.721-1.86-5.305-.69-1.413-.69-2.343zM543.663 86.734q-.965-.137-1.103-1.309l.896-7.958q.861-6.063 2.894-7.131.551-.276 1.171-.276 1.103 0 1.86.93.62.758.62 1.998 0 2.068-3.34 9.027l-1.448 3.1q-.551 1.344-1.206 1.55-.172.07-.344.07zM646.189 71.163c-1.975 0-4.226.792-6.753 2.377-5.121 3.215-9.841 8.83-14.159 16.846l-1.206 2.309c-2.324 4.485-3.993 7.77-5.052 9.938-.197.094-.396.191-.597.294-3.17 1.584-6.26 3.697-9.268 6.338l-.62.517c.321-1.401.483-2.572.483-3.514 0-.413-.035-.827-.104-1.24-.321-1.975-1.183-3.365-2.584-4.169-.23-.114-.425-.218-.586-.31-.459-.183-1.274-.276-2.445-.276-1.149 0-1.826.012-2.033.035-1.171.046-2.32.218-3.445.517-3.193.873-5.903 2.549-8.13 5.03-1.24 1.378-1.86 2.411-1.86 3.1 0 .436.217.632.653.586a5.108 5.108 0 0 0 1.034-.207c.207-.092.643-.367 1.31-.826 1.01-.712 2.928-1.069 5.753-1.069h.413c1.057 0 1.94.31 2.653.93 1.033.896 1.55 2.228 1.55 3.997 0 .804-.195 1.94-.586 3.41a42.02 42.02 0 0 1-4.237 10.439c-.368.666-1.068 1.585-2.102 2.756-.873.988-1.309 1.803-1.309 2.446 0 .414.207.62.62.62.23 0 .586-.069 1.069-.206a51.764 51.764 0 0 1 13.849-1.895c1.998 0 4.524.15 7.579.448 4.708.46 7.774.689 9.198.689h1.068c2.596 0 5.088-.356 7.476-1.068 3.601-1.047 6.608-2.697 9.026-4.946-.703 1.313-1.676 2.743-2.928 4.291-.735.896-1.103 1.608-1.103 2.136 0 .367.196.551.586.551.39 0 .873-.137 1.447-.413 1.31-.666 2.55-1.573 3.721-2.722 1.562-1.539 3.364-4.042 5.408-7.51 1.999-3.445 3.434-5.753 4.307-6.925 1.103-1.47 2.297-2.71 3.583-3.72 2.365-1.815 4.708-2.722 7.028-2.722.505 0 1.022.046 1.55.138 2.366.39 4.283 1.458 5.753 3.204 1.562 1.86 2.343 3.984 2.343 6.373 0 1.608-.379 3.193-1.137 4.754-.597 1.654-2.354 2.446-5.27 2.377-.69 0-1.287-.057-1.792-.172-.69-.183-1.459-.597-2.309-1.24-.803-.643-1.676-.965-2.618-.965-1.492 0-2.779.563-3.858 1.689-1.126 1.125-1.688 2.365-1.688 3.72 0 .368.023.7.069 1 .413 2.09 2.274 3.134 5.58 3.134 2.481 0 5.019-.666 7.614-1.998 3.606-1.837 6.684-4.502 9.233-7.993 2.665-3.629 3.996-7.074 3.996-10.335 0-2.894-.93-5.363-2.79-7.407-2.09-2.297-4.777-3.445-8.062-3.445-3.17 0-6.89 1.436-11.162 4.307-1.975 1.309-3.571 2.491-4.789 3.548l-1.102.965-.034-.035c.298-1.424.448-2.55.448-3.376 0-1.447-.368-2.745-1.103-3.893-.413-.62-.873-1.09-1.378-1.412-.689-.46-1.769-.69-3.238-.69-1.149 0-1.826.012-2.033.035-1.171.046-2.32.218-3.445.517-3.193.873-5.903 2.549-8.13 5.03-.09.099-.169.193-.252.289a9.02 9.02 0 0 0-1.16-1.77c-1.976-2.32-4.766-3.48-8.372-3.48-.812 0-1.567.066-2.265.196a543.08 543.08 0 0 0 2.299-4.744c3.904-8.061 7.499-13.85 10.783-17.363.322-.345.62-.643.896-.896 1.539-1.424 3.147-2.136 4.823-2.136 1.562 0 2.882.506 3.962 1.516 1.424 1.286 2.136 2.952 2.136 4.996 0 .62-.08 1.24-.241 1.86-.115.46-.207.77-.276.93-.344.827-1.057 1.24-2.136 1.24-1.24 0-2.216-.39-2.928-1.171-.643-.712-.965-1.447-.965-2.205 0-.276.115-.574.345-.896.413-.55.62-.999.62-1.343 0-.368-.196-.552-.586-.552-.62 0-1.481.425-2.584 1.275-1.952 1.516-2.928 3.239-2.928 5.168 0 1.033.321 1.94.964 2.722.965 1.171 2.309 1.757 4.031 1.757.712 0 1.505-.127 2.377-.38 2.986-.941 5.467-2.905 7.442-5.89 1.332-1.999 1.998-4.043 1.998-6.133 0-1.837-.494-3.433-1.482-4.789-1.378-1.929-3.33-2.893-5.856-2.893zm-3.755 36.276h.413c1.034 0 1.895.287 2.584.861 1.08.896 1.62 2.229 1.62 3.997 0 .597-.093 1.332-.277 2.205-.384 1.909-.988 3.897-1.808 5.963-.018 0-.033-.003-.052-.003a2.95 2.95 0 0 0-1.48.413l-1.896 1.379c-2.366 1.607-5.891 2.41-10.577 2.41-1.286 0-2.227-.034-2.824-.103a43.487 43.487 0 0 0 2.48-2.549c3.744-4.249 5.615-8.142 5.615-11.679 0-.5-.035-.984-.101-1.455.163-.108.34-.227.55-.37 1.01-.713 2.928-1.068 5.753-1.068zm-23.427.62c2.527 0 4.65.678 6.373 2.033 1.999 1.585 2.998 3.663 2.998 6.236-.046 2.182-.712 4.1-1.998 5.753-.16.207-.471.402-.93.586-1.516.666-3.377.999-5.581.999l-5.823-.138c-2.687 0-5.214.172-7.58.517l-4.443.792c0-.046.23-.448.69-1.206 3.054-5.213 5.235-8.612 6.544-10.197.46-.551 1.057-1.149 1.792-1.792 2.78-2.388 5.432-3.582 7.958-3.582zM749.852 103.719q8.13 0 12.747-3.204l2.756-2.067q.93-.551 1.757-.551.62 0 .62.55 0 1.413-2.825 4.066-1.481 1.378-3.48 2.79-6.648 4.72-14.71 5.444-1.654.138-3.445.138-3.032 0-6.615-.414l-.758-.069-.723.138q-5.65 1.102-10.094 3.686-2.55 1.447-4.065 3.17-3.342 3.755-3.893 9.164-.07.861-.07 1.791 0 7.063 4.858 12.196 4.755 4.995 12.161 6.201 1.999.345 4.1.345 4.03 0 8.096-1.447 3.549-1.24 5.374-3.239 2.136-2.377 2.929-5.236.275-1.068.275-2.067 0-1.895-1.068-3.446-.895-1.309-1.033-2.17-.034-.344-.034-.689 0-2.17 1.757-3.858 1.619-1.55 3.824-1.55 2.583 0 3.755 2.514.654 1.344.654 3.1 0 4.548-4.03 10.095-2.515 3.445-6.408 6.821-9.509 8.303-20.67 8.303h-.139q-8.44 0-14.504-4.513-5.994-4.444-7.372-11.68-.345-1.86-.345-3.858 0-8.268 7.063-16.33 4.375-4.995 10.645-8.853l-3.893-.69q-7.131-1.17-9.99-1.17-4.066 0-5.926 1.205l-1.86 1.24q-.483.242-1 .448-.413.104-.689.104-.654 0-.654-.552 0-1.309 2.48-3.72 3.652-3.583 8.096-5.03.827-.276 1.654-.448 1.964-.413 4.65-.413 2.412 0 14.022 1.825 12.23 1.93 16.02 1.93zM816.86 45.29c-.942 0-2.263.723-3.963 2.17l-3.1 2.894c-4.066 4.02-7.752 8.51-11.06 13.47-2.043 3.055-3.811 6.006-5.304 8.854-4.295 8.223-9.015 20.82-14.16 37.793-3.123 10.336-5.466 16.296-7.028 17.88-1.217 1.24-1.826 2.262-1.826 3.066 0 .414.207.62.62.62.138 0 .334-.022.586-.068 8.085-1.378 16.422-2.067 25.012-2.067 3.261 0 7.223.137 11.885.413 7.58.46 12.85.689 15.813.689 2.274 0 4.295-.126 6.063-.379 1.103-.16 2.182-.39 3.239-.69 3.904-1.102 7.12-2.939 9.646-5.511 1.378-1.424 2.067-2.526 2.067-3.307a.767.767 0 0 0-.078-.36c.495.17 1.038.256 1.628.256a4.49 4.49 0 0 0 2.653-.827c1.287-.895 1.93-2.135 1.93-3.72 0-.896-.23-1.712-.69-2.447-.872-1.424-2.262-2.135-4.168-2.135h-.172c-.368 0-.839.126-1.413.378-1.792.827-2.687 2.229-2.687 4.204 0 1.056.287 1.975.861 2.756.4.533.867.947 1.4 1.243-.554.007-1.044.13-1.469.376l-1.722 1.343c-2.297 1.608-6.5 2.412-12.61 2.412h-.723c0-.046.207-.275.62-.689a33.015 33.015 0 0 0 2.825-3.273c2.687-3.606 4.031-6.993 4.031-10.163 0-2.687-.861-4.926-2.584-6.718-1.837-1.929-4.157-2.893-6.959-2.893-3.009 0-6.488 1.446-10.439 4.34-.872.643-2.549 2.033-5.03 4.169-.275-1.562-.78-2.951-1.515-4.169-1.768-2.894-4.467-4.34-8.096-4.34-.368 0-.735.022-1.102.068-.787.082-1.622.276-2.5.569 2.373-2.66 6.161-6.924 11.767-13.247 3.583-4.065 4.616-5.236 3.1-3.514 6.822-7.625 12.277-11.438 16.365-11.438.689 0 1.332.093 1.929.276.413.138.861.356 1.343.655 1.907 1.24 2.86 2.986 2.86 5.236 0 .827-.15 1.63-.448 2.412-.344 1.263-1.32 1.895-2.928 1.895-1.287 0-2.297-.448-3.032-1.344-.597-.712-.896-1.424-.896-2.136 0-.46.207-.953.62-1.481.483-.62.724-1.137.724-1.55 0-.345-.207-.517-.62-.517-.988.092-2.17.827-3.549 2.205-1.562 1.7-2.342 3.353-2.342 4.96 0 .896.24 1.711.723 2.446.942 1.447 2.423 2.17 4.444 2.17.919 0 1.837-.149 2.756-.447 2.595-.827 4.88-2.526 6.856-5.099 1.883-2.457 2.825-4.834 2.825-7.13 0-1.7-.471-3.194-1.413-4.48-1.378-1.906-3.341-2.859-5.89-2.859-.345 0-.62.011-.828.034-.206 0-.459.035-.757.103-5.558.827-12.38 5.605-20.464 14.332l-12.712 14.297c-4.02 4.548-6.087 6.914-6.202 7.097a5.55 5.55 0 0 0-.143.218c-1.555 1.057-3.206 2.337-4.956 3.847l-.585.483c1.493-5.214 2.905-9.888 4.237-14.022 4.778-14.722 9.865-26.09 15.262-34.106a62.536 62.536 0 0 1 6.408-8.062l3.927-3.961c1.195-1.218 1.792-2.206 1.792-2.963 0-.345-.218-.517-.655-.517zm-22.428 62.735c.23 0 .436.012.62.035 2.87.275 4.995 1.584 6.373 3.927.896 1.539 1.344 3.1 1.344 4.685-.023 1.93-.494 3.663-1.413 5.202-.367.643-.815 1.057-1.343 1.24-.62.23-2.63.426-6.03.586-2.962.138-5.615.333-7.958.586l-6.924.93.276-.482 3.824-7.028.86-1.447c3.377-5.49 6.834-8.234 10.37-8.234zm24.804.035c2.343 0 4.307.735 5.891 2.205 1.746 1.653 2.619 3.743 2.619 6.27-.092 2.342-.838 4.432-2.24 6.27-.137.16-.355.321-.654.482-1.194.643-2.756.964-4.686.964-.666 0-1.7-.045-3.1-.137-6.11-.39-10.186-.586-12.23-.586h-.517c1.4-1.516 2.917-3.571 4.548-6.167 1.791-2.848 2.963-4.627 3.514-5.34 1.814-2.273 3.847-3.582 6.098-3.927h.034zM792.985 158.806q-1.688 0-1.998-1.62-.07-.31-.07-.654 0-1.102.655-2.205.827-1.412 3.204-4.375l2.446-3.17q.965-1.274 1.206-1.446.379-.276.758-.276.758 0 .965.827.034.138.034.344 0 .586-2.515 6.443-1.481 3.376-2.136 4.444-1.102 1.688-2.55 1.688z" style="font-style:italic;font-weight:700;font-size:70.5556px;line-height:1.25;font-family:'Tengwar Annatar';-inkscape-font-specification:'Tengwar Annatar, Bold Italic';fill:none;fill-opacity:1;stroke:#000;stroke-width:.264583;stroke-opacity:1" transform="translate(1173.024 -40.748)"/></g></svg>