<?xml version="1.0" encoding="UTF-8" standalone="no"?>
<svg
   width="296.26001mm"
   height="16.938mm"
   viewBox="0 0 296.25998 16.93796"
   xml:space="preserve"
   version="1.1"
   id="svg3"
   sodipodi:docname="H_N_elvish_path_0~1_scale.svg"
   inkscape:version="1.4 (1:1.4+202410161351+e7c3feb100)"
   xmlns:inkscape="http://www.inkscape.org/namespaces/inkscape"
   xmlns:sodipodi="http://sodipodi.sourceforge.net/DTD/sodipodi-0.dtd"
   xmlns="http://www.w3.org/2000/svg"
   xmlns:svg="http://www.w3.org/2000/svg"><sodipodi:namedview
     id="namedview3"
     pagecolor="#ffffff"
     bordercolor="#999999"
     borderopacity="1"
     inkscape:showpageshadow="2"
     inkscape:pageopacity="0"
     inkscape:pagecheckerboard="0"
     inkscape:deskcolor="#d1d1d1"
     inkscape:zoom="1.3236268"
     inkscape:cx="583.62373"
     inkscape:cy="56.284748"
     inkscape:window-width="1920"
     inkscape:window-height="1011"
     inkscape:window-x="0"
     inkscape:window-y="0"
     inkscape:window-maximized="1"
     inkscape:current-layer="svg3"
     inkscape:document-units="mm" /><defs
     id="defs1"><path
       id="c"
       d="m 5102.864,458.321 h 1717.47 v 2384.194 h -1717.47 z" /><path
       id="b"
       d="m 4432.115,396.85 h 9956.31 v 1159.893 h -9956.31 z" /><path
       id="a"
       d="m 5102.864,458.321 h 819.794 v 161.505 h -819.794 z" /></defs><g
     style="fill:none;stroke:#000000;stroke-opacity:1"
     id="g3"
     transform="matrix(0.1,0,0,0.1,6.3765378e-4,-2.6234622e-4)"><path
       style="font-style:italic;font-weight:700;font-size:70.5556px;line-height:1.25;font-family:'Tengwar Annatar';-inkscape-font-specification:'Tengwar Annatar, Bold Italic';fill:none;fill-opacity:1;stroke:#000000;stroke-width:0.264583;stroke-opacity:1"
       d="m -1105.574,68.51 c -0.345,0 -0.62,0.011 -0.827,0.034 -0.207,0 -0.46,0.035 -0.758,0.103 -5.558,0.827 -12.38,5.605 -20.464,14.332 l -12.712,14.297 c -4.02,4.548 -6.087,6.914 -6.202,7.097 -0.06,0.087 -0.113,0.17 -0.163,0.25 -1.782,1.191 -3.21,2.303 -4.28,3.333 -0.598,0.551 -0.92,0.827 -0.965,0.827 v -0.035 c 0.16,-1.102 0.241,-1.929 0.241,-2.48 0,-0.46 -0.035,-0.907 -0.104,-1.344 -0.344,-1.906 -1.206,-3.26 -2.584,-4.065 a 12.21,12.21 0 0 1 -0.585,-0.31 c -0.46,-0.183 -1.275,-0.276 -2.446,-0.276 -1.148,0 -1.826,0.012 -2.033,0.035 -1.171,0.046 -2.32,0.218 -3.445,0.517 -3.192,0.873 -5.902,2.55 -8.13,5.03 -1.24,1.378 -1.86,2.411 -1.86,3.1 0,0.436 0.218,0.632 0.654,0.586 a 5.108,5.108 0 0 0 1.034,-0.207 c 0.206,-0.092 0.643,-0.368 1.309,-0.827 1.01,-0.712 2.928,-1.068 5.753,-1.068 h 0.414 c 1.033,0 1.894,0.287 2.583,0.861 1.08,0.896 1.62,2.229 1.62,3.997 0,0.597 -0.093,1.332 -0.276,2.205 -0.643,3.192 -1.895,6.603 -3.755,10.231 -0.712,1.401 -1.746,2.94 -3.1,4.617 -0.736,0.896 -1.103,1.608 -1.103,2.136 0,0.368 0.195,0.551 0.585,0.551 0.804,0 1.803,-0.436 2.997,-1.309 2.642,-1.998 5.237,-5.282 7.787,-9.853 2.227,-3.996 4.053,-6.867 5.477,-8.613 2.297,-2.825 4.685,-4.237 7.166,-4.237 1.286,0 2.664,0.436 4.134,1.309 3.009,1.745 4.513,4.525 4.513,8.337 0,2.205 -0.597,4.226 -1.791,6.064 a 0.534,0.534 0 0 1 -0.104,0.138 c -0.574,0.666 -1.745,0.998 -3.514,0.998 -0.689,0 -1.285,-0.057 -1.79,-0.172 -0.69,-0.16 -1.448,-0.574 -2.275,-1.24 -0.827,-0.643 -1.722,-0.965 -2.687,-0.965 -1.447,0 -2.698,0.529 -3.755,1.585 -1.148,1.149 -1.723,2.458 -1.723,3.928 v 0.344 c 0.184,2.457 2.044,3.686 5.581,3.686 0.528,0 1.068,-0.034 1.62,-0.103 4.386,-0.62 8.693,-3.33 12.919,-8.13 1.286,-1.448 2.733,-3.595 4.34,-6.443 1.631,-2.917 2.79,-4.823 3.48,-5.719 1.86,-2.388 4.054,-3.582 6.58,-3.582 a 7.52,7.52 0 0 1 3.342,0.792 c 0.505,0.252 1.01,0.574 1.516,0.965 2.457,1.975 3.686,4.593 3.686,7.854 0,1.149 -0.218,2.4 -0.655,3.756 -0.528,1.561 -0.999,2.468 -1.412,2.721 l -0.138,0.069 c -0.942,0.459 -2.044,0.689 -3.307,0.689 a 6.558,6.558 0 0 1 -1.723,-0.207 c -0.62,-0.16 -1.343,-0.574 -2.17,-1.24 -0.804,-0.643 -1.688,-0.965 -2.653,-0.965 -1.08,0 -2.124,0.356 -3.135,1.068 -1.585,1.08 -2.377,2.492 -2.377,4.238 0,0.574 0.08,1.09 0.241,1.55 0.551,1.792 2.354,2.687 5.409,2.687 1.791,0 3.755,-0.505 5.891,-1.516 3.445,-1.63 6.489,-4.053 9.13,-7.269 3.17,-3.858 4.754,-7.705 4.754,-11.541 0,-3.124 -0.93,-5.707 -2.79,-7.751 -1.907,-2.068 -4.296,-3.101 -7.167,-3.101 -1.814,0 -3.847,0.574 -6.097,1.723 -2.71,1.378 -5.892,3.766 -9.543,7.165 -0.322,-1.607 -0.873,-3.043 -1.654,-4.306 -1.86,-3.055 -4.593,-4.582 -8.2,-4.582 -1.083,0 -2.245,0.208 -3.486,0.625 a 6153.83,6153.83 0 0 0 11.755,-13.234 c 3.583,-4.065 4.617,-5.236 3.1,-3.514 6.822,-7.625 12.277,-11.438 16.365,-11.438 0.69,0 1.332,0.093 1.93,0.276 0.413,0.138 0.86,0.356 1.343,0.655 1.906,1.24 2.859,2.986 2.859,5.236 0,0.827 -0.149,1.63 -0.448,2.412 -0.344,1.263 -1.32,1.895 -2.928,1.895 -1.286,0 -2.297,-0.448 -3.032,-1.344 -0.597,-0.712 -0.895,-1.424 -0.895,-2.136 0,-0.46 0.206,-0.953 0.62,-1.481 0.482,-0.62 0.723,-1.137 0.723,-1.55 0,-0.345 -0.207,-0.517 -0.62,-0.517 -0.988,0.091 -2.17,0.827 -3.549,2.205 -1.561,1.7 -2.342,3.353 -2.342,4.96 0,0.896 0.241,1.711 0.723,2.446 0.942,1.447 2.423,2.17 4.445,2.17 0.918,0 1.837,-0.149 2.755,-0.447 2.596,-0.827 4.881,-2.526 6.856,-5.099 1.884,-2.457 2.825,-4.834 2.825,-7.13 0,-1.7 -0.47,-3.194 -1.412,-4.48 -1.378,-1.906 -3.342,-2.859 -5.891,-2.859 z m -39.55,90.296 q -1.688,0 -1.998,-1.62 -0.07,-0.31 -0.07,-0.654 0,-1.102 0.655,-2.205 0.827,-1.412 3.204,-4.375 l 2.446,-3.17 q 0.965,-1.274 1.206,-1.446 0.38,-0.276 0.758,-0.276 0.758,0 0.965,0.827 0.034,0.138 0.034,0.344 0,0.586 -2.515,6.443 -1.482,3.376 -2.136,4.444 -1.103,1.688 -2.55,1.688 z m 125.332,-58.739 c -2.02,0 -4.226,0.138 -6.614,0.413 -2.044,0.253 -4.03,0.69 -5.96,1.31 -3.796,1.232 -6.989,2.938 -9.58,5.116 0.022,-0.292 0.037,-0.576 0.037,-0.845 0,-1.033 -0.126,-1.906 -0.379,-2.618 -0.712,-2.113 -2.779,-3.17 -6.2,-3.17 -3.63,0 -7.626,1.528 -11.99,4.583 l -0.413,0.275 c -0.023,0 -0.103,-0.114 -0.241,-0.344 -0.551,-0.942 -1.125,-1.7 -1.723,-2.274 -1.102,-1.102 -2.515,-1.654 -4.237,-1.654 -0.804,0 -1.55,0.046 -2.24,0.138 a 14.26,14.26 0 0 0 -2.308,0.483 c -3.031,0.941 -5.673,2.698 -7.923,5.27 -1.149,1.333 -1.723,2.274 -1.723,2.825 0.023,0.276 0.241,0.46 0.655,0.552 0.23,0 0.436,-0.023 0.62,-0.07 0.367,-0.068 0.884,-0.344 1.55,-0.826 1.103,-0.804 2.687,-1.206 4.754,-1.206 2.55,0 4.57,1.987 6.063,5.96 0.414,1.08 1.08,3.422 1.999,7.028 l 0.895,3.583 c 1.172,4.203 2.79,7.338 4.858,9.405 l 0.483,0.517 -4.204,6.752 c -10.45,16.192 -24.425,32.247 -41.926,48.163 -2.596,2.366 -3.894,4.042 -3.894,5.03 0,0.367 0.219,0.551 0.655,0.551 0.85,0 2.17,-0.735 3.962,-2.205 0.78,-0.643 2.87,-2.56 6.27,-5.753 18.42,-17.318 33.096,-34.888 44.028,-52.71 l 3.652,-6.133 c 1.31,-2.32 2.458,-4.444 3.446,-6.373 2.076,-4.01 3.565,-7.433 4.468,-10.27 l 2.214,-1.685 c 2.917,-2.067 7.58,-3.192 13.988,-3.376 0.55,0 0.826,0.012 0.826,0.035 l -0.034,0.034 -0.93,0.861 c -5.696,5.145 -8.544,10.14 -8.544,14.987 0,2.64 0.816,4.857 2.446,6.649 1.838,1.975 4.203,2.962 7.097,2.962 4.34,0 9.451,-2.514 15.33,-7.544 l 0.07,0.138 c 0.207,1.378 0.85,2.71 1.93,3.996 1.906,2.274 4.386,3.41 7.44,3.41 0.736,0 1.47,-0.068 2.205,-0.206 2.665,-0.529 5.73,-2.148 9.199,-4.858 1.309,-1.033 1.987,-1.55 2.033,-1.55 l -0.93,2.618 c -1.172,3.239 -2.596,6.546 -4.273,9.922 -6.316,12.747 -15.595,25.7 -27.836,38.86 l -6.752,6.96 -11.472,10.955 c -4.065,3.744 -6.294,5.81 -6.684,6.201 -1.355,1.355 -2.033,2.435 -2.033,3.239 0,0.39 0.207,0.585 0.62,0.585 1.011,0 2.446,-0.838 4.307,-2.514 3.17,-2.756 7.04,-6.328 11.61,-10.715 l 9.13,-8.957 c 13.16,-13.39 23.437,-26.286 30.833,-38.689 2.274,-3.812 4.249,-7.44 5.926,-10.886 2.181,-4.455 4.249,-9.612 6.2,-15.469 1.448,-4.363 2.665,-7.521 3.653,-9.473 3.054,-0.575 5.627,-1.964 7.717,-4.17 1.17,-1.216 1.757,-2.158 1.757,-2.824 0,-0.436 -0.23,-0.655 -0.69,-0.655 -0.39,0 -0.86,0.161 -1.412,0.483 -1.24,0.689 -3.066,1.033 -5.478,1.033 -10.68,0.046 -20.808,-0.31 -30.386,-1.068 -6.844,-0.528 -12.15,-0.792 -15.916,-0.792 z m 0.38,6.511 c 0.298,0 0.688,0.012 1.17,0.035 l 15.4,1.136 -2.41,2.516 c -1.884,2.09 -3.4,4.478 -4.549,7.165 -0.804,1.93 -1.424,3.193 -1.86,3.79 -0.666,0.896 -1.573,1.665 -2.722,2.308 -1.676,0.896 -3.295,1.343 -4.857,1.343 -1.975,0 -3.721,-0.596 -5.237,-1.79 -2.09,-1.654 -3.135,-3.928 -3.135,-6.822 a 7.8,7.8 0 0 1 0.07,-1.034 c 0.298,-2.618 1.561,-4.846 3.79,-6.683 1.584,-1.31 3.031,-1.964 4.34,-1.964 z m -35.554,0.861 c 3.468,0 5.202,1.54 5.202,4.617 0,1.929 -0.666,4.524 -1.998,7.786 l -0.413,0.965 c -1.217,2.733 -1.884,4.1 -1.998,4.1 0,-0.047 -0.104,-0.23 -0.31,-0.552 -0.92,-1.516 -1.758,-3.606 -2.515,-6.27 l -1.792,-7.132 -0.758,-2.48 c 0,-0.069 0.126,-0.15 0.38,-0.241 a 11.299,11.299 0 0 1 4.202,-0.793 z m 59.738,0.655 14.539,0.276 h 0.275 c -0.436,0.666 -1.493,2.607 -3.17,5.822 -2.342,4.525 -4.076,7.257 -5.202,8.199 l -0.688,0.551 c -1.7,1.287 -3.4,1.93 -5.1,1.93 -1.148,0 -2.4,-0.333 -3.754,-1 -3.055,-1.492 -4.582,-4.03 -4.582,-7.613 0,-0.46 0.069,-1.034 0.206,-1.723 0.506,-2.572 1.355,-4.271 2.55,-5.098 1.332,-0.896 2.974,-1.344 4.926,-1.344 z m -3.238,-20.223 q -0.724,0 -0.93,-0.827 -0.035,-0.137 -0.035,-0.31 0,-0.55 2.102,-5.994 1.584,-4.203 2.377,-5.374 0.93,-1.482 2.342,-1.482 1.344,0 1.93,1.206 0.24,0.482 0.206,1.102 -0.034,1.585 -1.86,4.135 l -3.927,5.408 -0.62,0.93 q -0.758,1.137 -1.585,1.206 z m 14.71,4.41 q 6.305,0 9.991,-2.687 l 1.998,-1.516 q 0.655,-0.413 1.275,-0.413 0.62,0 0.62,0.585 0,1.378 -2.997,3.721 -6.27,4.926 -14.297,5.099 h -0.655 q -4.34,0 -12.609,-1.55 -8.061,-1.516 -11.679,-1.689 -0.861,-0.034 -1.653,-0.034 -6.27,0 -9.957,2.653 l -2.067,1.55 q -0.723,0.448 -1.378,0.448 -0.654,0 -0.654,-0.586 0,-1.137 2.273,-3.17 3.928,-3.513 9.715,-4.926 2.929,-0.723 5.926,-0.723 4.72,0 12.3,1.481 7.44,1.447 11.092,1.688 1.378,0.069 2.756,0.069 z m 107.177,-21.118 c -1.975,0 -4.226,0.792 -6.752,2.377 -5.122,3.215 -9.842,8.83 -14.16,16.846 l -1.205,2.309 c -3.052,5.891 -4.994,9.746 -5.865,11.639 a 17.722,17.722 0 0 0 -2.047,2.104 c -0.354,-0.668 -0.782,-1.3 -1.286,-1.892 -2.113,-2.504 -5.019,-3.732 -8.717,-3.687 -3.606,0.046 -7.924,1.976 -12.953,5.788 l -3.928,3.17 c 0.39,-1.333 0.586,-2.516 0.586,-3.55 0,-0.114 -0.012,-0.24 -0.034,-0.378 -0.092,-2.25 -0.907,-3.881 -2.446,-4.892 a 4.568,4.568 0 0 0 -1.379,-0.62 c -0.298,-0.07 -0.93,-0.104 -1.894,-0.104 h -1.723 a 16.967,16.967 0 0 0 -3.548,0.517 c -3.262,0.85 -6.018,2.504 -8.269,4.961 -1.286,1.401 -1.929,2.47 -1.929,3.204 0,0.436 0.219,0.632 0.655,0.586 0.413,-0.046 0.78,-0.126 1.102,-0.241 0.23,-0.07 0.666,-0.333 1.31,-0.792 1.033,-0.712 2.928,-1.069 5.684,-1.069 h 0.413 c 1.08,0 1.964,0.299 2.653,0.896 1.034,0.896 1.55,2.194 1.55,3.893 0,1.401 -0.55,3.606 -1.653,6.615 a 93.112,93.112 0 0 1 -5.203,11.782 l -3.031,5.685 c -15.25,28.226 -32.35,51.021 -51.298,68.384 l -1.55,1.482 c -1.355,1.424 -2.033,2.526 -2.033,3.307 0,0.345 0.207,0.517 0.62,0.517 0.712,0 1.746,-0.506 3.1,-1.516 1.287,-0.965 3.71,-3.17 7.27,-6.615 l 2.274,-2.239 c 17.892,-17.868 34.152,-40.284 48.783,-67.248 2.411,-4.456 4.134,-7.797 5.167,-10.025 l 1.757,-3.583 c 1.677,-2.986 3.468,-5.305 5.375,-6.96 0.528,-0.458 1.067,-0.884 1.619,-1.274 2.388,-1.677 4.65,-2.515 6.787,-2.515 1.4,0 2.905,0.413 4.513,1.24 3.399,1.7 5.099,4.536 5.099,8.51 0,0.872 -0.138,1.803 -0.414,2.79 -0.436,1.677 -0.942,2.757 -1.516,3.239 a 9.959,9.959 0 0 1 -4.513,1.067 c -0.689,0 -1.286,-0.057 -1.792,-0.172 -0.689,-0.183 -1.446,-0.597 -2.273,-1.24 -0.827,-0.643 -1.723,-0.965 -2.687,-0.965 -0.988,0 -1.976,0.322 -2.963,0.965 -1.677,1.103 -2.515,2.596 -2.515,4.479 0,2.733 1.849,4.1 5.547,4.1 0.987,0 1.94,-0.092 2.859,-0.276 1.47,-0.276 2.986,-0.816 4.548,-1.62 3.468,-1.768 6.51,-4.317 9.13,-7.648 2.939,-3.743 4.409,-7.303 4.409,-10.68 0,-1 -0.107,-1.946 -0.317,-2.84 0.196,-0.128 0.422,-0.277 0.696,-0.466 1.01,-0.712 2.928,-1.069 5.753,-1.069 h 0.414 c 1.033,0 1.894,0.288 2.583,0.862 1.08,0.896 1.62,2.228 1.62,3.996 0,0.597 -0.092,1.332 -0.276,2.205 -0.643,3.193 -1.895,6.603 -3.755,10.232 -0.712,1.401 -1.746,2.94 -3.1,4.616 -0.736,0.896 -1.103,1.608 -1.103,2.136 0,0.368 0.195,0.551 0.585,0.551 0.781,0 1.86,-0.516 3.239,-1.55 a 18.113,18.113 0 0 0 1.929,-1.688 c 3.1,-3.1 5.742,-7.476 7.924,-13.126 1.584,-4.042 2.377,-7.177 2.377,-9.405 0,-1.447 -0.368,-2.744 -1.103,-3.893 -0.413,-0.62 -0.873,-1.09 -1.378,-1.412 -0.689,-0.46 -1.768,-0.69 -3.238,-0.69 -1.148,0 -1.826,0.012 -2.033,0.035 -1.171,0.046 -2.32,0.218 -3.445,0.517 -0.473,0.13 -0.935,0.277 -1.387,0.442 0.553,-1.12 1.333,-2.726 2.386,-4.921 3.905,-8.061 7.5,-13.85 10.784,-17.363 0.321,-0.345 0.62,-0.643 0.895,-0.896 1.539,-1.424 3.147,-2.136 4.823,-2.136 1.562,0 2.883,0.506 3.962,1.516 1.424,1.286 2.136,2.952 2.136,4.996 0,0.62 -0.08,1.24 -0.24,1.86 -0.116,0.46 -0.208,0.77 -0.277,0.93 -0.344,0.827 -1.056,1.24 -2.136,1.24 -1.24,0 -2.216,-0.39 -2.928,-1.171 -0.643,-0.712 -0.964,-1.447 -0.964,-2.205 0,-0.276 0.114,-0.574 0.344,-0.896 0.413,-0.55 0.62,-0.999 0.62,-1.343 0,-0.368 -0.195,-0.552 -0.586,-0.552 -0.62,0 -1.48,0.425 -2.583,1.275 -1.953,1.516 -2.929,3.239 -2.929,5.168 0,1.033 0.322,1.94 0.965,2.722 0.965,1.171 2.308,1.757 4.03,1.757 0.713,0 1.505,-0.127 2.378,-0.38 2.986,-0.941 5.466,-2.905 7.441,-5.89 1.332,-1.999 1.999,-4.043 1.999,-6.133 0,-1.837 -0.494,-3.433 -1.482,-4.789 -1.378,-1.929 -3.33,-2.893 -5.857,-2.893 z M -785.56,40.88 c -0.344,0 -0.792,0.15 -1.343,0.448 -2.205,1.149 -5.489,4.146 -9.852,8.992 -3.354,3.698 -6.34,7.522 -8.958,11.472 -8.085,12.242 -14.814,29.065 -20.188,50.47 l -0.551,2.205 c -0.827,2.894 -2.527,5.283 -5.1,7.166 -0.642,0.46 -1.182,0.839 -1.618,1.137 -2.16,1.401 -4.17,2.101 -6.03,2.101 -2.457,0 -4.604,-0.792 -6.441,-2.377 -2.182,-1.906 -3.274,-4.363 -3.274,-7.372 0,-0.941 0.173,-1.964 0.517,-3.066 0.46,-1.608 0.942,-2.584 1.447,-2.928 0.092,-0.07 0.218,-0.138 0.379,-0.207 1.24,-0.597 2.618,-0.896 4.134,-0.896 0.597,0 1.126,0.058 1.585,0.173 0.758,0.16 1.596,0.585 2.515,1.274 0.827,0.62 1.654,0.93 2.48,0.93 0.69,0 1.459,-0.183 2.308,-0.55 2.205,-0.965 3.308,-2.62 3.308,-4.962 0,-0.184 -0.012,-0.367 -0.034,-0.551 -0.276,-2.32 -2.136,-3.48 -5.582,-3.48 -4.271,0 -8.635,1.987 -13.09,5.96 -5.191,4.663 -7.787,9.474 -7.787,14.435 0,2.71 0.85,5.065 2.55,7.063 2.09,2.48 4.88,3.72 8.371,3.72 1.401,0 2.94,-0.298 4.617,-0.895 3.95,-1.378 8.188,-4.077 12.712,-8.096 0.023,-0.023 0.046,-0.035 0.069,-0.035 -1.171,5.26 -1.757,8.108 -1.757,8.544 0,0.322 0.184,0.482 0.551,0.482 0.827,0 1.952,-0.505 3.376,-1.515 2.274,-1.654 3.63,-3.538 4.066,-5.65 a 403.33,403.33 0 0 1 3.5,-15.722 c 0.237,-0.143 0.556,-0.352 0.978,-0.642 1.01,-0.712 2.929,-1.069 5.754,-1.069 h 0.413 c 1.057,0 1.94,0.31 2.653,0.93 1.033,0.896 1.55,2.228 1.55,3.997 0,0.804 -0.195,1.94 -0.586,3.41 a 42.02,42.02 0 0 1 -4.237,10.439 c -0.368,0.666 -1.068,1.585 -2.102,2.756 -0.873,0.988 -1.309,1.803 -1.309,2.446 0,0.414 0.207,0.62 0.62,0.62 0.23,0 0.586,-0.068 1.068,-0.206 a 51.764,51.764 0 0 1 13.85,-1.895 c 1.997,0 4.524,0.15 7.579,0.448 4.708,0.46 7.774,0.689 9.198,0.689 h 1.068 c 2.596,0 5.087,-0.356 7.476,-1.068 3.95,-1.148 7.189,-3.02 9.715,-5.616 1.378,-1.424 2.067,-2.514 2.067,-3.272 0,-0.437 -0.23,-0.655 -0.689,-0.655 -0.505,0 -1,0.138 -1.481,0.413 l -1.895,1.379 c -2.366,1.607 -5.891,2.41 -10.577,2.41 -1.286,0 -2.228,-0.034 -2.825,-0.103 a 43.494,43.494 0 0 0 2.48,-2.549 c 3.744,-4.249 5.616,-8.142 5.616,-11.679 0,-2.296 -0.7,-4.283 -2.101,-5.96 -1.975,-2.32 -4.766,-3.48 -8.372,-3.48 -0.812,0 -1.566,0.067 -2.264,0.197 0.549,-1.113 1.31,-2.683 2.299,-4.744 3.904,-8.061 7.499,-13.85 10.783,-17.363 0.322,-0.345 0.62,-0.643 0.896,-0.896 1.539,-1.424 3.146,-2.136 4.823,-2.136 1.561,0 2.882,0.506 3.962,1.516 1.424,1.286 2.135,2.952 2.135,4.996 0,0.62 -0.08,1.24 -0.24,1.86 -0.115,0.46 -0.207,0.77 -0.276,0.93 -0.345,0.827 -1.057,1.24 -2.136,1.24 -1.24,0 -2.217,-0.39 -2.929,-1.171 -0.643,-0.712 -0.964,-1.447 -0.964,-2.205 0,-0.276 0.115,-0.574 0.344,-0.896 0.414,-0.55 0.62,-0.999 0.62,-1.343 0,-0.368 -0.195,-0.552 -0.585,-0.552 -0.62,0 -1.481,0.425 -2.584,1.275 -1.952,1.516 -2.928,3.239 -2.928,5.168 0,1.033 0.321,1.94 0.964,2.722 0.965,1.171 2.309,1.757 4.031,1.757 0.712,0 1.505,-0.127 2.377,-0.38 2.986,-0.941 5.467,-2.905 7.442,-5.89 1.332,-1.999 1.998,-4.043 1.998,-6.133 0,-1.837 -0.494,-3.433 -1.482,-4.789 -1.378,-1.929 -3.33,-2.893 -5.856,-2.893 -1.975,0 -4.226,0.792 -6.753,2.377 -5.121,3.215 -9.841,8.83 -14.159,16.846 l -1.206,2.309 c -2.324,4.485 -3.993,7.77 -5.052,9.938 -0.197,0.094 -0.396,0.192 -0.598,0.294 -3.17,1.584 -6.258,3.697 -9.267,6.338 l -0.62,0.517 c 0.321,-1.401 0.482,-2.572 0.482,-3.514 0,-0.413 -0.034,-0.827 -0.103,-1.24 -0.322,-1.975 -1.183,-3.365 -2.584,-4.169 a 12.17,12.17 0 0 1 -0.586,-0.31 c -0.459,-0.183 -1.274,-0.276 -2.445,-0.276 -1.149,0 -1.827,0.012 -2.033,0.035 -1.172,0.046 -2.32,0.218 -3.445,0.517 -2.587,0.707 -4.857,1.942 -6.81,3.705 2.788,-10.728 5.804,-19.992 9.049,-27.786 4.685,-11.3 10.358,-20.487 17.019,-27.561 l 3.652,-3.617 c 1.929,-1.93 2.893,-3.285 2.893,-4.066 0,-0.413 -0.218,-0.62 -0.654,-0.62 z m -3.96,67.18 c 2.526,0 4.65,0.677 6.372,2.032 1.999,1.585 2.998,3.663 2.998,6.236 -0.046,2.182 -0.712,4.1 -1.999,5.753 -0.16,0.207 -0.47,0.402 -0.93,0.586 -1.516,0.666 -3.376,0.999 -5.58,0.999 l -5.823,-0.138 c -2.687,0 -5.213,0.172 -7.58,0.517 l -4.443,0.792 c 0,-0.046 0.23,-0.448 0.689,-1.206 3.054,-5.213 5.236,-8.612 6.545,-10.197 0.46,-0.551 1.057,-1.149 1.792,-1.792 2.78,-2.388 5.432,-3.582 7.958,-3.582 z m 96.427,-36.897 c -1.975,0 -4.226,0.792 -6.752,2.377 -5.122,3.215 -9.842,8.83 -14.16,16.846 l -1.205,2.309 c -2.324,4.485 -3.993,7.77 -5.053,9.938 a 29,29 0 0 0 -0.597,0.294 c -3.17,1.584 -6.259,3.697 -9.268,6.338 l -0.62,0.517 c 0.322,-1.401 0.483,-2.572 0.483,-3.514 0,-0.413 -0.035,-0.827 -0.104,-1.24 -0.321,-1.975 -1.183,-3.365 -2.584,-4.169 a 12.17,12.17 0 0 1 -0.585,-0.31 c -0.46,-0.183 -1.275,-0.276 -2.446,-0.276 -1.148,0 -1.826,0.012 -2.033,0.035 -1.171,0.046 -2.32,0.218 -3.445,0.517 -3.192,0.873 -5.903,2.549 -8.13,5.03 -1.24,1.378 -1.86,2.411 -1.86,3.1 0,0.436 0.218,0.632 0.654,0.586 a 5.108,5.108 0 0 0 1.033,-0.207 c 0.207,-0.092 0.643,-0.367 1.31,-0.826 1.01,-0.712 2.928,-1.069 5.753,-1.069 h 0.413 c 1.057,0 1.941,0.31 2.653,0.93 1.034,0.896 1.55,2.228 1.55,3.997 0,0.804 -0.195,1.94 -0.585,3.41 a 42.02,42.02 0 0 1 -4.238,10.439 c -0.367,0.666 -1.068,1.585 -2.101,2.756 -0.873,0.988 -1.31,1.803 -1.31,2.446 0,0.414 0.207,0.62 0.62,0.62 0.23,0 0.586,-0.069 1.068,-0.206 a 51.764,51.764 0 0 1 13.85,-1.895 c 1.998,0 4.524,0.15 7.58,0.448 4.707,0.46 7.774,0.689 9.198,0.689 h 1.068 c 2.595,0 5.087,-0.356 7.475,-1.068 3.601,-1.047 6.609,-2.697 9.027,-4.946 -0.703,1.313 -1.678,2.743 -2.929,4.291 -0.735,0.896 -1.102,1.608 -1.102,2.136 0,0.367 0.195,0.551 0.585,0.551 0.39,0 0.873,-0.137 1.447,-0.413 1.31,-0.666 2.55,-1.573 3.72,-2.722 1.563,-1.539 3.366,-4.042 5.41,-7.51 1.998,-3.445 3.433,-5.753 4.306,-6.925 1.102,-1.47 2.297,-2.71 3.583,-3.72 2.366,-1.815 4.709,-2.722 7.028,-2.722 0.506,0 1.022,0.046 1.55,0.138 2.366,0.39 4.284,1.458 5.754,3.204 1.561,1.86 2.343,3.984 2.343,6.373 0,1.608 -0.38,3.193 -1.137,4.754 -0.597,1.654 -2.354,2.446 -5.271,2.377 -0.69,0 -1.286,-0.057 -1.792,-0.172 -0.689,-0.183 -1.458,-0.597 -2.308,-1.24 -0.804,-0.643 -1.676,-0.965 -2.618,-0.965 -1.493,0 -2.78,0.563 -3.859,1.689 -1.125,1.125 -1.688,2.365 -1.688,3.72 0,0.368 0.023,0.7 0.069,1 0.413,2.09 2.273,3.134 5.58,3.134 2.481,0 5.02,-0.666 7.615,-1.998 3.606,-1.837 6.683,-4.502 9.233,-7.993 2.664,-3.629 3.996,-7.074 3.996,-10.335 0,-2.894 -0.93,-5.363 -2.79,-7.407 -2.09,-2.297 -4.778,-3.445 -8.062,-3.445 -3.17,0 -6.89,1.436 -11.162,4.307 -1.975,1.309 -3.572,2.491 -4.79,3.548 l -1.101,0.965 -0.035,-0.035 c 0.299,-1.424 0.448,-2.55 0.448,-3.376 0,-1.447 -0.368,-2.745 -1.103,-3.893 -0.413,-0.62 -0.872,-1.09 -1.377,-1.412 -0.69,-0.46 -1.77,-0.69 -3.239,-0.69 -1.148,0 -1.826,0.012 -2.032,0.035 -1.172,0.046 -2.32,0.218 -3.446,0.517 -3.192,0.873 -5.902,2.549 -8.13,5.03 -0.09,0.1 -0.169,0.193 -0.252,0.289 a 9.022,9.022 0 0 0 -1.16,-1.77 c -1.976,-2.32 -4.766,-3.48 -8.372,-3.48 -0.812,0 -1.566,0.066 -2.264,0.196 0.548,-1.113 1.31,-2.683 2.298,-4.744 3.905,-8.061 7.5,-13.85 10.784,-17.363 0.321,-0.345 0.62,-0.643 0.895,-0.896 1.539,-1.424 3.146,-2.136 4.823,-2.136 1.562,0 2.883,0.506 3.962,1.516 1.424,1.286 2.136,2.952 2.136,4.996 0,0.62 -0.08,1.24 -0.24,1.86 -0.116,0.46 -0.208,0.77 -0.277,0.93 -0.344,0.827 -1.056,1.24 -2.136,1.24 -1.24,0 -2.216,-0.39 -2.928,-1.171 -0.643,-0.712 -0.964,-1.447 -0.964,-2.205 0,-0.276 0.114,-0.574 0.344,-0.896 0.413,-0.55 0.62,-0.999 0.62,-1.343 0,-0.368 -0.195,-0.552 -0.586,-0.552 -0.62,0 -1.481,0.425 -2.583,1.275 -1.953,1.516 -2.929,3.239 -2.929,5.168 0,1.033 0.322,1.94 0.965,2.722 0.964,1.171 2.308,1.757 4.03,1.757 0.713,0 1.505,-0.127 2.378,-0.38 2.985,-0.941 5.466,-2.905 7.441,-5.89 1.332,-1.999 1.998,-4.043 1.998,-6.133 0,-1.837 -0.494,-3.433 -1.481,-4.789 -1.378,-1.929 -3.33,-2.893 -5.857,-2.893 z m -3.755,36.276 h 0.414 c 1.033,0 1.894,0.287 2.583,0.861 1.08,0.896 1.62,2.229 1.62,3.997 0,0.597 -0.092,1.332 -0.276,2.205 -0.385,1.909 -0.989,3.897 -1.809,5.963 -0.017,0 -0.033,-0.003 -0.051,-0.003 -0.506,0 -1,0.138 -1.482,0.413 l -1.894,1.379 c -2.366,1.607 -5.892,2.41 -10.577,2.41 -1.286,0 -2.228,-0.034 -2.825,-0.103 a 43.494,43.494 0 0 0 2.48,-2.549 c 3.744,-4.249 5.616,-8.142 5.616,-11.679 0,-0.5 -0.035,-0.985 -0.102,-1.455 a 31,31 0 0 0 0.55,-0.37 c 1.01,-0.713 2.928,-1.068 5.753,-1.068 z m -23.426,0.62 c 2.526,0 4.65,0.678 6.373,2.033 1.998,1.585 2.997,3.663 2.997,6.236 -0.046,2.182 -0.712,4.1 -1.998,5.753 -0.161,0.207 -0.471,0.402 -0.93,0.586 -1.516,0.666 -3.377,0.999 -5.581,0.999 l -5.822,-0.138 c -2.687,0 -5.214,0.172 -7.58,0.517 l -4.444,0.792 c 0,-0.046 0.23,-0.448 0.689,-1.206 3.055,-5.213 5.237,-8.612 6.546,-10.197 0.46,-0.551 1.056,-1.149 1.791,-1.792 2.78,-2.388 5.432,-3.582 7.959,-3.582 z m 130.844,-4.34 q 8.13,0 12.747,-3.204 l 2.756,-2.067 q 0.93,-0.551 1.757,-0.551 0.62,0 0.62,0.55 0,1.413 -2.825,4.066 -1.481,1.378 -3.48,2.79 -6.648,4.72 -14.71,5.444 -1.653,0.138 -3.445,0.138 -3.032,0 -6.614,-0.414 l -0.758,-0.069 -0.724,0.138 q -5.65,1.102 -10.094,3.686 -2.55,1.447 -4.065,3.17 -3.342,3.755 -3.893,9.164 -0.069,0.861 -0.069,1.791 0,7.063 4.858,12.196 4.754,4.995 12.16,6.201 1.999,0.345 4.1,0.345 4.031,0 8.096,-1.447 3.549,-1.24 5.375,-3.239 2.136,-2.377 2.928,-5.236 0.276,-1.068 0.276,-2.067 0,-1.895 -1.068,-3.446 -0.896,-1.309 -1.034,-2.17 -0.034,-0.344 -0.034,-0.689 0,-2.17 1.757,-3.858 1.619,-1.55 3.824,-1.55 2.584,0 3.755,2.514 0.655,1.344 0.655,3.1 0,4.548 -4.031,10.095 -2.515,3.445 -6.408,6.821 -9.509,8.303 -20.67,8.303 h -0.138 q -8.441,0 -14.504,-4.513 -5.995,-4.444 -7.373,-11.68 -0.344,-1.86 -0.344,-3.858 0,-8.268 7.062,-16.33 4.375,-4.995 10.645,-8.853 l -3.893,-0.69 q -7.13,-1.17 -9.99,-1.17 -4.066,0 -5.926,1.205 l -1.86,1.24 q -0.483,0.242 -1,0.448 -0.413,0.104 -0.688,0.104 -0.655,0 -0.655,-0.552 0,-1.309 2.48,-3.72 3.652,-3.583 8.097,-5.03 0.826,-0.276 1.653,-0.448 1.964,-0.413 4.651,-0.413 2.412,0 14.022,1.825 12.23,1.93 16.02,1.93 z m 67.008,-58.429 c -0.942,0 -2.263,0.723 -3.962,2.17 l -3.101,2.894 c -4.065,4.02 -7.751,8.51 -11.059,13.47 -2.044,3.055 -3.813,6.006 -5.305,8.854 -4.295,8.223 -9.015,20.82 -14.16,37.793 -3.123,10.336 -5.466,16.296 -7.028,17.88 -1.217,1.24 -1.825,2.262 -1.825,3.066 0,0.414 0.206,0.62 0.62,0.62 0.137,0 0.333,-0.022 0.585,-0.068 8.085,-1.378 16.422,-2.067 25.012,-2.067 3.26,0 7.223,0.137 11.885,0.413 7.58,0.46 12.85,0.689 15.813,0.689 2.274,0 4.295,-0.126 6.064,-0.379 1.102,-0.16 2.181,-0.39 3.238,-0.69 3.904,-1.102 7.12,-2.939 9.646,-5.511 1.378,-1.424 2.067,-2.526 2.067,-3.307 a 0.766,0.766 0 0 0 -0.078,-0.36 c 0.495,0.17 1.038,0.256 1.629,0.256 0.987,0 1.871,-0.275 2.652,-0.827 1.286,-0.895 1.93,-2.135 1.93,-3.72 0,-0.896 -0.23,-1.712 -0.69,-2.447 -0.872,-1.424 -2.262,-2.135 -4.168,-2.135 h -0.172 c -0.368,0 -0.839,0.126 -1.413,0.378 -1.791,0.827 -2.687,2.229 -2.687,4.204 0,1.056 0.287,1.975 0.862,2.756 0.4,0.533 0.867,0.947 1.4,1.243 -0.555,0.007 -1.045,0.13 -1.47,0.376 l -1.722,1.343 c -2.297,1.608 -6.5,2.412 -12.61,2.412 h -0.723 c 0,-0.046 0.207,-0.275 0.62,-0.689 a 33.014,33.014 0 0 0 2.826,-3.273 c 2.687,-3.606 4.03,-6.993 4.03,-10.163 0,-2.687 -0.86,-4.926 -2.583,-6.718 -1.838,-1.929 -4.158,-2.893 -6.96,-2.893 -3.008,0 -6.488,1.446 -10.438,4.34 -0.873,0.643 -2.55,2.033 -5.03,4.169 -0.276,-1.562 -0.781,-2.951 -1.516,-4.169 -1.769,-2.894 -4.467,-4.34 -8.096,-4.34 -0.367,0 -0.735,0.022 -1.103,0.068 -0.786,0.082 -1.621,0.275 -2.5,0.569 a 6102.79,6102.79 0 0 0 11.768,-13.247 c 3.583,-4.065 4.617,-5.236 3.1,-3.514 6.822,-7.625 12.276,-11.438 16.365,-11.438 a 6.53,6.53 0 0 1 1.93,0.276 c 0.413,0.138 0.86,0.356 1.343,0.655 1.906,1.24 2.859,2.986 2.859,5.236 0,0.827 -0.15,1.63 -0.448,2.412 -0.345,1.263 -1.32,1.895 -2.928,1.895 -1.286,0 -2.297,-0.448 -3.032,-1.344 -0.597,-0.712 -0.895,-1.424 -0.895,-2.136 0,-0.46 0.206,-0.953 0.62,-1.481 0.482,-0.62 0.723,-1.137 0.723,-1.55 0,-0.345 -0.207,-0.517 -0.62,-0.517 -0.988,0.092 -2.17,0.827 -3.549,2.205 -1.561,1.7 -2.342,3.353 -2.342,4.96 0,0.896 0.241,1.711 0.723,2.446 0.942,1.447 2.423,2.17 4.445,2.17 0.918,0 1.837,-0.149 2.755,-0.447 2.596,-0.827 4.881,-2.526 6.856,-5.099 1.884,-2.457 2.825,-4.834 2.825,-7.13 0,-1.7 -0.47,-3.194 -1.412,-4.48 -1.378,-1.906 -3.342,-2.859 -5.891,-2.859 -0.345,0 -0.62,0.011 -0.827,0.034 -0.207,0 -0.46,0.035 -0.758,0.103 -5.558,0.827 -12.38,5.605 -20.464,14.332 l -12.713,14.297 c -4.019,4.548 -6.086,6.914 -6.2,7.097 a 5.492,5.492 0 0 0 -0.144,0.218 c -1.555,1.058 -3.205,2.337 -4.955,3.847 l -0.586,0.483 c 1.493,-5.214 2.905,-9.888 4.237,-14.022 4.777,-14.722 9.865,-26.09 15.262,-34.106 a 62.535,62.535 0 0 1 6.408,-8.062 l 3.928,-3.961 c 1.194,-1.218 1.79,-2.206 1.79,-2.963 0,-0.345 -0.217,-0.517 -0.653,-0.517 z m -22.428,62.735 c 0.23,0 0.436,0.012 0.62,0.035 2.871,0.275 4.995,1.584 6.373,3.927 0.896,1.539 1.344,3.1 1.344,4.685 -0.023,1.93 -0.494,3.663 -1.412,5.202 -0.368,0.643 -0.816,1.057 -1.344,1.24 -0.62,0.23 -2.63,0.426 -6.029,0.586 -2.963,0.138 -5.615,0.333 -7.958,0.586 l -6.925,0.93 0.276,-0.482 3.824,-7.028 0.861,-1.447 c 3.376,-5.49 6.833,-8.234 10.37,-8.234 z m 24.805,0.035 c 2.342,0 4.306,0.735 5.89,2.205 1.746,1.653 2.619,3.743 2.619,6.27 -0.092,2.342 -0.838,4.432 -2.24,6.27 -0.137,0.16 -0.356,0.321 -0.654,0.482 -1.194,0.643 -2.756,0.964 -4.685,0.964 -0.666,0 -1.7,-0.045 -3.1,-0.137 -6.11,-0.39 -10.187,-0.586 -12.23,-0.586 h -0.518 c 1.401,-1.516 2.917,-3.571 4.548,-6.167 1.791,-2.848 2.963,-4.627 3.514,-5.34 1.814,-2.273 3.847,-3.582 6.098,-3.927 h 0.034 z m -26.252,50.746 q -1.688,0 -1.998,-1.62 -0.07,-0.31 -0.07,-0.654 0,-1.102 0.655,-2.205 0.827,-1.412 3.204,-4.375 l 2.446,-3.17 q 0.965,-1.274 1.206,-1.446 0.38,-0.276 0.758,-0.276 0.758,0 0.965,0.827 0.034,0.138 0.034,0.344 0,0.586 -2.515,6.443 -1.481,3.376 -2.136,4.444 -1.102,1.688 -2.55,1.688 z M -373.146,68.51 c -0.345,0 -0.62,0.011 -0.828,0.034 -0.206,0 -0.459,0.035 -0.757,0.103 -5.558,0.827 -12.38,5.605 -20.464,14.332 l -12.712,14.297 c -4.02,4.548 -6.087,6.914 -6.202,7.097 -0.06,0.087 -0.113,0.17 -0.163,0.251 -1.782,1.19 -3.21,2.302 -4.28,3.332 -0.598,0.551 -0.92,0.827 -0.966,0.827 v -0.035 c 0.161,-1.102 0.242,-1.929 0.242,-2.48 0,-0.46 -0.035,-0.907 -0.104,-1.344 -0.344,-1.906 -1.205,-3.26 -2.583,-4.065 -0.23,-0.114 -0.426,-0.218 -0.586,-0.31 -0.46,-0.183 -1.275,-0.276 -2.446,-0.276 -1.149,0 -1.826,0.012 -2.033,0.035 -1.171,0.046 -2.32,0.218 -3.445,0.517 -3.192,0.873 -5.902,2.55 -8.13,5.03 -1.24,1.378 -1.86,2.411 -1.86,3.1 0,0.436 0.217,0.632 0.654,0.586 a 5.107,5.107 0 0 0 1.033,-0.207 c 0.207,-0.092 0.644,-0.368 1.31,-0.827 1.01,-0.712 2.928,-1.068 5.753,-1.068 h 0.413 c 1.034,0 1.895,0.287 2.584,0.861 1.08,0.896 1.62,2.229 1.62,3.997 0,0.597 -0.093,1.332 -0.276,2.205 -0.643,3.192 -1.895,6.603 -3.756,10.231 -0.712,1.401 -1.745,2.94 -3.1,4.617 -0.735,0.896 -1.103,1.608 -1.103,2.136 0,0.368 0.196,0.551 0.586,0.551 0.804,0 1.803,-0.436 2.997,-1.309 2.641,-1.998 5.237,-5.282 7.786,-9.853 2.228,-3.996 4.054,-6.867 5.478,-8.613 2.297,-2.825 4.685,-4.237 7.166,-4.237 1.286,0 2.664,0.436 4.134,1.309 3.009,1.745 4.513,4.525 4.513,8.337 0,2.205 -0.597,4.226 -1.792,6.064 a 0.542,0.542 0 0 1 -0.103,0.138 c -0.574,0.666 -1.746,0.998 -3.514,0.998 -0.689,0 -1.286,-0.057 -1.791,-0.172 -0.69,-0.16 -1.447,-0.574 -2.274,-1.24 -0.827,-0.643 -1.722,-0.965 -2.687,-0.965 -1.447,0 -2.699,0.529 -3.755,1.585 -1.149,1.149 -1.723,2.458 -1.723,3.928 v 0.344 c 0.184,2.457 2.044,3.686 5.581,3.686 0.529,0 1.068,-0.034 1.62,-0.103 4.386,-0.62 8.692,-3.33 12.918,-8.13 1.287,-1.448 2.734,-3.595 4.341,-6.443 1.63,-2.917 2.79,-4.823 3.48,-5.719 1.86,-2.388 4.054,-3.582 6.58,-3.582 1.148,0 2.262,0.264 3.342,0.792 0.505,0.252 1.01,0.574 1.516,0.965 2.457,1.975 3.686,4.593 3.686,7.854 0,1.149 -0.219,2.4 -0.655,3.756 -0.528,1.561 -0.999,2.468 -1.412,2.721 l -0.138,0.069 c -0.942,0.459 -2.044,0.689 -3.308,0.689 a 6.557,6.557 0 0 1 -1.722,-0.207 c -0.62,-0.16 -1.344,-0.574 -2.17,-1.24 -0.804,-0.643 -1.688,-0.965 -2.653,-0.965 -1.08,0 -2.125,0.356 -3.135,1.068 -1.585,1.08 -2.377,2.492 -2.377,4.238 0,0.574 0.08,1.09 0.241,1.55 0.551,1.792 2.354,2.687 5.409,2.687 1.791,0 3.755,-0.505 5.89,-1.516 3.446,-1.63 6.49,-4.053 9.13,-7.269 3.17,-3.858 4.755,-7.705 4.755,-11.541 0,-3.124 -0.93,-5.707 -2.79,-7.751 -1.907,-2.068 -4.296,-3.101 -7.167,-3.101 -1.814,0 -3.847,0.574 -6.098,1.723 -2.71,1.378 -5.89,3.766 -9.542,7.165 -0.322,-1.607 -0.873,-3.043 -1.654,-4.306 -1.86,-3.055 -4.594,-4.582 -8.2,-4.582 -1.083,0 -2.245,0.209 -3.487,0.625 2.375,-2.66 6.16,-6.921 11.756,-13.234 3.583,-4.065 4.616,-5.236 3.1,-3.514 6.822,-7.625 12.277,-11.438 16.365,-11.438 0.689,0 1.332,0.093 1.929,0.276 a 6.5,6.5 0 0 1 1.343,0.655 c 1.907,1.24 2.86,2.986 2.86,5.236 0,0.827 -0.15,1.63 -0.448,2.412 -0.344,1.263 -1.32,1.895 -2.928,1.895 -1.287,0 -2.297,-0.448 -3.032,-1.344 -0.597,-0.712 -0.896,-1.424 -0.896,-2.136 0,-0.46 0.207,-0.953 0.62,-1.481 0.483,-0.62 0.724,-1.137 0.724,-1.55 0,-0.345 -0.207,-0.517 -0.62,-0.517 -0.988,0.091 -2.17,0.827 -3.549,2.205 -1.562,1.7 -2.342,3.353 -2.342,4.96 0,0.896 0.24,1.711 0.723,2.446 0.942,1.447 2.423,2.17 4.444,2.17 0.919,0 1.838,-0.149 2.757,-0.447 2.595,-0.827 4.88,-2.526 6.855,-5.099 1.883,-2.457 2.825,-4.834 2.825,-7.13 0,-1.7 -0.47,-3.194 -1.412,-4.48 -1.378,-1.906 -3.342,-2.859 -5.891,-2.859 z m -39.55,90.296 q -1.688,0 -1.998,-1.62 -0.07,-0.31 -0.07,-0.654 0,-1.102 0.655,-2.205 0.827,-1.412 3.204,-4.375 l 2.446,-3.17 q 0.965,-1.274 1.206,-1.446 0.379,-0.276 0.758,-0.276 0.758,0 0.965,0.827 0.034,0.138 0.034,0.344 0,0.586 -2.515,6.443 -1.481,3.376 -2.136,4.444 -1.102,1.688 -2.55,1.688 z m 125.333,-58.739 c -2.021,0 -4.226,0.138 -6.615,0.413 -2.044,0.253 -4.031,0.69 -5.96,1.31 -3.796,1.232 -6.989,2.938 -9.581,5.116 0.023,-0.292 0.038,-0.576 0.038,-0.845 0,-1.033 -0.127,-1.906 -0.38,-2.618 -0.711,-2.113 -2.778,-3.17 -6.2,-3.17 -3.63,0 -7.626,1.528 -11.99,4.583 l -0.413,0.275 c -0.023,0 -0.103,-0.114 -0.24,-0.344 -0.552,-0.942 -1.126,-1.7 -1.723,-2.274 -1.103,-1.102 -2.515,-1.654 -4.238,-1.654 -0.804,0 -1.55,0.046 -2.239,0.138 -0.758,0.092 -1.528,0.253 -2.308,0.483 -3.032,0.941 -5.673,2.698 -7.924,5.27 -1.148,1.333 -1.722,2.274 -1.722,2.825 0.023,0.276 0.24,0.46 0.654,0.552 0.23,0 0.436,-0.023 0.62,-0.07 0.367,-0.068 0.884,-0.344 1.55,-0.826 1.103,-0.804 2.687,-1.206 4.755,-1.206 2.549,0 4.57,1.987 6.063,5.96 0.414,1.08 1.08,3.422 1.998,7.028 l 0.896,3.583 c 1.171,4.203 2.79,7.338 4.858,9.405 l 0.482,0.517 -4.203,6.752 c -10.45,16.192 -24.426,32.247 -41.927,48.163 -2.595,2.366 -3.893,4.042 -3.893,5.03 0,0.367 0.218,0.551 0.654,0.551 0.85,0 2.17,-0.735 3.962,-2.205 0.781,-0.643 2.871,-2.56 6.27,-5.753 18.42,-17.318 33.097,-34.888 44.03,-52.71 l 3.65,-6.133 c 1.31,-2.32 2.458,-4.444 3.446,-6.373 2.076,-4.01 3.565,-7.432 4.468,-10.269 l 2.215,-1.686 c 2.917,-2.067 7.58,-3.192 13.987,-3.376 0.552,0 0.827,0.012 0.827,0.035 l -0.034,0.034 -0.93,0.861 c -5.696,5.145 -8.544,10.14 -8.544,14.987 0,2.64 0.815,4.857 2.446,6.649 1.837,1.975 4.203,2.962 7.097,2.962 4.34,0 9.45,-2.514 15.33,-7.544 l 0.07,0.138 c 0.206,1.378 0.85,2.71 1.929,3.996 1.906,2.274 4.386,3.41 7.44,3.41 0.736,0 1.471,-0.068 2.206,-0.206 2.664,-0.529 5.73,-2.148 9.198,-4.858 1.31,-1.033 1.987,-1.55 2.033,-1.55 l -0.93,2.618 c -1.172,3.239 -2.596,6.546 -4.272,9.922 -6.316,12.747 -15.595,25.7 -27.836,38.86 l -6.753,6.96 -11.472,10.955 c -4.065,3.744 -6.293,5.81 -6.684,6.201 -1.355,1.355 -2.032,2.435 -2.032,3.239 0,0.39 0.206,0.585 0.62,0.585 1.01,0 2.446,-0.838 4.306,-2.514 3.17,-2.756 7.04,-6.328 11.61,-10.715 l 9.13,-8.957 c 13.16,-13.39 23.438,-26.286 30.833,-38.689 2.274,-3.812 4.249,-7.44 5.926,-10.886 2.182,-4.455 4.249,-9.612 6.2,-15.469 1.448,-4.363 2.665,-7.521 3.653,-9.473 3.054,-0.575 5.627,-1.964 7.717,-4.17 1.171,-1.216 1.757,-2.158 1.757,-2.824 0,-0.436 -0.23,-0.655 -0.69,-0.655 -0.39,0 -0.86,0.161 -1.412,0.483 -1.24,0.689 -3.066,1.033 -5.477,1.033 -10.68,0.046 -20.809,-0.31 -30.386,-1.068 -6.844,-0.528 -12.15,-0.792 -15.916,-0.792 z m 0.378,6.511 c 0.299,0 0.69,0.012 1.172,0.035 l 15.4,1.136 -2.412,2.516 c -1.884,2.09 -3.4,4.478 -4.548,7.165 -0.804,1.93 -1.424,3.193 -1.86,3.79 -0.666,0.896 -1.574,1.665 -2.722,2.308 -1.676,0.896 -3.296,1.343 -4.857,1.343 -1.976,0 -3.721,-0.596 -5.237,-1.79 -2.09,-1.654 -3.135,-3.928 -3.135,-6.822 0,-0.344 0.023,-0.689 0.07,-1.034 0.298,-2.618 1.56,-4.846 3.789,-6.683 1.584,-1.31 3.031,-1.964 4.34,-1.964 z m -35.553,0.861 c 3.468,0 5.202,1.54 5.202,4.617 0,1.929 -0.666,4.524 -1.998,7.786 l -0.413,0.965 c -1.218,2.733 -1.884,4.1 -1.999,4.1 0,-0.047 -0.103,-0.23 -0.31,-0.552 -0.918,-1.516 -1.756,-3.606 -2.514,-6.27 l -1.792,-7.132 -0.758,-2.48 c 0,-0.069 0.127,-0.15 0.38,-0.241 a 11.297,11.297 0 0 1 4.202,-0.793 z m 59.738,0.655 14.538,0.276 h 0.276 c -0.436,0.666 -1.493,2.607 -3.17,5.822 -2.342,4.525 -4.076,7.257 -5.201,8.199 l -0.69,0.551 c -1.7,1.287 -3.399,1.93 -5.098,1.93 -1.149,0 -2.4,-0.333 -3.756,-1 -3.054,-1.492 -4.582,-4.03 -4.582,-7.613 0,-0.46 0.07,-1.034 0.207,-1.723 0.505,-2.572 1.355,-4.271 2.55,-5.098 1.332,-0.896 2.974,-1.344 4.926,-1.344 z m -3.238,-20.223 q -0.724,0 -0.93,-0.827 -0.035,-0.137 -0.035,-0.31 0,-0.55 2.101,-5.994 1.585,-4.203 2.378,-5.374 0.93,-1.482 2.342,-1.482 1.344,0 1.93,1.206 0.24,0.482 0.206,1.102 -0.034,1.585 -1.86,4.135 l -3.928,5.408 -0.62,0.93 q -0.758,1.137 -1.584,1.206 z m 14.71,4.41 q 6.305,0 9.99,-2.687 l 2,-1.516 q 0.654,-0.413 1.274,-0.413 0.62,0 0.62,0.585 0,1.378 -2.997,3.721 -6.27,4.926 -14.297,5.099 h -0.655 q -4.34,0 -12.61,-1.55 -8.06,-1.516 -11.678,-1.689 -0.861,-0.034 -1.654,-0.034 -6.27,0 -9.956,2.653 l -2.067,1.55 q -0.724,0.448 -1.378,0.448 -0.655,0 -0.655,-0.586 0,-1.137 2.274,-3.17 3.928,-3.513 9.715,-4.926 2.929,-0.723 5.926,-0.723 4.72,0 12.299,1.481 7.441,1.447 11.093,1.688 1.378,0.069 2.756,0.069 z M -144.15,71.163 c -1.976,0 -4.227,0.792 -6.753,2.377 -5.122,3.215 -9.842,8.83 -14.16,16.846 l -1.205,2.309 c -3.053,5.891 -4.994,9.746 -5.866,11.639 a 17.72,17.72 0 0 0 -1.541,1.52 c -0.182,0.203 -0.35,0.397 -0.505,0.584 -0.354,-0.668 -0.782,-1.3 -1.287,-1.892 -2.113,-2.504 -5.018,-3.732 -8.716,-3.687 -3.606,0.046 -7.923,1.976 -12.953,5.788 l -3.928,3.17 c 0.39,-1.333 0.586,-2.516 0.586,-3.55 0,-0.114 -0.012,-0.24 -0.035,-0.378 -0.092,-2.25 -0.907,-3.881 -2.446,-4.892 a 4.569,4.569 0 0 0 -1.378,-0.62 c -0.298,-0.07 -0.93,-0.104 -1.894,-0.104 h -1.723 a 16.963,16.963 0 0 0 -3.548,0.517 c -3.262,0.85 -6.018,2.504 -8.269,4.961 -1.286,1.401 -1.93,2.47 -1.93,3.204 0,0.436 0.22,0.632 0.656,0.586 0.413,-0.046 0.78,-0.126 1.102,-0.241 0.23,-0.07 0.666,-0.333 1.31,-0.792 1.033,-0.712 2.928,-1.069 5.684,-1.069 h 0.413 c 1.08,0 1.964,0.299 2.653,0.896 1.033,0.896 1.55,2.194 1.55,3.893 0,1.401 -0.551,3.606 -1.654,6.615 a 93.11,93.11 0 0 1 -5.202,11.782 l -3.031,5.685 c -15.25,28.226 -32.35,51.021 -51.298,68.384 l -1.55,1.482 c -1.355,1.424 -2.033,2.526 -2.033,3.307 0,0.345 0.207,0.517 0.62,0.517 0.712,0 1.746,-0.506 3.101,-1.516 1.286,-0.965 3.709,-3.17 7.269,-6.615 l 2.274,-2.239 c 17.891,-17.868 34.152,-40.284 48.782,-67.248 2.412,-4.456 4.134,-7.797 5.168,-10.025 l 1.757,-3.583 c 1.676,-2.986 3.468,-5.305 5.374,-6.96 0.528,-0.458 1.069,-0.884 1.62,-1.274 2.388,-1.677 4.65,-2.515 6.786,-2.515 1.401,0 2.906,0.413 4.513,1.24 3.4,1.7 5.1,4.536 5.1,8.51 0,0.872 -0.139,1.803 -0.414,2.79 -0.437,1.677 -0.942,2.757 -1.516,3.239 a 9.96,9.96 0 0 1 -4.513,1.067 c -0.69,0 -1.286,-0.057 -1.791,-0.172 -0.69,-0.183 -1.447,-0.597 -2.274,-1.24 -0.827,-0.643 -1.723,-0.965 -2.687,-0.965 -0.988,0 -1.976,0.322 -2.963,0.965 -1.677,1.103 -2.515,2.596 -2.515,4.479 0,2.733 1.849,4.1 5.546,4.1 0.988,0 1.941,-0.092 2.86,-0.276 1.47,-0.276 2.985,-0.816 4.547,-1.62 3.468,-1.768 6.512,-4.317 9.13,-7.648 2.94,-3.743 4.41,-7.303 4.41,-10.68 0,-1 -0.107,-1.946 -0.317,-2.84 0.196,-0.128 0.422,-0.277 0.696,-0.466 1.01,-0.712 2.928,-1.069 5.753,-1.069 h 0.413 c 1.034,0 1.895,0.288 2.584,0.862 1.08,0.896 1.62,2.228 1.62,3.996 0,0.597 -0.093,1.332 -0.276,2.205 -0.643,3.193 -1.895,6.603 -3.756,10.232 -0.712,1.401 -1.745,2.94 -3.1,4.616 -0.735,0.896 -1.102,1.608 -1.102,2.136 0,0.368 0.195,0.551 0.585,0.551 0.78,0 1.86,-0.516 3.239,-1.55 a 18.114,18.114 0 0 0 1.929,-1.688 c 3.1,-3.1 5.742,-7.476 7.924,-13.126 1.584,-4.042 2.377,-7.177 2.377,-9.405 0,-1.447 -0.368,-2.744 -1.103,-3.893 -0.413,-0.62 -0.872,-1.09 -1.378,-1.412 -0.689,-0.46 -1.768,-0.69 -3.238,-0.69 -1.149,0 -1.826,0.012 -2.033,0.035 -1.171,0.046 -2.32,0.218 -3.445,0.517 -0.473,0.13 -0.935,0.277 -1.387,0.442 0.553,-1.12 1.333,-2.726 2.386,-4.921 3.904,-8.061 7.499,-13.85 10.783,-17.363 0.322,-0.345 0.62,-0.643 0.896,-0.896 1.539,-1.424 3.147,-2.136 4.823,-2.136 1.562,0 2.882,0.506 3.962,1.516 1.424,1.286 2.136,2.952 2.136,4.996 0,0.62 -0.08,1.24 -0.241,1.86 -0.115,0.46 -0.207,0.77 -0.276,0.93 -0.344,0.827 -1.056,1.24 -2.136,1.24 -1.24,0 -2.216,-0.39 -2.928,-1.171 -0.643,-0.712 -0.965,-1.447 -0.965,-2.205 0,-0.276 0.115,-0.574 0.345,-0.896 0.413,-0.55 0.62,-0.999 0.62,-1.343 0,-0.368 -0.195,-0.552 -0.586,-0.552 -0.62,0 -1.481,0.425 -2.584,1.275 -1.952,1.516 -2.928,3.239 -2.928,5.168 0,1.033 0.321,1.94 0.965,2.722 0.964,1.171 2.308,1.757 4.03,1.757 0.712,0 1.505,-0.127 2.377,-0.38 2.986,-0.941 5.467,-2.905 7.442,-5.89 1.332,-1.999 1.998,-4.043 1.998,-6.133 0,-1.837 -0.494,-3.433 -1.481,-4.789 -1.378,-1.929 -3.33,-2.893 -5.857,-2.893 z m 24.666,29.11 a 16.967,16.967 0 0 0 -3.548,0.517 c -3.262,0.85 -6.018,2.504 -8.269,4.961 -1.286,1.401 -1.929,2.47 -1.929,3.204 0,0.436 0.218,0.632 0.655,0.586 a 4.887,4.887 0 0 0 1.102,-0.241 c 0.23,-0.07 0.666,-0.333 1.31,-0.792 1.033,-0.712 2.928,-1.069 5.684,-1.069 h 0.413 c 1.057,0 1.93,0.288 2.619,0.862 1.08,0.896 1.619,2.205 1.619,3.927 0,0.781 -0.173,1.791 -0.517,3.032 -1.103,4.295 -3.63,10.174 -7.58,17.639 l -1.825,3.41 c -15.205,28.204 -32.304,51 -51.298,68.385 l -1.55,1.482 c -1.355,1.424 -2.033,2.526 -2.033,3.307 0,0.345 0.207,0.517 0.62,0.517 0.713,0 1.746,-0.506 3.101,-1.516 1.286,-0.965 3.709,-3.17 7.269,-6.615 l 1.206,-1.17 c 18.35,-18.122 34.968,-40.883 49.85,-68.283 l 0.552,-1.033 a 144.552,144.552 0 0 1 20.601,-1.481 c 1.953,0 5.248,0.114 9.888,0.344 10.358,0.528 16.215,0.793 17.57,0.793 1.447,0 2.71,-0.047 3.79,-0.138 a 29.631,29.631 0 0 0 5.201,-0.862 c 3.895,-1.043 7.079,-2.728 9.553,-5.052 a 92.563,92.563 0 0 1 -2.731,5.638 l -3.032,5.685 c -15.25,28.226 -32.35,51.021 -51.297,68.384 l -1.55,1.482 c -1.356,1.424 -2.034,2.526 -2.034,3.307 0,0.345 0.207,0.517 0.62,0.517 0.713,0 1.746,-0.506 3.101,-1.516 1.286,-0.965 3.71,-3.17 7.27,-6.615 l 2.515,-2.48 c 18.442,-18.489 35.128,-41.766 50.056,-69.832 1.54,-2.871 2.814,-5.386 3.825,-7.545 4.271,-9.325 8.67,-13.987 13.195,-13.987 a 7.44,7.44 0 0 1 1.584,0.173 c 1.424,0.275 2.745,0.987 3.962,2.135 2.067,1.953 3.1,4.387 3.1,7.304 0,2.411 -0.596,4.467 -1.79,6.167 a 1.167,1.167 0 0 1 -0.276,0.31 c -0.69,0.505 -1.735,0.757 -3.136,0.757 a 8.284,8.284 0 0 1 -1.757,-0.172 c -0.758,-0.16 -1.596,-0.585 -2.514,-1.274 -0.827,-0.62 -1.7,-0.93 -2.619,-0.93 -1.01,0 -2.01,0.321 -2.997,0.964 -1.677,1.103 -2.515,2.596 -2.515,4.479 0,2.733 1.872,4.1 5.616,4.1 0.39,0 0.7,-0.012 0.93,-0.035 2.94,-0.23 6.006,-1.596 9.198,-4.1 2.504,-1.952 4.582,-4.1 6.236,-6.442 0.482,-0.666 1.068,-1.63 1.757,-2.894 1.677,-2.963 2.79,-4.846 3.342,-5.65 2.25,-3.261 4.697,-4.892 7.338,-4.892 0.666,0 1.275,0.069 1.826,0.207 1.286,0.298 2.492,0.953 3.617,1.963 2.182,1.93 3.273,4.433 3.273,7.511 0,2.274 -0.609,4.306 -1.826,6.098 -0.092,0.138 -0.23,0.264 -0.413,0.379 -0.712,0.459 -1.723,0.688 -3.032,0.688 a 8.463,8.463 0 0 1 -1.791,-0.172 c -0.758,-0.16 -1.585,-0.585 -2.48,-1.274 -0.828,-0.62 -1.689,-0.93 -2.585,-0.93 -1.033,0 -2.044,0.333 -3.031,0.999 -1.631,1.102 -2.446,2.572 -2.446,4.41 0,2.755 1.86,4.133 5.58,4.133 1.976,0 4.112,-0.585 6.409,-1.757 3.445,-1.722 6.453,-4.237 9.025,-7.544 2.94,-3.744 4.41,-7.35 4.41,-10.818 0,-2.985 -0.792,-5.478 -2.377,-7.476 -1.906,-2.365 -4.513,-3.548 -7.82,-3.548 -3.905,0 -9.05,2.962 -15.434,8.888 -0.322,-1.63 -0.884,-3.089 -1.688,-4.375 -1.884,-3.009 -4.605,-4.513 -8.165,-4.513 -2.274,0 -4.847,0.86 -7.718,2.583 -1.883,1.126 -4.248,2.94 -7.096,5.444 0.23,-1.125 0.344,-2.01 0.344,-2.653 v -0.379 c -0.114,-2.25 -0.941,-3.881 -2.48,-4.892 a 4.569,4.569 0 0 0 -1.378,-0.62 c -0.299,-0.07 -0.93,-0.104 -1.895,-0.104 h -1.723 a 16.967,16.967 0 0 0 -3.548,0.517 c -3.262,0.85 -6.018,2.504 -8.268,4.961 -0.234,0.255 -0.44,0.495 -0.63,0.728 a 9.058,9.058 0 0 0 -1.747,-2.692 c -1.837,-1.952 -4.192,-2.927 -7.063,-2.927 -3.008,0 -6.465,1.435 -10.37,4.306 -0.895,0.666 -2.595,2.067 -5.098,4.203 -0.276,-1.54 -0.77,-2.917 -1.482,-4.135 -1.768,-2.916 -4.478,-4.374 -8.13,-4.374 -2.894,0 -6.316,1.423 -10.266,4.271 -1.401,1.01 -2.595,1.94 -3.583,2.79 -0.827,0.713 -1.252,1.069 -1.275,1.069 v -0.035 c 0.253,-0.78 0.379,-1.676 0.379,-2.687 0,-0.505 -0.035,-0.988 -0.104,-1.447 -0.482,-3.032 -2.365,-4.547 -5.65,-4.547 z m 63.562,7.166 h 0.413 c 1.08,0 1.964,0.299 2.653,0.896 1.034,0.896 1.55,2.194 1.55,3.893 0,1.401 -0.55,3.606 -1.653,6.615 -0.197,0.544 -0.4,1.085 -0.606,1.624 a 2.88,2.88 0 0 0 -1.392,0.374 l -1.757,1.31 c -2.343,1.63 -6.569,2.445 -12.678,2.445 -0.46,0 -0.689,-0.012 -0.689,-0.035 0,-0.023 0.207,-0.24 0.62,-0.654 4.57,-4.662 6.856,-9.14 6.856,-13.436 0,-0.437 -0.031,-0.859 -0.076,-1.272 0.249,-0.128 0.605,-0.356 1.074,-0.691 1.034,-0.712 2.929,-1.069 5.685,-1.069 z m -47.852,0.586 c 1.171,0 2.412,0.322 3.72,0.965 3.078,1.493 4.617,4.054 4.617,7.682 0,1.792 -0.425,3.434 -1.275,4.927 -0.344,0.597 -0.586,0.976 -0.723,1.137 -0.115,0.114 -0.448,0.24 -1,0.378 -1.125,0.276 -2.537,0.448 -4.237,0.517 -4.984,0.253 -10.347,0.804 -16.089,1.654 h -0.034 c 0,-0.023 0.126,-0.31 0.379,-0.861 l 0.93,-1.895 a 54.771,54.771 0 0 1 2.515,-5.064 c 3.606,-6.293 7.338,-9.44 11.197,-9.44 z m 24.805,0.035 c 2.159,0 4.019,0.642 5.58,1.929 1.953,1.63 2.929,3.8 2.929,6.51 -0.046,2.39 -0.78,4.48 -2.205,6.271 -0.551,0.643 -1.849,1.102 -3.893,1.378 -0.23,0 -0.666,0.023 -1.31,0.07 l -14.434,-0.69 c -0.551,0 -1.057,-0.023 -1.516,-0.069 1.493,-1.608 3.066,-3.744 4.72,-6.408 1.7,-2.733 2.825,-4.444 3.376,-5.133 1.723,-2.159 3.72,-3.433 5.995,-3.824 h 0.034 z m 61.908,-20.189 q -0.724,0 -0.93,-0.827 -0.035,-0.137 -0.035,-0.31 0,-0.55 2.102,-5.994 1.584,-4.203 2.377,-5.374 0.93,-1.482 2.342,-1.482 1.344,0 1.93,1.206 0.24,0.482 0.206,1.102 -0.034,1.585 -1.86,4.135 l -3.927,5.408 -0.62,0.93 q -0.758,1.137 -1.585,1.206 z m 14.711,4.41 q 6.304,0 9.99,-2.687 l 1.998,-1.516 q 0.655,-0.413 1.275,-0.413 0.62,0 0.62,0.585 0,1.378 -2.997,3.721 -6.27,4.926 -14.297,5.099 h -0.655 q -4.34,0 -12.609,-1.55 -8.061,-1.516 -11.679,-1.689 -0.861,-0.034 -1.653,-0.034 -6.27,0 -9.957,2.653 L -44.38,98 q -0.723,0.448 -1.378,0.448 -0.654,0 -0.654,-0.586 0,-1.137 2.273,-3.17 3.928,-3.513 9.716,-4.926 2.928,-0.723 5.925,-0.723 4.72,0 12.3,1.481 7.44,1.447 11.092,1.688 1.378,0.069 2.756,0.069 z M 77.576,68.544 c -0.827,0 -1.677,0.127 -2.55,0.38 -2.204,0.688 -4.283,2.009 -6.235,3.961 -2.48,2.48 -3.721,5.019 -3.721,7.614 0.023,0.551 0.138,1.137 0.345,1.757 0.758,2.228 2.227,3.341 4.41,3.341 1.492,-0.069 3.134,-0.86 4.925,-2.377 1.379,-1.24 2.068,-2.285 2.068,-3.134 0,-0.345 -0.207,-0.517 -0.62,-0.517 -0.322,0 -0.678,0.103 -1.068,0.31 l -1.585,0.964 c -0.46,0 -0.965,-0.195 -1.516,-0.585 -1.194,-0.896 -1.791,-2.08 -1.791,-3.549 0,-0.46 0.034,-0.861 0.103,-1.206 0.321,-1.492 1.539,-2.239 3.652,-2.239 0.758,0 1.596,0.195 2.514,0.586 2.48,1.01 3.721,2.813 3.721,5.409 0,1.286 -0.333,2.63 -0.999,4.03 -1.607,3.446 -4.926,6.97 -9.956,10.577 L 62.83,98.31 a 988.354,988.354 0 0 0 -3.737,2.554 c -0.064,-0.001 -0.127,-0.004 -0.19,-0.004 -3.4,0 -6.673,0.815 -9.82,2.445 -3.123,1.608 -5.833,3.63 -8.13,6.064 -3.537,3.79 -5.305,7.717 -5.305,11.782 0,1.975 0.367,3.56 1.102,4.754 0.896,1.447 2.148,2.17 3.756,2.17 1.079,0 2.124,-0.367 3.134,-1.102 1.562,-1.125 2.343,-2.56 2.343,-4.306 0,-0.413 -0.046,-0.792 -0.138,-1.137 -0.115,-0.39 -0.482,-1.022 -1.102,-1.895 -0.85,-1.24 -1.275,-2.802 -1.275,-4.685 0,-1.654 0.333,-3.135 1,-4.444 0.32,-0.598 1.01,-1.103 2.066,-1.516 1.654,-0.62 3.583,-0.93 5.788,-0.93 1.217,0 2.308,0.16 3.273,0.482 1.01,0.344 2.055,0.919 3.135,1.723 2.986,2.273 4.479,5.27 4.479,8.991 0,0.896 -0.092,1.85 -0.276,2.86 -1.745,9.6 -11.357,24.012 -28.835,43.236 -6.316,6.936 -12.403,13.114 -18.26,18.534 -3.445,3.215 -5.259,4.904 -5.443,5.064 -1.24,1.264 -1.86,2.286 -1.86,3.067 0,0.39 0.207,0.585 0.62,0.585 0.528,0 1.137,-0.218 1.826,-0.654 0.987,-0.575 2.905,-2.17 5.753,-4.789 l 9.44,-9.026 c 12.655,-12.54 23.036,-24.449 31.143,-35.726 9.141,-12.7 13.712,-22.358 13.712,-28.973 0,-3.422 -1.08,-6.328 -3.238,-8.716 -1.445,-1.587 -3.128,-2.683 -5.045,-3.29 l 6.526,-4.496 c 2.32,-1.676 4.628,-3.617 6.924,-5.822 6.11,-5.857 9.165,-10.956 9.165,-15.296 0,-1.608 -0.39,-3.009 -1.172,-4.203 -1.378,-2.044 -3.583,-3.067 -6.614,-3.067 z m 0.551,47.922 q 0,-2.963 2.687,-4.203 0.861,-0.38 1.413,-0.38 h 0.172 q 2.86,0 4.168,2.137 0.69,1.102 0.69,2.446 0,2.377 -1.93,3.72 -1.171,0.827 -2.653,0.827 -2.342,0 -3.686,-1.791 -0.861,-1.172 -0.861,-2.756 z M 201.91,68.51 c -0.345,0 -0.621,0.011 -0.828,0.034 -0.206,0 -0.46,0.035 -0.758,0.103 -5.558,0.827 -12.38,5.605 -20.464,14.332 l -12.712,14.297 c -4.02,4.548 -6.086,6.914 -6.201,7.097 -0.06,0.087 -0.113,0.17 -0.164,0.25 -1.782,1.191 -3.21,2.303 -4.28,3.333 -0.598,0.551 -0.919,0.827 -0.965,0.827 v -0.035 c 0.161,-1.102 0.241,-1.929 0.241,-2.48 0,-0.46 -0.034,-0.907 -0.103,-1.344 -0.345,-1.906 -1.206,-3.26 -2.584,-4.065 a 12.17,12.17 0 0 1 -0.586,-0.31 c -0.459,-0.183 -1.274,-0.276 -2.445,-0.276 -1.149,0 -1.827,0.012 -2.033,0.035 -1.172,0.046 -2.32,0.218 -3.445,0.517 -3.193,0.873 -5.903,2.55 -8.13,5.03 -1.241,1.378 -1.861,2.411 -1.861,3.1 0,0.436 0.218,0.632 0.655,0.586 a 5.107,5.107 0 0 0 1.033,-0.207 c 0.207,-0.092 0.643,-0.368 1.309,-0.827 1.01,-0.712 2.929,-1.068 5.754,-1.068 h 0.413 c 1.034,0 1.895,0.287 2.584,0.861 1.08,0.896 1.619,2.229 1.619,3.997 0,0.597 -0.092,1.332 -0.276,2.205 -0.643,3.192 -1.894,6.603 -3.755,10.231 -0.712,1.401 -1.745,2.94 -3.1,4.617 -0.735,0.896 -1.103,1.608 -1.103,2.136 0,0.368 0.195,0.551 0.586,0.551 0.804,0 1.803,-0.436 2.997,-1.309 2.641,-1.998 5.237,-5.282 7.786,-9.853 2.228,-3.996 4.054,-6.867 5.478,-8.613 2.297,-2.825 4.685,-4.237 7.165,-4.237 1.286,0 2.665,0.436 4.135,1.309 3.009,1.745 4.513,4.525 4.513,8.337 0,2.205 -0.597,4.226 -1.792,6.064 a 0.542,0.542 0 0 1 -0.103,0.138 c -0.574,0.666 -1.746,0.998 -3.514,0.998 -0.69,0 -1.286,-0.057 -1.792,-0.172 -0.689,-0.16 -1.446,-0.574 -2.273,-1.24 -0.827,-0.643 -1.723,-0.965 -2.688,-0.965 -1.447,0 -2.698,0.529 -3.755,1.585 -1.148,1.149 -1.722,2.458 -1.722,3.928 v 0.344 c 0.183,2.457 2.044,3.686 5.581,3.686 0.528,0 1.068,-0.034 1.62,-0.103 4.386,-0.62 8.692,-3.33 12.918,-8.13 1.286,-1.448 2.733,-3.595 4.341,-6.443 1.63,-2.917 2.79,-4.823 3.48,-5.719 1.86,-2.388 4.054,-3.582 6.58,-3.582 1.148,0 2.262,0.264 3.341,0.792 0.506,0.252 1.011,0.574 1.517,0.965 2.457,1.975 3.686,4.593 3.686,7.854 0,1.149 -0.219,2.4 -0.655,3.756 -0.528,1.561 -0.999,2.468 -1.412,2.721 l -0.138,0.069 c -0.942,0.459 -2.044,0.689 -3.308,0.689 a 6.557,6.557 0 0 1 -1.722,-0.207 c -0.62,-0.16 -1.344,-0.574 -2.17,-1.24 -0.804,-0.643 -1.688,-0.965 -2.653,-0.965 -1.08,0 -2.125,0.356 -3.135,1.068 -1.585,1.08 -2.377,2.492 -2.377,4.238 0,0.574 0.08,1.09 0.241,1.55 0.551,1.792 2.354,2.687 5.408,2.687 1.792,0 3.756,-0.505 5.892,-1.516 3.445,-1.63 6.488,-4.053 9.13,-7.269 3.169,-3.858 4.753,-7.705 4.753,-11.541 0,-3.124 -0.93,-5.707 -2.79,-7.751 -1.906,-2.068 -4.295,-3.101 -7.166,-3.101 -1.814,0 -3.847,0.574 -6.098,1.723 -2.71,1.378 -5.89,3.766 -9.542,7.165 -0.322,-1.607 -0.873,-3.043 -1.654,-4.306 -1.86,-3.055 -4.594,-4.582 -8.2,-4.582 -1.083,0 -2.246,0.208 -3.487,0.625 2.375,-2.661 6.16,-6.922 11.756,-13.234 3.583,-4.065 4.616,-5.236 3.1,-3.514 6.822,-7.625 12.276,-11.438 16.364,-11.438 a 6.53,6.53 0 0 1 1.93,0.276 c 0.413,0.138 0.861,0.356 1.343,0.655 1.907,1.24 2.86,2.986 2.86,5.236 0,0.827 -0.15,1.63 -0.449,2.412 -0.344,1.263 -1.32,1.895 -2.927,1.895 -1.287,0 -2.297,-0.448 -3.032,-1.344 -0.597,-0.712 -0.896,-1.424 -0.896,-2.136 0,-0.46 0.207,-0.953 0.62,-1.481 0.483,-0.62 0.724,-1.137 0.724,-1.55 0,-0.345 -0.207,-0.517 -0.62,-0.517 -0.988,0.091 -2.171,0.827 -3.549,2.205 -1.562,1.7 -2.343,3.353 -2.343,4.96 0,0.896 0.242,1.711 0.724,2.446 0.942,1.447 2.423,2.17 4.444,2.17 0.919,0 1.837,-0.149 2.756,-0.447 2.595,-0.827 4.88,-2.526 6.856,-5.099 1.883,-2.457 2.825,-4.834 2.825,-7.13 0,-1.7 -0.471,-3.194 -1.413,-4.48 -1.378,-1.906 -3.342,-2.859 -5.89,-2.859 z m -39.55,90.296 q -1.689,0 -1.999,-1.62 -0.069,-0.31 -0.069,-0.654 0,-1.102 0.655,-2.205 0.827,-1.412 3.204,-4.375 l 2.446,-3.17 q 0.965,-1.274 1.206,-1.446 0.379,-0.276 0.758,-0.276 0.758,0 0.964,0.827 0.035,0.138 0.035,0.344 0,0.586 -2.515,6.443 -1.482,3.376 -2.136,4.444 -1.103,1.688 -2.55,1.688 z m 125.332,-58.739 c -2.021,0 -4.226,0.138 -6.615,0.413 a 32.43,32.43 0 0 0 -5.96,1.31 c -3.795,1.232 -6.988,2.938 -9.58,5.116 0.022,-0.292 0.037,-0.576 0.037,-0.845 0,-1.033 -0.126,-1.906 -0.378,-2.618 -0.712,-2.113 -2.78,-3.17 -6.202,-3.17 -3.628,0 -7.625,1.528 -11.988,4.583 l -0.414,0.275 c -0.023,0 -0.103,-0.114 -0.241,-0.344 -0.551,-0.942 -1.125,-1.7 -1.723,-2.274 -1.102,-1.102 -2.514,-1.654 -4.237,-1.654 -0.804,0 -1.55,0.046 -2.24,0.138 -0.757,0.092 -1.527,0.253 -2.308,0.483 -3.031,0.941 -5.672,2.698 -7.923,5.27 -1.148,1.333 -1.723,2.274 -1.723,2.825 0.023,0.276 0.241,0.46 0.655,0.552 0.23,0 0.436,-0.023 0.62,-0.07 0.367,-0.068 0.884,-0.344 1.55,-0.826 1.103,-0.804 2.687,-1.206 4.754,-1.206 2.55,0 4.57,1.987 6.064,5.96 0.413,1.08 1.08,3.422 1.998,7.028 l 0.895,3.583 c 1.172,4.203 2.791,7.338 4.858,9.405 l 0.483,0.517 -4.204,6.752 c -10.45,16.192 -24.425,32.247 -41.926,48.163 -2.596,2.366 -3.894,4.042 -3.894,5.03 0,0.367 0.219,0.551 0.655,0.551 0.85,0 2.17,-0.735 3.962,-2.205 0.781,-0.643 2.87,-2.56 6.27,-5.753 18.42,-17.318 33.096,-34.888 44.028,-52.71 l 3.652,-6.133 c 1.31,-2.32 2.458,-4.444 3.446,-6.373 2.076,-4.01 3.565,-7.432 4.468,-10.269 l 2.215,-1.686 c 2.917,-2.067 7.579,-3.192 13.987,-3.376 0.55,0 0.827,0.012 0.827,0.035 l -0.035,0.034 -0.93,0.861 c -5.696,5.145 -8.543,10.14 -8.543,14.987 0,2.64 0.815,4.857 2.445,6.649 1.838,1.975 4.203,2.962 7.097,2.962 4.341,0 9.451,-2.514 15.331,-7.544 l 0.069,0.138 c 0.206,1.378 0.85,2.71 1.93,3.996 1.906,2.274 4.386,3.41 7.44,3.41 0.736,0 1.47,-0.068 2.205,-0.206 2.664,-0.529 5.73,-2.148 9.199,-4.858 1.309,-1.033 1.987,-1.55 2.033,-1.55 l -0.93,2.618 c -1.172,3.239 -2.596,6.546 -4.273,9.922 -6.316,12.747 -15.595,25.7 -27.836,38.86 l -6.752,6.96 -11.472,10.955 c -4.066,3.744 -6.294,5.81 -6.684,6.201 -1.355,1.355 -2.033,2.435 -2.033,3.239 0,0.39 0.207,0.585 0.62,0.585 1.011,0 2.446,-0.838 4.307,-2.514 3.17,-2.756 7.04,-6.328 11.61,-10.715 l 9.13,-8.957 c 13.16,-13.39 23.437,-26.286 30.833,-38.689 2.273,-3.812 4.249,-7.44 5.925,-10.886 2.182,-4.455 4.25,-9.612 6.202,-15.469 1.447,-4.363 2.664,-7.521 3.652,-9.473 3.054,-0.575 5.626,-1.964 7.716,-4.17 1.172,-1.216 1.757,-2.158 1.757,-2.824 0,-0.436 -0.23,-0.655 -0.688,-0.655 -0.39,0 -0.862,0.161 -1.413,0.483 -1.24,0.689 -3.066,1.033 -5.478,1.033 -10.68,0.046 -20.808,-0.31 -30.386,-1.068 -6.844,-0.528 -12.15,-0.792 -15.916,-0.792 z m 0.38,6.511 c 0.298,0 0.688,0.012 1.17,0.035 l 15.4,1.136 -2.411,2.516 c -1.884,2.09 -3.4,4.478 -4.548,7.165 -0.804,1.93 -1.424,3.193 -1.86,3.79 -0.666,0.896 -1.574,1.665 -2.722,2.308 -1.677,0.896 -3.296,1.343 -4.858,1.343 -1.975,0 -3.72,-0.596 -5.236,-1.79 -2.09,-1.654 -3.135,-3.928 -3.135,-6.822 0,-0.344 0.023,-0.689 0.069,-1.034 0.298,-2.618 1.562,-4.846 3.79,-6.683 1.584,-1.31 3.031,-1.964 4.34,-1.964 z m -35.554,0.861 c 3.468,0 5.202,1.54 5.202,4.617 0,1.929 -0.666,4.524 -1.998,7.786 l -0.414,0.965 c -1.217,2.733 -1.883,4.1 -1.998,4.1 0,-0.047 -0.103,-0.23 -0.31,-0.552 -0.919,-1.516 -1.757,-3.606 -2.515,-6.27 l -1.791,-7.132 -0.758,-2.48 c 0,-0.069 0.126,-0.15 0.379,-0.241 a 11.3,11.3 0 0 1 4.203,-0.793 z m 59.738,0.655 14.538,0.276 h 0.275 c -0.436,0.666 -1.492,2.607 -3.169,5.822 -2.343,4.525 -4.077,7.257 -5.202,8.199 l -0.689,0.551 c -1.7,1.287 -3.4,1.93 -5.099,1.93 -1.148,0 -2.4,-0.333 -3.755,-1 -3.054,-1.492 -4.582,-4.03 -4.582,-7.613 0,-0.46 0.069,-1.034 0.207,-1.723 0.505,-2.572 1.355,-4.271 2.549,-5.098 1.332,-0.896 2.975,-1.344 4.927,-1.344 z m -3.239,-20.223 q -0.723,0 -0.93,-0.827 -0.034,-0.137 -0.034,-0.31 0,-0.55 2.101,-5.994 1.585,-4.203 2.377,-5.374 0.93,-1.482 2.343,-1.482 1.344,0 1.93,1.206 0.24,0.482 0.206,1.102 -0.034,1.585 -1.86,4.135 l -3.928,5.408 -0.62,0.93 q -0.758,1.137 -1.585,1.206 z m 14.711,4.41 q 6.304,0 9.99,-2.687 l 1.999,-1.516 q 0.654,-0.413 1.275,-0.413 0.62,0 0.62,0.585 0,1.378 -2.998,3.721 -6.27,4.926 -14.297,5.099 h -0.654 q -4.341,0 -12.61,-1.55 -8.06,-1.516 -11.678,-1.689 -0.862,-0.034 -1.654,-0.034 -6.27,0 -9.956,2.653 L 281.698,98 q -0.724,0.448 -1.378,0.448 -0.655,0 -0.655,-0.586 0,-1.137 2.274,-3.17 3.927,-3.513 9.715,-4.926 2.928,-0.723 5.926,-0.723 4.72,0 12.299,1.481 7.441,1.447 11.093,1.688 1.378,0.069 2.756,0.069 z M 430.905,71.163 c -1.975,0 -4.226,0.792 -6.753,2.377 -5.121,3.215 -9.841,8.83 -14.159,16.846 l -1.206,2.309 c -3.052,5.891 -4.993,9.746 -5.865,11.639 a 17.722,17.722 0 0 0 -2.046,2.104 c -0.355,-0.668 -0.782,-1.3 -1.287,-1.892 -2.113,-2.504 -5.018,-3.732 -8.716,-3.687 -3.606,0.046 -7.924,1.976 -12.953,5.788 l -3.928,3.17 c 0.39,-1.333 0.586,-2.516 0.586,-3.55 0,-0.114 -0.012,-0.24 -0.035,-0.378 -0.092,-2.25 -0.907,-3.881 -2.446,-4.892 a 4.568,4.568 0 0 0 -1.378,-0.62 c -0.299,-0.07 -0.93,-0.104 -1.895,-0.104 h -1.722 a 16.968,16.968 0 0 0 -3.549,0.517 c -3.261,0.85 -6.017,2.504 -8.268,4.961 -1.286,1.401 -1.93,2.47 -1.93,3.204 0,0.436 0.22,0.632 0.655,0.586 0.414,-0.046 0.781,-0.126 1.103,-0.241 0.23,-0.07 0.666,-0.333 1.309,-0.792 1.033,-0.712 2.928,-1.069 5.684,-1.069 h 0.413 c 1.08,0 1.965,0.299 2.654,0.896 1.033,0.896 1.55,2.194 1.55,3.893 0,1.401 -0.551,3.606 -1.654,6.615 a 93.113,93.113 0 0 1 -5.202,11.782 l -3.032,5.685 c -15.25,28.226 -32.349,51.021 -51.297,68.384 l -1.55,1.482 c -1.355,1.424 -2.033,2.526 -2.033,3.307 0,0.345 0.206,0.517 0.62,0.517 0.712,0 1.745,-0.506 3.1,-1.516 1.287,-0.965 3.71,-3.17 7.27,-6.615 l 2.274,-2.239 c 17.891,-17.868 34.152,-40.284 48.782,-67.248 2.412,-4.456 4.134,-7.797 5.168,-10.025 l 1.757,-3.583 c 1.676,-2.986 3.468,-5.305 5.374,-6.96 a 20.73,20.73 0 0 1 1.62,-1.274 c 2.388,-1.677 4.65,-2.515 6.786,-2.515 1.401,0 2.905,0.413 4.513,1.24 3.4,1.7 5.1,4.536 5.1,8.51 0,0.872 -0.139,1.803 -0.414,2.79 -0.437,1.677 -0.942,2.757 -1.516,3.239 a 9.96,9.96 0 0 1 -4.513,1.067 c -0.69,0 -1.286,-0.057 -1.792,-0.172 -0.689,-0.183 -1.446,-0.597 -2.273,-1.24 -0.827,-0.643 -1.723,-0.965 -2.687,-0.965 -0.988,0 -1.976,0.322 -2.964,0.965 -1.676,1.103 -2.514,2.596 -2.514,4.479 0,2.733 1.849,4.1 5.546,4.1 0.988,0 1.94,-0.092 2.86,-0.276 1.47,-0.276 2.985,-0.816 4.547,-1.62 3.468,-1.768 6.511,-4.317 9.13,-7.648 2.94,-3.743 4.41,-7.303 4.41,-10.68 0,-1 -0.108,-1.946 -0.318,-2.84 0.197,-0.128 0.422,-0.277 0.696,-0.466 1.01,-0.712 2.929,-1.069 5.754,-1.069 h 0.413 c 1.034,0 1.895,0.288 2.584,0.862 1.08,0.896 1.619,2.228 1.619,3.996 0,0.597 -0.092,1.332 -0.275,2.205 -0.644,3.193 -1.895,6.603 -3.756,10.232 -0.712,1.401 -1.745,2.94 -3.1,4.616 -0.735,0.896 -1.103,1.608 -1.103,2.136 0,0.368 0.195,0.551 0.586,0.551 0.78,0 1.86,-0.516 3.238,-1.55 a 18.113,18.113 0 0 0 1.93,-1.688 c 3.1,-3.1 5.741,-7.476 7.923,-13.126 1.585,-4.042 2.377,-7.177 2.377,-9.405 0,-1.447 -0.367,-2.744 -1.102,-3.893 -0.414,-0.62 -0.873,-1.09 -1.378,-1.412 -0.69,-0.46 -1.768,-0.69 -3.238,-0.69 -1.149,0 -1.827,0.012 -2.033,0.035 -1.172,0.046 -2.32,0.218 -3.445,0.517 -0.473,0.13 -0.936,0.277 -1.388,0.442 0.554,-1.12 1.333,-2.726 2.387,-4.921 3.904,-8.061 7.499,-13.85 10.783,-17.363 0.322,-0.345 0.62,-0.643 0.896,-0.896 1.539,-1.424 3.146,-2.136 4.823,-2.136 1.561,0 2.882,0.506 3.962,1.516 1.424,1.286 2.135,2.952 2.135,4.996 0,0.62 -0.08,1.24 -0.24,1.86 -0.115,0.46 -0.207,0.77 -0.276,0.93 -0.345,0.827 -1.057,1.24 -2.136,1.24 -1.24,0 -2.217,-0.39 -2.929,-1.171 -0.643,-0.712 -0.964,-1.447 -0.964,-2.205 0,-0.276 0.115,-0.574 0.344,-0.896 0.414,-0.55 0.62,-0.999 0.62,-1.343 0,-0.368 -0.195,-0.552 -0.585,-0.552 -0.62,0 -1.481,0.425 -2.584,1.275 -1.952,1.516 -2.928,3.239 -2.928,5.168 0,1.033 0.321,1.94 0.964,2.722 0.965,1.171 2.309,1.757 4.031,1.757 0.712,0 1.505,-0.127 2.377,-0.38 2.986,-0.941 5.467,-2.905 7.442,-5.89 1.332,-1.999 1.998,-4.043 1.998,-6.133 0,-1.837 -0.494,-3.433 -1.482,-4.789 -1.378,-1.929 -3.33,-2.893 -5.856,-2.893 z m 79.168,-26.665 c -1.056,0 -2.825,1.136 -5.305,3.41 l -10.75,10.232 c -11.666,11.645 -21.37,22.784 -29.11,33.418 -9.003,12.38 -13.505,21.68 -13.505,27.905 0,3.353 1.057,6.235 3.17,8.647 2.32,2.618 5.305,3.927 8.957,3.927 2.595,0 5.213,-0.516 7.855,-1.55 4.41,-1.745 8.199,-4.57 11.368,-8.475 0.965,-1.171 1.746,-2.33 2.343,-3.48 1.126,-2.112 1.688,-4.455 1.688,-7.027 0,-1.14 -0.149,-2.168 -0.447,-3.087 1.042,-0.652 2.912,-0.979 5.615,-0.979 h 0.413 c 1.034,0 1.895,0.288 2.584,0.862 1.08,0.896 1.62,2.228 1.62,3.996 0,0.597 -0.093,1.332 -0.276,2.205 -0.643,3.193 -1.895,6.603 -3.755,10.232 -0.712,1.401 -1.746,2.94 -3.1,4.616 -0.736,0.896 -1.103,1.608 -1.103,2.136 0,0.368 0.195,0.551 0.586,0.551 0.78,0 1.86,-0.516 3.238,-1.55 a 18.117,18.117 0 0 0 1.93,-1.688 c 3.1,-3.1 5.74,-7.476 7.923,-13.126 0.873,-2.228 1.505,-4.179 1.897,-5.855 0.174,-0.078 0.346,-0.159 0.514,-0.243 l 1.86,-1.24 c 1.241,-0.804 3.216,-1.206 5.926,-1.206 1.906,0 5.237,0.391 9.991,1.172 l 3.893,0.689 c -4.18,2.572 -7.729,5.523 -10.645,8.853 -4.709,5.375 -7.063,10.818 -7.063,16.33 0,1.332 0.115,2.619 0.345,3.859 0.918,4.823 3.376,8.716 7.372,11.679 4.043,3.008 8.877,4.513 14.504,4.513 h 0.138 c 7.441,0 14.331,-2.768 20.67,-8.303 2.596,-2.25 4.732,-4.524 6.408,-6.821 2.687,-3.698 4.031,-7.063 4.031,-10.094 0,-1.172 -0.218,-2.205 -0.655,-3.101 -0.78,-1.677 -2.032,-2.515 -3.755,-2.515 -1.47,0 -2.744,0.517 -3.824,1.55 -1.17,1.126 -1.757,2.412 -1.757,3.859 0,0.23 0.012,0.46 0.035,0.69 0.091,0.573 0.436,1.297 1.033,2.17 a 5.936,5.936 0 0 1 1.068,3.444 8.26,8.26 0 0 1 -0.275,2.067 c -0.528,1.907 -1.505,3.653 -2.929,5.237 -1.217,1.332 -3.008,2.412 -5.374,3.238 -2.71,0.965 -5.41,1.447 -8.096,1.447 -1.401,0 -2.768,-0.114 -4.1,-0.344 -4.938,-0.804 -8.991,-2.87 -12.16,-6.201 -3.24,-3.422 -4.858,-7.487 -4.858,-12.196 0,-0.62 0.022,-1.217 0.068,-1.791 0.368,-3.606 1.665,-6.66 3.893,-9.164 1.01,-1.148 2.366,-2.205 4.066,-3.17 2.962,-1.722 6.327,-2.951 10.094,-3.686 l 0.723,-0.138 0.758,0.07 c 2.389,0.275 4.594,0.413 6.615,0.413 1.194,0 2.343,-0.046 3.445,-0.138 5.374,-0.483 10.277,-2.297 14.71,-5.443 1.332,-0.942 2.492,-1.872 3.48,-2.79 1.883,-1.77 2.825,-3.125 2.825,-4.066 0,-0.368 -0.207,-0.552 -0.62,-0.552 -0.552,0 -1.137,0.184 -1.757,0.552 l -2.756,2.067 c -3.078,2.136 -7.327,3.204 -12.747,3.204 -2.527,0 -7.867,-0.643 -16.02,-1.93 -7.74,-1.217 -12.414,-1.826 -14.021,-1.826 -1.792,0 -3.342,0.138 -4.651,0.414 -0.552,0.115 -1.103,0.264 -1.654,0.448 -2.963,0.964 -5.662,2.64 -8.096,5.03 -0.063,0.06 -0.116,0.117 -0.176,0.177 -0.038,-1.352 -0.404,-2.571 -1.098,-3.657 -0.414,-0.62 -0.873,-1.09 -1.379,-1.412 -0.689,-0.46 -1.768,-0.69 -3.238,-0.69 -1.149,0 -1.826,0.012 -2.033,0.035 -1.171,0.046 -2.32,0.218 -3.445,0.517 -3.192,0.873 -5.902,2.549 -8.13,5.03 -0.045,0.049 -0.086,0.097 -0.13,0.146 -0.78,-0.785 -1.758,-1.18 -2.936,-1.18 -1.034,0 -2.044,0.333 -3.032,1 -1.654,1.102 -2.48,2.594 -2.48,4.478 0,0.459 0.057,0.861 0.172,1.206 0.092,0.344 0.436,0.941 1.033,1.79 0.85,1.195 1.275,2.745 1.275,4.652 0,0.712 -0.069,1.435 -0.207,2.17 -0.344,1.723 -0.815,2.745 -1.412,3.067 -0.276,0.16 -0.563,0.31 -0.861,0.447 -1.907,0.827 -4.031,1.24 -6.374,1.24 -1.263,0 -2.469,-0.206 -3.617,-0.62 -0.942,-0.321 -1.93,-0.895 -2.963,-1.722 -2.871,-2.343 -4.306,-5.363 -4.306,-9.06 0,-1.631 0.379,-3.55 1.136,-5.754 2.458,-7.051 8.337,-16.226 17.64,-27.526 8.566,-10.427 18.212,-20.487 28.938,-30.18 2.526,-2.296 3.79,-3.938 3.79,-4.926 -0.023,-0.39 -0.241,-0.586 -0.655,-0.586 z"
       transform="translate(1173.024,-40.748)"
       id="path1" /><path
       d="m 493.192,93.797 q -0.964,0 -1.033,-1.034 0,-0.93 4.788,-7.303 l 8.475,-10.956 2.756,-3.307 q 1.103,-0.965 2.067,-0.965 1.447,0 1.999,1.275 0.172,0.413 0.172,0.896 0,1.343 -2.17,3.755 -6.133,7.131 -12.093,13.298 -4.237,4.34 -4.96,4.34 z m 50.918,-4.065 q 0,-0.93 2.206,-4.513 3.273,-5.306 5.856,-6.856 0.827,-0.483 1.482,-0.483 1.481,0 2.067,1.275 0.206,0.448 0.206,0.93 0,1.413 -1.722,3.032 l -0.586,0.551 -3.273,2.79 q -1.584,1.379 -3.927,3.756 -0.655,0.655 -1.24,0.655 -0.861,0 -1.034,-0.862 -0.034,-0.138 -0.034,-0.275 z m -8.75,-12.644 q 0,-1.62 1.24,-2.17 0.483,-0.207 1.068,-0.207 2.688,0.069 3.721,5.168 0.345,1.86 0.345,3.341 0,7.373 -1.86,7.373 -0.828,0 -1.138,-1.171 l -0.826,-4.686 q -0.62,-2.721 -1.86,-5.305 -0.69,-1.413 -0.69,-2.343 z m 8.303,9.646 q -0.965,-0.137 -1.103,-1.309 l 0.896,-7.958 q 0.861,-6.063 2.894,-7.131 0.551,-0.276 1.171,-0.276 1.103,0 1.86,0.93 0.62,0.758 0.62,1.998 0,2.068 -3.34,9.027 l -1.448,3.1 q -0.551,1.344 -1.206,1.55 -0.172,0.07 -0.344,0.07 z M 646.189,71.163 c -1.975,0 -4.226,0.792 -6.753,2.377 -5.121,3.215 -9.841,8.83 -14.159,16.846 l -1.206,2.309 c -2.324,4.485 -3.993,7.77 -5.052,9.938 -0.197,0.094 -0.396,0.191 -0.597,0.294 -3.17,1.584 -6.26,3.697 -9.268,6.338 l -0.62,0.517 c 0.321,-1.401 0.483,-2.572 0.483,-3.514 0,-0.413 -0.035,-0.827 -0.104,-1.24 -0.321,-1.975 -1.183,-3.365 -2.584,-4.169 -0.23,-0.114 -0.425,-0.218 -0.586,-0.31 -0.459,-0.183 -1.274,-0.276 -2.445,-0.276 -1.149,0 -1.826,0.012 -2.033,0.035 -1.171,0.046 -2.32,0.218 -3.445,0.517 -3.193,0.873 -5.903,2.549 -8.13,5.03 -1.24,1.378 -1.86,2.411 -1.86,3.1 0,0.436 0.217,0.632 0.653,0.586 a 5.108,5.108 0 0 0 1.034,-0.207 c 0.207,-0.092 0.643,-0.367 1.31,-0.826 1.01,-0.712 2.928,-1.069 5.753,-1.069 h 0.413 c 1.057,0 1.94,0.31 2.653,0.93 1.033,0.896 1.55,2.228 1.55,3.997 0,0.804 -0.195,1.94 -0.586,3.41 a 42.02,42.02 0 0 1 -4.237,10.439 c -0.368,0.666 -1.068,1.585 -2.102,2.756 -0.873,0.988 -1.309,1.803 -1.309,2.446 0,0.414 0.207,0.62 0.62,0.62 0.23,0 0.586,-0.069 1.069,-0.206 a 51.764,51.764 0 0 1 13.849,-1.895 c 1.998,0 4.524,0.15 7.579,0.448 4.708,0.46 7.774,0.689 9.198,0.689 h 1.068 c 2.596,0 5.088,-0.356 7.476,-1.068 3.601,-1.047 6.608,-2.697 9.026,-4.946 -0.703,1.313 -1.676,2.743 -2.928,4.291 -0.735,0.896 -1.103,1.608 -1.103,2.136 0,0.367 0.196,0.551 0.586,0.551 0.39,0 0.873,-0.137 1.447,-0.413 1.31,-0.666 2.55,-1.573 3.721,-2.722 1.562,-1.539 3.364,-4.042 5.408,-7.51 1.999,-3.445 3.434,-5.753 4.307,-6.925 1.103,-1.47 2.297,-2.71 3.583,-3.72 2.365,-1.815 4.708,-2.722 7.028,-2.722 0.505,0 1.022,0.046 1.55,0.138 2.366,0.39 4.283,1.458 5.753,3.204 1.562,1.86 2.343,3.984 2.343,6.373 0,1.608 -0.379,3.193 -1.137,4.754 -0.597,1.654 -2.354,2.446 -5.27,2.377 -0.69,0 -1.287,-0.057 -1.792,-0.172 -0.69,-0.183 -1.459,-0.597 -2.309,-1.24 -0.803,-0.643 -1.676,-0.965 -2.618,-0.965 -1.492,0 -2.779,0.563 -3.858,1.689 -1.126,1.125 -1.688,2.365 -1.688,3.72 0,0.368 0.023,0.7 0.069,1 0.413,2.09 2.274,3.134 5.58,3.134 2.481,0 5.019,-0.666 7.614,-1.998 3.606,-1.837 6.684,-4.502 9.233,-7.993 2.665,-3.629 3.996,-7.074 3.996,-10.335 0,-2.894 -0.93,-5.363 -2.79,-7.407 -2.09,-2.297 -4.777,-3.445 -8.062,-3.445 -3.17,0 -6.89,1.436 -11.162,4.307 -1.975,1.309 -3.571,2.491 -4.789,3.548 l -1.102,0.965 -0.034,-0.035 c 0.298,-1.424 0.448,-2.55 0.448,-3.376 0,-1.447 -0.368,-2.745 -1.103,-3.893 -0.413,-0.62 -0.873,-1.09 -1.378,-1.412 -0.689,-0.46 -1.769,-0.69 -3.238,-0.69 -1.149,0 -1.826,0.012 -2.033,0.035 -1.171,0.046 -2.32,0.218 -3.445,0.517 -3.193,0.873 -5.903,2.549 -8.13,5.03 -0.09,0.099 -0.169,0.193 -0.252,0.289 a 9.02,9.02 0 0 0 -1.16,-1.77 c -1.976,-2.32 -4.766,-3.48 -8.372,-3.48 -0.812,0 -1.567,0.066 -2.265,0.196 a 543.08,543.08 0 0 0 2.299,-4.744 c 3.904,-8.061 7.499,-13.85 10.783,-17.363 0.322,-0.345 0.62,-0.643 0.896,-0.896 1.539,-1.424 3.147,-2.136 4.823,-2.136 1.562,0 2.882,0.506 3.962,1.516 1.424,1.286 2.136,2.952 2.136,4.996 0,0.62 -0.08,1.24 -0.241,1.86 -0.115,0.46 -0.207,0.77 -0.276,0.93 -0.344,0.827 -1.057,1.24 -2.136,1.24 -1.24,0 -2.216,-0.39 -2.928,-1.171 -0.643,-0.712 -0.965,-1.447 -0.965,-2.205 0,-0.276 0.115,-0.574 0.345,-0.896 0.413,-0.55 0.62,-0.999 0.62,-1.343 0,-0.368 -0.196,-0.552 -0.586,-0.552 -0.62,0 -1.481,0.425 -2.584,1.275 -1.952,1.516 -2.928,3.239 -2.928,5.168 0,1.033 0.321,1.94 0.964,2.722 0.965,1.171 2.309,1.757 4.031,1.757 0.712,0 1.505,-0.127 2.377,-0.38 2.986,-0.941 5.467,-2.905 7.442,-5.89 1.332,-1.999 1.998,-4.043 1.998,-6.133 0,-1.837 -0.494,-3.433 -1.482,-4.789 -1.378,-1.929 -3.33,-2.893 -5.856,-2.893 z m -3.755,36.276 h 0.413 c 1.034,0 1.895,0.287 2.584,0.861 1.08,0.896 1.62,2.229 1.62,3.997 0,0.597 -0.093,1.332 -0.277,2.205 -0.384,1.909 -0.988,3.897 -1.808,5.963 -0.018,0 -0.033,-0.003 -0.052,-0.003 a 2.95,2.95 0 0 0 -1.48,0.413 l -1.896,1.379 c -2.366,1.607 -5.891,2.41 -10.577,2.41 -1.286,0 -2.227,-0.034 -2.824,-0.103 a 43.487,43.487 0 0 0 2.48,-2.549 c 3.744,-4.249 5.615,-8.142 5.615,-11.679 0,-0.5 -0.035,-0.984 -0.101,-1.455 0.163,-0.108 0.34,-0.227 0.55,-0.37 1.01,-0.713 2.928,-1.068 5.753,-1.068 z m -23.427,0.62 c 2.527,0 4.65,0.678 6.373,2.033 1.999,1.585 2.998,3.663 2.998,6.236 -0.046,2.182 -0.712,4.1 -1.998,5.753 -0.16,0.207 -0.471,0.402 -0.93,0.586 -1.516,0.666 -3.377,0.999 -5.581,0.999 l -5.823,-0.138 c -2.687,0 -5.214,0.172 -7.58,0.517 l -4.443,0.792 c 0,-0.046 0.23,-0.448 0.69,-1.206 3.054,-5.213 5.235,-8.612 6.544,-10.197 0.46,-0.551 1.057,-1.149 1.792,-1.792 2.78,-2.388 5.432,-3.582 7.958,-3.582 z m 130.845,-4.34 q 8.13,0 12.747,-3.204 l 2.756,-2.067 q 0.93,-0.551 1.757,-0.551 0.62,0 0.62,0.55 0,1.413 -2.825,4.066 -1.481,1.378 -3.48,2.79 -6.648,4.72 -14.71,5.444 -1.654,0.138 -3.445,0.138 -3.032,0 -6.615,-0.414 l -0.758,-0.069 -0.723,0.138 q -5.65,1.102 -10.094,3.686 -2.55,1.447 -4.065,3.17 -3.342,3.755 -3.893,9.164 -0.07,0.861 -0.07,1.791 0,7.063 4.858,12.196 4.755,4.995 12.161,6.201 1.999,0.345 4.1,0.345 4.03,0 8.096,-1.447 3.549,-1.24 5.374,-3.239 2.136,-2.377 2.929,-5.236 0.275,-1.068 0.275,-2.067 0,-1.895 -1.068,-3.446 -0.895,-1.309 -1.033,-2.17 -0.034,-0.344 -0.034,-0.689 0,-2.17 1.757,-3.858 1.619,-1.55 3.824,-1.55 2.583,0 3.755,2.514 0.654,1.344 0.654,3.1 0,4.548 -4.03,10.095 -2.515,3.445 -6.408,6.821 -9.509,8.303 -20.67,8.303 h -0.139 q -8.44,0 -14.504,-4.513 -5.994,-4.444 -7.372,-11.68 -0.345,-1.86 -0.345,-3.858 0,-8.268 7.063,-16.33 4.375,-4.995 10.645,-8.853 l -3.893,-0.69 q -7.131,-1.17 -9.99,-1.17 -4.066,0 -5.926,1.205 l -1.86,1.24 q -0.483,0.242 -1,0.448 -0.413,0.104 -0.689,0.104 -0.654,0 -0.654,-0.552 0,-1.309 2.48,-3.72 3.652,-3.583 8.096,-5.03 0.827,-0.276 1.654,-0.448 1.964,-0.413 4.65,-0.413 2.412,0 14.022,1.825 12.23,1.93 16.02,1.93 z M 816.86,45.29 c -0.942,0 -2.263,0.723 -3.963,2.17 l -3.1,2.894 c -4.066,4.02 -7.752,8.51 -11.06,13.47 -2.043,3.055 -3.811,6.006 -5.304,8.854 -4.295,8.223 -9.015,20.82 -14.16,37.793 -3.123,10.336 -5.466,16.296 -7.028,17.88 -1.217,1.24 -1.826,2.262 -1.826,3.066 0,0.414 0.207,0.62 0.62,0.62 0.138,0 0.334,-0.022 0.586,-0.068 8.085,-1.378 16.422,-2.067 25.012,-2.067 3.261,0 7.223,0.137 11.885,0.413 7.58,0.46 12.85,0.689 15.813,0.689 2.274,0 4.295,-0.126 6.063,-0.379 1.103,-0.16 2.182,-0.39 3.239,-0.69 3.904,-1.102 7.12,-2.939 9.646,-5.511 1.378,-1.424 2.067,-2.526 2.067,-3.307 a 0.767,0.767 0 0 0 -0.078,-0.36 c 0.495,0.17 1.038,0.256 1.628,0.256 a 4.49,4.49 0 0 0 2.653,-0.827 c 1.287,-0.895 1.93,-2.135 1.93,-3.72 0,-0.896 -0.23,-1.712 -0.69,-2.447 -0.872,-1.424 -2.262,-2.135 -4.168,-2.135 h -0.172 c -0.368,0 -0.839,0.126 -1.413,0.378 -1.792,0.827 -2.687,2.229 -2.687,4.204 0,1.056 0.287,1.975 0.861,2.756 0.4,0.533 0.867,0.947 1.4,1.243 -0.554,0.007 -1.044,0.13 -1.469,0.376 l -1.722,1.343 c -2.297,1.608 -6.5,2.412 -12.61,2.412 h -0.723 c 0,-0.046 0.207,-0.275 0.62,-0.689 a 33.015,33.015 0 0 0 2.825,-3.273 c 2.687,-3.606 4.031,-6.993 4.031,-10.163 0,-2.687 -0.861,-4.926 -2.584,-6.718 -1.837,-1.929 -4.157,-2.893 -6.959,-2.893 -3.009,0 -6.488,1.446 -10.439,4.34 -0.872,0.643 -2.549,2.033 -5.03,4.169 -0.275,-1.562 -0.78,-2.951 -1.515,-4.169 -1.768,-2.894 -4.467,-4.34 -8.096,-4.34 -0.368,0 -0.735,0.022 -1.102,0.068 -0.787,0.082 -1.622,0.276 -2.5,0.569 2.373,-2.66 6.161,-6.924 11.767,-13.247 3.583,-4.065 4.616,-5.236 3.1,-3.514 6.822,-7.625 12.277,-11.438 16.365,-11.438 0.689,0 1.332,0.093 1.929,0.276 0.413,0.138 0.861,0.356 1.343,0.655 1.907,1.24 2.86,2.986 2.86,5.236 0,0.827 -0.15,1.63 -0.448,2.412 -0.344,1.263 -1.32,1.895 -2.928,1.895 -1.287,0 -2.297,-0.448 -3.032,-1.344 -0.597,-0.712 -0.896,-1.424 -0.896,-2.136 0,-0.46 0.207,-0.953 0.62,-1.481 0.483,-0.62 0.724,-1.137 0.724,-1.55 0,-0.345 -0.207,-0.517 -0.62,-0.517 -0.988,0.092 -2.17,0.827 -3.549,2.205 -1.562,1.7 -2.342,3.353 -2.342,4.96 0,0.896 0.24,1.711 0.723,2.446 0.942,1.447 2.423,2.17 4.444,2.17 0.919,0 1.837,-0.149 2.756,-0.447 2.595,-0.827 4.88,-2.526 6.856,-5.099 1.883,-2.457 2.825,-4.834 2.825,-7.13 0,-1.7 -0.471,-3.194 -1.413,-4.48 -1.378,-1.906 -3.341,-2.859 -5.89,-2.859 -0.345,0 -0.62,0.011 -0.828,0.034 -0.206,0 -0.459,0.035 -0.757,0.103 -5.558,0.827 -12.38,5.605 -20.464,14.332 l -12.712,14.297 c -4.02,4.548 -6.087,6.914 -6.202,7.097 a 5.55,5.55 0 0 0 -0.143,0.218 c -1.555,1.057 -3.206,2.337 -4.956,3.847 l -0.585,0.483 c 1.493,-5.214 2.905,-9.888 4.237,-14.022 4.778,-14.722 9.865,-26.09 15.262,-34.106 a 62.536,62.536 0 0 1 6.408,-8.062 l 3.927,-3.961 c 1.195,-1.218 1.792,-2.206 1.792,-2.963 0,-0.345 -0.218,-0.517 -0.655,-0.517 z m -22.428,62.735 c 0.23,0 0.436,0.012 0.62,0.035 2.87,0.275 4.995,1.584 6.373,3.927 0.896,1.539 1.344,3.1 1.344,4.685 -0.023,1.93 -0.494,3.663 -1.413,5.202 -0.367,0.643 -0.815,1.057 -1.343,1.24 -0.62,0.23 -2.63,0.426 -6.03,0.586 -2.962,0.138 -5.615,0.333 -7.958,0.586 l -6.924,0.93 0.276,-0.482 3.824,-7.028 0.86,-1.447 c 3.377,-5.49 6.834,-8.234 10.37,-8.234 z m 24.804,0.035 c 2.343,0 4.307,0.735 5.891,2.205 1.746,1.653 2.619,3.743 2.619,6.27 -0.092,2.342 -0.838,4.432 -2.24,6.27 -0.137,0.16 -0.355,0.321 -0.654,0.482 -1.194,0.643 -2.756,0.964 -4.686,0.964 -0.666,0 -1.7,-0.045 -3.1,-0.137 -6.11,-0.39 -10.186,-0.586 -12.23,-0.586 h -0.517 c 1.4,-1.516 2.917,-3.571 4.548,-6.167 1.791,-2.848 2.963,-4.627 3.514,-5.34 1.814,-2.273 3.847,-3.582 6.098,-3.927 h 0.034 z m -26.251,50.746 q -1.688,0 -1.998,-1.62 -0.07,-0.31 -0.07,-0.654 0,-1.102 0.655,-2.205 0.827,-1.412 3.204,-4.375 l 2.446,-3.17 q 0.965,-1.274 1.206,-1.446 0.379,-0.276 0.758,-0.276 0.758,0 0.965,0.827 0.034,0.138 0.034,0.344 0,0.586 -2.515,6.443 -1.481,3.376 -2.136,4.444 -1.102,1.688 -2.55,1.688 z m 82.475,-49.851 q 0,-1.102 1.93,-3.204 3.376,-3.686 8.268,-4.96 1.757,-0.448 3.548,-0.517 h 1.723 q 1.447,0 1.895,0.103 0.689,0.172 1.378,0.62 2.308,1.516 2.48,4.892 v 0.38 q 0,0.964 -0.344,2.652 4.272,-3.755 7.097,-5.443 4.306,-2.584 7.717,-2.584 5.34,0 8.164,4.513 1.206,1.93 1.689,4.375 9.577,-8.888 15.434,-8.888 4.96,0 7.82,3.548 2.377,2.997 2.377,7.476 0,5.202 -4.41,10.818 -3.858,4.96 -9.026,7.544 -3.445,1.757 -6.408,1.757 -5.58,0 -5.58,-4.134 0,-2.756 2.445,-4.41 1.482,-0.998 3.032,-0.998 1.344,0 2.584,0.93 1.343,1.033 2.48,1.274 0.793,0.173 1.792,0.173 1.963,0 3.031,-0.69 0.276,-0.172 0.414,-0.378 1.826,-2.688 1.826,-6.098 0,-4.617 -3.273,-7.51 -1.688,-1.516 -3.618,-1.964 -0.826,-0.207 -1.825,-0.207 -3.962,0 -7.338,4.892 -0.827,1.206 -3.342,5.65 -1.034,1.895 -1.757,2.894 -2.48,3.514 -6.236,6.442 -4.789,3.755 -9.198,4.1 -0.345,0.034 -0.93,0.034 -5.616,0 -5.616,-4.1 0,-2.824 2.515,-4.478 1.481,-0.965 2.997,-0.965 1.378,0 2.618,0.93 1.379,1.034 2.515,1.275 0.793,0.173 1.757,0.173 2.102,0 3.135,-0.758 0.173,-0.138 0.276,-0.31 1.792,-2.55 1.792,-6.167 0,-4.375 -3.101,-7.304 -1.826,-1.722 -3.962,-2.136 -0.792,-0.172 -1.585,-0.172 -6.787,0 -13.194,13.987 -1.516,3.239 -3.824,7.545 -22.394,42.099 -50.058,69.832 l -2.515,2.48 q -5.34,5.168 -7.269,6.615 -2.032,1.516 -3.1,1.516 -0.62,0 -0.62,-0.517 0,-1.171 2.032,-3.307 l 1.55,-1.481 q 28.422,-26.045 51.298,-68.386 l 3.032,-5.684 q 2.997,-5.684 5.202,-11.782 1.653,-4.513 1.653,-6.615 0,-2.55 -1.55,-3.893 -1.034,-0.896 -2.653,-0.896 h -0.413 q -4.134,0 -5.685,1.068 -0.964,0.69 -1.309,0.793 -0.482,0.172 -1.102,0.241 -0.655,0.069 -0.655,-0.586 z m 62.322,-16.674 q 6.305,0 9.99,-2.687 l 1.999,-1.516 q 0.655,-0.413 1.275,-0.413 0.62,0 0.62,0.585 0,1.378 -2.997,3.721 -6.27,4.926 -14.298,5.099 h -0.654 q -4.341,0 -12.61,-1.55 -8.06,-1.516 -11.678,-1.689 -0.861,-0.034 -1.654,-0.034 -6.27,0 -9.956,2.653 L 895.752,98 q -0.724,0.448 -1.378,0.448 -0.655,0 -0.655,-0.586 0,-1.137 2.274,-3.17 3.927,-3.513 9.715,-4.926 2.929,-0.723 5.926,-0.723 4.72,0 12.299,1.481 7.441,1.447 11.093,1.688 1.378,0.069 2.756,0.069 z m 81.167,-46.991 c -0.942,0 -2.263,0.723 -3.962,2.17 l -3.1,2.894 c -4.066,4.02 -7.752,8.51 -11.06,13.47 -2.044,3.055 -3.812,6.006 -5.305,8.854 -4.295,8.223 -9.014,20.82 -14.16,37.793 -3.123,10.336 -5.465,16.296 -7.027,17.88 -1.217,1.24 -1.826,2.262 -1.826,3.066 0,0.414 0.195,0.62 0.586,0.62 0.206,0 0.608,-0.08 1.205,-0.24 4.341,-1.241 8.854,-1.861 13.54,-1.861 2.02,0 4.524,0.15 7.51,0.448 4.685,0.482 7.878,0.723 9.577,0.723 1.86,0 3.606,-0.138 5.237,-0.413 a 22.502,22.502 0 0 0 3.169,-0.724 c 3.675,-1.125 6.776,-2.95 9.302,-5.477 1.47,-1.47 2.205,-2.584 2.205,-3.342 0,-0.46 -0.241,-0.69 -0.724,-0.69 a 2.95,2.95 0 0 0 -1.48,0.414 l -1.896,1.379 c -2.274,1.607 -5.684,2.41 -10.232,2.41 -1.424,0 -2.377,-0.034 -2.86,-0.103 h -0.172 a 28.26,28.26 0 0 0 2.033,-2.032 c 3.996,-4.295 5.994,-8.348 5.994,-12.161 0,-0.314 -0.013,-0.621 -0.037,-0.922 0.103,-0.07 0.203,-0.135 0.314,-0.215 1.102,-0.804 2.687,-1.206 4.754,-1.206 2.55,0 4.57,1.987 6.063,5.96 0.413,1.08 1.08,3.422 1.998,7.028 l 0.896,3.583 c 1.171,4.203 2.79,7.338 4.857,9.405 l 0.483,0.517 -4.203,6.752 c -10.45,16.192 -24.426,32.247 -41.927,48.163 -2.595,2.366 -3.893,4.042 -3.893,5.03 0,0.367 0.218,0.55 0.655,0.55 0.85,0 2.17,-0.734 3.962,-2.204 0.78,-0.643 2.87,-2.56 6.27,-5.753 18.42,-17.318 33.095,-34.888 44.028,-52.71 l 3.652,-6.133 a 179.57,179.57 0 0 0 3.445,-6.373 c 3.674,-7.097 5.512,-12.357 5.512,-15.779 0,-1.033 -0.126,-1.906 -0.379,-2.618 -0.712,-2.113 -2.779,-3.17 -6.201,-3.17 -1.68,0 -3.44,0.332 -5.278,0.987 0.554,-1.12 1.333,-2.724 2.384,-4.914 3.904,-8.061 7.499,-13.85 10.783,-17.363 0.321,-0.345 0.62,-0.643 0.896,-0.896 1.539,-1.424 3.146,-2.136 4.823,-2.136 1.562,0 2.882,0.506 3.962,1.516 1.424,1.286 2.136,2.952 2.136,4.996 0,0.62 -0.081,1.24 -0.242,1.86 -0.114,0.46 -0.206,0.77 -0.275,0.93 -0.345,0.827 -1.056,1.24 -2.136,1.24 -1.24,0 -2.216,-0.39 -2.928,-1.171 -0.643,-0.712 -0.965,-1.447 -0.965,-2.205 0,-0.276 0.115,-0.574 0.345,-0.896 0.413,-0.55 0.62,-0.999 0.62,-1.343 0,-0.368 -0.195,-0.552 -0.586,-0.552 -0.62,0 -1.481,0.425 -2.584,1.275 -1.952,1.516 -2.928,3.239 -2.928,5.168 0,1.033 0.322,1.94 0.965,2.722 0.964,1.171 2.308,1.757 4.03,1.757 0.712,0 1.505,-0.127 2.377,-0.38 2.986,-0.941 5.467,-2.905 7.442,-5.89 1.332,-1.999 1.998,-4.043 1.998,-6.133 0,-1.837 -0.494,-3.433 -1.481,-4.789 -1.378,-1.929 -3.331,-2.893 -5.857,-2.893 -1.975,0 -4.226,0.792 -6.752,2.377 -5.122,3.215 -9.842,8.83 -14.16,16.846 l -1.206,2.309 c -2.716,5.243 -4.56,8.888 -5.55,10.964 -0.6,0.37 -1.207,0.766 -1.822,1.197 l -0.413,0.275 c -0.023,0 -0.104,-0.114 -0.242,-0.344 -0.551,-0.942 -1.125,-1.7 -1.722,-2.274 -1.103,-1.102 -2.515,-1.654 -4.238,-1.654 -0.803,0 -1.55,0.046 -2.24,0.138 a 14.26,14.26 0 0 0 -2.307,0.483 c -2.98,0.925 -5.58,2.64 -7.806,5.14 a 8.567,8.567 0 0 0 -1.565,-2.453 c -1.952,-2.182 -4.662,-3.273 -8.13,-3.273 -3.744,0 -8.028,1.803 -12.85,5.409 l -4.582,3.617 0.24,-0.792 1.103,-3.652 c 3.629,-12.035 6.913,-21.532 9.853,-28.491 2.503,-5.994 5.374,-11.392 8.613,-16.192 a 62.53,62.53 0 0 1 6.408,-8.062 l 3.927,-3.961 c 1.194,-1.218 1.792,-2.206 1.792,-2.963 0,-0.345 -0.219,-0.517 -0.655,-0.517 z m 20.326,62.15 c 3.468,0 5.202,1.538 5.202,4.616 0,1.929 -0.666,4.524 -1.999,7.786 l -0.413,0.965 c -1.217,2.733 -1.883,4.1 -1.998,4.1 0,-0.047 -0.103,-0.23 -0.31,-0.552 -0.919,-1.516 -1.757,-3.606 -2.515,-6.27 l -1.792,-7.132 -0.757,-2.48 c 0,-0.069 0.126,-0.15 0.379,-0.241 a 11.296,11.296 0 0 1 4.203,-0.793 z m -40.997,0.62 c 2.572,0 4.708,0.677 6.408,2.032 1.998,1.585 2.997,3.675 2.997,6.27 a 8.894,8.894 0 0 1 -1.55,5.065 2.86,2.86 0 0 1 -0.413,0.55 c -0.965,1.126 -3.457,1.689 -7.477,1.689 l -4.788,-0.138 c -2.572,0 -5.076,0.172 -7.51,0.517 l -4.548,0.826 c 0.367,-0.55 1.01,-1.71 1.93,-3.479 1.952,-3.652 3.743,-6.385 5.374,-8.2 0.46,-0.505 1.045,-1.044 1.757,-1.618 2.848,-2.343 5.454,-3.514 7.82,-3.514 z M 1102.32,45.29 c -0.942,0 -2.262,0.723 -3.962,2.17 l -3.1,2.894 c -4.065,4.02 -7.752,8.51 -11.06,13.47 -2.043,3.055 -3.812,6.006 -5.305,8.854 -4.295,8.223 -9.014,20.82 -14.159,37.793 -3.124,10.336 -5.466,16.296 -7.028,17.88 -1.217,1.24 -1.826,2.262 -1.826,3.066 0,0.414 0.207,0.62 0.62,0.62 0.138,0 0.333,-0.022 0.586,-0.068 8.084,-1.378 16.422,-2.067 25.011,-2.067 3.262,0 7.224,0.137 11.886,0.413 7.579,0.46 12.85,0.689 15.813,0.689 2.274,0 4.295,-0.126 6.064,-0.379 1.102,-0.16 2.181,-0.39 3.238,-0.69 3.543,-1 6.518,-2.608 8.926,-4.82 -0.7,1.298 -1.664,2.709 -2.898,4.235 -0.735,0.896 -1.102,1.608 -1.102,2.136 0,0.368 0.195,0.551 0.585,0.551 0.39,0 0.873,-0.137 1.447,-0.413 1.31,-0.666 2.55,-1.573 3.721,-2.722 1.562,-1.539 3.365,-4.042 5.409,-7.51 1.998,-3.445 3.433,-5.753 4.306,-6.925 1.103,-1.47 2.297,-2.71 3.583,-3.72 2.366,-1.815 4.708,-2.722 7.028,-2.722 0.505,0 1.022,0.046 1.55,0.138 2.366,0.39 4.284,1.458 5.754,3.204 1.562,1.86 2.342,3.985 2.342,6.373 0,1.608 -0.379,3.193 -1.136,4.754 -0.598,1.654 -2.355,2.446 -5.271,2.377 -0.69,0 -1.287,-0.057 -1.792,-0.172 -0.69,-0.183 -1.458,-0.597 -2.308,-1.24 -0.804,-0.643 -1.677,-0.965 -2.618,-0.965 -1.493,0 -2.78,0.563 -3.86,1.689 -1.124,1.125 -1.687,2.365 -1.687,3.72 0,0.368 0.023,0.7 0.07,1 0.413,2.09 2.273,3.134 5.58,3.134 2.48,0 5.018,-0.666 7.614,-1.998 3.606,-1.837 6.683,-4.502 9.233,-7.993 2.664,-3.629 3.996,-7.074 3.996,-10.335 0,-2.894 -0.93,-5.363 -2.79,-7.407 -2.09,-2.296 -4.778,-3.445 -8.062,-3.445 -3.17,0 -6.89,1.436 -11.162,4.307 -1.975,1.309 -3.571,2.491 -4.789,3.548 l -1.102,0.965 -0.034,-0.034 c 0.298,-1.424 0.447,-2.55 0.447,-3.377 0,-1.447 -0.367,-2.744 -1.102,-3.893 -0.413,-0.62 -0.873,-1.09 -1.378,-1.412 -0.69,-0.46 -1.768,-0.69 -3.238,-0.69 -1.149,0 -1.827,0.012 -2.033,0.035 -1.172,0.046 -2.32,0.218 -3.445,0.517 -3.193,0.873 -5.903,2.55 -8.13,5.03 -0.185,0.205 -0.352,0.4 -0.509,0.59 a 9.014,9.014 0 0 0 -1.8,-2.692 c -1.838,-1.929 -4.157,-2.894 -6.959,-2.894 -3.009,0 -6.488,1.447 -10.439,4.341 -0.872,0.643 -2.55,2.033 -5.03,4.169 -0.275,-1.562 -0.78,-2.951 -1.515,-4.169 -1.769,-2.894 -4.468,-4.34 -8.097,-4.34 -0.367,0 -0.734,0.022 -1.102,0.068 -3.537,0.368 -7.993,2.87 -13.367,7.51 l -0.585,0.483 c 1.492,-5.214 2.905,-9.888 4.237,-14.022 4.777,-14.722 9.865,-26.09 15.262,-34.106 a 62.54,62.54 0 0 1 6.408,-8.062 l 3.927,-3.961 c 1.195,-1.218 1.791,-2.206 1.791,-2.964 0,-0.344 -0.218,-0.516 -0.654,-0.516 z m 25.321,62.15 h 0.413 c 1.034,0 1.895,0.286 2.584,0.86 1.08,0.896 1.62,2.229 1.62,3.997 0,0.597 -0.093,1.332 -0.276,2.205 -0.385,1.909 -0.989,3.897 -1.81,5.963 -0.016,0 -0.032,-0.003 -0.05,-0.003 -0.574,0 -1.08,0.126 -1.516,0.379 l -1.723,1.343 c -2.296,1.608 -6.5,2.412 -12.609,2.412 h -0.723 c 0,-0.046 0.207,-0.275 0.62,-0.689 a 33.022,33.022 0 0 0 2.825,-3.273 c 2.687,-3.606 4.03,-6.993 4.03,-10.163 0,-0.461 -0.027,-0.91 -0.078,-1.345 0.234,-0.143 0.54,-0.344 0.94,-0.619 1.01,-0.712 2.928,-1.067 5.753,-1.067 z m -47.748,0.585 c 0.23,0 0.436,0.012 0.62,0.035 2.87,0.275 4.995,1.584 6.373,3.927 0.896,1.539 1.344,3.1 1.344,4.685 -0.023,1.93 -0.494,3.663 -1.413,5.202 -0.368,0.643 -0.815,1.057 -1.344,1.24 -0.62,0.23 -2.63,0.426 -6.028,0.586 -2.963,0.138 -5.616,0.333 -7.958,0.586 l -6.925,0.93 0.275,-0.482 3.824,-7.028 0.862,-1.447 c 3.376,-5.49 6.833,-8.234 10.37,-8.234 z m 24.804,0.035 c 2.343,0 4.307,0.735 5.892,2.205 1.745,1.653 2.618,3.743 2.618,6.27 -0.092,2.342 -0.838,4.432 -2.24,6.27 -0.137,0.16 -0.355,0.321 -0.654,0.482 -1.194,0.643 -2.756,0.964 -4.685,0.964 -0.666,0 -1.7,-0.045 -3.1,-0.137 -6.11,-0.39 -10.187,-0.586 -12.23,-0.586 h -0.518 c 1.401,-1.516 2.917,-3.571 4.548,-6.167 1.791,-2.848 2.963,-4.627 3.514,-5.34 1.814,-2.273 3.847,-3.582 6.098,-3.927 h 0.034 z"
       style="font-style:italic;font-weight:700;font-size:70.5556px;line-height:1.25;font-family:'Tengwar Annatar';-inkscape-font-specification:'Tengwar Annatar, Bold Italic';fill:none;fill-opacity:1;stroke:#000000;stroke-width:0.264583;stroke-opacity:1"
       transform="translate(1173.024,-40.748)"
       id="path2" /><path
       d="m 1117.03,70.818 q 1.379,0 1.999,1.102 0.207,0.414 0.207,0.93 0,1.517 -2.137,3.067 l -3.031,2.067 q -8.785,6.063 -18.225,11.92 -6.132,3.824 -6.924,3.824 -0.896,0 -1.034,-0.758 -0.034,-0.103 -0.034,-0.207 0,-0.723 1.171,-1.688 8.682,-7.2 18.57,-14.331 l 7.303,-5.168 q 1.206,-0.758 2.136,-0.758 z m 38.827,22.979 q -0.965,0 -1.034,-1.034 0,-0.93 4.789,-7.303 l 8.475,-10.956 2.756,-3.307 q 1.103,-0.965 2.067,-0.965 1.447,0 1.998,1.275 0.173,0.413 0.173,0.896 0,1.343 -2.17,3.755 -6.133,7.131 -12.093,13.298 -4.238,4.34 -4.961,4.34 z M 1265.72,71.163 c -1.974,0 -4.225,0.792 -6.751,2.377 -5.122,3.215 -9.842,8.83 -14.16,16.846 l -1.206,2.309 c -3.052,5.891 -4.994,9.746 -5.865,11.639 a 17.711,17.711 0 0 0 -2.045,2.104 c -0.355,-0.668 -0.783,-1.3 -1.288,-1.892 -2.113,-2.504 -5.018,-3.732 -8.715,-3.687 -3.606,0.046 -7.924,1.976 -12.954,5.788 l -3.928,3.17 c 0.39,-1.333 0.586,-2.516 0.586,-3.55 0,-0.114 -0.011,-0.24 -0.035,-0.378 -0.092,-2.25 -0.908,-3.881 -2.446,-4.892 a 4.566,4.566 0 0 0 -1.378,-0.62 c -0.299,-0.07 -0.93,-0.104 -1.895,-0.104 h -1.723 a 16.969,16.969 0 0 0 -3.548,0.517 c -3.262,0.85 -6.018,2.504 -8.268,4.961 -1.287,1.401 -1.93,2.47 -1.93,3.204 0,0.436 0.218,0.632 0.655,0.586 a 4.889,4.889 0 0 0 1.102,-0.241 c 0.23,-0.07 0.666,-0.333 1.31,-0.792 1.033,-0.712 2.928,-1.069 5.684,-1.069 h 0.413 c 1.08,0 1.964,0.299 2.653,0.896 1.033,0.896 1.55,2.194 1.55,3.893 0,1.401 -0.551,3.606 -1.654,6.615 a 93.116,93.116 0 0 1 -5.201,11.782 l -3.032,5.685 c -15.25,28.226 -32.35,51.021 -51.298,68.384 l -1.55,1.482 c -1.355,1.424 -2.033,2.526 -2.033,3.307 0,0.345 0.207,0.517 0.62,0.517 0.713,0 1.746,-0.506 3.102,-1.516 1.286,-0.965 3.71,-3.17 7.27,-6.615 l 2.273,-2.239 c 17.891,-17.868 34.152,-40.284 48.782,-67.248 2.412,-4.456 4.134,-7.797 5.168,-10.025 l 1.757,-3.583 c 1.677,-2.986 3.468,-5.305 5.374,-6.96 0.529,-0.458 1.068,-0.884 1.62,-1.274 2.388,-1.677 4.65,-2.515 6.786,-2.515 1.401,0 2.906,0.413 4.513,1.24 3.4,1.7 5.099,4.536 5.099,8.51 0,0.872 -0.138,1.803 -0.414,2.79 -0.436,1.677 -0.941,2.757 -1.515,3.239 a 9.958,9.958 0 0 1 -4.513,1.067 c -0.69,0 -1.287,-0.057 -1.792,-0.172 -0.689,-0.183 -1.447,-0.597 -2.274,-1.24 -0.826,-0.643 -1.722,-0.965 -2.687,-0.965 -0.987,0 -1.975,0.322 -2.962,0.965 -1.677,1.103 -2.515,2.596 -2.515,4.479 0,2.733 1.848,4.1 5.546,4.1 0.988,0 1.941,-0.092 2.86,-0.276 1.47,-0.276 2.986,-0.816 4.547,-1.62 3.468,-1.768 6.511,-4.317 9.13,-7.648 2.94,-3.743 4.41,-7.303 4.41,-10.68 0,-1 -0.108,-1.946 -0.317,-2.841 0.196,-0.127 0.421,-0.277 0.695,-0.465 1.01,-0.712 2.928,-1.069 5.753,-1.069 h 0.413 c 1.034,0 1.895,0.288 2.584,0.862 1.08,0.896 1.62,2.228 1.62,3.996 0,0.597 -0.092,1.332 -0.276,2.205 -0.643,3.193 -1.895,6.603 -3.755,10.232 -0.712,1.401 -1.746,2.94 -3.1,4.616 -0.736,0.896 -1.103,1.608 -1.103,2.136 0,0.368 0.195,0.551 0.586,0.551 0.78,0 1.86,-0.516 3.238,-1.55 a 18.116,18.116 0 0 0 1.93,-1.688 c 3.1,-3.1 5.74,-7.476 7.923,-13.126 1.585,-4.042 2.377,-7.177 2.377,-9.405 0,-1.447 -0.367,-2.744 -1.102,-3.893 -0.414,-0.62 -0.873,-1.09 -1.379,-1.412 -0.689,-0.46 -1.768,-0.69 -3.238,-0.69 -1.148,0 -1.826,0.012 -2.033,0.035 a 15.81,15.81 0 0 0 -3.445,0.517 c -0.473,0.13 -0.935,0.277 -1.387,0.442 0.553,-1.12 1.333,-2.726 2.387,-4.921 3.904,-8.061 7.498,-13.85 10.782,-17.363 0.322,-0.345 0.62,-0.643 0.896,-0.896 1.54,-1.424 3.147,-2.136 4.823,-2.136 1.562,0 2.883,0.506 3.962,1.516 1.424,1.286 2.136,2.952 2.136,4.996 0,0.62 -0.08,1.24 -0.241,1.86 -0.115,0.46 -0.207,0.77 -0.276,0.93 -0.344,0.827 -1.056,1.24 -2.135,1.24 -1.24,0 -2.217,-0.39 -2.929,-1.171 -0.643,-0.712 -0.965,-1.447 -0.965,-2.205 0,-0.276 0.115,-0.574 0.345,-0.896 0.413,-0.55 0.62,-0.999 0.62,-1.343 0,-0.368 -0.195,-0.552 -0.585,-0.552 -0.62,0 -1.482,0.425 -2.584,1.275 -1.952,1.516 -2.929,3.239 -2.929,5.168 0,1.033 0.322,1.94 0.965,2.722 0.965,1.171 2.308,1.757 4.031,1.757 0.712,0 1.504,-0.127 2.377,-0.38 2.986,-0.941 5.466,-2.905 7.441,-5.89 1.333,-1.999 1.999,-4.043 1.999,-6.133 0,-1.837 -0.494,-3.433 -1.482,-4.789 -1.378,-1.929 -3.33,-2.893 -5.857,-2.893 z m 24.668,29.11 a 16.967,16.967 0 0 0 -3.549,0.517 c -3.261,0.85 -6.017,2.504 -8.268,4.961 -1.286,1.401 -1.929,2.47 -1.929,3.204 0,0.436 0.218,0.632 0.654,0.586 0.414,-0.046 0.78,-0.126 1.102,-0.241 0.23,-0.07 0.666,-0.333 1.31,-0.792 1.033,-0.712 2.928,-1.069 5.684,-1.069 h 0.413 c 1.08,0 1.964,0.299 2.653,0.896 1.034,0.896 1.55,2.194 1.55,3.893 0,1.401 -0.55,3.606 -1.653,6.615 a 93.133,93.133 0 0 1 -5.202,11.782 l -3.032,5.685 c -15.25,28.226 -32.35,51.021 -51.297,68.384 l -1.55,1.482 c -1.356,1.424 -2.034,2.526 -2.034,3.307 0,0.345 0.207,0.517 0.62,0.517 0.713,0 1.746,-0.506 3.101,-1.516 1.286,-0.965 3.71,-3.17 7.27,-6.615 l 2.273,-2.239 c 17.892,-17.868 34.153,-40.284 48.783,-67.248 2.411,-4.456 4.134,-7.797 5.167,-10.025 l 1.757,-3.583 c 1.677,-2.986 3.468,-5.305 5.375,-6.96 0.528,-0.458 1.068,-0.884 1.619,-1.274 2.388,-1.677 4.651,-2.515 6.787,-2.515 1.401,0 2.905,0.413 4.513,1.24 3.4,1.7 5.099,4.536 5.099,8.51 0,0.872 -0.138,1.803 -0.414,2.79 -0.436,1.677 -0.942,2.757 -1.516,3.239 a 9.959,9.959 0 0 1 -4.513,1.067 c -0.689,0 -1.286,-0.057 -1.791,-0.172 -0.69,-0.183 -1.447,-0.597 -2.274,-1.24 -0.827,-0.643 -1.723,-0.965 -2.687,-0.965 -0.988,0 -1.975,0.322 -2.963,0.965 -1.677,1.103 -2.515,2.596 -2.515,4.479 0,2.733 1.85,4.1 5.547,4.1 0.988,0 1.94,-0.092 2.86,-0.276 1.47,-0.276 2.985,-0.816 4.547,-1.62 3.468,-1.768 6.511,-4.317 9.13,-7.648 2.94,-3.743 4.409,-7.303 4.409,-10.68 0,-0.999 -0.107,-1.945 -0.317,-2.84 0.197,-0.127 0.422,-0.277 0.696,-0.466 1.01,-0.712 2.929,-1.069 5.754,-1.069 h 0.413 c 1.057,0 1.941,0.31 2.653,0.93 1.033,0.896 1.55,2.228 1.55,3.997 0,0.804 -0.195,1.94 -0.585,3.41 a 42.02,42.02 0 0 1 -4.238,10.439 c -0.367,0.666 -1.068,1.585 -2.101,2.756 -0.873,0.988 -1.31,1.803 -1.31,2.446 0,0.414 0.207,0.62 0.62,0.62 0.23,0 0.586,-0.068 1.068,-0.206 a 51.764,51.764 0 0 1 13.85,-1.895 c 1.998,0 4.524,0.15 7.579,0.448 4.708,0.46 7.774,0.689 9.198,0.689 h 1.069 c 2.595,0 5.086,-0.356 7.475,-1.068 3.6,-1.047 6.608,-2.697 9.026,-4.945 -0.703,1.313 -1.677,2.742 -2.928,4.29 -0.735,0.896 -1.102,1.608 -1.102,2.136 0,0.368 0.195,0.551 0.585,0.551 0.804,0 1.803,-0.436 2.997,-1.309 2.642,-1.998 5.237,-5.282 7.786,-9.853 2.228,-3.996 4.054,-6.867 5.478,-8.613 2.297,-2.825 4.686,-4.237 7.166,-4.237 1.286,0 2.664,0.436 4.134,1.309 3.009,1.745 4.513,4.525 4.513,8.337 0,2.205 -0.597,4.226 -1.792,6.064 a 0.534,0.534 0 0 1 -0.103,0.138 c -0.574,0.666 -1.745,0.998 -3.514,0.998 -0.689,0 -1.286,-0.057 -1.79,-0.172 -0.69,-0.16 -1.448,-0.574 -2.275,-1.24 -0.827,-0.643 -1.722,-0.965 -2.687,-0.965 -1.447,0 -2.699,0.529 -3.755,1.585 -1.149,1.149 -1.723,2.458 -1.723,3.928 v 0.344 c 0.184,2.457 2.044,3.686 5.581,3.686 0.529,0 1.068,-0.034 1.62,-0.103 4.386,-0.62 8.693,-3.33 12.919,-8.13 1.286,-1.448 2.733,-3.595 4.34,-6.443 1.631,-2.917 2.791,-4.823 3.48,-5.719 1.86,-2.388 4.054,-3.582 6.58,-3.582 1.149,0 2.263,0.264 3.342,0.792 a 9.27,9.27 0 0 1 1.516,0.965 c 2.457,1.975 3.686,4.593 3.686,7.854 0,1.149 -0.218,2.4 -0.654,3.756 -0.529,1.561 -1,2.468 -1.413,2.721 l -0.138,0.069 c -0.941,0.459 -2.044,0.689 -3.307,0.689 a 6.557,6.557 0 0 1 -1.723,-0.207 c -0.62,-0.16 -1.343,-0.574 -2.17,-1.24 -0.804,-0.643 -1.688,-0.965 -2.653,-0.965 -1.08,0 -2.124,0.356 -3.135,1.068 -1.585,1.08 -2.377,2.492 -2.377,4.238 0,0.574 0.081,1.09 0.241,1.55 0.551,1.792 2.354,2.687 5.409,2.687 1.791,0 3.755,-0.505 5.89,-1.516 3.446,-1.63 6.49,-4.053 9.13,-7.269 3.17,-3.858 4.755,-7.705 4.755,-11.541 0,-3.124 -0.93,-5.707 -2.79,-7.751 -1.907,-2.068 -4.296,-3.101 -7.167,-3.101 -1.814,0 -3.847,0.574 -6.098,1.723 -2.71,1.378 -5.89,3.766 -9.542,7.165 -0.322,-1.607 -0.873,-3.043 -1.654,-4.306 -1.86,-3.055 -4.593,-4.582 -8.2,-4.582 -2.48,0 -5.374,1.091 -8.68,3.273 -2.137,1.378 -3.813,2.653 -5.03,3.824 -0.598,0.551 -0.92,0.827 -0.965,0.827 v -0.035 c 0.16,-1.102 0.241,-1.929 0.241,-2.48 0,-0.46 -0.034,-0.907 -0.103,-1.344 -0.345,-1.906 -1.206,-3.26 -2.584,-4.065 -0.23,-0.114 -0.425,-0.218 -0.586,-0.31 -0.46,-0.183 -1.275,-0.276 -2.446,-0.276 -1.148,0 -1.826,0.012 -2.033,0.035 a 15.81,15.81 0 0 0 -3.445,0.517 c -3.192,0.873 -5.902,2.549 -8.13,5.03 -0.09,0.099 -0.169,0.193 -0.252,0.289 a 9.023,9.023 0 0 0 -1.16,-1.77 c -1.976,-2.32 -4.767,-3.48 -8.372,-3.48 -0.965,0 -1.85,0.092 -2.653,0.276 -1.401,0.298 -2.963,0.884 -4.686,1.757 -3.169,1.584 -6.258,3.697 -9.267,6.338 l -0.62,0.517 c 0.322,-1.401 0.482,-2.572 0.482,-3.514 0,-0.414 -0.034,-0.827 -0.103,-1.24 -0.322,-1.976 -1.183,-3.365 -2.584,-4.169 -0.23,-0.114 -0.425,-0.218 -0.585,-0.31 -0.46,-0.183 -1.275,-0.276 -2.446,-0.276 -1.148,0 -1.826,0.012 -2.033,0.035 -1.171,0.046 -2.32,0.218 -3.445,0.517 -3.192,0.873 -5.903,2.549 -8.13,5.03 -0.184,0.203 -0.348,0.397 -0.504,0.585 -0.355,-0.669 -0.783,-1.3 -1.288,-1.894 -2.113,-2.504 -5.019,-3.733 -8.717,-3.687 -3.605,0.046 -7.923,1.976 -12.953,5.788 l -3.928,3.17 c 0.39,-1.333 0.586,-2.516 0.586,-3.55 a 2.31,2.31 0 0 0 -0.034,-0.378 c -0.092,-2.25 -0.907,-3.882 -2.445,-4.892 a 4.57,4.57 0 0 0 -1.379,-0.62 c -0.298,-0.07 -0.93,-0.104 -1.895,-0.104 z m 87.023,7.166 h 0.413 c 1.034,0 1.895,0.287 2.584,0.861 1.08,0.896 1.62,2.229 1.62,3.997 0,0.597 -0.093,1.332 -0.276,2.205 -0.385,1.909 -0.989,3.897 -1.809,5.963 -0.018,0 -0.033,-0.003 -0.052,-0.003 -0.505,0 -0.999,0.138 -1.481,0.413 l -1.895,1.379 c -2.365,1.607 -5.891,2.41 -10.577,2.41 -1.286,0 -2.228,-0.034 -2.825,-0.103 a 43.504,43.504 0 0 0 2.48,-2.549 c 3.744,-4.249 5.616,-8.142 5.616,-11.679 0,-0.501 -0.036,-0.987 -0.102,-1.459 0.171,-0.112 0.329,-0.214 0.55,-0.367 1.011,-0.712 2.929,-1.067 5.754,-1.067 z m -23.427,0.62 c 2.527,0 4.651,0.678 6.374,2.033 1.998,1.585 2.997,3.663 2.997,6.236 -0.046,2.182 -0.712,4.1 -1.998,5.753 -0.161,0.207 -0.471,0.402 -0.93,0.586 -1.516,0.666 -3.377,0.999 -5.581,0.999 l -5.822,-0.138 c -2.688,0 -5.214,0.172 -7.58,0.517 l -4.444,0.792 c 0,-0.046 0.23,-0.448 0.689,-1.206 3.055,-5.213 5.237,-8.612 6.546,-10.197 0.46,-0.551 1.056,-1.149 1.791,-1.792 2.78,-2.388 5.432,-3.582 7.959,-3.582 z M 1330.557,70.44 c -0.666,0 -1.343,0.275 -2.032,0.826 a 4.109,4.109 0 0 0 -0.31,0.241 c -1.791,1.654 -4.904,4.789 -9.336,9.405 l -8.351,9.153 a 22.579,22.579 0 0 0 -2.467,-0.16 c -0.78,0 -1.561,0.056 -2.342,0.171 -3.216,0.482 -5.914,1.826 -8.096,4.03 -1.08,1.103 -1.62,1.942 -1.62,2.516 0,0.413 0.207,0.62 0.62,0.62 0.322,-0.046 0.977,-0.368 1.964,-0.965 1.585,-1.08 3.377,-1.619 5.375,-1.619 1.7,0 3.961,0.276 6.786,0.827 3.423,0.666 6.018,0.999 7.787,0.999 0.757,0 1.515,-0.057 2.273,-0.172 3.147,-0.482 5.81,-1.803 7.993,-3.962 1.148,-1.125 1.722,-1.998 1.722,-2.619 0,-0.39 -0.206,-0.585 -0.62,-0.585 -0.298,0.046 -0.965,0.368 -1.998,0.965 -1.539,1.08 -3.33,1.619 -5.374,1.619 -1.769,0 -4.054,-0.276 -6.856,-0.827 a 90.655,90.655 0 0 0 -1.546,-0.292 c 0.416,-0.356 0.853,-0.733 1.339,-1.155 6.293,-5.397 11.507,-10.094 15.64,-14.09 1.035,-1.011 1.551,-1.895 1.551,-2.653 v -0.172 c 0,-0.322 -0.057,-0.62 -0.172,-0.896 -0.344,-0.804 -0.988,-1.206 -1.93,-1.206 z m 85.405,17.431 q -0.724,0 -0.93,-0.827 -0.034,-0.137 -0.034,-0.31 0,-0.55 2.101,-5.994 1.585,-4.203 2.377,-5.374 0.93,-1.482 2.343,-1.482 1.343,0 1.93,1.206 0.24,0.482 0.206,1.102 -0.035,1.585 -1.86,4.135 l -3.928,5.408 -0.62,0.93 q -0.758,1.137 -1.585,1.206 z m -19.534,70.935 q -1.688,0 -1.998,-1.62 -0.07,-0.31 -0.07,-0.654 0,-1.102 0.655,-2.205 0.827,-1.412 3.204,-4.375 l 2.446,-3.17 q 0.965,-1.274 1.206,-1.446 0.38,-0.276 0.758,-0.276 0.758,0 0.965,0.827 0.034,0.138 0.034,0.344 0,0.586 -2.515,6.443 -1.482,3.376 -2.136,4.444 -1.103,1.688 -2.55,1.688 z m 114.171,-90.262 c -0.827,0 -1.677,0.127 -2.55,0.38 -2.205,0.688 -4.283,2.009 -6.235,3.961 -2.48,2.48 -3.72,5.019 -3.72,7.614 0.022,0.551 0.136,1.137 0.343,1.757 0.758,2.228 2.228,3.341 4.41,3.341 1.493,-0.069 3.135,-0.86 4.927,-2.377 1.378,-1.24 2.067,-2.285 2.067,-3.134 0,-0.345 -0.207,-0.517 -0.62,-0.517 -0.322,0 -0.678,0.103 -1.069,0.31 l -1.585,0.964 c -0.459,0 -0.964,-0.195 -1.515,-0.585 -1.195,-0.896 -1.792,-2.08 -1.792,-3.549 0,-0.46 0.035,-0.861 0.104,-1.206 0.322,-1.492 1.538,-2.239 3.651,-2.239 0.758,0 1.597,0.195 2.516,0.586 2.48,1.01 3.72,2.813 3.72,5.409 0,1.286 -0.333,2.63 -1,4.03 -1.607,3.446 -4.925,6.97 -9.955,10.577 l -6.443,4.444 a 985.38,985.38 0 0 0 -3.737,2.554 c -0.064,-0.001 -0.126,-0.004 -0.19,-0.004 -3.4,0 -6.672,0.815 -9.819,2.445 -3.123,1.608 -5.833,3.63 -8.13,6.064 -3.537,3.79 -5.305,7.717 -5.305,11.782 0,1.975 0.367,3.56 1.102,4.754 0.896,1.447 2.147,2.17 3.755,2.17 1.08,0 2.125,-0.367 3.135,-1.102 1.562,-1.125 2.343,-2.56 2.343,-4.306 0,-0.413 -0.046,-0.792 -0.138,-1.137 -0.114,-0.39 -0.482,-1.022 -1.102,-1.895 -0.85,-1.24 -1.275,-2.802 -1.275,-4.685 0,-1.654 0.333,-3.135 1,-4.444 0.32,-0.598 1.01,-1.103 2.066,-1.516 1.654,-0.62 3.583,-0.93 5.788,-0.93 1.217,0 2.308,0.16 3.273,0.482 1.01,0.344 2.055,0.919 3.135,1.723 2.986,2.273 4.479,5.27 4.479,8.991 0,0.896 -0.092,1.85 -0.276,2.86 -1.746,9.6 -11.358,24.012 -28.836,43.236 -6.316,6.936 -12.402,13.114 -18.259,18.534 -3.445,3.215 -5.259,4.904 -5.443,5.064 -1.24,1.264 -1.86,2.286 -1.86,3.067 0,0.39 0.207,0.585 0.62,0.585 0.528,0 1.137,-0.218 1.826,-0.654 0.987,-0.575 2.905,-2.17 5.753,-4.789 l 9.44,-9.026 c 12.655,-12.54 23.036,-24.449 31.144,-35.726 9.14,-12.7 13.71,-22.358 13.71,-28.973 0,-3.422 -1.079,-6.328 -3.238,-8.716 -1.445,-1.587 -3.127,-2.683 -5.044,-3.29 l 6.526,-4.496 c 2.32,-1.676 4.628,-3.617 6.924,-5.822 6.11,-5.857 9.164,-10.956 9.164,-15.296 0,-1.608 -0.39,-3.009 -1.17,-4.203 -1.379,-2.044 -3.584,-3.067 -6.615,-3.067 z m -2.412,56.328 q 0,-2.998 2.653,-4.203 0.86,-0.38 1.447,-0.38 h 0.275 q 2.756,0 4.065,2.137 0.69,1.102 0.69,2.411 0,3.17 -2.963,4.272 -0.896,0.31 -1.62,0.31 -2.273,0 -3.651,-1.791 -0.896,-1.172 -0.896,-2.756 z m 5.994,-16.812 q 0,-2.929 2.653,-4.135 0.861,-0.413 1.447,-0.413 h 0.31 q 2.722,0 4.03,2.102 0.69,1.068 0.69,2.446 0,2.308 -1.826,3.686 -1.171,0.861 -2.756,0.861 -2.515,0 -3.79,-1.93 -0.758,-1.136 -0.758,-2.617 z m 68.799,2.032 q 0,-0.896 -0.344,-3.755 -0.276,-2.067 -0.276,-4.892 0,-10.955 5.34,-21.876 l 0.413,-0.827 q 5.753,-11.369 17.984,-24.013 4.685,-4.788 8.681,-8.13 2.515,-2.101 3.928,-2.101 0.55,0 0.55,0.55 0,1.172 -2.514,3.687 l -6.339,6.063 q -2.446,2.446 -4.582,4.858 -15.64,17.604 -15.64,35.76 0,10.749 5.34,20.154 1.136,2.067 2.514,3.927 3.41,4.686 6.58,4.755 h 0.38 q 2.996,0 6.097,-2.205 2.101,-1.482 2.446,-1.654 0.655,-0.31 1.171,-0.31 0.62,0 0.62,0.551 0,1.413 -2.893,4.169 -3.962,3.755 -8.682,5.58 -1.413,0.518 -2.722,0.793 -1.274,0.241 -2.652,0.241 -2.412,0 -4.341,-1.378 -2.377,-1.722 -4.961,-5.719 -1.723,-2.618 -3.066,-5.615 -0.31,-0.724 -0.345,-0.724 -0.034,0 -0.344,0.448 -3.135,4.169 -7.407,7.683 -5.168,4.203 -9.612,4.926 -1,0.173 -2.102,0.173 -3.341,-0.138 -5.546,-2.17 -0.793,-0.759 -0.793,-1.172 0,-1.068 2.17,-3.376 2.62,-2.79 4.583,-3.17 0.207,-0.034 0.448,-0.034 0.275,0 1.102,0.792 2.308,1.86 4.927,1.964 3.996,0 6.924,-4.375 2.55,-3.79 2.928,-8.44 0.035,-0.587 0.035,-1.138 z m 43.477,-1.137 q 0,-1.102 1.93,-3.204 3.376,-3.686 8.268,-4.96 1.757,-0.448 3.548,-0.517 h 1.723 q 1.447,0 1.895,0.103 0.689,0.172 1.378,0.62 2.308,1.516 2.48,4.892 v 0.38 q 0,0.964 -0.345,2.652 4.272,-3.755 7.097,-5.443 4.307,-2.584 7.717,-2.584 5.34,0 8.165,4.513 1.206,1.93 1.688,4.375 9.578,-8.888 15.434,-8.888 4.961,0 7.82,3.548 2.378,2.997 2.378,7.476 0,5.202 -4.41,10.818 -3.858,4.96 -9.026,7.544 -3.445,1.757 -6.408,1.757 -5.58,0 -5.58,-4.134 0,-2.756 2.445,-4.41 1.482,-0.998 3.032,-0.998 1.343,0 2.584,0.93 1.343,1.033 2.48,1.274 0.792,0.173 1.792,0.173 1.963,0 3.031,-0.69 0.276,-0.172 0.414,-0.378 1.826,-2.688 1.826,-6.098 0,-4.617 -3.273,-7.51 -1.688,-1.516 -3.618,-1.964 -0.826,-0.207 -1.826,-0.207 -3.961,0 -7.338,4.892 -0.826,1.206 -3.341,5.65 -1.034,1.895 -1.757,2.894 -2.48,3.514 -6.236,6.442 -4.789,3.755 -9.198,4.1 -0.345,0.034 -0.93,0.034 -5.616,0 -5.616,-4.1 0,-2.824 2.515,-4.478 1.481,-0.965 2.997,-0.965 1.378,0 2.618,0.93 1.378,1.034 2.515,1.275 0.793,0.173 1.757,0.173 2.102,0 3.135,-0.758 0.172,-0.138 0.276,-0.31 1.791,-2.55 1.791,-6.167 0,-4.375 -3.1,-7.304 -1.826,-1.722 -3.962,-2.136 -0.792,-0.172 -1.585,-0.172 -6.787,0 -13.195,13.987 -1.515,3.239 -3.824,7.545 -22.393,42.099 -50.057,69.832 l -2.515,2.48 q -5.34,5.168 -7.269,6.615 -2.033,1.516 -3.1,1.516 -0.62,0 -0.62,-0.517 0,-1.171 2.032,-3.307 l 1.55,-1.481 q 28.422,-26.045 51.298,-68.386 l 3.031,-5.684 q 2.998,-5.685 5.202,-11.782 1.654,-4.513 1.654,-6.615 0,-2.55 -1.55,-3.893 -1.034,-0.896 -2.653,-0.896 h -0.413 q -4.134,0 -5.685,1.068 -0.964,0.69 -1.309,0.793 -0.482,0.172 -1.102,0.24 -0.655,0.07 -0.655,-0.585 z m 62.322,-16.674 q 6.304,0 9.99,-2.687 l 1.999,-1.516 q 0.654,-0.413 1.275,-0.413 0.62,0 0.62,0.585 0,1.378 -2.998,3.721 -6.27,4.926 -14.297,5.099 h -0.654 q -4.341,0 -12.61,-1.55 -8.06,-1.516 -11.678,-1.689 -0.861,-0.034 -1.654,-0.034 -6.27,0 -9.956,2.653 l -2.067,1.55 q -0.724,0.448 -1.378,0.448 -0.655,0 -0.655,-0.586 0,-1.137 2.274,-3.17 3.927,-3.513 9.715,-4.926 2.928,-0.723 5.926,-0.723 4.72,0 12.299,1.481 7.441,1.447 11.093,1.688 1.378,0.069 2.756,0.069 z m 30.248,17.259 q -0.655,0.07 -0.655,-0.585 0,-1.033 1.86,-3.1 3.343,-3.721 8.131,-5.03 1.688,-0.448 3.445,-0.517 0.31,-0.034 2.033,-0.034 1.757,0 2.446,0.275 0.241,0.138 0.586,0.31 2.067,1.206 2.583,4.065 0.104,0.655 0.104,1.344 0,0.827 -0.241,2.48 v 0.035 q 0.069,0 0.964,-0.827 1.826,-1.757 5.03,-3.824 4.961,-3.273 8.682,-3.273 5.409,0 8.2,4.582 1.17,1.895 1.653,4.307 5.477,-5.1 9.543,-7.166 3.376,-1.723 6.097,-1.723 4.307,0 7.166,3.1 2.79,3.067 2.79,7.752 0,5.754 -4.753,11.541 -3.962,4.823 -9.13,7.27 -3.204,1.515 -5.891,1.515 -4.582,0 -5.409,-2.687 -0.241,-0.689 -0.241,-1.55 0,-2.618 2.377,-4.238 1.516,-1.068 3.135,-1.068 1.447,0 2.653,0.965 1.24,1 2.17,1.24 0.758,0.207 1.723,0.207 1.895,0 3.307,-0.689 l 0.138,-0.069 q 0.62,-0.379 1.412,-2.722 0.655,-2.032 0.655,-3.755 0,-4.892 -3.686,-7.855 -0.758,-0.585 -1.516,-0.964 -1.62,-0.793 -3.342,-0.793 -3.79,0 -6.58,3.583 -1.033,1.344 -3.48,5.72 -2.411,4.271 -4.34,6.442 -6.34,7.2 -12.92,8.13 -0.826,0.103 -1.619,0.103 -5.305,0 -5.58,-3.686 v -0.344 q 0,-2.205 1.722,-3.928 1.585,-1.585 3.755,-1.585 1.447,0 2.687,0.965 1.24,1 2.274,1.24 0.758,0.173 1.791,0.173 2.653,0 3.514,-1 0.07,-0.068 0.104,-0.137 1.791,-2.756 1.791,-6.064 0,-5.719 -4.513,-8.337 -2.205,-1.309 -4.134,-1.309 -3.72,0 -7.166,4.237 -2.136,2.619 -5.478,8.613 -3.824,6.856 -7.785,9.853 -1.792,1.31 -2.998,1.31 -0.585,0 -0.585,-0.552 0,-0.792 1.102,-2.136 2.033,-2.515 3.1,-4.616 2.791,-5.444 3.756,-10.232 0.275,-1.31 0.275,-2.205 0,-2.653 -1.619,-3.996 -1.033,-0.862 -2.584,-0.862 h -0.413 q -4.237,0 -5.753,1.068 -1,0.69 -1.31,0.827 -0.413,0.138 -1.033,0.207 z"
       style="font-style:italic;font-weight:700;font-size:70.5556px;line-height:1.25;font-family:'Tengwar Annatar';-inkscape-font-specification:'Tengwar Annatar, Bold Italic';fill:none;fill-opacity:1;stroke:#000000;stroke-width:0.264583;stroke-opacity:1"
       transform="translate(1173.024,-40.748)"
       id="path3" /></g></svg>
