<svg width="11197.233" height="640.193" viewBox="0 0 2962.601 169.384" xml:space="preserve" xmlns="http://www.w3.org/2000/svg"><defs><path id="c" d="M5102.864 458.321h1717.47v2384.194h-1717.47z"/><path id="b" d="M4432.115 396.85h9956.31v1159.893h-9956.31z"/><path id="a" d="M5102.864 458.321h819.794v161.505h-819.794z"/></defs><g style="fill:none;stroke:#000;stroke-opacity:1"><path style="font-style:italic;font-weight:700;font-size:70.5556px;line-height:1.25;font-family:'Tengwar Annatar';-inkscape-font-specification:'Tengwar Annatar, Bold Italic';fill:none;fill-opacity:1;stroke:#000;stroke-width:.264583;stroke-opacity:1" d="M-373.146 68.51c-.345 0-.62.011-.828.034-.206 0-.459.035-.757.103-5.558.827-12.38 5.605-20.464 14.332l-12.712 14.297c-4.02 4.548-6.087 6.914-6.202 7.097-.06.087-.113.17-.163.251-1.782 1.19-3.21 2.302-4.28 3.332-.598.551-.92.827-.966.827v-.035c.161-1.102.242-1.929.242-2.48 0-.46-.035-.907-.104-1.344-.344-1.906-1.205-3.26-2.583-4.065-.23-.114-.426-.218-.586-.31-.46-.183-1.275-.276-2.446-.276-1.149 0-1.826.012-2.033.035-1.171.046-2.32.218-3.445.517-3.192.873-5.902 2.55-8.13 5.03-1.24 1.378-1.86 2.411-1.86 3.1 0 .436.217.632.654.586a5.107 5.107 0 0 0 1.033-.207c.207-.092.644-.368 1.31-.827 1.01-.712 2.928-1.068 5.753-1.068h.413c1.034 0 1.895.287 2.584.861 1.08.896 1.62 2.229 1.62 3.997 0 .597-.093 1.332-.276 2.205-.643 3.192-1.895 6.603-3.756 10.231-.712 1.401-1.745 2.94-3.1 4.617-.735.896-1.103 1.608-1.103 2.136 0 .368.196.551.586.551.804 0 1.803-.436 2.997-1.309 2.641-1.998 5.237-5.282 7.786-9.853 2.228-3.996 4.054-6.867 5.478-8.613 2.297-2.825 4.685-4.237 7.166-4.237 1.286 0 2.664.436 4.134 1.309 3.009 1.745 4.513 4.525 4.513 8.337 0 2.205-.597 4.226-1.792 6.064a.542.542 0 0 1-.103.138c-.574.666-1.746.998-3.514.998-.689 0-1.286-.057-1.791-.172-.69-.16-1.447-.574-2.274-1.24-.827-.643-1.722-.965-2.687-.965-1.447 0-2.699.529-3.755 1.585-1.149 1.149-1.723 2.458-1.723 3.928v.344c.184 2.457 2.044 3.686 5.581 3.686.529 0 1.068-.034 1.62-.103 4.386-.62 8.692-3.33 12.918-8.13 1.287-1.448 2.734-3.595 4.341-6.443 1.63-2.917 2.79-4.823 3.48-5.719 1.86-2.388 4.054-3.582 6.58-3.582 1.148 0 2.262.264 3.342.792.505.252 1.01.574 1.516.965 2.457 1.975 3.686 4.593 3.686 7.854 0 1.149-.219 2.4-.655 3.756-.528 1.561-.999 2.468-1.412 2.721l-.138.069c-.942.459-2.044.689-3.308.689a6.557 6.557 0 0 1-1.722-.207c-.62-.16-1.344-.574-2.17-1.24-.804-.643-1.688-.965-2.653-.965-1.08 0-2.125.356-3.135 1.068-1.585 1.08-2.377 2.492-2.377 4.238 0 .574.08 1.09.241 1.55.551 1.792 2.354 2.687 5.409 2.687 1.791 0 3.755-.505 5.89-1.516 3.446-1.63 6.49-4.053 9.13-7.269 3.17-3.858 4.755-7.705 4.755-11.541 0-3.124-.93-5.707-2.79-7.751-1.907-2.068-4.296-3.101-7.167-3.101-1.814 0-3.847.574-6.098 1.723-2.71 1.378-5.89 3.766-9.542 7.165-.322-1.607-.873-3.043-1.654-4.306-1.86-3.055-4.594-4.582-8.2-4.582-1.083 0-2.245.209-3.487.625 2.375-2.66 6.16-6.921 11.756-13.234 3.583-4.065 4.616-5.236 3.1-3.514 6.822-7.625 12.277-11.438 16.365-11.438.689 0 1.332.093 1.929.276a6.5 6.5 0 0 1 1.343.655c1.907 1.24 2.86 2.986 2.86 5.236 0 .827-.15 1.63-.448 2.412-.344 1.263-1.32 1.895-2.928 1.895-1.287 0-2.297-.448-3.032-1.344-.597-.712-.896-1.424-.896-2.136 0-.46.207-.953.62-1.481.483-.62.724-1.137.724-1.55 0-.345-.207-.517-.62-.517-.988.091-2.17.827-3.549 2.205-1.562 1.7-2.342 3.353-2.342 4.96 0 .896.24 1.711.723 2.446.942 1.447 2.423 2.17 4.444 2.17.919 0 1.838-.149 2.757-.447 2.595-.827 4.88-2.526 6.855-5.099 1.883-2.457 2.825-4.834 2.825-7.13 0-1.7-.47-3.194-1.412-4.48-1.378-1.906-3.342-2.859-5.891-2.859zM-412.696 158.806q-1.688 0-1.998-1.62-.07-.31-.07-.654 0-1.102.655-2.205.827-1.412 3.204-4.375l2.446-3.17q.965-1.274 1.206-1.446.379-.276.758-.276.758 0 .965.827.034.138.034.344 0 .586-2.515 6.443-1.481 3.376-2.136 4.444-1.102 1.688-2.55 1.688zM-287.363 100.067c-2.021 0-4.226.138-6.615.413-2.044.253-4.031.69-5.96 1.31-3.796 1.232-6.989 2.938-9.581 5.116.023-.292.038-.576.038-.845 0-1.033-.127-1.906-.38-2.618-.711-2.113-2.778-3.17-6.2-3.17-3.63 0-7.626 1.528-11.99 4.583l-.413.275c-.023 0-.103-.114-.24-.344-.552-.942-1.126-1.7-1.723-2.274-1.103-1.102-2.515-1.654-4.238-1.654-.804 0-1.55.046-2.239.138-.758.092-1.528.253-2.308.483-3.032.941-5.673 2.698-7.924 5.27-1.148 1.333-1.722 2.274-1.722 2.825.023.276.24.46.654.552.23 0 .436-.023.62-.07.367-.068.884-.344 1.55-.826 1.103-.804 2.687-1.206 4.755-1.206 2.549 0 4.57 1.987 6.063 5.96.414 1.08 1.08 3.422 1.998 7.028l.896 3.583c1.171 4.203 2.79 7.338 4.858 9.405l.482.517-4.203 6.752c-10.45 16.192-24.426 32.247-41.927 48.163-2.595 2.366-3.893 4.042-3.893 5.03 0 .367.218.551.654.551.85 0 2.17-.735 3.962-2.205.781-.643 2.871-2.56 6.27-5.753 18.42-17.318 33.097-34.888 44.03-52.71l3.65-6.133c1.31-2.32 2.458-4.444 3.446-6.373 2.076-4.01 3.565-7.432 4.468-10.269l2.215-1.686c2.917-2.067 7.58-3.192 13.987-3.376.552 0 .827.012.827.035l-.034.034-.93.861c-5.696 5.145-8.544 10.14-8.544 14.987 0 2.64.815 4.857 2.446 6.649 1.837 1.975 4.203 2.962 7.097 2.962 4.34 0 9.45-2.514 15.33-7.544l.07.138c.206 1.378.85 2.71 1.929 3.996 1.906 2.274 4.386 3.41 7.44 3.41.736 0 1.471-.068 2.206-.206 2.664-.529 5.73-2.148 9.198-4.858 1.31-1.033 1.987-1.55 2.033-1.55l-.93 2.618c-1.172 3.239-2.596 6.546-4.272 9.922-6.316 12.747-15.595 25.7-27.836 38.86l-6.753 6.96-11.472 10.955c-4.065 3.744-6.293 5.81-6.684 6.201-1.355 1.355-2.032 2.435-2.032 3.239 0 .39.206.585.62.585 1.01 0 2.446-.838 4.306-2.514 3.17-2.756 7.04-6.328 11.61-10.715l9.13-8.957c13.16-13.39 23.438-26.286 30.833-38.689 2.274-3.812 4.249-7.44 5.926-10.886 2.182-4.455 4.249-9.612 6.2-15.469 1.448-4.363 2.665-7.521 3.653-9.473 3.054-.575 5.627-1.964 7.717-4.17 1.171-1.216 1.757-2.158 1.757-2.824 0-.436-.23-.655-.69-.655-.39 0-.86.161-1.412.483-1.24.689-3.066 1.033-5.477 1.033-10.68.046-20.809-.31-30.386-1.068-6.844-.528-12.15-.792-15.916-.792zm.378 6.511c.299 0 .69.012 1.172.035l15.4 1.136-2.412 2.516c-1.884 2.09-3.4 4.478-4.548 7.165-.804 1.93-1.424 3.193-1.86 3.79-.666.896-1.574 1.665-2.722 2.308-1.676.896-3.296 1.343-4.857 1.343-1.976 0-3.721-.596-5.237-1.79-2.09-1.654-3.135-3.928-3.135-6.822 0-.344.023-.689.07-1.034.298-2.618 1.56-4.846 3.789-6.683 1.584-1.31 3.031-1.964 4.34-1.964zm-35.553.861c3.468 0 5.202 1.54 5.202 4.617 0 1.929-.666 4.524-1.998 7.786l-.413.965c-1.218 2.733-1.884 4.1-1.999 4.1 0-.047-.103-.23-.31-.552-.918-1.516-1.756-3.606-2.514-6.27l-1.792-7.132-.758-2.48c0-.069.127-.15.38-.241a11.297 11.297 0 0 1 4.202-.793zm59.738.655 14.538.276h.276c-.436.666-1.493 2.607-3.17 5.822-2.342 4.525-4.076 7.257-5.201 8.199l-.69.551c-1.7 1.287-3.399 1.93-5.098 1.93-1.149 0-2.4-.333-3.756-1-3.054-1.492-4.582-4.03-4.582-7.613 0-.46.07-1.034.207-1.723.505-2.572 1.355-4.271 2.55-5.098 1.332-.896 2.974-1.344 4.926-1.344zM-266.038 87.871q-.724 0-.93-.827-.035-.137-.035-.31 0-.55 2.101-5.994 1.585-4.203 2.378-5.374.93-1.482 2.342-1.482 1.344 0 1.93 1.206.24.482.206 1.102-.034 1.585-1.86 4.135l-3.928 5.408-.62.93q-.758 1.137-1.584 1.206zM-251.328 92.281q6.305 0 9.99-2.687l2-1.516q.654-.413 1.274-.413t.62.585q0 1.378-2.997 3.721-6.27 4.926-14.297 5.099h-.655q-4.34 0-12.61-1.55-8.06-1.516-11.678-1.689-.861-.034-1.654-.034-6.27 0-9.956 2.653l-2.067 1.55q-.724.448-1.378.448-.655 0-.655-.586 0-1.137 2.274-3.17 3.928-3.513 9.715-4.926 2.929-.723 5.926-.723 4.72 0 12.299 1.481 7.441 1.447 11.093 1.688 1.378.069 2.756.069zM-144.15 71.163c-1.976 0-4.227.792-6.753 2.377-5.122 3.215-9.842 8.83-14.16 16.846l-1.205 2.309c-3.053 5.891-4.994 9.746-5.866 11.639a17.72 17.72 0 0 0-1.541 1.52c-.182.203-.35.397-.505.584-.354-.668-.782-1.3-1.287-1.892-2.113-2.504-5.018-3.732-8.716-3.687-3.606.046-7.923 1.976-12.953 5.788l-3.928 3.17c.39-1.333.586-2.516.586-3.55 0-.114-.012-.24-.035-.378-.092-2.25-.907-3.881-2.446-4.892a4.569 4.569 0 0 0-1.378-.62c-.298-.07-.93-.104-1.894-.104h-1.723a16.963 16.963 0 0 0-3.548.517c-3.262.85-6.018 2.504-8.269 4.961-1.286 1.401-1.93 2.47-1.93 3.204 0 .436.22.632.656.586.413-.046.78-.126 1.102-.241.23-.07.666-.333 1.31-.792 1.033-.712 2.928-1.069 5.684-1.069h.413c1.08 0 1.964.299 2.653.896 1.033.896 1.55 2.194 1.55 3.893 0 1.401-.551 3.606-1.654 6.615a93.11 93.11 0 0 1-5.202 11.782l-3.031 5.685c-15.25 28.226-32.35 51.021-51.298 68.384l-1.55 1.482c-1.355 1.424-2.033 2.526-2.033 3.307 0 .345.207.517.62.517.712 0 1.746-.506 3.101-1.516 1.286-.965 3.709-3.17 7.269-6.615l2.274-2.239c17.891-17.868 34.152-40.284 48.782-67.248 2.412-4.456 4.134-7.797 5.168-10.025l1.757-3.583c1.676-2.986 3.468-5.305 5.374-6.96.528-.458 1.069-.884 1.62-1.274 2.388-1.677 4.65-2.515 6.786-2.515 1.401 0 2.906.413 4.513 1.24 3.4 1.7 5.1 4.536 5.1 8.51 0 .872-.139 1.803-.414 2.79-.437 1.677-.942 2.757-1.516 3.239a9.96 9.96 0 0 1-4.513 1.067c-.69 0-1.286-.057-1.791-.172-.69-.183-1.447-.597-2.274-1.24s-1.723-.965-2.687-.965c-.988 0-1.976.322-2.963.965-1.677 1.103-2.515 2.596-2.515 4.479 0 2.733 1.849 4.1 5.546 4.1.988 0 1.941-.092 2.86-.276 1.47-.276 2.985-.816 4.547-1.62 3.468-1.768 6.512-4.317 9.13-7.648 2.94-3.743 4.41-7.303 4.41-10.68 0-1-.107-1.946-.317-2.84.196-.128.422-.277.696-.466 1.01-.712 2.928-1.069 5.753-1.069h.413c1.034 0 1.895.288 2.584.862 1.08.896 1.62 2.228 1.62 3.996 0 .597-.093 1.332-.276 2.205-.643 3.193-1.895 6.603-3.756 10.232-.712 1.401-1.745 2.94-3.1 4.616-.735.896-1.102 1.608-1.102 2.136 0 .368.195.551.585.551.78 0 1.86-.516 3.239-1.55a18.114 18.114 0 0 0 1.929-1.688c3.1-3.1 5.742-7.476 7.924-13.126 1.584-4.042 2.377-7.177 2.377-9.405 0-1.447-.368-2.744-1.103-3.893-.413-.62-.872-1.09-1.378-1.412-.689-.46-1.768-.69-3.238-.69-1.149 0-1.826.012-2.033.035-1.171.046-2.32.218-3.445.517-.473.13-.935.277-1.387.442.553-1.12 1.333-2.726 2.386-4.921 3.904-8.061 7.499-13.85 10.783-17.363.322-.345.62-.643.896-.896 1.539-1.424 3.147-2.136 4.823-2.136 1.562 0 2.882.506 3.962 1.516 1.424 1.286 2.136 2.952 2.136 4.996 0 .62-.08 1.24-.241 1.86-.115.46-.207.77-.276.93-.344.827-1.056 1.24-2.136 1.24-1.24 0-2.216-.39-2.928-1.171-.643-.712-.965-1.447-.965-2.205 0-.276.115-.574.345-.896.413-.55.62-.999.62-1.343 0-.368-.195-.552-.586-.552-.62 0-1.481.425-2.584 1.275-1.952 1.516-2.928 3.239-2.928 5.168 0 1.033.321 1.94.965 2.722.964 1.171 2.308 1.757 4.03 1.757.712 0 1.505-.127 2.377-.38 2.986-.941 5.467-2.905 7.442-5.89 1.332-1.999 1.998-4.043 1.998-6.133 0-1.837-.494-3.433-1.481-4.789-1.378-1.929-3.33-2.893-5.857-2.893zM-119.484 100.273a16.967 16.967 0 0 0-3.548.517c-3.262.85-6.018 2.504-8.269 4.961-1.286 1.401-1.929 2.47-1.929 3.204 0 .436.218.632.655.586a4.887 4.887 0 0 0 1.102-.241c.23-.07.666-.333 1.31-.792 1.033-.712 2.928-1.069 5.684-1.069h.413c1.057 0 1.93.288 2.619.862 1.08.896 1.619 2.205 1.619 3.927 0 .781-.173 1.791-.517 3.032-1.103 4.295-3.63 10.174-7.58 17.639l-1.825 3.41c-15.205 28.204-32.304 51-51.298 68.385l-1.55 1.482c-1.355 1.424-2.033 2.526-2.033 3.307 0 .345.207.517.62.517.713 0 1.746-.506 3.101-1.516 1.286-.965 3.709-3.17 7.269-6.615l1.206-1.17c18.35-18.122 34.968-40.883 49.85-68.283l.552-1.033a144.552 144.552 0 0 1 20.601-1.481c1.953 0 5.248.114 9.888.344 10.358.528 16.215.793 17.57.793 1.447 0 2.71-.047 3.79-.138a29.631 29.631 0 0 0 5.201-.862c3.895-1.043 7.079-2.728 9.553-5.052a92.563 92.563 0 0 1-2.731 5.638l-3.032 5.685c-15.25 28.226-32.35 51.021-51.297 68.384l-1.55 1.482c-1.356 1.424-2.034 2.526-2.034 3.307 0 .345.207.517.62.517.713 0 1.746-.506 3.101-1.516 1.286-.965 3.71-3.17 7.27-6.615l2.515-2.48c18.442-18.489 35.128-41.766 50.056-69.832 1.54-2.871 2.814-5.386 3.825-7.545 4.271-9.325 8.67-13.987 13.195-13.987a7.44 7.44 0 0 1 1.584.173c1.424.275 2.745.987 3.962 2.135 2.067 1.953 3.1 4.387 3.1 7.304 0 2.411-.596 4.467-1.79 6.167a1.167 1.167 0 0 1-.276.31c-.69.505-1.735.757-3.136.757a8.284 8.284 0 0 1-1.757-.172c-.758-.16-1.596-.585-2.514-1.274-.827-.62-1.7-.93-2.619-.93-1.01 0-2.01.321-2.997.964-1.677 1.103-2.515 2.596-2.515 4.479 0 2.733 1.872 4.1 5.616 4.1.39 0 .7-.012.93-.035 2.94-.23 6.006-1.596 9.198-4.1 2.504-1.952 4.582-4.1 6.236-6.442.482-.666 1.068-1.63 1.757-2.894 1.677-2.963 2.79-4.846 3.342-5.65 2.25-3.261 4.697-4.892 7.338-4.892.666 0 1.275.069 1.826.207 1.286.298 2.492.953 3.617 1.963 2.182 1.93 3.273 4.433 3.273 7.511 0 2.274-.609 4.306-1.826 6.098-.092.138-.23.264-.413.379-.712.459-1.723.688-3.032.688a8.463 8.463 0 0 1-1.791-.172c-.758-.16-1.585-.585-2.48-1.274-.828-.62-1.689-.93-2.585-.93-1.033 0-2.044.333-3.031.999-1.631 1.102-2.446 2.572-2.446 4.41 0 2.755 1.86 4.133 5.58 4.133 1.976 0 4.112-.585 6.409-1.757 3.445-1.722 6.453-4.237 9.025-7.544 2.94-3.744 4.41-7.35 4.41-10.818 0-2.985-.792-5.478-2.377-7.476-1.906-2.365-4.513-3.548-7.82-3.548-3.905 0-9.05 2.962-15.434 8.888-.322-1.63-.884-3.089-1.688-4.375-1.884-3.009-4.605-4.513-8.165-4.513-2.274 0-4.847.86-7.718 2.583-1.883 1.126-4.248 2.94-7.096 5.444.23-1.125.344-2.01.344-2.653v-.379c-.114-2.25-.941-3.881-2.48-4.892a4.569 4.569 0 0 0-1.378-.62c-.299-.07-.93-.104-1.895-.104h-1.723a16.967 16.967 0 0 0-3.548.517c-3.262.85-6.018 2.504-8.268 4.961-.234.255-.44.495-.63.728a9.058 9.058 0 0 0-1.747-2.692c-1.837-1.952-4.192-2.927-7.063-2.927-3.008 0-6.465 1.435-10.37 4.306-.895.666-2.595 2.067-5.098 4.203-.276-1.54-.77-2.917-1.482-4.135-1.768-2.916-4.478-4.374-8.13-4.374-2.894 0-6.316 1.423-10.266 4.271-1.401 1.01-2.595 1.94-3.583 2.79-.827.713-1.252 1.069-1.275 1.069v-.035c.253-.78.379-1.676.379-2.687 0-.505-.035-.988-.104-1.447-.482-3.032-2.365-4.547-5.65-4.547zm63.562 7.166h.413c1.08 0 1.964.299 2.653.896 1.034.896 1.55 2.194 1.55 3.893 0 1.401-.55 3.606-1.653 6.615-.197.544-.4 1.085-.606 1.624a2.88 2.88 0 0 0-1.392.374l-1.757 1.31c-2.343 1.63-6.569 2.445-12.678 2.445-.46 0-.689-.012-.689-.035 0-.023.207-.24.62-.654 4.57-4.662 6.856-9.14 6.856-13.436 0-.437-.031-.859-.076-1.272.249-.128.605-.356 1.074-.691 1.034-.712 2.929-1.069 5.685-1.069zm-47.852.586c1.171 0 2.412.322 3.72.965 3.078 1.493 4.617 4.054 4.617 7.682 0 1.792-.425 3.434-1.275 4.927-.344.597-.586.976-.723 1.137-.115.114-.448.24-1 .378-1.125.276-2.537.448-4.237.517-4.984.253-10.347.804-16.089 1.654h-.034c0-.023.126-.31.379-.861l.93-1.895a54.771 54.771 0 0 1 2.515-5.064c3.606-6.293 7.338-9.44 11.197-9.44zm24.805.035c2.159 0 4.019.642 5.58 1.929 1.953 1.63 2.929 3.8 2.929 6.51-.046 2.39-.78 4.48-2.205 6.271-.551.643-1.849 1.102-3.893 1.378-.23 0-.666.023-1.31.07l-14.434-.69c-.551 0-1.057-.023-1.516-.069 1.493-1.608 3.066-3.744 4.72-6.408 1.7-2.733 2.825-4.444 3.376-5.133 1.723-2.159 3.72-3.433 5.995-3.824h.034zM-17.061 87.871q-.724 0-.93-.827-.035-.137-.035-.31 0-.55 2.102-5.994 1.584-4.203 2.377-5.374.93-1.482 2.342-1.482 1.344 0 1.93 1.206.24.482.206 1.102-.034 1.585-1.86 4.135l-3.927 5.408-.62.93q-.758 1.137-1.585 1.206zM-2.35 92.281q6.304 0 9.99-2.687l1.998-1.516q.655-.413 1.275-.413.62 0 .62.585 0 1.378-2.997 3.721-6.27 4.926-14.297 5.099h-.655q-4.34 0-12.609-1.55-8.061-1.516-11.679-1.689-.861-.034-1.653-.034-6.27 0-9.957 2.653L-44.38 98q-.723.448-1.378.448-.654 0-.654-.586 0-1.137 2.273-3.17 3.928-3.513 9.716-4.926 2.928-.723 5.925-.723 4.72 0 12.3 1.481 7.44 1.447 11.092 1.688 1.378.069 2.756.069zM77.576 68.544c-.827 0-1.677.127-2.55.38-2.204.688-4.283 2.009-6.235 3.961-2.48 2.48-3.721 5.019-3.721 7.614.023.551.138 1.137.345 1.757.758 2.228 2.227 3.341 4.41 3.341 1.492-.069 3.134-.86 4.925-2.377 1.379-1.24 2.068-2.285 2.068-3.134 0-.345-.207-.517-.62-.517-.322 0-.678.103-1.068.31l-1.585.964c-.46 0-.965-.195-1.516-.585-1.194-.896-1.791-2.08-1.791-3.549 0-.46.034-.861.103-1.206.321-1.492 1.539-2.239 3.652-2.239.758 0 1.596.195 2.514.586 2.48 1.01 3.721 2.813 3.721 5.409 0 1.286-.333 2.63-.999 4.03-1.607 3.446-4.926 6.97-9.956 10.577L62.83 98.31a988.354 988.354 0 0 0-3.737 2.554c-.064-.001-.127-.004-.19-.004-3.4 0-6.673.815-9.82 2.445-3.123 1.608-5.833 3.63-8.13 6.064-3.537 3.79-5.305 7.717-5.305 11.782 0 1.975.367 3.56 1.102 4.754.896 1.447 2.148 2.17 3.756 2.17 1.079 0 2.124-.367 3.134-1.102 1.562-1.125 2.343-2.56 2.343-4.306 0-.413-.046-.792-.138-1.137-.115-.39-.482-1.022-1.102-1.895-.85-1.24-1.275-2.802-1.275-4.685 0-1.654.333-3.135 1-4.444.32-.598 1.01-1.103 2.066-1.516 1.654-.62 3.583-.93 5.788-.93 1.217 0 2.308.16 3.273.482 1.01.344 2.055.919 3.135 1.723 2.986 2.273 4.479 5.27 4.479 8.991 0 .896-.092 1.85-.276 2.86-1.745 9.6-11.357 24.012-28.835 43.236-6.316 6.936-12.403 13.114-18.26 18.534-3.445 3.215-5.259 4.904-5.443 5.064-1.24 1.264-1.86 2.286-1.86 3.067 0 .39.207.585.62.585.528 0 1.137-.218 1.826-.654.987-.575 2.905-2.17 5.753-4.789l9.44-9.026c12.655-12.54 23.036-24.449 31.143-35.726 9.141-12.7 13.712-22.358 13.712-28.973 0-3.422-1.08-6.328-3.238-8.716-1.445-1.587-3.128-2.683-5.045-3.29l6.526-4.496c2.32-1.676 4.628-3.617 6.924-5.822 6.11-5.857 9.165-10.956 9.165-15.296 0-1.608-.39-3.009-1.172-4.203-1.378-2.044-3.583-3.067-6.614-3.067zM78.127 116.466q0-2.963 2.687-4.203.861-.38 1.413-.38h.172q2.86 0 4.168 2.137.69 1.102.69 2.446 0 2.377-1.93 3.72-1.171.827-2.653.827-2.342 0-3.686-1.791-.861-1.172-.861-2.756z" transform="translate(1173.024 -40.748)"/></g></svg>