<svg width="11197.233" height="640.193" viewBox="0 0 2962.601 169.384" xml:space="preserve" xmlns="http://www.w3.org/2000/svg"><defs><path id="c" d="M5102.864 458.321h1717.47v2384.194h-1717.47z"/><path id="b" d="M4432.115 396.85h9956.31v1159.893h-9956.31z"/><path id="a" d="M5102.864 458.321h819.794v161.505h-819.794z"/></defs><g style="fill:none;stroke:#000;stroke-opacity:1"><path d="M875.46 108.955q0-1.102 1.93-3.204 3.376-3.686 8.268-4.96 1.757-.448 3.548-.517h1.723q1.447 0 1.895.103.689.172 1.378.62 2.308 1.516 2.48 4.892v.38q0 .964-.344 2.652 4.272-3.755 7.097-5.443 4.306-2.584 7.717-2.584 5.34 0 8.164 4.513 1.206 1.93 1.689 4.375 9.577-8.888 15.434-8.888 4.96 0 7.82 3.548 2.377 2.997 2.377 7.476 0 5.202-4.41 10.818-3.858 4.96-9.026 7.544-3.445 1.757-6.408 1.757-5.58 0-5.58-4.134 0-2.756 2.445-4.41 1.482-.998 3.032-.998 1.344 0 2.584.93 1.343 1.033 2.48 1.274.793.173 1.792.173 1.963 0 3.031-.69.276-.172.414-.378 1.826-2.688 1.826-6.098 0-4.617-3.273-7.51-1.688-1.516-3.618-1.964-.826-.207-1.825-.207-3.962 0-7.338 4.892-.827 1.206-3.342 5.65-1.034 1.895-1.757 2.894-2.48 3.514-6.236 6.442-4.789 3.755-9.198 4.1-.345.034-.93.034-5.616 0-5.616-4.1 0-2.824 2.515-4.478 1.481-.965 2.997-.965 1.378 0 2.618.93 1.379 1.034 2.515 1.275.793.173 1.757.173 2.102 0 3.135-.758.173-.138.276-.31 1.792-2.55 1.792-6.167 0-4.375-3.101-7.304-1.826-1.722-3.962-2.136-.792-.172-1.585-.172-6.787 0-13.194 13.987-1.516 3.239-3.824 7.545-22.394 42.099-50.058 69.832l-2.515 2.48q-5.34 5.168-7.269 6.615-2.032 1.516-3.1 1.516-.62 0-.62-.517 0-1.171 2.032-3.307l1.55-1.481q28.422-26.045 51.298-68.386l3.032-5.684q2.997-5.684 5.202-11.782 1.653-4.513 1.653-6.615 0-2.55-1.55-3.893-1.034-.896-2.653-.896h-.413q-4.134 0-5.685 1.068-.964.69-1.309.793-.482.172-1.102.241-.655.069-.655-.586zM937.782 92.281q6.305 0 9.99-2.687l1.999-1.516q.655-.413 1.275-.413.62 0 .62.585 0 1.378-2.997 3.721-6.27 4.926-14.298 5.099h-.654q-4.341 0-12.61-1.55-8.06-1.516-11.678-1.689-.861-.034-1.654-.034-6.27 0-9.956 2.653L895.752 98q-.724.448-1.378.448-.655 0-.655-.586 0-1.137 2.274-3.17 3.927-3.513 9.715-4.926 2.929-.723 5.926-.723 4.72 0 12.299 1.481 7.441 1.447 11.093 1.688 1.378.069 2.756.069zM1018.949 45.29c-.942 0-2.263.723-3.962 2.17l-3.1 2.894c-4.066 4.02-7.752 8.51-11.06 13.47-2.044 3.055-3.812 6.006-5.305 8.854-4.295 8.223-9.014 20.82-14.16 37.793-3.123 10.336-5.465 16.296-7.027 17.88-1.217 1.24-1.826 2.262-1.826 3.066 0 .414.195.62.586.62.206 0 .608-.08 1.205-.24 4.341-1.241 8.854-1.861 13.54-1.861 2.02 0 4.524.15 7.51.448 4.685.482 7.878.723 9.577.723 1.86 0 3.606-.138 5.237-.413a22.502 22.502 0 0 0 3.169-.724c3.675-1.125 6.776-2.95 9.302-5.477 1.47-1.47 2.205-2.584 2.205-3.342 0-.46-.241-.69-.724-.69a2.95 2.95 0 0 0-1.48.414l-1.896 1.379c-2.274 1.607-5.684 2.41-10.232 2.41-1.424 0-2.377-.034-2.86-.103h-.172a28.26 28.26 0 0 0 2.033-2.032c3.996-4.295 5.994-8.348 5.994-12.161 0-.314-.013-.621-.037-.922.103-.07.203-.135.314-.215 1.102-.804 2.687-1.206 4.754-1.206 2.55 0 4.57 1.987 6.063 5.96.413 1.08 1.08 3.422 1.998 7.028l.896 3.583c1.171 4.203 2.79 7.338 4.857 9.405l.483.517-4.203 6.752c-10.45 16.192-24.426 32.247-41.927 48.163-2.595 2.366-3.893 4.042-3.893 5.03 0 .367.218.55.655.55.85 0 2.17-.734 3.962-2.204.78-.643 2.87-2.56 6.27-5.753 18.42-17.318 33.095-34.888 44.028-52.71l3.652-6.133a179.57 179.57 0 0 0 3.445-6.373c3.674-7.097 5.512-12.357 5.512-15.779 0-1.033-.126-1.906-.379-2.618-.712-2.113-2.779-3.17-6.201-3.17-1.68 0-3.44.332-5.278.987.554-1.12 1.333-2.724 2.384-4.914 3.904-8.061 7.499-13.85 10.783-17.363.321-.345.62-.643.896-.896 1.539-1.424 3.146-2.136 4.823-2.136 1.562 0 2.882.506 3.962 1.516 1.424 1.286 2.136 2.952 2.136 4.996 0 .62-.081 1.24-.242 1.86-.114.46-.206.77-.275.93-.345.827-1.056 1.24-2.136 1.24-1.24 0-2.216-.39-2.928-1.171-.643-.712-.965-1.447-.965-2.205 0-.276.115-.574.345-.896.413-.55.62-.999.62-1.343 0-.368-.195-.552-.586-.552-.62 0-1.481.425-2.584 1.275-1.952 1.516-2.928 3.239-2.928 5.168 0 1.033.322 1.94.965 2.722.964 1.171 2.308 1.757 4.03 1.757.712 0 1.505-.127 2.377-.38 2.986-.941 5.467-2.905 7.442-5.89 1.332-1.999 1.998-4.043 1.998-6.133 0-1.837-.494-3.433-1.481-4.789-1.378-1.929-3.331-2.893-5.857-2.893-1.975 0-4.226.792-6.752 2.377-5.122 3.215-9.842 8.83-14.16 16.846l-1.206 2.309c-2.716 5.243-4.56 8.888-5.55 10.964-.6.37-1.207.766-1.822 1.197l-.413.275c-.023 0-.104-.114-.242-.344-.551-.942-1.125-1.7-1.722-2.274-1.103-1.102-2.515-1.654-4.238-1.654-.803 0-1.55.046-2.24.138a14.26 14.26 0 0 0-2.307.483c-2.98.925-5.58 2.64-7.806 5.14a8.567 8.567 0 0 0-1.565-2.453c-1.952-2.182-4.662-3.273-8.13-3.273-3.744 0-8.028 1.803-12.85 5.409l-4.582 3.617.24-.792 1.103-3.652c3.629-12.035 6.913-21.532 9.853-28.491 2.503-5.994 5.374-11.392 8.613-16.192a62.53 62.53 0 0 1 6.408-8.062l3.927-3.961c1.194-1.218 1.792-2.206 1.792-2.963 0-.345-.219-.517-.655-.517zm20.326 62.15c3.468 0 5.202 1.538 5.202 4.616 0 1.929-.666 4.524-1.999 7.786l-.413.965c-1.217 2.733-1.883 4.1-1.998 4.1 0-.047-.103-.23-.31-.552-.919-1.516-1.757-3.606-2.515-6.27l-1.792-7.132-.757-2.48c0-.069.126-.15.379-.241a11.296 11.296 0 0 1 4.203-.793zm-40.997.62c2.572 0 4.708.677 6.408 2.032 1.998 1.585 2.997 3.675 2.997 6.27a8.894 8.894 0 0 1-1.55 5.065 2.86 2.86 0 0 1-.413.55c-.965 1.126-3.457 1.689-7.477 1.689l-4.788-.138c-2.572 0-5.076.172-7.51.517l-4.548.826c.367-.55 1.01-1.71 1.93-3.479 1.952-3.652 3.743-6.385 5.374-8.2.46-.505 1.045-1.044 1.757-1.618 2.848-2.343 5.454-3.514 7.82-3.514zM1102.32 45.29c-.942 0-2.262.723-3.962 2.17l-3.1 2.894c-4.065 4.02-7.752 8.51-11.06 13.47-2.043 3.055-3.812 6.006-5.305 8.854-4.295 8.223-9.014 20.82-14.159 37.793-3.124 10.336-5.466 16.296-7.028 17.88-1.217 1.24-1.826 2.262-1.826 3.066 0 .414.207.62.62.62.138 0 .333-.022.586-.068 8.084-1.378 16.422-2.067 25.011-2.067 3.262 0 7.224.137 11.886.413 7.579.46 12.85.689 15.813.689 2.274 0 4.295-.126 6.064-.379 1.102-.16 2.181-.39 3.238-.69 3.543-1 6.518-2.608 8.926-4.82-.7 1.298-1.664 2.709-2.898 4.235-.735.896-1.102 1.608-1.102 2.136 0 .368.195.551.585.551.39 0 .873-.137 1.447-.413 1.31-.666 2.55-1.573 3.721-2.722 1.562-1.539 3.365-4.042 5.409-7.51 1.998-3.445 3.433-5.753 4.306-6.925 1.103-1.47 2.297-2.71 3.583-3.72 2.366-1.815 4.708-2.722 7.028-2.722.505 0 1.022.046 1.55.138 2.366.39 4.284 1.458 5.754 3.204 1.562 1.86 2.342 3.985 2.342 6.373 0 1.608-.379 3.193-1.136 4.754-.598 1.654-2.355 2.446-5.271 2.377-.69 0-1.287-.057-1.792-.172-.69-.183-1.458-.597-2.308-1.24-.804-.643-1.677-.965-2.618-.965-1.493 0-2.78.563-3.86 1.689-1.124 1.125-1.687 2.365-1.687 3.72 0 .368.023.7.07 1 .413 2.09 2.273 3.134 5.58 3.134 2.48 0 5.018-.666 7.614-1.998 3.606-1.837 6.683-4.502 9.233-7.993 2.664-3.629 3.996-7.074 3.996-10.335 0-2.894-.93-5.363-2.79-7.407-2.09-2.296-4.778-3.445-8.062-3.445-3.17 0-6.89 1.436-11.162 4.307-1.975 1.309-3.571 2.491-4.789 3.548l-1.102.965-.034-.034c.298-1.424.447-2.55.447-3.377 0-1.447-.367-2.744-1.102-3.893-.413-.62-.873-1.09-1.378-1.412-.69-.46-1.768-.69-3.238-.69-1.149 0-1.827.012-2.033.035-1.172.046-2.32.218-3.445.517-3.193.873-5.903 2.55-8.13 5.03-.185.205-.352.4-.509.59a9.014 9.014 0 0 0-1.8-2.692c-1.838-1.929-4.157-2.894-6.959-2.894-3.009 0-6.488 1.447-10.439 4.341-.872.643-2.55 2.033-5.03 4.169-.275-1.562-.78-2.951-1.515-4.169-1.769-2.894-4.468-4.34-8.097-4.34-.367 0-.734.022-1.102.068-3.537.368-7.993 2.87-13.367 7.51l-.585.483c1.492-5.214 2.905-9.888 4.237-14.022 4.777-14.722 9.865-26.09 15.262-34.106a62.54 62.54 0 0 1 6.408-8.062l3.927-3.961c1.195-1.218 1.791-2.206 1.791-2.964 0-.344-.218-.516-.654-.516zm25.321 62.15h.413c1.034 0 1.895.286 2.584.86 1.08.896 1.62 2.229 1.62 3.997 0 .597-.093 1.332-.276 2.205-.385 1.909-.989 3.897-1.81 5.963-.016 0-.032-.003-.05-.003-.574 0-1.08.126-1.516.379l-1.723 1.343c-2.296 1.608-6.5 2.412-12.609 2.412h-.723c0-.046.207-.275.62-.689a33.022 33.022 0 0 0 2.825-3.273c2.687-3.606 4.03-6.993 4.03-10.163 0-.461-.027-.91-.078-1.345.234-.143.54-.344.94-.619 1.01-.712 2.928-1.067 5.753-1.067zm-47.748.585c.23 0 .436.012.62.035 2.87.275 4.995 1.584 6.373 3.927.896 1.539 1.344 3.1 1.344 4.685-.023 1.93-.494 3.663-1.413 5.202-.368.643-.815 1.057-1.344 1.24-.62.23-2.63.426-6.028.586-2.963.138-5.616.333-7.958.586l-6.925.93.275-.482 3.824-7.028.862-1.447c3.376-5.49 6.833-8.234 10.37-8.234zm24.804.035c2.343 0 4.307.735 5.892 2.205 1.745 1.653 2.618 3.743 2.618 6.27-.092 2.342-.838 4.432-2.24 6.27-.137.16-.355.321-.654.482-1.194.643-2.756.964-4.685.964-.666 0-1.7-.045-3.1-.137-6.11-.39-10.187-.586-12.23-.586h-.518c1.401-1.516 2.917-3.571 4.548-6.167 1.791-2.848 2.963-4.627 3.514-5.34 1.814-2.273 3.847-3.582 6.098-3.927h.034z" style="font-style:italic;font-weight:700;font-size:70.5556px;line-height:1.25;font-family:'Tengwar Annatar';-inkscape-font-specification:'Tengwar Annatar, Bold Italic';fill:none;fill-opacity:1;stroke:#000;stroke-width:.264583;stroke-opacity:1" transform="translate(1173.024 -40.748)"/><path d="M1117.03 70.818q1.379 0 1.999 1.102.207.414.207.93 0 1.517-2.137 3.067l-3.031 2.067q-8.785 6.063-18.225 11.92-6.132 3.824-6.924 3.824-.896 0-1.034-.758-.034-.103-.034-.207 0-.723 1.171-1.688 8.682-7.2 18.57-14.331l7.303-5.168q1.206-.758 2.136-.758zM1155.857 93.797q-.965 0-1.034-1.034 0-.93 4.789-7.303l8.475-10.956 2.756-3.307q1.103-.965 2.067-.965 1.447 0 1.998 1.275.173.413.173.896 0 1.343-2.17 3.755-6.133 7.131-12.093 13.298-4.238 4.34-4.961 4.34zM1265.72 71.163c-1.974 0-4.225.792-6.751 2.377-5.122 3.215-9.842 8.83-14.16 16.846l-1.206 2.309c-3.052 5.891-4.994 9.746-5.865 11.639a17.711 17.711 0 0 0-2.045 2.104c-.355-.668-.783-1.3-1.288-1.892-2.113-2.504-5.018-3.732-8.715-3.687-3.606.046-7.924 1.976-12.954 5.788l-3.928 3.17c.39-1.333.586-2.516.586-3.55 0-.114-.011-.24-.035-.378-.092-2.25-.908-3.881-2.446-4.892a4.566 4.566 0 0 0-1.378-.62c-.299-.07-.93-.104-1.895-.104h-1.723a16.969 16.969 0 0 0-3.548.517c-3.262.85-6.018 2.504-8.268 4.961-1.287 1.401-1.93 2.47-1.93 3.204 0 .436.218.632.655.586a4.889 4.889 0 0 0 1.102-.241c.23-.07.666-.333 1.31-.792 1.033-.712 2.928-1.069 5.684-1.069h.413c1.08 0 1.964.299 2.653.896 1.033.896 1.55 2.194 1.55 3.893 0 1.401-.551 3.606-1.654 6.615a93.116 93.116 0 0 1-5.201 11.782l-3.032 5.685c-15.25 28.226-32.35 51.021-51.298 68.384l-1.55 1.482c-1.355 1.424-2.033 2.526-2.033 3.307 0 .345.207.517.62.517.713 0 1.746-.506 3.102-1.516 1.286-.965 3.71-3.17 7.27-6.615l2.273-2.239c17.891-17.868 34.152-40.284 48.782-67.248 2.412-4.456 4.134-7.797 5.168-10.025l1.757-3.583c1.677-2.986 3.468-5.305 5.374-6.96.529-.458 1.068-.884 1.62-1.274 2.388-1.677 4.65-2.515 6.786-2.515 1.401 0 2.906.413 4.513 1.24 3.4 1.7 5.099 4.536 5.099 8.51 0 .872-.138 1.803-.414 2.79-.436 1.677-.941 2.757-1.515 3.239a9.958 9.958 0 0 1-4.513 1.067c-.69 0-1.287-.057-1.792-.172-.689-.183-1.447-.597-2.274-1.24-.826-.643-1.722-.965-2.687-.965-.987 0-1.975.322-2.962.965-1.677 1.103-2.515 2.596-2.515 4.479 0 2.733 1.848 4.1 5.546 4.1.988 0 1.941-.092 2.86-.276 1.47-.276 2.986-.816 4.547-1.62 3.468-1.768 6.511-4.317 9.13-7.648 2.94-3.743 4.41-7.303 4.41-10.68 0-1-.108-1.946-.317-2.841.196-.127.421-.277.695-.465 1.01-.712 2.928-1.069 5.753-1.069h.413c1.034 0 1.895.288 2.584.862 1.08.896 1.62 2.228 1.62 3.996 0 .597-.092 1.332-.276 2.205-.643 3.193-1.895 6.603-3.755 10.232-.712 1.401-1.746 2.94-3.1 4.616-.736.896-1.103 1.608-1.103 2.136 0 .368.195.551.586.551.78 0 1.86-.516 3.238-1.55a18.116 18.116 0 0 0 1.93-1.688c3.1-3.1 5.74-7.476 7.923-13.126 1.585-4.042 2.377-7.177 2.377-9.405 0-1.447-.367-2.744-1.102-3.893-.414-.62-.873-1.09-1.379-1.412-.689-.46-1.768-.69-3.238-.69-1.148 0-1.826.012-2.033.035a15.81 15.81 0 0 0-3.445.517c-.473.13-.935.277-1.387.442.553-1.12 1.333-2.726 2.387-4.921 3.904-8.061 7.498-13.85 10.782-17.363.322-.345.62-.643.896-.896 1.54-1.424 3.147-2.136 4.823-2.136 1.562 0 2.883.506 3.962 1.516 1.424 1.286 2.136 2.952 2.136 4.996 0 .62-.08 1.24-.241 1.86-.115.46-.207.77-.276.93-.344.827-1.056 1.24-2.135 1.24-1.24 0-2.217-.39-2.929-1.171-.643-.712-.965-1.447-.965-2.205 0-.276.115-.574.345-.896.413-.55.62-.999.62-1.343 0-.368-.195-.552-.585-.552-.62 0-1.482.425-2.584 1.275-1.952 1.516-2.929 3.239-2.929 5.168 0 1.033.322 1.94.965 2.722.965 1.171 2.308 1.757 4.031 1.757.712 0 1.504-.127 2.377-.38 2.986-.941 5.466-2.905 7.441-5.89 1.333-1.999 1.999-4.043 1.999-6.133 0-1.837-.494-3.433-1.482-4.789-1.378-1.929-3.33-2.893-5.857-2.893zM1290.388 100.273a16.967 16.967 0 0 0-3.549.517c-3.261.85-6.017 2.504-8.268 4.961-1.286 1.401-1.929 2.47-1.929 3.204 0 .436.218.632.654.586.414-.046.78-.126 1.102-.241.23-.07.666-.333 1.31-.792 1.033-.712 2.928-1.069 5.684-1.069h.413c1.08 0 1.964.299 2.653.896 1.034.896 1.55 2.194 1.55 3.893 0 1.401-.55 3.606-1.653 6.615a93.133 93.133 0 0 1-5.202 11.782l-3.032 5.685c-15.25 28.226-32.35 51.021-51.297 68.384l-1.55 1.482c-1.356 1.424-2.034 2.526-2.034 3.307 0 .345.207.517.62.517.713 0 1.746-.506 3.101-1.516 1.286-.965 3.71-3.17 7.27-6.615l2.273-2.239c17.892-17.868 34.153-40.284 48.783-67.248 2.411-4.456 4.134-7.797 5.167-10.025l1.757-3.583c1.677-2.986 3.468-5.305 5.375-6.96.528-.458 1.068-.884 1.619-1.274 2.388-1.677 4.651-2.515 6.787-2.515 1.401 0 2.905.413 4.513 1.24 3.4 1.7 5.099 4.536 5.099 8.51 0 .872-.138 1.803-.414 2.79-.436 1.677-.942 2.757-1.516 3.239a9.959 9.959 0 0 1-4.513 1.067c-.689 0-1.286-.057-1.791-.172-.69-.183-1.447-.597-2.274-1.24s-1.723-.965-2.687-.965c-.988 0-1.975.322-2.963.965-1.677 1.103-2.515 2.596-2.515 4.479 0 2.733 1.85 4.1 5.547 4.1.988 0 1.94-.092 2.86-.276 1.47-.276 2.985-.816 4.547-1.62 3.468-1.768 6.511-4.317 9.13-7.648 2.94-3.743 4.409-7.303 4.409-10.68 0-.999-.107-1.945-.317-2.84.197-.127.422-.277.696-.466 1.01-.712 2.929-1.069 5.754-1.069h.413c1.057 0 1.941.31 2.653.93 1.033.896 1.55 2.228 1.55 3.997 0 .804-.195 1.94-.585 3.41a42.02 42.02 0 0 1-4.238 10.439c-.367.666-1.068 1.585-2.101 2.756-.873.988-1.31 1.803-1.31 2.446 0 .414.207.62.62.62.23 0 .586-.068 1.068-.206a51.764 51.764 0 0 1 13.85-1.895c1.998 0 4.524.15 7.579.448 4.708.46 7.774.689 9.198.689h1.069c2.595 0 5.086-.356 7.475-1.068 3.6-1.047 6.608-2.697 9.026-4.945-.703 1.313-1.677 2.742-2.928 4.29-.735.896-1.102 1.608-1.102 2.136 0 .368.195.551.585.551.804 0 1.803-.436 2.997-1.309 2.642-1.998 5.237-5.282 7.786-9.853 2.228-3.996 4.054-6.867 5.478-8.613 2.297-2.825 4.686-4.237 7.166-4.237 1.286 0 2.664.436 4.134 1.309 3.009 1.745 4.513 4.525 4.513 8.337 0 2.205-.597 4.226-1.792 6.064a.534.534 0 0 1-.103.138c-.574.666-1.745.998-3.514.998-.689 0-1.286-.057-1.79-.172-.69-.16-1.448-.574-2.275-1.24-.827-.643-1.722-.965-2.687-.965-1.447 0-2.699.529-3.755 1.585-1.149 1.149-1.723 2.458-1.723 3.928v.344c.184 2.457 2.044 3.686 5.581 3.686.529 0 1.068-.034 1.62-.103 4.386-.62 8.693-3.33 12.919-8.13 1.286-1.448 2.733-3.595 4.34-6.443 1.631-2.917 2.791-4.823 3.48-5.719 1.86-2.388 4.054-3.582 6.58-3.582 1.149 0 2.263.264 3.342.792a9.27 9.27 0 0 1 1.516.965c2.457 1.975 3.686 4.593 3.686 7.854 0 1.149-.218 2.4-.654 3.756-.529 1.561-1 2.468-1.413 2.721l-.138.069c-.941.459-2.044.689-3.307.689a6.557 6.557 0 0 1-1.723-.207c-.62-.16-1.343-.574-2.17-1.24-.804-.643-1.688-.965-2.653-.965-1.08 0-2.124.356-3.135 1.068-1.585 1.08-2.377 2.492-2.377 4.238 0 .574.081 1.09.241 1.55.551 1.792 2.354 2.687 5.409 2.687 1.791 0 3.755-.505 5.89-1.516 3.446-1.63 6.49-4.053 9.13-7.269 3.17-3.858 4.755-7.705 4.755-11.541 0-3.124-.93-5.707-2.79-7.751-1.907-2.068-4.296-3.101-7.167-3.101-1.814 0-3.847.574-6.098 1.723-2.71 1.378-5.89 3.766-9.542 7.165-.322-1.607-.873-3.043-1.654-4.306-1.86-3.055-4.593-4.582-8.2-4.582-2.48 0-5.374 1.091-8.68 3.273-2.137 1.378-3.813 2.653-5.03 3.824-.598.551-.92.827-.965.827v-.035c.16-1.102.241-1.929.241-2.48 0-.46-.034-.907-.103-1.344-.345-1.906-1.206-3.26-2.584-4.065-.23-.114-.425-.218-.586-.31-.46-.183-1.275-.276-2.446-.276-1.148 0-1.826.012-2.033.035a15.81 15.81 0 0 0-3.445.517c-3.192.873-5.902 2.549-8.13 5.03-.09.099-.169.193-.252.289a9.023 9.023 0 0 0-1.16-1.77c-1.976-2.32-4.767-3.48-8.372-3.48-.965 0-1.85.092-2.653.276-1.401.298-2.963.884-4.686 1.757-3.169 1.584-6.258 3.697-9.267 6.338l-.62.517c.322-1.401.482-2.572.482-3.514 0-.414-.034-.827-.103-1.24-.322-1.976-1.183-3.365-2.584-4.169-.23-.114-.425-.218-.585-.31-.46-.183-1.275-.276-2.446-.276-1.148 0-1.826.012-2.033.035-1.171.046-2.32.218-3.445.517-3.192.873-5.903 2.549-8.13 5.03-.184.203-.348.397-.504.585-.355-.669-.783-1.3-1.288-1.894-2.113-2.504-5.019-3.733-8.717-3.687-3.605.046-7.923 1.976-12.953 5.788l-3.928 3.17c.39-1.333.586-2.516.586-3.55a2.31 2.31 0 0 0-.034-.378c-.092-2.25-.907-3.882-2.445-4.892a4.57 4.57 0 0 0-1.379-.62c-.298-.07-.93-.104-1.895-.104zm87.023 7.166h.413c1.034 0 1.895.287 2.584.861 1.08.896 1.62 2.229 1.62 3.997 0 .597-.093 1.332-.276 2.205-.385 1.909-.989 3.897-1.809 5.963-.018 0-.033-.003-.052-.003-.505 0-.999.138-1.481.413l-1.895 1.379c-2.365 1.607-5.891 2.41-10.577 2.41-1.286 0-2.228-.034-2.825-.103a43.504 43.504 0 0 0 2.48-2.549c3.744-4.249 5.616-8.142 5.616-11.679 0-.501-.036-.987-.102-1.459.171-.112.329-.214.55-.367 1.011-.712 2.929-1.067 5.754-1.067zm-23.427.62c2.527 0 4.651.678 6.374 2.033 1.998 1.585 2.997 3.663 2.997 6.236-.046 2.182-.712 4.1-1.998 5.753-.161.207-.471.402-.93.586-1.516.666-3.377.999-5.581.999l-5.822-.138c-2.688 0-5.214.172-7.58.517l-4.444.792c0-.046.23-.448.689-1.206 3.055-5.213 5.237-8.612 6.546-10.197.46-.551 1.056-1.149 1.791-1.792 2.78-2.388 5.432-3.582 7.959-3.582zM1330.557 70.44c-.666 0-1.343.275-2.032.826a4.109 4.109 0 0 0-.31.241c-1.791 1.654-4.904 4.789-9.336 9.405l-8.351 9.153a22.579 22.579 0 0 0-2.467-.16c-.78 0-1.561.056-2.342.171-3.216.482-5.914 1.826-8.096 4.03-1.08 1.103-1.62 1.942-1.62 2.516 0 .413.207.62.62.62.322-.046.977-.368 1.964-.965 1.585-1.08 3.377-1.619 5.375-1.619 1.7 0 3.961.276 6.786.827 3.423.666 6.018.999 7.787.999.757 0 1.515-.057 2.273-.172 3.147-.482 5.81-1.803 7.993-3.962 1.148-1.125 1.722-1.998 1.722-2.619 0-.39-.206-.585-.62-.585-.298.046-.965.368-1.998.965-1.539 1.08-3.33 1.619-5.374 1.619-1.769 0-4.054-.276-6.856-.827a90.655 90.655 0 0 0-1.546-.292c.416-.356.853-.733 1.339-1.155 6.293-5.397 11.507-10.094 15.64-14.09 1.035-1.011 1.551-1.895 1.551-2.653v-.172c0-.322-.057-.62-.172-.896-.344-.804-.988-1.206-1.93-1.206zM1415.962 87.871q-.724 0-.93-.827-.034-.137-.034-.31 0-.55 2.101-5.994 1.585-4.203 2.377-5.374.93-1.482 2.343-1.482 1.343 0 1.93 1.206.24.482.206 1.102-.035 1.585-1.86 4.135l-3.928 5.408-.62.93q-.758 1.137-1.585 1.206zM1396.428 158.806q-1.688 0-1.998-1.62-.07-.31-.07-.654 0-1.102.655-2.205.827-1.412 3.204-4.375l2.446-3.17q.965-1.274 1.206-1.446.38-.276.758-.276.758 0 .965.827.034.138.034.344 0 .586-2.515 6.443-1.482 3.376-2.136 4.444-1.103 1.688-2.55 1.688zM1510.599 68.544c-.827 0-1.677.127-2.55.38-2.205.688-4.283 2.009-6.235 3.961-2.48 2.48-3.72 5.019-3.72 7.614.022.551.136 1.137.343 1.757.758 2.228 2.228 3.341 4.41 3.341 1.493-.069 3.135-.86 4.927-2.377 1.378-1.24 2.067-2.285 2.067-3.134 0-.345-.207-.517-.62-.517-.322 0-.678.103-1.069.31l-1.585.964c-.459 0-.964-.195-1.515-.585-1.195-.896-1.792-2.08-1.792-3.549 0-.46.035-.861.104-1.206.322-1.492 1.538-2.239 3.651-2.239.758 0 1.597.195 2.516.586 2.48 1.01 3.72 2.813 3.72 5.409 0 1.286-.333 2.63-1 4.03-1.607 3.446-4.925 6.97-9.955 10.577l-6.443 4.444a985.38 985.38 0 0 0-3.737 2.554c-.064-.001-.126-.004-.19-.004-3.4 0-6.672.815-9.819 2.445-3.123 1.608-5.833 3.63-8.13 6.064-3.537 3.79-5.305 7.717-5.305 11.782 0 1.975.367 3.56 1.102 4.754.896 1.447 2.147 2.17 3.755 2.17 1.08 0 2.125-.367 3.135-1.102 1.562-1.125 2.343-2.56 2.343-4.306 0-.413-.046-.792-.138-1.137-.114-.39-.482-1.022-1.102-1.895-.85-1.24-1.275-2.802-1.275-4.685 0-1.654.333-3.135 1-4.444.32-.598 1.01-1.103 2.066-1.516 1.654-.62 3.583-.93 5.788-.93 1.217 0 2.308.16 3.273.482 1.01.344 2.055.919 3.135 1.723 2.986 2.273 4.479 5.27 4.479 8.991 0 .896-.092 1.85-.276 2.86-1.746 9.6-11.358 24.012-28.836 43.236-6.316 6.936-12.402 13.114-18.259 18.534-3.445 3.215-5.259 4.904-5.443 5.064-1.24 1.264-1.86 2.286-1.86 3.067 0 .39.207.585.62.585.528 0 1.137-.218 1.826-.654.987-.575 2.905-2.17 5.753-4.789l9.44-9.026c12.655-12.54 23.036-24.449 31.144-35.726 9.14-12.7 13.71-22.358 13.71-28.973 0-3.422-1.079-6.328-3.238-8.716-1.445-1.587-3.127-2.683-5.044-3.29l6.526-4.496c2.32-1.676 4.628-3.617 6.924-5.822 6.11-5.857 9.164-10.956 9.164-15.296 0-1.608-.39-3.009-1.17-4.203-1.379-2.044-3.584-3.067-6.615-3.067zM1508.187 124.872q0-2.998 2.653-4.203.86-.38 1.447-.38h.275q2.756 0 4.065 2.137.69 1.102.69 2.411 0 3.17-2.963 4.272-.896.31-1.62.31-2.273 0-3.651-1.791-.896-1.172-.896-2.756zM1514.181 108.06q0-2.929 2.653-4.135.861-.413 1.447-.413h.31q2.722 0 4.03 2.102.69 1.068.69 2.446 0 2.308-1.826 3.686-1.171.861-2.756.861-2.515 0-3.79-1.93-.758-1.136-.758-2.617z" style="font-style:italic;font-weight:700;font-size:70.5556px;line-height:1.25;font-family:'Tengwar Annatar';-inkscape-font-specification:'Tengwar Annatar, Bold Italic';fill:none;fill-opacity:1;stroke:#000;stroke-width:.264583;stroke-opacity:1" transform="translate(1173.024 -40.748)"/></g></svg>