<svg width="11197.233" height="640.193" viewBox="0 0 2962.601 169.384" xml:space="preserve" xmlns="http://www.w3.org/2000/svg"><defs><path id="c" d="M5102.864 458.321h1717.47v2384.194h-1717.47z"/><path id="b" d="M4432.115 396.85h9956.31v1159.893h-9956.31z"/><path id="a" d="M5102.864 458.321h819.794v161.505h-819.794z"/></defs><g style="fill:none;stroke:#000;stroke-opacity:1"><path d="M1582.98 110.092q0-.896-.344-3.755-.276-2.067-.276-4.892 0-10.955 5.34-21.876l.413-.827q5.753-11.369 17.984-24.013 4.685-4.788 8.681-8.13 2.515-2.101 3.928-2.101.55 0 .55.55 0 1.172-2.514 3.687l-6.339 6.063q-2.446 2.446-4.582 4.858-15.64 17.604-15.64 35.76 0 10.749 5.34 20.154 1.136 2.067 2.514 3.927 3.41 4.686 6.58 4.755h.38q2.996 0 6.097-2.205 2.101-1.482 2.446-1.654.655-.31 1.171-.31.62 0 .62.551 0 1.413-2.893 4.169-3.962 3.755-8.682 5.58-1.413.518-2.722.793-1.274.241-2.652.241-2.412 0-4.341-1.378-2.377-1.722-4.961-5.719-1.723-2.618-3.066-5.615-.31-.724-.345-.724-.034 0-.344.448-3.135 4.169-7.407 7.683-5.168 4.203-9.612 4.926-1 .173-2.102.173-3.341-.138-5.546-2.17-.793-.759-.793-1.172 0-1.068 2.17-3.376 2.62-2.79 4.583-3.17.207-.034.448-.034.275 0 1.102.792 2.308 1.86 4.927 1.964 3.996 0 6.924-4.375 2.55-3.79 2.928-8.44.035-.587.035-1.138zM1626.457 108.955q0-1.102 1.93-3.204 3.376-3.686 8.268-4.96 1.757-.448 3.548-.517h1.723q1.447 0 1.895.103.689.172 1.378.62 2.308 1.516 2.48 4.892v.38q0 .964-.345 2.652 4.272-3.755 7.097-5.443 4.307-2.584 7.717-2.584 5.34 0 8.165 4.513 1.206 1.93 1.688 4.375 9.578-8.888 15.434-8.888 4.961 0 7.82 3.548 2.378 2.997 2.378 7.476 0 5.202-4.41 10.818-3.858 4.96-9.026 7.544-3.445 1.757-6.408 1.757-5.58 0-5.58-4.134 0-2.756 2.445-4.41 1.482-.998 3.032-.998 1.343 0 2.584.93 1.343 1.033 2.48 1.274.792.173 1.792.173 1.963 0 3.031-.69.276-.172.414-.378 1.826-2.688 1.826-6.098 0-4.617-3.273-7.51-1.688-1.516-3.618-1.964-.826-.207-1.826-.207-3.961 0-7.338 4.892-.826 1.206-3.341 5.65-1.034 1.895-1.757 2.894-2.48 3.514-6.236 6.442-4.789 3.755-9.198 4.1-.345.034-.93.034-5.616 0-5.616-4.1 0-2.824 2.515-4.478 1.481-.965 2.997-.965 1.378 0 2.618.93 1.378 1.034 2.515 1.275.793.173 1.757.173 2.102 0 3.135-.758.172-.138.276-.31 1.791-2.55 1.791-6.167 0-4.375-3.1-7.304-1.826-1.722-3.962-2.136-.792-.172-1.585-.172-6.787 0-13.195 13.987-1.515 3.239-3.824 7.545-22.393 42.099-50.057 69.832l-2.515 2.48q-5.34 5.168-7.269 6.615-2.033 1.516-3.1 1.516-.62 0-.62-.517 0-1.171 2.032-3.307l1.55-1.481q28.422-26.045 51.298-68.386l3.031-5.684q2.998-5.685 5.202-11.782 1.654-4.513 1.654-6.615 0-2.55-1.55-3.893-1.034-.896-2.653-.896h-.413q-4.134 0-5.685 1.068-.964.69-1.309.793-.482.172-1.102.24-.655.07-.655-.585zM1688.779 92.281q6.304 0 9.99-2.687l1.999-1.516q.654-.413 1.275-.413.62 0 .62.585 0 1.378-2.998 3.721-6.27 4.926-14.297 5.099h-.654q-4.341 0-12.61-1.55-8.06-1.516-11.678-1.689-.861-.034-1.654-.034-6.27 0-9.956 2.653l-2.067 1.55q-.724.448-1.378.448-.655 0-.655-.586 0-1.137 2.274-3.17 3.927-3.513 9.715-4.926 2.928-.723 5.926-.723 4.72 0 12.299 1.481 7.441 1.447 11.093 1.688 1.378.069 2.756.069zM1719.027 109.54q-.655.07-.655-.585 0-1.033 1.86-3.1 3.343-3.721 8.131-5.03 1.688-.448 3.445-.517.31-.034 2.033-.034 1.757 0 2.446.275.241.138.586.31 2.067 1.206 2.583 4.065.104.655.104 1.344 0 .827-.241 2.48v.035q.069 0 .964-.827 1.826-1.757 5.03-3.824 4.961-3.273 8.682-3.273 5.409 0 8.2 4.582 1.17 1.895 1.653 4.307 5.477-5.1 9.543-7.166 3.376-1.723 6.097-1.723 4.307 0 7.166 3.1 2.79 3.067 2.79 7.752 0 5.754-4.753 11.541-3.962 4.823-9.13 7.27-3.204 1.515-5.891 1.515-4.582 0-5.409-2.687-.241-.689-.241-1.55 0-2.618 2.377-4.238 1.516-1.068 3.135-1.068 1.447 0 2.653.965 1.24 1 2.17 1.24.758.207 1.723.207 1.895 0 3.307-.689l.138-.069q.62-.379 1.412-2.722.655-2.032.655-3.755 0-4.892-3.686-7.855-.758-.585-1.516-.964-1.62-.793-3.342-.793-3.79 0-6.58 3.583-1.033 1.344-3.48 5.72-2.411 4.271-4.34 6.442-6.34 7.2-12.92 8.13-.826.103-1.619.103-5.305 0-5.58-3.686v-.344q0-2.205 1.722-3.928 1.585-1.585 3.755-1.585 1.447 0 2.687.965 1.24 1 2.274 1.24.758.173 1.791.173 2.653 0 3.514-1 .07-.068.104-.137 1.791-2.756 1.791-6.064 0-5.719-4.513-8.337-2.205-1.309-4.134-1.309-3.72 0-7.166 4.237-2.136 2.619-5.478 8.613-3.824 6.856-7.785 9.853-1.792 1.31-2.998 1.31-.585 0-.585-.552 0-.792 1.102-2.136 2.033-2.515 3.1-4.616 2.791-5.444 3.756-10.232.275-1.31.275-2.205 0-2.653-1.619-3.996-1.033-.862-2.584-.862h-.413q-4.237 0-5.753 1.068-1 .69-1.31.827-.413.138-1.033.207z" style="font-style:italic;font-weight:700;font-size:70.5556px;line-height:1.25;font-family:'Tengwar Annatar';-inkscape-font-specification:'Tengwar Annatar, Bold Italic';fill:none;fill-opacity:1;stroke:#000;stroke-width:.264583;stroke-opacity:1" transform="translate(1173.024 -40.748)"/></g></svg>