<svg width="11197.233" height="640.193" viewBox="0 0 2962.601 169.384" xml:space="preserve" xmlns="http://www.w3.org/2000/svg"><defs><path id="c" d="M5102.864 458.321h1717.47v2384.194h-1717.47z"/><path id="b" d="M4432.115 396.85h9956.31v1159.893h-9956.31z"/><path id="a" d="M5102.864 458.321h819.794v161.505h-819.794z"/></defs><g style="fill:none;stroke:#000;stroke-opacity:1"><path style="font-style:italic;font-weight:700;font-size:70.5556px;line-height:1.25;font-family:'Tengwar Annatar';-inkscape-font-specification:'Tengwar Annatar, Bold Italic';fill:none;fill-opacity:1;stroke:#000;stroke-width:.264583;stroke-opacity:1" d="M-1105.574 68.51c-.345 0-.62.011-.827.034-.207 0-.46.035-.758.103-5.558.827-12.38 5.605-20.464 14.332l-12.712 14.297c-4.02 4.548-6.087 6.914-6.202 7.097-.06.087-.113.17-.163.25-1.782 1.191-3.21 2.303-4.28 3.333-.598.551-.92.827-.965.827v-.035c.16-1.102.241-1.929.241-2.48 0-.46-.035-.907-.104-1.344-.344-1.906-1.206-3.26-2.584-4.065a12.21 12.21 0 0 1-.585-.31c-.46-.183-1.275-.276-2.446-.276-1.148 0-1.826.012-2.033.035-1.171.046-2.32.218-3.445.517-3.192.873-5.902 2.55-8.13 5.03-1.24 1.378-1.86 2.411-1.86 3.1 0 .436.218.632.654.586a5.108 5.108 0 0 0 1.034-.207c.206-.092.643-.368 1.309-.827 1.01-.712 2.928-1.068 5.753-1.068h.414c1.033 0 1.894.287 2.583.861 1.08.896 1.62 2.229 1.62 3.997 0 .597-.093 1.332-.276 2.205-.643 3.192-1.895 6.603-3.755 10.231-.712 1.401-1.746 2.94-3.1 4.617-.736.896-1.103 1.608-1.103 2.136 0 .368.195.551.585.551.804 0 1.803-.436 2.997-1.309 2.642-1.998 5.237-5.282 7.787-9.853 2.227-3.996 4.053-6.867 5.477-8.613 2.297-2.825 4.685-4.237 7.166-4.237 1.286 0 2.664.436 4.134 1.309 3.009 1.745 4.513 4.525 4.513 8.337 0 2.205-.597 4.226-1.791 6.064a.534.534 0 0 1-.104.138c-.574.666-1.745.998-3.514.998-.689 0-1.285-.057-1.79-.172-.69-.16-1.448-.574-2.275-1.24-.827-.643-1.722-.965-2.687-.965-1.447 0-2.698.529-3.755 1.585-1.148 1.149-1.723 2.458-1.723 3.928v.344c.184 2.457 2.044 3.686 5.581 3.686.528 0 1.068-.034 1.62-.103 4.386-.62 8.693-3.33 12.919-8.13 1.286-1.448 2.733-3.595 4.34-6.443 1.631-2.917 2.79-4.823 3.48-5.719 1.86-2.388 4.054-3.582 6.58-3.582a7.52 7.52 0 0 1 3.342.792c.505.252 1.01.574 1.516.965 2.457 1.975 3.686 4.593 3.686 7.854 0 1.149-.218 2.4-.655 3.756-.528 1.561-.999 2.468-1.412 2.721l-.138.069c-.942.459-2.044.689-3.307.689a6.558 6.558 0 0 1-1.723-.207c-.62-.16-1.343-.574-2.17-1.24-.804-.643-1.688-.965-2.653-.965-1.08 0-2.124.356-3.135 1.068-1.585 1.08-2.377 2.492-2.377 4.238 0 .574.08 1.09.241 1.55.551 1.792 2.354 2.687 5.409 2.687 1.791 0 3.755-.505 5.891-1.516 3.445-1.63 6.489-4.053 9.13-7.269 3.17-3.858 4.754-7.705 4.754-11.541 0-3.124-.93-5.707-2.79-7.751-1.907-2.068-4.296-3.101-7.167-3.101-1.814 0-3.847.574-6.097 1.723-2.71 1.378-5.892 3.766-9.543 7.165-.322-1.607-.873-3.043-1.654-4.306-1.86-3.055-4.593-4.582-8.2-4.582-1.083 0-2.245.208-3.486.625a6153.83 6153.83 0 0 0 11.755-13.234c3.583-4.065 4.617-5.236 3.1-3.514 6.822-7.625 12.277-11.438 16.365-11.438.69 0 1.332.093 1.93.276.413.138.86.356 1.343.655 1.906 1.24 2.859 2.986 2.859 5.236 0 .827-.149 1.63-.448 2.412-.344 1.263-1.32 1.895-2.928 1.895-1.286 0-2.297-.448-3.032-1.344-.597-.712-.895-1.424-.895-2.136 0-.46.206-.953.62-1.481.482-.62.723-1.137.723-1.55 0-.345-.207-.517-.62-.517-.988.091-2.17.827-3.549 2.205-1.561 1.7-2.342 3.353-2.342 4.96 0 .896.241 1.711.723 2.446.942 1.447 2.423 2.17 4.445 2.17.918 0 1.837-.149 2.755-.447 2.596-.827 4.881-2.526 6.856-5.099 1.884-2.457 2.825-4.834 2.825-7.13 0-1.7-.47-3.194-1.412-4.48-1.378-1.906-3.342-2.859-5.891-2.859zM-1145.124 158.806q-1.688 0-1.998-1.62-.07-.31-.07-.654 0-1.102.655-2.205.827-1.412 3.204-4.375l2.446-3.17q.965-1.274 1.206-1.446.38-.276.758-.276.758 0 .965.827.034.138.034.344 0 .586-2.515 6.443-1.482 3.376-2.136 4.444-1.103 1.688-2.55 1.688zM-1019.792 100.067c-2.02 0-4.226.138-6.614.413-2.044.253-4.03.69-5.96 1.31-3.796 1.232-6.989 2.938-9.58 5.116.022-.292.037-.576.037-.845 0-1.033-.126-1.906-.379-2.618-.712-2.113-2.779-3.17-6.2-3.17-3.63 0-7.626 1.528-11.99 4.583l-.413.275c-.023 0-.103-.114-.241-.344-.551-.942-1.125-1.7-1.723-2.274-1.102-1.102-2.515-1.654-4.237-1.654-.804 0-1.55.046-2.24.138a14.26 14.26 0 0 0-2.308.483c-3.031.941-5.673 2.698-7.923 5.27-1.149 1.333-1.723 2.274-1.723 2.825.023.276.241.46.655.552.23 0 .436-.023.62-.07.367-.068.884-.344 1.55-.826 1.103-.804 2.687-1.206 4.754-1.206 2.55 0 4.57 1.987 6.063 5.96.414 1.08 1.08 3.422 1.999 7.028l.895 3.583c1.172 4.203 2.79 7.338 4.858 9.405l.483.517-4.204 6.752c-10.45 16.192-24.425 32.247-41.926 48.163-2.596 2.366-3.894 4.042-3.894 5.03 0 .367.219.551.655.551.85 0 2.17-.735 3.962-2.205.78-.643 2.87-2.56 6.27-5.753 18.42-17.318 33.096-34.888 44.028-52.71l3.652-6.133c1.31-2.32 2.458-4.444 3.446-6.373 2.076-4.01 3.565-7.433 4.468-10.27l2.214-1.685c2.917-2.067 7.58-3.192 13.988-3.376.55 0 .826.012.826.035l-.034.034-.93.861c-5.696 5.145-8.544 10.14-8.544 14.987 0 2.64.816 4.857 2.446 6.649 1.838 1.975 4.203 2.962 7.097 2.962 4.34 0 9.451-2.514 15.33-7.544l.07.138c.207 1.378.85 2.71 1.93 3.996 1.906 2.274 4.386 3.41 7.44 3.41.736 0 1.47-.068 2.205-.206 2.665-.529 5.73-2.148 9.199-4.858 1.309-1.033 1.987-1.55 2.033-1.55l-.93 2.618c-1.172 3.239-2.596 6.546-4.273 9.922-6.316 12.747-15.595 25.7-27.836 38.86l-6.752 6.96-11.472 10.955c-4.065 3.744-6.294 5.81-6.684 6.201-1.355 1.355-2.033 2.435-2.033 3.239 0 .39.207.585.62.585 1.011 0 2.446-.838 4.307-2.514 3.17-2.756 7.04-6.328 11.61-10.715l9.13-8.957c13.16-13.39 23.437-26.286 30.833-38.689 2.274-3.812 4.249-7.44 5.926-10.886 2.181-4.455 4.249-9.612 6.2-15.469 1.448-4.363 2.665-7.521 3.653-9.473 3.054-.575 5.627-1.964 7.717-4.17 1.17-1.216 1.757-2.158 1.757-2.824 0-.436-.23-.655-.69-.655-.39 0-.86.161-1.412.483-1.24.689-3.066 1.033-5.478 1.033-10.68.046-20.808-.31-30.386-1.068-6.844-.528-12.15-.792-15.916-.792zm.38 6.511c.298 0 .688.012 1.17.035l15.4 1.136-2.41 2.516c-1.884 2.09-3.4 4.478-4.549 7.165-.804 1.93-1.424 3.193-1.86 3.79-.666.896-1.573 1.665-2.722 2.308-1.676.896-3.295 1.343-4.857 1.343-1.975 0-3.721-.596-5.237-1.79-2.09-1.654-3.135-3.928-3.135-6.822a7.8 7.8 0 0 1 .07-1.034c.298-2.618 1.561-4.846 3.79-6.683 1.584-1.31 3.031-1.964 4.34-1.964zm-35.554.861c3.468 0 5.202 1.54 5.202 4.617 0 1.929-.666 4.524-1.998 7.786l-.413.965c-1.217 2.733-1.884 4.1-1.998 4.1 0-.047-.104-.23-.31-.552-.92-1.516-1.758-3.606-2.515-6.27l-1.792-7.132-.758-2.48c0-.069.126-.15.38-.241a11.299 11.299 0 0 1 4.202-.793zm59.738.655 14.539.276h.275c-.436.666-1.493 2.607-3.17 5.822-2.342 4.525-4.076 7.257-5.202 8.199l-.688.551c-1.7 1.287-3.4 1.93-5.1 1.93-1.148 0-2.4-.333-3.754-1-3.055-1.492-4.582-4.03-4.582-7.613 0-.46.069-1.034.206-1.723.506-2.572 1.355-4.271 2.55-5.098 1.332-.896 2.974-1.344 4.926-1.344zM-998.466 87.871q-.724 0-.93-.827-.035-.137-.035-.31 0-.55 2.102-5.994 1.584-4.203 2.377-5.374.93-1.482 2.342-1.482 1.344 0 1.93 1.206.24.482.206 1.102-.034 1.585-1.86 4.135l-3.927 5.408-.62.93q-.758 1.137-1.585 1.206zM-983.756 92.281q6.305 0 9.991-2.687l1.998-1.516q.655-.413 1.275-.413.62 0 .62.585 0 1.378-2.997 3.721-6.27 4.926-14.297 5.099h-.655q-4.34 0-12.609-1.55-8.061-1.516-11.679-1.689-.861-.034-1.653-.034-6.27 0-9.957 2.653l-2.067 1.55q-.723.448-1.378.448-.654 0-.654-.586 0-1.137 2.273-3.17 3.928-3.513 9.715-4.926 2.929-.723 5.926-.723 4.72 0 12.3 1.481 7.44 1.447 11.092 1.688 1.378.069 2.756.069zM-876.579 71.163c-1.975 0-4.226.792-6.752 2.377-5.122 3.215-9.842 8.83-14.16 16.846l-1.205 2.309c-3.052 5.891-4.994 9.746-5.865 11.639a17.722 17.722 0 0 0-2.047 2.104c-.354-.668-.782-1.3-1.286-1.892-2.113-2.504-5.019-3.732-8.717-3.687-3.606.046-7.924 1.976-12.953 5.788l-3.928 3.17c.39-1.333.586-2.516.586-3.55 0-.114-.012-.24-.034-.378-.092-2.25-.907-3.881-2.446-4.892a4.568 4.568 0 0 0-1.379-.62c-.298-.07-.93-.104-1.894-.104h-1.723a16.967 16.967 0 0 0-3.548.517c-3.262.85-6.018 2.504-8.269 4.961-1.286 1.401-1.929 2.47-1.929 3.204 0 .436.219.632.655.586.413-.046.78-.126 1.102-.241.23-.07.666-.333 1.31-.792 1.033-.712 2.928-1.069 5.684-1.069h.413c1.08 0 1.964.299 2.653.896 1.034.896 1.55 2.194 1.55 3.893 0 1.401-.55 3.606-1.653 6.615a93.112 93.112 0 0 1-5.203 11.782l-3.031 5.685c-15.25 28.226-32.35 51.021-51.298 68.384l-1.55 1.482c-1.355 1.424-2.033 2.526-2.033 3.307 0 .345.207.517.62.517.712 0 1.746-.506 3.1-1.516 1.287-.965 3.71-3.17 7.27-6.615l2.274-2.239c17.892-17.868 34.152-40.284 48.783-67.248 2.411-4.456 4.134-7.797 5.167-10.025l1.757-3.583c1.677-2.986 3.468-5.305 5.375-6.96.528-.458 1.067-.884 1.619-1.274 2.388-1.677 4.65-2.515 6.787-2.515 1.4 0 2.905.413 4.513 1.24 3.399 1.7 5.099 4.536 5.099 8.51 0 .872-.138 1.803-.414 2.79-.436 1.677-.942 2.757-1.516 3.239a9.959 9.959 0 0 1-4.513 1.067c-.689 0-1.286-.057-1.792-.172-.689-.183-1.446-.597-2.273-1.24-.827-.643-1.723-.965-2.687-.965-.988 0-1.976.322-2.963.965-1.677 1.103-2.515 2.596-2.515 4.479 0 2.733 1.849 4.1 5.547 4.1.987 0 1.94-.092 2.859-.276 1.47-.276 2.986-.816 4.548-1.62 3.468-1.768 6.51-4.317 9.13-7.648 2.939-3.743 4.409-7.303 4.409-10.68 0-1-.107-1.946-.317-2.84.196-.128.422-.277.696-.466 1.01-.712 2.928-1.069 5.753-1.069h.414c1.033 0 1.894.288 2.583.862 1.08.896 1.62 2.228 1.62 3.996 0 .597-.092 1.332-.276 2.205-.643 3.193-1.895 6.603-3.755 10.232-.712 1.401-1.746 2.94-3.1 4.616-.736.896-1.103 1.608-1.103 2.136 0 .368.195.551.585.551.781 0 1.86-.516 3.239-1.55a18.113 18.113 0 0 0 1.929-1.688c3.1-3.1 5.742-7.476 7.924-13.126 1.584-4.042 2.377-7.177 2.377-9.405 0-1.447-.368-2.744-1.103-3.893-.413-.62-.873-1.09-1.378-1.412-.689-.46-1.768-.69-3.238-.69-1.148 0-1.826.012-2.033.035-1.171.046-2.32.218-3.445.517-.473.13-.935.277-1.387.442.553-1.12 1.333-2.726 2.386-4.921 3.905-8.061 7.5-13.85 10.784-17.363.321-.345.62-.643.895-.896 1.539-1.424 3.147-2.136 4.823-2.136 1.562 0 2.883.506 3.962 1.516 1.424 1.286 2.136 2.952 2.136 4.996 0 .62-.08 1.24-.24 1.86-.116.46-.208.77-.277.93-.344.827-1.056 1.24-2.136 1.24-1.24 0-2.216-.39-2.928-1.171-.643-.712-.964-1.447-.964-2.205 0-.276.114-.574.344-.896.413-.55.62-.999.62-1.343 0-.368-.195-.552-.586-.552-.62 0-1.48.425-2.583 1.275-1.953 1.516-2.929 3.239-2.929 5.168 0 1.033.322 1.94.965 2.722.965 1.171 2.308 1.757 4.03 1.757.713 0 1.505-.127 2.378-.38 2.986-.941 5.466-2.905 7.441-5.89 1.332-1.999 1.999-4.043 1.999-6.133 0-1.837-.494-3.433-1.482-4.789-1.378-1.929-3.33-2.893-5.857-2.893zM-785.56 40.88c-.344 0-.792.15-1.343.448-2.205 1.149-5.489 4.146-9.852 8.992-3.354 3.698-6.34 7.522-8.958 11.472-8.085 12.242-14.814 29.065-20.188 50.47l-.551 2.205c-.827 2.894-2.527 5.283-5.1 7.166-.642.46-1.182.839-1.618 1.137-2.16 1.401-4.17 2.101-6.03 2.101-2.457 0-4.604-.792-6.441-2.377-2.182-1.906-3.274-4.363-3.274-7.372 0-.941.173-1.964.517-3.066.46-1.608.942-2.584 1.447-2.928.092-.07.218-.138.379-.207 1.24-.597 2.618-.896 4.134-.896.597 0 1.126.058 1.585.173.758.16 1.596.585 2.515 1.274.827.62 1.654.93 2.48.93.69 0 1.459-.183 2.308-.55 2.205-.965 3.308-2.62 3.308-4.962 0-.184-.012-.367-.034-.551-.276-2.32-2.136-3.48-5.582-3.48-4.271 0-8.635 1.987-13.09 5.96-5.191 4.663-7.787 9.474-7.787 14.435 0 2.71.85 5.065 2.55 7.063 2.09 2.48 4.88 3.72 8.371 3.72 1.401 0 2.94-.298 4.617-.895 3.95-1.378 8.188-4.077 12.712-8.096.023-.023.046-.035.069-.035-1.171 5.26-1.757 8.108-1.757 8.544 0 .322.184.482.551.482.827 0 1.952-.505 3.376-1.515 2.274-1.654 3.63-3.538 4.066-5.65a403.33 403.33 0 0 1 3.5-15.722c.237-.143.556-.352.978-.642 1.01-.712 2.929-1.069 5.754-1.069h.413c1.057 0 1.94.31 2.653.93 1.033.896 1.55 2.228 1.55 3.997 0 .804-.195 1.94-.586 3.41a42.02 42.02 0 0 1-4.237 10.439c-.368.666-1.068 1.585-2.102 2.756-.873.988-1.309 1.803-1.309 2.446 0 .414.207.62.62.62.23 0 .586-.068 1.068-.206a51.764 51.764 0 0 1 13.85-1.895c1.997 0 4.524.15 7.579.448 4.708.46 7.774.689 9.198.689h1.068c2.596 0 5.087-.356 7.476-1.068 3.95-1.148 7.189-3.02 9.715-5.616 1.378-1.424 2.067-2.514 2.067-3.272 0-.437-.23-.655-.689-.655-.505 0-1 .138-1.481.413l-1.895 1.379c-2.366 1.607-5.891 2.41-10.577 2.41-1.286 0-2.228-.034-2.825-.103a43.494 43.494 0 0 0 2.48-2.549c3.744-4.249 5.616-8.142 5.616-11.679 0-2.296-.7-4.283-2.101-5.96-1.975-2.32-4.766-3.48-8.372-3.48-.812 0-1.566.067-2.264.197.549-1.113 1.31-2.683 2.299-4.744 3.904-8.061 7.499-13.85 10.783-17.363.322-.345.62-.643.896-.896 1.539-1.424 3.146-2.136 4.823-2.136 1.561 0 2.882.506 3.962 1.516 1.424 1.286 2.135 2.952 2.135 4.996 0 .62-.08 1.24-.24 1.86-.115.46-.207.77-.276.93-.345.827-1.057 1.24-2.136 1.24-1.24 0-2.217-.39-2.929-1.171-.643-.712-.964-1.447-.964-2.205 0-.276.115-.574.344-.896.414-.55.62-.999.62-1.343 0-.368-.195-.552-.585-.552-.62 0-1.481.425-2.584 1.275-1.952 1.516-2.928 3.239-2.928 5.168 0 1.033.321 1.94.964 2.722.965 1.171 2.309 1.757 4.031 1.757.712 0 1.505-.127 2.377-.38 2.986-.941 5.467-2.905 7.442-5.89 1.332-1.999 1.998-4.043 1.998-6.133 0-1.837-.494-3.433-1.482-4.789-1.378-1.929-3.33-2.893-5.856-2.893-1.975 0-4.226.792-6.753 2.377-5.121 3.215-9.841 8.83-14.159 16.846l-1.206 2.309c-2.324 4.485-3.993 7.77-5.052 9.938-.197.094-.396.192-.598.294-3.17 1.584-6.258 3.697-9.267 6.338l-.62.517c.321-1.401.482-2.572.482-3.514 0-.413-.034-.827-.103-1.24-.322-1.975-1.183-3.365-2.584-4.169a12.17 12.17 0 0 1-.586-.31c-.459-.183-1.274-.276-2.445-.276-1.149 0-1.827.012-2.033.035-1.172.046-2.32.218-3.445.517-2.587.707-4.857 1.942-6.81 3.705 2.788-10.728 5.804-19.992 9.049-27.786 4.685-11.3 10.358-20.487 17.019-27.561l3.652-3.617c1.929-1.93 2.893-3.285 2.893-4.066 0-.413-.218-.62-.654-.62zm-3.96 67.18c2.526 0 4.65.677 6.372 2.032 1.999 1.585 2.998 3.663 2.998 6.236-.046 2.182-.712 4.1-1.999 5.753-.16.207-.47.402-.93.586-1.516.666-3.376.999-5.58.999l-5.823-.138c-2.687 0-5.213.172-7.58.517l-4.443.792c0-.046.23-.448.689-1.206 3.054-5.213 5.236-8.612 6.545-10.197.46-.551 1.057-1.149 1.792-1.792 2.78-2.388 5.432-3.582 7.958-3.582zM-693.093 71.163c-1.975 0-4.226.792-6.752 2.377-5.122 3.215-9.842 8.83-14.16 16.846l-1.205 2.309c-2.324 4.485-3.993 7.77-5.053 9.938a29 29 0 0 0-.597.294c-3.17 1.584-6.259 3.697-9.268 6.338l-.62.517c.322-1.401.483-2.572.483-3.514 0-.413-.035-.827-.104-1.24-.321-1.975-1.183-3.365-2.584-4.169a12.17 12.17 0 0 1-.585-.31c-.46-.183-1.275-.276-2.446-.276-1.148 0-1.826.012-2.033.035-1.171.046-2.32.218-3.445.517-3.192.873-5.903 2.549-8.13 5.03-1.24 1.378-1.86 2.411-1.86 3.1 0 .436.218.632.654.586a5.108 5.108 0 0 0 1.033-.207c.207-.092.643-.367 1.31-.826 1.01-.712 2.928-1.069 5.753-1.069h.413c1.057 0 1.941.31 2.653.93 1.034.896 1.55 2.228 1.55 3.997 0 .804-.195 1.94-.585 3.41a42.02 42.02 0 0 1-4.238 10.439c-.367.666-1.068 1.585-2.101 2.756-.873.988-1.31 1.803-1.31 2.446 0 .414.207.62.62.62.23 0 .586-.069 1.068-.206a51.764 51.764 0 0 1 13.85-1.895c1.998 0 4.524.15 7.58.448 4.707.46 7.774.689 9.198.689h1.068c2.595 0 5.087-.356 7.475-1.068 3.601-1.047 6.609-2.697 9.027-4.946-.703 1.313-1.678 2.743-2.929 4.291-.735.896-1.102 1.608-1.102 2.136 0 .367.195.551.585.551.39 0 .873-.137 1.447-.413 1.31-.666 2.55-1.573 3.72-2.722 1.563-1.539 3.366-4.042 5.41-7.51 1.998-3.445 3.433-5.753 4.306-6.925 1.102-1.47 2.297-2.71 3.583-3.72 2.366-1.815 4.709-2.722 7.028-2.722.506 0 1.022.046 1.55.138 2.366.39 4.284 1.458 5.754 3.204 1.561 1.86 2.343 3.984 2.343 6.373 0 1.608-.38 3.193-1.137 4.754-.597 1.654-2.354 2.446-5.271 2.377-.69 0-1.286-.057-1.792-.172-.689-.183-1.458-.597-2.308-1.24-.804-.643-1.676-.965-2.618-.965-1.493 0-2.78.563-3.859 1.689-1.125 1.125-1.688 2.365-1.688 3.72 0 .368.023.7.069 1 .413 2.09 2.273 3.134 5.58 3.134 2.481 0 5.02-.666 7.615-1.998 3.606-1.837 6.683-4.502 9.233-7.993 2.664-3.629 3.996-7.074 3.996-10.335 0-2.894-.93-5.363-2.79-7.407-2.09-2.297-4.778-3.445-8.062-3.445-3.17 0-6.89 1.436-11.162 4.307-1.975 1.309-3.572 2.491-4.79 3.548l-1.101.965-.035-.035c.299-1.424.448-2.55.448-3.376 0-1.447-.368-2.745-1.103-3.893-.413-.62-.872-1.09-1.377-1.412-.69-.46-1.77-.69-3.239-.69-1.148 0-1.826.012-2.032.035-1.172.046-2.32.218-3.446.517-3.192.873-5.902 2.549-8.13 5.03-.09.1-.169.193-.252.289a9.022 9.022 0 0 0-1.16-1.77c-1.976-2.32-4.766-3.48-8.372-3.48-.812 0-1.566.066-2.264.196.548-1.113 1.31-2.683 2.298-4.744 3.905-8.061 7.5-13.85 10.784-17.363.321-.345.62-.643.895-.896 1.539-1.424 3.146-2.136 4.823-2.136 1.562 0 2.883.506 3.962 1.516 1.424 1.286 2.136 2.952 2.136 4.996 0 .62-.08 1.24-.24 1.86-.116.46-.208.77-.277.93-.344.827-1.056 1.24-2.136 1.24-1.24 0-2.216-.39-2.928-1.171-.643-.712-.964-1.447-.964-2.205 0-.276.114-.574.344-.896.413-.55.62-.999.62-1.343 0-.368-.195-.552-.586-.552-.62 0-1.481.425-2.583 1.275-1.953 1.516-2.929 3.239-2.929 5.168 0 1.033.322 1.94.965 2.722.964 1.171 2.308 1.757 4.03 1.757.713 0 1.505-.127 2.378-.38 2.985-.941 5.466-2.905 7.441-5.89 1.332-1.999 1.998-4.043 1.998-6.133 0-1.837-.494-3.433-1.481-4.789-1.378-1.929-3.33-2.893-5.857-2.893zm-3.755 36.276h.414c1.033 0 1.894.287 2.583.861 1.08.896 1.62 2.229 1.62 3.997 0 .597-.092 1.332-.276 2.205-.385 1.909-.989 3.897-1.809 5.963-.017 0-.033-.003-.051-.003-.506 0-1 .138-1.482.413l-1.894 1.379c-2.366 1.607-5.892 2.41-10.577 2.41-1.286 0-2.228-.034-2.825-.103a43.494 43.494 0 0 0 2.48-2.549c3.744-4.249 5.616-8.142 5.616-11.679 0-.5-.035-.985-.102-1.455a31 31 0 0 0 .55-.37c1.01-.713 2.928-1.068 5.753-1.068zm-23.426.62c2.526 0 4.65.678 6.373 2.033 1.998 1.585 2.997 3.663 2.997 6.236-.046 2.182-.712 4.1-1.998 5.753-.161.207-.471.402-.93.586-1.516.666-3.377.999-5.581.999l-5.822-.138c-2.687 0-5.214.172-7.58.517l-4.444.792c0-.046.23-.448.689-1.206 3.055-5.213 5.237-8.612 6.546-10.197.46-.551 1.056-1.149 1.791-1.792 2.78-2.388 5.432-3.582 7.959-3.582zM-589.43 103.719q8.13 0 12.747-3.204l2.756-2.067q.93-.551 1.757-.551.62 0 .62.55 0 1.413-2.825 4.066-1.481 1.378-3.48 2.79-6.648 4.72-14.71 5.444-1.653.138-3.445.138-3.032 0-6.614-.414l-.758-.069-.724.138q-5.65 1.102-10.094 3.686-2.55 1.447-4.065 3.17-3.342 3.755-3.893 9.164-.069.861-.069 1.791 0 7.063 4.858 12.196 4.754 4.995 12.16 6.201 1.999.345 4.1.345 4.031 0 8.096-1.447 3.549-1.24 5.375-3.239 2.136-2.377 2.928-5.236.276-1.068.276-2.067 0-1.895-1.068-3.446-.896-1.309-1.034-2.17-.034-.344-.034-.689 0-2.17 1.757-3.858 1.619-1.55 3.824-1.55 2.584 0 3.755 2.514.655 1.344.655 3.1 0 4.548-4.031 10.095-2.515 3.445-6.408 6.821-9.509 8.303-20.67 8.303h-.138q-8.441 0-14.504-4.513-5.995-4.444-7.373-11.68-.344-1.86-.344-3.858 0-8.268 7.062-16.33 4.375-4.995 10.645-8.853l-3.893-.69q-7.13-1.17-9.99-1.17-4.066 0-5.926 1.205l-1.86 1.24q-.483.242-1 .448-.413.104-.688.104-.655 0-.655-.552 0-1.309 2.48-3.72 3.652-3.583 8.097-5.03.826-.276 1.653-.448 1.964-.413 4.651-.413 2.412 0 14.022 1.825 12.23 1.93 16.02 1.93zM-522.422 45.29c-.942 0-2.263.723-3.962 2.17l-3.101 2.894c-4.065 4.02-7.751 8.51-11.059 13.47-2.044 3.055-3.813 6.006-5.305 8.854-4.295 8.223-9.015 20.82-14.16 37.793-3.123 10.336-5.466 16.296-7.028 17.88-1.217 1.24-1.825 2.262-1.825 3.066 0 .414.206.62.62.62.137 0 .333-.022.585-.068 8.085-1.378 16.422-2.067 25.012-2.067 3.26 0 7.223.137 11.885.413 7.58.46 12.85.689 15.813.689 2.274 0 4.295-.126 6.064-.379 1.102-.16 2.181-.39 3.238-.69 3.904-1.102 7.12-2.939 9.646-5.511 1.378-1.424 2.067-2.526 2.067-3.307a.766.766 0 0 0-.078-.36c.495.17 1.038.256 1.629.256.987 0 1.871-.275 2.652-.827 1.286-.895 1.93-2.135 1.93-3.72 0-.896-.23-1.712-.69-2.447-.872-1.424-2.262-2.135-4.168-2.135h-.172c-.368 0-.839.126-1.413.378-1.791.827-2.687 2.229-2.687 4.204 0 1.056.287 1.975.862 2.756.4.533.867.947 1.4 1.243-.555.007-1.045.13-1.47.376l-1.722 1.343c-2.297 1.608-6.5 2.412-12.61 2.412h-.723c0-.046.207-.275.62-.689a33.014 33.014 0 0 0 2.826-3.273c2.687-3.606 4.03-6.993 4.03-10.163 0-2.687-.86-4.926-2.583-6.718-1.838-1.929-4.158-2.893-6.96-2.893-3.008 0-6.488 1.446-10.438 4.34-.873.643-2.55 2.033-5.03 4.169-.276-1.562-.781-2.951-1.516-4.169-1.769-2.894-4.467-4.34-8.096-4.34-.367 0-.735.022-1.103.068-.786.082-1.621.275-2.5.569a6102.79 6102.79 0 0 0 11.768-13.247c3.583-4.065 4.617-5.236 3.1-3.514 6.822-7.625 12.276-11.438 16.365-11.438a6.53 6.53 0 0 1 1.93.276c.413.138.86.356 1.343.655 1.906 1.24 2.859 2.986 2.859 5.236 0 .827-.15 1.63-.448 2.412-.345 1.263-1.32 1.895-2.928 1.895-1.286 0-2.297-.448-3.032-1.344-.597-.712-.895-1.424-.895-2.136 0-.46.206-.953.62-1.481.482-.62.723-1.137.723-1.55 0-.345-.207-.517-.62-.517-.988.092-2.17.827-3.549 2.205-1.561 1.7-2.342 3.353-2.342 4.96 0 .896.241 1.711.723 2.446.942 1.447 2.423 2.17 4.445 2.17.918 0 1.837-.149 2.755-.447 2.596-.827 4.881-2.526 6.856-5.099 1.884-2.457 2.825-4.834 2.825-7.13 0-1.7-.47-3.194-1.412-4.48-1.378-1.906-3.342-2.859-5.891-2.859-.345 0-.62.011-.827.034-.207 0-.46.035-.758.103-5.558.827-12.38 5.605-20.464 14.332l-12.713 14.297c-4.019 4.548-6.086 6.914-6.2 7.097a5.492 5.492 0 0 0-.144.218c-1.555 1.058-3.205 2.337-4.955 3.847l-.586.483c1.493-5.214 2.905-9.888 4.237-14.022 4.777-14.722 9.865-26.09 15.262-34.106a62.535 62.535 0 0 1 6.408-8.062l3.928-3.961c1.194-1.218 1.79-2.206 1.79-2.963 0-.345-.217-.517-.653-.517zm-22.428 62.735c.23 0 .436.012.62.035 2.871.275 4.995 1.584 6.373 3.927.896 1.539 1.344 3.1 1.344 4.685-.023 1.93-.494 3.663-1.412 5.202-.368.643-.816 1.057-1.344 1.24-.62.23-2.63.426-6.029.586-2.963.138-5.615.333-7.958.586l-6.925.93.276-.482 3.824-7.028.861-1.447c3.376-5.49 6.833-8.234 10.37-8.234zm24.805.035c2.342 0 4.306.735 5.89 2.205 1.746 1.653 2.619 3.743 2.619 6.27-.092 2.342-.838 4.432-2.24 6.27-.137.16-.356.321-.654.482-1.194.643-2.756.964-4.685.964-.666 0-1.7-.045-3.1-.137-6.11-.39-10.187-.586-12.23-.586h-.518c1.401-1.516 2.917-3.571 4.548-6.167 1.791-2.848 2.963-4.627 3.514-5.34 1.814-2.273 3.847-3.582 6.098-3.927h.034zM-546.297 158.806q-1.688 0-1.998-1.62-.07-.31-.07-.654 0-1.102.655-2.205.827-1.412 3.204-4.375l2.446-3.17q.965-1.274 1.206-1.446.38-.276.758-.276.758 0 .965.827.034.138.034.344 0 .586-2.515 6.443-1.481 3.376-2.136 4.444-1.102 1.688-2.55 1.688z" transform="translate(1173.024 -40.748)"/></g></svg>